  0
SECTION
  2
HEADER
  9
$ACADVER
  1
AC2.10
  0
ENDSEC
  0
SECTION
  2
TABLES
  0
TABLE
  2
LAYER
 70
     8
  0
LAYER
  2
0
 62
     7
 70
0
  6
CONTINUOUS
  0
LAYER
  2
1
 62
     1
 70
0
  6
CONTINUOUS
  0
LAYER
  2
2
 62
     2
 70
0
  6
CONTINUOUS
  0
LAYER
  2
3
 62
     3
 70
0
  6
CONTINUOUS
  0
LAYER
  2
4
 62
     4
 70
0
  6
CONTINUOUS
  0
LAYER
  2
5
 62
     5
 70
0
  6
CONTINUOUS
  0
LAYER
  2
6
 62
     6
 70
0
  6
CONTINUOUS
  0
LAYER
  2
7
 62
     7
 70
0
  6
CONTINUOUS
  0
ENDTAB
  0
TABLE
  2
STYLE
 70
     1
  0
STYLE
 70
     0
  2
STANDARD
  3
TXT
 40
0.00
 41
1.00
 42
1.00
 50
0.00
 71
     0
  0
ENDTAB
  0
ENDSEC
  0
SECTION
  2
BLOCKS
  0
BLOCK
  8
0
  2
EPAD
 70
0
 10
0.0
 20
0.0
  0
POLYLINE
  8
0
 66
1
 70
1
 40
0.5
 41
0.5
  0
VERTEX
  8
0
 10
-0.25
 20
0.0
 42
1.0
  0
VERTEX
  8
0
 10
0.25
 20
0.0
 42
1.0
  0
SEQEND
  8
0
  0
ENDBLK
  8
0
  0
BLOCK
  8
0
  2
RPAD
 70
0
 10
0.0
 20
0.0
  0
TRACE
  8
0
 10
-0.5
 20
-0.5
 11
-0.5
 21
0.5
 12
0.5
 22
-0.5
 13
0.5
 23
0.5
  0
ENDBLK
  8
0
  0
ENDSEC
0
SECTION
2
ENTITIES
0
POLYLINE
8
0
66
1
40
0.025000
41
0.025000
0
VERTEX
8
0
10
1.328000
20
1.391000
0
VERTEX
8
0
10
1.328000
20
1.393000
0
VERTEX
8
0
10
1.331000
20
1.396000
0
SEQEND
8
0
0
INSERT
8
0
2
EPAD
10
2.649000
20
1.381000
41
0.080000
42
0.080000
0
CIRCLE
8
0
10
2.649000
20
1.381000
40
0.025000
0
INSERT
8
0
2
EPAD
10
2.098000
20
1.391000
41
0.080000
42
0.080000
0
CIRCLE
8
0
10
2.098000
20
1.391000
40
0.025000
0
INSERT
8
0
2
EPAD
10
1.565000
20
1.383000
41
0.080000
42
0.080000
0
CIRCLE
8
0
10
1.565000
20
1.383000
40
0.025000
0
INSERT
8
0
2
EPAD
10
0.974000
20
1.365000
41
0.080000
42
0.080000
0
CIRCLE
8
0
10
0.974000
20
1.365000
40
0.025000
0
INSERT
8
0
2
EPAD
10
0.419000
20
1.339000
41
0.080000
42
0.080000
0
CIRCLE
8
0
10
0.419000
20
1.339000
40
0.025000
0
INSERT
8
0
2
EPAD
10
-0.181000
20
1.360000
41
0.080000
42
0.080000
0
CIRCLE
8
0
10
-0.181000
20
1.360000
40
0.025000
0
INSERT
8
0
2
EPAD
10
2.431000
20
1.391000
41
0.080000
42
0.080000
0
CIRCLE
8
0
10
2.431000
20
1.391000
40
0.025000
0
INSERT
8
0
2
EPAD
10
3.001000
20
1.391000
41
0.080000
42
0.080000
0
CIRCLE
8
0
10
3.001000
20
1.391000
40
0.025000
0
INSERT
8
0
2
EPAD
10
1.899000
20
1.391000
41
0.080000
42
0.080000
0
CIRCLE
8
0
10
1.899000
20
1.391000
40
0.025000
0
INSERT
8
0
2
EPAD
10
1.328000
20
1.391000
41
0.080000
42
0.080000
0
CIRCLE
8
0
10
1.328000
20
1.391000
40
0.025000
0
INSERT
8
0
2
EPAD
10
1.331000
20
1.396000
41
0.080000
42
0.080000
0
CIRCLE
8
0
10
1.331000
20
1.396000
40
0.025000
0
INSERT
8
0
2
EPAD
10
0.777000
20
1.341000
41
0.080000
42
0.080000
0
CIRCLE
8
0
10
0.777000
20
1.341000
40
0.025000
0
INSERT
8
0
2
EPAD
10
0.187000
20
1.341000
41
0.080000
42
0.080000
0
CIRCLE
8
0
10
0.187000
20
1.341000
40
0.025000
0
INSERT
8
0
2
EPAD
10
-0.787000
20
1.365000
41
0.080000
42
0.080000
0
CIRCLE
8
0
10
-0.787000
20
1.365000
40
0.025000
0
INSERT
8
0
2
EPAD
10
-0.423000
20
1.341000
41
0.080000
42
0.080000
0
CIRCLE
8
0
10
-0.423000
20
1.341000
40
0.025000
0
INSERT
8
0
2
EPAD
10
-3.391000
20
1.221000
41
0.100000
42
0.100000
0
CIRCLE
8
0
10
-3.391000
20
1.221000
40
0.025000
0
INSERT
8
0
2
EPAD
10
-3.191000
20
1.021000
41
0.100000
42
0.100000
0
CIRCLE
8
0
10
-3.191000
20
1.021000
40
0.025000
0
INSERT
8
0
2
EPAD
10
-3.391000
20
1.021000
41
0.100000
42
0.100000
0
CIRCLE
8
0
10
-3.391000
20
1.021000
40
0.025000
0
INSERT
8
0
2
EPAD
10
-3.191000
20
1.221000
41
0.100000
42
0.100000
0
CIRCLE
8
0
10
-3.191000
20
1.221000
40
0.025000
0
INSERT
8
0
2
RPAD
10
-2.703000
20
-0.639000
41
0.050000
42
0.050000
50
0.000000
0
CIRCLE
8
0
10
-2.703000
20
-0.639000
40
0.030000
0
INSERT
8
0
2
EPAD
10
-2.603000
20
-0.639000
41
0.050000
42
0.050000
0
CIRCLE
8
0
10
-2.603000
20
-0.639000
40
0.030000
0
INSERT
8
0
2
EPAD
10
-2.503000
20
-0.639000
41
0.050000
42
0.050000
0
CIRCLE
8
0
10
-2.503000
20
-0.639000
40
0.030000
0
INSERT
8
0
2
EPAD
10
-2.403000
20
-0.639000
41
0.050000
42
0.050000
0
CIRCLE
8
0
10
-2.403000
20
-0.639000
40
0.030000
0
INSERT
8
0
2
EPAD
10
-2.303000
20
-0.639000
41
0.050000
42
0.050000
0
CIRCLE
8
0
10
-2.303000
20
-0.639000
40
0.030000
0
INSERT
8
0
2
EPAD
10
-2.203000
20
-0.639000
41
0.050000
42
0.050000
0
CIRCLE
8
0
10
-2.203000
20
-0.639000
40
0.030000
0
INSERT
8
0
2
EPAD
10
-2.103000
20
-0.639000
41
0.050000
42
0.050000
0
CIRCLE
8
0
10
-2.103000
20
-0.639000
40
0.030000
0
INSERT
8
0
2
EPAD
10
-2.003000
20
-0.639000
41
0.050000
42
0.050000
0
CIRCLE
8
0
10
-2.003000
20
-0.639000
40
0.030000
0
INSERT
8
0
2
EPAD
10
-1.903000
20
-0.639000
41
0.050000
42
0.050000
0
CIRCLE
8
0
10
-1.903000
20
-0.639000
40
0.030000
0
INSERT
8
0
2
EPAD
10
-1.803000
20
-0.639000
41
0.050000
42
0.050000
0
CIRCLE
8
0
10
-1.803000
20
-0.639000
40
0.030000
0
INSERT
8
0
2
EPAD
10
-1.703000
20
-0.639000
41
0.050000
42
0.050000
0
CIRCLE
8
0
10
-1.703000
20
-0.639000
40
0.030000
0
INSERT
8
0
2
EPAD
10
-1.603000
20
-0.639000
41
0.050000
42
0.050000
0
CIRCLE
8
0
10
-1.603000
20
-0.639000
40
0.030000
0
INSERT
8
0
2
EPAD
10
-1.503000
20
-0.639000
41
0.050000
42
0.050000
0
CIRCLE
8
0
10
-1.503000
20
-0.639000
40
0.030000
0
INSERT
8
0
2
EPAD
10
-1.403000
20
-0.639000
41
0.050000
42
0.050000
0
CIRCLE
8
0
10
-1.403000
20
-0.639000
40
0.030000
0
INSERT
8
0
2
EPAD
10
-1.303000
20
-0.639000
41
0.050000
42
0.050000
0
CIRCLE
8
0
10
-1.303000
20
-0.639000
40
0.030000
0
INSERT
8
0
2
EPAD
10
-1.203000
20
-0.639000
41
0.050000
42
0.050000
0
CIRCLE
8
0
10
-1.203000
20
-0.639000
40
0.030000
0
INSERT
8
0
2
EPAD
10
-1.103000
20
-0.639000
41
0.050000
42
0.050000
0
CIRCLE
8
0
10
-1.103000
20
-0.639000
40
0.030000
0
INSERT
8
0
2
EPAD
10
-1.003000
20
-0.639000
41
0.050000
42
0.050000
0
CIRCLE
8
0
10
-1.003000
20
-0.639000
40
0.030000
0
INSERT
8
0
2
EPAD
10
-0.903000
20
-0.639000
41
0.050000
42
0.050000
0
CIRCLE
8
0
10
-0.903000
20
-0.639000
40
0.030000
0
INSERT
8
0
2
EPAD
10
-0.803000
20
-0.639000
41
0.050000
42
0.050000
0
CIRCLE
8
0
10
-0.803000
20
-0.639000
40
0.030000
0
INSERT
8
0
2
EPAD
10
-0.803000
20
-0.039000
41
0.050000
42
0.050000
0
CIRCLE
8
0
10
-0.803000
20
-0.039000
40
0.030000
0
INSERT
8
0
2
EPAD
10
-0.903000
20
-0.039000
41
0.050000
42
0.050000
0
CIRCLE
8
0
10
-0.903000
20
-0.039000
40
0.030000
0
INSERT
8
0
2
EPAD
10
-1.003000
20
-0.039000
41
0.050000
42
0.050000
0
CIRCLE
8
0
10
-1.003000
20
-0.039000
40
0.030000
0
INSERT
8
0
2
EPAD
10
-1.103000
20
-0.039000
41
0.050000
42
0.050000
0
CIRCLE
8
0
10
-1.103000
20
-0.039000
40
0.030000
0
INSERT
8
0
2
EPAD
10
-1.203000
20
-0.039000
41
0.050000
42
0.050000
0
CIRCLE
8
0
10
-1.203000
20
-0.039000
40
0.030000
0
INSERT
8
0
2
EPAD
10
-1.303000
20
-0.039000
41
0.050000
42
0.050000
0
CIRCLE
8
0
10
-1.303000
20
-0.039000
40
0.030000
0
INSERT
8
0
2
EPAD
10
-1.403000
20
-0.039000
41
0.050000
42
0.050000
0
CIRCLE
8
0
10
-1.403000
20
-0.039000
40
0.030000
0
INSERT
8
0
2
EPAD
10
-1.503000
20
-0.039000
41
0.050000
42
0.050000
0
CIRCLE
8
0
10
-1.503000
20
-0.039000
40
0.030000
0
INSERT
8
0
2
EPAD
10
-1.603000
20
-0.039000
41
0.050000
42
0.050000
0
CIRCLE
8
0
10
-1.603000
20
-0.039000
40
0.030000
0
INSERT
8
0
2
EPAD
10
-1.703000
20
-0.039000
41
0.050000
42
0.050000
0
CIRCLE
8
0
10
-1.703000
20
-0.039000
40
0.030000
0
INSERT
8
0
2
EPAD
10
-1.803000
20
-0.039000
41
0.050000
42
0.050000
0
CIRCLE
8
0
10
-1.803000
20
-0.039000
40
0.030000
0
INSERT
8
0
2
EPAD
10
-1.903000
20
-0.039000
41
0.050000
42
0.050000
0
CIRCLE
8
0
10
-1.903000
20
-0.039000
40
0.030000
0
INSERT
8
0
2
EPAD
10
-2.003000
20
-0.039000
41
0.050000
42
0.050000
0
CIRCLE
8
0
10
-2.003000
20
-0.039000
40
0.030000
0
INSERT
8
0
2
EPAD
10
-2.103000
20
-0.039000
41
0.050000
42
0.050000
0
CIRCLE
8
0
10
-2.103000
20
-0.039000
40
0.030000
0
INSERT
8
0
2
EPAD
10
-2.203000
20
-0.039000
41
0.050000
42
0.050000
0
CIRCLE
8
0
10
-2.203000
20
-0.039000
40
0.030000
0
INSERT
8
0
2
EPAD
10
-2.303000
20
-0.039000
41
0.050000
42
0.050000
0
CIRCLE
8
0
10
-2.303000
20
-0.039000
40
0.030000
0
INSERT
8
0
2
EPAD
10
-2.403000
20
-0.039000
41
0.050000
42
0.050000
0
CIRCLE
8
0
10
-2.403000
20
-0.039000
40
0.030000
0
INSERT
8
0
2
EPAD
10
-2.503000
20
-0.039000
41
0.050000
42
0.050000
0
CIRCLE
8
0
10
-2.503000
20
-0.039000
40
0.030000
0
INSERT
8
0
2
EPAD
10
-2.603000
20
-0.039000
41
0.050000
42
0.050000
0
CIRCLE
8
0
10
-2.603000
20
-0.039000
40
0.030000
0
INSERT
8
0
2
EPAD
10
-2.703000
20
-0.039000
41
0.050000
42
0.050000
0
CIRCLE
8
0
10
-2.703000
20
-0.039000
40
0.030000
0
INSERT
8
0
2
RPAD
10
0.505000
20
-0.639000
41
0.050000
42
0.050000
50
0.000000
0
CIRCLE
8
0
10
0.505000
20
-0.639000
40
0.030000
0
INSERT
8
0
2
EPAD
10
0.605000
20
-0.639000
41
0.050000
42
0.050000
0
CIRCLE
8
0
10
0.605000
20
-0.639000
40
0.030000
0
INSERT
8
0
2
EPAD
10
0.705000
20
-0.639000
41
0.050000
42
0.050000
0
CIRCLE
8
0
10
0.705000
20
-0.639000
40
0.030000
0
INSERT
8
0
2
EPAD
10
0.805000
20
-0.639000
41
0.050000
42
0.050000
0
CIRCLE
8
0
10
0.805000
20
-0.639000
40
0.030000
0
INSERT
8
0
2
EPAD
10
0.905000
20
-0.639000
41
0.050000
42
0.050000
0
CIRCLE
8
0
10
0.905000
20
-0.639000
40
0.030000
0
INSERT
8
0
2
EPAD
10
1.005000
20
-0.639000
41
0.050000
42
0.050000
0
CIRCLE
8
0
10
1.005000
20
-0.639000
40
0.030000
0
INSERT
8
0
2
EPAD
10
1.105000
20
-0.639000
41
0.050000
42
0.050000
0
CIRCLE
8
0
10
1.105000
20
-0.639000
40
0.030000
0
INSERT
8
0
2
EPAD
10
1.205000
20
-0.639000
41
0.050000
42
0.050000
0
CIRCLE
8
0
10
1.205000
20
-0.639000
40
0.030000
0
INSERT
8
0
2
EPAD
10
1.305000
20
-0.639000
41
0.050000
42
0.050000
0
CIRCLE
8
0
10
1.305000
20
-0.639000
40
0.030000
0
INSERT
8
0
2
EPAD
10
1.405000
20
-0.639000
41
0.050000
42
0.050000
0
CIRCLE
8
0
10
1.405000
20
-0.639000
40
0.030000
0
INSERT
8
0
2
EPAD
10
1.505000
20
-0.639000
41
0.050000
42
0.050000
0
CIRCLE
8
0
10
1.505000
20
-0.639000
40
0.030000
0
INSERT
8
0
2
EPAD
10
1.605000
20
-0.639000
41
0.050000
42
0.050000
0
CIRCLE
8
0
10
1.605000
20
-0.639000
40
0.030000
0
INSERT
8
0
2
EPAD
10
1.705000
20
-0.639000
41
0.050000
42
0.050000
0
CIRCLE
8
0
10
1.705000
20
-0.639000
40
0.030000
0
INSERT
8
0
2
EPAD
10
1.805000
20
-0.639000
41
0.050000
42
0.050000
0
CIRCLE
8
0
10
1.805000
20
-0.639000
40
0.030000
0
INSERT
8
0
2
EPAD
10
1.905000
20
-0.639000
41
0.050000
42
0.050000
0
CIRCLE
8
0
10
1.905000
20
-0.639000
40
0.030000
0
INSERT
8
0
2
EPAD
10
2.005000
20
-0.639000
41
0.050000
42
0.050000
0
CIRCLE
8
0
10
2.005000
20
-0.639000
40
0.030000
0
INSERT
8
0
2
EPAD
10
2.105000
20
-0.639000
41
0.050000
42
0.050000
0
CIRCLE
8
0
10
2.105000
20
-0.639000
40
0.030000
0
INSERT
8
0
2
EPAD
10
2.205000
20
-0.639000
41
0.050000
42
0.050000
0
CIRCLE
8
0
10
2.205000
20
-0.639000
40
0.030000
0
INSERT
8
0
2
EPAD
10
2.305000
20
-0.639000
41
0.050000
42
0.050000
0
CIRCLE
8
0
10
2.305000
20
-0.639000
40
0.030000
0
INSERT
8
0
2
EPAD
10
2.405000
20
-0.639000
41
0.050000
42
0.050000
0
CIRCLE
8
0
10
2.405000
20
-0.639000
40
0.030000
0
INSERT
8
0
2
EPAD
10
2.405000
20
-0.039000
41
0.050000
42
0.050000
0
CIRCLE
8
0
10
2.405000
20
-0.039000
40
0.030000
0
INSERT
8
0
2
EPAD
10
2.305000
20
-0.039000
41
0.050000
42
0.050000
0
CIRCLE
8
0
10
2.305000
20
-0.039000
40
0.030000
0
INSERT
8
0
2
EPAD
10
2.205000
20
-0.039000
41
0.050000
42
0.050000
0
CIRCLE
8
0
10
2.205000
20
-0.039000
40
0.030000
0
INSERT
8
0
2
EPAD
10
2.105000
20
-0.039000
41
0.050000
42
0.050000
0
CIRCLE
8
0
10
2.105000
20
-0.039000
40
0.030000
0
INSERT
8
0
2
EPAD
10
2.005000
20
-0.039000
41
0.050000
42
0.050000
0
CIRCLE
8
0
10
2.005000
20
-0.039000
40
0.030000
0
INSERT
8
0
2
EPAD
10
1.905000
20
-0.039000
41
0.050000
42
0.050000
0
CIRCLE
8
0
10
1.905000
20
-0.039000
40
0.030000
0
INSERT
8
0
2
EPAD
10
1.805000
20
-0.039000
41
0.050000
42
0.050000
0
CIRCLE
8
0
10
1.805000
20
-0.039000
40
0.030000
0
INSERT
8
0
2
EPAD
10
1.705000
20
-0.039000
41
0.050000
42
0.050000
0
CIRCLE
8
0
10
1.705000
20
-0.039000
40
0.030000
0
INSERT
8
0
2
EPAD
10
1.605000
20
-0.039000
41
0.050000
42
0.050000
0
CIRCLE
8
0
10
1.605000
20
-0.039000
40
0.030000
0
INSERT
8
0
2
EPAD
10
1.505000
20
-0.039000
41
0.050000
42
0.050000
0
CIRCLE
8
0
10
1.505000
20
-0.039000
40
0.030000
0
INSERT
8
0
2
EPAD
10
1.405000
20
-0.039000
41
0.050000
42
0.050000
0
CIRCLE
8
0
10
1.405000
20
-0.039000
40
0.030000
0
INSERT
8
0
2
EPAD
10
1.305000
20
-0.039000
41
0.050000
42
0.050000
0
CIRCLE
8
0
10
1.305000
20
-0.039000
40
0.030000
0
INSERT
8
0
2
EPAD
10
1.205000
20
-0.039000
41
0.050000
42
0.050000
0
CIRCLE
8
0
10
1.205000
20
-0.039000
40
0.030000
0
INSERT
8
0
2
EPAD
10
1.105000
20
-0.039000
41
0.050000
42
0.050000
0
CIRCLE
8
0
10
1.105000
20
-0.039000
40
0.030000
0
INSERT
8
0
2
EPAD
10
1.005000
20
-0.039000
41
0.050000
42
0.050000
0
CIRCLE
8
0
10
1.005000
20
-0.039000
40
0.030000
0
INSERT
8
0
2
EPAD
10
0.905000
20
-0.039000
41
0.050000
42
0.050000
0
CIRCLE
8
0
10
0.905000
20
-0.039000
40
0.030000
0
INSERT
8
0
2
EPAD
10
0.805000
20
-0.039000
41
0.050000
42
0.050000
0
CIRCLE
8
0
10
0.805000
20
-0.039000
40
0.030000
0
INSERT
8
0
2
EPAD
10
0.705000
20
-0.039000
41
0.050000
42
0.050000
0
CIRCLE
8
0
10
0.705000
20
-0.039000
40
0.030000
0
INSERT
8
0
2
EPAD
10
0.605000
20
-0.039000
41
0.050000
42
0.050000
0
CIRCLE
8
0
10
0.605000
20
-0.039000
40
0.030000
0
INSERT
8
0
2
EPAD
10
0.505000
20
-0.039000
41
0.050000
42
0.050000
0
CIRCLE
8
0
10
0.505000
20
-0.039000
40
0.030000
0
INSERT
8
0
2
EPAD
10
-1.542000
20
-0.795000
41
0.070000
42
0.070000
0
CIRCLE
8
0
10
-1.542000
20
-0.795000
40
0.025000
0
INSERT
8
0
2
EPAD
10
-1.542000
20
-0.995000
41
0.070000
42
0.070000
0
CIRCLE
8
0
10
-1.542000
20
-0.995000
40
0.025000
0
INSERT
8
0
2
EPAD
10
-1.365000
20
-0.795000
41
0.070000
42
0.070000
0
CIRCLE
8
0
10
-1.365000
20
-0.795000
40
0.025000
0
INSERT
8
0
2
EPAD
10
-1.365000
20
-0.995000
41
0.070000
42
0.070000
0
CIRCLE
8
0
10
-1.365000
20
-0.995000
40
0.025000
0
INSERT
8
0
2
EPAD
10
-1.505000
20
-0.451000
41
0.080000
42
0.080000
0
CIRCLE
8
0
10
-1.505000
20
-0.451000
40
0.025000
0
INSERT
8
0
2
EPAD
10
-1.305000
20
-0.451000
41
0.080000
42
0.080000
0
CIRCLE
8
0
10
-1.305000
20
-0.451000
40
0.025000
0
INSERT
8
0
2
EPAD
10
-1.394000
20
0.383000
41
0.080000
42
0.080000
0
CIRCLE
8
0
10
-1.394000
20
0.383000
40
0.010000
0
INSERT
8
0
2
EPAD
10
-1.494000
20
0.383000
41
0.080000
42
0.080000
0
CIRCLE
8
0
10
-1.494000
20
0.383000
40
0.010000
0
INSERT
8
0
2
EPAD
10
-1.594000
20
0.383000
41
0.080000
42
0.080000
0
CIRCLE
8
0
10
-1.594000
20
0.383000
40
0.010000
0
INSERT
8
0
2
EPAD
10
-1.694000
20
0.383000
41
0.080000
42
0.080000
0
CIRCLE
8
0
10
-1.694000
20
0.383000
40
0.010000
0
INSERT
8
0
2
EPAD
10
-1.794000
20
0.383000
41
0.080000
42
0.080000
0
CIRCLE
8
0
10
-1.794000
20
0.383000
40
0.010000
0
INSERT
8
0
2
EPAD
10
-1.894000
20
0.383000
41
0.080000
42
0.080000
0
CIRCLE
8
0
10
-1.894000
20
0.383000
40
0.010000
0
INSERT
8
0
2
EPAD
10
-1.994000
20
0.383000
41
0.080000
42
0.080000
0
CIRCLE
8
0
10
-1.994000
20
0.383000
40
0.010000
0
INSERT
8
0
2
EPAD
10
-2.094000
20
0.383000
41
0.080000
42
0.080000
0
CIRCLE
8
0
10
-2.094000
20
0.383000
40
0.010000
0
INSERT
8
0
2
EPAD
10
-2.194000
20
0.383000
41
0.080000
42
0.080000
0
CIRCLE
8
0
10
-2.194000
20
0.383000
40
0.010000
0
INSERT
8
0
2
EPAD
10
-2.294000
20
0.383000
41
0.080000
42
0.080000
0
CIRCLE
8
0
10
-2.294000
20
0.383000
40
0.010000
0
INSERT
8
0
2
EPAD
10
-2.394000
20
0.383000
41
0.080000
42
0.080000
0
CIRCLE
8
0
10
-2.394000
20
0.383000
40
0.010000
0
INSERT
8
0
2
EPAD
10
-2.494000
20
0.383000
41
0.080000
42
0.080000
0
CIRCLE
8
0
10
-2.494000
20
0.383000
40
0.010000
0
INSERT
8
0
2
EPAD
10
-2.594000
20
0.383000
41
0.080000
42
0.080000
0
CIRCLE
8
0
10
-2.594000
20
0.383000
40
0.010000
0
INSERT
8
0
2
EPAD
10
-2.694000
20
0.383000
41
0.080000
42
0.080000
0
CIRCLE
8
0
10
-2.694000
20
0.383000
40
0.010000
0
INSERT
8
0
2
EPAD
10
-2.794000
20
0.383000
41
0.080000
42
0.080000
0
CIRCLE
8
0
10
-2.794000
20
0.383000
40
0.010000
0
INSERT
8
0
2
EPAD
10
-2.894000
20
0.383000
41
0.080000
42
0.080000
0
CIRCLE
8
0
10
-2.894000
20
0.383000
40
0.010000
0
INSERT
8
0
2
EPAD
10
-2.994000
20
0.383000
41
0.080000
42
0.080000
0
CIRCLE
8
0
10
-2.994000
20
0.383000
40
0.010000
0
INSERT
8
0
2
EPAD
10
-3.094000
20
0.383000
41
0.080000
42
0.080000
0
CIRCLE
8
0
10
-3.094000
20
0.383000
40
0.010000
0
INSERT
8
0
2
EPAD
10
-3.194000
20
0.383000
41
0.080000
42
0.080000
0
CIRCLE
8
0
10
-3.194000
20
0.383000
40
0.010000
0
INSERT
8
0
2
EPAD
10
-3.294000
20
0.383000
41
0.080000
42
0.080000
0
CIRCLE
8
0
10
-3.294000
20
0.383000
40
0.010000
0
INSERT
8
0
2
EPAD
10
-3.335000
20
-0.316000
41
0.080000
42
0.080000
0
CIRCLE
8
0
10
-3.335000
20
-0.316000
40
0.025000
0
INSERT
8
0
2
EPAD
10
-3.135000
20
-0.316000
41
0.080000
42
0.080000
0
CIRCLE
8
0
10
-3.135000
20
-0.316000
40
0.025000
0
INSERT
8
0
2
EPAD
10
-3.235000
20
-0.096000
41
0.080000
42
0.080000
0
CIRCLE
8
0
10
-3.235000
20
-0.096000
40
0.025000
0
INSERT
8
0
2
EPAD
10
-0.767000
20
-0.473000
41
0.070000
42
0.070000
0
CIRCLE
8
0
10
-0.767000
20
-0.473000
40
0.025000
0
INSERT
8
0
2
EPAD
10
-0.967000
20
-0.473000
41
0.070000
42
0.070000
0
CIRCLE
8
0
10
-0.967000
20
-0.473000
40
0.025000
0
INSERT
8
0
2
EPAD
10
-2.314000
20
-1.231000
41
0.080000
42
0.080000
0
CIRCLE
8
0
10
-2.314000
20
-1.231000
40
0.010000
0
INSERT
8
0
2
EPAD
10
-2.214000
20
-1.231000
41
0.080000
42
0.080000
0
CIRCLE
8
0
10
-2.214000
20
-1.231000
40
0.010000
0
INSERT
8
0
2
EPAD
10
-2.114000
20
-1.231000
41
0.080000
42
0.080000
0
CIRCLE
8
0
10
-2.114000
20
-1.231000
40
0.010000
0
INSERT
8
0
2
EPAD
10
-2.014000
20
-1.231000
41
0.080000
42
0.080000
0
CIRCLE
8
0
10
-2.014000
20
-1.231000
40
0.010000
0
INSERT
8
0
2
EPAD
10
-1.914000
20
-1.231000
41
0.080000
42
0.080000
0
CIRCLE
8
0
10
-1.914000
20
-1.231000
40
0.010000
0
INSERT
8
0
2
EPAD
10
-1.814000
20
-1.231000
41
0.080000
42
0.080000
0
CIRCLE
8
0
10
-1.814000
20
-1.231000
40
0.010000
0
INSERT
8
0
2
EPAD
10
-1.714000
20
-1.231000
41
0.080000
42
0.080000
0
CIRCLE
8
0
10
-1.714000
20
-1.231000
40
0.010000
0
INSERT
8
0
2
EPAD
10
-1.614000
20
-1.231000
41
0.080000
42
0.080000
0
CIRCLE
8
0
10
-1.614000
20
-1.231000
40
0.010000
0
INSERT
8
0
2
EPAD
10
-3.034000
20
-1.231000
41
0.080000
42
0.080000
0
CIRCLE
8
0
10
-3.034000
20
-1.231000
40
0.010000
0
INSERT
8
0
2
EPAD
10
-2.934000
20
-1.231000
41
0.080000
42
0.080000
0
CIRCLE
8
0
10
-2.934000
20
-1.231000
40
0.010000
0
INSERT
8
0
2
EPAD
10
-2.834000
20
-1.231000
41
0.080000
42
0.080000
0
CIRCLE
8
0
10
-2.834000
20
-1.231000
40
0.010000
0
INSERT
8
0
2
EPAD
10
-2.734000
20
-1.231000
41
0.080000
42
0.080000
0
CIRCLE
8
0
10
-2.734000
20
-1.231000
40
0.010000
0
INSERT
8
0
2
EPAD
10
-2.634000
20
-1.231000
41
0.080000
42
0.080000
0
CIRCLE
8
0
10
-2.634000
20
-1.231000
40
0.010000
0
INSERT
8
0
2
EPAD
10
-2.534000
20
-1.231000
41
0.080000
42
0.080000
0
CIRCLE
8
0
10
-2.534000
20
-1.231000
40
0.010000
0
INSERT
8
0
2
EPAD
10
-1.276000
20
-1.231000
41
0.080000
42
0.080000
0
CIRCLE
8
0
10
-1.276000
20
-1.231000
40
0.010000
0
INSERT
8
0
2
EPAD
10
-1.176000
20
-1.231000
41
0.080000
42
0.080000
0
CIRCLE
8
0
10
-1.176000
20
-1.231000
40
0.010000
0
INSERT
8
0
2
EPAD
10
-1.076000
20
-1.231000
41
0.080000
42
0.080000
0
CIRCLE
8
0
10
-1.076000
20
-1.231000
40
0.010000
0
INSERT
8
0
2
EPAD
10
-0.976000
20
-1.231000
41
0.080000
42
0.080000
0
CIRCLE
8
0
10
-0.976000
20
-1.231000
40
0.010000
0
INSERT
8
0
2
EPAD
10
-0.876000
20
-1.231000
41
0.080000
42
0.080000
0
CIRCLE
8
0
10
-0.876000
20
-1.231000
40
0.010000
0
INSERT
8
0
2
EPAD
10
-0.776000
20
-1.231000
41
0.080000
42
0.080000
0
CIRCLE
8
0
10
-0.776000
20
-1.231000
40
0.010000
0
INSERT
8
0
2
EPAD
10
-0.957000
20
0.388000
41
0.080000
42
0.080000
0
CIRCLE
8
0
10
-0.957000
20
0.388000
40
0.010000
0
INSERT
8
0
2
EPAD
10
-1.057000
20
0.388000
41
0.080000
42
0.080000
0
CIRCLE
8
0
10
-1.057000
20
0.388000
40
0.010000
0
INSERT
8
0
2
EPAD
10
-1.157000
20
0.388000
41
0.080000
42
0.080000
0
CIRCLE
8
0
10
-1.157000
20
0.388000
40
0.010000
0
INSERT
8
0
2
EPAD
10
-2.316000
20
-1.443000
41
0.070000
42
0.070000
0
CIRCLE
8
0
10
-2.316000
20
-1.443000
40
0.025000
0
INSERT
8
0
2
EPAD
10
-2.316000
20
-1.843000
41
0.070000
42
0.070000
0
CIRCLE
8
0
10
-2.316000
20
-1.843000
40
0.025000
0
INSERT
8
0
2
EPAD
10
-2.201000
20
-1.443000
41
0.070000
42
0.070000
0
CIRCLE
8
0
10
-2.201000
20
-1.443000
40
0.025000
0
INSERT
8
0
2
EPAD
10
-2.201000
20
-1.843000
41
0.070000
42
0.070000
0
CIRCLE
8
0
10
-2.201000
20
-1.843000
40
0.025000
0
INSERT
8
0
2
EPAD
10
-2.091000
20
-1.443000
41
0.070000
42
0.070000
0
CIRCLE
8
0
10
-2.091000
20
-1.443000
40
0.025000
0
INSERT
8
0
2
EPAD
10
-2.091000
20
-1.843000
41
0.070000
42
0.070000
0
CIRCLE
8
0
10
-2.091000
20
-1.843000
40
0.025000
0
INSERT
8
0
2
EPAD
10
-1.981000
20
-1.443000
41
0.070000
42
0.070000
0
CIRCLE
8
0
10
-1.981000
20
-1.443000
40
0.025000
0
INSERT
8
0
2
EPAD
10
-1.981000
20
-1.843000
41
0.070000
42
0.070000
0
CIRCLE
8
0
10
-1.981000
20
-1.843000
40
0.025000
0
INSERT
8
0
2
EPAD
10
-1.861000
20
-1.443000
41
0.070000
42
0.070000
0
CIRCLE
8
0
10
-1.861000
20
-1.443000
40
0.025000
0
INSERT
8
0
2
EPAD
10
-1.861000
20
-1.843000
41
0.070000
42
0.070000
0
CIRCLE
8
0
10
-1.861000
20
-1.843000
40
0.025000
0
INSERT
8
0
2
EPAD
10
-2.966000
20
-0.643000
41
0.070000
42
0.070000
0
CIRCLE
8
0
10
-2.966000
20
-0.643000
40
0.025000
0
INSERT
8
0
2
EPAD
10
-3.366000
20
-0.643000
41
0.070000
42
0.070000
0
CIRCLE
8
0
10
-3.366000
20
-0.643000
40
0.025000
0
INSERT
8
0
2
EPAD
10
2.088000
20
-0.873000
41
0.080000
42
0.080000
0
CIRCLE
8
0
10
2.088000
20
-0.873000
40
0.025000
0
INSERT
8
0
2
EPAD
10
2.088000
20
-0.973000
41
0.080000
42
0.080000
0
CIRCLE
8
0
10
2.088000
20
-0.973000
40
0.025000
0
INSERT
8
0
2
EPAD
10
0.358000
20
-0.463000
41
0.070000
42
0.070000
0
CIRCLE
8
0
10
0.358000
20
-0.463000
40
0.025000
0
INSERT
8
0
2
EPAD
10
-0.041000
20
-0.463000
41
0.070000
42
0.070000
0
CIRCLE
8
0
10
-0.041000
20
-0.463000
40
0.025000
0
INSERT
8
0
2
EPAD
10
1.103000
20
0.471000
41
0.070000
42
0.070000
0
CIRCLE
8
0
10
1.103000
20
0.471000
40
0.025000
0
INSERT
8
0
2
EPAD
10
1.103000
20
0.071000
41
0.070000
42
0.070000
0
CIRCLE
8
0
10
1.103000
20
0.071000
40
0.025000
0
INSERT
8
0
2
EPAD
10
0.998000
20
0.471000
41
0.070000
42
0.070000
0
CIRCLE
8
0
10
0.998000
20
0.471000
40
0.025000
0
INSERT
8
0
2
EPAD
10
0.998000
20
0.071000
41
0.070000
42
0.070000
0
CIRCLE
8
0
10
0.998000
20
0.071000
40
0.025000
0
INSERT
8
0
2
EPAD
10
0.888000
20
0.471000
41
0.070000
42
0.070000
0
CIRCLE
8
0
10
0.888000
20
0.471000
40
0.025000
0
INSERT
8
0
2
EPAD
10
0.888000
20
0.071000
41
0.070000
42
0.070000
0
CIRCLE
8
0
10
0.888000
20
0.071000
40
0.025000
0
INSERT
8
0
2
EPAD
10
0.778000
20
0.471000
41
0.070000
42
0.070000
0
CIRCLE
8
0
10
0.778000
20
0.471000
40
0.025000
0
INSERT
8
0
2
EPAD
10
0.778000
20
0.071000
41
0.070000
42
0.070000
0
CIRCLE
8
0
10
0.778000
20
0.071000
40
0.025000
0
INSERT
8
0
2
EPAD
10
0.663000
20
0.471000
41
0.070000
42
0.070000
0
CIRCLE
8
0
10
0.663000
20
0.471000
40
0.025000
0
INSERT
8
0
2
EPAD
10
0.663000
20
0.071000
41
0.070000
42
0.070000
0
CIRCLE
8
0
10
0.663000
20
0.071000
40
0.025000
0
INSERT
8
0
2
EPAD
10
0.548000
20
0.471000
41
0.070000
42
0.070000
0
CIRCLE
8
0
10
0.548000
20
0.471000
40
0.025000
0
INSERT
8
0
2
EPAD
10
0.548000
20
0.071000
41
0.070000
42
0.070000
0
CIRCLE
8
0
10
0.548000
20
0.071000
40
0.025000
0
INSERT
8
0
2
EPAD
10
0.433000
20
0.471000
41
0.070000
42
0.070000
0
CIRCLE
8
0
10
0.433000
20
0.471000
40
0.025000
0
INSERT
8
0
2
EPAD
10
0.433000
20
0.071000
41
0.070000
42
0.070000
0
CIRCLE
8
0
10
0.433000
20
0.071000
40
0.025000
0
INSERT
8
0
2
EPAD
10
2.303000
20
-0.778000
41
0.070000
42
0.070000
0
CIRCLE
8
0
10
2.303000
20
-0.778000
40
0.025000
0
INSERT
8
0
2
EPAD
10
2.303000
20
-1.178000
41
0.070000
42
0.070000
0
CIRCLE
8
0
10
2.303000
20
-1.178000
40
0.025000
0
INSERT
8
0
2
EPAD
10
2.428000
20
-0.778000
41
0.070000
42
0.070000
0
CIRCLE
8
0
10
2.428000
20
-0.778000
40
0.025000
0
INSERT
8
0
2
EPAD
10
2.428000
20
-1.178000
41
0.070000
42
0.070000
0
CIRCLE
8
0
10
2.428000
20
-1.178000
40
0.025000
0
INSERT
8
0
2
EPAD
10
2.458000
20
0.071000
41
0.070000
42
0.070000
0
CIRCLE
8
0
10
2.458000
20
0.071000
40
0.025000
0
INSERT
8
0
2
EPAD
10
2.458000
20
0.471000
41
0.070000
42
0.070000
0
CIRCLE
8
0
10
2.458000
20
0.471000
40
0.025000
0
INSERT
8
0
2
EPAD
10
2.353000
20
0.071000
41
0.070000
42
0.070000
0
CIRCLE
8
0
10
2.353000
20
0.071000
40
0.025000
0
INSERT
8
0
2
EPAD
10
2.353000
20
0.471000
41
0.070000
42
0.070000
0
CIRCLE
8
0
10
2.353000
20
0.471000
40
0.025000
0
INSERT
8
0
2
EPAD
10
1.818000
20
0.071000
41
0.070000
42
0.070000
0
CIRCLE
8
0
10
1.818000
20
0.071000
40
0.025000
0
INSERT
8
0
2
EPAD
10
1.818000
20
0.471000
41
0.070000
42
0.070000
0
CIRCLE
8
0
10
1.818000
20
0.471000
40
0.025000
0
INSERT
8
0
2
EPAD
10
1.708000
20
0.071000
41
0.070000
42
0.070000
0
CIRCLE
8
0
10
1.708000
20
0.071000
40
0.025000
0
INSERT
8
0
2
EPAD
10
1.708000
20
0.471000
41
0.070000
42
0.070000
0
CIRCLE
8
0
10
1.708000
20
0.471000
40
0.025000
0
INSERT
8
0
2
EPAD
10
1.598000
20
0.071000
41
0.070000
42
0.070000
0
CIRCLE
8
0
10
1.598000
20
0.071000
40
0.025000
0
INSERT
8
0
2
EPAD
10
1.598000
20
0.471000
41
0.070000
42
0.070000
0
CIRCLE
8
0
10
1.598000
20
0.471000
40
0.025000
0
INSERT
8
0
2
EPAD
10
2.168000
20
0.321000
41
0.080000
42
0.080000
0
CIRCLE
8
0
10
2.168000
20
0.321000
40
0.010000
0
INSERT
8
0
2
EPAD
10
2.068000
20
0.321000
41
0.080000
42
0.080000
0
CIRCLE
8
0
10
2.068000
20
0.321000
40
0.010000
0
INSERT
8
0
2
EPAD
10
1.968000
20
0.321000
41
0.080000
42
0.080000
0
CIRCLE
8
0
10
1.968000
20
0.321000
40
0.010000
0
INSERT
8
0
2
EPAD
10
1.218000
20
0.071000
41
0.070000
42
0.070000
0
CIRCLE
8
0
10
1.218000
20
0.071000
40
0.025000
0
INSERT
8
0
2
EPAD
10
1.218000
20
0.471000
41
0.070000
42
0.070000
0
CIRCLE
8
0
10
1.218000
20
0.471000
40
0.025000
0
INSERT
8
0
2
EPAD
10
1.488000
20
0.071000
41
0.070000
42
0.070000
0
CIRCLE
8
0
10
1.488000
20
0.071000
40
0.025000
0
INSERT
8
0
2
EPAD
10
1.488000
20
0.471000
41
0.070000
42
0.070000
0
CIRCLE
8
0
10
1.488000
20
0.471000
40
0.025000
0
INSERT
8
0
2
EPAD
10
0.603000
20
-0.963000
41
0.080000
42
0.080000
0
CIRCLE
8
0
10
0.603000
20
-0.963000
40
0.010000
0
INSERT
8
0
2
EPAD
10
0.703000
20
-0.963000
41
0.080000
42
0.080000
0
CIRCLE
8
0
10
0.703000
20
-0.963000
40
0.010000
0
INSERT
8
0
2
EPAD
10
0.803000
20
-0.963000
41
0.080000
42
0.080000
0
CIRCLE
8
0
10
0.803000
20
-0.963000
40
0.010000
0
INSERT
8
0
2
EPAD
10
0.903000
20
-0.963000
41
0.080000
42
0.080000
0
CIRCLE
8
0
10
0.903000
20
-0.963000
40
0.010000
0
INSERT
8
0
2
EPAD
10
1.003000
20
-0.963000
41
0.080000
42
0.080000
0
CIRCLE
8
0
10
1.003000
20
-0.963000
40
0.010000
0
INSERT
8
0
2
EPAD
10
1.103000
20
-0.963000
41
0.080000
42
0.080000
0
CIRCLE
8
0
10
1.103000
20
-0.963000
40
0.010000
0
INSERT
8
0
2
EPAD
10
1.203000
20
-0.963000
41
0.080000
42
0.080000
0
CIRCLE
8
0
10
1.203000
20
-0.963000
40
0.010000
0
INSERT
8
0
2
EPAD
10
1.303000
20
-0.963000
41
0.080000
42
0.080000
0
CIRCLE
8
0
10
1.303000
20
-0.963000
40
0.010000
0
INSERT
8
0
2
EPAD
10
1.403000
20
-0.963000
41
0.080000
42
0.080000
0
CIRCLE
8
0
10
1.403000
20
-0.963000
40
0.010000
0
INSERT
8
0
2
EPAD
10
1.503000
20
-0.963000
41
0.080000
42
0.080000
0
CIRCLE
8
0
10
1.503000
20
-0.963000
40
0.010000
0
INSERT
8
0
2
EPAD
10
0.936000
20
-1.542000
41
0.070000
42
0.070000
0
CIRCLE
8
0
10
0.936000
20
-1.542000
40
0.025000
0
INSERT
8
0
2
EPAD
10
0.936000
20
-1.142000
41
0.070000
42
0.070000
0
CIRCLE
8
0
10
0.936000
20
-1.142000
40
0.025000
0
INSERT
8
0
2
RPAD
10
2.018000
20
0.846000
41
0.050000
42
0.050000
50
0.000000
0
CIRCLE
8
0
10
2.018000
20
0.846000
40
0.030000
0
INSERT
8
0
2
EPAD
10
2.118000
20
0.846000
41
0.050000
42
0.050000
0
CIRCLE
8
0
10
2.118000
20
0.846000
40
0.030000
0
INSERT
8
0
2
EPAD
10
2.218000
20
0.846000
41
0.050000
42
0.050000
0
CIRCLE
8
0
10
2.218000
20
0.846000
40
0.030000
0
INSERT
8
0
2
EPAD
10
2.218000
20
1.146000
41
0.050000
42
0.050000
0
CIRCLE
8
0
10
2.218000
20
1.146000
40
0.030000
0
INSERT
8
0
2
EPAD
10
2.118000
20
1.146000
41
0.050000
42
0.050000
0
CIRCLE
8
0
10
2.118000
20
1.146000
40
0.030000
0
INSERT
8
0
2
EPAD
10
2.018000
20
1.146000
41
0.050000
42
0.050000
0
CIRCLE
8
0
10
2.018000
20
1.146000
40
0.030000
0
INSERT
8
0
2
RPAD
10
2.543000
20
0.846000
41
0.050000
42
0.050000
50
0.000000
0
CIRCLE
8
0
10
2.543000
20
0.846000
40
0.030000
0
INSERT
8
0
2
EPAD
10
2.643000
20
0.846000
41
0.050000
42
0.050000
0
CIRCLE
8
0
10
2.643000
20
0.846000
40
0.030000
0
INSERT
8
0
2
EPAD
10
2.743000
20
0.846000
41
0.050000
42
0.050000
0
CIRCLE
8
0
10
2.743000
20
0.846000
40
0.030000
0
INSERT
8
0
2
EPAD
10
2.743000
20
1.146000
41
0.050000
42
0.050000
0
CIRCLE
8
0
10
2.743000
20
1.146000
40
0.030000
0
INSERT
8
0
2
EPAD
10
2.643000
20
1.146000
41
0.050000
42
0.050000
0
CIRCLE
8
0
10
2.643000
20
1.146000
40
0.030000
0
INSERT
8
0
2
EPAD
10
2.543000
20
1.146000
41
0.050000
42
0.050000
0
CIRCLE
8
0
10
2.543000
20
1.146000
40
0.030000
0
INSERT
8
0
2
RPAD
10
1.462000
20
0.846000
41
0.050000
42
0.050000
50
0.000000
0
CIRCLE
8
0
10
1.462000
20
0.846000
40
0.030000
0
INSERT
8
0
2
EPAD
10
1.562000
20
0.846000
41
0.050000
42
0.050000
0
CIRCLE
8
0
10
1.562000
20
0.846000
40
0.030000
0
INSERT
8
0
2
EPAD
10
1.662000
20
0.846000
41
0.050000
42
0.050000
0
CIRCLE
8
0
10
1.662000
20
0.846000
40
0.030000
0
INSERT
8
0
2
EPAD
10
1.662000
20
1.146000
41
0.050000
42
0.050000
0
CIRCLE
8
0
10
1.662000
20
1.146000
40
0.030000
0
INSERT
8
0
2
EPAD
10
1.562000
20
1.146000
41
0.050000
42
0.050000
0
CIRCLE
8
0
10
1.562000
20
1.146000
40
0.030000
0
INSERT
8
0
2
EPAD
10
1.462000
20
1.146000
41
0.050000
42
0.050000
0
CIRCLE
8
0
10
1.462000
20
1.146000
40
0.030000
0
INSERT
8
0
2
RPAD
10
0.875000
20
0.846000
41
0.050000
42
0.050000
50
0.000000
0
CIRCLE
8
0
10
0.875000
20
0.846000
40
0.030000
0
INSERT
8
0
2
EPAD
10
0.975000
20
0.846000
41
0.050000
42
0.050000
0
CIRCLE
8
0
10
0.975000
20
0.846000
40
0.030000
0
INSERT
8
0
2
EPAD
10
1.075000
20
0.846000
41
0.050000
42
0.050000
0
CIRCLE
8
0
10
1.075000
20
0.846000
40
0.030000
0
INSERT
8
0
2
EPAD
10
1.075000
20
1.146000
41
0.050000
42
0.050000
0
CIRCLE
8
0
10
1.075000
20
1.146000
40
0.030000
0
INSERT
8
0
2
EPAD
10
0.975000
20
1.146000
41
0.050000
42
0.050000
0
CIRCLE
8
0
10
0.975000
20
1.146000
40
0.030000
0
INSERT
8
0
2
EPAD
10
0.875000
20
1.146000
41
0.050000
42
0.050000
0
CIRCLE
8
0
10
0.875000
20
1.146000
40
0.030000
0
INSERT
8
0
2
RPAD
10
0.322000
20
0.846000
41
0.050000
42
0.050000
50
0.000000
0
CIRCLE
8
0
10
0.322000
20
0.846000
40
0.030000
0
INSERT
8
0
2
EPAD
10
0.422000
20
0.846000
41
0.050000
42
0.050000
0
CIRCLE
8
0
10
0.422000
20
0.846000
40
0.030000
0
INSERT
8
0
2
EPAD
10
0.522000
20
0.846000
41
0.050000
42
0.050000
0
CIRCLE
8
0
10
0.522000
20
0.846000
40
0.030000
0
INSERT
8
0
2
EPAD
10
0.522000
20
1.146000
41
0.050000
42
0.050000
0
CIRCLE
8
0
10
0.522000
20
1.146000
40
0.030000
0
INSERT
8
0
2
EPAD
10
0.422000
20
1.146000
41
0.050000
42
0.050000
0
CIRCLE
8
0
10
0.422000
20
1.146000
40
0.030000
0
INSERT
8
0
2
EPAD
10
0.322000
20
1.146000
41
0.050000
42
0.050000
0
CIRCLE
8
0
10
0.322000
20
1.146000
40
0.030000
0
INSERT
8
0
2
RPAD
10
-0.264000
20
0.846000
41
0.050000
42
0.050000
50
0.000000
0
CIRCLE
8
0
10
-0.264000
20
0.846000
40
0.030000
0
INSERT
8
0
2
EPAD
10
-0.164000
20
0.846000
41
0.050000
42
0.050000
0
CIRCLE
8
0
10
-0.164000
20
0.846000
40
0.030000
0
INSERT
8
0
2
EPAD
10
-0.064000
20
0.846000
41
0.050000
42
0.050000
0
CIRCLE
8
0
10
-0.064000
20
0.846000
40
0.030000
0
INSERT
8
0
2
EPAD
10
-0.064000
20
1.146000
41
0.050000
42
0.050000
0
CIRCLE
8
0
10
-0.064000
20
1.146000
40
0.030000
0
INSERT
8
0
2
EPAD
10
-0.164000
20
1.146000
41
0.050000
42
0.050000
0
CIRCLE
8
0
10
-0.164000
20
1.146000
40
0.030000
0
INSERT
8
0
2
EPAD
10
-0.264000
20
1.146000
41
0.050000
42
0.050000
0
CIRCLE
8
0
10
-0.264000
20
1.146000
40
0.030000
0
INSERT
8
0
2
RPAD
10
-0.886000
20
0.846000
41
0.050000
42
0.050000
50
0.000000
0
CIRCLE
8
0
10
-0.886000
20
0.846000
40
0.030000
0
INSERT
8
0
2
EPAD
10
-0.786000
20
0.846000
41
0.050000
42
0.050000
0
CIRCLE
8
0
10
-0.786000
20
0.846000
40
0.030000
0
INSERT
8
0
2
EPAD
10
-0.686000
20
0.846000
41
0.050000
42
0.050000
0
CIRCLE
8
0
10
-0.686000
20
0.846000
40
0.030000
0
INSERT
8
0
2
EPAD
10
-0.686000
20
1.146000
41
0.050000
42
0.050000
0
CIRCLE
8
0
10
-0.686000
20
1.146000
40
0.030000
0
INSERT
8
0
2
EPAD
10
-0.786000
20
1.146000
41
0.050000
42
0.050000
0
CIRCLE
8
0
10
-0.786000
20
1.146000
40
0.030000
0
INSERT
8
0
2
EPAD
10
-0.886000
20
1.146000
41
0.050000
42
0.050000
0
CIRCLE
8
0
10
-0.886000
20
1.146000
40
0.030000
0
INSERT
8
0
2
RPAD
10
2.743000
20
1.675000
41
0.080000
42
0.080000
50
180.000000
0
CIRCLE
8
0
10
2.743000
20
1.675000
40
0.025000
0
INSERT
8
0
2
RPAD
10
2.643000
20
1.675000
41
0.080000
42
0.080000
50
180.000000
0
CIRCLE
8
0
10
2.643000
20
1.675000
40
0.025000
0
INSERT
8
0
2
RPAD
10
2.543000
20
1.675000
41
0.080000
42
0.080000
50
180.000000
0
CIRCLE
8
0
10
2.543000
20
1.675000
40
0.025000
0
INSERT
8
0
2
RPAD
10
2.218000
20
1.675000
41
0.080000
42
0.080000
50
180.000000
0
CIRCLE
8
0
10
2.218000
20
1.675000
40
0.025000
0
INSERT
8
0
2
RPAD
10
2.118000
20
1.675000
41
0.080000
42
0.080000
50
180.000000
0
CIRCLE
8
0
10
2.118000
20
1.675000
40
0.025000
0
INSERT
8
0
2
RPAD
10
2.018000
20
1.675000
41
0.080000
42
0.080000
50
180.000000
0
CIRCLE
8
0
10
2.018000
20
1.675000
40
0.025000
0
INSERT
8
0
2
RPAD
10
1.662000
20
1.675000
41
0.080000
42
0.080000
50
180.000000
0
CIRCLE
8
0
10
1.662000
20
1.675000
40
0.025000
0
INSERT
8
0
2
RPAD
10
1.562000
20
1.675000
41
0.080000
42
0.080000
50
180.000000
0
CIRCLE
8
0
10
1.562000
20
1.675000
40
0.025000
0
INSERT
8
0
2
RPAD
10
1.462000
20
1.675000
41
0.080000
42
0.080000
50
180.000000
0
CIRCLE
8
0
10
1.462000
20
1.675000
40
0.025000
0
INSERT
8
0
2
RPAD
10
1.075000
20
1.675000
41
0.080000
42
0.080000
50
180.000000
0
CIRCLE
8
0
10
1.075000
20
1.675000
40
0.025000
0
INSERT
8
0
2
RPAD
10
0.975000
20
1.675000
41
0.080000
42
0.080000
50
180.000000
0
CIRCLE
8
0
10
0.975000
20
1.675000
40
0.025000
0
INSERT
8
0
2
RPAD
10
0.875000
20
1.675000
41
0.080000
42
0.080000
50
180.000000
0
CIRCLE
8
0
10
0.875000
20
1.675000
40
0.025000
0
INSERT
8
0
2
RPAD
10
0.522000
20
1.675000
41
0.080000
42
0.080000
50
180.000000
0
CIRCLE
8
0
10
0.522000
20
1.675000
40
0.025000
0
INSERT
8
0
2
RPAD
10
0.422000
20
1.675000
41
0.080000
42
0.080000
50
180.000000
0
CIRCLE
8
0
10
0.422000
20
1.675000
40
0.025000
0
INSERT
8
0
2
RPAD
10
0.322000
20
1.675000
41
0.080000
42
0.080000
50
180.000000
0
CIRCLE
8
0
10
0.322000
20
1.675000
40
0.025000
0
INSERT
8
0
2
RPAD
10
-0.064000
20
1.675000
41
0.080000
42
0.080000
50
180.000000
0
CIRCLE
8
0
10
-0.064000
20
1.675000
40
0.025000
0
INSERT
8
0
2
RPAD
10
-0.164000
20
1.675000
41
0.080000
42
0.080000
50
180.000000
0
CIRCLE
8
0
10
-0.164000
20
1.675000
40
0.025000
0
INSERT
8
0
2
RPAD
10
-0.264000
20
1.675000
41
0.080000
42
0.080000
50
180.000000
0
CIRCLE
8
0
10
-0.264000
20
1.675000
40
0.025000
0
INSERT
8
0
2
RPAD
10
-0.686000
20
1.675000
41
0.080000
42
0.080000
50
180.000000
0
CIRCLE
8
0
10
-0.686000
20
1.675000
40
0.025000
0
INSERT
8
0
2
RPAD
10
-0.786000
20
1.675000
41
0.080000
42
0.080000
50
180.000000
0
CIRCLE
8
0
10
-0.786000
20
1.675000
40
0.025000
0
INSERT
8
0
2
RPAD
10
-0.886000
20
1.675000
41
0.080000
42
0.080000
50
180.000000
0
CIRCLE
8
0
10
-0.886000
20
1.675000
40
0.025000
0
INSERT
8
0
2
EPAD
10
1.653000
20
-0.433000
41
0.080000
42
0.080000
0
CIRCLE
8
0
10
1.653000
20
-0.433000
40
0.025000
0
INSERT
8
0
2
EPAD
10
1.853000
20
-0.433000
41
0.080000
42
0.080000
0
CIRCLE
8
0
10
1.853000
20
-0.433000
40
0.025000
0
INSERT
8
0
2
EPAD
10
1.703000
20
-0.781000
41
0.070000
42
0.070000
0
CIRCLE
8
0
10
1.703000
20
-0.781000
40
0.025000
0
INSERT
8
0
2
EPAD
10
1.703000
20
-0.981000
41
0.070000
42
0.070000
0
CIRCLE
8
0
10
1.703000
20
-0.981000
40
0.025000
0
INSERT
8
0
2
EPAD
10
1.863000
20
-0.781000
41
0.070000
42
0.070000
0
CIRCLE
8
0
10
1.863000
20
-0.781000
40
0.025000
0
INSERT
8
0
2
EPAD
10
1.863000
20
-0.981000
41
0.070000
42
0.070000
0
CIRCLE
8
0
10
1.863000
20
-0.981000
40
0.025000
0
INSERT
8
0
2
EPAD
10
3.364000
20
0.787000
41
0.120000
42
0.120000
0
CIRCLE
8
0
10
3.364000
20
0.787000
40
0.030000
0
INSERT
8
0
2
EPAD
10
3.364000
20
0.587000
41
0.120000
42
0.120000
0
CIRCLE
8
0
10
3.364000
20
0.587000
40
0.030000
0
INSERT
8
0
2
EPAD
10
3.349000
20
1.041000
41
0.120000
42
0.120000
0
CIRCLE
8
0
10
3.349000
20
1.041000
40
0.030000
0
INSERT
8
0
2
EPAD
10
3.349000
20
1.241000
41
0.120000
42
0.120000
0
CIRCLE
8
0
10
3.349000
20
1.241000
40
0.030000
0
INSERT
8
0
2
EPAD
10
3.349000
20
1.441000
41
0.120000
42
0.120000
0
CIRCLE
8
0
10
3.349000
20
1.441000
40
0.030000
0
INSERT
8
0
2
EPAD
10
2.833000
20
2.096000
41
0.120000
42
0.120000
0
CIRCLE
8
0
10
2.833000
20
2.096000
40
0.030000
0
INSERT
8
0
2
EPAD
10
3.033000
20
2.096000
41
0.120000
42
0.120000
0
CIRCLE
8
0
10
3.033000
20
2.096000
40
0.030000
0
INSERT
8
0
2
EPAD
10
3.233000
20
2.096000
41
0.120000
42
0.120000
0
CIRCLE
8
0
10
3.233000
20
2.096000
40
0.030000
0
INSERT
8
0
2
EPAD
10
2.188000
20
2.096000
41
0.120000
42
0.120000
0
CIRCLE
8
0
10
2.188000
20
2.096000
40
0.030000
0
INSERT
8
0
2
EPAD
10
2.388000
20
2.096000
41
0.120000
42
0.120000
0
CIRCLE
8
0
10
2.388000
20
2.096000
40
0.030000
0
INSERT
8
0
2
EPAD
10
2.588000
20
2.096000
41
0.120000
42
0.120000
0
CIRCLE
8
0
10
2.588000
20
2.096000
40
0.030000
0
INSERT
8
0
2
EPAD
10
1.543000
20
2.091000
41
0.120000
42
0.120000
0
CIRCLE
8
0
10
1.543000
20
2.091000
40
0.030000
0
INSERT
8
0
2
EPAD
10
1.743000
20
2.091000
41
0.120000
42
0.120000
0
CIRCLE
8
0
10
1.743000
20
2.091000
40
0.030000
0
INSERT
8
0
2
EPAD
10
1.943000
20
2.091000
41
0.120000
42
0.120000
0
CIRCLE
8
0
10
1.943000
20
2.091000
40
0.030000
0
INSERT
8
0
2
EPAD
10
0.898000
20
2.091000
41
0.120000
42
0.120000
0
CIRCLE
8
0
10
0.898000
20
2.091000
40
0.030000
0
INSERT
8
0
2
EPAD
10
1.098000
20
2.091000
41
0.120000
42
0.120000
0
CIRCLE
8
0
10
1.098000
20
2.091000
40
0.030000
0
INSERT
8
0
2
EPAD
10
1.298000
20
2.091000
41
0.120000
42
0.120000
0
CIRCLE
8
0
10
1.298000
20
2.091000
40
0.030000
0
INSERT
8
0
2
EPAD
10
0.263000
20
2.091000
41
0.120000
42
0.120000
0
CIRCLE
8
0
10
0.263000
20
2.091000
40
0.030000
0
INSERT
8
0
2
EPAD
10
0.463000
20
2.091000
41
0.120000
42
0.120000
0
CIRCLE
8
0
10
0.463000
20
2.091000
40
0.030000
0
INSERT
8
0
2
EPAD
10
0.663000
20
2.091000
41
0.120000
42
0.120000
0
CIRCLE
8
0
10
0.663000
20
2.091000
40
0.030000
0
INSERT
8
0
2
EPAD
10
-0.376000
20
2.096000
41
0.120000
42
0.120000
0
CIRCLE
8
0
10
-0.376000
20
2.096000
40
0.030000
0
INSERT
8
0
2
EPAD
10
-0.176000
20
2.096000
41
0.120000
42
0.120000
0
CIRCLE
8
0
10
-0.176000
20
2.096000
40
0.030000
0
INSERT
8
0
2
EPAD
10
0.023000
20
2.096000
41
0.120000
42
0.120000
0
CIRCLE
8
0
10
0.023000
20
2.096000
40
0.030000
0
INSERT
8
0
2
EPAD
10
-1.006000
20
2.096000
41
0.120000
42
0.120000
0
CIRCLE
8
0
10
-1.006000
20
2.096000
40
0.030000
0
INSERT
8
0
2
EPAD
10
-0.806000
20
2.096000
41
0.120000
42
0.120000
0
CIRCLE
8
0
10
-0.806000
20
2.096000
40
0.030000
0
INSERT
8
0
2
EPAD
10
-0.606000
20
2.096000
41
0.120000
42
0.120000
0
CIRCLE
8
0
10
-0.606000
20
2.096000
40
0.030000
0
INSERT
8
0
2
EPAD
10
1.958000
20
-1.278000
41
0.070000
42
0.070000
0
CIRCLE
8
0
10
1.958000
20
-1.278000
40
0.025000
0
INSERT
8
0
2
EPAD
10
1.958000
20
-1.678000
41
0.070000
42
0.070000
0
CIRCLE
8
0
10
1.958000
20
-1.678000
40
0.025000
0
INSERT
8
0
2
EPAD
10
2.073000
20
-1.283000
41
0.070000
42
0.070000
0
CIRCLE
8
0
10
2.073000
20
-1.283000
40
0.025000
0
INSERT
8
0
2
EPAD
10
2.073000
20
-1.683000
41
0.070000
42
0.070000
0
CIRCLE
8
0
10
2.073000
20
-1.683000
40
0.025000
0
INSERT
8
0
2
EPAD
10
2.078000
20
-1.933000
41
0.080000
42
0.080000
0
CIRCLE
8
0
10
2.078000
20
-1.933000
40
0.025000
0
INSERT
8
0
2
EPAD
10
2.178000
20
-1.933000
41
0.080000
42
0.080000
0
CIRCLE
8
0
10
2.178000
20
-1.933000
40
0.025000
0
INSERT
8
0
2
EPAD
10
1.858000
20
-1.938000
41
0.080000
42
0.080000
0
CIRCLE
8
0
10
1.858000
20
-1.938000
40
0.025000
0
INSERT
8
0
2
EPAD
10
1.958000
20
-1.938000
41
0.080000
42
0.080000
0
CIRCLE
8
0
10
1.958000
20
-1.938000
40
0.025000
0
INSERT
8
0
2
EPAD
10
1.543000
20
-1.505000
41
0.080000
42
0.080000
0
CIRCLE
8
0
10
1.543000
20
-1.505000
40
0.010000
0
INSERT
8
0
2
EPAD
10
1.443000
20
-1.505000
41
0.080000
42
0.080000
0
CIRCLE
8
0
10
1.443000
20
-1.505000
40
0.010000
0
INSERT
8
0
2
EPAD
10
1.343000
20
-1.505000
41
0.080000
42
0.080000
0
CIRCLE
8
0
10
1.343000
20
-1.505000
40
0.010000
0
INSERT
8
0
2
EPAD
10
2.344000
20
-1.574000
41
0.080000
42
0.080000
0
CIRCLE
8
0
10
2.344000
20
-1.574000
40
0.010000
0
INSERT
8
0
2
EPAD
10
2.444000
20
-1.574000
41
0.080000
42
0.080000
0
CIRCLE
8
0
10
2.444000
20
-1.574000
40
0.010000
0
INSERT
8
0
2
EPAD
10
2.544000
20
-1.574000
41
0.080000
42
0.080000
0
CIRCLE
8
0
10
2.544000
20
-1.574000
40
0.010000
0
INSERT
8
0
2
EPAD
10
2.790000
20
0.021000
41
0.080000
42
0.080000
0
CIRCLE
8
0
10
2.790000
20
0.021000
40
0.010000
0
INSERT
8
0
2
EPAD
10
2.790000
20
-0.078000
41
0.080000
42
0.080000
0
CIRCLE
8
0
10
2.790000
20
-0.078000
40
0.010000
0
INSERT
8
0
2
EPAD
10
2.790000
20
-0.178000
41
0.080000
42
0.080000
0
CIRCLE
8
0
10
2.790000
20
-0.178000
40
0.010000
0
INSERT
8
0
2
EPAD
10
2.938000
20
-0.703000
41
0.080000
42
0.080000
0
CIRCLE
8
0
10
2.938000
20
-0.703000
40
0.010000
0
INSERT
8
0
2
EPAD
10
2.938000
20
-0.603000
41
0.080000
42
0.080000
0
CIRCLE
8
0
10
2.938000
20
-0.603000
40
0.010000
0
INSERT
8
0
2
EPAD
10
2.938000
20
-0.503000
41
0.080000
42
0.080000
0
CIRCLE
8
0
10
2.938000
20
-0.503000
40
0.010000
0
INSERT
8
0
2
EPAD
10
2.938000
20
-0.403000
41
0.080000
42
0.080000
0
CIRCLE
8
0
10
2.938000
20
-0.403000
40
0.010000
0
INSERT
8
0
2
EPAD
10
0.003000
20
-0.243000
41
0.080000
42
0.080000
0
CIRCLE
8
0
10
0.003000
20
-0.243000
40
0.010000
0
INSERT
8
0
2
EPAD
10
0.003000
20
-0.143000
41
0.080000
42
0.080000
0
CIRCLE
8
0
10
0.003000
20
-0.143000
40
0.010000
0
INSERT
8
0
2
EPAD
10
0.003000
20
-0.043000
41
0.080000
42
0.080000
0
CIRCLE
8
0
10
0.003000
20
-0.043000
40
0.010000
0
INSERT
8
0
2
EPAD
10
0.003000
20
0.056000
41
0.080000
42
0.080000
0
CIRCLE
8
0
10
0.003000
20
0.056000
40
0.010000
0
INSERT
8
0
2
EPAD
10
0.003000
20
0.156000
41
0.080000
42
0.080000
0
CIRCLE
8
0
10
0.003000
20
0.156000
40
0.010000
0
INSERT
8
0
2
EPAD
10
0.003000
20
0.256000
41
0.080000
42
0.080000
0
CIRCLE
8
0
10
0.003000
20
0.256000
40
0.010000
0
INSERT
8
0
2
EPAD
10
2.871000
20
1.550000
41
0.070000
42
0.070000
0
CIRCLE
8
0
10
2.871000
20
1.550000
40
0.025000
0
INSERT
8
0
2
EPAD
10
2.871000
20
1.150000
41
0.070000
42
0.070000
0
CIRCLE
8
0
10
2.871000
20
1.150000
40
0.025000
0
INSERT
8
0
2
EPAD
10
2.341000
20
1.550000
41
0.070000
42
0.070000
0
CIRCLE
8
0
10
2.341000
20
1.550000
40
0.025000
0
INSERT
8
0
2
EPAD
10
2.341000
20
1.150000
41
0.070000
42
0.070000
0
CIRCLE
8
0
10
2.341000
20
1.150000
40
0.025000
0
INSERT
8
0
2
EPAD
10
1.780000
20
1.550000
41
0.070000
42
0.070000
0
CIRCLE
8
0
10
1.780000
20
1.550000
40
0.025000
0
INSERT
8
0
2
EPAD
10
1.780000
20
1.150000
41
0.070000
42
0.070000
0
CIRCLE
8
0
10
1.780000
20
1.150000
40
0.025000
0
INSERT
8
0
2
EPAD
10
1.193000
20
1.550000
41
0.070000
42
0.070000
0
CIRCLE
8
0
10
1.193000
20
1.550000
40
0.025000
0
INSERT
8
0
2
EPAD
10
1.193000
20
1.150000
41
0.070000
42
0.070000
0
CIRCLE
8
0
10
1.193000
20
1.150000
40
0.025000
0
INSERT
8
0
2
EPAD
10
0.635000
20
1.550000
41
0.070000
42
0.070000
0
CIRCLE
8
0
10
0.635000
20
1.550000
40
0.025000
0
INSERT
8
0
2
EPAD
10
0.635000
20
1.150000
41
0.070000
42
0.070000
0
CIRCLE
8
0
10
0.635000
20
1.150000
40
0.025000
0
INSERT
8
0
2
EPAD
10
0.063000
20
1.550000
41
0.070000
42
0.070000
0
CIRCLE
8
0
10
0.063000
20
1.550000
40
0.025000
0
INSERT
8
0
2
EPAD
10
0.063000
20
1.150000
41
0.070000
42
0.070000
0
CIRCLE
8
0
10
0.063000
20
1.150000
40
0.025000
0
INSERT
8
0
2
EPAD
10
-0.554000
20
1.531000
41
0.070000
42
0.070000
0
CIRCLE
8
0
10
-0.554000
20
1.531000
40
0.025000
0
INSERT
8
0
2
EPAD
10
-0.554000
20
1.131000
41
0.070000
42
0.070000
0
CIRCLE
8
0
10
-0.554000
20
1.131000
40
0.025000
0
INSERT
8
0
2
RPAD
10
-1.995000
20
1.911000
41
0.080000
42
0.080000
50
0.000000
0
CIRCLE
8
0
10
-1.995000
20
1.911000
40
0.025000
0
INSERT
8
0
2
RPAD
10
-1.895000
20
1.911000
41
0.080000
42
0.080000
50
0.000000
0
CIRCLE
8
0
10
-1.895000
20
1.911000
40
0.025000
0
INSERT
8
0
2
RPAD
10
-1.795000
20
1.911000
41
0.080000
42
0.080000
50
0.000000
0
CIRCLE
8
0
10
-1.795000
20
1.911000
40
0.025000
0
INSERT
8
0
2
EPAD
10
-2.841000
20
2.048000
41
0.120000
42
0.120000
0
CIRCLE
8
0
10
-2.841000
20
2.048000
40
0.030000
0
INSERT
8
0
2
EPAD
10
-3.041000
20
2.048000
41
0.120000
42
0.120000
0
CIRCLE
8
0
10
-3.041000
20
2.048000
40
0.030000
0
INSERT
8
0
2
EPAD
10
-3.474000
20
0.710000
41
0.070000
42
0.070000
0
CIRCLE
8
0
10
-3.474000
20
0.710000
40
0.025000
0
INSERT
8
0
2
EPAD
10
-3.074000
20
0.710000
41
0.070000
42
0.070000
0
CIRCLE
8
0
10
-3.074000
20
0.710000
40
0.025000
0
INSERT
8
0
2
RPAD
10
-0.127000
20
-2.065000
41
0.050000
42
0.050000
50
0.000000
0
CIRCLE
8
0
10
-0.127000
20
-2.065000
40
0.030000
0
INSERT
8
0
2
EPAD
10
-0.027000
20
-2.065000
41
0.050000
42
0.050000
0
CIRCLE
8
0
10
-0.027000
20
-2.065000
40
0.030000
0
INSERT
8
0
2
EPAD
10
0.072000
20
-2.065000
41
0.050000
42
0.050000
0
CIRCLE
8
0
10
0.072000
20
-2.065000
40
0.030000
0
INSERT
8
0
2
EPAD
10
0.172000
20
-2.065000
41
0.050000
42
0.050000
0
CIRCLE
8
0
10
0.172000
20
-2.065000
40
0.030000
0
INSERT
8
0
2
EPAD
10
0.272000
20
-2.065000
41
0.050000
42
0.050000
0
CIRCLE
8
0
10
0.272000
20
-2.065000
40
0.030000
0
INSERT
8
0
2
EPAD
10
0.372000
20
-2.065000
41
0.050000
42
0.050000
0
CIRCLE
8
0
10
0.372000
20
-2.065000
40
0.030000
0
INSERT
8
0
2
EPAD
10
0.472000
20
-2.065000
41
0.050000
42
0.050000
0
CIRCLE
8
0
10
0.472000
20
-2.065000
40
0.030000
0
INSERT
8
0
2
EPAD
10
0.472000
20
-1.765000
41
0.050000
42
0.050000
0
CIRCLE
8
0
10
0.472000
20
-1.765000
40
0.030000
0
INSERT
8
0
2
EPAD
10
0.372000
20
-1.765000
41
0.050000
42
0.050000
0
CIRCLE
8
0
10
0.372000
20
-1.765000
40
0.030000
0
INSERT
8
0
2
EPAD
10
0.272000
20
-1.765000
41
0.050000
42
0.050000
0
CIRCLE
8
0
10
0.272000
20
-1.765000
40
0.030000
0
INSERT
8
0
2
EPAD
10
0.172000
20
-1.765000
41
0.050000
42
0.050000
0
CIRCLE
8
0
10
0.172000
20
-1.765000
40
0.030000
0
INSERT
8
0
2
EPAD
10
0.072000
20
-1.765000
41
0.050000
42
0.050000
0
CIRCLE
8
0
10
0.072000
20
-1.765000
40
0.030000
0
INSERT
8
0
2
EPAD
10
-0.027000
20
-1.765000
41
0.050000
42
0.050000
0
CIRCLE
8
0
10
-0.027000
20
-1.765000
40
0.030000
0
INSERT
8
0
2
EPAD
10
-0.127000
20
-1.765000
41
0.050000
42
0.050000
0
CIRCLE
8
0
10
-0.127000
20
-1.765000
40
0.030000
0
INSERT
8
0
2
RPAD
10
-2.010000
20
-2.067000
41
0.080000
42
0.080000
50
180.000000
0
CIRCLE
8
0
10
-2.010000
20
-2.067000
40
0.025000
0
INSERT
8
0
2
RPAD
10
-2.110000
20
-2.067000
41
0.080000
42
0.080000
50
180.000000
0
CIRCLE
8
0
10
-2.110000
20
-2.067000
40
0.025000
0
INSERT
8
0
2
RPAD
10
-2.210000
20
-2.067000
41
0.080000
42
0.080000
50
180.000000
0
CIRCLE
8
0
10
-2.210000
20
-2.067000
40
0.025000
0
INSERT
8
0
2
EPAD
10
-1.467000
20
-1.459000
41
0.070000
42
0.070000
0
CIRCLE
8
0
10
-1.467000
20
-1.459000
40
0.025000
0
INSERT
8
0
2
EPAD
10
-1.467000
20
-1.859000
41
0.070000
42
0.070000
0
CIRCLE
8
0
10
-1.467000
20
-1.859000
40
0.025000
0
INSERT
8
0
2
EPAD
10
-1.290000
20
-2.313000
41
0.080000
42
0.080000
0
CIRCLE
8
0
10
-1.290000
20
-2.313000
40
0.025000
0
INSERT
8
0
2
EPAD
10
-1.190000
20
-2.313000
41
0.080000
42
0.080000
0
CIRCLE
8
0
10
-1.190000
20
-2.313000
40
0.025000
0
INSERT
8
0
2
EPAD
10
-1.609000
20
-2.177000
41
0.150000
42
0.150000
0
CIRCLE
8
0
10
-1.609000
20
-2.177000
40
0.030000
0
INSERT
8
0
2
EPAD
10
-2.593000
20
-2.177000
41
0.150000
42
0.150000
0
CIRCLE
8
0
10
-2.593000
20
-2.177000
40
0.030000
0
INSERT
8
0
2
EPAD
10
-1.286000
20
-1.978000
41
0.080000
42
0.080000
0
CIRCLE
8
0
10
-1.286000
20
-1.978000
40
0.025000
0
INSERT
8
0
2
EPAD
10
-1.086000
20
-1.978000
41
0.080000
42
0.080000
0
CIRCLE
8
0
10
-1.086000
20
-1.978000
40
0.025000
0
INSERT
8
0
2
EPAD
10
-1.186000
20
-1.757000
41
0.080000
42
0.080000
0
CIRCLE
8
0
10
-1.186000
20
-1.757000
40
0.025000
0
INSERT
8
0
2
EPAD
10
0.642000
20
-2.242000
41
0.070000
42
0.070000
0
CIRCLE
8
0
10
0.642000
20
-2.242000
40
0.025000
0
INSERT
8
0
2
EPAD
10
0.542000
20
-2.242000
41
0.070000
42
0.070000
0
CIRCLE
8
0
10
0.542000
20
-2.242000
40
0.025000
0
INSERT
8
0
2
EPAD
10
-0.482000
20
-1.871000
41
0.070000
42
0.070000
0
CIRCLE
8
0
10
-0.482000
20
-1.871000
40
0.025000
0
INSERT
8
0
2
EPAD
10
-0.482000
20
-1.771000
41
0.070000
42
0.070000
0
CIRCLE
8
0
10
-0.482000
20
-1.771000
40
0.025000
0
INSERT
8
0
2
EPAD
10
-2.057000
20
1.359000
41
0.080000
42
0.080000
0
CIRCLE
8
0
10
-2.057000
20
1.359000
40
0.025000
0
INSERT
8
0
2
EPAD
10
-1.932000
20
1.359000
41
0.080000
42
0.080000
0
CIRCLE
8
0
10
-1.932000
20
1.359000
40
0.025000
0
INSERT
8
0
2
EPAD
10
-1.761000
20
1.340000
41
0.080000
42
0.080000
0
CIRCLE
8
0
10
-1.761000
20
1.340000
40
0.025000
0
INSERT
8
0
2
EPAD
10
-1.661000
20
1.340000
41
0.080000
42
0.080000
0
CIRCLE
8
0
10
-1.661000
20
1.340000
40
0.025000
0
INSERT
8
0
2
EPAD
10
-1.899000
20
1.044000
41
0.070000
42
0.070000
0
CIRCLE
8
0
10
-1.899000
20
1.044000
40
0.025000
0
INSERT
8
0
2
EPAD
10
-1.799000
20
1.044000
41
0.070000
42
0.070000
0
CIRCLE
8
0
10
-1.799000
20
1.044000
40
0.025000
0
INSERT
8
0
2
EPAD
10
-1.899000
20
0.828000
41
0.070000
42
0.070000
0
CIRCLE
8
0
10
-1.899000
20
0.828000
40
0.025000
0
INSERT
8
0
2
EPAD
10
-1.799000
20
0.828000
41
0.070000
42
0.070000
0
CIRCLE
8
0
10
-1.799000
20
0.828000
40
0.025000
0
INSERT
8
0
2
EPAD
10
1.354000
20
-2.203000
41
0.120000
42
0.120000
0
CIRCLE
8
0
10
1.354000
20
-2.203000
40
0.030000
0
INSERT
8
0
2
EPAD
10
1.154000
20
-2.203000
41
0.120000
42
0.120000
0
CIRCLE
8
0
10
1.154000
20
-2.203000
40
0.030000
0
INSERT
8
0
2
EPAD
10
0.954000
20
-2.203000
41
0.120000
42
0.120000
0
CIRCLE
8
0
10
0.954000
20
-2.203000
40
0.030000
0
INSERT
8
0
2
EPAD
10
0.679000
20
-1.750000
41
0.070000
42
0.070000
0
CIRCLE
8
0
10
0.679000
20
-1.750000
40
0.025000
0
INSERT
8
0
2
EPAD
10
1.079000
20
-1.750000
41
0.070000
42
0.070000
0
CIRCLE
8
0
10
1.079000
20
-1.750000
40
0.025000
0
INSERT
8
0
2
EPAD
10
0.068000
20
-2.321000
41
0.070000
42
0.070000
0
CIRCLE
8
0
10
0.068000
20
-2.321000
40
0.025000
0
INSERT
8
0
2
EPAD
10
0.468000
20
-2.321000
41
0.070000
42
0.070000
0
CIRCLE
8
0
10
0.468000
20
-2.321000
40
0.025000
0
INSERT
8
0
2
EPAD
10
-0.601000
20
-2.329000
41
0.080000
42
0.080000
0
CIRCLE
8
0
10
-0.601000
20
-2.329000
40
0.025000
0
INSERT
8
0
2
EPAD
10
-0.401000
20
-2.329000
41
0.080000
42
0.080000
0
CIRCLE
8
0
10
-0.401000
20
-2.329000
40
0.025000
0
INSERT
8
0
2
EPAD
10
-0.501000
20
-2.108000
41
0.080000
42
0.080000
0
CIRCLE
8
0
10
-0.501000
20
-2.108000
40
0.025000
0
INSERT
8
0
2
EPAD
10
-2.391000
20
2.029000
41
0.150000
42
0.150000
0
CIRCLE
8
0
10
-2.391000
20
2.029000
40
0.030000
0
INSERT
8
0
2
EPAD
10
-1.407000
20
2.029000
41
0.150000
42
0.150000
0
CIRCLE
8
0
10
-1.407000
20
2.029000
40
0.030000
0
INSERT
8
0
2
EPAD
10
-1.899000
20
-0.116000
41
0.080000
42
0.080000
0
CIRCLE
8
0
10
-1.899000
20
-0.116000
40
0.025000
0
INSERT
8
0
2
EPAD
10
-1.899000
20
-0.416000
41
0.080000
42
0.080000
0
CIRCLE
8
0
10
-1.899000
20
-0.416000
40
0.025000
0
INSERT
8
0
2
EPAD
10
-1.801000
20
-0.116000
41
0.080000
42
0.080000
0
CIRCLE
8
0
10
-1.801000
20
-0.116000
40
0.025000
0
INSERT
8
0
2
EPAD
10
-1.801000
20
-0.416000
41
0.080000
42
0.080000
0
CIRCLE
8
0
10
-1.801000
20
-0.416000
40
0.025000
0
INSERT
8
0
2
EPAD
10
-0.305000
20
1.812000
41
0.080000
42
0.080000
0
CIRCLE
8
0
10
-0.305000
20
1.812000
40
0.025000
0
INSERT
8
0
2
EPAD
10
-0.005000
20
1.812000
41
0.080000
42
0.080000
0
CIRCLE
8
0
10
-0.005000
20
1.812000
40
0.025000
0
INSERT
8
0
2
EPAD
10
0.265000
20
1.812000
41
0.080000
42
0.080000
0
CIRCLE
8
0
10
0.265000
20
1.812000
40
0.025000
0
INSERT
8
0
2
EPAD
10
0.565000
20
1.812000
41
0.080000
42
0.080000
0
CIRCLE
8
0
10
0.565000
20
1.812000
40
0.025000
0
INSERT
8
0
2
EPAD
10
0.797000
20
1.812000
41
0.080000
42
0.080000
0
CIRCLE
8
0
10
0.797000
20
1.812000
40
0.025000
0
INSERT
8
0
2
EPAD
10
1.097000
20
1.812000
41
0.080000
42
0.080000
0
CIRCLE
8
0
10
1.097000
20
1.812000
40
0.025000
0
INSERT
8
0
2
EPAD
10
1.407000
20
1.812000
41
0.080000
42
0.080000
0
CIRCLE
8
0
10
1.407000
20
1.812000
40
0.025000
0
INSERT
8
0
2
EPAD
10
1.707000
20
1.812000
41
0.080000
42
0.080000
0
CIRCLE
8
0
10
1.707000
20
1.812000
40
0.025000
0
INSERT
8
0
2
EPAD
10
1.998000
20
1.812000
41
0.080000
42
0.080000
0
CIRCLE
8
0
10
1.998000
20
1.812000
40
0.025000
0
INSERT
8
0
2
EPAD
10
2.298000
20
1.812000
41
0.080000
42
0.080000
0
CIRCLE
8
0
10
2.298000
20
1.812000
40
0.025000
0
INSERT
8
0
2
EPAD
10
2.509000
20
1.812000
41
0.100000
42
0.100000
0
CIRCLE
8
0
10
2.509000
20
1.812000
40
0.025000
0
INSERT
8
0
2
EPAD
10
3.309000
20
1.812000
41
0.100000
42
0.100000
0
CIRCLE
8
0
10
3.309000
20
1.812000
40
0.025000
0
INSERT
8
0
2
EPAD
10
3.494000
20
2.285000
41
0.250000
42
0.250000
0
CIRCLE
8
0
10
3.494000
20
2.285000
40
0.030000
0
INSERT
8
0
2
EPAD
10
-3.454000
20
2.285000
41
0.250000
42
0.250000
0
CIRCLE
8
0
10
-3.454000
20
2.285000
40
0.030000
0
INSERT
8
0
2
EPAD
10
-3.454000
20
-2.301000
41
0.250000
42
0.250000
0
CIRCLE
8
0
10
-3.454000
20
-2.301000
40
0.030000
0
INSERT
8
0
2
EPAD
10
3.494000
20
-2.301000
41
0.250000
42
0.250000
0
CIRCLE
8
0
10
3.494000
20
-2.301000
40
0.030000
0
INSERT
8
0
2
EPAD
10
1.309000
20
-0.116000
41
0.080000
42
0.080000
0
CIRCLE
8
0
10
1.309000
20
-0.116000
40
0.025000
0
INSERT
8
0
2
EPAD
10
1.309000
20
-0.416000
41
0.080000
42
0.080000
0
CIRCLE
8
0
10
1.309000
20
-0.416000
40
0.025000
0
INSERT
8
0
2
EPAD
10
1.407000
20
-0.116000
41
0.080000
42
0.080000
0
CIRCLE
8
0
10
1.407000
20
-0.116000
40
0.025000
0
INSERT
8
0
2
EPAD
10
1.407000
20
-0.416000
41
0.080000
42
0.080000
0
CIRCLE
8
0
10
1.407000
20
-0.416000
40
0.025000
0
INSERT
8
0
2
RPAD
10
3.179000
20
-0.884000
41
0.050000
42
0.050000
50
-90.000000
0
CIRCLE
8
0
10
3.179000
20
-0.884000
40
0.030000
0
INSERT
8
0
2
EPAD
10
3.179000
20
-0.984000
41
0.050000
42
0.050000
0
CIRCLE
8
0
10
3.179000
20
-0.984000
40
0.030000
0
INSERT
8
0
2
EPAD
10
3.179000
20
-1.084000
41
0.050000
42
0.050000
0
CIRCLE
8
0
10
3.179000
20
-1.084000
40
0.030000
0
INSERT
8
0
2
EPAD
10
3.179000
20
-1.184000
41
0.050000
42
0.050000
0
CIRCLE
8
0
10
3.179000
20
-1.184000
40
0.030000
0
INSERT
8
0
2
EPAD
10
3.179000
20
-1.284000
41
0.050000
42
0.050000
0
CIRCLE
8
0
10
3.179000
20
-1.284000
40
0.030000
0
INSERT
8
0
2
EPAD
10
3.179000
20
-1.384000
41
0.050000
42
0.050000
0
CIRCLE
8
0
10
3.179000
20
-1.384000
40
0.030000
0
INSERT
8
0
2
EPAD
10
3.179000
20
-1.484000
41
0.050000
42
0.050000
0
CIRCLE
8
0
10
3.179000
20
-1.484000
40
0.030000
0
INSERT
8
0
2
EPAD
10
3.479000
20
-1.484000
41
0.050000
42
0.050000
0
CIRCLE
8
0
10
3.479000
20
-1.484000
40
0.030000
0
INSERT
8
0
2
EPAD
10
3.479000
20
-1.384000
41
0.050000
42
0.050000
0
CIRCLE
8
0
10
3.479000
20
-1.384000
40
0.030000
0
INSERT
8
0
2
EPAD
10
3.479000
20
-1.284000
41
0.050000
42
0.050000
0
CIRCLE
8
0
10
3.479000
20
-1.284000
40
0.030000
0
INSERT
8
0
2
EPAD
10
3.479000
20
-1.184000
41
0.050000
42
0.050000
0
CIRCLE
8
0
10
3.479000
20
-1.184000
40
0.030000
0
INSERT
8
0
2
EPAD
10
3.479000
20
-1.084000
41
0.050000
42
0.050000
0
CIRCLE
8
0
10
3.479000
20
-1.084000
40
0.030000
0
INSERT
8
0
2
EPAD
10
3.479000
20
-0.984000
41
0.050000
42
0.050000
0
CIRCLE
8
0
10
3.479000
20
-0.984000
40
0.030000
0
INSERT
8
0
2
EPAD
10
3.479000
20
-0.884000
41
0.050000
42
0.050000
0
CIRCLE
8
0
10
3.479000
20
-0.884000
40
0.030000
0
INSERT
8
0
2
RPAD
10
3.419000
20
-0.359000
41
0.080000
42
0.080000
50
90.000000
0
CIRCLE
8
0
10
3.419000
20
-0.359000
40
0.025000
0
INSERT
8
0
2
RPAD
10
3.419000
20
-0.259000
41
0.080000
42
0.080000
50
90.000000
0
CIRCLE
8
0
10
3.419000
20
-0.259000
40
0.025000
0
INSERT
8
0
2
RPAD
10
3.419000
20
-0.159000
41
0.080000
42
0.080000
50
90.000000
0
CIRCLE
8
0
10
3.419000
20
-0.159000
40
0.025000
0
INSERT
8
0
2
RPAD
10
3.422000
20
0.126000
41
0.080000
42
0.080000
50
90.000000
0
CIRCLE
8
0
10
3.422000
20
0.126000
40
0.025000
0
INSERT
8
0
2
RPAD
10
3.422000
20
0.226000
41
0.080000
42
0.080000
50
90.000000
0
CIRCLE
8
0
10
3.422000
20
0.226000
40
0.025000
0
INSERT
8
0
2
RPAD
10
3.422000
20
0.326000
41
0.080000
42
0.080000
50
90.000000
0
CIRCLE
8
0
10
3.422000
20
0.326000
40
0.025000
0
INSERT
8
0
2
EPAD
10
3.553000
20
-0.529000
41
0.070000
42
0.070000
0
CIRCLE
8
0
10
3.553000
20
-0.529000
40
0.025000
0
INSERT
8
0
2
EPAD
10
3.553000
20
-0.129000
41
0.070000
42
0.070000
0
CIRCLE
8
0
10
3.553000
20
-0.129000
40
0.025000
0
INSERT
8
0
2
EPAD
10
3.553000
20
-0.004000
41
0.070000
42
0.070000
0
CIRCLE
8
0
10
3.553000
20
-0.004000
40
0.025000
0
INSERT
8
0
2
EPAD
10
3.553000
20
0.395000
41
0.070000
42
0.070000
0
CIRCLE
8
0
10
3.553000
20
0.395000
40
0.025000
0
INSERT
8
0
2
EPAD
10
2.961000
20
-1.955000
41
0.080000
42
0.080000
0
CIRCLE
8
0
10
2.961000
20
-1.955000
40
0.025000
0
INSERT
8
0
2
EPAD
10
3.161000
20
-1.955000
41
0.080000
42
0.080000
0
CIRCLE
8
0
10
3.161000
20
-1.955000
40
0.025000
0
INSERT
8
0
2
EPAD
10
3.061000
20
-1.734000
41
0.080000
42
0.080000
0
CIRCLE
8
0
10
3.061000
20
-1.734000
40
0.025000
0
INSERT
8
0
2
EPAD
10
3.335000
20
-1.955000
41
0.080000
42
0.080000
0
CIRCLE
8
0
10
3.335000
20
-1.955000
40
0.025000
0
INSERT
8
0
2
EPAD
10
3.535000
20
-1.955000
41
0.080000
42
0.080000
0
CIRCLE
8
0
10
3.535000
20
-1.955000
40
0.025000
0
INSERT
8
0
2
EPAD
10
3.435000
20
-1.734000
41
0.080000
42
0.080000
0
CIRCLE
8
0
10
3.435000
20
-1.734000
40
0.025000
0
INSERT
8
0
2
EPAD
10
3.120000
20
-0.628000
41
0.070000
42
0.070000
0
CIRCLE
8
0
10
3.120000
20
-0.628000
40
0.025000
0
INSERT
8
0
2
EPAD
10
3.520000
20
-0.628000
41
0.070000
42
0.070000
0
CIRCLE
8
0
10
3.520000
20
-0.628000
40
0.025000
0
INSERT
8
0
2
EPAD
10
3.120000
20
-0.746000
41
0.070000
42
0.070000
0
CIRCLE
8
0
10
3.120000
20
-0.746000
40
0.025000
0
INSERT
8
0
2
EPAD
10
3.520000
20
-0.746000
41
0.070000
42
0.070000
0
CIRCLE
8
0
10
3.520000
20
-0.746000
40
0.025000
0
INSERT
8
0
2
EPAD
10
2.864000
20
-1.179000
41
0.080000
42
0.080000
0
CIRCLE
8
0
10
2.864000
20
-1.179000
40
0.025000
0
INSERT
8
0
2
EPAD
10
3.064000
20
-1.179000
41
0.080000
42
0.080000
0
CIRCLE
8
0
10
3.064000
20
-1.179000
40
0.025000
0
INSERT
8
0
2
EPAD
10
2.726000
20
-0.785000
41
0.080000
42
0.080000
0
CIRCLE
8
0
10
2.726000
20
-0.785000
40
0.025000
0
INSERT
8
0
2
EPAD
10
2.726000
20
-0.985000
41
0.080000
42
0.080000
0
CIRCLE
8
0
10
2.726000
20
-0.985000
40
0.025000
0
INSERT
8
0
2
EPAD
10
2.450000
20
-1.907000
41
0.080000
42
0.080000
0
CIRCLE
8
0
10
2.450000
20
-1.907000
40
0.025000
0
INSERT
8
0
2
EPAD
10
2.750000
20
-1.907000
41
0.080000
42
0.080000
0
CIRCLE
8
0
10
2.750000
20
-1.907000
40
0.025000
0
INSERT
8
0
2
EPAD
10
-0.580000
20
-1.947000
41
0.080000
42
0.080000
0
CIRCLE
8
0
10
-0.580000
20
-1.947000
40
0.025000
0
INSERT
8
0
2
EPAD
10
-0.380000
20
-1.947000
41
0.080000
42
0.080000
0
CIRCLE
8
0
10
-0.380000
20
-1.947000
40
0.025000
0
INSERT
8
0
2
EPAD
10
-3.474000
20
0.041000
41
0.080000
42
0.080000
0
CIRCLE
8
0
10
-3.474000
20
0.041000
40
0.025000
0
INSERT
8
0
2
EPAD
10
-3.174000
20
0.041000
41
0.080000
42
0.080000
0
CIRCLE
8
0
10
-3.174000
20
0.041000
40
0.025000
0
INSERT
8
0
2
EPAD
10
0.049000
20
-1.041000
41
0.080000
42
0.080000
0
CIRCLE
8
0
10
0.049000
20
-1.041000
40
0.025000
0
INSERT
8
0
2
EPAD
10
0.049000
20
-1.241000
41
0.080000
42
0.080000
0
CIRCLE
8
0
10
0.049000
20
-1.241000
40
0.025000
0
INSERT
8
0
2
EPAD
10
0.127000
20
-1.435000
41
0.080000
42
0.080000
0
CIRCLE
8
0
10
0.127000
20
-1.435000
40
0.025000
0
INSERT
8
0
2
EPAD
10
0.327000
20
-1.435000
41
0.080000
42
0.080000
0
CIRCLE
8
0
10
0.327000
20
-1.435000
40
0.025000
0
INSERT
8
0
2
EPAD
10
3.120000
20
0.236000
41
0.080000
42
0.080000
0
CIRCLE
8
0
10
3.120000
20
0.236000
40
0.010000
0
INSERT
8
0
2
EPAD
10
3.120000
20
0.336000
41
0.080000
42
0.080000
0
CIRCLE
8
0
10
3.120000
20
0.336000
40
0.010000
0
INSERT
8
0
2
EPAD
10
-0.088000
20
-0.943000
41
0.080000
42
0.080000
0
CIRCLE
8
0
10
-0.088000
20
-0.943000
40
0.025000
0
INSERT
8
0
2
EPAD
10
-0.088000
20
-1.243000
41
0.080000
42
0.080000
0
CIRCLE
8
0
10
-0.088000
20
-1.243000
40
0.025000
0
INSERT
8
0
2
EPAD
10
-3.375000
20
0.552000
41
0.100000
42
0.100000
0
CIRCLE
8
0
10
-3.375000
20
0.552000
40
0.025000
0
INSERT
8
0
2
EPAD
10
-2.975000
20
0.552000
41
0.100000
42
0.100000
0
CIRCLE
8
0
10
-2.975000
20
0.552000
40
0.025000
0
INSERT
8
0
2
EPAD
10
3.120000
20
-0.116000
41
0.080000
42
0.080000
0
CIRCLE
8
0
10
3.120000
20
-0.116000
40
0.010000
0
INSERT
8
0
2
EPAD
10
3.120000
20
-0.016000
41
0.080000
42
0.080000
0
CIRCLE
8
0
10
3.120000
20
-0.016000
40
0.010000
0
INSERT
8
0
2
EPAD
10
3.257000
20
-0.510000
41
0.080000
42
0.080000
0
CIRCLE
8
0
10
3.257000
20
-0.510000
40
0.025000
0
INSERT
8
0
2
EPAD
10
3.457000
20
-0.510000
41
0.080000
42
0.080000
0
CIRCLE
8
0
10
3.457000
20
-0.510000
40
0.025000
0
INSERT
8
0
2
EPAD
10
3.277000
20
0.356000
41
0.080000
42
0.080000
0
CIRCLE
8
0
10
3.277000
20
0.356000
40
0.025000
0
INSERT
8
0
2
EPAD
10
3.277000
20
0.056000
41
0.080000
42
0.080000
0
CIRCLE
8
0
10
3.277000
20
0.056000
40
0.025000
0
POLYLINE
8
0
66
1
40
0.008000
41
0.008000
0
VERTEX
8
0
10
-3.651000
20
-2.458000
0
VERTEX
8
0
10
3.651000
20
-2.458000
0
VERTEX
8
0
10
3.651000
20
2.481000
0
VERTEX
8
0
10
-3.651000
20
2.481000
0
VERTEX
8
0
10
-3.651000
20
-2.458000
0
SEQEND
8
0
0
CIRCLE
8
12632256
10
-3.291000
20
1.121000
40
0.213000
0
POLYLINE
8
0
66
1
40
0.008000
41
0.008000
0
VERTEX
8
0
10
-3.371000
20
1.311000
0
VERTEX
8
0
10
-3.371000
20
1.271000
0
SEQEND
8
0
0
POLYLINE
8
0
66
1
40
0.008000
41
0.008000
0
VERTEX
8
0
10
-3.391000
20
1.291000
0
VERTEX
8
0
10
-3.351000
20
1.291000
0
SEQEND
8
0
0
TEXT
8
12632256
10
-3.366000
20
1.344000
40
0.048000
41
1.041667
1
BR1
0
POLYLINE
8
0
66
1
40
0.008000
41
0.008000
0
VERTEX
8
0
10
-2.653000
20
-0.339000
0
VERTEX
8
0
10
-2.655000
20
-0.319000
0
VERTEX
8
0
10
-2.661000
20
-0.300000
0
VERTEX
8
0
10
-2.670000
20
-0.283000
0
VERTEX
8
0
10
-2.682000
20
-0.268000
0
VERTEX
8
0
10
-2.697000
20
-0.256000
0
VERTEX
8
0
10
-2.714000
20
-0.247000
0
VERTEX
8
0
10
-2.733000
20
-0.241000
0
VERTEX
8
0
10
-2.753000
20
-0.239000
0
SEQEND
8
0
0
POLYLINE
8
0
66
1
40
0.008000
41
0.008000
0
VERTEX
8
0
10
-2.653000
20
-0.339000
0
VERTEX
8
0
10
-2.655000
20
-0.360000
0
VERTEX
8
0
10
-2.661000
20
-0.379000
0
VERTEX
8
0
10
-2.670000
20
-0.396000
0
VERTEX
8
0
10
-2.682000
20
-0.410000
0
VERTEX
8
0
10
-2.697000
20
-0.422000
0
VERTEX
8
0
10
-2.714000
20
-0.431000
0
VERTEX
8
0
10
-2.733000
20
-0.437000
0
VERTEX
8
0
10
-2.753000
20
-0.439000
0
SEQEND
8
0
0
POLYLINE
8
0
66
1
40
0.008000
41
0.008000
0
VERTEX
8
0
10
-2.753000
20
-0.239000
0
VERTEX
8
0
10
-2.753000
20
-0.089000
0
SEQEND
8
0
0
POLYLINE
8
0
66
1
40
0.008000
41
0.008000
0
VERTEX
8
0
10
-0.753000
20
-0.089000
0
VERTEX
8
0
10
-0.753000
20
-0.589000
0
SEQEND
8
0
0
POLYLINE
8
0
66
1
40
0.008000
41
0.008000
0
VERTEX
8
0
10
-2.753000
20
-0.589000
0
VERTEX
8
0
10
-2.753000
20
-0.439000
0
SEQEND
8
0
0
POLYLINE
8
0
66
1
40
0.008000
41
0.008000
0
VERTEX
8
0
10
-2.753000
20
-0.089000
0
VERTEX
8
0
10
-0.753000
20
-0.089000
0
SEQEND
8
0
0
POLYLINE
8
0
66
1
40
0.008000
41
0.008000
0
VERTEX
8
0
10
-2.753000
20
-0.589000
0
VERTEX
8
0
10
-0.753000
20
-0.589000
0
SEQEND
8
0
0
TEXT
8
12632256
10
-2.763000
20
-0.389000
40
0.048000
41
1.041667
50
90.000000
1
U1
0
POLYLINE
8
0
66
1
40
0.008000
41
0.008000
0
VERTEX
8
0
10
0.555000
20
-0.339000
0
VERTEX
8
0
10
0.553000
20
-0.319000
0
VERTEX
8
0
10
0.547000
20
-0.300000
0
VERTEX
8
0
10
0.538000
20
-0.283000
0
VERTEX
8
0
10
0.526000
20
-0.268000
0
VERTEX
8
0
10
0.511000
20
-0.256000
0
VERTEX
8
0
10
0.494000
20
-0.247000
0
VERTEX
8
0
10
0.475000
20
-0.241000
0
VERTEX
8
0
10
0.455000
20
-0.239000
0
SEQEND
8
0
0
POLYLINE
8
0
66
1
40
0.008000
41
0.008000
0
VERTEX
8
0
10
0.555000
20
-0.339000
0
VERTEX
8
0
10
0.553000
20
-0.360000
0
VERTEX
8
0
10
0.547000
20
-0.379000
0
VERTEX
8
0
10
0.538000
20
-0.396000
0
VERTEX
8
0
10
0.526000
20
-0.410000
0
VERTEX
8
0
10
0.511000
20
-0.422000
0
VERTEX
8
0
10
0.494000
20
-0.431000
0
VERTEX
8
0
10
0.475000
20
-0.437000
0
VERTEX
8
0
10
0.455000
20
-0.439000
0
SEQEND
8
0
0
POLYLINE
8
0
66
1
40
0.008000
41
0.008000
0
VERTEX
8
0
10
0.455000
20
-0.239000
0
VERTEX
8
0
10
0.455000
20
-0.089000
0
SEQEND
8
0
0
POLYLINE
8
0
66
1
40
0.008000
41
0.008000
0
VERTEX
8
0
10
2.455000
20
-0.089000
0
VERTEX
8
0
10
2.455000
20
-0.589000
0
SEQEND
8
0
0
POLYLINE
8
0
66
1
40
0.008000
41
0.008000
0
VERTEX
8
0
10
0.455000
20
-0.589000
0
VERTEX
8
0
10
0.455000
20
-0.439000
0
SEQEND
8
0
0
POLYLINE
8
0
66
1
40
0.008000
41
0.008000
0
VERTEX
8
0
10
0.455000
20
-0.089000
0
VERTEX
8
0
10
2.455000
20
-0.089000
0
SEQEND
8
0
0
POLYLINE
8
0
66
1
40
0.008000
41
0.008000
0
VERTEX
8
0
10
0.455000
20
-0.589000
0
VERTEX
8
0
10
2.455000
20
-0.589000
0
SEQEND
8
0
0
TEXT
8
12632256
10
0.445000
20
-0.389000
40
0.048000
41
1.041667
50
90.000000
1
U3
0
POLYLINE
8
0
66
1
40
0.008000
41
0.008000
0
VERTEX
8
0
10
-1.542000
20
-0.745000
0
VERTEX
8
0
10
-1.532000
20
-0.748000
0
VERTEX
8
0
10
-1.522000
20
-0.756000
0
VERTEX
8
0
10
-1.514000
20
-0.770000
0
VERTEX
8
0
10
-1.506000
20
-0.788000
0
VERTEX
8
0
10
-1.500000
20
-0.810000
0
VERTEX
8
0
10
-1.496000
20
-0.836000
0
VERTEX
8
0
10
-1.493000
20
-0.864000
0
VERTEX
8
0
10
-1.492000
20
-0.895000
0
SEQEND
8
0
0
POLYLINE
8
0
66
1
40
0.008000
41
0.008000
0
VERTEX
8
0
10
-1.542000
20
-1.045000
0
VERTEX
8
0
10
-1.537000
20
-1.044000
0
VERTEX
8
0
10
-1.532000
20
-1.042000
0
VERTEX
8
0
10
-1.522000
20
-1.033000
0
VERTEX
8
0
10
-1.514000
20
-1.020000
0
VERTEX
8
0
10
-1.506000
20
-1.002000
0
VERTEX
8
0
10
-1.500000
20
-0.979000
0
VERTEX
8
0
10
-1.496000
20
-0.954000
0
VERTEX
8
0
10
-1.493000
20
-0.926000
0
VERTEX
8
0
10
-1.492000
20
-0.895000
0
SEQEND
8
0
0
POLYLINE
8
0
66
1
40
0.008000
41
0.008000
0
VERTEX
8
0
10
-1.542000
20
-1.045000
0
VERTEX
8
0
10
-1.547000
20
-1.044000
0
VERTEX
8
0
10
-1.552000
20
-1.042000
0
VERTEX
8
0
10
-1.562000
20
-1.033000
0
VERTEX
8
0
10
-1.570000
20
-1.020000
0
VERTEX
8
0
10
-1.578000
20
-1.002000
0
VERTEX
8
0
10
-1.584000
20
-0.979000
0
VERTEX
8
0
10
-1.588000
20
-0.954000
0
VERTEX
8
0
10
-1.591000
20
-0.926000
0
VERTEX
8
0
10
-1.592000
20
-0.895000
0
SEQEND
8
0
0
POLYLINE
8
0
66
1
40
0.008000
41
0.008000
0
VERTEX
8
0
10
-1.542000
20
-0.745000
0
VERTEX
8
0
10
-1.552000
20
-0.748000
0
VERTEX
8
0
10
-1.562000
20
-0.756000
0
VERTEX
8
0
10
-1.570000
20
-0.770000
0
VERTEX
8
0
10
-1.578000
20
-0.788000
0
VERTEX
8
0
10
-1.584000
20
-0.810000
0
VERTEX
8
0
10
-1.588000
20
-0.836000
0
VERTEX
8
0
10
-1.591000
20
-0.864000
0
VERTEX
8
0
10
-1.592000
20
-0.895000
0
SEQEND
8
0
0
TEXT
8
12632256
10
-1.434000
20
-0.895000
40
0.048000
41
1.041667
50
90.000000
1
C2
0
POLYLINE
8
0
66
1
40
0.008000
41
0.008000
0
VERTEX
8
0
10
-1.365000
20
-0.745000
0
VERTEX
8
0
10
-1.355000
20
-0.748000
0
VERTEX
8
0
10
-1.345000
20
-0.756000
0
VERTEX
8
0
10
-1.337000
20
-0.770000
0
VERTEX
8
0
10
-1.330000
20
-0.788000
0
VERTEX
8
0
10
-1.324000
20
-0.810000
0
VERTEX
8
0
10
-1.319000
20
-0.836000
0
VERTEX
8
0
10
-1.316000
20
-0.864000
0
VERTEX
8
0
10
-1.315000
20
-0.895000
0
SEQEND
8
0
0
POLYLINE
8
0
66
1
40
0.008000
41
0.008000
0
VERTEX
8
0
10
-1.365000
20
-1.045000
0
VERTEX
8
0
10
-1.360000
20
-1.044000
0
VERTEX
8
0
10
-1.355000
20
-1.042000
0
VERTEX
8
0
10
-1.345000
20
-1.033000
0
VERTEX
8
0
10
-1.337000
20
-1.020000
0
VERTEX
8
0
10
-1.330000
20
-1.002000
0
VERTEX
8
0
10
-1.324000
20
-0.979000
0
VERTEX
8
0
10
-1.319000
20
-0.954000
0
VERTEX
8
0
10
-1.316000
20
-0.926000
0
VERTEX
8
0
10
-1.315000
20
-0.895000
0
SEQEND
8
0
0
POLYLINE
8
0
66
1
40
0.008000
41
0.008000
0
VERTEX
8
0
10
-1.365000
20
-1.045000
0
VERTEX
8
0
10
-1.370000
20
-1.044000
0
VERTEX
8
0
10
-1.375000
20
-1.042000
0
VERTEX
8
0
10
-1.385000
20
-1.033000
0
VERTEX
8
0
10
-1.393000
20
-1.020000
0
VERTEX
8
0
10
-1.400000
20
-1.002000
0
VERTEX
8
0
10
-1.406000
20
-0.979000
0
VERTEX
8
0
10
-1.411000
20
-0.954000
0
VERTEX
8
0
10
-1.414000
20
-0.926000
0
VERTEX
8
0
10
-1.415000
20
-0.895000
0
SEQEND
8
0
0
POLYLINE
8
0
66
1
40
0.008000
41
0.008000
0
VERTEX
8
0
10
-1.365000
20
-0.745000
0
VERTEX
8
0
10
-1.375000
20
-0.748000
0
VERTEX
8
0
10
-1.385000
20
-0.756000
0
VERTEX
8
0
10
-1.393000
20
-0.770000
0
VERTEX
8
0
10
-1.400000
20
-0.788000
0
VERTEX
8
0
10
-1.406000
20
-0.810000
0
VERTEX
8
0
10
-1.411000
20
-0.836000
0
VERTEX
8
0
10
-1.414000
20
-0.864000
0
VERTEX
8
0
10
-1.415000
20
-0.895000
0
SEQEND
8
0
0
TEXT
8
12632256
10
-1.257000
20
-0.895000
40
0.048000
41
1.041667
50
90.000000
1
C3
0
POLYLINE
8
0
66
1
40
0.008000
41
0.008000
0
VERTEX
8
0
10
-1.555000
20
-0.351000
0
VERTEX
8
0
10
-1.255000
20
-0.351000
0
VERTEX
8
0
10
-1.205000
20
-0.401000
0
VERTEX
8
0
10
-1.205000
20
-0.501000
0
VERTEX
8
0
10
-1.255000
20
-0.551000
0
VERTEX
8
0
10
-1.555000
20
-0.551000
0
VERTEX
8
0
10
-1.605000
20
-0.501000
0
VERTEX
8
0
10
-1.605000
20
-0.401000
0
VERTEX
8
0
10
-1.555000
20
-0.351000
0
SEQEND
8
0
0
TEXT
8
12632256
10
-1.455000
20
-0.341000
40
0.048000
41
1.041667
1
X1
0
POLYLINE
8
0
66
1
40
0.008000
41
0.008000
0
VERTEX
8
0
10
-3.394000
20
0.233000
0
VERTEX
8
0
10
-1.294000
20
0.233000
0
VERTEX
8
0
10
-1.294000
20
0.483000
0
VERTEX
8
0
10
-3.394000
20
0.483000
0
VERTEX
8
0
10
-3.394000
20
0.233000
0
SEQEND
8
0
0
POLYLINE
8
0
66
1
40
0.008000
41
0.008000
0
VERTEX
8
0
10
-1.294000
20
0.283000
0
VERTEX
8
0
10
-3.394000
20
0.283000
0
SEQEND
8
0
0
TEXT
8
12632256
10
-2.394000
20
0.175000
40
0.048000
41
1.041667
1
J9
0
POLYLINE
8
0
66
1
40
0.008000
41
0.008000
0
VERTEX
8
0
10
-3.385000
20
-0.391000
0
VERTEX
8
0
10
-3.085000
20
-0.391000
0
VERTEX
8
0
10
-3.085000
20
-0.241000
0
VERTEX
8
0
10
-3.385000
20
-0.241000
0
VERTEX
8
0
10
-3.385000
20
-0.391000
0
SEQEND
8
0
0
POLYLINE
8
0
66
1
40
0.008000
41
0.008000
0
VERTEX
8
0
10
-3.285000
20
-0.091000
0
VERTEX
8
0
10
-3.185000
20
-0.091000
0
SEQEND
8
0
0
POLYLINE
8
0
66
1
40
0.008000
41
0.008000
0
VERTEX
8
0
10
-3.333000
20
-0.241000
0
VERTEX
8
0
10
-3.140000
20
-0.241000
0
VERTEX
8
0
10
-3.140000
20
-0.021000
0
VERTEX
8
0
10
-3.333000
20
-0.021000
0
VERTEX
8
0
10
-3.333000
20
-0.241000
0
SEQEND
8
0
0
TEXT
8
12632256
10
-3.310000
20
0.076000
40
0.048000
41
1.041667
1
RV1
0
POLYLINE
8
0
66
1
40
0.008000
41
0.008000
0
VERTEX
8
0
10
-0.717000
20
-0.473000
0
VERTEX
8
0
10
-0.720000
20
-0.483000
0
VERTEX
8
0
10
-0.728000
20
-0.493000
0
VERTEX
8
0
10
-0.742000
20
-0.501000
0
VERTEX
8
0
10
-0.760000
20
-0.508000
0
VERTEX
8
0
10
-0.782000
20
-0.515000
0
VERTEX
8
0
10
-0.808000
20
-0.519000
0
VERTEX
8
0
10
-0.836000
20
-0.522000
0
VERTEX
8
0
10
-0.867000
20
-0.523000
0
SEQEND
8
0
0
POLYLINE
8
0
66
1
40
0.008000
41
0.008000
0
VERTEX
8
0
10
-1.017000
20
-0.473000
0
VERTEX
8
0
10
-1.014000
20
-0.483000
0
VERTEX
8
0
10
-1.005000
20
-0.493000
0
VERTEX
8
0
10
-0.992000
20
-0.501000
0
VERTEX
8
0
10
-0.974000
20
-0.508000
0
VERTEX
8
0
10
-0.952000
20
-0.515000
0
VERTEX
8
0
10
-0.926000
20
-0.519000
0
VERTEX
8
0
10
-0.898000
20
-0.522000
0
VERTEX
8
0
10
-0.867000
20
-0.523000
0
SEQEND
8
0
0
POLYLINE
8
0
66
1
40
0.008000
41
0.008000
0
VERTEX
8
0
10
-1.017000
20
-0.473000
0
VERTEX
8
0
10
-1.014000
20
-0.463000
0
VERTEX
8
0
10
-1.005000
20
-0.453000
0
VERTEX
8
0
10
-0.992000
20
-0.445000
0
VERTEX
8
0
10
-0.974000
20
-0.438000
0
VERTEX
8
0
10
-0.952000
20
-0.431000
0
VERTEX
8
0
10
-0.926000
20
-0.427000
0
VERTEX
8
0
10
-0.898000
20
-0.424000
0
VERTEX
8
0
10
-0.867000
20
-0.423000
0
SEQEND
8
0
0
POLYLINE
8
0
66
1
40
0.008000
41
0.008000
0
VERTEX
8
0
10
-0.717000
20
-0.473000
0
VERTEX
8
0
10
-0.720000
20
-0.463000
0
VERTEX
8
0
10
-0.728000
20
-0.453000
0
VERTEX
8
0
10
-0.742000
20
-0.445000
0
VERTEX
8
0
10
-0.760000
20
-0.438000
0
VERTEX
8
0
10
-0.782000
20
-0.431000
0
VERTEX
8
0
10
-0.808000
20
-0.427000
0
VERTEX
8
0
10
-0.836000
20
-0.424000
0
VERTEX
8
0
10
-0.867000
20
-0.423000
0
SEQEND
8
0
0
TEXT
8
12632256
10
-0.907000
20
-0.404000
40
0.048000
41
1.041667
1
C1
0
POLYLINE
8
0
66
1
40
0.008000
41
0.008000
0
VERTEX
8
0
10
-2.414000
20
-1.331000
0
VERTEX
8
0
10
-1.514000
20
-1.331000
0
VERTEX
8
0
10
-1.514000
20
-1.081000
0
VERTEX
8
0
10
-2.414000
20
-1.081000
0
VERTEX
8
0
10
-2.414000
20
-1.331000
0
SEQEND
8
0
0
POLYLINE
8
0
66
1
40
0.008000
41
0.008000
0
VERTEX
8
0
10
-2.414000
20
-1.131000
0
VERTEX
8
0
10
-1.514000
20
-1.131000
0
SEQEND
8
0
0
TEXT
8
12632256
10
-2.093000
20
-1.391000
40
0.048000
41
1.041667
1
J2
0
POLYLINE
8
0
66
1
40
0.008000
41
0.008000
0
VERTEX
8
0
10
-3.134000
20
-1.331000
0
VERTEX
8
0
10
-2.434000
20
-1.331000
0
VERTEX
8
0
10
-2.434000
20
-1.081000
0
VERTEX
8
0
10
-3.134000
20
-1.081000
0
VERTEX
8
0
10
-3.134000
20
-1.331000
0
SEQEND
8
0
0
POLYLINE
8
0
66
1
40
0.008000
41
0.008000
0
VERTEX
8
0
10
-3.134000
20
-1.131000
0
VERTEX
8
0
10
-2.434000
20
-1.131000
0
SEQEND
8
0
0
TEXT
8
12632256
10
-2.873000
20
-1.391000
40
0.048000
41
1.041667
1
J3
0
POLYLINE
8
0
66
1
40
0.008000
41
0.008000
0
VERTEX
8
0
10
-1.376000
20
-1.331000
0
VERTEX
8
0
10
-0.676000
20
-1.331000
0
VERTEX
8
0
10
-0.676000
20
-1.081000
0
VERTEX
8
0
10
-1.376000
20
-1.081000
0
VERTEX
8
0
10
-1.376000
20
-1.331000
0
SEQEND
8
0
0
POLYLINE
8
0
66
1
40
0.008000
41
0.008000
0
VERTEX
8
0
10
-1.376000
20
-1.131000
0
VERTEX
8
0
10
-0.676000
20
-1.131000
0
SEQEND
8
0
0
TEXT
8
12632256
10
-1.081000
20
-1.056000
40
0.048000
41
1.041667
1
J4
0
POLYLINE
8
0
66
1
40
0.008000
41
0.008000
0
VERTEX
8
0
10
-1.257000
20
0.238000
0
VERTEX
8
0
10
-0.857000
20
0.238000
0
VERTEX
8
0
10
-0.857000
20
0.488000
0
VERTEX
8
0
10
-1.257000
20
0.488000
0
VERTEX
8
0
10
-1.257000
20
0.238000
0
SEQEND
8
0
0
POLYLINE
8
0
66
1
40
0.008000
41
0.008000
0
VERTEX
8
0
10
-0.857000
20
0.288000
0
VERTEX
8
0
10
-1.257000
20
0.288000
0
SEQEND
8
0
0
TEXT
8
12632256
10
-1.132000
20
0.168000
40
0.048000
41
1.041667
1
J15
0
POLYLINE
8
0
66
1
40
0.008000
41
0.008000
0
VERTEX
8
0
10
-2.316000
20
-1.493000
0
VERTEX
8
0
10
-2.316000
20
-1.543000
0
SEQEND
8
0
0
POLYLINE
8
0
66
1
40
0.008000
41
0.008000
0
VERTEX
8
0
10
-2.341000
20
-1.743000
0
VERTEX
8
0
10
-2.291000
20
-1.743000
0
VERTEX
8
0
10
-2.291000
20
-1.543000
0
VERTEX
8
0
10
-2.341000
20
-1.543000
0
VERTEX
8
0
10
-2.341000
20
-1.743000
0
SEQEND
8
0
0
POLYLINE
8
0
66
1
40
0.008000
41
0.008000
0
VERTEX
8
0
10
-2.316000
20
-1.743000
0
VERTEX
8
0
10
-2.316000
20
-1.793000
0
SEQEND
8
0
0
TEXT
8
12632256
10
-2.233000
20
-1.718000
40
0.048000
41
1.041667
50
90.000000
1
R12
0
POLYLINE
8
0
66
1
40
0.008000
41
0.008000
0
VERTEX
8
0
10
-2.201000
20
-1.493000
0
VERTEX
8
0
10
-2.201000
20
-1.543000
0
SEQEND
8
0
0
POLYLINE
8
0
66
1
40
0.008000
41
0.008000
0
VERTEX
8
0
10
-2.226000
20
-1.743000
0
VERTEX
8
0
10
-2.176000
20
-1.743000
0
VERTEX
8
0
10
-2.176000
20
-1.543000
0
VERTEX
8
0
10
-2.226000
20
-1.543000
0
VERTEX
8
0
10
-2.226000
20
-1.743000
0
SEQEND
8
0
0
POLYLINE
8
0
66
1
40
0.008000
41
0.008000
0
VERTEX
8
0
10
-2.201000
20
-1.743000
0
VERTEX
8
0
10
-2.201000
20
-1.793000
0
SEQEND
8
0
0
TEXT
8
12632256
10
-2.118000
20
-1.718000
40
0.048000
41
1.041667
50
90.000000
1
R13
0
POLYLINE
8
0
66
1
40
0.008000
41
0.008000
0
VERTEX
8
0
10
-2.091000
20
-1.493000
0
VERTEX
8
0
10
-2.091000
20
-1.543000
0
SEQEND
8
0
0
POLYLINE
8
0
66
1
40
0.008000
41
0.008000
0
VERTEX
8
0
10
-2.116000
20
-1.743000
0
VERTEX
8
0
10
-2.066000
20
-1.743000
0
VERTEX
8
0
10
-2.066000
20
-1.543000
0
VERTEX
8
0
10
-2.116000
20
-1.543000
0
VERTEX
8
0
10
-2.116000
20
-1.743000
0
SEQEND
8
0
0
POLYLINE
8
0
66
1
40
0.008000
41
0.008000
0
VERTEX
8
0
10
-2.091000
20
-1.743000
0
VERTEX
8
0
10
-2.091000
20
-1.793000
0
SEQEND
8
0
0
TEXT
8
12632256
10
-2.008000
20
-1.718000
40
0.048000
41
1.041667
50
90.000000
1
R14
0
POLYLINE
8
0
66
1
40
0.008000
41
0.008000
0
VERTEX
8
0
10
-1.981000
20
-1.493000
0
VERTEX
8
0
10
-1.981000
20
-1.543000
0
SEQEND
8
0
0
POLYLINE
8
0
66
1
40
0.008000
41
0.008000
0
VERTEX
8
0
10
-2.006000
20
-1.743000
0
VERTEX
8
0
10
-1.956000
20
-1.743000
0
VERTEX
8
0
10
-1.956000
20
-1.543000
0
VERTEX
8
0
10
-2.006000
20
-1.543000
0
VERTEX
8
0
10
-2.006000
20
-1.743000
0
SEQEND
8
0
0
POLYLINE
8
0
66
1
40
0.008000
41
0.008000
0
VERTEX
8
0
10
-1.981000
20
-1.743000
0
VERTEX
8
0
10
-1.981000
20
-1.793000
0
SEQEND
8
0
0
TEXT
8
12632256
10
-1.898000
20
-1.718000
40
0.048000
41
1.041667
50
90.000000
1
R15
0
POLYLINE
8
0
66
1
40
0.008000
41
0.008000
0
VERTEX
8
0
10
-1.861000
20
-1.493000
0
VERTEX
8
0
10
-1.861000
20
-1.543000
0
SEQEND
8
0
0
POLYLINE
8
0
66
1
40
0.008000
41
0.008000
0
VERTEX
8
0
10
-1.886000
20
-1.743000
0
VERTEX
8
0
10
-1.836000
20
-1.743000
0
VERTEX
8
0
10
-1.836000
20
-1.543000
0
VERTEX
8
0
10
-1.886000
20
-1.543000
0
VERTEX
8
0
10
-1.886000
20
-1.743000
0
SEQEND
8
0
0
POLYLINE
8
0
66
1
40
0.008000
41
0.008000
0
VERTEX
8
0
10
-1.861000
20
-1.743000
0
VERTEX
8
0
10
-1.861000
20
-1.793000
0
SEQEND
8
0
0
TEXT
8
12632256
10
-1.778000
20
-1.693000
40
0.048000
41
1.041667
50
90.000000
1
R2
0
POLYLINE
8
0
66
1
40
0.008000
41
0.008000
0
VERTEX
8
0
10
-3.016000
20
-0.643000
0
VERTEX
8
0
10
-3.066000
20
-0.643000
0
SEQEND
8
0
0
POLYLINE
8
0
66
1
40
0.008000
41
0.008000
0
VERTEX
8
0
10
-3.266000
20
-0.668000
0
VERTEX
8
0
10
-3.066000
20
-0.668000
0
VERTEX
8
0
10
-3.066000
20
-0.618000
0
VERTEX
8
0
10
-3.266000
20
-0.618000
0
VERTEX
8
0
10
-3.266000
20
-0.668000
0
SEQEND
8
0
0
POLYLINE
8
0
66
1
40
0.008000
41
0.008000
0
VERTEX
8
0
10
-3.266000
20
-0.643000
0
VERTEX
8
0
10
-3.316000
20
-0.643000
0
SEQEND
8
0
0
TEXT
8
12632256
10
-3.216000
20
-0.726000
40
0.048000
41
1.041667
1
R1
0
POLYLINE
8
0
66
1
40
0.008000
41
0.008000
0
VERTEX
8
0
10
-3.211000
20
-1.511000
0
VERTEX
8
0
10
-3.211000
20
-1.473000
0
SEQEND
8
0
0
POLYLINE
8
0
66
1
40
0.008000
41
0.008000
0
VERTEX
8
0
10
-3.322000
20
-1.511000
0
VERTEX
8
0
10
-3.322000
20
-1.472000
0
SEQEND
8
0
0
POLYLINE
8
0
66
1
40
0.008000
41
0.008000
0
VERTEX
8
0
10
-3.196000
20
-1.431000
0
VERTEX
8
0
10
-3.176000
20
-1.431000
0
SEQEND
8
0
0
POLYLINE
8
0
66
1
40
0.008000
41
0.008000
0
VERTEX
8
0
10
-3.186000
20
-1.441000
0
VERTEX
8
0
10
-3.186000
20
-1.421000
0
SEQEND
8
0
0
TEXT
8
12632256
10
-3.118000
20
-1.442000
40
0.048000
41
1.041667
50
90.000000
71
2
1
C4
0
POLYLINE
8
0
66
1
40
0.008000
41
0.008000
0
VERTEX
8
0
10
-3.011000
20
-1.511000
0
VERTEX
8
0
10
-3.011000
20
-1.473000
0
SEQEND
8
0
0
POLYLINE
8
0
66
1
40
0.008000
41
0.008000
0
VERTEX
8
0
10
-3.122000
20
-1.511000
0
VERTEX
8
0
10
-3.122000
20
-1.472000
0
SEQEND
8
0
0
POLYLINE
8
0
66
1
40
0.008000
41
0.008000
0
VERTEX
8
0
10
-2.996000
20
-1.431000
0
VERTEX
8
0
10
-2.976000
20
-1.431000
0
SEQEND
8
0
0
POLYLINE
8
0
66
1
40
0.008000
41
0.008000
0
VERTEX
8
0
10
-2.986000
20
-1.441000
0
VERTEX
8
0
10
-2.986000
20
-1.421000
0
SEQEND
8
0
0
TEXT
8
12632256
10
-2.918000
20
-1.442000
40
0.048000
41
1.041667
50
90.000000
71
2
1
C5
0
POLYLINE
8
0
66
1
40
0.008000
41
0.008000
0
VERTEX
8
0
10
-2.806000
20
-1.511000
0
VERTEX
8
0
10
-2.806000
20
-1.473000
0
SEQEND
8
0
0
POLYLINE
8
0
66
1
40
0.008000
41
0.008000
0
VERTEX
8
0
10
-2.917000
20
-1.511000
0
VERTEX
8
0
10
-2.917000
20
-1.472000
0
SEQEND
8
0
0
POLYLINE
8
0
66
1
40
0.008000
41
0.008000
0
VERTEX
8
0
10
-2.791000
20
-1.431000
0
VERTEX
8
0
10
-2.771000
20
-1.431000
0
SEQEND
8
0
0
POLYLINE
8
0
66
1
40
0.008000
41
0.008000
0
VERTEX
8
0
10
-2.781000
20
-1.441000
0
VERTEX
8
0
10
-2.781000
20
-1.421000
0
SEQEND
8
0
0
TEXT
8
12632256
10
-2.713000
20
-1.442000
40
0.048000
41
1.041667
50
90.000000
71
2
1
C6
0
POLYLINE
8
0
66
1
40
0.008000
41
0.008000
0
VERTEX
8
0
10
-2.591000
20
-1.511000
0
VERTEX
8
0
10
-2.591000
20
-1.473000
0
SEQEND
8
0
0
POLYLINE
8
0
66
1
40
0.008000
41
0.008000
0
VERTEX
8
0
10
-2.702000
20
-1.511000
0
VERTEX
8
0
10
-2.702000
20
-1.472000
0
SEQEND
8
0
0
POLYLINE
8
0
66
1
40
0.008000
41
0.008000
0
VERTEX
8
0
10
-2.576000
20
-1.431000
0
VERTEX
8
0
10
-2.556000
20
-1.431000
0
SEQEND
8
0
0
POLYLINE
8
0
66
1
40
0.008000
41
0.008000
0
VERTEX
8
0
10
-2.566000
20
-1.441000
0
VERTEX
8
0
10
-2.566000
20
-1.421000
0
SEQEND
8
0
0
TEXT
8
12632256
10
-2.498000
20
-1.442000
40
0.048000
41
1.041667
50
90.000000
71
2
1
C7
0
CIRCLE
8
12632256
10
2.088000
20
-0.923000
40
0.100000
0
POLYLINE
8
0
66
1
40
0.008000
41
0.008000
0
VERTEX
8
0
10
2.138000
20
-0.848000
0
VERTEX
8
0
10
2.138000
20
-0.898000
0
SEQEND
8
0
0
POLYLINE
8
0
66
1
40
0.008000
41
0.008000
0
VERTEX
8
0
10
2.163000
20
-0.873000
0
VERTEX
8
0
10
2.113000
20
-0.873000
0
SEQEND
8
0
0
TEXT
8
12632256
10
2.246000
20
-0.973000
40
0.048000
41
1.041667
50
90.000000
1
C8
0
POLYLINE
8
0
66
1
40
0.008000
41
0.008000
0
VERTEX
8
0
10
0.145000
20
-0.688000
0
VERTEX
8
0
10
0.183000
20
-0.688000
0
SEQEND
8
0
0
POLYLINE
8
0
66
1
40
0.008000
41
0.008000
0
VERTEX
8
0
10
0.145000
20
-0.577000
0
VERTEX
8
0
10
0.184000
20
-0.577000
0
SEQEND
8
0
0
POLYLINE
8
0
66
1
40
0.008000
41
0.008000
0
VERTEX
8
0
10
0.225000
20
-0.703000
0
VERTEX
8
0
10
0.225000
20
-0.723000
0
SEQEND
8
0
0
POLYLINE
8
0
66
1
40
0.008000
41
0.008000
0
VERTEX
8
0
10
0.215000
20
-0.713000
0
VERTEX
8
0
10
0.235000
20
-0.713000
0
SEQEND
8
0
0
TEXT
8
12632256
10
0.214000
20
-0.781000
40
0.048000
41
1.041667
71
2
1
C9
0
POLYLINE
8
0
66
1
40
0.008000
41
0.008000
0
VERTEX
8
0
10
0.308000
20
-0.463000
0
VERTEX
8
0
10
0.258000
20
-0.463000
0
SEQEND
8
0
0
POLYLINE
8
0
66
1
40
0.008000
41
0.008000
0
VERTEX
8
0
10
0.058000
20
-0.488000
0
VERTEX
8
0
10
0.258000
20
-0.488000
0
VERTEX
8
0
10
0.258000
20
-0.438000
0
VERTEX
8
0
10
0.058000
20
-0.438000
0
VERTEX
8
0
10
0.058000
20
-0.488000
0
SEQEND
8
0
0
POLYLINE
8
0
66
1
40
0.008000
41
0.008000
0
VERTEX
8
0
10
0.058000
20
-0.463000
0
VERTEX
8
0
10
0.008000
20
-0.463000
0
SEQEND
8
0
0
TEXT
8
12632256
10
0.108000
20
-0.546000
40
0.048000
41
1.041667
1
R3
0
POLYLINE
8
0
66
1
40
0.008000
41
0.008000
0
VERTEX
8
0
10
1.103000
20
0.421000
0
VERTEX
8
0
10
1.103000
20
0.371000
0
SEQEND
8
0
0
POLYLINE
8
0
66
1
40
0.008000
41
0.008000
0
VERTEX
8
0
10
1.078000
20
0.171000
0
VERTEX
8
0
10
1.128000
20
0.171000
0
VERTEX
8
0
10
1.128000
20
0.371000
0
VERTEX
8
0
10
1.078000
20
0.371000
0
VERTEX
8
0
10
1.078000
20
0.171000
0
SEQEND
8
0
0
POLYLINE
8
0
66
1
40
0.008000
41
0.008000
0
VERTEX
8
0
10
1.103000
20
0.171000
0
VERTEX
8
0
10
1.103000
20
0.121000
0
SEQEND
8
0
0
TEXT
8
12632256
10
1.186000
20
0.221000
40
0.048000
41
1.041667
50
90.000000
1
R6
0
POLYLINE
8
0
66
1
40
0.008000
41
0.008000
0
VERTEX
8
0
10
0.998000
20
0.421000
0
VERTEX
8
0
10
0.998000
20
0.371000
0
SEQEND
8
0
0
POLYLINE
8
0
66
1
40
0.008000
41
0.008000
0
VERTEX
8
0
10
0.973000
20
0.171000
0
VERTEX
8
0
10
1.023000
20
0.171000
0
VERTEX
8
0
10
1.023000
20
0.371000
0
VERTEX
8
0
10
0.973000
20
0.371000
0
VERTEX
8
0
10
0.973000
20
0.171000
0
SEQEND
8
0
0
POLYLINE
8
0
66
1
40
0.008000
41
0.008000
0
VERTEX
8
0
10
0.998000
20
0.171000
0
VERTEX
8
0
10
0.998000
20
0.121000
0
SEQEND
8
0
0
TEXT
8
12632256
10
1.081000
20
0.221000
40
0.048000
41
1.041667
50
90.000000
1
R8
0
POLYLINE
8
0
66
1
40
0.008000
41
0.008000
0
VERTEX
8
0
10
0.888000
20
0.421000
0
VERTEX
8
0
10
0.888000
20
0.371000
0
SEQEND
8
0
0
POLYLINE
8
0
66
1
40
0.008000
41
0.008000
0
VERTEX
8
0
10
0.863000
20
0.171000
0
VERTEX
8
0
10
0.913000
20
0.171000
0
VERTEX
8
0
10
0.913000
20
0.371000
0
VERTEX
8
0
10
0.863000
20
0.371000
0
VERTEX
8
0
10
0.863000
20
0.171000
0
SEQEND
8
0
0
POLYLINE
8
0
66
1
40
0.008000
41
0.008000
0
VERTEX
8
0
10
0.888000
20
0.171000
0
VERTEX
8
0
10
0.888000
20
0.121000
0
SEQEND
8
0
0
TEXT
8
12632256
10
0.971000
20
0.196000
40
0.048000
41
1.041667
50
90.000000
1
R10
0
POLYLINE
8
0
66
1
40
0.008000
41
0.008000
0
VERTEX
8
0
10
0.778000
20
0.421000
0
VERTEX
8
0
10
0.778000
20
0.371000
0
SEQEND
8
0
0
POLYLINE
8
0
66
1
40
0.008000
41
0.008000
0
VERTEX
8
0
10
0.753000
20
0.171000
0
VERTEX
8
0
10
0.803000
20
0.171000
0
VERTEX
8
0
10
0.803000
20
0.371000
0
VERTEX
8
0
10
0.753000
20
0.371000
0
VERTEX
8
0
10
0.753000
20
0.171000
0
SEQEND
8
0
0
POLYLINE
8
0
66
1
40
0.008000
41
0.008000
0
VERTEX
8
0
10
0.778000
20
0.171000
0
VERTEX
8
0
10
0.778000
20
0.121000
0
SEQEND
8
0
0
TEXT
8
12632256
10
0.861000
20
0.196000
40
0.048000
41
1.041667
50
90.000000
1
R16
0
POLYLINE
8
0
66
1
40
0.008000
41
0.008000
0
VERTEX
8
0
10
0.663000
20
0.421000
0
VERTEX
8
0
10
0.663000
20
0.371000
0
SEQEND
8
0
0
POLYLINE
8
0
66
1
40
0.008000
41
0.008000
0
VERTEX
8
0
10
0.638000
20
0.171000
0
VERTEX
8
0
10
0.688000
20
0.171000
0
VERTEX
8
0
10
0.688000
20
0.371000
0
VERTEX
8
0
10
0.638000
20
0.371000
0
VERTEX
8
0
10
0.638000
20
0.171000
0
SEQEND
8
0
0
POLYLINE
8
0
66
1
40
0.008000
41
0.008000
0
VERTEX
8
0
10
0.663000
20
0.171000
0
VERTEX
8
0
10
0.663000
20
0.121000
0
SEQEND
8
0
0
TEXT
8
12632256
10
0.746000
20
0.196000
40
0.048000
41
1.041667
50
90.000000
1
R18
0
POLYLINE
8
0
66
1
40
0.008000
41
0.008000
0
VERTEX
8
0
10
0.548000
20
0.421000
0
VERTEX
8
0
10
0.548000
20
0.371000
0
SEQEND
8
0
0
POLYLINE
8
0
66
1
40
0.008000
41
0.008000
0
VERTEX
8
0
10
0.523000
20
0.171000
0
VERTEX
8
0
10
0.573000
20
0.171000
0
VERTEX
8
0
10
0.573000
20
0.371000
0
VERTEX
8
0
10
0.523000
20
0.371000
0
VERTEX
8
0
10
0.523000
20
0.171000
0
SEQEND
8
0
0
POLYLINE
8
0
66
1
40
0.008000
41
0.008000
0
VERTEX
8
0
10
0.548000
20
0.171000
0
VERTEX
8
0
10
0.548000
20
0.121000
0
SEQEND
8
0
0
TEXT
8
12632256
10
0.631000
20
0.196000
40
0.048000
41
1.041667
50
90.000000
1
R25
0
POLYLINE
8
0
66
1
40
0.008000
41
0.008000
0
VERTEX
8
0
10
0.433000
20
0.421000
0
VERTEX
8
0
10
0.433000
20
0.371000
0
SEQEND
8
0
0
POLYLINE
8
0
66
1
40
0.008000
41
0.008000
0
VERTEX
8
0
10
0.408000
20
0.171000
0
VERTEX
8
0
10
0.458000
20
0.171000
0
VERTEX
8
0
10
0.458000
20
0.371000
0
VERTEX
8
0
10
0.408000
20
0.371000
0
VERTEX
8
0
10
0.408000
20
0.171000
0
SEQEND
8
0
0
POLYLINE
8
0
66
1
40
0.008000
41
0.008000
0
VERTEX
8
0
10
0.433000
20
0.171000
0
VERTEX
8
0
10
0.433000
20
0.121000
0
SEQEND
8
0
0
TEXT
8
12632256
10
0.516000
20
0.196000
40
0.048000
41
1.041667
50
90.000000
1
R27
0
POLYLINE
8
0
66
1
40
0.008000
41
0.008000
0
VERTEX
8
0
10
2.303000
20
-0.828000
0
VERTEX
8
0
10
2.303000
20
-0.878000
0
SEQEND
8
0
0
POLYLINE
8
0
66
1
40
0.008000
41
0.008000
0
VERTEX
8
0
10
2.278000
20
-1.078000
0
VERTEX
8
0
10
2.328000
20
-1.078000
0
VERTEX
8
0
10
2.328000
20
-0.878000
0
VERTEX
8
0
10
2.278000
20
-0.878000
0
VERTEX
8
0
10
2.278000
20
-1.078000
0
SEQEND
8
0
0
POLYLINE
8
0
66
1
40
0.008000
41
0.008000
0
VERTEX
8
0
10
2.303000
20
-1.078000
0
VERTEX
8
0
10
2.303000
20
-1.128000
0
SEQEND
8
0
0
TEXT
8
12632256
10
2.386000
20
-1.053000
40
0.048000
41
1.041667
50
90.000000
1
R30
0
POLYLINE
8
0
66
1
40
0.008000
41
0.008000
0
VERTEX
8
0
10
2.428000
20
-0.828000
0
VERTEX
8
0
10
2.428000
20
-0.878000
0
SEQEND
8
0
0
POLYLINE
8
0
66
1
40
0.008000
41
0.008000
0
VERTEX
8
0
10
2.403000
20
-1.078000
0
VERTEX
8
0
10
2.453000
20
-1.078000
0
VERTEX
8
0
10
2.453000
20
-0.878000
0
VERTEX
8
0
10
2.403000
20
-0.878000
0
VERTEX
8
0
10
2.403000
20
-1.078000
0
SEQEND
8
0
0
POLYLINE
8
0
66
1
40
0.008000
41
0.008000
0
VERTEX
8
0
10
2.428000
20
-1.078000
0
VERTEX
8
0
10
2.428000
20
-1.128000
0
SEQEND
8
0
0
TEXT
8
12632256
10
2.511000
20
-1.053000
40
0.048000
41
1.041667
50
90.000000
1
R31
0
POLYLINE
8
0
66
1
40
0.008000
41
0.008000
0
VERTEX
8
0
10
2.458000
20
0.121000
0
VERTEX
8
0
10
2.458000
20
0.171000
0
SEQEND
8
0
0
POLYLINE
8
0
66
1
40
0.008000
41
0.008000
0
VERTEX
8
0
10
2.433000
20
0.171000
0
VERTEX
8
0
10
2.483000
20
0.171000
0
VERTEX
8
0
10
2.483000
20
0.371000
0
VERTEX
8
0
10
2.433000
20
0.371000
0
VERTEX
8
0
10
2.433000
20
0.171000
0
SEQEND
8
0
0
POLYLINE
8
0
66
1
40
0.008000
41
0.008000
0
VERTEX
8
0
10
2.458000
20
0.371000
0
VERTEX
8
0
10
2.458000
20
0.421000
0
SEQEND
8
0
0
TEXT
8
12632256
10
2.423000
20
0.196000
40
0.048000
41
1.041667
50
90.000000
1
R32
0
POLYLINE
8
0
66
1
40
0.008000
41
0.008000
0
VERTEX
8
0
10
2.353000
20
0.121000
0
VERTEX
8
0
10
2.353000
20
0.171000
0
SEQEND
8
0
0
POLYLINE
8
0
66
1
40
0.008000
41
0.008000
0
VERTEX
8
0
10
2.328000
20
0.171000
0
VERTEX
8
0
10
2.378000
20
0.171000
0
VERTEX
8
0
10
2.378000
20
0.371000
0
VERTEX
8
0
10
2.328000
20
0.371000
0
VERTEX
8
0
10
2.328000
20
0.171000
0
SEQEND
8
0
0
POLYLINE
8
0
66
1
40
0.008000
41
0.008000
0
VERTEX
8
0
10
2.353000
20
0.371000
0
VERTEX
8
0
10
2.353000
20
0.421000
0
SEQEND
8
0
0
TEXT
8
12632256
10
2.318000
20
0.196000
40
0.048000
41
1.041667
50
90.000000
1
R33
0
POLYLINE
8
0
66
1
40
0.008000
41
0.008000
0
VERTEX
8
0
10
1.818000
20
0.121000
0
VERTEX
8
0
10
1.818000
20
0.171000
0
SEQEND
8
0
0
POLYLINE
8
0
66
1
40
0.008000
41
0.008000
0
VERTEX
8
0
10
1.793000
20
0.171000
0
VERTEX
8
0
10
1.843000
20
0.171000
0
VERTEX
8
0
10
1.843000
20
0.371000
0
VERTEX
8
0
10
1.793000
20
0.371000
0
VERTEX
8
0
10
1.793000
20
0.171000
0
SEQEND
8
0
0
POLYLINE
8
0
66
1
40
0.008000
41
0.008000
0
VERTEX
8
0
10
1.818000
20
0.371000
0
VERTEX
8
0
10
1.818000
20
0.421000
0
SEQEND
8
0
0
TEXT
8
12632256
10
1.783000
20
0.196000
40
0.048000
41
1.041667
50
90.000000
1
R34
0
POLYLINE
8
0
66
1
40
0.008000
41
0.008000
0
VERTEX
8
0
10
1.708000
20
0.121000
0
VERTEX
8
0
10
1.708000
20
0.171000
0
SEQEND
8
0
0
POLYLINE
8
0
66
1
40
0.008000
41
0.008000
0
VERTEX
8
0
10
1.683000
20
0.171000
0
VERTEX
8
0
10
1.733000
20
0.171000
0
VERTEX
8
0
10
1.733000
20
0.371000
0
VERTEX
8
0
10
1.683000
20
0.371000
0
VERTEX
8
0
10
1.683000
20
0.171000
0
SEQEND
8
0
0
POLYLINE
8
0
66
1
40
0.008000
41
0.008000
0
VERTEX
8
0
10
1.708000
20
0.371000
0
VERTEX
8
0
10
1.708000
20
0.421000
0
SEQEND
8
0
0
TEXT
8
12632256
10
1.673000
20
0.196000
40
0.048000
41
1.041667
50
90.000000
1
R35
0
POLYLINE
8
0
66
1
40
0.008000
41
0.008000
0
VERTEX
8
0
10
1.598000
20
0.121000
0
VERTEX
8
0
10
1.598000
20
0.171000
0
SEQEND
8
0
0
POLYLINE
8
0
66
1
40
0.008000
41
0.008000
0
VERTEX
8
0
10
1.573000
20
0.171000
0
VERTEX
8
0
10
1.623000
20
0.171000
0
VERTEX
8
0
10
1.623000
20
0.371000
0
VERTEX
8
0
10
1.573000
20
0.371000
0
VERTEX
8
0
10
1.573000
20
0.171000
0
SEQEND
8
0
0
POLYLINE
8
0
66
1
40
0.008000
41
0.008000
0
VERTEX
8
0
10
1.598000
20
0.371000
0
VERTEX
8
0
10
1.598000
20
0.421000
0
SEQEND
8
0
0
TEXT
8
12632256
10
1.563000
20
0.196000
40
0.048000
41
1.041667
50
90.000000
1
R36
0
POLYLINE
8
0
66
1
40
0.008000
41
0.008000
0
VERTEX
8
0
10
1.868000
20
0.171000
0
VERTEX
8
0
10
2.268000
20
0.171000
0
VERTEX
8
0
10
2.268000
20
0.421000
0
VERTEX
8
0
10
1.868000
20
0.421000
0
VERTEX
8
0
10
1.868000
20
0.171000
0
SEQEND
8
0
0
POLYLINE
8
0
66
1
40
0.008000
41
0.008000
0
VERTEX
8
0
10
2.268000
20
0.221000
0
VERTEX
8
0
10
1.868000
20
0.221000
0
SEQEND
8
0
0
TEXT
8
12632256
10
1.993000
20
0.091000
40
0.048000
41
1.041667
1
J16
0
POLYLINE
8
0
66
1
40
0.008000
41
0.008000
0
VERTEX
8
0
10
1.218000
20
0.121000
0
VERTEX
8
0
10
1.218000
20
0.171000
0
SEQEND
8
0
0
POLYLINE
8
0
66
1
40
0.008000
41
0.008000
0
VERTEX
8
0
10
1.193000
20
0.171000
0
VERTEX
8
0
10
1.243000
20
0.171000
0
VERTEX
8
0
10
1.243000
20
0.371000
0
VERTEX
8
0
10
1.193000
20
0.371000
0
VERTEX
8
0
10
1.193000
20
0.171000
0
SEQEND
8
0
0
POLYLINE
8
0
66
1
40
0.008000
41
0.008000
0
VERTEX
8
0
10
1.218000
20
0.371000
0
VERTEX
8
0
10
1.218000
20
0.421000
0
SEQEND
8
0
0
TEXT
8
12632256
10
1.303000
20
0.211000
40
0.048000
41
1.041667
50
90.000000
1
R5
0
POLYLINE
8
0
66
1
40
0.008000
41
0.008000
0
VERTEX
8
0
10
1.488000
20
0.121000
0
VERTEX
8
0
10
1.488000
20
0.171000
0
SEQEND
8
0
0
POLYLINE
8
0
66
1
40
0.008000
41
0.008000
0
VERTEX
8
0
10
1.463000
20
0.171000
0
VERTEX
8
0
10
1.513000
20
0.171000
0
VERTEX
8
0
10
1.513000
20
0.371000
0
VERTEX
8
0
10
1.463000
20
0.371000
0
VERTEX
8
0
10
1.463000
20
0.171000
0
SEQEND
8
0
0
POLYLINE
8
0
66
1
40
0.008000
41
0.008000
0
VERTEX
8
0
10
1.488000
20
0.371000
0
VERTEX
8
0
10
1.488000
20
0.421000
0
SEQEND
8
0
0
TEXT
8
12632256
10
1.453000
20
0.196000
40
0.048000
41
1.041667
50
90.000000
1
R37
0
POLYLINE
8
0
66
1
40
0.008000
41
0.008000
0
VERTEX
8
0
10
0.503000
20
-1.063000
0
VERTEX
8
0
10
1.603000
20
-1.063000
0
VERTEX
8
0
10
1.603000
20
-0.813000
0
VERTEX
8
0
10
0.503000
20
-0.813000
0
VERTEX
8
0
10
0.503000
20
-1.063000
0
SEQEND
8
0
0
POLYLINE
8
0
66
1
40
0.008000
41
0.008000
0
VERTEX
8
0
10
0.503000
20
-0.863000
0
VERTEX
8
0
10
1.603000
20
-0.863000
0
SEQEND
8
0
0
TEXT
8
12632256
10
0.978000
20
-0.788000
40
0.048000
41
1.041667
1
J14
0
POLYLINE
8
0
66
1
40
0.008000
41
0.008000
0
VERTEX
8
0
10
0.278000
20
-1.222000
0
VERTEX
8
0
10
0.278000
20
-1.184000
0
SEQEND
8
0
0
POLYLINE
8
0
66
1
40
0.008000
41
0.008000
0
VERTEX
8
0
10
0.167000
20
-1.222000
0
VERTEX
8
0
10
0.167000
20
-1.183000
0
SEQEND
8
0
0
POLYLINE
8
0
66
1
40
0.008000
41
0.008000
0
VERTEX
8
0
10
0.293000
20
-1.142000
0
VERTEX
8
0
10
0.313000
20
-1.142000
0
SEQEND
8
0
0
POLYLINE
8
0
66
1
40
0.008000
41
0.008000
0
VERTEX
8
0
10
0.303000
20
-1.152000
0
VERTEX
8
0
10
0.303000
20
-1.132000
0
SEQEND
8
0
0
TEXT
8
12632256
10
0.371000
20
-1.128000
40
0.048000
41
1.041667
50
90.000000
71
2
1
C14
0
POLYLINE
8
0
66
1
40
0.008000
41
0.008000
0
VERTEX
8
0
10
0.488000
20
-1.222000
0
VERTEX
8
0
10
0.488000
20
-1.184000
0
SEQEND
8
0
0
POLYLINE
8
0
66
1
40
0.008000
41
0.008000
0
VERTEX
8
0
10
0.377000
20
-1.222000
0
VERTEX
8
0
10
0.377000
20
-1.183000
0
SEQEND
8
0
0
POLYLINE
8
0
66
1
40
0.008000
41
0.008000
0
VERTEX
8
0
10
0.503000
20
-1.142000
0
VERTEX
8
0
10
0.523000
20
-1.142000
0
SEQEND
8
0
0
POLYLINE
8
0
66
1
40
0.008000
41
0.008000
0
VERTEX
8
0
10
0.513000
20
-1.152000
0
VERTEX
8
0
10
0.513000
20
-1.132000
0
SEQEND
8
0
0
TEXT
8
12632256
10
0.581000
20
-1.128000
40
0.048000
41
1.041667
50
90.000000
71
2
1
C15
0
POLYLINE
8
0
66
1
40
0.008000
41
0.008000
0
VERTEX
8
0
10
0.675000
20
-1.222000
0
VERTEX
8
0
10
0.675000
20
-1.184000
0
SEQEND
8
0
0
POLYLINE
8
0
66
1
40
0.008000
41
0.008000
0
VERTEX
8
0
10
0.564000
20
-1.222000
0
VERTEX
8
0
10
0.564000
20
-1.183000
0
SEQEND
8
0
0
POLYLINE
8
0
66
1
40
0.008000
41
0.008000
0
VERTEX
8
0
10
0.690000
20
-1.142000
0
VERTEX
8
0
10
0.710000
20
-1.142000
0
SEQEND
8
0
0
POLYLINE
8
0
66
1
40
0.008000
41
0.008000
0
VERTEX
8
0
10
0.700000
20
-1.152000
0
VERTEX
8
0
10
0.700000
20
-1.132000
0
SEQEND
8
0
0
TEXT
8
12632256
10
0.768000
20
-1.128000
40
0.048000
41
1.041667
50
90.000000
71
2
1
C16
0
POLYLINE
8
0
66
1
40
0.008000
41
0.008000
0
VERTEX
8
0
10
0.871000
20
-1.218000
0
VERTEX
8
0
10
0.871000
20
-1.180000
0
SEQEND
8
0
0
POLYLINE
8
0
66
1
40
0.008000
41
0.008000
0
VERTEX
8
0
10
0.760000
20
-1.218000
0
VERTEX
8
0
10
0.760000
20
-1.179000
0
SEQEND
8
0
0
POLYLINE
8
0
66
1
40
0.008000
41
0.008000
0
VERTEX
8
0
10
0.886000
20
-1.138000
0
VERTEX
8
0
10
0.906000
20
-1.138000
0
SEQEND
8
0
0
POLYLINE
8
0
66
1
40
0.008000
41
0.008000
0
VERTEX
8
0
10
0.896000
20
-1.148000
0
VERTEX
8
0
10
0.896000
20
-1.128000
0
SEQEND
8
0
0
TEXT
8
12632256
10
0.964000
20
-1.124000
40
0.048000
41
1.041667
50
90.000000
71
2
1
C17
0
POLYLINE
8
0
66
1
40
0.008000
41
0.008000
0
VERTEX
8
0
10
1.118000
20
-1.222000
0
VERTEX
8
0
10
1.118000
20
-1.184000
0
SEQEND
8
0
0
POLYLINE
8
0
66
1
40
0.008000
41
0.008000
0
VERTEX
8
0
10
1.007000
20
-1.222000
0
VERTEX
8
0
10
1.007000
20
-1.183000
0
SEQEND
8
0
0
POLYLINE
8
0
66
1
40
0.008000
41
0.008000
0
VERTEX
8
0
10
1.133000
20
-1.142000
0
VERTEX
8
0
10
1.153000
20
-1.142000
0
SEQEND
8
0
0
POLYLINE
8
0
66
1
40
0.008000
41
0.008000
0
VERTEX
8
0
10
1.143000
20
-1.152000
0
VERTEX
8
0
10
1.143000
20
-1.132000
0
SEQEND
8
0
0
TEXT
8
12632256
10
1.211000
20
-1.128000
40
0.048000
41
1.041667
50
90.000000
71
2
1
C18
0
POLYLINE
8
0
66
1
40
0.008000
41
0.008000
0
VERTEX
8
0
10
1.333000
20
-1.222000
0
VERTEX
8
0
10
1.333000
20
-1.184000
0
SEQEND
8
0
0
POLYLINE
8
0
66
1
40
0.008000
41
0.008000
0
VERTEX
8
0
10
1.222000
20
-1.222000
0
VERTEX
8
0
10
1.222000
20
-1.183000
0
SEQEND
8
0
0
POLYLINE
8
0
66
1
40
0.008000
41
0.008000
0
VERTEX
8
0
10
1.348000
20
-1.142000
0
VERTEX
8
0
10
1.368000
20
-1.142000
0
SEQEND
8
0
0
POLYLINE
8
0
66
1
40
0.008000
41
0.008000
0
VERTEX
8
0
10
1.358000
20
-1.152000
0
VERTEX
8
0
10
1.358000
20
-1.132000
0
SEQEND
8
0
0
TEXT
8
12632256
10
1.426000
20
-1.128000
40
0.048000
41
1.041667
50
90.000000
71
2
1
C19
0
POLYLINE
8
0
66
1
40
0.008000
41
0.008000
0
VERTEX
8
0
10
1.553000
20
-1.222000
0
VERTEX
8
0
10
1.553000
20
-1.184000
0
SEQEND
8
0
0
POLYLINE
8
0
66
1
40
0.008000
41
0.008000
0
VERTEX
8
0
10
1.442000
20
-1.222000
0
VERTEX
8
0
10
1.442000
20
-1.183000
0
SEQEND
8
0
0
POLYLINE
8
0
66
1
40
0.008000
41
0.008000
0
VERTEX
8
0
10
1.568000
20
-1.142000
0
VERTEX
8
0
10
1.588000
20
-1.142000
0
SEQEND
8
0
0
POLYLINE
8
0
66
1
40
0.008000
41
0.008000
0
VERTEX
8
0
10
1.578000
20
-1.152000
0
VERTEX
8
0
10
1.578000
20
-1.132000
0
SEQEND
8
0
0
TEXT
8
12632256
10
1.646000
20
-1.128000
40
0.048000
41
1.041667
50
90.000000
71
2
1
C22
0
POLYLINE
8
0
66
1
40
0.008000
41
0.008000
0
VERTEX
8
0
10
1.768000
20
-1.222000
0
VERTEX
8
0
10
1.768000
20
-1.184000
0
SEQEND
8
0
0
POLYLINE
8
0
66
1
40
0.008000
41
0.008000
0
VERTEX
8
0
10
1.657000
20
-1.222000
0
VERTEX
8
0
10
1.657000
20
-1.183000
0
SEQEND
8
0
0
POLYLINE
8
0
66
1
40
0.008000
41
0.008000
0
VERTEX
8
0
10
1.783000
20
-1.142000
0
VERTEX
8
0
10
1.803000
20
-1.142000
0
SEQEND
8
0
0
POLYLINE
8
0
66
1
40
0.008000
41
0.008000
0
VERTEX
8
0
10
1.793000
20
-1.152000
0
VERTEX
8
0
10
1.793000
20
-1.132000
0
SEQEND
8
0
0
TEXT
8
12632256
10
1.861000
20
-1.128000
40
0.048000
41
1.041667
50
90.000000
71
2
1
C24
0
POLYLINE
8
0
66
1
40
0.008000
41
0.008000
0
VERTEX
8
0
10
0.936000
20
-1.492000
0
VERTEX
8
0
10
0.936000
20
-1.442000
0
SEQEND
8
0
0
POLYLINE
8
0
66
1
40
0.008000
41
0.008000
0
VERTEX
8
0
10
0.911000
20
-1.442000
0
VERTEX
8
0
10
0.961000
20
-1.442000
0
VERTEX
8
0
10
0.961000
20
-1.242000
0
VERTEX
8
0
10
0.911000
20
-1.242000
0
VERTEX
8
0
10
0.911000
20
-1.442000
0
SEQEND
8
0
0
POLYLINE
8
0
66
1
40
0.008000
41
0.008000
0
VERTEX
8
0
10
0.936000
20
-1.242000
0
VERTEX
8
0
10
0.936000
20
-1.192000
0
SEQEND
8
0
0
TEXT
8
12632256
10
0.901000
20
-1.417000
40
0.048000
41
1.041667
50
90.000000
1
R23
0
POLYLINE
8
0
66
1
40
0.008000
41
0.008000
0
VERTEX
8
0
10
1.968000
20
0.896000
0
VERTEX
8
0
10
1.968000
20
0.946000
0
SEQEND
8
0
0
POLYLINE
8
0
66
1
40
0.008000
41
0.008000
0
VERTEX
8
0
10
2.018000
20
0.996000
0
VERTEX
8
0
10
2.017000
20
1.006000
0
VERTEX
8
0
10
2.014000
20
1.016000
0
VERTEX
8
0
10
2.010000
20
1.024000
0
VERTEX
8
0
10
2.004000
20
1.032000
0
VERTEX
8
0
10
1.997000
20
1.038000
0
VERTEX
8
0
10
1.988000
20
1.042000
0
VERTEX
8
0
10
1.978000
20
1.045000
0
VERTEX
8
0
10
1.968000
20
1.046000
0
SEQEND
8
0
0
POLYLINE
8
0
66
1
40
0.008000
41
0.008000
0
VERTEX
8
0
10
2.018000
20
0.996000
0
VERTEX
8
0
10
2.017000
20
0.986000
0
VERTEX
8
0
10
2.014000
20
0.976000
0
VERTEX
8
0
10
2.010000
20
0.967000
0
VERTEX
8
0
10
2.004000
20
0.960000
0
VERTEX
8
0
10
1.997000
20
0.954000
0
VERTEX
8
0
10
1.988000
20
0.950000
0
VERTEX
8
0
10
1.978000
20
0.947000
0
VERTEX
8
0
10
1.968000
20
0.946000
0
SEQEND
8
0
0
POLYLINE
8
0
66
1
40
0.008000
41
0.008000
0
VERTEX
8
0
10
1.968000
20
1.046000
0
VERTEX
8
0
10
1.968000
20
1.096000
0
SEQEND
8
0
0
POLYLINE
8
0
66
1
40
0.008000
41
0.008000
0
VERTEX
8
0
10
2.268000
20
0.896000
0
VERTEX
8
0
10
2.268000
20
1.096000
0
SEQEND
8
0
0
POLYLINE
8
0
66
1
40
0.008000
41
0.008000
0
VERTEX
8
0
10
1.968000
20
0.896000
0
VERTEX
8
0
10
2.268000
20
0.896000
0
SEQEND
8
0
0
POLYLINE
8
0
66
1
40
0.008000
41
0.008000
0
VERTEX
8
0
10
1.968000
20
1.096000
0
VERTEX
8
0
10
2.268000
20
1.096000
0
SEQEND
8
0
0
TEXT
8
12632256
10
1.958000
20
0.946000
40
0.048000
41
1.041667
50
90.000000
1
U4
0
POLYLINE
8
0
66
1
40
0.008000
41
0.008000
0
VERTEX
8
0
10
2.493000
20
0.896000
0
VERTEX
8
0
10
2.493000
20
0.946000
0
SEQEND
8
0
0
POLYLINE
8
0
66
1
40
0.008000
41
0.008000
0
VERTEX
8
0
10
2.543000
20
0.996000
0
VERTEX
8
0
10
2.542000
20
1.006000
0
VERTEX
8
0
10
2.539000
20
1.016000
0
VERTEX
8
0
10
2.535000
20
1.024000
0
VERTEX
8
0
10
2.529000
20
1.032000
0
VERTEX
8
0
10
2.522000
20
1.038000
0
VERTEX
8
0
10
2.513000
20
1.042000
0
VERTEX
8
0
10
2.503000
20
1.045000
0
VERTEX
8
0
10
2.493000
20
1.046000
0
SEQEND
8
0
0
POLYLINE
8
0
66
1
40
0.008000
41
0.008000
0
VERTEX
8
0
10
2.543000
20
0.996000
0
VERTEX
8
0
10
2.542000
20
0.986000
0
VERTEX
8
0
10
2.539000
20
0.976000
0
VERTEX
8
0
10
2.535000
20
0.967000
0
VERTEX
8
0
10
2.529000
20
0.960000
0
VERTEX
8
0
10
2.522000
20
0.954000
0
VERTEX
8
0
10
2.513000
20
0.950000
0
VERTEX
8
0
10
2.503000
20
0.947000
0
VERTEX
8
0
10
2.493000
20
0.946000
0
SEQEND
8
0
0
POLYLINE
8
0
66
1
40
0.008000
41
0.008000
0
VERTEX
8
0
10
2.493000
20
1.046000
0
VERTEX
8
0
10
2.493000
20
1.096000
0
SEQEND
8
0
0
POLYLINE
8
0
66
1
40
0.008000
41
0.008000
0
VERTEX
8
0
10
2.793000
20
0.896000
0
VERTEX
8
0
10
2.793000
20
1.096000
0
SEQEND
8
0
0
POLYLINE
8
0
66
1
40
0.008000
41
0.008000
0
VERTEX
8
0
10
2.493000
20
0.896000
0
VERTEX
8
0
10
2.793000
20
0.896000
0
SEQEND
8
0
0
POLYLINE
8
0
66
1
40
0.008000
41
0.008000
0
VERTEX
8
0
10
2.493000
20
1.096000
0
VERTEX
8
0
10
2.793000
20
1.096000
0
SEQEND
8
0
0
TEXT
8
12632256
10
2.483000
20
0.946000
40
0.048000
41
1.041667
50
90.000000
1
U5
0
POLYLINE
8
0
66
1
40
0.008000
41
0.008000
0
VERTEX
8
0
10
1.412000
20
0.896000
0
VERTEX
8
0
10
1.412000
20
0.946000
0
SEQEND
8
0
0
POLYLINE
8
0
66
1
40
0.008000
41
0.008000
0
VERTEX
8
0
10
1.462000
20
0.996000
0
VERTEX
8
0
10
1.461000
20
1.006000
0
VERTEX
8
0
10
1.458000
20
1.016000
0
VERTEX
8
0
10
1.454000
20
1.024000
0
VERTEX
8
0
10
1.448000
20
1.032000
0
VERTEX
8
0
10
1.441000
20
1.038000
0
VERTEX
8
0
10
1.432000
20
1.042000
0
VERTEX
8
0
10
1.422000
20
1.045000
0
VERTEX
8
0
10
1.412000
20
1.046000
0
SEQEND
8
0
0
POLYLINE
8
0
66
1
40
0.008000
41
0.008000
0
VERTEX
8
0
10
1.462000
20
0.996000
0
VERTEX
8
0
10
1.461000
20
0.986000
0
VERTEX
8
0
10
1.458000
20
0.976000
0
VERTEX
8
0
10
1.454000
20
0.967000
0
VERTEX
8
0
10
1.448000
20
0.960000
0
VERTEX
8
0
10
1.441000
20
0.954000
0
VERTEX
8
0
10
1.432000
20
0.950000
0
VERTEX
8
0
10
1.422000
20
0.947000
0
VERTEX
8
0
10
1.412000
20
0.946000
0
SEQEND
8
0
0
POLYLINE
8
0
66
1
40
0.008000
41
0.008000
0
VERTEX
8
0
10
1.412000
20
1.046000
0
VERTEX
8
0
10
1.412000
20
1.096000
0
SEQEND
8
0
0
POLYLINE
8
0
66
1
40
0.008000
41
0.008000
0
VERTEX
8
0
10
1.712000
20
0.896000
0
VERTEX
8
0
10
1.712000
20
1.096000
0
SEQEND
8
0
0
POLYLINE
8
0
66
1
40
0.008000
41
0.008000
0
VERTEX
8
0
10
1.412000
20
0.896000
0
VERTEX
8
0
10
1.712000
20
0.896000
0
SEQEND
8
0
0
POLYLINE
8
0
66
1
40
0.008000
41
0.008000
0
VERTEX
8
0
10
1.412000
20
1.096000
0
VERTEX
8
0
10
1.712000
20
1.096000
0
SEQEND
8
0
0
TEXT
8
12632256
10
1.402000
20
0.946000
40
0.048000
41
1.041667
50
90.000000
1
U8
0
POLYLINE
8
0
66
1
40
0.008000
41
0.008000
0
VERTEX
8
0
10
0.825000
20
0.896000
0
VERTEX
8
0
10
0.825000
20
0.946000
0
SEQEND
8
0
0
POLYLINE
8
0
66
1
40
0.008000
41
0.008000
0
VERTEX
8
0
10
0.875000
20
0.996000
0
VERTEX
8
0
10
0.874000
20
1.006000
0
VERTEX
8
0
10
0.871000
20
1.016000
0
VERTEX
8
0
10
0.867000
20
1.024000
0
VERTEX
8
0
10
0.861000
20
1.032000
0
VERTEX
8
0
10
0.854000
20
1.038000
0
VERTEX
8
0
10
0.845000
20
1.042000
0
VERTEX
8
0
10
0.835000
20
1.045000
0
VERTEX
8
0
10
0.825000
20
1.046000
0
SEQEND
8
0
0
POLYLINE
8
0
66
1
40
0.008000
41
0.008000
0
VERTEX
8
0
10
0.875000
20
0.996000
0
VERTEX
8
0
10
0.874000
20
0.986000
0
VERTEX
8
0
10
0.871000
20
0.976000
0
VERTEX
8
0
10
0.867000
20
0.967000
0
VERTEX
8
0
10
0.861000
20
0.960000
0
VERTEX
8
0
10
0.854000
20
0.954000
0
VERTEX
8
0
10
0.845000
20
0.950000
0
VERTEX
8
0
10
0.835000
20
0.947000
0
VERTEX
8
0
10
0.825000
20
0.946000
0
SEQEND
8
0
0
POLYLINE
8
0
66
1
40
0.008000
41
0.008000
0
VERTEX
8
0
10
0.825000
20
1.046000
0
VERTEX
8
0
10
0.825000
20
1.096000
0
SEQEND
8
0
0
POLYLINE
8
0
66
1
40
0.008000
41
0.008000
0
VERTEX
8
0
10
1.125000
20
0.896000
0
VERTEX
8
0
10
1.125000
20
1.096000
0
SEQEND
8
0
0
POLYLINE
8
0
66
1
40
0.008000
41
0.008000
0
VERTEX
8
0
10
0.825000
20
0.896000
0
VERTEX
8
0
10
1.125000
20
0.896000
0
SEQEND
8
0
0
POLYLINE
8
0
66
1
40
0.008000
41
0.008000
0
VERTEX
8
0
10
0.825000
20
1.096000
0
VERTEX
8
0
10
1.125000
20
1.096000
0
SEQEND
8
0
0
TEXT
8
12632256
10
0.815000
20
0.921000
40
0.048000
41
1.041667
50
90.000000
1
U10
0
POLYLINE
8
0
66
1
40
0.008000
41
0.008000
0
VERTEX
8
0
10
0.272000
20
0.896000
0
VERTEX
8
0
10
0.272000
20
0.946000
0
SEQEND
8
0
0
POLYLINE
8
0
66
1
40
0.008000
41
0.008000
0
VERTEX
8
0
10
0.322000
20
0.996000
0
VERTEX
8
0
10
0.321000
20
1.006000
0
VERTEX
8
0
10
0.318000
20
1.016000
0
VERTEX
8
0
10
0.314000
20
1.024000
0
VERTEX
8
0
10
0.308000
20
1.032000
0
VERTEX
8
0
10
0.301000
20
1.038000
0
VERTEX
8
0
10
0.292000
20
1.042000
0
VERTEX
8
0
10
0.282000
20
1.045000
0
VERTEX
8
0
10
0.272000
20
1.046000
0
SEQEND
8
0
0
POLYLINE
8
0
66
1
40
0.008000
41
0.008000
0
VERTEX
8
0
10
0.322000
20
0.996000
0
VERTEX
8
0
10
0.321000
20
0.986000
0
VERTEX
8
0
10
0.318000
20
0.976000
0
VERTEX
8
0
10
0.314000
20
0.967000
0
VERTEX
8
0
10
0.308000
20
0.960000
0
VERTEX
8
0
10
0.301000
20
0.954000
0
VERTEX
8
0
10
0.292000
20
0.950000
0
VERTEX
8
0
10
0.282000
20
0.947000
0
VERTEX
8
0
10
0.272000
20
0.946000
0
SEQEND
8
0
0
POLYLINE
8
0
66
1
40
0.008000
41
0.008000
0
VERTEX
8
0
10
0.272000
20
1.046000
0
VERTEX
8
0
10
0.272000
20
1.096000
0
SEQEND
8
0
0
POLYLINE
8
0
66
1
40
0.008000
41
0.008000
0
VERTEX
8
0
10
0.572000
20
0.896000
0
VERTEX
8
0
10
0.572000
20
1.096000
0
SEQEND
8
0
0
POLYLINE
8
0
66
1
40
0.008000
41
0.008000
0
VERTEX
8
0
10
0.272000
20
0.896000
0
VERTEX
8
0
10
0.572000
20
0.896000
0
SEQEND
8
0
0
POLYLINE
8
0
66
1
40
0.008000
41
0.008000
0
VERTEX
8
0
10
0.272000
20
1.096000
0
VERTEX
8
0
10
0.572000
20
1.096000
0
SEQEND
8
0
0
TEXT
8
12632256
10
0.262000
20
0.921000
40
0.048000
41
1.041667
50
90.000000
1
U13
0
POLYLINE
8
0
66
1
40
0.008000
41
0.008000
0
VERTEX
8
0
10
-0.314000
20
0.896000
0
VERTEX
8
0
10
-0.314000
20
0.946000
0
SEQEND
8
0
0
POLYLINE
8
0
66
1
40
0.008000
41
0.008000
0
VERTEX
8
0
10
-0.264000
20
0.996000
0
VERTEX
8
0
10
-0.265000
20
1.006000
0
VERTEX
8
0
10
-0.268000
20
1.016000
0
VERTEX
8
0
10
-0.272000
20
1.024000
0
VERTEX
8
0
10
-0.278000
20
1.032000
0
VERTEX
8
0
10
-0.285000
20
1.038000
0
VERTEX
8
0
10
-0.294000
20
1.042000
0
VERTEX
8
0
10
-0.304000
20
1.045000
0
VERTEX
8
0
10
-0.314000
20
1.046000
0
SEQEND
8
0
0
POLYLINE
8
0
66
1
40
0.008000
41
0.008000
0
VERTEX
8
0
10
-0.264000
20
0.996000
0
VERTEX
8
0
10
-0.265000
20
0.986000
0
VERTEX
8
0
10
-0.268000
20
0.976000
0
VERTEX
8
0
10
-0.272000
20
0.967000
0
VERTEX
8
0
10
-0.278000
20
0.960000
0
VERTEX
8
0
10
-0.285000
20
0.954000
0
VERTEX
8
0
10
-0.294000
20
0.950000
0
VERTEX
8
0
10
-0.304000
20
0.947000
0
VERTEX
8
0
10
-0.314000
20
0.946000
0
SEQEND
8
0
0
POLYLINE
8
0
66
1
40
0.008000
41
0.008000
0
VERTEX
8
0
10
-0.314000
20
1.046000
0
VERTEX
8
0
10
-0.314000
20
1.096000
0
SEQEND
8
0
0
POLYLINE
8
0
66
1
40
0.008000
41
0.008000
0
VERTEX
8
0
10
-0.014000
20
0.896000
0
VERTEX
8
0
10
-0.014000
20
1.096000
0
SEQEND
8
0
0
POLYLINE
8
0
66
1
40
0.008000
41
0.008000
0
VERTEX
8
0
10
-0.314000
20
0.896000
0
VERTEX
8
0
10
-0.014000
20
0.896000
0
SEQEND
8
0
0
POLYLINE
8
0
66
1
40
0.008000
41
0.008000
0
VERTEX
8
0
10
-0.314000
20
1.096000
0
VERTEX
8
0
10
-0.014000
20
1.096000
0
SEQEND
8
0
0
TEXT
8
12632256
10
-0.324000
20
0.921000
40
0.048000
41
1.041667
50
90.000000
1
U15
0
POLYLINE
8
0
66
1
40
0.008000
41
0.008000
0
VERTEX
8
0
10
-0.936000
20
0.896000
0
VERTEX
8
0
10
-0.936000
20
0.946000
0
SEQEND
8
0
0
POLYLINE
8
0
66
1
40
0.008000
41
0.008000
0
VERTEX
8
0
10
-0.886000
20
0.996000
0
VERTEX
8
0
10
-0.887000
20
1.006000
0
VERTEX
8
0
10
-0.890000
20
1.016000
0
VERTEX
8
0
10
-0.894000
20
1.024000
0
VERTEX
8
0
10
-0.900000
20
1.032000
0
VERTEX
8
0
10
-0.907000
20
1.038000
0
VERTEX
8
0
10
-0.916000
20
1.042000
0
VERTEX
8
0
10
-0.926000
20
1.045000
0
VERTEX
8
0
10
-0.936000
20
1.046000
0
SEQEND
8
0
0
POLYLINE
8
0
66
1
40
0.008000
41
0.008000
0
VERTEX
8
0
10
-0.886000
20
0.996000
0
VERTEX
8
0
10
-0.887000
20
0.986000
0
VERTEX
8
0
10
-0.890000
20
0.976000
0
VERTEX
8
0
10
-0.894000
20
0.967000
0
VERTEX
8
0
10
-0.900000
20
0.960000
0
VERTEX
8
0
10
-0.907000
20
0.954000
0
VERTEX
8
0
10
-0.916000
20
0.950000
0
VERTEX
8
0
10
-0.926000
20
0.947000
0
VERTEX
8
0
10
-0.936000
20
0.946000
0
SEQEND
8
0
0
POLYLINE
8
0
66
1
40
0.008000
41
0.008000
0
VERTEX
8
0
10
-0.936000
20
1.046000
0
VERTEX
8
0
10
-0.936000
20
1.096000
0
SEQEND
8
0
0
POLYLINE
8
0
66
1
40
0.008000
41
0.008000
0
VERTEX
8
0
10
-0.636000
20
0.896000
0
VERTEX
8
0
10
-0.636000
20
1.096000
0
SEQEND
8
0
0
POLYLINE
8
0
66
1
40
0.008000
41
0.008000
0
VERTEX
8
0
10
-0.936000
20
0.896000
0
VERTEX
8
0
10
-0.636000
20
0.896000
0
SEQEND
8
0
0
POLYLINE
8
0
66
1
40
0.008000
41
0.008000
0
VERTEX
8
0
10
-0.936000
20
1.096000
0
VERTEX
8
0
10
-0.636000
20
1.096000
0
SEQEND
8
0
0
TEXT
8
12632256
10
-0.946000
20
0.921000
40
0.048000
41
1.041667
50
90.000000
1
U17
0
POLYLINE
8
0
66
1
40
0.008000
41
0.008000
0
VERTEX
8
0
10
2.493000
20
1.625000
0
VERTEX
8
0
10
2.793000
20
1.625000
0
VERTEX
8
0
10
2.793000
20
1.725000
0
VERTEX
8
0
10
2.493000
20
1.725000
0
VERTEX
8
0
10
2.493000
20
1.625000
0
SEQEND
8
0
0
POLYLINE
8
0
66
1
40
0.008000
41
0.008000
0
VERTEX
8
0
10
2.793000
20
1.625000
0
VERTEX
8
0
10
2.793000
20
1.575000
0
VERTEX
8
0
10
2.493000
20
1.575000
0
VERTEX
8
0
10
2.493000
20
1.625000
0
SEQEND
8
0
0
POLYLINE
8
0
66
1
40
0.008000
41
0.008000
0
VERTEX
8
0
10
2.793000
20
1.625000
0
VERTEX
8
0
10
2.743000
20
1.575000
0
SEQEND
8
0
0
POLYLINE
8
0
66
1
40
0.008000
41
0.008000
0
VERTEX
8
0
10
2.743000
20
1.625000
0
VERTEX
8
0
10
2.693000
20
1.575000
0
SEQEND
8
0
0
POLYLINE
8
0
66
1
40
0.008000
41
0.008000
0
VERTEX
8
0
10
2.693000
20
1.625000
0
VERTEX
8
0
10
2.643000
20
1.575000
0
SEQEND
8
0
0
POLYLINE
8
0
66
1
40
0.008000
41
0.008000
0
VERTEX
8
0
10
2.643000
20
1.625000
0
VERTEX
8
0
10
2.593000
20
1.575000
0
SEQEND
8
0
0
POLYLINE
8
0
66
1
40
0.008000
41
0.008000
0
VERTEX
8
0
10
2.593000
20
1.625000
0
VERTEX
8
0
10
2.543000
20
1.575000
0
SEQEND
8
0
0
POLYLINE
8
0
66
1
40
0.008000
41
0.008000
0
VERTEX
8
0
10
2.543000
20
1.625000
0
VERTEX
8
0
10
2.493000
20
1.575000
0
SEQEND
8
0
0
TEXT
8
12632256
10
2.593000
20
1.517000
40
0.048000
41
1.041667
1
U6
0
POLYLINE
8
0
66
1
40
0.008000
41
0.008000
0
VERTEX
8
0
10
1.968000
20
1.625000
0
VERTEX
8
0
10
2.268000
20
1.625000
0
VERTEX
8
0
10
2.268000
20
1.725000
0
VERTEX
8
0
10
1.968000
20
1.725000
0
VERTEX
8
0
10
1.968000
20
1.625000
0
SEQEND
8
0
0
POLYLINE
8
0
66
1
40
0.008000
41
0.008000
0
VERTEX
8
0
10
2.268000
20
1.625000
0
VERTEX
8
0
10
2.268000
20
1.575000
0
VERTEX
8
0
10
1.968000
20
1.575000
0
VERTEX
8
0
10
1.968000
20
1.625000
0
SEQEND
8
0
0
POLYLINE
8
0
66
1
40
0.008000
41
0.008000
0
VERTEX
8
0
10
2.268000
20
1.625000
0
VERTEX
8
0
10
2.218000
20
1.575000
0
SEQEND
8
0
0
POLYLINE
8
0
66
1
40
0.008000
41
0.008000
0
VERTEX
8
0
10
2.218000
20
1.625000
0
VERTEX
8
0
10
2.168000
20
1.575000
0
SEQEND
8
0
0
POLYLINE
8
0
66
1
40
0.008000
41
0.008000
0
VERTEX
8
0
10
2.168000
20
1.625000
0
VERTEX
8
0
10
2.118000
20
1.575000
0
SEQEND
8
0
0
POLYLINE
8
0
66
1
40
0.008000
41
0.008000
0
VERTEX
8
0
10
2.118000
20
1.625000
0
VERTEX
8
0
10
2.068000
20
1.575000
0
SEQEND
8
0
0
POLYLINE
8
0
66
1
40
0.008000
41
0.008000
0
VERTEX
8
0
10
2.068000
20
1.625000
0
VERTEX
8
0
10
2.018000
20
1.575000
0
SEQEND
8
0
0
POLYLINE
8
0
66
1
40
0.008000
41
0.008000
0
VERTEX
8
0
10
2.018000
20
1.625000
0
VERTEX
8
0
10
1.968000
20
1.575000
0
SEQEND
8
0
0
TEXT
8
12632256
10
2.068000
20
1.517000
40
0.048000
41
1.041667
1
U7
0
POLYLINE
8
0
66
1
40
0.008000
41
0.008000
0
VERTEX
8
0
10
1.412000
20
1.625000
0
VERTEX
8
0
10
1.712000
20
1.625000
0
VERTEX
8
0
10
1.712000
20
1.725000
0
VERTEX
8
0
10
1.412000
20
1.725000
0
VERTEX
8
0
10
1.412000
20
1.625000
0
SEQEND
8
0
0
POLYLINE
8
0
66
1
40
0.008000
41
0.008000
0
VERTEX
8
0
10
1.712000
20
1.625000
0
VERTEX
8
0
10
1.712000
20
1.575000
0
VERTEX
8
0
10
1.412000
20
1.575000
0
VERTEX
8
0
10
1.412000
20
1.625000
0
SEQEND
8
0
0
POLYLINE
8
0
66
1
40
0.008000
41
0.008000
0
VERTEX
8
0
10
1.712000
20
1.625000
0
VERTEX
8
0
10
1.662000
20
1.575000
0
SEQEND
8
0
0
POLYLINE
8
0
66
1
40
0.008000
41
0.008000
0
VERTEX
8
0
10
1.662000
20
1.625000
0
VERTEX
8
0
10
1.612000
20
1.575000
0
SEQEND
8
0
0
POLYLINE
8
0
66
1
40
0.008000
41
0.008000
0
VERTEX
8
0
10
1.612000
20
1.625000
0
VERTEX
8
0
10
1.562000
20
1.575000
0
SEQEND
8
0
0
POLYLINE
8
0
66
1
40
0.008000
41
0.008000
0
VERTEX
8
0
10
1.562000
20
1.625000
0
VERTEX
8
0
10
1.512000
20
1.575000
0
SEQEND
8
0
0
POLYLINE
8
0
66
1
40
0.008000
41
0.008000
0
VERTEX
8
0
10
1.512000
20
1.625000
0
VERTEX
8
0
10
1.462000
20
1.575000
0
SEQEND
8
0
0
POLYLINE
8
0
66
1
40
0.008000
41
0.008000
0
VERTEX
8
0
10
1.462000
20
1.625000
0
VERTEX
8
0
10
1.412000
20
1.575000
0
SEQEND
8
0
0
TEXT
8
12632256
10
1.512000
20
1.517000
40
0.048000
41
1.041667
1
U9
0
POLYLINE
8
0
66
1
40
0.008000
41
0.008000
0
VERTEX
8
0
10
0.825000
20
1.625000
0
VERTEX
8
0
10
1.125000
20
1.625000
0
VERTEX
8
0
10
1.125000
20
1.725000
0
VERTEX
8
0
10
0.825000
20
1.725000
0
VERTEX
8
0
10
0.825000
20
1.625000
0
SEQEND
8
0
0
POLYLINE
8
0
66
1
40
0.008000
41
0.008000
0
VERTEX
8
0
10
1.125000
20
1.625000
0
VERTEX
8
0
10
1.125000
20
1.575000
0
VERTEX
8
0
10
0.825000
20
1.575000
0
VERTEX
8
0
10
0.825000
20
1.625000
0
SEQEND
8
0
0
POLYLINE
8
0
66
1
40
0.008000
41
0.008000
0
VERTEX
8
0
10
1.125000
20
1.625000
0
VERTEX
8
0
10
1.075000
20
1.575000
0
SEQEND
8
0
0
POLYLINE
8
0
66
1
40
0.008000
41
0.008000
0
VERTEX
8
0
10
1.075000
20
1.625000
0
VERTEX
8
0
10
1.025000
20
1.575000
0
SEQEND
8
0
0
POLYLINE
8
0
66
1
40
0.008000
41
0.008000
0
VERTEX
8
0
10
1.025000
20
1.625000
0
VERTEX
8
0
10
0.975000
20
1.575000
0
SEQEND
8
0
0
POLYLINE
8
0
66
1
40
0.008000
41
0.008000
0
VERTEX
8
0
10
0.975000
20
1.625000
0
VERTEX
8
0
10
0.925000
20
1.575000
0
SEQEND
8
0
0
POLYLINE
8
0
66
1
40
0.008000
41
0.008000
0
VERTEX
8
0
10
0.925000
20
1.625000
0
VERTEX
8
0
10
0.875000
20
1.575000
0
SEQEND
8
0
0
POLYLINE
8
0
66
1
40
0.008000
41
0.008000
0
VERTEX
8
0
10
0.875000
20
1.625000
0
VERTEX
8
0
10
0.825000
20
1.575000
0
SEQEND
8
0
0
TEXT
8
12632256
10
0.900000
20
1.517000
40
0.048000
41
1.041667
1
U11
0
POLYLINE
8
0
66
1
40
0.008000
41
0.008000
0
VERTEX
8
0
10
0.272000
20
1.625000
0
VERTEX
8
0
10
0.572000
20
1.625000
0
VERTEX
8
0
10
0.572000
20
1.725000
0
VERTEX
8
0
10
0.272000
20
1.725000
0
VERTEX
8
0
10
0.272000
20
1.625000
0
SEQEND
8
0
0
POLYLINE
8
0
66
1
40
0.008000
41
0.008000
0
VERTEX
8
0
10
0.572000
20
1.625000
0
VERTEX
8
0
10
0.572000
20
1.575000
0
VERTEX
8
0
10
0.272000
20
1.575000
0
VERTEX
8
0
10
0.272000
20
1.625000
0
SEQEND
8
0
0
POLYLINE
8
0
66
1
40
0.008000
41
0.008000
0
VERTEX
8
0
10
0.572000
20
1.625000
0
VERTEX
8
0
10
0.522000
20
1.575000
0
SEQEND
8
0
0
POLYLINE
8
0
66
1
40
0.008000
41
0.008000
0
VERTEX
8
0
10
0.522000
20
1.625000
0
VERTEX
8
0
10
0.472000
20
1.575000
0
SEQEND
8
0
0
POLYLINE
8
0
66
1
40
0.008000
41
0.008000
0
VERTEX
8
0
10
0.472000
20
1.625000
0
VERTEX
8
0
10
0.422000
20
1.575000
0
SEQEND
8
0
0
POLYLINE
8
0
66
1
40
0.008000
41
0.008000
0
VERTEX
8
0
10
0.422000
20
1.625000
0
VERTEX
8
0
10
0.372000
20
1.575000
0
SEQEND
8
0
0
POLYLINE
8
0
66
1
40
0.008000
41
0.008000
0
VERTEX
8
0
10
0.372000
20
1.625000
0
VERTEX
8
0
10
0.322000
20
1.575000
0
SEQEND
8
0
0
POLYLINE
8
0
66
1
40
0.008000
41
0.008000
0
VERTEX
8
0
10
0.322000
20
1.625000
0
VERTEX
8
0
10
0.272000
20
1.575000
0
SEQEND
8
0
0
TEXT
8
12632256
10
0.347000
20
1.517000
40
0.048000
41
1.041667
1
U14
0
POLYLINE
8
0
66
1
40
0.008000
41
0.008000
0
VERTEX
8
0
10
-0.314000
20
1.625000
0
VERTEX
8
0
10
-0.014000
20
1.625000
0
VERTEX
8
0
10
-0.014000
20
1.725000
0
VERTEX
8
0
10
-0.314000
20
1.725000
0
VERTEX
8
0
10
-0.314000
20
1.625000
0
SEQEND
8
0
0
POLYLINE
8
0
66
1
40
0.008000
41
0.008000
0
VERTEX
8
0
10
-0.014000
20
1.625000
0
VERTEX
8
0
10
-0.014000
20
1.575000
0
VERTEX
8
0
10
-0.314000
20
1.575000
0
VERTEX
8
0
10
-0.314000
20
1.625000
0
SEQEND
8
0
0
POLYLINE
8
0
66
1
40
0.008000
41
0.008000
0
VERTEX
8
0
10
-0.014000
20
1.625000
0
VERTEX
8
0
10
-0.064000
20
1.575000
0
SEQEND
8
0
0
POLYLINE
8
0
66
1
40
0.008000
41
0.008000
0
VERTEX
8
0
10
-0.064000
20
1.625000
0
VERTEX
8
0
10
-0.114000
20
1.575000
0
SEQEND
8
0
0
POLYLINE
8
0
66
1
40
0.008000
41
0.008000
0
VERTEX
8
0
10
-0.114000
20
1.625000
0
VERTEX
8
0
10
-0.164000
20
1.575000
0
SEQEND
8
0
0
POLYLINE
8
0
66
1
40
0.008000
41
0.008000
0
VERTEX
8
0
10
-0.164000
20
1.625000
0
VERTEX
8
0
10
-0.214000
20
1.575000
0
SEQEND
8
0
0
POLYLINE
8
0
66
1
40
0.008000
41
0.008000
0
VERTEX
8
0
10
-0.214000
20
1.625000
0
VERTEX
8
0
10
-0.264000
20
1.575000
0
SEQEND
8
0
0
POLYLINE
8
0
66
1
40
0.008000
41
0.008000
0
VERTEX
8
0
10
-0.264000
20
1.625000
0
VERTEX
8
0
10
-0.314000
20
1.575000
0
SEQEND
8
0
0
TEXT
8
12632256
10
-0.239000
20
1.517000
40
0.048000
41
1.041667
1
U16
0
POLYLINE
8
0
66
1
40
0.008000
41
0.008000
0
VERTEX
8
0
10
-0.936000
20
1.625000
0
VERTEX
8
0
10
-0.636000
20
1.625000
0
VERTEX
8
0
10
-0.636000
20
1.725000
0
VERTEX
8
0
10
-0.936000
20
1.725000
0
VERTEX
8
0
10
-0.936000
20
1.625000
0
SEQEND
8
0
0
POLYLINE
8
0
66
1
40
0.008000
41
0.008000
0
VERTEX
8
0
10
-0.636000
20
1.625000
0
VERTEX
8
0
10
-0.636000
20
1.575000
0
VERTEX
8
0
10
-0.936000
20
1.575000
0
VERTEX
8
0
10
-0.936000
20
1.625000
0
SEQEND
8
0
0
POLYLINE
8
0
66
1
40
0.008000
41
0.008000
0
VERTEX
8
0
10
-0.636000
20
1.625000
0
VERTEX
8
0
10
-0.686000
20
1.575000
0
SEQEND
8
0
0
POLYLINE
8
0
66
1
40
0.008000
41
0.008000
0
VERTEX
8
0
10
-0.686000
20
1.625000
0
VERTEX
8
0
10
-0.736000
20
1.575000
0
SEQEND
8
0
0
POLYLINE
8
0
66
1
40
0.008000
41
0.008000
0
VERTEX
8
0
10
-0.736000
20
1.625000
0
VERTEX
8
0
10
-0.786000
20
1.575000
0
SEQEND
8
0
0
POLYLINE
8
0
66
1
40
0.008000
41
0.008000
0
VERTEX
8
0
10
-0.786000
20
1.625000
0
VERTEX
8
0
10
-0.836000
20
1.575000
0
SEQEND
8
0
0
POLYLINE
8
0
66
1
40
0.008000
41
0.008000
0
VERTEX
8
0
10
-0.836000
20
1.625000
0
VERTEX
8
0
10
-0.886000
20
1.575000
0
SEQEND
8
0
0
POLYLINE
8
0
66
1
40
0.008000
41
0.008000
0
VERTEX
8
0
10
-0.886000
20
1.625000
0
VERTEX
8
0
10
-0.936000
20
1.575000
0
SEQEND
8
0
0
TEXT
8
12632256
10
-0.861000
20
1.517000
40
0.048000
41
1.041667
1
U18
0
POLYLINE
8
0
66
1
40
0.008000
41
0.008000
0
VERTEX
8
0
10
1.603000
20
-0.333000
0
VERTEX
8
0
10
1.903000
20
-0.333000
0
VERTEX
8
0
10
1.953000
20
-0.383000
0
VERTEX
8
0
10
1.953000
20
-0.483000
0
VERTEX
8
0
10
1.903000
20
-0.533000
0
VERTEX
8
0
10
1.603000
20
-0.533000
0
VERTEX
8
0
10
1.553000
20
-0.483000
0
VERTEX
8
0
10
1.553000
20
-0.383000
0
VERTEX
8
0
10
1.603000
20
-0.333000
0
SEQEND
8
0
0
TEXT
8
12632256
10
1.703000
20
-0.323000
40
0.048000
41
1.041667
1
X2
0
POLYLINE
8
0
66
1
40
0.008000
41
0.008000
0
VERTEX
8
0
10
1.703000
20
-0.731000
0
VERTEX
8
0
10
1.713000
20
-0.734000
0
VERTEX
8
0
10
1.723000
20
-0.742000
0
VERTEX
8
0
10
1.731000
20
-0.756000
0
VERTEX
8
0
10
1.738000
20
-0.774000
0
VERTEX
8
0
10
1.744000
20
-0.796000
0
VERTEX
8
0
10
1.749000
20
-0.822000
0
VERTEX
8
0
10
1.752000
20
-0.850000
0
VERTEX
8
0
10
1.753000
20
-0.881000
0
SEQEND
8
0
0
POLYLINE
8
0
66
1
40
0.008000
41
0.008000
0
VERTEX
8
0
10
1.703000
20
-1.031000
0
VERTEX
8
0
10
1.708000
20
-1.030000
0
VERTEX
8
0
10
1.713000
20
-1.028000
0
VERTEX
8
0
10
1.723000
20
-1.019000
0
VERTEX
8
0
10
1.731000
20
-1.006000
0
VERTEX
8
0
10
1.738000
20
-0.988000
0
VERTEX
8
0
10
1.744000
20
-0.965000
0
VERTEX
8
0
10
1.749000
20
-0.940000
0
VERTEX
8
0
10
1.752000
20
-0.912000
0
VERTEX
8
0
10
1.753000
20
-0.881000
0
SEQEND
8
0
0
POLYLINE
8
0
66
1
40
0.008000
41
0.008000
0
VERTEX
8
0
10
1.703000
20
-1.031000
0
VERTEX
8
0
10
1.698000
20
-1.030000
0
VERTEX
8
0
10
1.693000
20
-1.028000
0
VERTEX
8
0
10
1.683000
20
-1.019000
0
VERTEX
8
0
10
1.675000
20
-1.006000
0
VERTEX
8
0
10
1.668000
20
-0.988000
0
VERTEX
8
0
10
1.662000
20
-0.965000
0
VERTEX
8
0
10
1.657000
20
-0.940000
0
VERTEX
8
0
10
1.654000
20
-0.912000
0
VERTEX
8
0
10
1.653000
20
-0.881000
0
SEQEND
8
0
0
POLYLINE
8
0
66
1
40
0.008000
41
0.008000
0
VERTEX
8
0
10
1.703000
20
-0.731000
0
VERTEX
8
0
10
1.693000
20
-0.734000
0
VERTEX
8
0
10
1.683000
20
-0.742000
0
VERTEX
8
0
10
1.675000
20
-0.756000
0
VERTEX
8
0
10
1.668000
20
-0.774000
0
VERTEX
8
0
10
1.662000
20
-0.796000
0
VERTEX
8
0
10
1.657000
20
-0.822000
0
VERTEX
8
0
10
1.654000
20
-0.850000
0
VERTEX
8
0
10
1.653000
20
-0.881000
0
SEQEND
8
0
0
TEXT
8
12632256
10
1.811000
20
-0.906000
40
0.048000
41
1.041667
50
90.000000
1
C25
0
POLYLINE
8
0
66
1
40
0.008000
41
0.008000
0
VERTEX
8
0
10
1.863000
20
-0.731000
0
VERTEX
8
0
10
1.873000
20
-0.734000
0
VERTEX
8
0
10
1.883000
20
-0.742000
0
VERTEX
8
0
10
1.891000
20
-0.756000
0
VERTEX
8
0
10
1.898000
20
-0.774000
0
VERTEX
8
0
10
1.904000
20
-0.796000
0
VERTEX
8
0
10
1.909000
20
-0.822000
0
VERTEX
8
0
10
1.912000
20
-0.850000
0
VERTEX
8
0
10
1.913000
20
-0.881000
0
SEQEND
8
0
0
POLYLINE
8
0
66
1
40
0.008000
41
0.008000
0
VERTEX
8
0
10
1.863000
20
-1.031000
0
VERTEX
8
0
10
1.868000
20
-1.030000
0
VERTEX
8
0
10
1.873000
20
-1.028000
0
VERTEX
8
0
10
1.883000
20
-1.019000
0
VERTEX
8
0
10
1.891000
20
-1.006000
0
VERTEX
8
0
10
1.898000
20
-0.988000
0
VERTEX
8
0
10
1.904000
20
-0.965000
0
VERTEX
8
0
10
1.909000
20
-0.940000
0
VERTEX
8
0
10
1.912000
20
-0.912000
0
VERTEX
8
0
10
1.913000
20
-0.881000
0
SEQEND
8
0
0
POLYLINE
8
0
66
1
40
0.008000
41
0.008000
0
VERTEX
8
0
10
1.863000
20
-1.031000
0
VERTEX
8
0
10
1.858000
20
-1.030000
0
VERTEX
8
0
10
1.853000
20
-1.028000
0
VERTEX
8
0
10
1.843000
20
-1.019000
0
VERTEX
8
0
10
1.835000
20
-1.006000
0
VERTEX
8
0
10
1.828000
20
-0.988000
0
VERTEX
8
0
10
1.822000
20
-0.965000
0
VERTEX
8
0
10
1.817000
20
-0.940000
0
VERTEX
8
0
10
1.814000
20
-0.912000
0
VERTEX
8
0
10
1.813000
20
-0.881000
0
SEQEND
8
0
0
POLYLINE
8
0
66
1
40
0.008000
41
0.008000
0
VERTEX
8
0
10
1.863000
20
-0.731000
0
VERTEX
8
0
10
1.853000
20
-0.734000
0
VERTEX
8
0
10
1.843000
20
-0.742000
0
VERTEX
8
0
10
1.835000
20
-0.756000
0
VERTEX
8
0
10
1.828000
20
-0.774000
0
VERTEX
8
0
10
1.822000
20
-0.796000
0
VERTEX
8
0
10
1.817000
20
-0.822000
0
VERTEX
8
0
10
1.814000
20
-0.850000
0
VERTEX
8
0
10
1.813000
20
-0.881000
0
SEQEND
8
0
0
TEXT
8
12632256
10
1.971000
20
-0.906000
40
0.048000
41
1.041667
50
90.000000
1
C26
0
POLYLINE
8
0
66
1
40
0.008000
41
0.008000
0
VERTEX
8
0
10
3.564000
20
0.887000
0
VERTEX
8
0
10
3.164000
20
0.887000
0
SEQEND
8
0
0
POLYLINE
8
0
66
1
40
0.008000
41
0.008000
0
VERTEX
8
0
10
3.564000
20
0.487000
0
VERTEX
8
0
10
3.164000
20
0.487000
0
SEQEND
8
0
0
POLYLINE
8
0
66
1
40
0.008000
41
0.008000
0
VERTEX
8
0
10
3.164000
20
0.887000
0
VERTEX
8
0
10
3.164000
20
0.487000
0
SEQEND
8
0
0
POLYLINE
8
0
66
1
40
0.008000
41
0.008000
0
VERTEX
8
0
10
3.564000
20
0.887000
0
VERTEX
8
0
10
3.564000
20
0.487000
0
SEQEND
8
0
0
TEXT
8
12632256
10
3.622000
20
0.612000
40
0.048000
41
1.041667
50
90.000000
1
SSR
0
POLYLINE
8
0
66
1
40
0.008000
41
0.008000
0
VERTEX
8
0
10
3.149000
20
0.941000
0
VERTEX
8
0
10
3.549000
20
0.941000
0
SEQEND
8
0
0
POLYLINE
8
0
66
1
40
0.008000
41
0.008000
0
VERTEX
8
0
10
3.149000
20
1.541000
0
VERTEX
8
0
10
3.549000
20
1.541000
0
SEQEND
8
0
0
POLYLINE
8
0
66
1
40
0.008000
41
0.008000
0
VERTEX
8
0
10
3.549000
20
0.941000
0
VERTEX
8
0
10
3.549000
20
1.541000
0
SEQEND
8
0
0
POLYLINE
8
0
66
1
40
0.008000
41
0.008000
0
VERTEX
8
0
10
3.149000
20
1.541000
0
VERTEX
8
0
10
3.149000
20
0.941000
0
SEQEND
8
0
0
TEXT
8
12632256
10
3.612000
20
1.146000
40
0.048000
41
1.041667
50
90.000000
1
J22
0
POLYLINE
8
0
66
1
40
0.008000
41
0.008000
0
VERTEX
8
0
10
2.733000
20
2.296000
0
VERTEX
8
0
10
2.733000
20
1.896000
0
SEQEND
8
0
0
POLYLINE
8
0
66
1
40
0.008000
41
0.008000
0
VERTEX
8
0
10
3.333000
20
2.296000
0
VERTEX
8
0
10
3.333000
20
1.896000
0
SEQEND
8
0
0
POLYLINE
8
0
66
1
40
0.008000
41
0.008000
0
VERTEX
8
0
10
2.733000
20
1.896000
0
VERTEX
8
0
10
3.333000
20
1.896000
0
SEQEND
8
0
0
POLYLINE
8
0
66
1
40
0.008000
41
0.008000
0
VERTEX
8
0
10
3.333000
20
2.296000
0
VERTEX
8
0
10
2.733000
20
2.296000
0
SEQEND
8
0
0
TEXT
8
12632256
10
2.983000
20
1.833000
40
0.048000
41
1.041667
1
J5
0
POLYLINE
8
0
66
1
40
0.008000
41
0.008000
0
VERTEX
8
0
10
2.088000
20
2.296000
0
VERTEX
8
0
10
2.088000
20
1.896000
0
SEQEND
8
0
0
POLYLINE
8
0
66
1
40
0.008000
41
0.008000
0
VERTEX
8
0
10
2.688000
20
2.296000
0
VERTEX
8
0
10
2.688000
20
1.896000
0
SEQEND
8
0
0
POLYLINE
8
0
66
1
40
0.008000
41
0.008000
0
VERTEX
8
0
10
2.088000
20
1.896000
0
VERTEX
8
0
10
2.688000
20
1.896000
0
SEQEND
8
0
0
POLYLINE
8
0
66
1
40
0.008000
41
0.008000
0
VERTEX
8
0
10
2.688000
20
2.296000
0
VERTEX
8
0
10
2.088000
20
2.296000
0
SEQEND
8
0
0
TEXT
8
12632256
10
2.338000
20
1.833000
40
0.048000
41
1.041667
1
J6
0
POLYLINE
8
0
66
1
40
0.008000
41
0.008000
0
VERTEX
8
0
10
1.443000
20
2.291000
0
VERTEX
8
0
10
1.443000
20
1.891000
0
SEQEND
8
0
0
POLYLINE
8
0
66
1
40
0.008000
41
0.008000
0
VERTEX
8
0
10
2.043000
20
2.291000
0
VERTEX
8
0
10
2.043000
20
1.891000
0
SEQEND
8
0
0
POLYLINE
8
0
66
1
40
0.008000
41
0.008000
0
VERTEX
8
0
10
1.443000
20
1.891000
0
VERTEX
8
0
10
2.043000
20
1.891000
0
SEQEND
8
0
0
POLYLINE
8
0
66
1
40
0.008000
41
0.008000
0
VERTEX
8
0
10
2.043000
20
2.291000
0
VERTEX
8
0
10
1.443000
20
2.291000
0
SEQEND
8
0
0
TEXT
8
12632256
10
1.772000
20
1.828000
40
0.048000
41
1.041667
1
J7
0
POLYLINE
8
0
66
1
40
0.008000
41
0.008000
0
VERTEX
8
0
10
0.798000
20
2.291000
0
VERTEX
8
0
10
0.798000
20
1.891000
0
SEQEND
8
0
0
POLYLINE
8
0
66
1
40
0.008000
41
0.008000
0
VERTEX
8
0
10
1.398000
20
2.291000
0
VERTEX
8
0
10
1.398000
20
1.891000
0
SEQEND
8
0
0
POLYLINE
8
0
66
1
40
0.008000
41
0.008000
0
VERTEX
8
0
10
0.798000
20
1.891000
0
VERTEX
8
0
10
1.398000
20
1.891000
0
SEQEND
8
0
0
POLYLINE
8
0
66
1
40
0.008000
41
0.008000
0
VERTEX
8
0
10
1.398000
20
2.291000
0
VERTEX
8
0
10
0.798000
20
2.291000
0
SEQEND
8
0
0
TEXT
8
12632256
10
1.161000
20
1.808000
40
0.048000
41
1.041667
1
J10
0
POLYLINE
8
0
66
1
40
0.008000
41
0.008000
0
VERTEX
8
0
10
0.163000
20
2.291000
0
VERTEX
8
0
10
0.163000
20
1.891000
0
SEQEND
8
0
0
POLYLINE
8
0
66
1
40
0.008000
41
0.008000
0
VERTEX
8
0
10
0.763000
20
2.291000
0
VERTEX
8
0
10
0.763000
20
1.891000
0
SEQEND
8
0
0
POLYLINE
8
0
66
1
40
0.008000
41
0.008000
0
VERTEX
8
0
10
0.163000
20
1.891000
0
VERTEX
8
0
10
0.763000
20
1.891000
0
SEQEND
8
0
0
POLYLINE
8
0
66
1
40
0.008000
41
0.008000
0
VERTEX
8
0
10
0.763000
20
2.291000
0
VERTEX
8
0
10
0.163000
20
2.291000
0
SEQEND
8
0
0
TEXT
8
12632256
10
0.368000
20
1.828000
40
0.048000
41
1.041667
1
J11
0
POLYLINE
8
0
66
1
40
0.008000
41
0.008000
0
VERTEX
8
0
10
-0.476000
20
2.296000
0
VERTEX
8
0
10
-0.476000
20
1.896000
0
SEQEND
8
0
0
POLYLINE
8
0
66
1
40
0.008000
41
0.008000
0
VERTEX
8
0
10
0.123000
20
2.296000
0
VERTEX
8
0
10
0.123000
20
1.896000
0
SEQEND
8
0
0
POLYLINE
8
0
66
1
40
0.008000
41
0.008000
0
VERTEX
8
0
10
-0.476000
20
1.896000
0
VERTEX
8
0
10
0.123000
20
1.896000
0
SEQEND
8
0
0
POLYLINE
8
0
66
1
40
0.008000
41
0.008000
0
VERTEX
8
0
10
0.123000
20
2.296000
0
VERTEX
8
0
10
-0.476000
20
2.296000
0
SEQEND
8
0
0
TEXT
8
12632256
10
-0.231000
20
1.833000
40
0.048000
41
1.041667
1
J12
0
POLYLINE
8
0
66
1
40
0.008000
41
0.008000
0
VERTEX
8
0
10
-1.106000
20
2.296000
0
VERTEX
8
0
10
-1.106000
20
1.896000
0
SEQEND
8
0
0
POLYLINE
8
0
66
1
40
0.008000
41
0.008000
0
VERTEX
8
0
10
-0.506000
20
2.296000
0
VERTEX
8
0
10
-0.506000
20
1.896000
0
SEQEND
8
0
0
POLYLINE
8
0
66
1
40
0.008000
41
0.008000
0
VERTEX
8
0
10
-1.106000
20
1.896000
0
VERTEX
8
0
10
-0.506000
20
1.896000
0
SEQEND
8
0
0
POLYLINE
8
0
66
1
40
0.008000
41
0.008000
0
VERTEX
8
0
10
-0.506000
20
2.296000
0
VERTEX
8
0
10
-1.106000
20
2.296000
0
SEQEND
8
0
0
TEXT
8
12632256
10
-0.870000
20
1.813000
40
0.048000
41
1.041667
1
J13
0
POLYLINE
8
0
66
1
40
0.008000
41
0.008000
0
VERTEX
8
0
10
1.958000
20
-1.328000
0
VERTEX
8
0
10
1.958000
20
-1.378000
0
SEQEND
8
0
0
POLYLINE
8
0
66
1
40
0.008000
41
0.008000
0
VERTEX
8
0
10
1.933000
20
-1.578000
0
VERTEX
8
0
10
1.983000
20
-1.578000
0
VERTEX
8
0
10
1.983000
20
-1.378000
0
VERTEX
8
0
10
1.933000
20
-1.378000
0
VERTEX
8
0
10
1.933000
20
-1.578000
0
SEQEND
8
0
0
POLYLINE
8
0
66
1
40
0.008000
41
0.008000
0
VERTEX
8
0
10
1.958000
20
-1.578000
0
VERTEX
8
0
10
1.958000
20
-1.628000
0
SEQEND
8
0
0
TEXT
8
12632256
10
2.041000
20
-1.553000
40
0.048000
41
1.041667
50
90.000000
1
R28
0
POLYLINE
8
0
66
1
40
0.008000
41
0.008000
0
VERTEX
8
0
10
2.073000
20
-1.333000
0
VERTEX
8
0
10
2.073000
20
-1.383000
0
SEQEND
8
0
0
POLYLINE
8
0
66
1
40
0.008000
41
0.008000
0
VERTEX
8
0
10
2.048000
20
-1.583000
0
VERTEX
8
0
10
2.098000
20
-1.583000
0
VERTEX
8
0
10
2.098000
20
-1.383000
0
VERTEX
8
0
10
2.048000
20
-1.383000
0
VERTEX
8
0
10
2.048000
20
-1.583000
0
SEQEND
8
0
0
POLYLINE
8
0
66
1
40
0.008000
41
0.008000
0
VERTEX
8
0
10
2.073000
20
-1.583000
0
VERTEX
8
0
10
2.073000
20
-1.633000
0
SEQEND
8
0
0
TEXT
8
12632256
10
2.156000
20
-1.558000
40
0.048000
41
1.041667
50
90.000000
1
R29
0
CIRCLE
8
12632256
10
2.128000
20
-1.933000
40
0.100000
0
POLYLINE
8
0
66
1
40
0.008000
41
0.008000
0
VERTEX
8
0
10
2.053000
20
-1.883000
0
VERTEX
8
0
10
2.103000
20
-1.883000
0
SEQEND
8
0
0
POLYLINE
8
0
66
1
40
0.008000
41
0.008000
0
VERTEX
8
0
10
2.078000
20
-1.858000
0
VERTEX
8
0
10
2.078000
20
-1.908000
0
SEQEND
8
0
0
TEXT
8
12632256
10
2.053000
20
-1.823000
40
0.048000
41
1.041667
1
C28
0
CIRCLE
8
12632256
10
1.908000
20
-1.938000
40
0.100000
0
POLYLINE
8
0
66
1
40
0.008000
41
0.008000
0
VERTEX
8
0
10
1.833000
20
-1.888000
0
VERTEX
8
0
10
1.883000
20
-1.888000
0
SEQEND
8
0
0
POLYLINE
8
0
66
1
40
0.008000
41
0.008000
0
VERTEX
8
0
10
1.858000
20
-1.863000
0
VERTEX
8
0
10
1.858000
20
-1.913000
0
SEQEND
8
0
0
TEXT
8
12632256
10
1.833000
20
-1.828000
40
0.048000
41
1.041667
1
C27
0
POLYLINE
8
0
66
1
40
0.008000
41
0.008000
0
VERTEX
8
0
10
1.243000
20
-1.655000
0
VERTEX
8
0
10
1.643000
20
-1.655000
0
VERTEX
8
0
10
1.643000
20
-1.405000
0
VERTEX
8
0
10
1.243000
20
-1.405000
0
VERTEX
8
0
10
1.243000
20
-1.655000
0
SEQEND
8
0
0
POLYLINE
8
0
66
1
40
0.008000
41
0.008000
0
VERTEX
8
0
10
1.643000
20
-1.605000
0
VERTEX
8
0
10
1.243000
20
-1.605000
0
SEQEND
8
0
0
TEXT
8
12632256
10
1.368000
20
-1.720000
40
0.048000
41
1.041667
1
J18
0
POLYLINE
8
0
66
1
40
0.008000
41
0.008000
0
VERTEX
8
0
10
2.244000
20
-1.674000
0
VERTEX
8
0
10
2.644000
20
-1.674000
0
VERTEX
8
0
10
2.644000
20
-1.424000
0
VERTEX
8
0
10
2.244000
20
-1.424000
0
VERTEX
8
0
10
2.244000
20
-1.674000
0
SEQEND
8
0
0
POLYLINE
8
0
66
1
40
0.008000
41
0.008000
0
VERTEX
8
0
10
2.244000
20
-1.474000
0
VERTEX
8
0
10
2.644000
20
-1.474000
0
SEQEND
8
0
0
TEXT
8
12632256
10
2.359000
20
-1.752000
40
0.048000
41
1.041667
1
J19
0
POLYLINE
8
0
66
1
40
0.008000
41
0.008000
0
VERTEX
8
0
10
2.690000
20
-0.278000
0
VERTEX
8
0
10
2.940000
20
-0.278000
0
VERTEX
8
0
10
2.940000
20
0.121000
0
VERTEX
8
0
10
2.690000
20
0.121000
0
VERTEX
8
0
10
2.690000
20
-0.278000
0
SEQEND
8
0
0
POLYLINE
8
0
66
1
40
0.008000
41
0.008000
0
VERTEX
8
0
10
2.890000
20
0.121000
0
VERTEX
8
0
10
2.890000
20
-0.278000
0
SEQEND
8
0
0
TEXT
8
12632256
10
2.699000
20
0.147000
40
0.048000
41
1.041667
1
J20
0
POLYLINE
8
0
66
1
40
0.008000
41
0.008000
0
VERTEX
8
0
10
2.788000
20
-0.803000
0
VERTEX
8
0
10
3.038000
20
-0.803000
0
VERTEX
8
0
10
3.038000
20
-0.303000
0
VERTEX
8
0
10
2.788000
20
-0.303000
0
VERTEX
8
0
10
2.788000
20
-0.803000
0
SEQEND
8
0
0
POLYLINE
8
0
66
1
40
0.008000
41
0.008000
0
VERTEX
8
0
10
2.838000
20
-0.803000
0
VERTEX
8
0
10
2.838000
20
-0.303000
0
SEQEND
8
0
0
TEXT
8
12632256
10
3.112000
20
-0.571000
40
0.048000
41
1.041667
50
90.000000
1
J17
0
POLYLINE
8
0
66
1
40
0.008000
41
0.008000
0
VERTEX
8
0
10
-0.146000
20
-0.343000
0
VERTEX
8
0
10
0.103000
20
-0.343000
0
VERTEX
8
0
10
0.103000
20
0.356000
0
VERTEX
8
0
10
-0.146000
20
0.356000
0
VERTEX
8
0
10
-0.146000
20
-0.343000
0
SEQEND
8
0
0
POLYLINE
8
0
66
1
40
0.008000
41
0.008000
0
VERTEX
8
0
10
-0.096000
20
-0.343000
0
VERTEX
8
0
10
-0.096000
20
0.356000
0
SEQEND
8
0
0
TEXT
8
12632256
10
-0.465000
20
-0.084000
40
0.048000
41
1.041667
50
90.000000
1
J21
0
POLYLINE
8
0
66
1
40
0.008000
41
0.008000
0
VERTEX
8
0
10
2.871000
20
1.500000
0
VERTEX
8
0
10
2.871000
20
1.450000
0
SEQEND
8
0
0
POLYLINE
8
0
66
1
40
0.008000
41
0.008000
0
VERTEX
8
0
10
2.846000
20
1.250000
0
VERTEX
8
0
10
2.896000
20
1.250000
0
VERTEX
8
0
10
2.896000
20
1.450000
0
VERTEX
8
0
10
2.846000
20
1.450000
0
VERTEX
8
0
10
2.846000
20
1.250000
0
SEQEND
8
0
0
POLYLINE
8
0
66
1
40
0.008000
41
0.008000
0
VERTEX
8
0
10
2.871000
20
1.250000
0
VERTEX
8
0
10
2.871000
20
1.200000
0
SEQEND
8
0
0
TEXT
8
12632256
10
2.954000
20
1.300000
40
0.048000
41
1.041667
50
90.000000
1
R4
0
POLYLINE
8
0
66
1
40
0.008000
41
0.008000
0
VERTEX
8
0
10
2.341000
20
1.500000
0
VERTEX
8
0
10
2.341000
20
1.450000
0
SEQEND
8
0
0
POLYLINE
8
0
66
1
40
0.008000
41
0.008000
0
VERTEX
8
0
10
2.316000
20
1.250000
0
VERTEX
8
0
10
2.366000
20
1.250000
0
VERTEX
8
0
10
2.366000
20
1.450000
0
VERTEX
8
0
10
2.316000
20
1.450000
0
VERTEX
8
0
10
2.316000
20
1.250000
0
SEQEND
8
0
0
POLYLINE
8
0
66
1
40
0.008000
41
0.008000
0
VERTEX
8
0
10
2.341000
20
1.250000
0
VERTEX
8
0
10
2.341000
20
1.200000
0
SEQEND
8
0
0
TEXT
8
12632256
10
2.424000
20
1.300000
40
0.048000
41
1.041667
50
90.000000
1
R7
0
POLYLINE
8
0
66
1
40
0.008000
41
0.008000
0
VERTEX
8
0
10
1.780000
20
1.500000
0
VERTEX
8
0
10
1.780000
20
1.450000
0
SEQEND
8
0
0
POLYLINE
8
0
66
1
40
0.008000
41
0.008000
0
VERTEX
8
0
10
1.755000
20
1.250000
0
VERTEX
8
0
10
1.805000
20
1.250000
0
VERTEX
8
0
10
1.805000
20
1.450000
0
VERTEX
8
0
10
1.755000
20
1.450000
0
VERTEX
8
0
10
1.755000
20
1.250000
0
SEQEND
8
0
0
POLYLINE
8
0
66
1
40
0.008000
41
0.008000
0
VERTEX
8
0
10
1.780000
20
1.250000
0
VERTEX
8
0
10
1.780000
20
1.200000
0
SEQEND
8
0
0
TEXT
8
12632256
10
1.863000
20
1.300000
40
0.048000
41
1.041667
50
90.000000
1
R9
0
POLYLINE
8
0
66
1
40
0.008000
41
0.008000
0
VERTEX
8
0
10
1.193000
20
1.500000
0
VERTEX
8
0
10
1.193000
20
1.450000
0
SEQEND
8
0
0
POLYLINE
8
0
66
1
40
0.008000
41
0.008000
0
VERTEX
8
0
10
1.168000
20
1.250000
0
VERTEX
8
0
10
1.218000
20
1.250000
0
VERTEX
8
0
10
1.218000
20
1.450000
0
VERTEX
8
0
10
1.168000
20
1.450000
0
VERTEX
8
0
10
1.168000
20
1.250000
0
SEQEND
8
0
0
POLYLINE
8
0
66
1
40
0.008000
41
0.008000
0
VERTEX
8
0
10
1.193000
20
1.250000
0
VERTEX
8
0
10
1.193000
20
1.200000
0
SEQEND
8
0
0
TEXT
8
12632256
10
1.276000
20
1.275000
40
0.048000
41
1.041667
50
90.000000
1
R11
0
POLYLINE
8
0
66
1
40
0.008000
41
0.008000
0
VERTEX
8
0
10
0.635000
20
1.500000
0
VERTEX
8
0
10
0.635000
20
1.450000
0
SEQEND
8
0
0
POLYLINE
8
0
66
1
40
0.008000
41
0.008000
0
VERTEX
8
0
10
0.610000
20
1.250000
0
VERTEX
8
0
10
0.660000
20
1.250000
0
VERTEX
8
0
10
0.660000
20
1.450000
0
VERTEX
8
0
10
0.610000
20
1.450000
0
VERTEX
8
0
10
0.610000
20
1.250000
0
SEQEND
8
0
0
POLYLINE
8
0
66
1
40
0.008000
41
0.008000
0
VERTEX
8
0
10
0.635000
20
1.250000
0
VERTEX
8
0
10
0.635000
20
1.200000
0
SEQEND
8
0
0
TEXT
8
12632256
10
0.718000
20
1.275000
40
0.048000
41
1.041667
50
90.000000
1
R17
0
POLYLINE
8
0
66
1
40
0.008000
41
0.008000
0
VERTEX
8
0
10
0.063000
20
1.500000
0
VERTEX
8
0
10
0.063000
20
1.450000
0
SEQEND
8
0
0
POLYLINE
8
0
66
1
40
0.008000
41
0.008000
0
VERTEX
8
0
10
0.038000
20
1.250000
0
VERTEX
8
0
10
0.088000
20
1.250000
0
VERTEX
8
0
10
0.088000
20
1.450000
0
VERTEX
8
0
10
0.038000
20
1.450000
0
VERTEX
8
0
10
0.038000
20
1.250000
0
SEQEND
8
0
0
POLYLINE
8
0
66
1
40
0.008000
41
0.008000
0
VERTEX
8
0
10
0.063000
20
1.250000
0
VERTEX
8
0
10
0.063000
20
1.200000
0
SEQEND
8
0
0
TEXT
8
12632256
10
0.146000
20
1.275000
40
0.048000
41
1.041667
50
90.000000
1
R19
0
POLYLINE
8
0
66
1
40
0.008000
41
0.008000
0
VERTEX
8
0
10
-0.554000
20
1.481000
0
VERTEX
8
0
10
-0.554000
20
1.431000
0
SEQEND
8
0
0
POLYLINE
8
0
66
1
40
0.008000
41
0.008000
0
VERTEX
8
0
10
-0.579000
20
1.231000
0
VERTEX
8
0
10
-0.529000
20
1.231000
0
VERTEX
8
0
10
-0.529000
20
1.431000
0
VERTEX
8
0
10
-0.579000
20
1.431000
0
VERTEX
8
0
10
-0.579000
20
1.231000
0
SEQEND
8
0
0
POLYLINE
8
0
66
1
40
0.008000
41
0.008000
0
VERTEX
8
0
10
-0.554000
20
1.231000
0
VERTEX
8
0
10
-0.554000
20
1.181000
0
SEQEND
8
0
0
TEXT
8
12632256
10
-0.471000
20
1.256000
40
0.048000
41
1.041667
50
90.000000
1
R26
0
POLYLINE
8
0
66
1
40
0.008000
41
0.008000
0
VERTEX
8
0
10
-2.045000
20
1.861000
0
VERTEX
8
0
10
-1.745000
20
1.861000
0
VERTEX
8
0
10
-1.745000
20
1.961000
0
VERTEX
8
0
10
-2.045000
20
1.961000
0
VERTEX
8
0
10
-2.045000
20
1.861000
0
SEQEND
8
0
0
POLYLINE
8
0
66
1
40
0.008000
41
0.008000
0
VERTEX
8
0
10
-2.045000
20
1.961000
0
VERTEX
8
0
10
-2.045000
20
2.011000
0
VERTEX
8
0
10
-1.745000
20
2.011000
0
VERTEX
8
0
10
-1.745000
20
1.961000
0
SEQEND
8
0
0
POLYLINE
8
0
66
1
40
0.008000
41
0.008000
0
VERTEX
8
0
10
-2.045000
20
1.961000
0
VERTEX
8
0
10
-1.995000
20
2.011000
0
SEQEND
8
0
0
POLYLINE
8
0
66
1
40
0.008000
41
0.008000
0
VERTEX
8
0
10
-1.995000
20
1.961000
0
VERTEX
8
0
10
-1.945000
20
2.011000
0
SEQEND
8
0
0
POLYLINE
8
0
66
1
40
0.008000
41
0.008000
0
VERTEX
8
0
10
-1.945000
20
1.961000
0
VERTEX
8
0
10
-1.895000
20
2.011000
0
SEQEND
8
0
0
POLYLINE
8
0
66
1
40
0.008000
41
0.008000
0
VERTEX
8
0
10
-1.895000
20
1.961000
0
VERTEX
8
0
10
-1.845000
20
2.011000
0
SEQEND
8
0
0
POLYLINE
8
0
66
1
40
0.008000
41
0.008000
0
VERTEX
8
0
10
-1.845000
20
1.961000
0
VERTEX
8
0
10
-1.795000
20
2.011000
0
SEQEND
8
0
0
POLYLINE
8
0
66
1
40
0.008000
41
0.008000
0
VERTEX
8
0
10
-1.795000
20
1.961000
0
VERTEX
8
0
10
-1.745000
20
2.011000
0
SEQEND
8
0
0
TEXT
8
12632256
10
-1.970000
20
2.021000
40
0.048000
41
1.041667
1
U12
0
POLYLINE
8
0
66
1
40
0.008000
41
0.008000
0
VERTEX
8
0
10
-2.741000
20
1.848000
0
VERTEX
8
0
10
-2.741000
20
2.248000
0
SEQEND
8
0
0
POLYLINE
8
0
66
1
40
0.008000
41
0.008000
0
VERTEX
8
0
10
-3.141000
20
1.848000
0
VERTEX
8
0
10
-3.141000
20
2.248000
0
SEQEND
8
0
0
POLYLINE
8
0
66
1
40
0.008000
41
0.008000
0
VERTEX
8
0
10
-2.741000
20
2.248000
0
VERTEX
8
0
10
-3.141000
20
2.248000
0
SEQEND
8
0
0
POLYLINE
8
0
66
1
40
0.008000
41
0.008000
0
VERTEX
8
0
10
-2.741000
20
1.848000
0
VERTEX
8
0
10
-3.141000
20
1.848000
0
SEQEND
8
0
0
TEXT
8
12632256
10
-2.991000
20
1.790000
40
0.048000
41
1.041667
1
J8
0
POLYLINE
8
0
66
1
40
0.008000
41
0.008000
0
VERTEX
8
0
10
-3.424000
20
0.710000
0
VERTEX
8
0
10
-3.374000
20
0.710000
0
SEQEND
8
0
0
POLYLINE
8
0
66
1
40
0.008000
41
0.008000
0
VERTEX
8
0
10
-3.374000
20
0.685000
0
VERTEX
8
0
10
-3.174000
20
0.685000
0
VERTEX
8
0
10
-3.174000
20
0.735000
0
VERTEX
8
0
10
-3.374000
20
0.735000
0
VERTEX
8
0
10
-3.374000
20
0.685000
0
SEQEND
8
0
0
POLYLINE
8
0
66
1
40
0.008000
41
0.008000
0
VERTEX
8
0
10
-3.174000
20
0.710000
0
VERTEX
8
0
10
-3.124000
20
0.710000
0
SEQEND
8
0
0
TEXT
8
12632256
10
-3.349000
20
0.745000
40
0.048000
41
1.041667
1
R20
0
POLYLINE
8
0
66
1
40
0.008000
41
0.008000
0
VERTEX
8
0
10
-0.177000
20
-1.865000
0
VERTEX
8
0
10
-0.177000
20
-1.815000
0
SEQEND
8
0
0
POLYLINE
8
0
66
1
40
0.008000
41
0.008000
0
VERTEX
8
0
10
-0.177000
20
-2.015000
0
VERTEX
8
0
10
-0.177000
20
-1.965000
0
SEQEND
8
0
0
POLYLINE
8
0
66
1
40
0.008000
41
0.008000
0
VERTEX
8
0
10
-0.127000
20
-1.915000
0
VERTEX
8
0
10
-0.128000
20
-1.905000
0
VERTEX
8
0
10
-0.131000
20
-1.895000
0
VERTEX
8
0
10
-0.135000
20
-1.887000
0
VERTEX
8
0
10
-0.141000
20
-1.880000
0
VERTEX
8
0
10
-0.148000
20
-1.873000
0
VERTEX
8
0
10
-0.157000
20
-1.869000
0
VERTEX
8
0
10
-0.167000
20
-1.866000
0
VERTEX
8
0
10
-0.177000
20
-1.865000
0
SEQEND
8
0
0
POLYLINE
8
0
66
1
40
0.008000
41
0.008000
0
VERTEX
8
0
10
-0.127000
20
-1.915000
0
VERTEX
8
0
10
-0.128000
20
-1.925000
0
VERTEX
8
0
10
-0.131000
20
-1.935000
0
VERTEX
8
0
10
-0.135000
20
-1.944000
0
VERTEX
8
0
10
-0.141000
20
-1.951000
0
VERTEX
8
0
10
-0.148000
20
-1.957000
0
VERTEX
8
0
10
-0.157000
20
-1.961000
0
VERTEX
8
0
10
-0.167000
20
-1.964000
0
VERTEX
8
0
10
-0.177000
20
-1.965000
0
SEQEND
8
0
0
POLYLINE
8
0
66
1
40
0.008000
41
0.008000
0
VERTEX
8
0
10
-0.177000
20
-2.015000
0
VERTEX
8
0
10
0.522000
20
-2.015000
0
VERTEX
8
0
10
0.522000
20
-1.815000
0
VERTEX
8
0
10
-0.177000
20
-1.815000
0
SEQEND
8
0
0
TEXT
8
12632256
10
-0.187000
20
-1.965000
40
0.048000
41
1.041667
50
90.000000
1
U2
0
POLYLINE
8
0
66
1
40
0.008000
41
0.008000
0
VERTEX
8
0
10
-2.260000
20
-2.117000
0
VERTEX
8
0
10
-1.960000
20
-2.117000
0
VERTEX
8
0
10
-1.960000
20
-2.017000
0
VERTEX
8
0
10
-2.260000
20
-2.017000
0
VERTEX
8
0
10
-2.260000
20
-2.117000
0
SEQEND
8
0
0
POLYLINE
8
0
66
1
40
0.008000
41
0.008000
0
VERTEX
8
0
10
-1.960000
20
-2.117000
0
VERTEX
8
0
10
-1.960000
20
-2.167000
0
VERTEX
8
0
10
-2.260000
20
-2.167000
0
VERTEX
8
0
10
-2.260000
20
-2.117000
0
SEQEND
8
0
0
POLYLINE
8
0
66
1
40
0.008000
41
0.008000
0
VERTEX
8
0
10
-1.960000
20
-2.117000
0
VERTEX
8
0
10
-2.010000
20
-2.167000
0
SEQEND
8
0
0
POLYLINE
8
0
66
1
40
0.008000
41
0.008000
0
VERTEX
8
0
10
-2.010000
20
-2.117000
0
VERTEX
8
0
10
-2.060000
20
-2.167000
0
SEQEND
8
0
0
POLYLINE
8
0
66
1
40
0.008000
41
0.008000
0
VERTEX
8
0
10
-2.060000
20
-2.117000
0
VERTEX
8
0
10
-2.110000
20
-2.167000
0
SEQEND
8
0
0
POLYLINE
8
0
66
1
40
0.008000
41
0.008000
0
VERTEX
8
0
10
-2.110000
20
-2.117000
0
VERTEX
8
0
10
-2.160000
20
-2.167000
0
SEQEND
8
0
0
POLYLINE
8
0
66
1
40
0.008000
41
0.008000
0
VERTEX
8
0
10
-2.160000
20
-2.117000
0
VERTEX
8
0
10
-2.210000
20
-2.167000
0
SEQEND
8
0
0
POLYLINE
8
0
66
1
40
0.008000
41
0.008000
0
VERTEX
8
0
10
-2.210000
20
-2.117000
0
VERTEX
8
0
10
-2.260000
20
-2.167000
0
SEQEND
8
0
0
TEXT
8
12632256
10
-2.185000
20
-2.225000
40
0.048000
41
1.041667
1
U19
0
POLYLINE
8
0
66
1
40
0.008000
41
0.008000
0
VERTEX
8
0
10
-1.467000
20
-1.509000
0
VERTEX
8
0
10
-1.467000
20
-1.559000
0
SEQEND
8
0
0
POLYLINE
8
0
66
1
40
0.008000
41
0.008000
0
VERTEX
8
0
10
-1.492000
20
-1.759000
0
VERTEX
8
0
10
-1.442000
20
-1.759000
0
VERTEX
8
0
10
-1.442000
20
-1.559000
0
VERTEX
8
0
10
-1.492000
20
-1.559000
0
VERTEX
8
0
10
-1.492000
20
-1.759000
0
SEQEND
8
0
0
POLYLINE
8
0
66
1
40
0.008000
41
0.008000
0
VERTEX
8
0
10
-1.467000
20
-1.759000
0
VERTEX
8
0
10
-1.467000
20
-1.809000
0
SEQEND
8
0
0
TEXT
8
12632256
10
-1.384000
20
-1.734000
40
0.048000
41
1.041667
50
90.000000
1
R24
0
CIRCLE
8
12632256
10
-1.240000
20
-2.313000
40
0.100000
0
POLYLINE
8
0
66
1
40
0.008000
41
0.008000
0
VERTEX
8
0
10
-1.315000
20
-2.263000
0
VERTEX
8
0
10
-1.265000
20
-2.263000
0
SEQEND
8
0
0
POLYLINE
8
0
66
1
40
0.008000
41
0.008000
0
VERTEX
8
0
10
-1.290000
20
-2.238000
0
VERTEX
8
0
10
-1.290000
20
-2.288000
0
SEQEND
8
0
0
TEXT
8
12632256
10
-1.315000
20
-2.203000
40
0.048000
41
1.041667
1
C10
0
POLYLINE
8
0
66
1
40
0.008000
41
0.008000
0
VERTEX
8
0
10
-2.794000
20
-2.421000
0
VERTEX
8
0
10
-1.416000
20
-2.421000
0
VERTEX
8
0
10
-1.416000
20
-1.933000
0
VERTEX
8
0
10
-2.794000
20
-1.933000
0
VERTEX
8
0
10
-2.794000
20
-2.421000
0
SEQEND
8
0
0
POLYLINE
8
0
66
1
40
0.008000
41
0.008000
0
VERTEX
8
0
10
-1.336000
20
-2.053000
0
VERTEX
8
0
10
-1.036000
20
-2.053000
0
VERTEX
8
0
10
-1.036000
20
-1.903000
0
VERTEX
8
0
10
-1.336000
20
-1.903000
0
VERTEX
8
0
10
-1.336000
20
-2.053000
0
SEQEND
8
0
0
POLYLINE
8
0
66
1
40
0.008000
41
0.008000
0
VERTEX
8
0
10
-1.236000
20
-1.753000
0
VERTEX
8
0
10
-1.136000
20
-1.753000
0
SEQEND
8
0
0
POLYLINE
8
0
66
1
40
0.008000
41
0.008000
0
VERTEX
8
0
10
-1.284000
20
-1.903000
0
VERTEX
8
0
10
-1.092000
20
-1.903000
0
VERTEX
8
0
10
-1.092000
20
-1.682000
0
VERTEX
8
0
10
-1.284000
20
-1.682000
0
VERTEX
8
0
10
-1.284000
20
-1.903000
0
SEQEND
8
0
0
TEXT
8
12632256
10
-1.261000
20
-1.672000
40
0.048000
41
1.041667
1
RV2
0
POLYLINE
8
0
66
1
40
0.008000
41
0.008000
0
VERTEX
8
0
10
0.692000
20
-2.242000
0
VERTEX
8
0
10
0.690000
20
-2.252000
0
VERTEX
8
0
10
0.684000
20
-2.262000
0
VERTEX
8
0
10
0.675000
20
-2.270000
0
VERTEX
8
0
10
0.663000
20
-2.278000
0
VERTEX
8
0
10
0.648000
20
-2.284000
0
VERTEX
8
0
10
0.631000
20
-2.288000
0
VERTEX
8
0
10
0.612000
20
-2.291000
0
VERTEX
8
0
10
0.592000
20
-2.292000
0
SEQEND
8
0
0
POLYLINE
8
0
66
1
40
0.008000
41
0.008000
0
VERTEX
8
0
10
0.492000
20
-2.242000
0
VERTEX
8
0
10
0.494000
20
-2.252000
0
VERTEX
8
0
10
0.500000
20
-2.262000
0
VERTEX
8
0
10
0.509000
20
-2.270000
0
VERTEX
8
0
10
0.521000
20
-2.278000
0
VERTEX
8
0
10
0.536000
20
-2.284000
0
VERTEX
8
0
10
0.553000
20
-2.288000
0
VERTEX
8
0
10
0.572000
20
-2.291000
0
VERTEX
8
0
10
0.592000
20
-2.292000
0
SEQEND
8
0
0
POLYLINE
8
0
66
1
40
0.008000
41
0.008000
0
VERTEX
8
0
10
0.692000
20
-2.242000
0
VERTEX
8
0
10
0.690000
20
-2.232000
0
VERTEX
8
0
10
0.684000
20
-2.222000
0
VERTEX
8
0
10
0.675000
20
-2.214000
0
VERTEX
8
0
10
0.663000
20
-2.206000
0
VERTEX
8
0
10
0.648000
20
-2.200000
0
VERTEX
8
0
10
0.631000
20
-2.196000
0
VERTEX
8
0
10
0.612000
20
-2.193000
0
VERTEX
8
0
10
0.592000
20
-2.192000
0
SEQEND
8
0
0
POLYLINE
8
0
66
1
40
0.008000
41
0.008000
0
VERTEX
8
0
10
0.492000
20
-2.242000
0
VERTEX
8
0
10
0.494000
20
-2.232000
0
VERTEX
8
0
10
0.500000
20
-2.222000
0
VERTEX
8
0
10
0.509000
20
-2.214000
0
VERTEX
8
0
10
0.521000
20
-2.206000
0
VERTEX
8
0
10
0.536000
20
-2.200000
0
VERTEX
8
0
10
0.553000
20
-2.196000
0
VERTEX
8
0
10
0.572000
20
-2.193000
0
VERTEX
8
0
10
0.592000
20
-2.192000
0
SEQEND
8
0
0
TEXT
8
12632256
10
0.517000
20
-2.173000
40
0.048000
41
1.041667
1
C20
0
POLYLINE
8
0
66
1
40
0.008000
41
0.008000
0
VERTEX
8
0
10
-0.482000
20
-1.921000
0
VERTEX
8
0
10
-0.492000
20
-1.919000
0
VERTEX
8
0
10
-0.502000
20
-1.913000
0
VERTEX
8
0
10
-0.510000
20
-1.904000
0
VERTEX
8
0
10
-0.518000
20
-1.892000
0
VERTEX
8
0
10
-0.524000
20
-1.877000
0
VERTEX
8
0
10
-0.528000
20
-1.860000
0
VERTEX
8
0
10
-0.531000
20
-1.841000
0
VERTEX
8
0
10
-0.532000
20
-1.821000
0
SEQEND
8
0
0
POLYLINE
8
0
66
1
40
0.008000
41
0.008000
0
VERTEX
8
0
10
-0.482000
20
-1.721000
0
VERTEX
8
0
10
-0.492000
20
-1.723000
0
VERTEX
8
0
10
-0.502000
20
-1.729000
0
VERTEX
8
0
10
-0.510000
20
-1.738000
0
VERTEX
8
0
10
-0.518000
20
-1.750000
0
VERTEX
8
0
10
-0.524000
20
-1.765000
0
VERTEX
8
0
10
-0.528000
20
-1.782000
0
VERTEX
8
0
10
-0.531000
20
-1.801000
0
VERTEX
8
0
10
-0.532000
20
-1.821000
0
SEQEND
8
0
0
POLYLINE
8
0
66
1
40
0.008000
41
0.008000
0
VERTEX
8
0
10
-0.482000
20
-1.921000
0
VERTEX
8
0
10
-0.472000
20
-1.919000
0
VERTEX
8
0
10
-0.462000
20
-1.913000
0
VERTEX
8
0
10
-0.454000
20
-1.904000
0
VERTEX
8
0
10
-0.446000
20
-1.892000
0
VERTEX
8
0
10
-0.440000
20
-1.877000
0
VERTEX
8
0
10
-0.436000
20
-1.860000
0
VERTEX
8
0
10
-0.433000
20
-1.841000
0
VERTEX
8
0
10
-0.432000
20
-1.821000
0
SEQEND
8
0
0
POLYLINE
8
0
66
1
40
0.008000
41
0.008000
0
VERTEX
8
0
10
-0.482000
20
-1.721000
0
VERTEX
8
0
10
-0.472000
20
-1.723000
0
VERTEX
8
0
10
-0.462000
20
-1.729000
0
VERTEX
8
0
10
-0.454000
20
-1.738000
0
VERTEX
8
0
10
-0.446000
20
-1.750000
0
VERTEX
8
0
10
-0.440000
20
-1.765000
0
VERTEX
8
0
10
-0.436000
20
-1.782000
0
VERTEX
8
0
10
-0.433000
20
-1.801000
0
VERTEX
8
0
10
-0.432000
20
-1.821000
0
SEQEND
8
0
0
TEXT
8
12632256
10
-0.365000
20
-1.896000
40
0.048000
41
1.041667
50
90.000000
1
C21
0
CIRCLE
8
12632256
10
-1.997000
20
1.359000
40
0.115000
0
POLYLINE
8
0
66
1
40
0.008000
41
0.008000
0
VERTEX
8
0
10
-2.082000
20
1.409000
0
VERTEX
8
0
10
-2.032000
20
1.409000
0
SEQEND
8
0
0
POLYLINE
8
0
66
1
40
0.008000
41
0.008000
0
VERTEX
8
0
10
-2.057000
20
1.434000
0
VERTEX
8
0
10
-2.057000
20
1.384000
0
SEQEND
8
0
0
TEXT
8
12632256
10
-2.072000
20
1.484000
40
0.048000
41
1.041667
1
C11
0
CIRCLE
8
12632256
10
-1.711000
20
1.340000
40
0.100000
0
POLYLINE
8
0
66
1
40
0.008000
41
0.008000
0
VERTEX
8
0
10
-1.786000
20
1.390000
0
VERTEX
8
0
10
-1.736000
20
1.390000
0
SEQEND
8
0
0
POLYLINE
8
0
66
1
40
0.008000
41
0.008000
0
VERTEX
8
0
10
-1.761000
20
1.415000
0
VERTEX
8
0
10
-1.761000
20
1.365000
0
SEQEND
8
0
0
TEXT
8
12632256
10
-1.786000
20
1.450000
40
0.048000
41
1.041667
1
C12
0
POLYLINE
8
0
66
1
40
0.008000
41
0.008000
0
VERTEX
8
0
10
-1.949000
20
1.044000
0
VERTEX
8
0
10
-1.947000
20
1.054000
0
VERTEX
8
0
10
-1.941000
20
1.064000
0
VERTEX
8
0
10
-1.932000
20
1.072000
0
VERTEX
8
0
10
-1.920000
20
1.080000
0
VERTEX
8
0
10
-1.905000
20
1.086000
0
VERTEX
8
0
10
-1.888000
20
1.090000
0
VERTEX
8
0
10
-1.869000
20
1.093000
0
VERTEX
8
0
10
-1.849000
20
1.094000
0
SEQEND
8
0
0
POLYLINE
8
0
66
1
40
0.008000
41
0.008000
0
VERTEX
8
0
10
-1.749000
20
1.044000
0
VERTEX
8
0
10
-1.751000
20
1.054000
0
VERTEX
8
0
10
-1.757000
20
1.064000
0
VERTEX
8
0
10
-1.766000
20
1.072000
0
VERTEX
8
0
10
-1.778000
20
1.080000
0
VERTEX
8
0
10
-1.793000
20
1.086000
0
VERTEX
8
0
10
-1.810000
20
1.090000
0
VERTEX
8
0
10
-1.829000
20
1.093000
0
VERTEX
8
0
10
-1.849000
20
1.094000
0
SEQEND
8
0
0
POLYLINE
8
0
66
1
40
0.008000
41
0.008000
0
VERTEX
8
0
10
-1.949000
20
1.044000
0
VERTEX
8
0
10
-1.947000
20
1.034000
0
VERTEX
8
0
10
-1.941000
20
1.024000
0
VERTEX
8
0
10
-1.932000
20
1.016000
0
VERTEX
8
0
10
-1.920000
20
1.008000
0
VERTEX
8
0
10
-1.905000
20
1.002000
0
VERTEX
8
0
10
-1.888000
20
0.998000
0
VERTEX
8
0
10
-1.869000
20
0.995000
0
VERTEX
8
0
10
-1.849000
20
0.994000
0
SEQEND
8
0
0
POLYLINE
8
0
66
1
40
0.008000
41
0.008000
0
VERTEX
8
0
10
-1.749000
20
1.044000
0
VERTEX
8
0
10
-1.751000
20
1.034000
0
VERTEX
8
0
10
-1.757000
20
1.024000
0
VERTEX
8
0
10
-1.766000
20
1.016000
0
VERTEX
8
0
10
-1.778000
20
1.008000
0
VERTEX
8
0
10
-1.793000
20
1.002000
0
VERTEX
8
0
10
-1.810000
20
0.998000
0
VERTEX
8
0
10
-1.829000
20
0.995000
0
VERTEX
8
0
10
-1.849000
20
0.994000
0
SEQEND
8
0
0
TEXT
8
12632256
10
-1.924000
20
1.104000
40
0.048000
41
1.041667
1
C13
0
POLYLINE
8
0
66
1
40
0.008000
41
0.008000
0
VERTEX
8
0
10
-1.949000
20
0.828000
0
VERTEX
8
0
10
-1.947000
20
0.838000
0
VERTEX
8
0
10
-1.941000
20
0.848000
0
VERTEX
8
0
10
-1.932000
20
0.856000
0
VERTEX
8
0
10
-1.920000
20
0.864000
0
VERTEX
8
0
10
-1.905000
20
0.870000
0
VERTEX
8
0
10
-1.888000
20
0.874000
0
VERTEX
8
0
10
-1.869000
20
0.877000
0
VERTEX
8
0
10
-1.849000
20
0.878000
0
SEQEND
8
0
0
POLYLINE
8
0
66
1
40
0.008000
41
0.008000
0
VERTEX
8
0
10
-1.749000
20
0.828000
0
VERTEX
8
0
10
-1.751000
20
0.838000
0
VERTEX
8
0
10
-1.757000
20
0.848000
0
VERTEX
8
0
10
-1.766000
20
0.856000
0
VERTEX
8
0
10
-1.778000
20
0.864000
0
VERTEX
8
0
10
-1.793000
20
0.870000
0
VERTEX
8
0
10
-1.810000
20
0.874000
0
VERTEX
8
0
10
-1.829000
20
0.877000
0
VERTEX
8
0
10
-1.849000
20
0.878000
0
SEQEND
8
0
0
POLYLINE
8
0
66
1
40
0.008000
41
0.008000
0
VERTEX
8
0
10
-1.949000
20
0.828000
0
VERTEX
8
0
10
-1.947000
20
0.818000
0
VERTEX
8
0
10
-1.941000
20
0.808000
0
VERTEX
8
0
10
-1.932000
20
0.800000
0
VERTEX
8
0
10
-1.920000
20
0.792000
0
VERTEX
8
0
10
-1.905000
20
0.786000
0
VERTEX
8
0
10
-1.888000
20
0.782000
0
VERTEX
8
0
10
-1.869000
20
0.779000
0
VERTEX
8
0
10
-1.849000
20
0.778000
0
SEQEND
8
0
0
POLYLINE
8
0
66
1
40
0.008000
41
0.008000
0
VERTEX
8
0
10
-1.749000
20
0.828000
0
VERTEX
8
0
10
-1.751000
20
0.818000
0
VERTEX
8
0
10
-1.757000
20
0.808000
0
VERTEX
8
0
10
-1.766000
20
0.800000
0
VERTEX
8
0
10
-1.778000
20
0.792000
0
VERTEX
8
0
10
-1.793000
20
0.786000
0
VERTEX
8
0
10
-1.810000
20
0.782000
0
VERTEX
8
0
10
-1.829000
20
0.779000
0
VERTEX
8
0
10
-1.849000
20
0.778000
0
SEQEND
8
0
0
TEXT
8
12632256
10
-1.924000
20
0.888000
40
0.048000
41
1.041667
1
C23
0
POLYLINE
8
0
66
1
40
0.008000
41
0.008000
0
VERTEX
8
0
10
1.454000
20
-2.403000
0
VERTEX
8
0
10
1.454000
20
-2.003000
0
SEQEND
8
0
0
POLYLINE
8
0
66
1
40
0.008000
41
0.008000
0
VERTEX
8
0
10
0.854000
20
-2.403000
0
VERTEX
8
0
10
0.854000
20
-2.003000
0
SEQEND
8
0
0
POLYLINE
8
0
66
1
40
0.008000
41
0.008000
0
VERTEX
8
0
10
1.454000
20
-2.003000
0
VERTEX
8
0
10
0.854000
20
-2.003000
0
SEQEND
8
0
0
POLYLINE
8
0
66
1
40
0.008000
41
0.008000
0
VERTEX
8
0
10
0.854000
20
-2.403000
0
VERTEX
8
0
10
1.454000
20
-2.403000
0
SEQEND
8
0
0
TEXT
8
12632256
10
1.104000
20
-2.461000
40
0.048000
41
1.041667
1
J1
0
POLYLINE
8
0
66
1
40
0.008000
41
0.008000
0
VERTEX
8
0
10
0.729000
20
-1.750000
0
VERTEX
8
0
10
0.779000
20
-1.750000
0
SEQEND
8
0
0
POLYLINE
8
0
66
1
40
0.008000
41
0.008000
0
VERTEX
8
0
10
0.779000
20
-1.775000
0
VERTEX
8
0
10
0.979000
20
-1.775000
0
VERTEX
8
0
10
0.979000
20
-1.725000
0
VERTEX
8
0
10
0.779000
20
-1.725000
0
VERTEX
8
0
10
0.779000
20
-1.775000
0
SEQEND
8
0
0
POLYLINE
8
0
66
1
40
0.008000
41
0.008000
0
VERTEX
8
0
10
0.979000
20
-1.750000
0
VERTEX
8
0
10
1.029000
20
-1.750000
0
SEQEND
8
0
0
TEXT
8
12632256
10
0.804000
20
-1.715000
40
0.048000
41
1.041667
1
R21
0
POLYLINE
8
0
66
1
40
0.008000
41
0.008000
0
VERTEX
8
0
10
0.118000
20
-2.321000
0
VERTEX
8
0
10
0.168000
20
-2.321000
0
SEQEND
8
0
0
POLYLINE
8
0
66
1
40
0.008000
41
0.008000
0
VERTEX
8
0
10
0.168000
20
-2.346000
0
VERTEX
8
0
10
0.368000
20
-2.346000
0
VERTEX
8
0
10
0.368000
20
-2.296000
0
VERTEX
8
0
10
0.168000
20
-2.296000
0
VERTEX
8
0
10
0.168000
20
-2.346000
0
SEQEND
8
0
0
POLYLINE
8
0
66
1
40
0.008000
41
0.008000
0
VERTEX
8
0
10
0.368000
20
-2.321000
0
VERTEX
8
0
10
0.418000
20
-2.321000
0
SEQEND
8
0
0
TEXT
8
12632256
10
0.193000
20
-2.286000
40
0.048000
41
1.041667
1
R22
0
POLYLINE
8
0
66
1
40
0.008000
41
0.008000
0
VERTEX
8
0
10
-0.651000
20
-2.404000
0
VERTEX
8
0
10
-0.351000
20
-2.404000
0
VERTEX
8
0
10
-0.351000
20
-2.254000
0
VERTEX
8
0
10
-0.651000
20
-2.254000
0
VERTEX
8
0
10
-0.651000
20
-2.404000
0
SEQEND
8
0
0
POLYLINE
8
0
66
1
40
0.008000
41
0.008000
0
VERTEX
8
0
10
-0.551000
20
-2.104000
0
VERTEX
8
0
10
-0.451000
20
-2.104000
0
SEQEND
8
0
0
POLYLINE
8
0
66
1
40
0.008000
41
0.008000
0
VERTEX
8
0
10
-0.600000
20
-2.254000
0
VERTEX
8
0
10
-0.407000
20
-2.254000
0
VERTEX
8
0
10
-0.407000
20
-2.033000
0
VERTEX
8
0
10
-0.600000
20
-2.033000
0
VERTEX
8
0
10
-0.600000
20
-2.254000
0
SEQEND
8
0
0
TEXT
8
12632256
10
-0.773000
20
-2.161000
40
0.048000
41
1.041667
1
RV3
0
POLYLINE
8
0
66
1
40
0.008000
41
0.008000
0
VERTEX
8
0
10
-2.584000
20
1.785000
0
VERTEX
8
0
10
-1.206000
20
1.785000
0
VERTEX
8
0
10
-1.206000
20
2.273000
0
VERTEX
8
0
10
-2.584000
20
2.273000
0
VERTEX
8
0
10
-2.584000
20
1.785000
0
SEQEND
8
0
0
POLYLINE
8
0
66
1
40
0.008000
41
0.008000
0
VERTEX
8
0
10
-1.909000
20
-0.366000
0
VERTEX
8
0
10
-1.889000
20
-0.366000
0
VERTEX
8
0
10
-1.889000
20
-0.166000
0
VERTEX
8
0
10
-1.909000
20
-0.166000
0
VERTEX
8
0
10
-1.909000
20
-0.366000
0
SEQEND
8
0
0
POLYLINE
8
0
66
1
40
0.008000
41
0.008000
0
VERTEX
8
0
10
-1.811000
20
-0.366000
0
VERTEX
8
0
10
-1.791000
20
-0.366000
0
VERTEX
8
0
10
-1.791000
20
-0.166000
0
VERTEX
8
0
10
-1.811000
20
-0.166000
0
VERTEX
8
0
10
-1.811000
20
-0.366000
0
SEQEND
8
0
0
POLYLINE
8
0
66
1
40
0.008000
41
0.008000
0
VERTEX
8
0
10
-0.255000
20
1.802000
0
VERTEX
8
0
10
-0.055000
20
1.802000
0
VERTEX
8
0
10
-0.055000
20
1.822000
0
VERTEX
8
0
10
-0.255000
20
1.822000
0
VERTEX
8
0
10
-0.255000
20
1.802000
0
SEQEND
8
0
0
POLYLINE
8
0
66
1
40
0.008000
41
0.008000
0
VERTEX
8
0
10
0.315000
20
1.802000
0
VERTEX
8
0
10
0.515000
20
1.802000
0
VERTEX
8
0
10
0.515000
20
1.822000
0
VERTEX
8
0
10
0.315000
20
1.822000
0
VERTEX
8
0
10
0.315000
20
1.802000
0
SEQEND
8
0
0
POLYLINE
8
0
66
1
40
0.008000
41
0.008000
0
VERTEX
8
0
10
0.847000
20
1.802000
0
VERTEX
8
0
10
1.047000
20
1.802000
0
VERTEX
8
0
10
1.047000
20
1.822000
0
VERTEX
8
0
10
0.847000
20
1.822000
0
VERTEX
8
0
10
0.847000
20
1.802000
0
SEQEND
8
0
0
POLYLINE
8
0
66
1
40
0.008000
41
0.008000
0
VERTEX
8
0
10
1.457000
20
1.802000
0
VERTEX
8
0
10
1.657000
20
1.802000
0
VERTEX
8
0
10
1.657000
20
1.822000
0
VERTEX
8
0
10
1.457000
20
1.822000
0
VERTEX
8
0
10
1.457000
20
1.802000
0
SEQEND
8
0
0
POLYLINE
8
0
66
1
40
0.008000
41
0.008000
0
VERTEX
8
0
10
2.048000
20
1.802000
0
VERTEX
8
0
10
2.248000
20
1.802000
0
VERTEX
8
0
10
2.248000
20
1.822000
0
VERTEX
8
0
10
2.048000
20
1.822000
0
VERTEX
8
0
10
2.048000
20
1.802000
0
SEQEND
8
0
0
POLYLINE
8
0
66
1
40
0.008000
41
0.008000
0
VERTEX
8
0
10
2.574000
20
1.802000
0
VERTEX
8
0
10
3.248000
20
1.802000
0
VERTEX
8
0
10
3.248000
20
1.822000
0
VERTEX
8
0
10
2.574000
20
1.822000
0
VERTEX
8
0
10
2.574000
20
1.802000
0
SEQEND
8
0
0
POLYLINE
8
0
66
1
40
0.008000
41
0.008000
0
VERTEX
8
0
10
1.299000
20
-0.366000
0
VERTEX
8
0
10
1.319000
20
-0.366000
0
VERTEX
8
0
10
1.319000
20
-0.166000
0
VERTEX
8
0
10
1.299000
20
-0.166000
0
VERTEX
8
0
10
1.299000
20
-0.366000
0
SEQEND
8
0
0
POLYLINE
8
0
66
1
40
0.008000
41
0.008000
0
VERTEX
8
0
10
1.397000
20
-0.366000
0
VERTEX
8
0
10
1.417000
20
-0.366000
0
VERTEX
8
0
10
1.417000
20
-0.166000
0
VERTEX
8
0
10
1.397000
20
-0.166000
0
VERTEX
8
0
10
1.397000
20
-0.366000
0
SEQEND
8
0
0
POLYLINE
8
0
66
1
40
0.008000
41
0.008000
0
VERTEX
8
0
10
3.379000
20
-0.834000
0
VERTEX
8
0
10
3.429000
20
-0.834000
0
SEQEND
8
0
0
POLYLINE
8
0
66
1
40
0.008000
41
0.008000
0
VERTEX
8
0
10
3.229000
20
-0.834000
0
VERTEX
8
0
10
3.279000
20
-0.834000
0
SEQEND
8
0
0
POLYLINE
8
0
66
1
40
0.008000
41
0.008000
0
VERTEX
8
0
10
3.329000
20
-0.884000
0
VERTEX
8
0
10
3.339000
20
-0.883000
0
VERTEX
8
0
10
3.349000
20
-0.880000
0
VERTEX
8
0
10
3.357000
20
-0.876000
0
VERTEX
8
0
10
3.364000
20
-0.870000
0
VERTEX
8
0
10
3.370000
20
-0.863000
0
VERTEX
8
0
10
3.375000
20
-0.854000
0
VERTEX
8
0
10
3.378000
20
-0.844000
0
VERTEX
8
0
10
3.379000
20
-0.834000
0
SEQEND
8
0
0
POLYLINE
8
0
66
1
40
0.008000
41
0.008000
0
VERTEX
8
0
10
3.329000
20
-0.884000
0
VERTEX
8
0
10
3.319000
20
-0.883000
0
VERTEX
8
0
10
3.309000
20
-0.880000
0
VERTEX
8
0
10
3.300000
20
-0.876000
0
VERTEX
8
0
10
3.293000
20
-0.870000
0
VERTEX
8
0
10
3.287000
20
-0.863000
0
VERTEX
8
0
10
3.283000
20
-0.854000
0
VERTEX
8
0
10
3.280000
20
-0.844000
0
VERTEX
8
0
10
3.279000
20
-0.834000
0
SEQEND
8
0
0
POLYLINE
8
0
66
1
40
0.008000
41
0.008000
0
VERTEX
8
0
10
3.229000
20
-0.834000
0
VERTEX
8
0
10
3.229000
20
-1.534000
0
VERTEX
8
0
10
3.429000
20
-1.534000
0
VERTEX
8
0
10
3.429000
20
-0.834000
0
SEQEND
8
0
0
TEXT
8
12632256
10
3.254000
20
-0.824000
40
0.048000
41
1.041667
1
U20
0
POLYLINE
8
0
66
1
40
0.008000
41
0.008000
0
VERTEX
8
0
10
3.369000
20
-0.409000
0
VERTEX
8
0
10
3.469000
20
-0.409000
0
VERTEX
8
0
10
3.469000
20
-0.109000
0
VERTEX
8
0
10
3.369000
20
-0.109000
0
VERTEX
8
0
10
3.369000
20
-0.409000
0
VERTEX
8
0
10
3.319000
20
-0.409000
0
VERTEX
8
0
10
3.319000
20
-0.109000
0
VERTEX
8
0
10
3.369000
20
-0.109000
0
SEQEND
8
0
0
POLYLINE
8
0
66
1
40
0.008000
41
0.008000
0
VERTEX
8
0
10
3.369000
20
-0.409000
0
VERTEX
8
0
10
3.319000
20
-0.359000
0
SEQEND
8
0
0
POLYLINE
8
0
66
1
40
0.008000
41
0.008000
0
VERTEX
8
0
10
3.369000
20
-0.359000
0
VERTEX
8
0
10
3.319000
20
-0.309000
0
SEQEND
8
0
0
POLYLINE
8
0
66
1
40
0.008000
41
0.008000
0
VERTEX
8
0
10
3.369000
20
-0.309000
0
VERTEX
8
0
10
3.319000
20
-0.259000
0
SEQEND
8
0
0
POLYLINE
8
0
66
1
40
0.008000
41
0.008000
0
VERTEX
8
0
10
3.369000
20
-0.259000
0
VERTEX
8
0
10
3.319000
20
-0.209000
0
SEQEND
8
0
0
POLYLINE
8
0
66
1
40
0.008000
41
0.008000
0
VERTEX
8
0
10
3.369000
20
-0.209000
0
VERTEX
8
0
10
3.319000
20
-0.159000
0
SEQEND
8
0
0
POLYLINE
8
0
66
1
40
0.008000
41
0.008000
0
VERTEX
8
0
10
3.369000
20
-0.159000
0
VERTEX
8
0
10
3.319000
20
-0.109000
0
SEQEND
8
0
0
TEXT
8
12632256
10
3.309000
20
-0.309000
40
0.048000
41
1.041667
50
90.000000
1
Q1
0
POLYLINE
8
0
66
1
40
0.008000
41
0.008000
0
VERTEX
8
0
10
3.372000
20
0.076000
0
VERTEX
8
0
10
3.472000
20
0.076000
0
VERTEX
8
0
10
3.472000
20
0.376000
0
VERTEX
8
0
10
3.372000
20
0.376000
0
VERTEX
8
0
10
3.372000
20
0.076000
0
VERTEX
8
0
10
3.322000
20
0.076000
0
VERTEX
8
0
10
3.322000
20
0.376000
0
VERTEX
8
0
10
3.372000
20
0.376000
0
SEQEND
8
0
0
POLYLINE
8
0
66
1
40
0.008000
41
0.008000
0
VERTEX
8
0
10
3.372000
20
0.076000
0
VERTEX
8
0
10
3.322000
20
0.126000
0
SEQEND
8
0
0
POLYLINE
8
0
66
1
40
0.008000
41
0.008000
0
VERTEX
8
0
10
3.372000
20
0.126000
0
VERTEX
8
0
10
3.322000
20
0.176000
0
SEQEND
8
0
0
POLYLINE
8
0
66
1
40
0.008000
41
0.008000
0
VERTEX
8
0
10
3.372000
20
0.176000
0
VERTEX
8
0
10
3.322000
20
0.226000
0
SEQEND
8
0
0
POLYLINE
8
0
66
1
40
0.008000
41
0.008000
0
VERTEX
8
0
10
3.372000
20
0.226000
0
VERTEX
8
0
10
3.322000
20
0.276000
0
SEQEND
8
0
0
POLYLINE
8
0
66
1
40
0.008000
41
0.008000
0
VERTEX
8
0
10
3.372000
20
0.276000
0
VERTEX
8
0
10
3.322000
20
0.326000
0
SEQEND
8
0
0
POLYLINE
8
0
66
1
40
0.008000
41
0.008000
0
VERTEX
8
0
10
3.372000
20
0.326000
0
VERTEX
8
0
10
3.322000
20
0.376000
0
SEQEND
8
0
0
TEXT
8
12632256
10
3.450000
20
-0.079000
40
0.048000
41
1.041667
50
90.000000
1
Q2
0
POLYLINE
8
0
66
1
40
0.008000
41
0.008000
0
VERTEX
8
0
10
3.553000
20
-0.479000
0
VERTEX
8
0
10
3.553000
20
-0.429000
0
SEQEND
8
0
0
POLYLINE
8
0
66
1
40
0.008000
41
0.008000
0
VERTEX
8
0
10
3.528000
20
-0.429000
0
VERTEX
8
0
10
3.578000
20
-0.429000
0
VERTEX
8
0
10
3.578000
20
-0.229000
0
VERTEX
8
0
10
3.528000
20
-0.229000
0
VERTEX
8
0
10
3.528000
20
-0.429000
0
SEQEND
8
0
0
POLYLINE
8
0
66
1
40
0.008000
41
0.008000
0
VERTEX
8
0
10
3.553000
20
-0.229000
0
VERTEX
8
0
10
3.553000
20
-0.179000
0
SEQEND
8
0
0
TEXT
8
12632256
10
3.518000
20
-0.404000
40
0.048000
41
1.041667
50
90.000000
1
R38
0
POLYLINE
8
0
66
1
40
0.008000
41
0.008000
0
VERTEX
8
0
10
3.553000
20
0.045000
0
VERTEX
8
0
10
3.553000
20
0.095000
0
SEQEND
8
0
0
POLYLINE
8
0
66
1
40
0.008000
41
0.008000
0
VERTEX
8
0
10
3.528000
20
0.095000
0
VERTEX
8
0
10
3.578000
20
0.095000
0
VERTEX
8
0
10
3.578000
20
0.295000
0
VERTEX
8
0
10
3.528000
20
0.295000
0
VERTEX
8
0
10
3.528000
20
0.095000
0
SEQEND
8
0
0
POLYLINE
8
0
66
1
40
0.008000
41
0.008000
0
VERTEX
8
0
10
3.553000
20
0.295000
0
VERTEX
8
0
10
3.553000
20
0.345000
0
SEQEND
8
0
0
TEXT
8
12632256
10
3.518000
20
0.120000
40
0.048000
41
1.041667
50
90.000000
1
R40
0
POLYLINE
8
0
66
1
40
0.008000
41
0.008000
0
VERTEX
8
0
10
2.911000
20
-2.030000
0
VERTEX
8
0
10
3.211000
20
-2.030000
0
VERTEX
8
0
10
3.211000
20
-1.880000
0
VERTEX
8
0
10
2.911000
20
-1.880000
0
VERTEX
8
0
10
2.911000
20
-2.030000
0
SEQEND
8
0
0
POLYLINE
8
0
66
1
40
0.008000
41
0.008000
0
VERTEX
8
0
10
3.011000
20
-1.730000
0
VERTEX
8
0
10
3.111000
20
-1.730000
0
SEQEND
8
0
0
POLYLINE
8
0
66
1
40
0.008000
41
0.008000
0
VERTEX
8
0
10
2.962000
20
-1.880000
0
VERTEX
8
0
10
3.155000
20
-1.880000
0
VERTEX
8
0
10
3.155000
20
-1.659000
0
VERTEX
8
0
10
2.962000
20
-1.659000
0
VERTEX
8
0
10
2.962000
20
-1.880000
0
SEQEND
8
0
0
TEXT
8
12632256
10
2.986000
20
-1.649000
40
0.048000
41
1.041667
1
RV4
0
POLYLINE
8
0
66
1
40
0.008000
41
0.008000
0
VERTEX
8
0
10
3.285000
20
-2.030000
0
VERTEX
8
0
10
3.585000
20
-2.030000
0
VERTEX
8
0
10
3.585000
20
-1.880000
0
VERTEX
8
0
10
3.285000
20
-1.880000
0
VERTEX
8
0
10
3.285000
20
-2.030000
0
SEQEND
8
0
0
POLYLINE
8
0
66
1
40
0.008000
41
0.008000
0
VERTEX
8
0
10
3.385000
20
-1.730000
0
VERTEX
8
0
10
3.485000
20
-1.730000
0
SEQEND
8
0
0
POLYLINE
8
0
66
1
40
0.008000
41
0.008000
0
VERTEX
8
0
10
3.336000
20
-1.880000
0
VERTEX
8
0
10
3.529000
20
-1.880000
0
VERTEX
8
0
10
3.529000
20
-1.659000
0
VERTEX
8
0
10
3.336000
20
-1.659000
0
VERTEX
8
0
10
3.336000
20
-1.880000
0
SEQEND
8
0
0
TEXT
8
12632256
10
3.360000
20
-1.649000
40
0.048000
41
1.041667
1
RV5
0
POLYLINE
8
0
66
1
40
0.008000
41
0.008000
0
VERTEX
8
0
10
3.170000
20
-0.628000
0
VERTEX
8
0
10
3.220000
20
-0.628000
0
SEQEND
8
0
0
POLYLINE
8
0
66
1
40
0.008000
41
0.008000
0
VERTEX
8
0
10
3.220000
20
-0.653000
0
VERTEX
8
0
10
3.420000
20
-0.653000
0
VERTEX
8
0
10
3.420000
20
-0.603000
0
VERTEX
8
0
10
3.220000
20
-0.603000
0
VERTEX
8
0
10
3.220000
20
-0.653000
0
SEQEND
8
0
0
POLYLINE
8
0
66
1
40
0.008000
41
0.008000
0
VERTEX
8
0
10
3.420000
20
-0.628000
0
VERTEX
8
0
10
3.470000
20
-0.628000
0
SEQEND
8
0
0
TEXT
8
12632256
10
3.245000
20
-0.593000
40
0.048000
41
1.041667
1
R39
0
POLYLINE
8
0
66
1
40
0.008000
41
0.008000
0
VERTEX
8
0
10
3.170000
20
-0.746000
0
VERTEX
8
0
10
3.220000
20
-0.746000
0
SEQEND
8
0
0
POLYLINE
8
0
66
1
40
0.008000
41
0.008000
0
VERTEX
8
0
10
3.220000
20
-0.771000
0
VERTEX
8
0
10
3.420000
20
-0.771000
0
VERTEX
8
0
10
3.420000
20
-0.721000
0
VERTEX
8
0
10
3.220000
20
-0.721000
0
VERTEX
8
0
10
3.220000
20
-0.771000
0
SEQEND
8
0
0
POLYLINE
8
0
66
1
40
0.008000
41
0.008000
0
VERTEX
8
0
10
3.420000
20
-0.746000
0
VERTEX
8
0
10
3.470000
20
-0.746000
0
SEQEND
8
0
0
TEXT
8
12632256
10
3.245000
20
-0.711000
40
0.048000
41
1.041667
1
R41
0
POLYLINE
8
0
66
1
40
0.008000
41
0.008000
0
VERTEX
8
0
10
2.914000
20
-1.189000
0
VERTEX
8
0
10
3.014000
20
-1.189000
0
VERTEX
8
0
10
3.014000
20
-1.169000
0
VERTEX
8
0
10
2.914000
20
-1.169000
0
VERTEX
8
0
10
2.914000
20
-1.189000
0
SEQEND
8
0
0
POLYLINE
8
0
66
1
40
0.008000
41
0.008000
0
VERTEX
8
0
10
2.716000
20
-0.935000
0
VERTEX
8
0
10
2.736000
20
-0.935000
0
VERTEX
8
0
10
2.736000
20
-0.835000
0
VERTEX
8
0
10
2.716000
20
-0.835000
0
VERTEX
8
0
10
2.716000
20
-0.935000
0
SEQEND
8
0
0
POLYLINE
8
0
66
1
40
0.008000
41
0.008000
0
VERTEX
8
0
10
2.500000
20
-1.917000
0
VERTEX
8
0
10
2.700000
20
-1.917000
0
VERTEX
8
0
10
2.700000
20
-1.897000
0
VERTEX
8
0
10
2.500000
20
-1.897000
0
VERTEX
8
0
10
2.500000
20
-1.917000
0
SEQEND
8
0
0
POLYLINE
8
0
66
1
40
0.008000
41
0.008000
0
VERTEX
8
0
10
-0.530000
20
-1.957000
0
VERTEX
8
0
10
-0.430000
20
-1.957000
0
VERTEX
8
0
10
-0.430000
20
-1.937000
0
VERTEX
8
0
10
-0.530000
20
-1.937000
0
VERTEX
8
0
10
-0.530000
20
-1.957000
0
SEQEND
8
0
0
POLYLINE
8
0
66
1
40
0.008000
41
0.008000
0
VERTEX
8
0
10
-3.424000
20
0.031000
0
VERTEX
8
0
10
-3.224000
20
0.031000
0
VERTEX
8
0
10
-3.224000
20
0.051000
0
VERTEX
8
0
10
-3.424000
20
0.051000
0
VERTEX
8
0
10
-3.424000
20
0.031000
0
SEQEND
8
0
0
POLYLINE
8
0
66
1
40
0.000000
41
0.000000
0
VERTEX
8
0
10
1.536000
20
-2.425000
0
VERTEX
8
0
10
3.263000
20
-2.425000
0
VERTEX
8
0
10
3.263000
20
-2.079000
0
VERTEX
8
0
10
1.536000
20
-2.079000
0
VERTEX
8
0
10
1.536000
20
-2.425000
0
SEQEND
8
0
0
POLYLINE
8
0
66
1
40
0.008000
41
0.008000
0
VERTEX
8
0
10
-3.041000
20
0.789000
0
VERTEX
8
0
10
-2.155000
20
0.789000
0
VERTEX
8
0
10
-2.155000
20
1.418000
0
VERTEX
8
0
10
-3.041000
20
1.418000
0
VERTEX
8
0
10
-3.041000
20
0.789000
0
SEQEND
8
0
0
TEXT
8
12632256
10
-2.883000
20
1.250000
40
0.072000
41
1.250000
1
Control
0
TEXT
8
12632256
10
-2.883000
20
1.113000
40
0.072000
41
1.250000
1
Digital
0
TEXT
8
12632256
10
-2.982000
20
0.975000
40
0.072000
41
1.250000
1
Autoclave
0
TEXT
8
12632256
10
-2.805000
20
0.876000
40
0.072000
41
1.250000
1
2015
0
POLYLINE
8
0
66
1
40
0.008000
41
0.008000
0
VERTEX
8
0
10
0.039000
20
-1.191000
0
VERTEX
8
0
10
0.059000
20
-1.191000
0
VERTEX
8
0
10
0.059000
20
-1.091000
0
VERTEX
8
0
10
0.039000
20
-1.091000
0
VERTEX
8
0
10
0.039000
20
-1.191000
0
SEQEND
8
0
0
POLYLINE
8
0
66
1
40
0.008000
41
0.008000
0
VERTEX
8
0
10
0.177000
20
-1.445000
0
VERTEX
8
0
10
0.277000
20
-1.445000
0
VERTEX
8
0
10
0.277000
20
-1.425000
0
VERTEX
8
0
10
0.177000
20
-1.425000
0
VERTEX
8
0
10
0.177000
20
-1.445000
0
SEQEND
8
0
0
TEXT
8
12632256
10
-2.431000
20
0.542000
40
0.072000
41
1.250000
1
GLCD
0
TEXT
8
12632256
10
-1.427000
20
0.561000
40
0.072000
41
1.250000
1
1
0
TEXT
8
12632256
10
-3.021000
20
-0.875000
40
0.072000
41
1.250000
1
ANALOG
0
TEXT
8
12632256
10
-2.903000
20
-0.973000
40
0.072000
41
1.250000
1
AUX
0
TEXT
8
12632256
10
-2.273000
20
-0.855000
40
0.072000
41
1.250000
1
TECLAS
0
TEXT
8
12632256
10
-2.278000
20
-1.061000
40
0.040000
41
1.250000
50
90.000000
1
U
0
TEXT
8
12632256
10
-2.179000
20
-1.062000
40
0.040000
41
1.250000
50
90.000000
1
D
0
TEXT
8
12632256
10
-2.081000
20
-1.061000
40
0.040000
41
1.250000
50
90.000000
1
R
0
TEXT
8
12632256
10
-1.983000
20
-1.061000
40
0.040000
41
1.250000
50
90.000000
1
L
0
TEXT
8
12632256
10
-1.884000
20
-1.061000
40
0.040000
41
1.250000
50
90.000000
1
+
0
TEXT
8
12632256
10
-1.786000
20
-1.061000
40
0.040000
41
1.250000
50
90.000000
1
+
0
TEXT
8
12632256
10
-1.688000
20
-1.061000
40
0.040000
41
1.250000
50
90.000000
1
+
0
TEXT
8
12632256
10
-1.589000
20
-1.061000
40
0.040000
41
1.250000
50
90.000000
1
+
0
TEXT
8
12632256
10
-1.171000
20
-0.934000
40
0.072000
41
1.250000
1
AUX
0
TEXT
8
12632256
10
-1.171000
20
0.620000
40
0.072000
41
1.250000
1
COM
0
TEXT
8
12632256
10
-0.940000
20
0.514000
40
0.040000
41
1.250000
50
90.000000
1
TX
0
TEXT
8
12632256
10
-1.039000
20
0.514000
40
0.040000
41
1.250000
50
90.000000
1
RX
0
TEXT
8
12632256
10
1.958000
20
0.542000
40
0.072000
41
1.250000
1
COM
0
TEXT
8
12632256
10
2.189000
20
0.435000
40
0.040000
41
1.250000
50
90.000000
1
TX
0
TEXT
8
12632256
10
2.090000
20
0.435000
40
0.040000
41
1.250000
50
90.000000
1
RX
0
TEXT
8
12632256
10
3.114000
20
0.789000
40
0.040000
41
1.250000
50
90.000000
1
+
0
TEXT
8
12632256
10
3.114000
20
0.533000
40
0.040000
41
1.250000
50
90.000000
1
GND
0
TEXT
8
12632256
10
-1.328000
20
-1.605000
40
0.056000
41
1.250000
1
LM317
0
TEXT
8
12632256
10
-0.334000
20
-2.363000
40
0.056000
41
1.250000
1
GAIN
0
TEXT
8
12632256
10
0.954000
20
-1.898000
40
0.072000
41
1.250000
1
PT100
0
TEXT
8
12632256
10
0.976000
20
-1.966000
40
0.040000
41
1.250000
50
90.000000
1
A
0
TEXT
8
12632256
10
1.166000
20
-1.966000
40
0.040000
41
1.250000
50
90.000000
1
B
0
TEXT
8
12632256
10
1.375000
20
-1.966000
40
0.040000
41
1.250000
50
90.000000
1
B'
0
TEXT
8
12632256
10
1.559000
20
-1.395000
40
0.040000
41
1.250000
50
90.000000
1
AO2
0
TEXT
8
12632256
10
1.461000
20
-1.395000
40
0.040000
41
1.250000
50
90.000000
1
AO1
0
TEXT
8
12632256
10
1.363000
20
-1.395000
40
0.040000
41
1.250000
50
90.000000
1
GND
0
TEXT
8
12632256
10
2.583000
20
-1.415000
40
0.040000
41
1.250000
50
90.000000
1
VCC
0
TEXT
8
12632256
10
2.485000
20
-1.415000
40
0.040000
41
1.250000
50
90.000000
1
L-CA
0
TEXT
8
12632256
10
2.367000
20
-1.415000
40
0.040000
41
1.250000
50
90.000000
1
L-RE
0
TEXT
8
12632256
10
2.624000
20
-0.624000
40
0.056000
41
1.250000
50
90.000000
1
USB
0
TEXT
8
12632256
10
2.667000
20
-0.538000
40
0.040000
41
1.250000
1
D-
0
TEXT
8
12632256
10
2.667000
20
-0.636000
40
0.040000
41
1.250000
1
D+
0
TEXT
8
12632256
10
2.644000
20
-0.715000
40
0.040000
41
1.250000
1
VCC
0
TEXT
8
12632256
10
2.644000
20
-0.420000
40
0.040000
41
1.250000
1
GND
0
TEXT
8
12632256
10
-0.373000
20
-0.529000
40
0.072000
41
1.250000
50
90.000000
1
DIGITAL IN
0
TEXT
8
12632256
10
0.127000
20
-0.272000
40
0.040000
41
1.250000
1
D4
0
TEXT
8
12632256
10
0.127000
20
-0.173000
40
0.040000
41
1.250000
1
D5
0
TEXT
8
12632256
10
0.127000
20
-0.075000
40
0.040000
41
1.250000
1
D6
0
TEXT
8
12632256
10
0.127000
20
0.023000
40
0.040000
41
1.250000
1
D7
0
TEXT
8
12632256
10
0.127000
20
0.121000
40
0.040000
41
1.250000
1
GND
0
TEXT
8
12632256
10
0.118000
20
0.230000
40
0.040000
41
1.250000
1
VCC
0
TEXT
8
12632256
10
2.568000
20
-0.114000
40
0.040000
41
1.250000
1
D3
0
TEXT
8
12632256
10
2.568000
20
0.004000
40
0.040000
41
1.250000
1
D2
0
TEXT
8
12632256
10
2.529000
20
-0.213000
40
0.040000
41
1.250000
1
GND
0
TEXT
8
12632256
10
-3.066000
20
1.670000
40
0.072000
41
1.250000
1
VAC
0
TEXT
8
12632256
10
2.982000
20
1.027000
40
0.040000
41
1.250000
1
L1
0
TEXT
8
12632256
10
2.962000
20
1.223000
40
0.040000
41
1.250000
1
L2
0
TEXT
8
12632256
10
2.962000
20
1.440000
40
0.040000
41
1.250000
1
NEU
0
TEXT
8
12632256
10
3.236000
20
2.344000
40
0.040000
41
1.250000
50
90.000000
1
L2
0
TEXT
8
12632256
10
2.606000
20
2.344000
40
0.040000
41
1.250000
50
90.000000
1
L2
0
TEXT
8
12632256
10
1.956000
20
2.344000
40
0.040000
41
1.250000
50
90.000000
1
L2
0
TEXT
8
12632256
10
1.326000
20
2.344000
40
0.040000
41
1.250000
50
90.000000
1
L2
0
TEXT
8
12632256
10
0.716000
20
2.344000
40
0.040000
41
1.250000
50
90.000000
1
L2
0
TEXT
8
12632256
10
0.047000
20
2.344000
40
0.040000
41
1.250000
50
90.000000
1
L2
0
TEXT
8
12632256
10
-0.582000
20
2.344000
40
0.040000
41
1.250000
50
90.000000
1
L2
0
TEXT
8
12632256
10
3.039000
20
2.324000
40
0.040000
41
1.250000
50
90.000000
1
NEU
0
TEXT
8
12632256
10
2.409000
20
2.324000
40
0.040000
41
1.250000
50
90.000000
1
NEU
0
TEXT
8
12632256
10
1.740000
20
2.324000
40
0.040000
41
1.250000
50
90.000000
1
NEU
0
TEXT
8
12632256
10
1.090000
20
2.324000
40
0.040000
41
1.250000
50
90.000000
1
NEU
0
TEXT
8
12632256
10
0.460000
20
2.324000
40
0.040000
41
1.250000
50
90.000000
1
NEU
0
TEXT
8
12632256
10
-0.188000
20
2.324000
40
0.040000
41
1.250000
50
90.000000
1
NEU
0
TEXT
8
12632256
10
-0.779000
20
2.324000
40
0.040000
41
1.250000
50
90.000000
1
NEU
0
TEXT
8
12632256
10
2.823000
20
2.344000
40
0.040000
41
1.250000
50
90.000000
1
EV
0
TEXT
8
12632256
10
2.882000
20
2.324000
40
0.040000
41
1.250000
50
90.000000
1
DES
0
TEXT
8
12632256
10
2.173000
20
2.344000
40
0.040000
41
1.250000
50
90.000000
1
EV
0
TEXT
8
12632256
10
2.232000
20
2.324000
40
0.040000
41
1.250000
50
90.000000
1
AGU
0
TEXT
8
12632256
10
1.523000
20
2.344000
40
0.040000
41
1.250000
50
90.000000
1
EV
0
TEXT
8
12632256
10
1.582000
20
2.304000
40
0.040000
41
1.250000
50
90.000000
1
TRA
0
TEXT
8
12632256
10
0.893000
20
2.324000
40
0.040000
41
1.250000
50
90.000000
1
EV
0
TEXT
8
12632256
10
0.952000
20
2.304000
40
0.040000
41
1.250000
50
90.000000
1
INA
0
TEXT
8
12632256
10
0.244000
20
2.303000
40
0.040000
41
1.250000
50
90.000000
1
MOT
0
TEXT
8
12632256
10
0.303000
20
2.303000
40
0.040000
41
1.250000
50
90.000000
1
PUE
0
TEXT
8
12632256
10
-0.405000
20
2.304000
40
0.040000
41
1.250000
50
90.000000
1
BOM
0
TEXT
8
12632256
10
-0.346000
20
2.304000
40
0.040000
41
1.250000
50
90.000000
1
VAC
0
TEXT
8
12632256
10
-1.015000
20
2.304000
40
0.040000
41
1.250000
50
90.000000
1
BOM
0
TEXT
8
12632256
10
-0.956000
20
2.304000
40
0.040000
41
1.250000
50
90.000000
1
AGU
0
TEXT
8
12632256
10
-1.309000
20
1.328000
40
0.064000
41
1.250000
1
JDPE
0
TEXT
8
12632256
10
-2.417000
20
0.035000
40
0.064000
41
1.250000
1
GLCD_CONTROLLER
0
POLYLINE
8
0
66
1
40
0.008000
41
0.008000
0
VERTEX
8
0
10
2.970000
20
0.136000
0
VERTEX
8
0
10
3.220000
20
0.136000
0
VERTEX
8
0
10
3.220000
20
0.436000
0
VERTEX
8
0
10
2.970000
20
0.436000
0
VERTEX
8
0
10
2.970000
20
0.136000
0
SEQEND
8
0
0
POLYLINE
8
0
66
1
40
0.008000
41
0.008000
0
VERTEX
8
0
10
3.020000
20
0.136000
0
VERTEX
8
0
10
3.020000
20
0.436000
0
SEQEND
8
0
0
TEXT
8
12632256
10
2.998000
20
0.439000
40
0.048000
41
1.041667
1
J24
0
POLYLINE
8
0
66
1
40
0.008000
41
0.008000
0
VERTEX
8
0
10
-0.098000
20
-1.193000
0
VERTEX
8
0
10
-0.078000
20
-1.193000
0
VERTEX
8
0
10
-0.078000
20
-0.993000
0
VERTEX
8
0
10
-0.098000
20
-0.993000
0
VERTEX
8
0
10
-0.098000
20
-1.193000
0
SEQEND
8
0
0
POLYLINE
8
0
66
1
40
0.008000
41
0.008000
0
VERTEX
8
0
10
-3.310000
20
0.547000
0
VERTEX
8
0
10
-3.035000
20
0.547000
0
VERTEX
8
0
10
-3.035000
20
0.567000
0
VERTEX
8
0
10
-3.310000
20
0.567000
0
VERTEX
8
0
10
-3.310000
20
0.547000
0
SEQEND
8
0
0
POLYLINE
8
0
66
1
40
0.008000
41
0.008000
0
VERTEX
8
0
10
2.970000
20
-0.216000
0
VERTEX
8
0
10
3.220000
20
-0.216000
0
VERTEX
8
0
10
3.220000
20
0.083000
0
VERTEX
8
0
10
2.970000
20
0.083000
0
VERTEX
8
0
10
2.970000
20
-0.216000
0
SEQEND
8
0
0
POLYLINE
8
0
66
1
40
0.008000
41
0.008000
0
VERTEX
8
0
10
3.020000
20
-0.216000
0
VERTEX
8
0
10
3.020000
20
0.083000
0
SEQEND
8
0
0
TEXT
8
12632256
10
3.057000
20
-0.287000
40
0.048000
41
1.041667
1
J23
0
POLYLINE
8
0
66
1
40
0.008000
41
0.008000
0
VERTEX
8
0
10
3.307000
20
-0.520000
0
VERTEX
8
0
10
3.407000
20
-0.520000
0
VERTEX
8
0
10
3.407000
20
-0.500000
0
VERTEX
8
0
10
3.307000
20
-0.500000
0
VERTEX
8
0
10
3.307000
20
-0.520000
0
SEQEND
8
0
0
POLYLINE
8
0
66
1
40
0.008000
41
0.008000
0
VERTEX
8
0
10
3.267000
20
0.106000
0
VERTEX
8
0
10
3.287000
20
0.106000
0
VERTEX
8
0
10
3.287000
20
0.306000
0
VERTEX
8
0
10
3.267000
20
0.306000
0
VERTEX
8
0
10
3.267000
20
0.106000
0
SEQEND
8
0
0
TEXT
8
12632256
10
2.864000
20
0.325000
40
0.072000
41
1.250000
1
+
0
TEXT
8
12632256
10
2.844000
20
0.223000
40
0.040000
41
1.250000
1
ET
0
TEXT
8
12632256
10
3.238000
20
-0.111000
40
0.040000
41
1.250000
1
ER
0
TEXT
8
12632256
10
3.238000
20
-0.068000
40
0.072000
41
1.250000
1
+
0
TEXT
8
12632256
10
-0.344000
20
-0.268000
40
0.040000
41
1.250000
1
STOP
0
TEXT
8
12632256
10
-0.344000
20
-0.170000
40
0.040000
41
1.250000
1
DOOR
0
TEXT
8
12632256
10
-0.344000
20
-0.072000
40
0.040000
41
1.250000
1
TERM
0
TEXT
8
12632256
10
-0.344000
20
0.046000
40
0.040000
41
1.250000
1
AUX
0
ENDSEC
0
EOF

