G04 PROTEUS RS274X GERBER FILE*
%FSLAX45Y45*%
%MOMM*%
G01*
%ADD19C,0.203200*%
%ADD31C,0.195580*%
%ADD32C,1.036320*%
%ADD33C,1.315080*%
%ADD34C,0.121920*%
%ADD35C,0.842580*%
%ADD36C,0.579120*%
%ADD37C,0.316990*%
%ADD38C,0.164590*%
%ADD39C,0.321730*%
%ADD40C,0.345440*%
%ADD41C,0.393190*%
%ADD42C,0.197270*%
%ADD43C,0.386080*%
%ADD44C,0.514770*%
%ADD45C,0.240790*%
%ADD46C,0.240200*%
%ADD47C,0.322580*%
%ADD48C,0.235370*%
%ADD49C,0.132080*%
%ADD50C,0.176100*%
%ADD51C,0.259080*%
D19*
X+10160Y+160D02*
X+12780160Y+160D01*
X+12780160Y+11320160D01*
X+10160Y+11320160D01*
X+10160Y+160D01*
X+284760Y+3999200D02*
X+686080Y+3999200D01*
X+686080Y+4781520D01*
X+284760Y+4781520D01*
X+284760Y+3999200D01*
D31*
X+426746Y+4155664D02*
X+524536Y+4155664D01*
X+544094Y+4175222D01*
X+544094Y+4253454D01*
X+524536Y+4273012D01*
X+426746Y+4273012D01*
X+446304Y+4331686D02*
X+426746Y+4351244D01*
X+426746Y+4409918D01*
X+446304Y+4429476D01*
X+465862Y+4429476D01*
X+485420Y+4409918D01*
X+504978Y+4429476D01*
X+524536Y+4429476D01*
X+544094Y+4409918D01*
X+544094Y+4351244D01*
X+524536Y+4331686D01*
X+485420Y+4370802D02*
X+485420Y+4409918D01*
X+524536Y+4468592D02*
X+446304Y+4468592D01*
X+426746Y+4488150D01*
X+426746Y+4566382D01*
X+446304Y+4585940D01*
X+524536Y+4585940D01*
X+544094Y+4566382D01*
X+544094Y+4488150D01*
X+524536Y+4468592D01*
X+544094Y+4468592D02*
X+426746Y+4585940D01*
D19*
X+181760Y+2630200D02*
X+1442080Y+2630200D01*
X+1442080Y+6150520D01*
X+181760Y+6150520D01*
X+181760Y+2630200D01*
X+2718400Y+3166840D02*
X+4445600Y+3166840D01*
X+4445600Y+8267160D01*
X+2718400Y+8267160D01*
X+2718400Y+3166840D01*
D32*
X+3271104Y+4887944D02*
X+3789264Y+4887944D01*
X+3892896Y+4991576D01*
X+3892896Y+5406104D01*
X+3789264Y+5509736D01*
X+3271104Y+5509736D01*
X+3478368Y+5924264D02*
X+3271104Y+6131528D01*
X+3892896Y+6131528D01*
D19*
X+7383840Y+7177840D02*
X+12644160Y+7177840D01*
X+12644160Y+9918160D01*
X+7383840Y+9918160D01*
X+7383840Y+7177840D01*
D33*
X+8435904Y+8153476D02*
X+8435904Y+8942524D01*
X+9093444Y+8942524D01*
X+9224952Y+8811016D01*
X+9224952Y+8679508D01*
X+9093444Y+8548000D01*
X+8435904Y+8548000D01*
X+9487968Y+8942524D02*
X+9487968Y+8153476D01*
X+9882492Y+8548000D01*
X+10277016Y+8153476D01*
X+10277016Y+8942524D01*
X+10803048Y+8679508D02*
X+11066064Y+8942524D01*
X+11066064Y+8153476D01*
D19*
X+1436400Y+8246400D02*
X+2655600Y+8246400D01*
X+2655600Y+8449600D01*
X+1436400Y+8449600D01*
X+1436400Y+8246400D01*
D34*
X+1948464Y+8311424D02*
X+1948464Y+8384576D01*
X+2009424Y+8384576D01*
X+2021616Y+8372384D01*
X+2021616Y+8360192D01*
X+2009424Y+8348000D01*
X+1948464Y+8348000D01*
X+2009424Y+8348000D02*
X+2021616Y+8335808D01*
X+2021616Y+8311424D01*
X+2070384Y+8360192D02*
X+2094768Y+8384576D01*
X+2094768Y+8311424D01*
D19*
X+8597840Y+95840D02*
X+11968160Y+95840D01*
X+11968160Y+2467600D01*
X+8597840Y+2467600D01*
X+8597840Y+95840D01*
D35*
X+9271904Y+1113204D02*
X+9356162Y+1028946D01*
X+9693194Y+1028946D01*
X+9777452Y+1113204D01*
X+9777452Y+1197462D01*
X+9693194Y+1281720D01*
X+9356162Y+1281720D01*
X+9271904Y+1365978D01*
X+9271904Y+1450236D01*
X+9356162Y+1534494D01*
X+9693194Y+1534494D01*
X+9777452Y+1450236D01*
X+9945968Y+1028946D02*
X+9945968Y+1534494D01*
X+10367258Y+1534494D01*
X+10451516Y+1450236D01*
X+10451516Y+1365978D01*
X+10367258Y+1281720D01*
X+9945968Y+1281720D01*
X+10788548Y+1365978D02*
X+10957064Y+1534494D01*
X+10957064Y+1028946D01*
D19*
X+5043840Y+147840D02*
X+8414160Y+147840D01*
X+8414160Y+2519600D01*
X+5043840Y+2519600D01*
X+5043840Y+147840D01*
D35*
X+5717904Y+1165204D02*
X+5802162Y+1080946D01*
X+6139194Y+1080946D01*
X+6223452Y+1165204D01*
X+6223452Y+1249462D01*
X+6139194Y+1333720D01*
X+5802162Y+1333720D01*
X+5717904Y+1417978D01*
X+5717904Y+1502236D01*
X+5802162Y+1586494D01*
X+6139194Y+1586494D01*
X+6223452Y+1502236D01*
X+6391968Y+1080946D02*
X+6391968Y+1586494D01*
X+6813258Y+1586494D01*
X+6897516Y+1502236D01*
X+6897516Y+1417978D01*
X+6813258Y+1333720D01*
X+6391968Y+1333720D01*
X+7150290Y+1502236D02*
X+7234548Y+1586494D01*
X+7487322Y+1586494D01*
X+7571580Y+1502236D01*
X+7571580Y+1417978D01*
X+7487322Y+1333720D01*
X+7234548Y+1333720D01*
X+7150290Y+1249462D01*
X+7150290Y+1080946D01*
X+7571580Y+1080946D01*
D19*
X+1678840Y+8632400D02*
X+3477160Y+8632400D01*
X+3477160Y+9597600D01*
X+1678840Y+9597600D01*
X+1678840Y+8632400D01*
D36*
X+2114704Y+9288736D02*
X+2114704Y+8999176D01*
X+2172616Y+8941264D01*
X+2404264Y+8941264D01*
X+2462176Y+8999176D01*
X+2462176Y+9288736D01*
X+2635912Y+9230824D02*
X+2693824Y+9288736D01*
X+2867560Y+9288736D01*
X+2925472Y+9230824D01*
X+2925472Y+9172912D01*
X+2867560Y+9115000D01*
X+2693824Y+9115000D01*
X+2635912Y+9057088D01*
X+2635912Y+8941264D01*
X+2925472Y+8941264D01*
D19*
X+2065840Y+4209840D02*
X+2594160Y+4209840D01*
X+2594160Y+5246160D01*
X+2065840Y+5246160D01*
X+2065840Y+4209840D01*
D37*
X+2234903Y+4474407D02*
X+2425098Y+4664601D01*
X+2425098Y+4474407D02*
X+2234903Y+4664601D01*
X+2298301Y+4791398D02*
X+2234903Y+4854796D01*
X+2425098Y+4854796D01*
D19*
X+1481840Y+4334840D02*
X+2010160Y+4334840D01*
X+2010160Y+4609160D01*
X+1481840Y+4609160D01*
X+1481840Y+4334840D01*
D38*
X+1713081Y+4439081D02*
X+1696622Y+4422622D01*
X+1647245Y+4422622D01*
X+1614327Y+4455540D01*
X+1614327Y+4488459D01*
X+1647245Y+4521377D01*
X+1696622Y+4521377D01*
X+1713081Y+4504918D01*
X+1778918Y+4472000D02*
X+1762459Y+4488459D01*
X+1762459Y+4504918D01*
X+1778918Y+4521377D01*
X+1828295Y+4521377D01*
X+1844754Y+4504918D01*
X+1844754Y+4488459D01*
X+1828295Y+4472000D01*
X+1778918Y+4472000D01*
X+1762459Y+4455540D01*
X+1762459Y+4439081D01*
X+1778918Y+4422622D01*
X+1828295Y+4422622D01*
X+1844754Y+4439081D01*
X+1844754Y+4455540D01*
X+1828295Y+4472000D01*
D19*
X+1481840Y+4834840D02*
X+2010160Y+4834840D01*
X+2010160Y+5109160D01*
X+1481840Y+5109160D01*
X+1481840Y+4834840D01*
D38*
X+1713081Y+4939081D02*
X+1696622Y+4922622D01*
X+1647245Y+4922622D01*
X+1614327Y+4955540D01*
X+1614327Y+4988459D01*
X+1647245Y+5021377D01*
X+1696622Y+5021377D01*
X+1713081Y+5004918D01*
X+1844754Y+4988459D02*
X+1828295Y+4972000D01*
X+1778918Y+4972000D01*
X+1762459Y+4988459D01*
X+1762459Y+5004918D01*
X+1778918Y+5021377D01*
X+1828295Y+5021377D01*
X+1844754Y+5004918D01*
X+1844754Y+4939081D01*
X+1828295Y+4922622D01*
X+1778918Y+4922622D01*
D19*
X+8188960Y+5823330D02*
X+9154160Y+5823330D01*
X+9154160Y+6605650D01*
X+8188960Y+6605650D01*
X+8188960Y+5823330D01*
D39*
X+8414174Y+6311010D02*
X+8414174Y+6150143D01*
X+8446347Y+6117970D01*
X+8575040Y+6117970D01*
X+8607213Y+6150143D01*
X+8607213Y+6311010D01*
X+8703733Y+6278837D02*
X+8735906Y+6311010D01*
X+8832426Y+6311010D01*
X+8864599Y+6278837D01*
X+8864599Y+6246663D01*
X+8832426Y+6214490D01*
X+8864599Y+6182317D01*
X+8864599Y+6150143D01*
X+8832426Y+6117970D01*
X+8735906Y+6117970D01*
X+8703733Y+6150143D01*
X+8768079Y+6214490D02*
X+8832426Y+6214490D01*
D19*
X+11364660Y+2767820D02*
X+12400980Y+2767820D01*
X+12400980Y+3804140D01*
X+11364660Y+3804140D01*
X+11364660Y+2767820D01*
D40*
X+11917364Y+3009628D02*
X+11951908Y+3009628D01*
X+11986452Y+3044172D01*
X+11986452Y+3182348D01*
X+11951908Y+3216892D01*
X+11779188Y+3216892D01*
X+11848276Y+3355068D02*
X+11779188Y+3424156D01*
X+11986452Y+3424156D01*
D19*
X+11369660Y+3892320D02*
X+12405980Y+3892320D01*
X+12405980Y+4928640D01*
X+11369660Y+4928640D01*
X+11369660Y+3892320D01*
D40*
X+11922364Y+4134128D02*
X+11956908Y+4134128D01*
X+11991452Y+4168672D01*
X+11991452Y+4306848D01*
X+11956908Y+4341392D01*
X+11784188Y+4341392D01*
X+11818732Y+4445024D02*
X+11784188Y+4479568D01*
X+11784188Y+4583200D01*
X+11818732Y+4617744D01*
X+11853276Y+4617744D01*
X+11887820Y+4583200D01*
X+11887820Y+4479568D01*
X+11922364Y+4445024D01*
X+11991452Y+4445024D01*
X+11991452Y+4617744D01*
D19*
X+11379820Y+4993880D02*
X+12416140Y+4993880D01*
X+12416140Y+6030200D01*
X+11379820Y+6030200D01*
X+11379820Y+4993880D01*
D40*
X+11932524Y+5235688D02*
X+11967068Y+5235688D01*
X+12001612Y+5270232D01*
X+12001612Y+5408408D01*
X+11967068Y+5442952D01*
X+11794348Y+5442952D01*
X+11828892Y+5546584D02*
X+11794348Y+5581128D01*
X+11794348Y+5684760D01*
X+11828892Y+5719304D01*
X+11863436Y+5719304D01*
X+11897980Y+5684760D01*
X+11932524Y+5719304D01*
X+11967068Y+5719304D01*
X+12001612Y+5684760D01*
X+12001612Y+5581128D01*
X+11967068Y+5546584D01*
X+11897980Y+5615672D02*
X+11897980Y+5684760D01*
D19*
X+1825840Y+5299840D02*
X+2481160Y+5299840D01*
X+2481160Y+7606160D01*
X+1825840Y+7606160D01*
X+1825840Y+5299840D01*
D41*
X+2192820Y+6138447D02*
X+2232139Y+6138447D01*
X+2271458Y+6177766D01*
X+2271458Y+6335042D01*
X+2232139Y+6374361D01*
X+2035543Y+6374361D01*
X+2035543Y+6492319D02*
X+2035543Y+6688914D01*
X+2074862Y+6688914D01*
X+2271458Y+6492319D01*
D19*
X+526400Y+7246400D02*
X+1745600Y+7246400D01*
X+1745600Y+7449600D01*
X+526400Y+7449600D01*
X+526400Y+7246400D01*
D34*
X+989696Y+7311424D02*
X+989696Y+7384576D01*
X+1050656Y+7384576D01*
X+1062848Y+7372384D01*
X+1062848Y+7360192D01*
X+1050656Y+7348000D01*
X+989696Y+7348000D01*
X+1050656Y+7348000D02*
X+1062848Y+7335808D01*
X+1062848Y+7311424D01*
X+1099424Y+7372384D02*
X+1111616Y+7384576D01*
X+1148192Y+7384576D01*
X+1160384Y+7372384D01*
X+1160384Y+7360192D01*
X+1148192Y+7348000D01*
X+1160384Y+7335808D01*
X+1160384Y+7323616D01*
X+1148192Y+7311424D01*
X+1111616Y+7311424D01*
X+1099424Y+7323616D01*
X+1123808Y+7348000D02*
X+1148192Y+7348000D01*
X+1196960Y+7372384D02*
X+1209152Y+7384576D01*
X+1245728Y+7384576D01*
X+1257920Y+7372384D01*
X+1257920Y+7360192D01*
X+1245728Y+7348000D01*
X+1257920Y+7335808D01*
X+1257920Y+7323616D01*
X+1245728Y+7311424D01*
X+1209152Y+7311424D01*
X+1196960Y+7323616D01*
X+1221344Y+7348000D02*
X+1245728Y+7348000D01*
D19*
X+526400Y+6946400D02*
X+1745600Y+6946400D01*
X+1745600Y+7149600D01*
X+526400Y+7149600D01*
X+526400Y+6946400D01*
D34*
X+989696Y+7011424D02*
X+989696Y+7084576D01*
X+1050656Y+7084576D01*
X+1062848Y+7072384D01*
X+1062848Y+7060192D01*
X+1050656Y+7048000D01*
X+989696Y+7048000D01*
X+1050656Y+7048000D02*
X+1062848Y+7035808D01*
X+1062848Y+7011424D01*
X+1099424Y+7072384D02*
X+1111616Y+7084576D01*
X+1148192Y+7084576D01*
X+1160384Y+7072384D01*
X+1160384Y+7060192D01*
X+1148192Y+7048000D01*
X+1160384Y+7035808D01*
X+1160384Y+7023616D01*
X+1148192Y+7011424D01*
X+1111616Y+7011424D01*
X+1099424Y+7023616D01*
X+1123808Y+7048000D02*
X+1148192Y+7048000D01*
X+1257920Y+7035808D02*
X+1184768Y+7035808D01*
X+1233536Y+7084576D01*
X+1233536Y+7011424D01*
D19*
X+536400Y+6646400D02*
X+1755600Y+6646400D01*
X+1755600Y+6849600D01*
X+536400Y+6849600D01*
X+536400Y+6646400D01*
D34*
X+999696Y+6711424D02*
X+999696Y+6784576D01*
X+1060656Y+6784576D01*
X+1072848Y+6772384D01*
X+1072848Y+6760192D01*
X+1060656Y+6748000D01*
X+999696Y+6748000D01*
X+1060656Y+6748000D02*
X+1072848Y+6735808D01*
X+1072848Y+6711424D01*
X+1109424Y+6772384D02*
X+1121616Y+6784576D01*
X+1158192Y+6784576D01*
X+1170384Y+6772384D01*
X+1170384Y+6760192D01*
X+1158192Y+6748000D01*
X+1170384Y+6735808D01*
X+1170384Y+6723616D01*
X+1158192Y+6711424D01*
X+1121616Y+6711424D01*
X+1109424Y+6723616D01*
X+1133808Y+6748000D02*
X+1158192Y+6748000D01*
X+1267920Y+6784576D02*
X+1206960Y+6784576D01*
X+1206960Y+6760192D01*
X+1255728Y+6760192D01*
X+1267920Y+6748000D01*
X+1267920Y+6723616D01*
X+1255728Y+6711424D01*
X+1219152Y+6711424D01*
X+1206960Y+6723616D01*
D19*
X+526400Y+6336400D02*
X+1745600Y+6336400D01*
X+1745600Y+6539600D01*
X+526400Y+6539600D01*
X+526400Y+6336400D01*
D34*
X+989696Y+6401424D02*
X+989696Y+6474576D01*
X+1050656Y+6474576D01*
X+1062848Y+6462384D01*
X+1062848Y+6450192D01*
X+1050656Y+6438000D01*
X+989696Y+6438000D01*
X+1050656Y+6438000D02*
X+1062848Y+6425808D01*
X+1062848Y+6401424D01*
X+1099424Y+6462384D02*
X+1111616Y+6474576D01*
X+1148192Y+6474576D01*
X+1160384Y+6462384D01*
X+1160384Y+6450192D01*
X+1148192Y+6438000D01*
X+1160384Y+6425808D01*
X+1160384Y+6413616D01*
X+1148192Y+6401424D01*
X+1111616Y+6401424D01*
X+1099424Y+6413616D01*
X+1123808Y+6438000D02*
X+1148192Y+6438000D01*
X+1257920Y+6462384D02*
X+1245728Y+6474576D01*
X+1209152Y+6474576D01*
X+1196960Y+6462384D01*
X+1196960Y+6413616D01*
X+1209152Y+6401424D01*
X+1245728Y+6401424D01*
X+1257920Y+6413616D01*
X+1257920Y+6425808D01*
X+1245728Y+6438000D01*
X+1196960Y+6438000D01*
D19*
X+1803340Y+2733840D02*
X+2395160Y+2733840D01*
X+2395160Y+3325660D01*
X+1803340Y+3325660D01*
X+1803340Y+2733840D01*
D42*
X+1941432Y+2970568D02*
X+1941432Y+3088932D01*
X+2020341Y+3088932D01*
X+2059795Y+3049477D01*
X+2059795Y+3010023D01*
X+2020341Y+2970568D01*
X+1941432Y+2970568D01*
X+2118977Y+3069205D02*
X+2138704Y+3088932D01*
X+2197886Y+3088932D01*
X+2217613Y+3069205D01*
X+2217613Y+3049477D01*
X+2197886Y+3029750D01*
X+2138704Y+3029750D01*
X+2118977Y+3010023D01*
X+2118977Y+2970568D01*
X+2217613Y+2970568D01*
D19*
X+1532400Y+2760400D02*
X+1735600Y+2760400D01*
X+1735600Y+3979600D01*
X+1532400Y+3979600D01*
X+1532400Y+2760400D01*
D34*
X+1670576Y+3223696D02*
X+1597424Y+3223696D01*
X+1597424Y+3284656D01*
X+1609616Y+3296848D01*
X+1621808Y+3296848D01*
X+1634000Y+3284656D01*
X+1634000Y+3223696D01*
X+1634000Y+3284656D02*
X+1646192Y+3296848D01*
X+1670576Y+3296848D01*
X+1609616Y+3333424D02*
X+1597424Y+3345616D01*
X+1597424Y+3382192D01*
X+1609616Y+3394384D01*
X+1621808Y+3394384D01*
X+1634000Y+3382192D01*
X+1634000Y+3345616D01*
X+1646192Y+3333424D01*
X+1670576Y+3333424D01*
X+1670576Y+3394384D01*
X+1646192Y+3491920D02*
X+1646192Y+3418768D01*
X+1597424Y+3467536D01*
X+1670576Y+3467536D01*
D19*
X+1968400Y+9782400D02*
X+3187600Y+9782400D01*
X+3187600Y+9985600D01*
X+1968400Y+9985600D01*
X+1968400Y+9782400D01*
D34*
X+2431696Y+9847424D02*
X+2431696Y+9920576D01*
X+2492656Y+9920576D01*
X+2504848Y+9908384D01*
X+2504848Y+9896192D01*
X+2492656Y+9884000D01*
X+2431696Y+9884000D01*
X+2492656Y+9884000D02*
X+2504848Y+9871808D01*
X+2504848Y+9847424D01*
X+2541424Y+9908384D02*
X+2553616Y+9920576D01*
X+2590192Y+9920576D01*
X+2602384Y+9908384D01*
X+2602384Y+9896192D01*
X+2590192Y+9884000D01*
X+2553616Y+9884000D01*
X+2541424Y+9871808D01*
X+2541424Y+9847424D01*
X+2602384Y+9847424D01*
X+2699920Y+9896192D02*
X+2687728Y+9884000D01*
X+2651152Y+9884000D01*
X+2638960Y+9896192D01*
X+2638960Y+9908384D01*
X+2651152Y+9920576D01*
X+2687728Y+9920576D01*
X+2699920Y+9908384D01*
X+2699920Y+9859616D01*
X+2687728Y+9847424D01*
X+2651152Y+9847424D01*
D19*
X+1972400Y+10072400D02*
X+3191600Y+10072400D01*
X+3191600Y+10275600D01*
X+1972400Y+10275600D01*
X+1972400Y+10072400D01*
D34*
X+2435696Y+10137424D02*
X+2435696Y+10210576D01*
X+2496656Y+10210576D01*
X+2508848Y+10198384D01*
X+2508848Y+10186192D01*
X+2496656Y+10174000D01*
X+2435696Y+10174000D01*
X+2496656Y+10174000D02*
X+2508848Y+10161808D01*
X+2508848Y+10137424D01*
X+2606384Y+10210576D02*
X+2545424Y+10210576D01*
X+2545424Y+10186192D01*
X+2594192Y+10186192D01*
X+2606384Y+10174000D01*
X+2606384Y+10149616D01*
X+2594192Y+10137424D01*
X+2557616Y+10137424D01*
X+2545424Y+10149616D01*
X+2655152Y+10186192D02*
X+2679536Y+10210576D01*
X+2679536Y+10137424D01*
D19*
X+3718400Y+8604400D02*
X+3921600Y+8604400D01*
X+3921600Y+9823600D01*
X+3718400Y+9823600D01*
X+3718400Y+8604400D01*
D34*
X+3856576Y+9067696D02*
X+3783424Y+9067696D01*
X+3783424Y+9128656D01*
X+3795616Y+9140848D01*
X+3807808Y+9140848D01*
X+3820000Y+9128656D01*
X+3820000Y+9067696D01*
X+3820000Y+9128656D02*
X+3832192Y+9140848D01*
X+3856576Y+9140848D01*
X+3832192Y+9238384D02*
X+3832192Y+9165232D01*
X+3783424Y+9214000D01*
X+3856576Y+9214000D01*
X+3795616Y+9335920D02*
X+3783424Y+9323728D01*
X+3783424Y+9287152D01*
X+3795616Y+9274960D01*
X+3844384Y+9274960D01*
X+3856576Y+9287152D01*
X+3856576Y+9323728D01*
X+3844384Y+9335920D01*
X+3832192Y+9335920D01*
X+3820000Y+9323728D01*
X+3820000Y+9274960D01*
D19*
X+225840Y+8573840D02*
X+1262160Y+8573840D01*
X+1262160Y+10118160D01*
X+225840Y+10118160D01*
X+225840Y+8573840D01*
D43*
X+782608Y+8882704D02*
X+821216Y+8882704D01*
X+859824Y+8921312D01*
X+859824Y+9075744D01*
X+821216Y+9114352D01*
X+628176Y+9114352D01*
X+666784Y+9230176D02*
X+628176Y+9268784D01*
X+628176Y+9384608D01*
X+666784Y+9423216D01*
X+705392Y+9423216D01*
X+744000Y+9384608D01*
X+744000Y+9268784D01*
X+782608Y+9230176D01*
X+859824Y+9230176D01*
X+859824Y+9423216D01*
X+821216Y+9500432D02*
X+666784Y+9500432D01*
X+628176Y+9539040D01*
X+628176Y+9693472D01*
X+666784Y+9732080D01*
X+821216Y+9732080D01*
X+859824Y+9693472D01*
X+859824Y+9539040D01*
X+821216Y+9500432D01*
X+859824Y+9500432D02*
X+628176Y+9732080D01*
D19*
X+225840Y+7543840D02*
X+1262160Y+7543840D01*
X+1262160Y+8580160D01*
X+225840Y+8580160D01*
X+225840Y+7543840D01*
D40*
X+778544Y+7785648D02*
X+813088Y+7785648D01*
X+847632Y+7820192D01*
X+847632Y+7958368D01*
X+813088Y+7992912D01*
X+640368Y+7992912D01*
X+640368Y+8269264D02*
X+640368Y+8096544D01*
X+709456Y+8096544D01*
X+709456Y+8234720D01*
X+744000Y+8269264D01*
X+813088Y+8269264D01*
X+847632Y+8234720D01*
X+847632Y+8131088D01*
X+813088Y+8096544D01*
D19*
X+4079840Y+9990840D02*
X+5624160Y+9990840D01*
X+5624160Y+11027160D01*
X+4079840Y+11027160D01*
X+4079840Y+9990840D01*
D44*
X+4440182Y+10457523D02*
X+4440182Y+10406045D01*
X+4491659Y+10354568D01*
X+4697568Y+10354568D01*
X+4749045Y+10406045D01*
X+4749045Y+10663432D01*
X+4954954Y+10509000D02*
X+4903477Y+10560477D01*
X+4903477Y+10611955D01*
X+4954954Y+10663432D01*
X+5109386Y+10663432D01*
X+5160863Y+10611955D01*
X+5160863Y+10560477D01*
X+5109386Y+10509000D01*
X+4954954Y+10509000D01*
X+4903477Y+10457523D01*
X+4903477Y+10406045D01*
X+4954954Y+10354568D01*
X+5109386Y+10354568D01*
X+5160863Y+10406045D01*
X+5160863Y+10457523D01*
X+5109386Y+10509000D01*
D19*
X+5478840Y+3755840D02*
X+6134160Y+3755840D01*
X+6134160Y+9110160D01*
X+5478840Y+9110160D01*
X+5478840Y+3755840D01*
D41*
X+5845820Y+6118447D02*
X+5885139Y+6118447D01*
X+5924458Y+6157766D01*
X+5924458Y+6315042D01*
X+5885139Y+6354361D01*
X+5688543Y+6354361D01*
X+5767181Y+6668914D02*
X+5806500Y+6629595D01*
X+5806500Y+6511638D01*
X+5767181Y+6472319D01*
X+5727862Y+6472319D01*
X+5688543Y+6511638D01*
X+5688543Y+6629595D01*
X+5727862Y+6668914D01*
X+5885139Y+6668914D01*
X+5924458Y+6629595D01*
X+5924458Y+6511638D01*
D19*
X+2878840Y+1332840D02*
X+3661160Y+1332840D01*
X+3661160Y+1734160D01*
X+2878840Y+1734160D01*
X+2878840Y+1332840D01*
D45*
X+3077367Y+1557579D02*
X+3125525Y+1605737D01*
X+3173683Y+1605737D01*
X+3221841Y+1557579D01*
X+3221841Y+1509420D01*
X+3173683Y+1461262D01*
X+3125525Y+1461262D01*
X+3077367Y+1509420D01*
X+3077367Y+1557579D01*
X+3173683Y+1509420D02*
X+3221841Y+1461262D01*
X+3294079Y+1581658D02*
X+3318158Y+1605737D01*
X+3390395Y+1605737D01*
X+3414474Y+1581658D01*
X+3414474Y+1557579D01*
X+3390395Y+1533500D01*
X+3414474Y+1509420D01*
X+3414474Y+1485341D01*
X+3390395Y+1461262D01*
X+3318158Y+1461262D01*
X+3294079Y+1485341D01*
X+3342237Y+1533500D02*
X+3390395Y+1533500D01*
D19*
X+3982840Y+1342840D02*
X+4765160Y+1342840D01*
X+4765160Y+1744160D01*
X+3982840Y+1744160D01*
X+3982840Y+1342840D01*
D45*
X+4181367Y+1567579D02*
X+4229525Y+1615737D01*
X+4277683Y+1615737D01*
X+4325841Y+1567579D01*
X+4325841Y+1519420D01*
X+4277683Y+1471262D01*
X+4229525Y+1471262D01*
X+4181367Y+1519420D01*
X+4181367Y+1567579D01*
X+4277683Y+1519420D02*
X+4325841Y+1471262D01*
X+4422158Y+1567579D02*
X+4470316Y+1615737D01*
X+4470316Y+1471262D01*
D19*
X+5615840Y+9990840D02*
X+7160160Y+9990840D01*
X+7160160Y+11027160D01*
X+5615840Y+11027160D01*
X+5615840Y+9990840D01*
D43*
X+5924704Y+10470392D02*
X+5924704Y+10431784D01*
X+5963312Y+10393176D01*
X+6117744Y+10393176D01*
X+6156352Y+10431784D01*
X+6156352Y+10624824D01*
X+6310784Y+10547608D02*
X+6388000Y+10624824D01*
X+6388000Y+10393176D01*
X+6542432Y+10431784D02*
X+6542432Y+10586216D01*
X+6581040Y+10624824D01*
X+6735472Y+10624824D01*
X+6774080Y+10586216D01*
X+6774080Y+10431784D01*
X+6735472Y+10393176D01*
X+6581040Y+10393176D01*
X+6542432Y+10431784D01*
X+6542432Y+10393176D02*
X+6774080Y+10624824D01*
D19*
X+1755840Y+56840D02*
X+2792160Y+56840D01*
X+2792160Y+1093160D01*
X+1755840Y+1093160D01*
X+1755840Y+56840D01*
D40*
X+1997648Y+540456D02*
X+1997648Y+505912D01*
X+2032192Y+471368D01*
X+2170368Y+471368D01*
X+2204912Y+505912D01*
X+2204912Y+678632D01*
X+2481264Y+540456D02*
X+2274000Y+540456D01*
X+2412176Y+678632D01*
X+2412176Y+471368D01*
D19*
X+885840Y+10428840D02*
X+1287160Y+10428840D01*
X+1287160Y+11211160D01*
X+885840Y+11211160D01*
X+885840Y+10428840D01*
D31*
X+1027826Y+10585304D02*
X+1125616Y+10585304D01*
X+1145174Y+10604862D01*
X+1145174Y+10683094D01*
X+1125616Y+10702652D01*
X+1027826Y+10702652D01*
X+1066942Y+10780884D02*
X+1027826Y+10820000D01*
X+1145174Y+10820000D01*
X+1066942Y+11015580D02*
X+1086500Y+10996022D01*
X+1086500Y+10937348D01*
X+1066942Y+10917790D01*
X+1047384Y+10917790D01*
X+1027826Y+10937348D01*
X+1027826Y+10996022D01*
X+1047384Y+11015580D01*
X+1125616Y+11015580D01*
X+1145174Y+10996022D01*
X+1145174Y+10937348D01*
D19*
X+1393400Y+10508400D02*
X+2612600Y+10508400D01*
X+2612600Y+10711600D01*
X+1393400Y+10711600D01*
X+1393400Y+10508400D01*
D34*
X+1856696Y+10573424D02*
X+1856696Y+10646576D01*
X+1917656Y+10646576D01*
X+1929848Y+10634384D01*
X+1929848Y+10622192D01*
X+1917656Y+10610000D01*
X+1856696Y+10610000D01*
X+1917656Y+10610000D02*
X+1929848Y+10597808D01*
X+1929848Y+10573424D01*
X+2027384Y+10597808D02*
X+1954232Y+10597808D01*
X+2003000Y+10646576D01*
X+2003000Y+10573424D01*
X+2124920Y+10597808D02*
X+2051768Y+10597808D01*
X+2100536Y+10646576D01*
X+2100536Y+10573424D01*
D19*
X+1393400Y+10778400D02*
X+2612600Y+10778400D01*
X+2612600Y+10981600D01*
X+1393400Y+10981600D01*
X+1393400Y+10778400D01*
D34*
X+1905464Y+10843424D02*
X+1905464Y+10916576D01*
X+1966424Y+10916576D01*
X+1978616Y+10904384D01*
X+1978616Y+10892192D01*
X+1966424Y+10880000D01*
X+1905464Y+10880000D01*
X+1966424Y+10880000D02*
X+1978616Y+10867808D01*
X+1978616Y+10843424D01*
X+2015192Y+10904384D02*
X+2027384Y+10916576D01*
X+2063960Y+10916576D01*
X+2076152Y+10904384D01*
X+2076152Y+10892192D01*
X+2063960Y+10880000D01*
X+2027384Y+10880000D01*
X+2015192Y+10867808D01*
X+2015192Y+10843424D01*
X+2076152Y+10843424D01*
D19*
X+4219340Y+9102840D02*
X+5180160Y+9102840D01*
X+5180160Y+9885160D01*
X+4219340Y+9885160D01*
X+4219340Y+9102840D01*
D46*
X+4411504Y+9421939D02*
X+4411504Y+9566062D01*
X+4531606Y+9566062D01*
X+4555627Y+9542041D01*
X+4555627Y+9518021D01*
X+4531606Y+9494000D01*
X+4411504Y+9494000D01*
X+4531606Y+9494000D02*
X+4555627Y+9469980D01*
X+4555627Y+9421939D01*
X+4603668Y+9566062D02*
X+4603668Y+9494000D01*
X+4675729Y+9421939D01*
X+4747791Y+9494000D01*
X+4747791Y+9566062D01*
X+4843873Y+9518021D02*
X+4891914Y+9566062D01*
X+4891914Y+9421939D01*
D19*
X+1428400Y+7768400D02*
X+2647600Y+7768400D01*
X+2647600Y+7971600D01*
X+1428400Y+7971600D01*
X+1428400Y+7768400D01*
D34*
X+1940464Y+7833424D02*
X+1940464Y+7906576D01*
X+2001424Y+7906576D01*
X+2013616Y+7894384D01*
X+2013616Y+7882192D01*
X+2001424Y+7870000D01*
X+1940464Y+7870000D01*
X+2001424Y+7870000D02*
X+2013616Y+7857808D01*
X+2013616Y+7833424D01*
X+2050192Y+7894384D02*
X+2062384Y+7906576D01*
X+2098960Y+7906576D01*
X+2111152Y+7894384D01*
X+2111152Y+7882192D01*
X+2098960Y+7870000D01*
X+2111152Y+7857808D01*
X+2111152Y+7845616D01*
X+2098960Y+7833424D01*
X+2062384Y+7833424D01*
X+2050192Y+7845616D01*
X+2074576Y+7870000D02*
X+2098960Y+7870000D01*
D19*
X+2728400Y+10368400D02*
X+3947600Y+10368400D01*
X+3947600Y+10571600D01*
X+2728400Y+10571600D01*
X+2728400Y+10368400D01*
D34*
X+3240464Y+10433424D02*
X+3240464Y+10506576D01*
X+3301424Y+10506576D01*
X+3313616Y+10494384D01*
X+3313616Y+10482192D01*
X+3301424Y+10470000D01*
X+3240464Y+10470000D01*
X+3301424Y+10470000D02*
X+3313616Y+10457808D01*
X+3313616Y+10433424D01*
X+3411152Y+10457808D02*
X+3338000Y+10457808D01*
X+3386768Y+10506576D01*
X+3386768Y+10433424D01*
D19*
X+2728400Y+10668400D02*
X+3947600Y+10668400D01*
X+3947600Y+10871600D01*
X+2728400Y+10871600D01*
X+2728400Y+10668400D01*
D34*
X+3240464Y+10733424D02*
X+3240464Y+10806576D01*
X+3301424Y+10806576D01*
X+3313616Y+10794384D01*
X+3313616Y+10782192D01*
X+3301424Y+10770000D01*
X+3240464Y+10770000D01*
X+3301424Y+10770000D02*
X+3313616Y+10757808D01*
X+3313616Y+10733424D01*
X+3411152Y+10806576D02*
X+3350192Y+10806576D01*
X+3350192Y+10782192D01*
X+3398960Y+10782192D01*
X+3411152Y+10770000D01*
X+3411152Y+10745616D01*
X+3398960Y+10733424D01*
X+3362384Y+10733424D01*
X+3350192Y+10745616D01*
D19*
X+2728400Y+10948400D02*
X+3947600Y+10948400D01*
X+3947600Y+11151600D01*
X+2728400Y+11151600D01*
X+2728400Y+10948400D01*
D34*
X+3191696Y+11013424D02*
X+3191696Y+11086576D01*
X+3252656Y+11086576D01*
X+3264848Y+11074384D01*
X+3264848Y+11062192D01*
X+3252656Y+11050000D01*
X+3191696Y+11050000D01*
X+3252656Y+11050000D02*
X+3264848Y+11037808D01*
X+3264848Y+11013424D01*
X+3313616Y+11062192D02*
X+3338000Y+11086576D01*
X+3338000Y+11013424D01*
X+3459920Y+11037808D02*
X+3386768Y+11037808D01*
X+3435536Y+11086576D01*
X+3435536Y+11013424D01*
D19*
X+158840Y+959840D02*
X+814160Y+959840D01*
X+814160Y+2250160D01*
X+158840Y+2250160D01*
X+158840Y+959840D01*
D47*
X+518758Y+1217904D02*
X+551016Y+1217904D01*
X+583274Y+1250162D01*
X+583274Y+1379194D01*
X+551016Y+1411452D01*
X+389726Y+1411452D01*
X+454242Y+1540484D02*
X+389726Y+1605000D01*
X+583274Y+1605000D01*
X+454242Y+1798548D02*
X+389726Y+1863064D01*
X+583274Y+1863064D01*
D19*
X+888400Y+1628400D02*
X+2107600Y+1628400D01*
X+2107600Y+1831600D01*
X+888400Y+1831600D01*
X+888400Y+1628400D01*
D34*
X+1400464Y+1693424D02*
X+1400464Y+1766576D01*
X+1461424Y+1766576D01*
X+1473616Y+1754384D01*
X+1473616Y+1742192D01*
X+1461424Y+1730000D01*
X+1400464Y+1730000D01*
X+1461424Y+1730000D02*
X+1473616Y+1717808D01*
X+1473616Y+1693424D01*
X+1510192Y+1766576D02*
X+1571152Y+1766576D01*
X+1571152Y+1754384D01*
X+1510192Y+1693424D01*
D19*
X+888400Y+1938400D02*
X+2107600Y+1938400D01*
X+2107600Y+2141600D01*
X+888400Y+2141600D01*
X+888400Y+1938400D01*
D34*
X+1400464Y+2003424D02*
X+1400464Y+2076576D01*
X+1461424Y+2076576D01*
X+1473616Y+2064384D01*
X+1473616Y+2052192D01*
X+1461424Y+2040000D01*
X+1400464Y+2040000D01*
X+1461424Y+2040000D02*
X+1473616Y+2027808D01*
X+1473616Y+2003424D01*
X+1522384Y+2040000D02*
X+1510192Y+2052192D01*
X+1510192Y+2064384D01*
X+1522384Y+2076576D01*
X+1558960Y+2076576D01*
X+1571152Y+2064384D01*
X+1571152Y+2052192D01*
X+1558960Y+2040000D01*
X+1522384Y+2040000D01*
X+1510192Y+2027808D01*
X+1510192Y+2015616D01*
X+1522384Y+2003424D01*
X+1558960Y+2003424D01*
X+1571152Y+2015616D01*
X+1571152Y+2027808D01*
X+1558960Y+2040000D01*
D19*
X+7394080Y+6424080D02*
X+7897000Y+6424080D01*
X+7897000Y+7130200D01*
X+7394080Y+7130200D01*
X+7394080Y+6424080D01*
D48*
X+7622003Y+6588842D02*
X+7574928Y+6635916D01*
X+7574928Y+6682991D01*
X+7622003Y+6730065D01*
X+7669077Y+6730065D01*
X+7716152Y+6682991D01*
X+7716152Y+6635916D01*
X+7669077Y+6588842D01*
X+7622003Y+6588842D01*
X+7669077Y+6682991D02*
X+7716152Y+6730065D01*
X+7669077Y+6918363D02*
X+7669077Y+6777140D01*
X+7574928Y+6871289D01*
X+7716152Y+6871289D01*
D19*
X+7088400Y+6008400D02*
X+7291600Y+6008400D01*
X+7291600Y+7227600D01*
X+7088400Y+7227600D01*
X+7088400Y+6008400D01*
D34*
X+7226576Y+6520464D02*
X+7153424Y+6520464D01*
X+7153424Y+6581424D01*
X+7165616Y+6593616D01*
X+7177808Y+6593616D01*
X+7190000Y+6581424D01*
X+7190000Y+6520464D01*
X+7190000Y+6581424D02*
X+7202192Y+6593616D01*
X+7226576Y+6593616D01*
X+7177808Y+6691152D02*
X+7190000Y+6678960D01*
X+7190000Y+6642384D01*
X+7177808Y+6630192D01*
X+7165616Y+6630192D01*
X+7153424Y+6642384D01*
X+7153424Y+6678960D01*
X+7165616Y+6691152D01*
X+7214384Y+6691152D01*
X+7226576Y+6678960D01*
X+7226576Y+6642384D01*
D19*
X+318840Y+10115840D02*
X+847160Y+10115840D01*
X+847160Y+10644160D01*
X+318840Y+10644160D01*
X+318840Y+10115840D01*
D49*
X+503752Y+10353584D02*
X+490544Y+10340376D01*
X+450920Y+10340376D01*
X+424504Y+10366792D01*
X+424504Y+10393208D01*
X+450920Y+10419624D01*
X+490544Y+10419624D01*
X+503752Y+10406416D01*
X+543376Y+10406416D02*
X+556584Y+10419624D01*
X+596208Y+10419624D01*
X+609416Y+10406416D01*
X+609416Y+10393208D01*
X+596208Y+10380000D01*
X+609416Y+10366792D01*
X+609416Y+10353584D01*
X+596208Y+10340376D01*
X+556584Y+10340376D01*
X+543376Y+10353584D01*
X+569792Y+10380000D02*
X+596208Y+10380000D01*
X+715080Y+10419624D02*
X+649040Y+10419624D01*
X+649040Y+10393208D01*
X+701872Y+10393208D01*
X+715080Y+10380000D01*
X+715080Y+10353584D01*
X+701872Y+10340376D01*
X+662248Y+10340376D01*
X+649040Y+10353584D01*
D19*
X+2795840Y+56840D02*
X+4340160Y+56840D01*
X+4340160Y+1093160D01*
X+2795840Y+1093160D01*
X+2795840Y+56840D01*
D44*
X+3156182Y+523523D02*
X+3156182Y+472045D01*
X+3207659Y+420568D01*
X+3413568Y+420568D01*
X+3465045Y+472045D01*
X+3465045Y+729432D01*
X+3876863Y+677955D02*
X+3825386Y+729432D01*
X+3670954Y+729432D01*
X+3619477Y+677955D01*
X+3619477Y+472045D01*
X+3670954Y+420568D01*
X+3825386Y+420568D01*
X+3876863Y+472045D01*
X+3876863Y+523523D01*
X+3825386Y+575000D01*
X+3619477Y+575000D01*
D19*
X+1298400Y+322400D02*
X+1501600Y+322400D01*
X+1501600Y+1541600D01*
X+1298400Y+1541600D01*
X+1298400Y+322400D01*
D34*
X+1436576Y+834464D02*
X+1363424Y+834464D01*
X+1363424Y+895424D01*
X+1375616Y+907616D01*
X+1387808Y+907616D01*
X+1400000Y+895424D01*
X+1400000Y+834464D01*
X+1400000Y+895424D02*
X+1412192Y+907616D01*
X+1436576Y+907616D01*
X+1375616Y+1005152D02*
X+1363424Y+992960D01*
X+1363424Y+956384D01*
X+1375616Y+944192D01*
X+1424384Y+944192D01*
X+1436576Y+956384D01*
X+1436576Y+992960D01*
X+1424384Y+1005152D01*
X+1412192Y+1005152D01*
X+1400000Y+992960D01*
X+1400000Y+944192D01*
D19*
X+2948400Y+1968400D02*
X+4167600Y+1968400D01*
X+4167600Y+2171600D01*
X+2948400Y+2171600D01*
X+2948400Y+1968400D01*
D34*
X+3411696Y+2033424D02*
X+3411696Y+2106576D01*
X+3472656Y+2106576D01*
X+3484848Y+2094384D01*
X+3484848Y+2082192D01*
X+3472656Y+2070000D01*
X+3411696Y+2070000D01*
X+3472656Y+2070000D02*
X+3484848Y+2057808D01*
X+3484848Y+2033424D01*
X+3521424Y+2094384D02*
X+3533616Y+2106576D01*
X+3570192Y+2106576D01*
X+3582384Y+2094384D01*
X+3582384Y+2082192D01*
X+3570192Y+2070000D01*
X+3582384Y+2057808D01*
X+3582384Y+2045616D01*
X+3570192Y+2033424D01*
X+3533616Y+2033424D01*
X+3521424Y+2045616D01*
X+3545808Y+2070000D02*
X+3570192Y+2070000D01*
X+3606768Y+2045616D02*
X+3606768Y+2094384D01*
X+3618960Y+2106576D01*
X+3667728Y+2106576D01*
X+3679920Y+2094384D01*
X+3679920Y+2045616D01*
X+3667728Y+2033424D01*
X+3618960Y+2033424D01*
X+3606768Y+2045616D01*
X+3606768Y+2033424D02*
X+3679920Y+2106576D01*
D19*
X+2948400Y+2238400D02*
X+4167600Y+2238400D01*
X+4167600Y+2441600D01*
X+2948400Y+2441600D01*
X+2948400Y+2238400D01*
D34*
X+3411696Y+2303424D02*
X+3411696Y+2376576D01*
X+3472656Y+2376576D01*
X+3484848Y+2364384D01*
X+3484848Y+2352192D01*
X+3472656Y+2340000D01*
X+3411696Y+2340000D01*
X+3472656Y+2340000D02*
X+3484848Y+2327808D01*
X+3484848Y+2303424D01*
X+3521424Y+2364384D02*
X+3533616Y+2376576D01*
X+3570192Y+2376576D01*
X+3582384Y+2364384D01*
X+3582384Y+2352192D01*
X+3570192Y+2340000D01*
X+3582384Y+2327808D01*
X+3582384Y+2315616D01*
X+3570192Y+2303424D01*
X+3533616Y+2303424D01*
X+3521424Y+2315616D01*
X+3545808Y+2340000D02*
X+3570192Y+2340000D01*
X+3631152Y+2352192D02*
X+3655536Y+2376576D01*
X+3655536Y+2303424D01*
D19*
X+3328400Y+2538400D02*
X+4547600Y+2538400D01*
X+4547600Y+2741600D01*
X+3328400Y+2741600D01*
X+3328400Y+2538400D01*
D34*
X+3791696Y+2603424D02*
X+3791696Y+2676576D01*
X+3852656Y+2676576D01*
X+3864848Y+2664384D01*
X+3864848Y+2652192D01*
X+3852656Y+2640000D01*
X+3791696Y+2640000D01*
X+3852656Y+2640000D02*
X+3864848Y+2627808D01*
X+3864848Y+2603424D01*
X+3901424Y+2664384D02*
X+3913616Y+2676576D01*
X+3950192Y+2676576D01*
X+3962384Y+2664384D01*
X+3962384Y+2652192D01*
X+3950192Y+2640000D01*
X+3962384Y+2627808D01*
X+3962384Y+2615616D01*
X+3950192Y+2603424D01*
X+3913616Y+2603424D01*
X+3901424Y+2615616D01*
X+3925808Y+2640000D02*
X+3950192Y+2640000D01*
X+4059920Y+2652192D02*
X+4047728Y+2640000D01*
X+4011152Y+2640000D01*
X+3998960Y+2652192D01*
X+3998960Y+2664384D01*
X+4011152Y+2676576D01*
X+4047728Y+2676576D01*
X+4059920Y+2664384D01*
X+4059920Y+2615616D01*
X+4047728Y+2603424D01*
X+4011152Y+2603424D01*
D19*
X+2388400Y+1292400D02*
X+2591600Y+1292400D01*
X+2591600Y+2511600D01*
X+2388400Y+2511600D01*
X+2388400Y+1292400D01*
D34*
X+2526576Y+1755696D02*
X+2453424Y+1755696D01*
X+2453424Y+1816656D01*
X+2465616Y+1828848D01*
X+2477808Y+1828848D01*
X+2490000Y+1816656D01*
X+2490000Y+1755696D01*
X+2490000Y+1816656D02*
X+2502192Y+1828848D01*
X+2526576Y+1828848D01*
X+2453424Y+1926384D02*
X+2453424Y+1865424D01*
X+2477808Y+1865424D01*
X+2477808Y+1914192D01*
X+2490000Y+1926384D01*
X+2514384Y+1926384D01*
X+2526576Y+1914192D01*
X+2526576Y+1877616D01*
X+2514384Y+1865424D01*
X+2465616Y+1962960D02*
X+2453424Y+1975152D01*
X+2453424Y+2011728D01*
X+2465616Y+2023920D01*
X+2477808Y+2023920D01*
X+2490000Y+2011728D01*
X+2490000Y+1975152D01*
X+2502192Y+1962960D01*
X+2526576Y+1962960D01*
X+2526576Y+2023920D01*
D19*
X+8505840Y+10258840D02*
X+9034160Y+10258840D01*
X+9034160Y+10787160D01*
X+8505840Y+10787160D01*
X+8505840Y+10258840D01*
D50*
X+8805222Y+10487779D02*
X+8822832Y+10470168D01*
X+8822832Y+10417337D01*
X+8787611Y+10382116D01*
X+8752390Y+10382116D01*
X+8717169Y+10417337D01*
X+8717169Y+10470168D01*
X+8734779Y+10487779D01*
X+8752390Y+10558221D02*
X+8717169Y+10593442D01*
X+8822832Y+10593442D01*
D19*
X+1832840Y+3525840D02*
X+2361160Y+3525840D01*
X+2361160Y+4054160D01*
X+1832840Y+4054160D01*
X+1832840Y+3525840D01*
D50*
X+2061779Y+3754778D02*
X+2044168Y+3737168D01*
X+1991337Y+3737168D01*
X+1956116Y+3772389D01*
X+1956116Y+3807610D01*
X+1991337Y+3842831D01*
X+2044168Y+3842831D01*
X+2061779Y+3825221D01*
X+2202663Y+3842831D02*
X+2114610Y+3842831D01*
X+2114610Y+3807610D01*
X+2185052Y+3807610D01*
X+2202663Y+3790000D01*
X+2202663Y+3754778D01*
X+2185052Y+3737168D01*
X+2132221Y+3737168D01*
X+2114610Y+3754778D01*
D19*
X+6802840Y+2952840D02*
X+7585160Y+2952840D01*
X+7585160Y+3227160D01*
X+6802840Y+3227160D01*
X+6802840Y+2952840D01*
D38*
X+7161081Y+3057081D02*
X+7144622Y+3040622D01*
X+7095245Y+3040622D01*
X+7062327Y+3073540D01*
X+7062327Y+3106459D01*
X+7095245Y+3139377D01*
X+7144622Y+3139377D01*
X+7161081Y+3122918D01*
X+7292754Y+3122918D02*
X+7276295Y+3139377D01*
X+7226918Y+3139377D01*
X+7210459Y+3122918D01*
X+7210459Y+3057081D01*
X+7226918Y+3040622D01*
X+7276295Y+3040622D01*
X+7292754Y+3057081D01*
X+7292754Y+3073540D01*
X+7276295Y+3090000D01*
X+7210459Y+3090000D01*
D19*
X+9585840Y+9981840D02*
X+10622160Y+9981840D01*
X+10622160Y+11018160D01*
X+9585840Y+11018160D01*
X+9585840Y+9981840D01*
D51*
X+9793104Y+10474092D02*
X+9793104Y+10448184D01*
X+9819012Y+10422276D01*
X+9922644Y+10422276D01*
X+9948552Y+10448184D01*
X+9948552Y+10577724D01*
X+10052184Y+10525908D02*
X+10104000Y+10577724D01*
X+10104000Y+10422276D01*
X+10233540Y+10551816D02*
X+10259448Y+10577724D01*
X+10337172Y+10577724D01*
X+10363080Y+10551816D01*
X+10363080Y+10525908D01*
X+10337172Y+10500000D01*
X+10259448Y+10500000D01*
X+10233540Y+10474092D01*
X+10233540Y+10422276D01*
X+10363080Y+10422276D01*
D19*
X+11374120Y+6078220D02*
X+12410440Y+6078220D01*
X+12410440Y+7114540D01*
X+11374120Y+7114540D01*
X+11374120Y+6078220D01*
D51*
X+11918188Y+6285484D02*
X+11944096Y+6285484D01*
X+11970004Y+6311392D01*
X+11970004Y+6415024D01*
X+11944096Y+6440932D01*
X+11814556Y+6440932D01*
X+11866372Y+6544564D02*
X+11814556Y+6596380D01*
X+11970004Y+6596380D01*
X+11840464Y+6725920D02*
X+11814556Y+6751828D01*
X+11814556Y+6829552D01*
X+11840464Y+6855460D01*
X+11866372Y+6855460D01*
X+11892280Y+6829552D01*
X+11918188Y+6855460D01*
X+11944096Y+6855460D01*
X+11970004Y+6829552D01*
X+11970004Y+6751828D01*
X+11944096Y+6725920D01*
X+11892280Y+6777736D02*
X+11892280Y+6829552D01*
D19*
X+8181340Y+3761740D02*
X+9146540Y+3761740D01*
X+9146540Y+4544060D01*
X+8181340Y+4544060D01*
X+8181340Y+3761740D01*
D39*
X+8406554Y+4249420D02*
X+8406554Y+4088553D01*
X+8438727Y+4056380D01*
X+8567420Y+4056380D01*
X+8599593Y+4088553D01*
X+8599593Y+4249420D01*
X+8856979Y+4249420D02*
X+8696113Y+4249420D01*
X+8696113Y+4185073D01*
X+8824806Y+4185073D01*
X+8856979Y+4152900D01*
X+8856979Y+4088553D01*
X+8824806Y+4056380D01*
X+8728286Y+4056380D01*
X+8696113Y+4088553D01*
D19*
X+7419340Y+3522980D02*
X+7622540Y+3522980D01*
X+7622540Y+4742180D01*
X+7419340Y+4742180D01*
X+7419340Y+3522980D01*
D34*
X+7557516Y+3986276D02*
X+7484364Y+3986276D01*
X+7484364Y+4047236D01*
X+7496556Y+4059428D01*
X+7508748Y+4059428D01*
X+7520940Y+4047236D01*
X+7520940Y+3986276D01*
X+7520940Y+4047236D02*
X+7533132Y+4059428D01*
X+7557516Y+4059428D01*
X+7508748Y+4108196D02*
X+7484364Y+4132580D01*
X+7557516Y+4132580D01*
X+7508748Y+4205732D02*
X+7484364Y+4230116D01*
X+7557516Y+4230116D01*
D19*
X+7419340Y+5031740D02*
X+7622540Y+5031740D01*
X+7622540Y+6250940D01*
X+7419340Y+6250940D01*
X+7419340Y+5031740D01*
D34*
X+7557516Y+5495036D02*
X+7484364Y+5495036D01*
X+7484364Y+5555996D01*
X+7496556Y+5568188D01*
X+7508748Y+5568188D01*
X+7520940Y+5555996D01*
X+7520940Y+5495036D01*
X+7520940Y+5555996D02*
X+7533132Y+5568188D01*
X+7557516Y+5568188D01*
X+7508748Y+5616956D02*
X+7484364Y+5641340D01*
X+7557516Y+5641340D01*
X+7545324Y+5690108D02*
X+7496556Y+5690108D01*
X+7484364Y+5702300D01*
X+7484364Y+5751068D01*
X+7496556Y+5763260D01*
X+7545324Y+5763260D01*
X+7557516Y+5751068D01*
X+7557516Y+5702300D01*
X+7545324Y+5690108D01*
X+7557516Y+5690108D02*
X+7484364Y+5763260D01*
D19*
X+7927340Y+6870700D02*
X+9400540Y+6870700D01*
X+9400540Y+7073900D01*
X+7927340Y+7073900D01*
X+7927340Y+6870700D01*
D34*
X+8517636Y+6935724D02*
X+8517636Y+7008876D01*
X+8578596Y+7008876D01*
X+8590788Y+6996684D01*
X+8590788Y+6984492D01*
X+8578596Y+6972300D01*
X+8517636Y+6972300D01*
X+8578596Y+6972300D02*
X+8590788Y+6960108D01*
X+8590788Y+6935724D01*
X+8639556Y+6984492D02*
X+8663940Y+7008876D01*
X+8663940Y+6935724D01*
X+8724900Y+6996684D02*
X+8737092Y+7008876D01*
X+8773668Y+7008876D01*
X+8785860Y+6996684D01*
X+8785860Y+6984492D01*
X+8773668Y+6972300D01*
X+8785860Y+6960108D01*
X+8785860Y+6947916D01*
X+8773668Y+6935724D01*
X+8737092Y+6935724D01*
X+8724900Y+6947916D01*
X+8749284Y+6972300D02*
X+8773668Y+6972300D01*
D19*
X+7927340Y+4876800D02*
X+9400540Y+4876800D01*
X+9400540Y+5080000D01*
X+7927340Y+5080000D01*
X+7927340Y+4876800D01*
D34*
X+8517636Y+4941824D02*
X+8517636Y+5014976D01*
X+8578596Y+5014976D01*
X+8590788Y+5002784D01*
X+8590788Y+4990592D01*
X+8578596Y+4978400D01*
X+8517636Y+4978400D01*
X+8578596Y+4978400D02*
X+8590788Y+4966208D01*
X+8590788Y+4941824D01*
X+8627364Y+5002784D02*
X+8639556Y+5014976D01*
X+8676132Y+5014976D01*
X+8688324Y+5002784D01*
X+8688324Y+4990592D01*
X+8676132Y+4978400D01*
X+8639556Y+4978400D01*
X+8627364Y+4966208D01*
X+8627364Y+4941824D01*
X+8688324Y+4941824D01*
X+8737092Y+4990592D02*
X+8761476Y+5014976D01*
X+8761476Y+4941824D01*
D19*
X+10201910Y+3078480D02*
X+10476230Y+3078480D01*
X+10476230Y+4805680D01*
X+10201910Y+4805680D01*
X+10201910Y+3078480D01*
D38*
X+10388448Y+3744571D02*
X+10289693Y+3744571D01*
X+10289693Y+3826866D01*
X+10306152Y+3843325D01*
X+10322611Y+3843325D01*
X+10339070Y+3826866D01*
X+10339070Y+3744571D01*
X+10339070Y+3826866D02*
X+10355530Y+3843325D01*
X+10388448Y+3843325D01*
X+10322611Y+3909162D02*
X+10289693Y+3942080D01*
X+10388448Y+3942080D01*
X+10306152Y+4106671D02*
X+10289693Y+4090212D01*
X+10289693Y+4040835D01*
X+10306152Y+4024376D01*
X+10371989Y+4024376D01*
X+10388448Y+4040835D01*
X+10388448Y+4090212D01*
X+10371989Y+4106671D01*
X+10355530Y+4106671D01*
X+10339070Y+4090212D01*
X+10339070Y+4024376D01*
D19*
X+10201910Y+5255260D02*
X+10476230Y+5255260D01*
X+10476230Y+6982460D01*
X+10201910Y+6982460D01*
X+10201910Y+5255260D01*
D38*
X+10388448Y+5921351D02*
X+10289693Y+5921351D01*
X+10289693Y+6003646D01*
X+10306152Y+6020105D01*
X+10322611Y+6020105D01*
X+10339070Y+6003646D01*
X+10339070Y+5921351D01*
X+10339070Y+6003646D02*
X+10355530Y+6020105D01*
X+10388448Y+6020105D01*
X+10322611Y+6085942D02*
X+10289693Y+6118860D01*
X+10388448Y+6118860D01*
X+10306152Y+6201156D02*
X+10289693Y+6217615D01*
X+10289693Y+6266992D01*
X+10306152Y+6283451D01*
X+10322611Y+6283451D01*
X+10339070Y+6266992D01*
X+10339070Y+6217615D01*
X+10355530Y+6201156D01*
X+10388448Y+6201156D01*
X+10388448Y+6283451D01*
D19*
X+8054340Y+3307080D02*
X+9273540Y+3307080D01*
X+9273540Y+3510280D01*
X+8054340Y+3510280D01*
X+8054340Y+3307080D01*
D34*
X+8517636Y+3372104D02*
X+8517636Y+3445256D01*
X+8578596Y+3445256D01*
X+8590788Y+3433064D01*
X+8590788Y+3420872D01*
X+8578596Y+3408680D01*
X+8517636Y+3408680D01*
X+8578596Y+3408680D02*
X+8590788Y+3396488D01*
X+8590788Y+3372104D01*
X+8627364Y+3433064D02*
X+8639556Y+3445256D01*
X+8676132Y+3445256D01*
X+8688324Y+3433064D01*
X+8688324Y+3420872D01*
X+8676132Y+3408680D01*
X+8639556Y+3408680D01*
X+8627364Y+3396488D01*
X+8627364Y+3372104D01*
X+8688324Y+3372104D01*
X+8724900Y+3433064D02*
X+8737092Y+3445256D01*
X+8773668Y+3445256D01*
X+8785860Y+3433064D01*
X+8785860Y+3420872D01*
X+8773668Y+3408680D01*
X+8737092Y+3408680D01*
X+8724900Y+3396488D01*
X+8724900Y+3372104D01*
X+8785860Y+3372104D01*
D19*
X+8067040Y+5392420D02*
X+9286240Y+5392420D01*
X+9286240Y+5595620D01*
X+8067040Y+5595620D01*
X+8067040Y+5392420D01*
D34*
X+8530336Y+5457444D02*
X+8530336Y+5530596D01*
X+8591296Y+5530596D01*
X+8603488Y+5518404D01*
X+8603488Y+5506212D01*
X+8591296Y+5494020D01*
X+8530336Y+5494020D01*
X+8591296Y+5494020D02*
X+8603488Y+5481828D01*
X+8603488Y+5457444D01*
X+8640064Y+5518404D02*
X+8652256Y+5530596D01*
X+8688832Y+5530596D01*
X+8701024Y+5518404D01*
X+8701024Y+5506212D01*
X+8688832Y+5494020D01*
X+8652256Y+5494020D01*
X+8640064Y+5481828D01*
X+8640064Y+5457444D01*
X+8701024Y+5457444D01*
X+8737600Y+5518404D02*
X+8749792Y+5530596D01*
X+8786368Y+5530596D01*
X+8798560Y+5518404D01*
X+8798560Y+5506212D01*
X+8786368Y+5494020D01*
X+8798560Y+5481828D01*
X+8798560Y+5469636D01*
X+8786368Y+5457444D01*
X+8749792Y+5457444D01*
X+8737600Y+5469636D01*
X+8761984Y+5494020D02*
X+8786368Y+5494020D01*
D19*
X+10590530Y+5298440D02*
X+11118850Y+5298440D01*
X+11118850Y+7096760D01*
X+10590530Y+7096760D01*
X+10590530Y+5298440D01*
D37*
X+10918089Y+6134201D02*
X+10949788Y+6102502D01*
X+10949788Y+6007405D01*
X+10886390Y+5944007D01*
X+10822991Y+5944007D01*
X+10759593Y+6007405D01*
X+10759593Y+6102502D01*
X+10791292Y+6134201D01*
X+10886390Y+6387794D02*
X+10886390Y+6197600D01*
X+10759593Y+6324396D01*
X+10949788Y+6324396D01*
D19*
X+10590530Y+3030220D02*
X+11118850Y+3030220D01*
X+11118850Y+4828540D01*
X+10590530Y+4828540D01*
X+10590530Y+3030220D01*
D37*
X+10918089Y+3865981D02*
X+10949788Y+3834282D01*
X+10949788Y+3739185D01*
X+10886390Y+3675787D01*
X+10822991Y+3675787D01*
X+10759593Y+3739185D01*
X+10759593Y+3834282D01*
X+10791292Y+3865981D01*
X+10791292Y+3961079D02*
X+10759593Y+3992778D01*
X+10759593Y+4087875D01*
X+10791292Y+4119574D01*
X+10822991Y+4119574D01*
X+10854690Y+4087875D01*
X+10886390Y+4119574D01*
X+10918089Y+4119574D01*
X+10949788Y+4087875D01*
X+10949788Y+3992778D01*
X+10918089Y+3961079D01*
X+10854690Y+4024477D02*
X+10854690Y+4087875D01*
D19*
X+9579610Y+5793740D02*
X+9980930Y+5793740D01*
X+9980930Y+6576060D01*
X+9579610Y+6576060D01*
X+9579610Y+5793740D01*
D45*
X+9708033Y+5992267D02*
X+9828429Y+5992267D01*
X+9852508Y+6016346D01*
X+9852508Y+6112662D01*
X+9828429Y+6136741D01*
X+9708033Y+6136741D01*
X+9804350Y+6329374D02*
X+9804350Y+6184900D01*
X+9708033Y+6281216D01*
X+9852508Y+6281216D01*
D19*
X+9579610Y+3693160D02*
X+9980930Y+3693160D01*
X+9980930Y+4475480D01*
X+9579610Y+4475480D01*
X+9579610Y+3693160D01*
D45*
X+9708033Y+3891687D02*
X+9828429Y+3891687D01*
X+9852508Y+3915766D01*
X+9852508Y+4012082D01*
X+9828429Y+4036161D01*
X+9708033Y+4036161D01*
X+9732112Y+4228794D02*
X+9708033Y+4204715D01*
X+9708033Y+4132478D01*
X+9732112Y+4108399D01*
X+9828429Y+4108399D01*
X+9852508Y+4132478D01*
X+9852508Y+4204715D01*
X+9828429Y+4228794D01*
X+9804350Y+4228794D01*
X+9780270Y+4204715D01*
X+9780270Y+4108399D01*
M02*
