  0
SECTION
  2
HEADER
  9
$ACADVER
  1
AC1009
  9
$INSUNITS
 70
     1
  0
ENDSEC
  0
SECTION
  2
TABLES
  0
TABLE
  2
LAYER
 70
     8
  0
LAYER
  2
0
 62
     7
 70
0
  6
CONTINUOUS
  0
LAYER
  2
1
 62
     1
 70
0
  6
CONTINUOUS
  0
LAYER
  2
2
 62
     2
 70
0
  6
CONTINUOUS
  0
LAYER
  2
3
 62
     3
 70
0
  6
CONTINUOUS
  0
LAYER
  2
4
 62
     4
 70
0
  6
CONTINUOUS
  0
LAYER
  2
5
 62
     5
 70
0
  6
CONTINUOUS
  0
LAYER
  2
6
 62
     6
 70
0
  6
CONTINUOUS
  0
LAYER
  2
7
 62
     7
 70
0
  6
CONTINUOUS
  0
ENDTAB
  0
TABLE
  2
STYLE
 70
     1
  0
STYLE
 70
     0
  2
STANDARD
  3
TXT
 40
0.00
 41
1.00
 42
1.00
 50
0.00
 71
     0
  0
ENDTAB
  0
ENDSEC
  0
SECTION
  2
BLOCKS
  0
BLOCK
  8
0
  2
EPAD
 70
0
 10
0.0
 20
0.0
  0
POLYLINE
  8
0
 66
1
 70
1
 40
0.5
 41
0.5
  0
VERTEX
  8
0
 10
-0.25
 20
0.0
 42
1.0
  0
VERTEX
  8
0
 10
0.25
 20
0.0
 42
1.0
  0
SEQEND
  8
0
  0
ENDBLK
  8
0
  0
BLOCK
  8
0
  2
RPAD
 70
0
 10
0.0
 20
0.0
  0
TRACE
  8
0
 10
-0.5
 20
-0.5
 11
-0.5
 21
0.5
 12
0.5
 22
-0.5
 13
0.5
 23
0.5
  0
ENDBLK
  8
0
  0
ENDSEC
0
SECTION
2
ENTITIES
0
INSERT
8
0
2
RPAD
10
0.229323
20
-0.160626
41
0.024000
42
0.079000
50
0.000000
0
INSERT
8
0
2
RPAD
10
0.179323
20
-0.160626
41
0.024000
42
0.079000
50
0.000000
0
INSERT
8
0
2
RPAD
10
0.129323
20
-0.160626
41
0.024000
42
0.079000
50
0.000000
0
INSERT
8
0
2
RPAD
10
0.079323
20
-0.160626
41
0.024000
42
0.079000
50
0.000000
0
INSERT
8
0
2
RPAD
10
0.029323
20
-0.160626
41
0.024000
42
0.079000
50
0.000000
0
INSERT
8
0
2
RPAD
10
-0.020677
20
-0.160626
41
0.024000
42
0.079000
50
0.000000
0
INSERT
8
0
2
RPAD
10
-0.070677
20
-0.160626
41
0.024000
42
0.079000
50
0.000000
0
INSERT
8
0
2
RPAD
10
-0.120677
20
-0.160626
41
0.024000
42
0.079000
50
0.000000
0
INSERT
8
0
2
RPAD
10
-0.170677
20
-0.160626
41
0.024000
42
0.079000
50
0.000000
0
INSERT
8
0
2
RPAD
10
-0.220677
20
-0.160626
41
0.024000
42
0.079000
50
0.000000
0
INSERT
8
0
2
RPAD
10
-0.270677
20
-0.160626
41
0.024000
42
0.079000
50
0.000000
0
INSERT
8
0
2
RPAD
10
-0.320677
20
-0.160626
41
0.024000
42
0.079000
50
0.000000
0
INSERT
8
0
2
RPAD
10
-0.370677
20
-0.160626
41
0.024000
42
0.079000
50
0.000000
0
INSERT
8
0
2
RPAD
10
-0.420677
20
-0.160626
41
0.024000
42
0.079000
50
0.000000
0
INSERT
8
0
2
RPAD
10
-0.420677
20
-0.530705
41
0.024000
42
0.079000
50
0.000000
0
INSERT
8
0
2
RPAD
10
-0.370677
20
-0.530705
41
0.024000
42
0.079000
50
0.000000
0
INSERT
8
0
2
RPAD
10
-0.320677
20
-0.530705
41
0.024000
42
0.079000
50
0.000000
0
INSERT
8
0
2
RPAD
10
-0.270677
20
-0.530705
41
0.024000
42
0.079000
50
0.000000
0
INSERT
8
0
2
RPAD
10
-0.220677
20
-0.530705
41
0.024000
42
0.079000
50
0.000000
0
INSERT
8
0
2
RPAD
10
-0.170677
20
-0.530705
41
0.024000
42
0.079000
50
0.000000
0
INSERT
8
0
2
RPAD
10
-0.120677
20
-0.530705
41
0.024000
42
0.079000
50
0.000000
0
INSERT
8
0
2
RPAD
10
-0.070677
20
-0.530705
41
0.024000
42
0.079000
50
0.000000
0
INSERT
8
0
2
RPAD
10
-0.020677
20
-0.530705
41
0.024000
42
0.079000
50
0.000000
0
INSERT
8
0
2
RPAD
10
0.029323
20
-0.530705
41
0.024000
42
0.079000
50
0.000000
0
INSERT
8
0
2
RPAD
10
0.079323
20
-0.530705
41
0.024000
42
0.079000
50
0.000000
0
INSERT
8
0
2
RPAD
10
0.129323
20
-0.530705
41
0.024000
42
0.079000
50
0.000000
0
INSERT
8
0
2
RPAD
10
0.179323
20
-0.530705
41
0.024000
42
0.079000
50
0.000000
0
INSERT
8
0
2
RPAD
10
0.229323
20
-0.530705
41
0.024000
42
0.079000
50
0.000000
0
INSERT
8
0
2
RPAD
10
0.061606
20
0.136618
41
0.024000
42
0.037000
50
90.000000
0
INSERT
8
0
2
RPAD
10
0.061606
20
0.061815
41
0.024000
42
0.037000
50
90.000000
0
INSERT
8
0
2
RPAD
10
0.152157
20
0.099217
41
0.024000
42
0.037000
50
90.000000
0
INSERT
8
0
2
RPAD
10
0.325386
20
-0.164563
41
0.040000
42
0.050000
50
-90.000000
0
INSERT
8
0
2
RPAD
10
0.325386
20
-0.248563
41
0.040000
42
0.050000
50
-90.000000
0
INSERT
8
0
2
RPAD
10
0.041921
20
-0.042516
41
0.040000
42
0.050000
50
0.000000
0
INSERT
8
0
2
RPAD
10
0.125921
20
-0.042516
41
0.040000
42
0.050000
50
0.000000
0
INSERT
8
0
2
RPAD
10
0.803087
20
-0.877161
41
0.040000
42
0.050000
50
180.000000
0
INSERT
8
0
2
RPAD
10
0.719087
20
-0.877161
41
0.040000
42
0.050000
50
180.000000
0
INSERT
8
0
2
RPAD
10
0.494677
20
-0.920469
41
0.039000
42
0.055000
50
-90.000000
0
INSERT
8
0
2
RPAD
10
0.494677
20
-0.849602
41
0.039000
42
0.055000
50
-90.000000
0
INSERT
8
0
2
RPAD
10
-0.316346
20
0.268508
41
0.040000
42
0.050000
50
0.000000
0
INSERT
8
0
2
RPAD
10
-0.232346
20
0.268508
41
0.040000
42
0.050000
50
0.000000
0
INSERT
8
0
2
RPAD
10
-0.143118
20
0.268508
41
0.040000
42
0.050000
50
0.000000
0
INSERT
8
0
2
RPAD
10
-0.059118
20
0.268508
41
0.040000
42
0.050000
50
0.000000
0
INSERT
8
0
2
RPAD
10
0.486803
20
-0.656925
41
0.060000
42
0.080000
50
90.000000
0
INSERT
8
0
2
RPAD
10
0.486803
20
-0.766925
41
0.060000
42
0.080000
50
90.000000
0
INSERT
8
0
2
RPAD
10
-0.103984
20
-0.637004
41
0.060000
42
0.080000
50
0.000000
0
INSERT
8
0
2
RPAD
10
-0.213984
20
-0.637004
41
0.060000
42
0.080000
50
0.000000
0
INSERT
8
0
2
RPAD
10
0.947953
20
-0.028390
41
0.080000
42
0.080000
50
270.000000
0
INSERT
8
0
2
RPAD
10
0.947953
20
-0.194390
41
0.080000
42
0.080000
50
270.000000
0
INSERT
8
0
2
RPAD
10
-0.461291
20
0.662169
41
0.024000
42
0.071000
50
0.000000
0
INSERT
8
0
2
RPAD
10
-0.511291
20
0.662169
41
0.024000
42
0.071000
50
0.000000
0
INSERT
8
0
2
RPAD
10
-0.561291
20
0.662169
41
0.024000
42
0.071000
50
0.000000
0
INSERT
8
0
2
RPAD
10
-0.611291
20
0.662169
41
0.024000
42
0.071000
50
0.000000
0
INSERT
8
0
2
RPAD
10
-0.611291
20
0.382642
41
0.024000
42
0.071000
50
0.000000
0
INSERT
8
0
2
RPAD
10
-0.561291
20
0.382642
41
0.024000
42
0.071000
50
0.000000
0
INSERT
8
0
2
RPAD
10
-0.511291
20
0.382642
41
0.024000
42
0.071000
50
0.000000
0
INSERT
8
0
2
RPAD
10
-0.461291
20
0.382642
41
0.024000
42
0.071000
50
0.000000
0
POLYLINE
8
0
66
1
40
0.008000
41
0.008000
0
VERTEX
8
0
10
-1.071228
20
-1.140980
0
VERTEX
8
0
10
1.071228
20
-1.140980
0
VERTEX
8
0
10
1.071228
20
1.140980
0
VERTEX
8
0
10
-1.071228
20
1.140980
0
VERTEX
8
0
10
-1.071228
20
-1.140980
0
SEQEND
8
0
0
CIRCLE
8
0
10
0.262591
20
-0.131098
40
0.004921
0
POLYLINE
8
0
66
1
40
0.007874
41
0.007874
0
VERTEX
8
0
10
-0.451976
20
-0.213776
0
VERTEX
8
0
10
-0.451976
20
-0.477555
0
VERTEX
8
0
10
0.260622
20
-0.477555
0
VERTEX
8
0
10
0.260622
20
-0.213776
0
VERTEX
8
0
10
-0.451976
20
-0.213776
0
SEQEND
8
0
0
CIRCLE
8
0
10
0.221252
20
-0.253146
40
0.011811
0
TEXT
8
0
10
0.074465
20
-0.305114
40
0.048000
41
1.041667
50
90.000000
1
U1
0
CIRCLE
8
0
10
0.051764
20
0.170083
40
0.004921
0
POLYLINE
8
0
66
1
40
0.007874
41
0.007874
0
VERTEX
8
0
10
0.095071
20
0.038193
0
VERTEX
8
0
10
0.118693
20
0.038193
0
VERTEX
8
0
10
0.118693
20
0.160240
0
VERTEX
8
0
10
0.095071
20
0.160240
0
VERTEX
8
0
10
0.095071
20
0.038193
0
SEQEND
8
0
0
TEXT
8
0
10
0.198614
20
0.071752
40
0.048000
41
1.041667
1
Q1
0
POLYLINE
8
0
66
1
40
0.008000
41
0.008000
0
VERTEX
8
0
10
0.348386
20
-0.193563
0
VERTEX
8
0
10
0.348386
20
-0.220563
0
SEQEND
8
0
0
POLYLINE
8
0
66
1
40
0.008000
41
0.008000
0
VERTEX
8
0
10
0.300386
20
-0.193563
0
VERTEX
8
0
10
0.300386
20
-0.221563
0
SEQEND
8
0
0
TEXT
8
0
10
0.406386
20
-0.256563
40
0.048000
41
1.041667
50
90.000000
1
R1
0
POLYLINE
8
0
66
1
40
0.008000
41
0.008000
0
VERTEX
8
0
10
0.070921
20
-0.019516
0
VERTEX
8
0
10
0.097921
20
-0.019516
0
SEQEND
8
0
0
POLYLINE
8
0
66
1
40
0.008000
41
0.008000
0
VERTEX
8
0
10
0.070921
20
-0.067516
0
VERTEX
8
0
10
0.098921
20
-0.067516
0
SEQEND
8
0
0
TEXT
8
0
10
0.155969
20
-0.068571
40
0.048000
41
1.041667
1
R2
0
POLYLINE
8
0
66
1
40
0.008000
41
0.008000
0
VERTEX
8
0
10
0.774087
20
-0.900161
0
VERTEX
8
0
10
0.747087
20
-0.900161
0
SEQEND
8
0
0
POLYLINE
8
0
66
1
40
0.008000
41
0.008000
0
VERTEX
8
0
10
0.774087
20
-0.852161
0
VERTEX
8
0
10
0.746087
20
-0.852161
0
SEQEND
8
0
0
TEXT
8
0
10
0.686087
20
-0.958161
40
0.048000
41
1.041667
1
R24
0
CIRCLE
8
0
10
0.494677
20
-0.810232
40
0.004921
0
POLYLINE
8
0
66
1
40
0.007874
41
0.007874
0
VERTEX
8
0
10
0.518299
20
-0.885035
0
VERTEX
8
0
10
0.471055
20
-0.885035
0
SEQEND
8
0
0
TEXT
8
0
10
0.576236
20
-0.925685
40
0.048000
41
1.041667
50
90.000000
1
D1
0
POLYLINE
8
0
66
1
40
0.008000
41
0.008000
0
VERTEX
8
0
10
0.561213
20
-0.835429
0
VERTEX
8
0
10
0.811213
20
-0.835429
0
VERTEX
8
0
10
0.811213
20
-0.335429
0
VERTEX
8
0
10
0.561213
20
-0.335429
0
VERTEX
8
0
10
0.561213
20
-0.835429
0
SEQEND
8
0
0
POLYLINE
8
0
66
1
40
0.008000
41
0.008000
0
VERTEX
8
0
10
0.611213
20
-0.835429
0
VERTEX
8
0
10
0.611213
20
-0.335429
0
SEQEND
8
0
0
TEXT
8
0
10
0.551213
20
-0.635429
40
0.048000
41
1.041667
50
90.000000
1
J2
0
POLYLINE
8
0
66
1
40
0.008000
41
0.008000
0
VERTEX
8
0
10
-0.287346
20
0.291508
0
VERTEX
8
0
10
-0.260346
20
0.291508
0
SEQEND
8
0
0
POLYLINE
8
0
66
1
40
0.008000
41
0.008000
0
VERTEX
8
0
10
-0.287346
20
0.243508
0
VERTEX
8
0
10
-0.259346
20
0.243508
0
SEQEND
8
0
0
TEXT
8
0
10
-0.410961
20
0.281823
40
0.048000
41
1.041667
1
C9
0
POLYLINE
8
0
66
1
40
0.008000
41
0.008000
0
VERTEX
8
0
10
-0.062409
20
0.026776
0
VERTEX
8
0
10
-0.362409
20
0.026776
0
VERTEX
8
0
10
-0.412409
20
0.076776
0
VERTEX
8
0
10
-0.412409
20
0.176776
0
VERTEX
8
0
10
-0.362409
20
0.226776
0
VERTEX
8
0
10
-0.062409
20
0.226776
0
VERTEX
8
0
10
-0.012409
20
0.176776
0
VERTEX
8
0
10
-0.012409
20
0.076776
0
VERTEX
8
0
10
-0.062409
20
0.026776
0
SEQEND
8
0
0
TEXT
8
0
10
-0.262409
20
-0.031224
40
0.048000
41
1.041667
1
X1
0
POLYLINE
8
0
66
1
40
0.008000
41
0.008000
0
VERTEX
8
0
10
-0.114118
20
0.291508
0
VERTEX
8
0
10
-0.087118
20
0.291508
0
SEQEND
8
0
0
POLYLINE
8
0
66
1
40
0.008000
41
0.008000
0
VERTEX
8
0
10
-0.114118
20
0.243508
0
VERTEX
8
0
10
-0.086118
20
0.243508
0
SEQEND
8
0
0
TEXT
8
0
10
-0.033008
20
0.242453
40
0.048000
41
1.041667
1
C8
0
CIRCLE
8
0
10
0.620661
20
-0.050390
40
0.242565
0
CIRCLE
8
0
10
0.620661
20
-0.050390
40
0.050418
0
TEXT
8
0
10
0.455307
20
0.054098
40
0.080000
41
1.125000
1
+
0
TEXT
8
0
10
0.784441
20
0.139183
40
0.048000
41
1.041667
1
BUZ1
0
POLYLINE
8
0
66
1
40
0.008000
41
0.008000
0
VERTEX
8
0
10
0.456803
20
-0.726925
0
VERTEX
8
0
10
0.456803
20
-0.696925
0
SEQEND
8
0
0
POLYLINE
8
0
66
1
40
0.008000
41
0.008000
0
VERTEX
8
0
10
0.516803
20
-0.726925
0
VERTEX
8
0
10
0.516803
20
-0.696925
0
SEQEND
8
0
0
POLYLINE
8
0
66
1
40
0.008000
41
0.008000
0
VERTEX
8
0
10
0.426803
20
-0.676925
0
VERTEX
8
0
10
0.426803
20
-0.656925
0
SEQEND
8
0
0
POLYLINE
8
0
66
1
40
0.008000
41
0.008000
0
VERTEX
8
0
10
0.416803
20
-0.666925
0
VERTEX
8
0
10
0.436803
20
-0.666925
0
SEQEND
8
0
0
TEXT
8
0
10
0.438299
20
-0.946965
40
0.048000
41
1.041667
50
90.000000
1
C3
0
POLYLINE
8
0
66
1
40
0.008000
41
0.008000
0
VERTEX
8
0
10
-0.173984
20
-0.607004
0
VERTEX
8
0
10
-0.143984
20
-0.607004
0
SEQEND
8
0
0
POLYLINE
8
0
66
1
40
0.008000
41
0.008000
0
VERTEX
8
0
10
-0.173984
20
-0.667004
0
VERTEX
8
0
10
-0.143984
20
-0.667004
0
SEQEND
8
0
0
POLYLINE
8
0
66
1
40
0.008000
41
0.008000
0
VERTEX
8
0
10
-0.123984
20
-0.577004
0
VERTEX
8
0
10
-0.103984
20
-0.577004
0
SEQEND
8
0
0
POLYLINE
8
0
66
1
40
0.008000
41
0.008000
0
VERTEX
8
0
10
-0.113984
20
-0.567004
0
VERTEX
8
0
10
-0.113984
20
-0.587004
0
SEQEND
8
0
0
TEXT
8
0
10
-0.358591
20
-0.643618
40
0.048000
41
1.041667
1
C2
0
TEXT
8
0
10
-0.228844
20
-0.752865
40
0.040000
41
1.000000
1
VCC TX RX GND
0
TEXT
8
0
10
0.895134
20
-0.892909
40
0.048000
41
0.833333
50
90.000000
1
GND VCC SCL SDA
0
TEXT
8
0
10
-0.986654
20
-0.541610
40
0.040000
41
1.000000
50
90.000000
1
www.jpinglobal.com
0
TEXT
8
0
10
0.740126
20
0.355248
40
0.048000
41
0.833333
1
Bogota
0
TEXT
8
0
10
0.662945
20
0.270720
40
0.048000
41
0.833333
1
Colombia
0
TEXT
8
0
10
-0.384425
20
1.037185
40
0.048000
41
0.833333
1
JUDAPIES
0
TEXT
8
0
10
0.346906
20
-1.032996
40
0.048000
41
0.833333
1
AUX_I2C
0
CIRCLE
8
0
10
-0.700047
20
0.109610
40
0.100000
0
POLYLINE
8
0
66
1
40
0.008000
41
0.008000
0
VERTEX
8
0
10
-0.775047
20
0.159610
0
VERTEX
8
0
10
-0.725047
20
0.159610
0
SEQEND
8
0
0
POLYLINE
8
0
66
1
40
0.008000
41
0.008000
0
VERTEX
8
0
10
-0.750047
20
0.184610
0
VERTEX
8
0
10
-0.750047
20
0.134610
0
SEQEND
8
0
0
TEXT
8
0
10
-0.750409
20
0.219610
40
0.048000
41
1.041667
1
C1
0
POLYLINE
8
0
66
1
40
0.008000
41
0.008000
0
VERTEX
8
0
10
0.997953
20
-0.013390
0
VERTEX
8
0
10
0.997953
20
-0.210390
0
SEQEND
8
0
0
POLYLINE
8
0
66
1
40
0.008000
41
0.008000
0
VERTEX
8
0
10
0.897953
20
-0.210390
0
VERTEX
8
0
10
0.897953
20
-0.013390
0
SEQEND
8
0
0
POLYLINE
8
0
66
1
40
0.008000
41
0.008000
0
VERTEX
8
0
10
0.997953
20
-0.134390
0
VERTEX
8
0
10
0.897953
20
-0.134390
0
SEQEND
8
0
0
TEXT
8
0
10
1.055953
20
-0.161390
40
0.048000
41
1.041667
50
90.000000
1
D4
0
POLYLINE
8
0
66
1
40
0.008000
41
0.008000
0
VERTEX
8
0
10
-0.842047
20
-1.029390
0
VERTEX
8
0
10
-0.592047
20
-1.029390
0
VERTEX
8
0
10
-0.592047
20
-0.529390
0
VERTEX
8
0
10
-0.842047
20
-0.529390
0
VERTEX
8
0
10
-0.842047
20
-1.029390
0
SEQEND
8
0
0
POLYLINE
8
0
66
1
40
0.008000
41
0.008000
0
VERTEX
8
0
10
-0.642047
20
-0.529390
0
VERTEX
8
0
10
-0.642047
20
-1.029390
0
SEQEND
8
0
0
TEXT
8
0
10
-0.534047
20
-0.829390
40
0.048000
41
1.041667
50
90.000000
1
J1
0
POLYLINE
8
0
66
1
40
0.008000
41
0.008000
0
VERTEX
8
0
10
-0.837047
20
-0.514390
0
VERTEX
8
0
10
-0.587047
20
-0.514390
0
VERTEX
8
0
10
-0.587047
20
-0.014390
0
VERTEX
8
0
10
-0.837047
20
-0.014390
0
VERTEX
8
0
10
-0.837047
20
-0.514390
0
SEQEND
8
0
0
POLYLINE
8
0
66
1
40
0.008000
41
0.008000
0
VERTEX
8
0
10
-0.787047
20
-0.514390
0
VERTEX
8
0
10
-0.787047
20
-0.014390
0
SEQEND
8
0
0
TEXT
8
0
10
-0.520276
20
-0.314390
40
0.048000
41
1.041667
50
90.000000
1
J3
0
POLYLINE
8
0
66
1
40
0.008000
41
0.008000
0
VERTEX
8
0
10
-0.232047
20
-1.017390
0
VERTEX
8
0
10
0.267953
20
-1.017390
0
VERTEX
8
0
10
0.267953
20
-0.767390
0
VERTEX
8
0
10
-0.232047
20
-0.767390
0
VERTEX
8
0
10
-0.232047
20
-1.017390
0
SEQEND
8
0
0
POLYLINE
8
0
66
1
40
0.008000
41
0.008000
0
VERTEX
8
0
10
-0.232047
20
-0.817390
0
VERTEX
8
0
10
0.267953
20
-0.817390
0
SEQEND
8
0
0
TEXT
8
0
10
-0.071417
20
-1.092035
40
0.048000
41
1.041667
1
J5
0
CIRCLE
8
0
10
0.295795
20
0.630673
40
0.452756
0
CIRCLE
8
0
10
0.291858
20
0.626736
40
0.323616
0
POLYLINE
8
0
66
1
40
0.008000
41
0.008000
0
VERTEX
8
0
10
0.724929
20
0.784217
0
VERTEX
8
0
10
0.961150
20
0.784217
0
SEQEND
8
0
0
POLYLINE
8
0
66
1
40
0.008000
41
0.008000
0
VERTEX
8
0
10
0.961150
20
0.469256
0
VERTEX
8
0
10
0.717055
20
0.469256
0
SEQEND
8
0
0
POLYLINE
8
0
66
1
40
0.008000
41
0.008000
0
VERTEX
8
0
10
0.961150
20
0.473193
0
VERTEX
8
0
10
0.961150
20
0.784217
0
SEQEND
8
0
0
TEXT
8
0
10
0.606622
20
0.991067
40
0.048000
41
1.041667
1
J19
0
CIRCLE
8
0
10
-0.428024
20
0.687760
40
0.004921
0
POLYLINE
8
0
66
1
40
0.007874
41
0.007874
0
VERTEX
8
0
10
-0.644559
20
0.612957
0
VERTEX
8
0
10
-0.644559
20
0.431854
0
VERTEX
8
0
10
-0.428024
20
0.431854
0
VERTEX
8
0
10
-0.428024
20
0.612957
0
VERTEX
8
0
10
-0.644559
20
0.612957
0
SEQEND
8
0
0
CIRCLE
8
0
10
-0.467394
20
0.573587
40
0.011811
0
TEXT
8
0
10
-0.364181
20
0.447406
40
0.048000
41
1.041667
50
90.000000
1
U13
0
CIRCLE
8
0
10
-0.529795
20
0.902327
40
0.100000
0
POLYLINE
8
0
66
1
40
0.008000
41
0.008000
0
VERTEX
8
0
10
-0.454795
20
0.852327
0
VERTEX
8
0
10
-0.504795
20
0.852327
0
SEQEND
8
0
0
POLYLINE
8
0
66
1
40
0.008000
41
0.008000
0
VERTEX
8
0
10
-0.479795
20
0.827327
0
VERTEX
8
0
10
-0.479795
20
0.877327
0
SEQEND
8
0
0
TEXT
8
0
10
-0.629433
20
0.744327
40
0.048000
41
1.041667
1
XTAL
0
TEXT
8
0
10
-0.452228
20
-0.979563
40
0.056000
41
0.892857
50
90.000000
1
DISPLAY
0
TEXT
8
0
10
-0.858866
20
-1.003185
40
0.048000
41
0.833333
50
90.000000
1
GND RX TX VCC
0
TEXT
8
0
10
-0.858866
20
-0.452004
40
0.048000
41
0.833333
50
90.000000
1
VCC D- D+ GND
0
TEXT
8
0
10
-0.511283
20
-0.164602
40
0.056000
41
0.892857
50
90.000000
1
USB
0
TEXT
8
0
10
-0.054598
20
-0.697791
40
0.040000
41
1.000000
1
IMPRESORA
0
INSERT
8
0
2
EPAD
10
0.376175
20
-0.527770
41
0.090000
42
0.090000
0
INSERT
8
0
2
EPAD
10
0.372912
20
-0.619124
41
0.090000
42
0.090000
0
INSERT
8
0
2
EPAD
10
0.317448
20
-0.079157
41
0.090000
42
0.090000
0
INSERT
8
0
2
EPAD
10
0.482866
20
-0.526768
41
0.090000
42
0.090000
0
INSERT
8
0
2
EPAD
10
0.373299
20
-0.708959
41
0.090000
42
0.090000
0
POLYLINE
8
0
66
1
70
1
40
0
41
0
0
VERTEX
8
0
10
0.217323
20
-0.121126
0
VERTEX
8
0
10
0.241323
20
-0.121126
0
VERTEX
8
0
10
0.241323
20
-0.200126
0
VERTEX
8
0
10
0.217323
20
-0.200126
0
VERTEX
8
0
10
0.217323
20
-0.121126
0
SEQEND
8
0
0
POLYLINE
8
0
66
1
70
1
40
0
41
0
0
VERTEX
8
0
10
0.167323
20
-0.121126
0
VERTEX
8
0
10
0.191323
20
-0.121126
0
VERTEX
8
0
10
0.191323
20
-0.200126
0
VERTEX
8
0
10
0.167323
20
-0.200126
0
VERTEX
8
0
10
0.167323
20
-0.121126
0
SEQEND
8
0
0
POLYLINE
8
0
66
1
70
1
40
0
41
0
0
VERTEX
8
0
10
0.117323
20
-0.121126
0
VERTEX
8
0
10
0.141323
20
-0.121126
0
VERTEX
8
0
10
0.141323
20
-0.200126
0
VERTEX
8
0
10
0.117323
20
-0.200126
0
VERTEX
8
0
10
0.117323
20
-0.121126
0
SEQEND
8
0
0
POLYLINE
8
0
66
1
70
1
40
0
41
0
0
VERTEX
8
0
10
0.067323
20
-0.121126
0
VERTEX
8
0
10
0.091323
20
-0.121126
0
VERTEX
8
0
10
0.091323
20
-0.200126
0
VERTEX
8
0
10
0.067323
20
-0.200126
0
VERTEX
8
0
10
0.067323
20
-0.121126
0
SEQEND
8
0
0
POLYLINE
8
0
66
1
70
1
40
0
41
0
0
VERTEX
8
0
10
0.017323
20
-0.121126
0
VERTEX
8
0
10
0.041323
20
-0.121126
0
VERTEX
8
0
10
0.041323
20
-0.200126
0
VERTEX
8
0
10
0.017323
20
-0.200126
0
VERTEX
8
0
10
0.017323
20
-0.121126
0
SEQEND
8
0
0
POLYLINE
8
0
66
1
70
1
40
0
41
0
0
VERTEX
8
0
10
-0.032677
20
-0.121126
0
VERTEX
8
0
10
-0.008677
20
-0.121126
0
VERTEX
8
0
10
-0.008677
20
-0.200126
0
VERTEX
8
0
10
-0.032677
20
-0.200126
0
VERTEX
8
0
10
-0.032677
20
-0.121126
0
SEQEND
8
0
0
POLYLINE
8
0
66
1
70
1
40
0
41
0
0
VERTEX
8
0
10
-0.082677
20
-0.121126
0
VERTEX
8
0
10
-0.058677
20
-0.121126
0
VERTEX
8
0
10
-0.058677
20
-0.200126
0
VERTEX
8
0
10
-0.082677
20
-0.200126
0
VERTEX
8
0
10
-0.082677
20
-0.121126
0
SEQEND
8
0
0
POLYLINE
8
0
66
1
70
1
40
0
41
0
0
VERTEX
8
0
10
-0.132677
20
-0.121126
0
VERTEX
8
0
10
-0.108677
20
-0.121126
0
VERTEX
8
0
10
-0.108677
20
-0.200126
0
VERTEX
8
0
10
-0.132677
20
-0.200126
0
VERTEX
8
0
10
-0.132677
20
-0.121126
0
SEQEND
8
0
0
POLYLINE
8
0
66
1
70
1
40
0
41
0
0
VERTEX
8
0
10
-0.182677
20
-0.121126
0
VERTEX
8
0
10
-0.158677
20
-0.121126
0
VERTEX
8
0
10
-0.158677
20
-0.200126
0
VERTEX
8
0
10
-0.182677
20
-0.200126
0
VERTEX
8
0
10
-0.182677
20
-0.121126
0
SEQEND
8
0
0
POLYLINE
8
0
66
1
70
1
40
0
41
0
0
VERTEX
8
0
10
-0.232677
20
-0.121126
0
VERTEX
8
0
10
-0.208677
20
-0.121126
0
VERTEX
8
0
10
-0.208677
20
-0.200126
0
VERTEX
8
0
10
-0.232677
20
-0.200126
0
VERTEX
8
0
10
-0.232677
20
-0.121126
0
SEQEND
8
0
0
POLYLINE
8
0
66
1
70
1
40
0
41
0
0
VERTEX
8
0
10
-0.282677
20
-0.121126
0
VERTEX
8
0
10
-0.258677
20
-0.121126
0
VERTEX
8
0
10
-0.258677
20
-0.200126
0
VERTEX
8
0
10
-0.282677
20
-0.200126
0
VERTEX
8
0
10
-0.282677
20
-0.121126
0
SEQEND
8
0
0
POLYLINE
8
0
66
1
70
1
40
0
41
0
0
VERTEX
8
0
10
-0.332677
20
-0.121126
0
VERTEX
8
0
10
-0.308677
20
-0.121126
0
VERTEX
8
0
10
-0.308677
20
-0.200126
0
VERTEX
8
0
10
-0.332677
20
-0.200126
0
VERTEX
8
0
10
-0.332677
20
-0.121126
0
SEQEND
8
0
0
POLYLINE
8
0
66
1
70
1
40
0
41
0
0
VERTEX
8
0
10
-0.382677
20
-0.121126
0
VERTEX
8
0
10
-0.358677
20
-0.121126
0
VERTEX
8
0
10
-0.358677
20
-0.200126
0
VERTEX
8
0
10
-0.382677
20
-0.200126
0
VERTEX
8
0
10
-0.382677
20
-0.121126
0
SEQEND
8
0
0
POLYLINE
8
0
66
1
70
1
40
0
41
0
0
VERTEX
8
0
10
-0.432677
20
-0.121126
0
VERTEX
8
0
10
-0.408677
20
-0.121126
0
VERTEX
8
0
10
-0.408677
20
-0.200126
0
VERTEX
8
0
10
-0.432677
20
-0.200126
0
VERTEX
8
0
10
-0.432677
20
-0.121126
0
SEQEND
8
0
0
POLYLINE
8
0
66
1
70
1
40
0
41
0
0
VERTEX
8
0
10
-0.432677
20
-0.491205
0
VERTEX
8
0
10
-0.408677
20
-0.491205
0
VERTEX
8
0
10
-0.408677
20
-0.570205
0
VERTEX
8
0
10
-0.432677
20
-0.570205
0
VERTEX
8
0
10
-0.432677
20
-0.491205
0
SEQEND
8
0
0
POLYLINE
8
0
66
1
70
1
40
0
41
0
0
VERTEX
8
0
10
-0.382677
20
-0.491205
0
VERTEX
8
0
10
-0.358677
20
-0.491205
0
VERTEX
8
0
10
-0.358677
20
-0.570205
0
VERTEX
8
0
10
-0.382677
20
-0.570205
0
VERTEX
8
0
10
-0.382677
20
-0.491205
0
SEQEND
8
0
0
POLYLINE
8
0
66
1
70
1
40
0
41
0
0
VERTEX
8
0
10
-0.332677
20
-0.491205
0
VERTEX
8
0
10
-0.308677
20
-0.491205
0
VERTEX
8
0
10
-0.308677
20
-0.570205
0
VERTEX
8
0
10
-0.332677
20
-0.570205
0
VERTEX
8
0
10
-0.332677
20
-0.491205
0
SEQEND
8
0
0
POLYLINE
8
0
66
1
70
1
40
0
41
0
0
VERTEX
8
0
10
-0.282677
20
-0.491205
0
VERTEX
8
0
10
-0.258677
20
-0.491205
0
VERTEX
8
0
10
-0.258677
20
-0.570205
0
VERTEX
8
0
10
-0.282677
20
-0.570205
0
VERTEX
8
0
10
-0.282677
20
-0.491205
0
SEQEND
8
0
0
POLYLINE
8
0
66
1
70
1
40
0
41
0
0
VERTEX
8
0
10
-0.232677
20
-0.491205
0
VERTEX
8
0
10
-0.208677
20
-0.491205
0
VERTEX
8
0
10
-0.208677
20
-0.570205
0
VERTEX
8
0
10
-0.232677
20
-0.570205
0
VERTEX
8
0
10
-0.232677
20
-0.491205
0
SEQEND
8
0
0
POLYLINE
8
0
66
1
70
1
40
0
41
0
0
VERTEX
8
0
10
-0.182677
20
-0.491205
0
VERTEX
8
0
10
-0.158677
20
-0.491205
0
VERTEX
8
0
10
-0.158677
20
-0.570205
0
VERTEX
8
0
10
-0.182677
20
-0.570205
0
VERTEX
8
0
10
-0.182677
20
-0.491205
0
SEQEND
8
0
0
POLYLINE
8
0
66
1
70
1
40
0
41
0
0
VERTEX
8
0
10
-0.132677
20
-0.491205
0
VERTEX
8
0
10
-0.108677
20
-0.491205
0
VERTEX
8
0
10
-0.108677
20
-0.570205
0
VERTEX
8
0
10
-0.132677
20
-0.570205
0
VERTEX
8
0
10
-0.132677
20
-0.491205
0
SEQEND
8
0
0
POLYLINE
8
0
66
1
70
1
40
0
41
0
0
VERTEX
8
0
10
-0.082677
20
-0.491205
0
VERTEX
8
0
10
-0.058677
20
-0.491205
0
VERTEX
8
0
10
-0.058677
20
-0.570205
0
VERTEX
8
0
10
-0.082677
20
-0.570205
0
VERTEX
8
0
10
-0.082677
20
-0.491205
0
SEQEND
8
0
0
POLYLINE
8
0
66
1
70
1
40
0
41
0
0
VERTEX
8
0
10
-0.032677
20
-0.491205
0
VERTEX
8
0
10
-0.008677
20
-0.491205
0
VERTEX
8
0
10
-0.008677
20
-0.570205
0
VERTEX
8
0
10
-0.032677
20
-0.570205
0
VERTEX
8
0
10
-0.032677
20
-0.491205
0
SEQEND
8
0
0
POLYLINE
8
0
66
1
70
1
40
0
41
0
0
VERTEX
8
0
10
0.017323
20
-0.491205
0
VERTEX
8
0
10
0.041323
20
-0.491205
0
VERTEX
8
0
10
0.041323
20
-0.570205
0
VERTEX
8
0
10
0.017323
20
-0.570205
0
VERTEX
8
0
10
0.017323
20
-0.491205
0
SEQEND
8
0
0
POLYLINE
8
0
66
1
70
1
40
0
41
0
0
VERTEX
8
0
10
0.067323
20
-0.491205
0
VERTEX
8
0
10
0.091323
20
-0.491205
0
VERTEX
8
0
10
0.091323
20
-0.570205
0
VERTEX
8
0
10
0.067323
20
-0.570205
0
VERTEX
8
0
10
0.067323
20
-0.491205
0
SEQEND
8
0
0
POLYLINE
8
0
66
1
70
1
40
0
41
0
0
VERTEX
8
0
10
0.117323
20
-0.491205
0
VERTEX
8
0
10
0.141323
20
-0.491205
0
VERTEX
8
0
10
0.141323
20
-0.570205
0
VERTEX
8
0
10
0.117323
20
-0.570205
0
VERTEX
8
0
10
0.117323
20
-0.491205
0
SEQEND
8
0
0
POLYLINE
8
0
66
1
70
1
40
0
41
0
0
VERTEX
8
0
10
0.167323
20
-0.491205
0
VERTEX
8
0
10
0.191323
20
-0.491205
0
VERTEX
8
0
10
0.191323
20
-0.570205
0
VERTEX
8
0
10
0.167323
20
-0.570205
0
VERTEX
8
0
10
0.167323
20
-0.491205
0
SEQEND
8
0
0
POLYLINE
8
0
66
1
70
1
40
0
41
0
0
VERTEX
8
0
10
0.217323
20
-0.491205
0
VERTEX
8
0
10
0.241323
20
-0.491205
0
VERTEX
8
0
10
0.241323
20
-0.570205
0
VERTEX
8
0
10
0.217323
20
-0.570205
0
VERTEX
8
0
10
0.217323
20
-0.491205
0
SEQEND
8
0
0
POLYLINE
8
0
66
1
70
1
40
0
41
0
0
VERTEX
8
0
10
0.043106
20
0.124618
0
VERTEX
8
0
10
0.043106
20
0.148618
0
VERTEX
8
0
10
0.080106
20
0.148618
0
VERTEX
8
0
10
0.080106
20
0.124618
0
VERTEX
8
0
10
0.043106
20
0.124618
0
SEQEND
8
0
0
POLYLINE
8
0
66
1
70
1
40
0
41
0
0
VERTEX
8
0
10
0.043106
20
0.049815
0
VERTEX
8
0
10
0.043106
20
0.073815
0
VERTEX
8
0
10
0.080106
20
0.073815
0
VERTEX
8
0
10
0.080106
20
0.049815
0
VERTEX
8
0
10
0.043106
20
0.049815
0
SEQEND
8
0
0
POLYLINE
8
0
66
1
70
1
40
0
41
0
0
VERTEX
8
0
10
0.133657
20
0.087217
0
VERTEX
8
0
10
0.133657
20
0.111217
0
VERTEX
8
0
10
0.170657
20
0.111217
0
VERTEX
8
0
10
0.170657
20
0.087217
0
VERTEX
8
0
10
0.133657
20
0.087217
0
SEQEND
8
0
0
POLYLINE
8
0
66
1
70
1
40
0
41
0
0
VERTEX
8
0
10
0.360386
20
-0.144563
0
VERTEX
8
0
10
0.360386
20
-0.184563
0
VERTEX
8
0
10
0.360335
20
-0.185602
0
VERTEX
8
0
10
0.360187
20
-0.186607
0
VERTEX
8
0
10
0.359945
20
-0.187574
0
VERTEX
8
0
10
0.359614
20
-0.188498
0
VERTEX
8
0
10
0.359200
20
-0.189375
0
VERTEX
8
0
10
0.358705
20
-0.190199
0
VERTEX
8
0
10
0.358135
20
-0.190967
0
VERTEX
8
0
10
0.357495
20
-0.191672
0
VERTEX
8
0
10
0.356789
20
-0.192313
0
VERTEX
8
0
10
0.356022
20
-0.192882
0
VERTEX
8
0
10
0.355198
20
-0.193376
0
VERTEX
8
0
10
0.354321
20
-0.193791
0
VERTEX
8
0
10
0.353397
20
-0.194122
0
VERTEX
8
0
10
0.352430
20
-0.194364
0
VERTEX
8
0
10
0.351425
20
-0.194513
0
VERTEX
8
0
10
0.350386
20
-0.194563
0
VERTEX
8
0
10
0.300386
20
-0.194563
0
VERTEX
8
0
10
0.299346
20
-0.194513
0
VERTEX
8
0
10
0.298341
20
-0.194364
0
VERTEX
8
0
10
0.297374
20
-0.194122
0
VERTEX
8
0
10
0.296450
20
-0.193791
0
VERTEX
8
0
10
0.295574
20
-0.193376
0
VERTEX
8
0
10
0.294750
20
-0.192882
0
VERTEX
8
0
10
0.293983
20
-0.192313
0
VERTEX
8
0
10
0.293276
20
-0.191672
0
VERTEX
8
0
10
0.292636
20
-0.190967
0
VERTEX
8
0
10
0.292067
20
-0.190199
0
VERTEX
8
0
10
0.291572
20
-0.189375
0
VERTEX
8
0
10
0.291157
20
-0.188498
0
VERTEX
8
0
10
0.290827
20
-0.187574
0
VERTEX
8
0
10
0.290585
20
-0.186607
0
VERTEX
8
0
10
0.290436
20
-0.185602
0
VERTEX
8
0
10
0.290386
20
-0.184563
0
VERTEX
8
0
10
0.290386
20
-0.144563
0
VERTEX
8
0
10
0.290436
20
-0.143524
0
VERTEX
8
0
10
0.290585
20
-0.142519
0
VERTEX
8
0
10
0.290827
20
-0.141552
0
VERTEX
8
0
10
0.291157
20
-0.140628
0
VERTEX
8
0
10
0.291572
20
-0.139751
0
VERTEX
8
0
10
0.292067
20
-0.138927
0
VERTEX
8
0
10
0.292636
20
-0.138159
0
VERTEX
8
0
10
0.293276
20
-0.137454
0
VERTEX
8
0
10
0.293983
20
-0.136813
0
VERTEX
8
0
10
0.294750
20
-0.136244
0
VERTEX
8
0
10
0.295574
20
-0.135750
0
VERTEX
8
0
10
0.296450
20
-0.135335
0
VERTEX
8
0
10
0.297374
20
-0.135004
0
VERTEX
8
0
10
0.298341
20
-0.134762
0
VERTEX
8
0
10
0.299346
20
-0.134613
0
VERTEX
8
0
10
0.300386
20
-0.134563
0
VERTEX
8
0
10
0.350386
20
-0.134563
0
VERTEX
8
0
10
0.351425
20
-0.134613
0
VERTEX
8
0
10
0.352430
20
-0.134762
0
VERTEX
8
0
10
0.353397
20
-0.135004
0
VERTEX
8
0
10
0.354321
20
-0.135335
0
VERTEX
8
0
10
0.355198
20
-0.135750
0
VERTEX
8
0
10
0.356022
20
-0.136244
0
VERTEX
8
0
10
0.356789
20
-0.136813
0
VERTEX
8
0
10
0.357495
20
-0.137454
0
VERTEX
8
0
10
0.358135
20
-0.138159
0
VERTEX
8
0
10
0.358705
20
-0.138927
0
VERTEX
8
0
10
0.359200
20
-0.139751
0
VERTEX
8
0
10
0.359614
20
-0.140628
0
VERTEX
8
0
10
0.359945
20
-0.141552
0
VERTEX
8
0
10
0.360187
20
-0.142519
0
VERTEX
8
0
10
0.360335
20
-0.143524
0
VERTEX
8
0
10
0.360386
20
-0.144563
0
SEQEND
8
0
0
POLYLINE
8
0
66
1
70
1
40
0
41
0
0
VERTEX
8
0
10
0.360386
20
-0.228563
0
VERTEX
8
0
10
0.360386
20
-0.268563
0
VERTEX
8
0
10
0.360335
20
-0.269602
0
VERTEX
8
0
10
0.360187
20
-0.270607
0
VERTEX
8
0
10
0.359945
20
-0.271574
0
VERTEX
8
0
10
0.359614
20
-0.272498
0
VERTEX
8
0
10
0.359200
20
-0.273375
0
VERTEX
8
0
10
0.358705
20
-0.274199
0
VERTEX
8
0
10
0.358135
20
-0.274967
0
VERTEX
8
0
10
0.357495
20
-0.275672
0
VERTEX
8
0
10
0.356789
20
-0.276313
0
VERTEX
8
0
10
0.356022
20
-0.276882
0
VERTEX
8
0
10
0.355198
20
-0.277376
0
VERTEX
8
0
10
0.354321
20
-0.277791
0
VERTEX
8
0
10
0.353397
20
-0.278122
0
VERTEX
8
0
10
0.352430
20
-0.278364
0
VERTEX
8
0
10
0.351425
20
-0.278513
0
VERTEX
8
0
10
0.350386
20
-0.278563
0
VERTEX
8
0
10
0.300386
20
-0.278563
0
VERTEX
8
0
10
0.299346
20
-0.278513
0
VERTEX
8
0
10
0.298341
20
-0.278364
0
VERTEX
8
0
10
0.297374
20
-0.278122
0
VERTEX
8
0
10
0.296450
20
-0.277791
0
VERTEX
8
0
10
0.295574
20
-0.277376
0
VERTEX
8
0
10
0.294750
20
-0.276882
0
VERTEX
8
0
10
0.293983
20
-0.276313
0
VERTEX
8
0
10
0.293276
20
-0.275672
0
VERTEX
8
0
10
0.292636
20
-0.274967
0
VERTEX
8
0
10
0.292067
20
-0.274199
0
VERTEX
8
0
10
0.291572
20
-0.273375
0
VERTEX
8
0
10
0.291157
20
-0.272498
0
VERTEX
8
0
10
0.290827
20
-0.271574
0
VERTEX
8
0
10
0.290585
20
-0.270607
0
VERTEX
8
0
10
0.290436
20
-0.269602
0
VERTEX
8
0
10
0.290386
20
-0.268563
0
VERTEX
8
0
10
0.290386
20
-0.228563
0
VERTEX
8
0
10
0.290436
20
-0.227524
0
VERTEX
8
0
10
0.290585
20
-0.226519
0
VERTEX
8
0
10
0.290827
20
-0.225552
0
VERTEX
8
0
10
0.291157
20
-0.224628
0
VERTEX
8
0
10
0.291572
20
-0.223751
0
VERTEX
8
0
10
0.292067
20
-0.222927
0
VERTEX
8
0
10
0.292636
20
-0.222159
0
VERTEX
8
0
10
0.293276
20
-0.221454
0
VERTEX
8
0
10
0.293983
20
-0.220813
0
VERTEX
8
0
10
0.294750
20
-0.220244
0
VERTEX
8
0
10
0.295574
20
-0.219750
0
VERTEX
8
0
10
0.296450
20
-0.219335
0
VERTEX
8
0
10
0.297374
20
-0.219004
0
VERTEX
8
0
10
0.298341
20
-0.218762
0
VERTEX
8
0
10
0.299346
20
-0.218613
0
VERTEX
8
0
10
0.300386
20
-0.218563
0
VERTEX
8
0
10
0.350386
20
-0.218563
0
VERTEX
8
0
10
0.351425
20
-0.218613
0
VERTEX
8
0
10
0.352430
20
-0.218762
0
VERTEX
8
0
10
0.353397
20
-0.219004
0
VERTEX
8
0
10
0.354321
20
-0.219335
0
VERTEX
8
0
10
0.355198
20
-0.219750
0
VERTEX
8
0
10
0.356022
20
-0.220244
0
VERTEX
8
0
10
0.356789
20
-0.220813
0
VERTEX
8
0
10
0.357495
20
-0.221454
0
VERTEX
8
0
10
0.358135
20
-0.222159
0
VERTEX
8
0
10
0.358705
20
-0.222927
0
VERTEX
8
0
10
0.359200
20
-0.223751
0
VERTEX
8
0
10
0.359614
20
-0.224628
0
VERTEX
8
0
10
0.359945
20
-0.225552
0
VERTEX
8
0
10
0.360187
20
-0.226519
0
VERTEX
8
0
10
0.360335
20
-0.227524
0
VERTEX
8
0
10
0.360386
20
-0.228563
0
SEQEND
8
0
0
POLYLINE
8
0
66
1
70
1
40
0
41
0
0
VERTEX
8
0
10
0.021921
20
-0.007516
0
VERTEX
8
0
10
0.061921
20
-0.007516
0
VERTEX
8
0
10
0.062961
20
-0.007566
0
VERTEX
8
0
10
0.063966
20
-0.007715
0
VERTEX
8
0
10
0.064933
20
-0.007957
0
VERTEX
8
0
10
0.065857
20
-0.008287
0
VERTEX
8
0
10
0.066733
20
-0.008702
0
VERTEX
8
0
10
0.067557
20
-0.009197
0
VERTEX
8
0
10
0.068325
20
-0.009766
0
VERTEX
8
0
10
0.069031
20
-0.010406
0
VERTEX
8
0
10
0.069671
20
-0.011113
0
VERTEX
8
0
10
0.070240
20
-0.011880
0
VERTEX
8
0
10
0.070735
20
-0.012704
0
VERTEX
8
0
10
0.071150
20
-0.013580
0
VERTEX
8
0
10
0.071480
20
-0.014504
0
VERTEX
8
0
10
0.071722
20
-0.015471
0
VERTEX
8
0
10
0.071871
20
-0.016476
0
VERTEX
8
0
10
0.071921
20
-0.017516
0
VERTEX
8
0
10
0.071921
20
-0.067516
0
VERTEX
8
0
10
0.071871
20
-0.068555
0
VERTEX
8
0
10
0.071722
20
-0.069560
0
VERTEX
8
0
10
0.071480
20
-0.070527
0
VERTEX
8
0
10
0.071150
20
-0.071451
0
VERTEX
8
0
10
0.070735
20
-0.072328
0
VERTEX
8
0
10
0.070240
20
-0.073152
0
VERTEX
8
0
10
0.069671
20
-0.073919
0
VERTEX
8
0
10
0.069031
20
-0.074625
0
VERTEX
8
0
10
0.068325
20
-0.075265
0
VERTEX
8
0
10
0.067557
20
-0.075835
0
VERTEX
8
0
10
0.066733
20
-0.076330
0
VERTEX
8
0
10
0.065857
20
-0.076744
0
VERTEX
8
0
10
0.064933
20
-0.077075
0
VERTEX
8
0
10
0.063966
20
-0.077317
0
VERTEX
8
0
10
0.062961
20
-0.077465
0
VERTEX
8
0
10
0.061921
20
-0.077516
0
VERTEX
8
0
10
0.021921
20
-0.077516
0
VERTEX
8
0
10
0.020882
20
-0.077465
0
VERTEX
8
0
10
0.019877
20
-0.077317
0
VERTEX
8
0
10
0.018910
20
-0.077075
0
VERTEX
8
0
10
0.017986
20
-0.076744
0
VERTEX
8
0
10
0.017109
20
-0.076330
0
VERTEX
8
0
10
0.016285
20
-0.075835
0
VERTEX
8
0
10
0.015518
20
-0.075265
0
VERTEX
8
0
10
0.014812
20
-0.074625
0
VERTEX
8
0
10
0.014172
20
-0.073919
0
VERTEX
8
0
10
0.013602
20
-0.073152
0
VERTEX
8
0
10
0.013108
20
-0.072328
0
VERTEX
8
0
10
0.012693
20
-0.071451
0
VERTEX
8
0
10
0.012362
20
-0.070527
0
VERTEX
8
0
10
0.012120
20
-0.069560
0
VERTEX
8
0
10
0.011972
20
-0.068555
0
VERTEX
8
0
10
0.011921
20
-0.067516
0
VERTEX
8
0
10
0.011921
20
-0.017516
0
VERTEX
8
0
10
0.011972
20
-0.016476
0
VERTEX
8
0
10
0.012120
20
-0.015471
0
VERTEX
8
0
10
0.012362
20
-0.014504
0
VERTEX
8
0
10
0.012693
20
-0.013580
0
VERTEX
8
0
10
0.013108
20
-0.012704
0
VERTEX
8
0
10
0.013602
20
-0.011880
0
VERTEX
8
0
10
0.014172
20
-0.011113
0
VERTEX
8
0
10
0.014812
20
-0.010406
0
VERTEX
8
0
10
0.015518
20
-0.009766
0
VERTEX
8
0
10
0.016285
20
-0.009197
0
VERTEX
8
0
10
0.017109
20
-0.008702
0
VERTEX
8
0
10
0.017986
20
-0.008287
0
VERTEX
8
0
10
0.018910
20
-0.007957
0
VERTEX
8
0
10
0.019877
20
-0.007715
0
VERTEX
8
0
10
0.020882
20
-0.007566
0
VERTEX
8
0
10
0.021921
20
-0.007516
0
SEQEND
8
0
0
POLYLINE
8
0
66
1
70
1
40
0
41
0
0
VERTEX
8
0
10
0.105921
20
-0.007516
0
VERTEX
8
0
10
0.145921
20
-0.007516
0
VERTEX
8
0
10
0.146961
20
-0.007566
0
VERTEX
8
0
10
0.147966
20
-0.007715
0
VERTEX
8
0
10
0.148933
20
-0.007957
0
VERTEX
8
0
10
0.149857
20
-0.008287
0
VERTEX
8
0
10
0.150733
20
-0.008702
0
VERTEX
8
0
10
0.151557
20
-0.009197
0
VERTEX
8
0
10
0.152325
20
-0.009766
0
VERTEX
8
0
10
0.153031
20
-0.010406
0
VERTEX
8
0
10
0.153671
20
-0.011113
0
VERTEX
8
0
10
0.154240
20
-0.011880
0
VERTEX
8
0
10
0.154735
20
-0.012704
0
VERTEX
8
0
10
0.155150
20
-0.013580
0
VERTEX
8
0
10
0.155480
20
-0.014504
0
VERTEX
8
0
10
0.155722
20
-0.015471
0
VERTEX
8
0
10
0.155871
20
-0.016476
0
VERTEX
8
0
10
0.155921
20
-0.017516
0
VERTEX
8
0
10
0.155921
20
-0.067516
0
VERTEX
8
0
10
0.155871
20
-0.068555
0
VERTEX
8
0
10
0.155722
20
-0.069560
0
VERTEX
8
0
10
0.155480
20
-0.070527
0
VERTEX
8
0
10
0.155150
20
-0.071451
0
VERTEX
8
0
10
0.154735
20
-0.072328
0
VERTEX
8
0
10
0.154240
20
-0.073152
0
VERTEX
8
0
10
0.153671
20
-0.073919
0
VERTEX
8
0
10
0.153031
20
-0.074625
0
VERTEX
8
0
10
0.152325
20
-0.075265
0
VERTEX
8
0
10
0.151557
20
-0.075835
0
VERTEX
8
0
10
0.150733
20
-0.076330
0
VERTEX
8
0
10
0.149857
20
-0.076744
0
VERTEX
8
0
10
0.148933
20
-0.077075
0
VERTEX
8
0
10
0.147966
20
-0.077317
0
VERTEX
8
0
10
0.146961
20
-0.077465
0
VERTEX
8
0
10
0.145921
20
-0.077516
0
VERTEX
8
0
10
0.105921
20
-0.077516
0
VERTEX
8
0
10
0.104882
20
-0.077465
0
VERTEX
8
0
10
0.103877
20
-0.077317
0
VERTEX
8
0
10
0.102910
20
-0.077075
0
VERTEX
8
0
10
0.101986
20
-0.076744
0
VERTEX
8
0
10
0.101109
20
-0.076330
0
VERTEX
8
0
10
0.100285
20
-0.075835
0
VERTEX
8
0
10
0.099518
20
-0.075265
0
VERTEX
8
0
10
0.098812
20
-0.074625
0
VERTEX
8
0
10
0.098172
20
-0.073919
0
VERTEX
8
0
10
0.097602
20
-0.073152
0
VERTEX
8
0
10
0.097108
20
-0.072328
0
VERTEX
8
0
10
0.096693
20
-0.071451
0
VERTEX
8
0
10
0.096362
20
-0.070527
0
VERTEX
8
0
10
0.096120
20
-0.069560
0
VERTEX
8
0
10
0.095972
20
-0.068555
0
VERTEX
8
0
10
0.095921
20
-0.067516
0
VERTEX
8
0
10
0.095921
20
-0.017516
0
VERTEX
8
0
10
0.095972
20
-0.016476
0
VERTEX
8
0
10
0.096120
20
-0.015471
0
VERTEX
8
0
10
0.096362
20
-0.014504
0
VERTEX
8
0
10
0.096693
20
-0.013580
0
VERTEX
8
0
10
0.097108
20
-0.012704
0
VERTEX
8
0
10
0.097602
20
-0.011880
0
VERTEX
8
0
10
0.098172
20
-0.011113
0
VERTEX
8
0
10
0.098812
20
-0.010406
0
VERTEX
8
0
10
0.099518
20
-0.009766
0
VERTEX
8
0
10
0.100285
20
-0.009197
0
VERTEX
8
0
10
0.101109
20
-0.008702
0
VERTEX
8
0
10
0.101986
20
-0.008287
0
VERTEX
8
0
10
0.102910
20
-0.007957
0
VERTEX
8
0
10
0.103877
20
-0.007715
0
VERTEX
8
0
10
0.104882
20
-0.007566
0
VERTEX
8
0
10
0.105921
20
-0.007516
0
SEQEND
8
0
0
POLYLINE
8
0
66
1
70
1
40
0
41
0
0
VERTEX
8
0
10
0.823087
20
-0.912161
0
VERTEX
8
0
10
0.783087
20
-0.912161
0
VERTEX
8
0
10
0.782047
20
-0.912111
0
VERTEX
8
0
10
0.781042
20
-0.911963
0
VERTEX
8
0
10
0.780075
20
-0.911720
0
VERTEX
8
0
10
0.779151
20
-0.911390
0
VERTEX
8
0
10
0.778275
20
-0.910975
0
VERTEX
8
0
10
0.777451
20
-0.910480
0
VERTEX
8
0
10
0.776683
20
-0.909911
0
VERTEX
8
0
10
0.775977
20
-0.909271
0
VERTEX
8
0
10
0.775337
20
-0.908565
0
VERTEX
8
0
10
0.774768
20
-0.907797
0
VERTEX
8
0
10
0.774273
20
-0.906973
0
VERTEX
8
0
10
0.773858
20
-0.906097
0
VERTEX
8
0
10
0.773528
20
-0.905173
0
VERTEX
8
0
10
0.773285
20
-0.904206
0
VERTEX
8
0
10
0.773137
20
-0.903201
0
VERTEX
8
0
10
0.773087
20
-0.902161
0
VERTEX
8
0
10
0.773087
20
-0.852161
0
VERTEX
8
0
10
0.773137
20
-0.851122
0
VERTEX
8
0
10
0.773285
20
-0.850117
0
VERTEX
8
0
10
0.773528
20
-0.849150
0
VERTEX
8
0
10
0.773858
20
-0.848226
0
VERTEX
8
0
10
0.774273
20
-0.847350
0
VERTEX
8
0
10
0.774768
20
-0.846526
0
VERTEX
8
0
10
0.775337
20
-0.845758
0
VERTEX
8
0
10
0.775977
20
-0.845052
0
VERTEX
8
0
10
0.776683
20
-0.844412
0
VERTEX
8
0
10
0.777451
20
-0.843843
0
VERTEX
8
0
10
0.778275
20
-0.843348
0
VERTEX
8
0
10
0.779151
20
-0.842933
0
VERTEX
8
0
10
0.780075
20
-0.842602
0
VERTEX
8
0
10
0.781042
20
-0.842360
0
VERTEX
8
0
10
0.782047
20
-0.842212
0
VERTEX
8
0
10
0.783087
20
-0.842161
0
VERTEX
8
0
10
0.823087
20
-0.842161
0
VERTEX
8
0
10
0.824126
20
-0.842212
0
VERTEX
8
0
10
0.825131
20
-0.842360
0
VERTEX
8
0
10
0.826098
20
-0.842602
0
VERTEX
8
0
10
0.827022
20
-0.842933
0
VERTEX
8
0
10
0.827898
20
-0.843348
0
VERTEX
8
0
10
0.828722
20
-0.843843
0
VERTEX
8
0
10
0.829490
20
-0.844412
0
VERTEX
8
0
10
0.830196
20
-0.845052
0
VERTEX
8
0
10
0.830836
20
-0.845758
0
VERTEX
8
0
10
0.831406
20
-0.846526
0
VERTEX
8
0
10
0.831900
20
-0.847350
0
VERTEX
8
0
10
0.832315
20
-0.848226
0
VERTEX
8
0
10
0.832646
20
-0.849150
0
VERTEX
8
0
10
0.832888
20
-0.850117
0
VERTEX
8
0
10
0.833036
20
-0.851122
0
VERTEX
8
0
10
0.833087
20
-0.852161
0
VERTEX
8
0
10
0.833087
20
-0.902161
0
VERTEX
8
0
10
0.833036
20
-0.903201
0
VERTEX
8
0
10
0.832888
20
-0.904206
0
VERTEX
8
0
10
0.832646
20
-0.905173
0
VERTEX
8
0
10
0.832315
20
-0.906097
0
VERTEX
8
0
10
0.831900
20
-0.906973
0
VERTEX
8
0
10
0.831406
20
-0.907797
0
VERTEX
8
0
10
0.830836
20
-0.908565
0
VERTEX
8
0
10
0.830196
20
-0.909271
0
VERTEX
8
0
10
0.829490
20
-0.909911
0
VERTEX
8
0
10
0.828722
20
-0.910480
0
VERTEX
8
0
10
0.827898
20
-0.910975
0
VERTEX
8
0
10
0.827022
20
-0.911390
0
VERTEX
8
0
10
0.826098
20
-0.911720
0
VERTEX
8
0
10
0.825131
20
-0.911963
0
VERTEX
8
0
10
0.824126
20
-0.912111
0
VERTEX
8
0
10
0.823087
20
-0.912161
0
SEQEND
8
0
0
POLYLINE
8
0
66
1
70
1
40
0
41
0
0
VERTEX
8
0
10
0.739087
20
-0.912161
0
VERTEX
8
0
10
0.699087
20
-0.912161
0
VERTEX
8
0
10
0.698047
20
-0.912111
0
VERTEX
8
0
10
0.697042
20
-0.911963
0
VERTEX
8
0
10
0.696075
20
-0.911720
0
VERTEX
8
0
10
0.695151
20
-0.911390
0
VERTEX
8
0
10
0.694275
20
-0.910975
0
VERTEX
8
0
10
0.693451
20
-0.910480
0
VERTEX
8
0
10
0.692683
20
-0.909911
0
VERTEX
8
0
10
0.691977
20
-0.909271
0
VERTEX
8
0
10
0.691337
20
-0.908565
0
VERTEX
8
0
10
0.690768
20
-0.907797
0
VERTEX
8
0
10
0.690273
20
-0.906973
0
VERTEX
8
0
10
0.689858
20
-0.906097
0
VERTEX
8
0
10
0.689528
20
-0.905173
0
VERTEX
8
0
10
0.689285
20
-0.904206
0
VERTEX
8
0
10
0.689137
20
-0.903201
0
VERTEX
8
0
10
0.689087
20
-0.902161
0
VERTEX
8
0
10
0.689087
20
-0.852161
0
VERTEX
8
0
10
0.689137
20
-0.851122
0
VERTEX
8
0
10
0.689285
20
-0.850117
0
VERTEX
8
0
10
0.689528
20
-0.849150
0
VERTEX
8
0
10
0.689858
20
-0.848226
0
VERTEX
8
0
10
0.690273
20
-0.847350
0
VERTEX
8
0
10
0.690768
20
-0.846526
0
VERTEX
8
0
10
0.691337
20
-0.845758
0
VERTEX
8
0
10
0.691977
20
-0.845052
0
VERTEX
8
0
10
0.692683
20
-0.844412
0
VERTEX
8
0
10
0.693451
20
-0.843843
0
VERTEX
8
0
10
0.694275
20
-0.843348
0
VERTEX
8
0
10
0.695151
20
-0.842933
0
VERTEX
8
0
10
0.696075
20
-0.842602
0
VERTEX
8
0
10
0.697042
20
-0.842360
0
VERTEX
8
0
10
0.698047
20
-0.842212
0
VERTEX
8
0
10
0.699087
20
-0.842161
0
VERTEX
8
0
10
0.739087
20
-0.842161
0
VERTEX
8
0
10
0.740126
20
-0.842212
0
VERTEX
8
0
10
0.741131
20
-0.842360
0
VERTEX
8
0
10
0.742098
20
-0.842602
0
VERTEX
8
0
10
0.743022
20
-0.842933
0
VERTEX
8
0
10
0.743898
20
-0.843348
0
VERTEX
8
0
10
0.744722
20
-0.843843
0
VERTEX
8
0
10
0.745490
20
-0.844412
0
VERTEX
8
0
10
0.746196
20
-0.845052
0
VERTEX
8
0
10
0.746836
20
-0.845758
0
VERTEX
8
0
10
0.747406
20
-0.846526
0
VERTEX
8
0
10
0.747900
20
-0.847350
0
VERTEX
8
0
10
0.748315
20
-0.848226
0
VERTEX
8
0
10
0.748646
20
-0.849150
0
VERTEX
8
0
10
0.748888
20
-0.850117
0
VERTEX
8
0
10
0.749036
20
-0.851122
0
VERTEX
8
0
10
0.749087
20
-0.852161
0
VERTEX
8
0
10
0.749087
20
-0.902161
0
VERTEX
8
0
10
0.749036
20
-0.903201
0
VERTEX
8
0
10
0.748888
20
-0.904206
0
VERTEX
8
0
10
0.748646
20
-0.905173
0
VERTEX
8
0
10
0.748315
20
-0.906097
0
VERTEX
8
0
10
0.747900
20
-0.906973
0
VERTEX
8
0
10
0.747406
20
-0.907797
0
VERTEX
8
0
10
0.746836
20
-0.908565
0
VERTEX
8
0
10
0.746196
20
-0.909271
0
VERTEX
8
0
10
0.745490
20
-0.909911
0
VERTEX
8
0
10
0.744722
20
-0.910480
0
VERTEX
8
0
10
0.743898
20
-0.910975
0
VERTEX
8
0
10
0.743022
20
-0.911390
0
VERTEX
8
0
10
0.742098
20
-0.911720
0
VERTEX
8
0
10
0.741131
20
-0.911963
0
VERTEX
8
0
10
0.740126
20
-0.912111
0
VERTEX
8
0
10
0.739087
20
-0.912161
0
SEQEND
8
0
0
POLYLINE
8
0
66
1
70
1
40
0
41
0
0
VERTEX
8
0
10
0.522177
20
-0.900969
0
VERTEX
8
0
10
0.522177
20
-0.939969
0
VERTEX
8
0
10
0.467177
20
-0.939969
0
VERTEX
8
0
10
0.467177
20
-0.900969
0
VERTEX
8
0
10
0.522177
20
-0.900969
0
SEQEND
8
0
0
POLYLINE
8
0
66
1
70
1
40
0
41
0
0
VERTEX
8
0
10
0.522177
20
-0.830102
0
VERTEX
8
0
10
0.522177
20
-0.869102
0
VERTEX
8
0
10
0.467177
20
-0.869102
0
VERTEX
8
0
10
0.467177
20
-0.830102
0
VERTEX
8
0
10
0.522177
20
-0.830102
0
SEQEND
8
0
0
POLYLINE
8
0
66
1
70
1
40
0
41
0
0
VERTEX
8
0
10
0.631213
20
-0.758429
0
VERTEX
8
0
10
0.631213
20
-0.712429
0
VERTEX
8
0
10
0.631551
20
-0.708953
0
VERTEX
8
0
10
0.632524
20
-0.705739
0
VERTEX
8
0
10
0.634070
20
-0.702848
0
VERTEX
8
0
10
0.636127
20
-0.700343
0
VERTEX
8
0
10
0.638631
20
-0.698287
0
VERTEX
8
0
10
0.641522
20
-0.696741
0
VERTEX
8
0
10
0.644737
20
-0.695767
0
VERTEX
8
0
10
0.648213
20
-0.695429
0
VERTEX
8
0
10
0.774213
20
-0.695429
0
VERTEX
8
0
10
0.777689
20
-0.695767
0
VERTEX
8
0
10
0.780903
20
-0.696741
0
VERTEX
8
0
10
0.783794
20
-0.698287
0
VERTEX
8
0
10
0.786298
20
-0.700343
0
VERTEX
8
0
10
0.788355
20
-0.702848
0
VERTEX
8
0
10
0.789901
20
-0.705739
0
VERTEX
8
0
10
0.790874
20
-0.708953
0
VERTEX
8
0
10
0.791213
20
-0.712429
0
VERTEX
8
0
10
0.791213
20
-0.758429
0
VERTEX
8
0
10
0.790874
20
-0.761905
0
VERTEX
8
0
10
0.789901
20
-0.765119
0
VERTEX
8
0
10
0.788355
20
-0.768010
0
VERTEX
8
0
10
0.786298
20
-0.770515
0
VERTEX
8
0
10
0.783794
20
-0.772572
0
VERTEX
8
0
10
0.780903
20
-0.774118
0
VERTEX
8
0
10
0.777689
20
-0.775091
0
VERTEX
8
0
10
0.774213
20
-0.775429
0
VERTEX
8
0
10
0.648213
20
-0.775429
0
VERTEX
8
0
10
0.644737
20
-0.775091
0
VERTEX
8
0
10
0.641522
20
-0.774118
0
VERTEX
8
0
10
0.638631
20
-0.772572
0
VERTEX
8
0
10
0.636127
20
-0.770515
0
VERTEX
8
0
10
0.634070
20
-0.768010
0
VERTEX
8
0
10
0.632524
20
-0.765119
0
VERTEX
8
0
10
0.631551
20
-0.761905
0
VERTEX
8
0
10
0.631213
20
-0.758429
0
SEQEND
8
0
0
POLYLINE
8
0
66
1
70
1
40
0
41
0
0
VERTEX
8
0
10
0.631213
20
-0.658429
0
VERTEX
8
0
10
0.631213
20
-0.612429
0
VERTEX
8
0
10
0.631551
20
-0.608953
0
VERTEX
8
0
10
0.632524
20
-0.605739
0
VERTEX
8
0
10
0.634070
20
-0.602848
0
VERTEX
8
0
10
0.636127
20
-0.600343
0
VERTEX
8
0
10
0.638631
20
-0.598287
0
VERTEX
8
0
10
0.641522
20
-0.596741
0
VERTEX
8
0
10
0.644737
20
-0.595767
0
VERTEX
8
0
10
0.648213
20
-0.595429
0
VERTEX
8
0
10
0.774213
20
-0.595429
0
VERTEX
8
0
10
0.777689
20
-0.595767
0
VERTEX
8
0
10
0.780903
20
-0.596741
0
VERTEX
8
0
10
0.783794
20
-0.598287
0
VERTEX
8
0
10
0.786298
20
-0.600343
0
VERTEX
8
0
10
0.788355
20
-0.602848
0
VERTEX
8
0
10
0.789901
20
-0.605739
0
VERTEX
8
0
10
0.790874
20
-0.608953
0
VERTEX
8
0
10
0.791213
20
-0.612429
0
VERTEX
8
0
10
0.791213
20
-0.658429
0
VERTEX
8
0
10
0.790874
20
-0.661905
0
VERTEX
8
0
10
0.789901
20
-0.665119
0
VERTEX
8
0
10
0.788355
20
-0.668010
0
VERTEX
8
0
10
0.786298
20
-0.670515
0
VERTEX
8
0
10
0.783794
20
-0.672572
0
VERTEX
8
0
10
0.780903
20
-0.674118
0
VERTEX
8
0
10
0.777689
20
-0.675091
0
VERTEX
8
0
10
0.774213
20
-0.675429
0
VERTEX
8
0
10
0.648213
20
-0.675429
0
VERTEX
8
0
10
0.644737
20
-0.675091
0
VERTEX
8
0
10
0.641522
20
-0.674118
0
VERTEX
8
0
10
0.638631
20
-0.672572
0
VERTEX
8
0
10
0.636127
20
-0.670515
0
VERTEX
8
0
10
0.634070
20
-0.668010
0
VERTEX
8
0
10
0.632524
20
-0.665119
0
VERTEX
8
0
10
0.631551
20
-0.661905
0
VERTEX
8
0
10
0.631213
20
-0.658429
0
SEQEND
8
0
0
POLYLINE
8
0
66
1
70
1
40
0
41
0
0
VERTEX
8
0
10
0.631213
20
-0.558429
0
VERTEX
8
0
10
0.631213
20
-0.512429
0
VERTEX
8
0
10
0.631551
20
-0.508953
0
VERTEX
8
0
10
0.632524
20
-0.505739
0
VERTEX
8
0
10
0.634070
20
-0.502848
0
VERTEX
8
0
10
0.636127
20
-0.500343
0
VERTEX
8
0
10
0.638631
20
-0.498287
0
VERTEX
8
0
10
0.641522
20
-0.496741
0
VERTEX
8
0
10
0.644737
20
-0.495767
0
VERTEX
8
0
10
0.648213
20
-0.495429
0
VERTEX
8
0
10
0.774213
20
-0.495429
0
VERTEX
8
0
10
0.777689
20
-0.495767
0
VERTEX
8
0
10
0.780903
20
-0.496741
0
VERTEX
8
0
10
0.783794
20
-0.498287
0
VERTEX
8
0
10
0.786298
20
-0.500343
0
VERTEX
8
0
10
0.788355
20
-0.502848
0
VERTEX
8
0
10
0.789901
20
-0.505739
0
VERTEX
8
0
10
0.790874
20
-0.508953
0
VERTEX
8
0
10
0.791213
20
-0.512429
0
VERTEX
8
0
10
0.791213
20
-0.558429
0
VERTEX
8
0
10
0.790874
20
-0.561905
0
VERTEX
8
0
10
0.789901
20
-0.565119
0
VERTEX
8
0
10
0.788355
20
-0.568010
0
VERTEX
8
0
10
0.786298
20
-0.570515
0
VERTEX
8
0
10
0.783794
20
-0.572572
0
VERTEX
8
0
10
0.780903
20
-0.574118
0
VERTEX
8
0
10
0.777689
20
-0.575091
0
VERTEX
8
0
10
0.774213
20
-0.575429
0
VERTEX
8
0
10
0.648213
20
-0.575429
0
VERTEX
8
0
10
0.644737
20
-0.575091
0
VERTEX
8
0
10
0.641522
20
-0.574118
0
VERTEX
8
0
10
0.638631
20
-0.572572
0
VERTEX
8
0
10
0.636127
20
-0.570515
0
VERTEX
8
0
10
0.634070
20
-0.568010
0
VERTEX
8
0
10
0.632524
20
-0.565119
0
VERTEX
8
0
10
0.631551
20
-0.561905
0
VERTEX
8
0
10
0.631213
20
-0.558429
0
SEQEND
8
0
0
POLYLINE
8
0
66
1
70
1
40
0
41
0
0
VERTEX
8
0
10
0.631213
20
-0.458429
0
VERTEX
8
0
10
0.631213
20
-0.412429
0
VERTEX
8
0
10
0.631551
20
-0.408953
0
VERTEX
8
0
10
0.632524
20
-0.405739
0
VERTEX
8
0
10
0.634070
20
-0.402848
0
VERTEX
8
0
10
0.636127
20
-0.400343
0
VERTEX
8
0
10
0.638631
20
-0.398287
0
VERTEX
8
0
10
0.641522
20
-0.396741
0
VERTEX
8
0
10
0.644737
20
-0.395767
0
VERTEX
8
0
10
0.648213
20
-0.395429
0
VERTEX
8
0
10
0.774213
20
-0.395429
0
VERTEX
8
0
10
0.777689
20
-0.395767
0
VERTEX
8
0
10
0.780903
20
-0.396741
0
VERTEX
8
0
10
0.783794
20
-0.398287
0
VERTEX
8
0
10
0.786298
20
-0.400343
0
VERTEX
8
0
10
0.788355
20
-0.402848
0
VERTEX
8
0
10
0.789901
20
-0.405739
0
VERTEX
8
0
10
0.790874
20
-0.408953
0
VERTEX
8
0
10
0.791213
20
-0.412429
0
VERTEX
8
0
10
0.791213
20
-0.458429
0
VERTEX
8
0
10
0.790874
20
-0.461905
0
VERTEX
8
0
10
0.789901
20
-0.465119
0
VERTEX
8
0
10
0.788355
20
-0.468010
0
VERTEX
8
0
10
0.786298
20
-0.470515
0
VERTEX
8
0
10
0.783794
20
-0.472572
0
VERTEX
8
0
10
0.780903
20
-0.474118
0
VERTEX
8
0
10
0.777689
20
-0.475091
0
VERTEX
8
0
10
0.774213
20
-0.475429
0
VERTEX
8
0
10
0.648213
20
-0.475429
0
VERTEX
8
0
10
0.644737
20
-0.475091
0
VERTEX
8
0
10
0.641522
20
-0.474118
0
VERTEX
8
0
10
0.638631
20
-0.472572
0
VERTEX
8
0
10
0.636127
20
-0.470515
0
VERTEX
8
0
10
0.634070
20
-0.468010
0
VERTEX
8
0
10
0.632524
20
-0.465119
0
VERTEX
8
0
10
0.631551
20
-0.461905
0
VERTEX
8
0
10
0.631213
20
-0.458429
0
SEQEND
8
0
0
POLYLINE
8
0
66
1
70
1
40
0
41
0
0
VERTEX
8
0
10
-0.336346
20
0.303508
0
VERTEX
8
0
10
-0.296346
20
0.303508
0
VERTEX
8
0
10
-0.295307
20
0.303457
0
VERTEX
8
0
10
-0.294302
20
0.303309
0
VERTEX
8
0
10
-0.293335
20
0.303067
0
VERTEX
8
0
10
-0.292411
20
0.302736
0
VERTEX
8
0
10
-0.291535
20
0.302322
0
VERTEX
8
0
10
-0.290711
20
0.301827
0
VERTEX
8
0
10
-0.289943
20
0.301257
0
VERTEX
8
0
10
-0.289237
20
0.300617
0
VERTEX
8
0
10
-0.288597
20
0.299911
0
VERTEX
8
0
10
-0.288028
20
0.299144
0
VERTEX
8
0
10
-0.287533
20
0.298320
0
VERTEX
8
0
10
-0.287118
20
0.297443
0
VERTEX
8
0
10
-0.286787
20
0.296519
0
VERTEX
8
0
10
-0.286545
20
0.295552
0
VERTEX
8
0
10
-0.286397
20
0.294547
0
VERTEX
8
0
10
-0.286346
20
0.293508
0
VERTEX
8
0
10
-0.286346
20
0.243508
0
VERTEX
8
0
10
-0.286397
20
0.242469
0
VERTEX
8
0
10
-0.286545
20
0.241463
0
VERTEX
8
0
10
-0.286787
20
0.240496
0
VERTEX
8
0
10
-0.287118
20
0.239572
0
VERTEX
8
0
10
-0.287533
20
0.238696
0
VERTEX
8
0
10
-0.288028
20
0.237872
0
VERTEX
8
0
10
-0.288597
20
0.237105
0
VERTEX
8
0
10
-0.289237
20
0.236398
0
VERTEX
8
0
10
-0.289943
20
0.235758
0
VERTEX
8
0
10
-0.290711
20
0.235189
0
VERTEX
8
0
10
-0.291535
20
0.234694
0
VERTEX
8
0
10
-0.292411
20
0.234280
0
VERTEX
8
0
10
-0.293335
20
0.233949
0
VERTEX
8
0
10
-0.294302
20
0.233707
0
VERTEX
8
0
10
-0.295307
20
0.233558
0
VERTEX
8
0
10
-0.296346
20
0.233508
0
VERTEX
8
0
10
-0.336346
20
0.233508
0
VERTEX
8
0
10
-0.337386
20
0.233558
0
VERTEX
8
0
10
-0.338391
20
0.233707
0
VERTEX
8
0
10
-0.339358
20
0.233949
0
VERTEX
8
0
10
-0.340282
20
0.234280
0
VERTEX
8
0
10
-0.341158
20
0.234694
0
VERTEX
8
0
10
-0.341982
20
0.235189
0
VERTEX
8
0
10
-0.342750
20
0.235758
0
VERTEX
8
0
10
-0.343456
20
0.236398
0
VERTEX
8
0
10
-0.344096
20
0.237105
0
VERTEX
8
0
10
-0.344665
20
0.237872
0
VERTEX
8
0
10
-0.345160
20
0.238696
0
VERTEX
8
0
10
-0.345575
20
0.239572
0
VERTEX
8
0
10
-0.345906
20
0.240496
0
VERTEX
8
0
10
-0.346148
20
0.241463
0
VERTEX
8
0
10
-0.346296
20
0.242469
0
VERTEX
8
0
10
-0.346346
20
0.243508
0
VERTEX
8
0
10
-0.346346
20
0.293508
0
VERTEX
8
0
10
-0.346296
20
0.294547
0
VERTEX
8
0
10
-0.346148
20
0.295552
0
VERTEX
8
0
10
-0.345906
20
0.296519
0
VERTEX
8
0
10
-0.345575
20
0.297443
0
VERTEX
8
0
10
-0.345160
20
0.298320
0
VERTEX
8
0
10
-0.344665
20
0.299144
0
VERTEX
8
0
10
-0.344096
20
0.299911
0
VERTEX
8
0
10
-0.343456
20
0.300617
0
VERTEX
8
0
10
-0.342750
20
0.301257
0
VERTEX
8
0
10
-0.341982
20
0.301827
0
VERTEX
8
0
10
-0.341158
20
0.302322
0
VERTEX
8
0
10
-0.340282
20
0.302736
0
VERTEX
8
0
10
-0.339358
20
0.303067
0
VERTEX
8
0
10
-0.338391
20
0.303309
0
VERTEX
8
0
10
-0.337386
20
0.303457
0
VERTEX
8
0
10
-0.336346
20
0.303508
0
SEQEND
8
0
0
POLYLINE
8
0
66
1
70
1
40
0
41
0
0
VERTEX
8
0
10
-0.252346
20
0.303508
0
VERTEX
8
0
10
-0.212346
20
0.303508
0
VERTEX
8
0
10
-0.211307
20
0.303457
0
VERTEX
8
0
10
-0.210302
20
0.303309
0
VERTEX
8
0
10
-0.209335
20
0.303067
0
VERTEX
8
0
10
-0.208411
20
0.302736
0
VERTEX
8
0
10
-0.207535
20
0.302322
0
VERTEX
8
0
10
-0.206711
20
0.301827
0
VERTEX
8
0
10
-0.205943
20
0.301257
0
VERTEX
8
0
10
-0.205237
20
0.300617
0
VERTEX
8
0
10
-0.204597
20
0.299911
0
VERTEX
8
0
10
-0.204028
20
0.299144
0
VERTEX
8
0
10
-0.203533
20
0.298320
0
VERTEX
8
0
10
-0.203118
20
0.297443
0
VERTEX
8
0
10
-0.202787
20
0.296519
0
VERTEX
8
0
10
-0.202545
20
0.295552
0
VERTEX
8
0
10
-0.202397
20
0.294547
0
VERTEX
8
0
10
-0.202346
20
0.293508
0
VERTEX
8
0
10
-0.202346
20
0.243508
0
VERTEX
8
0
10
-0.202397
20
0.242469
0
VERTEX
8
0
10
-0.202545
20
0.241463
0
VERTEX
8
0
10
-0.202787
20
0.240496
0
VERTEX
8
0
10
-0.203118
20
0.239572
0
VERTEX
8
0
10
-0.203533
20
0.238696
0
VERTEX
8
0
10
-0.204028
20
0.237872
0
VERTEX
8
0
10
-0.204597
20
0.237105
0
VERTEX
8
0
10
-0.205237
20
0.236398
0
VERTEX
8
0
10
-0.205943
20
0.235758
0
VERTEX
8
0
10
-0.206711
20
0.235189
0
VERTEX
8
0
10
-0.207535
20
0.234694
0
VERTEX
8
0
10
-0.208411
20
0.234280
0
VERTEX
8
0
10
-0.209335
20
0.233949
0
VERTEX
8
0
10
-0.210302
20
0.233707
0
VERTEX
8
0
10
-0.211307
20
0.233558
0
VERTEX
8
0
10
-0.212346
20
0.233508
0
VERTEX
8
0
10
-0.252346
20
0.233508
0
VERTEX
8
0
10
-0.253386
20
0.233558
0
VERTEX
8
0
10
-0.254391
20
0.233707
0
VERTEX
8
0
10
-0.255358
20
0.233949
0
VERTEX
8
0
10
-0.256282
20
0.234280
0
VERTEX
8
0
10
-0.257158
20
0.234694
0
VERTEX
8
0
10
-0.257982
20
0.235189
0
VERTEX
8
0
10
-0.258750
20
0.235758
0
VERTEX
8
0
10
-0.259456
20
0.236398
0
VERTEX
8
0
10
-0.260096
20
0.237105
0
VERTEX
8
0
10
-0.260665
20
0.237872
0
VERTEX
8
0
10
-0.261160
20
0.238696
0
VERTEX
8
0
10
-0.261575
20
0.239572
0
VERTEX
8
0
10
-0.261906
20
0.240496
0
VERTEX
8
0
10
-0.262148
20
0.241463
0
VERTEX
8
0
10
-0.262296
20
0.242469
0
VERTEX
8
0
10
-0.262346
20
0.243508
0
VERTEX
8
0
10
-0.262346
20
0.293508
0
VERTEX
8
0
10
-0.262296
20
0.294547
0
VERTEX
8
0
10
-0.262148
20
0.295552
0
VERTEX
8
0
10
-0.261906
20
0.296519
0
VERTEX
8
0
10
-0.261575
20
0.297443
0
VERTEX
8
0
10
-0.261160
20
0.298320
0
VERTEX
8
0
10
-0.260665
20
0.299144
0
VERTEX
8
0
10
-0.260096
20
0.299911
0
VERTEX
8
0
10
-0.259456
20
0.300617
0
VERTEX
8
0
10
-0.258750
20
0.301257
0
VERTEX
8
0
10
-0.257982
20
0.301827
0
VERTEX
8
0
10
-0.257158
20
0.302322
0
VERTEX
8
0
10
-0.256282
20
0.302736
0
VERTEX
8
0
10
-0.255358
20
0.303067
0
VERTEX
8
0
10
-0.254391
20
0.303309
0
VERTEX
8
0
10
-0.253386
20
0.303457
0
VERTEX
8
0
10
-0.252346
20
0.303508
0
SEQEND
8
0
0
INSERT
8
0
2
EPAD
10
-0.112409
20
0.126776
41
0.100000
42
0.100000
0
INSERT
8
0
2
EPAD
10
-0.312409
20
0.126776
41
0.100000
42
0.100000
0
POLYLINE
8
0
66
1
70
1
40
0
41
0
0
VERTEX
8
0
10
-0.163118
20
0.303508
0
VERTEX
8
0
10
-0.123118
20
0.303508
0
VERTEX
8
0
10
-0.122079
20
0.303457
0
VERTEX
8
0
10
-0.121074
20
0.303309
0
VERTEX
8
0
10
-0.120107
20
0.303067
0
VERTEX
8
0
10
-0.119183
20
0.302736
0
VERTEX
8
0
10
-0.118306
20
0.302322
0
VERTEX
8
0
10
-0.117482
20
0.301827
0
VERTEX
8
0
10
-0.116715
20
0.301257
0
VERTEX
8
0
10
-0.116009
20
0.300617
0
VERTEX
8
0
10
-0.115369
20
0.299911
0
VERTEX
8
0
10
-0.114799
20
0.299144
0
VERTEX
8
0
10
-0.114305
20
0.298320
0
VERTEX
8
0
10
-0.113890
20
0.297443
0
VERTEX
8
0
10
-0.113559
20
0.296519
0
VERTEX
8
0
10
-0.113317
20
0.295552
0
VERTEX
8
0
10
-0.113169
20
0.294547
0
VERTEX
8
0
10
-0.113118
20
0.293508
0
VERTEX
8
0
10
-0.113118
20
0.243508
0
VERTEX
8
0
10
-0.113169
20
0.242469
0
VERTEX
8
0
10
-0.113317
20
0.241463
0
VERTEX
8
0
10
-0.113559
20
0.240496
0
VERTEX
8
0
10
-0.113890
20
0.239572
0
VERTEX
8
0
10
-0.114305
20
0.238696
0
VERTEX
8
0
10
-0.114799
20
0.237872
0
VERTEX
8
0
10
-0.115369
20
0.237105
0
VERTEX
8
0
10
-0.116009
20
0.236398
0
VERTEX
8
0
10
-0.116715
20
0.235758
0
VERTEX
8
0
10
-0.117482
20
0.235189
0
VERTEX
8
0
10
-0.118306
20
0.234694
0
VERTEX
8
0
10
-0.119183
20
0.234280
0
VERTEX
8
0
10
-0.120107
20
0.233949
0
VERTEX
8
0
10
-0.121074
20
0.233707
0
VERTEX
8
0
10
-0.122079
20
0.233558
0
VERTEX
8
0
10
-0.123118
20
0.233508
0
VERTEX
8
0
10
-0.163118
20
0.233508
0
VERTEX
8
0
10
-0.164157
20
0.233558
0
VERTEX
8
0
10
-0.165163
20
0.233707
0
VERTEX
8
0
10
-0.166130
20
0.233949
0
VERTEX
8
0
10
-0.167054
20
0.234280
0
VERTEX
8
0
10
-0.167930
20
0.234694
0
VERTEX
8
0
10
-0.168754
20
0.235189
0
VERTEX
8
0
10
-0.169522
20
0.235758
0
VERTEX
8
0
10
-0.170228
20
0.236398
0
VERTEX
8
0
10
-0.170868
20
0.237105
0
VERTEX
8
0
10
-0.171437
20
0.237872
0
VERTEX
8
0
10
-0.171931
20
0.238696
0
VERTEX
8
0
10
-0.172346
20
0.239572
0
VERTEX
8
0
10
-0.172677
20
0.240496
0
VERTEX
8
0
10
-0.172919
20
0.241463
0
VERTEX
8
0
10
-0.173068
20
0.242469
0
VERTEX
8
0
10
-0.173118
20
0.243508
0
VERTEX
8
0
10
-0.173118
20
0.293508
0
VERTEX
8
0
10
-0.173068
20
0.294547
0
VERTEX
8
0
10
-0.172919
20
0.295552
0
VERTEX
8
0
10
-0.172677
20
0.296519
0
VERTEX
8
0
10
-0.172346
20
0.297443
0
VERTEX
8
0
10
-0.171931
20
0.298320
0
VERTEX
8
0
10
-0.171437
20
0.299144
0
VERTEX
8
0
10
-0.170868
20
0.299911
0
VERTEX
8
0
10
-0.170228
20
0.300617
0
VERTEX
8
0
10
-0.169522
20
0.301257
0
VERTEX
8
0
10
-0.168754
20
0.301827
0
VERTEX
8
0
10
-0.167930
20
0.302322
0
VERTEX
8
0
10
-0.167054
20
0.302736
0
VERTEX
8
0
10
-0.166130
20
0.303067
0
VERTEX
8
0
10
-0.165163
20
0.303309
0
VERTEX
8
0
10
-0.164157
20
0.303457
0
VERTEX
8
0
10
-0.163118
20
0.303508
0
SEQEND
8
0
0
POLYLINE
8
0
66
1
70
1
40
0
41
0
0
VERTEX
8
0
10
-0.079118
20
0.303508
0
VERTEX
8
0
10
-0.039118
20
0.303508
0
VERTEX
8
0
10
-0.038079
20
0.303457
0
VERTEX
8
0
10
-0.037074
20
0.303309
0
VERTEX
8
0
10
-0.036107
20
0.303067
0
VERTEX
8
0
10
-0.035183
20
0.302736
0
VERTEX
8
0
10
-0.034306
20
0.302322
0
VERTEX
8
0
10
-0.033482
20
0.301827
0
VERTEX
8
0
10
-0.032715
20
0.301257
0
VERTEX
8
0
10
-0.032009
20
0.300617
0
VERTEX
8
0
10
-0.031369
20
0.299911
0
VERTEX
8
0
10
-0.030799
20
0.299144
0
VERTEX
8
0
10
-0.030305
20
0.298320
0
VERTEX
8
0
10
-0.029890
20
0.297443
0
VERTEX
8
0
10
-0.029559
20
0.296519
0
VERTEX
8
0
10
-0.029317
20
0.295552
0
VERTEX
8
0
10
-0.029169
20
0.294547
0
VERTEX
8
0
10
-0.029118
20
0.293508
0
VERTEX
8
0
10
-0.029118
20
0.243508
0
VERTEX
8
0
10
-0.029169
20
0.242469
0
VERTEX
8
0
10
-0.029317
20
0.241463
0
VERTEX
8
0
10
-0.029559
20
0.240496
0
VERTEX
8
0
10
-0.029890
20
0.239572
0
VERTEX
8
0
10
-0.030305
20
0.238696
0
VERTEX
8
0
10
-0.030799
20
0.237872
0
VERTEX
8
0
10
-0.031369
20
0.237105
0
VERTEX
8
0
10
-0.032009
20
0.236398
0
VERTEX
8
0
10
-0.032715
20
0.235758
0
VERTEX
8
0
10
-0.033482
20
0.235189
0
VERTEX
8
0
10
-0.034306
20
0.234694
0
VERTEX
8
0
10
-0.035183
20
0.234280
0
VERTEX
8
0
10
-0.036107
20
0.233949
0
VERTEX
8
0
10
-0.037074
20
0.233707
0
VERTEX
8
0
10
-0.038079
20
0.233558
0
VERTEX
8
0
10
-0.039118
20
0.233508
0
VERTEX
8
0
10
-0.079118
20
0.233508
0
VERTEX
8
0
10
-0.080157
20
0.233558
0
VERTEX
8
0
10
-0.081163
20
0.233707
0
VERTEX
8
0
10
-0.082130
20
0.233949
0
VERTEX
8
0
10
-0.083054
20
0.234280
0
VERTEX
8
0
10
-0.083930
20
0.234694
0
VERTEX
8
0
10
-0.084754
20
0.235189
0
VERTEX
8
0
10
-0.085522
20
0.235758
0
VERTEX
8
0
10
-0.086228
20
0.236398
0
VERTEX
8
0
10
-0.086868
20
0.237105
0
VERTEX
8
0
10
-0.087437
20
0.237872
0
VERTEX
8
0
10
-0.087931
20
0.238696
0
VERTEX
8
0
10
-0.088346
20
0.239572
0
VERTEX
8
0
10
-0.088677
20
0.240496
0
VERTEX
8
0
10
-0.088919
20
0.241463
0
VERTEX
8
0
10
-0.089068
20
0.242469
0
VERTEX
8
0
10
-0.089118
20
0.243508
0
VERTEX
8
0
10
-0.089118
20
0.293508
0
VERTEX
8
0
10
-0.089068
20
0.294547
0
VERTEX
8
0
10
-0.088919
20
0.295552
0
VERTEX
8
0
10
-0.088677
20
0.296519
0
VERTEX
8
0
10
-0.088346
20
0.297443
0
VERTEX
8
0
10
-0.087931
20
0.298320
0
VERTEX
8
0
10
-0.087437
20
0.299144
0
VERTEX
8
0
10
-0.086868
20
0.299911
0
VERTEX
8
0
10
-0.086228
20
0.300617
0
VERTEX
8
0
10
-0.085522
20
0.301257
0
VERTEX
8
0
10
-0.084754
20
0.301827
0
VERTEX
8
0
10
-0.083930
20
0.302322
0
VERTEX
8
0
10
-0.083054
20
0.302736
0
VERTEX
8
0
10
-0.082130
20
0.303067
0
VERTEX
8
0
10
-0.081163
20
0.303309
0
VERTEX
8
0
10
-0.080157
20
0.303457
0
VERTEX
8
0
10
-0.079118
20
0.303508
0
SEQEND
8
0
0
POLYLINE
8
0
66
1
70
1
40
0
41
0
0
VERTEX
8
0
10
0.448055
20
0.029610
0
VERTEX
8
0
10
0.494055
20
0.029610
0
VERTEX
8
0
10
0.497531
20
0.029272
0
VERTEX
8
0
10
0.500745
20
0.028299
0
VERTEX
8
0
10
0.503636
20
0.026753
0
VERTEX
8
0
10
0.506141
20
0.024696
0
VERTEX
8
0
10
0.508198
20
0.022191
0
VERTEX
8
0
10
0.509744
20
0.019300
0
VERTEX
8
0
10
0.510717
20
0.016086
0
VERTEX
8
0
10
0.511055
20
0.012610
0
VERTEX
8
0
10
0.511055
20
-0.113390
0
VERTEX
8
0
10
0.510717
20
-0.116866
0
VERTEX
8
0
10
0.509744
20
-0.120080
0
VERTEX
8
0
10
0.508198
20
-0.122971
0
VERTEX
8
0
10
0.506141
20
-0.125476
0
VERTEX
8
0
10
0.503636
20
-0.127532
0
VERTEX
8
0
10
0.500745
20
-0.129078
0
VERTEX
8
0
10
0.497531
20
-0.130052
0
VERTEX
8
0
10
0.494055
20
-0.130390
0
VERTEX
8
0
10
0.448055
20
-0.130390
0
VERTEX
8
0
10
0.444579
20
-0.130052
0
VERTEX
8
0
10
0.441365
20
-0.129078
0
VERTEX
8
0
10
0.438474
20
-0.127532
0
VERTEX
8
0
10
0.435969
20
-0.125476
0
VERTEX
8
0
10
0.433913
20
-0.122971
0
VERTEX
8
0
10
0.432367
20
-0.120080
0
VERTEX
8
0
10
0.431393
20
-0.116866
0
VERTEX
8
0
10
0.431055
20
-0.113390
0
VERTEX
8
0
10
0.431055
20
0.012610
0
VERTEX
8
0
10
0.431393
20
0.016086
0
VERTEX
8
0
10
0.432367
20
0.019300
0
VERTEX
8
0
10
0.433913
20
0.022191
0
VERTEX
8
0
10
0.435969
20
0.024696
0
VERTEX
8
0
10
0.438474
20
0.026753
0
VERTEX
8
0
10
0.441365
20
0.028299
0
VERTEX
8
0
10
0.444579
20
0.029272
0
VERTEX
8
0
10
0.448055
20
0.029610
0
SEQEND
8
0
0
POLYLINE
8
0
66
1
70
1
40
0
41
0
0
VERTEX
8
0
10
0.751205
20
0.029610
0
VERTEX
8
0
10
0.797205
20
0.029610
0
VERTEX
8
0
10
0.800681
20
0.029272
0
VERTEX
8
0
10
0.803895
20
0.028299
0
VERTEX
8
0
10
0.806786
20
0.026753
0
VERTEX
8
0
10
0.809291
20
0.024696
0
VERTEX
8
0
10
0.811347
20
0.022191
0
VERTEX
8
0
10
0.812893
20
0.019300
0
VERTEX
8
0
10
0.813867
20
0.016086
0
VERTEX
8
0
10
0.814205
20
0.012610
0
VERTEX
8
0
10
0.814205
20
-0.113390
0
VERTEX
8
0
10
0.813867
20
-0.116866
0
VERTEX
8
0
10
0.812893
20
-0.120080
0
VERTEX
8
0
10
0.811347
20
-0.122971
0
VERTEX
8
0
10
0.809291
20
-0.125476
0
VERTEX
8
0
10
0.806786
20
-0.127532
0
VERTEX
8
0
10
0.803895
20
-0.129078
0
VERTEX
8
0
10
0.800681
20
-0.130052
0
VERTEX
8
0
10
0.797205
20
-0.130390
0
VERTEX
8
0
10
0.751205
20
-0.130390
0
VERTEX
8
0
10
0.747729
20
-0.130052
0
VERTEX
8
0
10
0.744515
20
-0.129078
0
VERTEX
8
0
10
0.741624
20
-0.127532
0
VERTEX
8
0
10
0.739119
20
-0.125476
0
VERTEX
8
0
10
0.737062
20
-0.122971
0
VERTEX
8
0
10
0.735516
20
-0.120080
0
VERTEX
8
0
10
0.734543
20
-0.116866
0
VERTEX
8
0
10
0.734205
20
-0.113390
0
VERTEX
8
0
10
0.734205
20
0.012610
0
VERTEX
8
0
10
0.734543
20
0.016086
0
VERTEX
8
0
10
0.735516
20
0.019300
0
VERTEX
8
0
10
0.737062
20
0.022191
0
VERTEX
8
0
10
0.739119
20
0.024696
0
VERTEX
8
0
10
0.741624
20
0.026753
0
VERTEX
8
0
10
0.744515
20
0.028299
0
VERTEX
8
0
10
0.747729
20
0.029272
0
VERTEX
8
0
10
0.751205
20
0.029610
0
SEQEND
8
0
0
POLYLINE
8
0
66
1
70
1
40
0
41
0
0
VERTEX
8
0
10
0.436803
20
-0.686925
0
VERTEX
8
0
10
0.436803
20
-0.626925
0
VERTEX
8
0
10
0.436854
20
-0.625886
0
VERTEX
8
0
10
0.437002
20
-0.624881
0
VERTEX
8
0
10
0.437244
20
-0.623914
0
VERTEX
8
0
10
0.437575
20
-0.622990
0
VERTEX
8
0
10
0.437989
20
-0.622113
0
VERTEX
8
0
10
0.438484
20
-0.621289
0
VERTEX
8
0
10
0.439054
20
-0.620522
0
VERTEX
8
0
10
0.439694
20
-0.619816
0
VERTEX
8
0
10
0.440400
20
-0.619176
0
VERTEX
8
0
10
0.441167
20
-0.618606
0
VERTEX
8
0
10
0.441991
20
-0.618112
0
VERTEX
8
0
10
0.442868
20
-0.617697
0
VERTEX
8
0
10
0.443792
20
-0.617366
0
VERTEX
8
0
10
0.444759
20
-0.617124
0
VERTEX
8
0
10
0.445764
20
-0.616976
0
VERTEX
8
0
10
0.446803
20
-0.616925
0
VERTEX
8
0
10
0.526803
20
-0.616925
0
VERTEX
8
0
10
0.527843
20
-0.616976
0
VERTEX
8
0
10
0.528848
20
-0.617124
0
VERTEX
8
0
10
0.529815
20
-0.617366
0
VERTEX
8
0
10
0.530739
20
-0.617697
0
VERTEX
8
0
10
0.531615
20
-0.618112
0
VERTEX
8
0
10
0.532439
20
-0.618606
0
VERTEX
8
0
10
0.533206
20
-0.619176
0
VERTEX
8
0
10
0.533913
20
-0.619816
0
VERTEX
8
0
10
0.534553
20
-0.620522
0
VERTEX
8
0
10
0.535122
20
-0.621289
0
VERTEX
8
0
10
0.535617
20
-0.622113
0
VERTEX
8
0
10
0.536031
20
-0.622990
0
VERTEX
8
0
10
0.536362
20
-0.623914
0
VERTEX
8
0
10
0.536604
20
-0.624881
0
VERTEX
8
0
10
0.536753
20
-0.625886
0
VERTEX
8
0
10
0.536803
20
-0.626925
0
VERTEX
8
0
10
0.536803
20
-0.686925
0
VERTEX
8
0
10
0.536753
20
-0.687965
0
VERTEX
8
0
10
0.536604
20
-0.688970
0
VERTEX
8
0
10
0.536362
20
-0.689937
0
VERTEX
8
0
10
0.536031
20
-0.690861
0
VERTEX
8
0
10
0.535617
20
-0.691737
0
VERTEX
8
0
10
0.535122
20
-0.692561
0
VERTEX
8
0
10
0.534553
20
-0.693329
0
VERTEX
8
0
10
0.533913
20
-0.694035
0
VERTEX
8
0
10
0.533206
20
-0.694675
0
VERTEX
8
0
10
0.532439
20
-0.695244
0
VERTEX
8
0
10
0.531615
20
-0.695739
0
VERTEX
8
0
10
0.530739
20
-0.696154
0
VERTEX
8
0
10
0.529815
20
-0.696484
0
VERTEX
8
0
10
0.528848
20
-0.696726
0
VERTEX
8
0
10
0.527843
20
-0.696875
0
VERTEX
8
0
10
0.526803
20
-0.696925
0
VERTEX
8
0
10
0.446803
20
-0.696925
0
VERTEX
8
0
10
0.445764
20
-0.696875
0
VERTEX
8
0
10
0.444759
20
-0.696726
0
VERTEX
8
0
10
0.443792
20
-0.696484
0
VERTEX
8
0
10
0.442868
20
-0.696154
0
VERTEX
8
0
10
0.441991
20
-0.695739
0
VERTEX
8
0
10
0.441167
20
-0.695244
0
VERTEX
8
0
10
0.440400
20
-0.694675
0
VERTEX
8
0
10
0.439694
20
-0.694035
0
VERTEX
8
0
10
0.439054
20
-0.693329
0
VERTEX
8
0
10
0.438484
20
-0.692561
0
VERTEX
8
0
10
0.437989
20
-0.691737
0
VERTEX
8
0
10
0.437575
20
-0.690861
0
VERTEX
8
0
10
0.437244
20
-0.689937
0
VERTEX
8
0
10
0.437002
20
-0.688970
0
VERTEX
8
0
10
0.436854
20
-0.687965
0
VERTEX
8
0
10
0.436803
20
-0.686925
0
SEQEND
8
0
0
POLYLINE
8
0
66
1
70
1
40
0
41
0
0
VERTEX
8
0
10
0.436803
20
-0.796925
0
VERTEX
8
0
10
0.436803
20
-0.736925
0
VERTEX
8
0
10
0.436854
20
-0.735886
0
VERTEX
8
0
10
0.437002
20
-0.734881
0
VERTEX
8
0
10
0.437244
20
-0.733914
0
VERTEX
8
0
10
0.437575
20
-0.732990
0
VERTEX
8
0
10
0.437989
20
-0.732113
0
VERTEX
8
0
10
0.438484
20
-0.731289
0
VERTEX
8
0
10
0.439054
20
-0.730522
0
VERTEX
8
0
10
0.439694
20
-0.729816
0
VERTEX
8
0
10
0.440400
20
-0.729176
0
VERTEX
8
0
10
0.441167
20
-0.728606
0
VERTEX
8
0
10
0.441991
20
-0.728112
0
VERTEX
8
0
10
0.442868
20
-0.727697
0
VERTEX
8
0
10
0.443792
20
-0.727366
0
VERTEX
8
0
10
0.444759
20
-0.727124
0
VERTEX
8
0
10
0.445764
20
-0.726976
0
VERTEX
8
0
10
0.446803
20
-0.726925
0
VERTEX
8
0
10
0.526803
20
-0.726925
0
VERTEX
8
0
10
0.527843
20
-0.726976
0
VERTEX
8
0
10
0.528848
20
-0.727124
0
VERTEX
8
0
10
0.529815
20
-0.727366
0
VERTEX
8
0
10
0.530739
20
-0.727697
0
VERTEX
8
0
10
0.531615
20
-0.728112
0
VERTEX
8
0
10
0.532439
20
-0.728606
0
VERTEX
8
0
10
0.533206
20
-0.729176
0
VERTEX
8
0
10
0.533913
20
-0.729816
0
VERTEX
8
0
10
0.534553
20
-0.730522
0
VERTEX
8
0
10
0.535122
20
-0.731289
0
VERTEX
8
0
10
0.535617
20
-0.732113
0
VERTEX
8
0
10
0.536031
20
-0.732990
0
VERTEX
8
0
10
0.536362
20
-0.733914
0
VERTEX
8
0
10
0.536604
20
-0.734881
0
VERTEX
8
0
10
0.536753
20
-0.735886
0
VERTEX
8
0
10
0.536803
20
-0.736925
0
VERTEX
8
0
10
0.536803
20
-0.796925
0
VERTEX
8
0
10
0.536753
20
-0.797965
0
VERTEX
8
0
10
0.536604
20
-0.798970
0
VERTEX
8
0
10
0.536362
20
-0.799937
0
VERTEX
8
0
10
0.536031
20
-0.800861
0
VERTEX
8
0
10
0.535617
20
-0.801737
0
VERTEX
8
0
10
0.535122
20
-0.802561
0
VERTEX
8
0
10
0.534553
20
-0.803329
0
VERTEX
8
0
10
0.533913
20
-0.804035
0
VERTEX
8
0
10
0.533206
20
-0.804675
0
VERTEX
8
0
10
0.532439
20
-0.805244
0
VERTEX
8
0
10
0.531615
20
-0.805739
0
VERTEX
8
0
10
0.530739
20
-0.806154
0
VERTEX
8
0
10
0.529815
20
-0.806484
0
VERTEX
8
0
10
0.528848
20
-0.806726
0
VERTEX
8
0
10
0.527843
20
-0.806875
0
VERTEX
8
0
10
0.526803
20
-0.806925
0
VERTEX
8
0
10
0.446803
20
-0.806925
0
VERTEX
8
0
10
0.445764
20
-0.806875
0
VERTEX
8
0
10
0.444759
20
-0.806726
0
VERTEX
8
0
10
0.443792
20
-0.806484
0
VERTEX
8
0
10
0.442868
20
-0.806154
0
VERTEX
8
0
10
0.441991
20
-0.805739
0
VERTEX
8
0
10
0.441167
20
-0.805244
0
VERTEX
8
0
10
0.440400
20
-0.804675
0
VERTEX
8
0
10
0.439694
20
-0.804035
0
VERTEX
8
0
10
0.439054
20
-0.803329
0
VERTEX
8
0
10
0.438484
20
-0.802561
0
VERTEX
8
0
10
0.437989
20
-0.801737
0
VERTEX
8
0
10
0.437575
20
-0.800861
0
VERTEX
8
0
10
0.437244
20
-0.799937
0
VERTEX
8
0
10
0.437002
20
-0.798970
0
VERTEX
8
0
10
0.436854
20
-0.797965
0
VERTEX
8
0
10
0.436803
20
-0.796925
0
SEQEND
8
0
0
POLYLINE
8
0
66
1
70
1
40
0
41
0
0
VERTEX
8
0
10
-0.133984
20
-0.587004
0
VERTEX
8
0
10
-0.073984
20
-0.587004
0
VERTEX
8
0
10
-0.072945
20
-0.587054
0
VERTEX
8
0
10
-0.071940
20
-0.587203
0
VERTEX
8
0
10
-0.070973
20
-0.587445
0
VERTEX
8
0
10
-0.070049
20
-0.587776
0
VERTEX
8
0
10
-0.069172
20
-0.588190
0
VERTEX
8
0
10
-0.068348
20
-0.588685
0
VERTEX
8
0
10
-0.067581
20
-0.589254
0
VERTEX
8
0
10
-0.066875
20
-0.589894
0
VERTEX
8
0
10
-0.066235
20
-0.590601
0
VERTEX
8
0
10
-0.065665
20
-0.591368
0
VERTEX
8
0
10
-0.065171
20
-0.592192
0
VERTEX
8
0
10
-0.064756
20
-0.593069
0
VERTEX
8
0
10
-0.064425
20
-0.593993
0
VERTEX
8
0
10
-0.064183
20
-0.594959
0
VERTEX
8
0
10
-0.064035
20
-0.595965
0
VERTEX
8
0
10
-0.063984
20
-0.597004
0
VERTEX
8
0
10
-0.063984
20
-0.677004
0
VERTEX
8
0
10
-0.064035
20
-0.678043
0
VERTEX
8
0
10
-0.064183
20
-0.679048
0
VERTEX
8
0
10
-0.064425
20
-0.680015
0
VERTEX
8
0
10
-0.064756
20
-0.680939
0
VERTEX
8
0
10
-0.065171
20
-0.681816
0
VERTEX
8
0
10
-0.065665
20
-0.682640
0
VERTEX
8
0
10
-0.066235
20
-0.683407
0
VERTEX
8
0
10
-0.066875
20
-0.684113
0
VERTEX
8
0
10
-0.067581
20
-0.684754
0
VERTEX
8
0
10
-0.068348
20
-0.685323
0
VERTEX
8
0
10
-0.069172
20
-0.685818
0
VERTEX
8
0
10
-0.070049
20
-0.686232
0
VERTEX
8
0
10
-0.070973
20
-0.686563
0
VERTEX
8
0
10
-0.071940
20
-0.686805
0
VERTEX
8
0
10
-0.072945
20
-0.686954
0
VERTEX
8
0
10
-0.073984
20
-0.687004
0
VERTEX
8
0
10
-0.133984
20
-0.687004
0
VERTEX
8
0
10
-0.135024
20
-0.686954
0
VERTEX
8
0
10
-0.136029
20
-0.686805
0
VERTEX
8
0
10
-0.136996
20
-0.686563
0
VERTEX
8
0
10
-0.137920
20
-0.686232
0
VERTEX
8
0
10
-0.138796
20
-0.685818
0
VERTEX
8
0
10
-0.139620
20
-0.685323
0
VERTEX
8
0
10
-0.140388
20
-0.684754
0
VERTEX
8
0
10
-0.141094
20
-0.684113
0
VERTEX
8
0
10
-0.141734
20
-0.683407
0
VERTEX
8
0
10
-0.142303
20
-0.682640
0
VERTEX
8
0
10
-0.142798
20
-0.681816
0
VERTEX
8
0
10
-0.143213
20
-0.680939
0
VERTEX
8
0
10
-0.143543
20
-0.680015
0
VERTEX
8
0
10
-0.143785
20
-0.679048
0
VERTEX
8
0
10
-0.143934
20
-0.678043
0
VERTEX
8
0
10
-0.143984
20
-0.677004
0
VERTEX
8
0
10
-0.143984
20
-0.597004
0
VERTEX
8
0
10
-0.143934
20
-0.595965
0
VERTEX
8
0
10
-0.143785
20
-0.594959
0
VERTEX
8
0
10
-0.143543
20
-0.593993
0
VERTEX
8
0
10
-0.143213
20
-0.593069
0
VERTEX
8
0
10
-0.142798
20
-0.592192
0
VERTEX
8
0
10
-0.142303
20
-0.591368
0
VERTEX
8
0
10
-0.141734
20
-0.590601
0
VERTEX
8
0
10
-0.141094
20
-0.589894
0
VERTEX
8
0
10
-0.140388
20
-0.589254
0
VERTEX
8
0
10
-0.139620
20
-0.588685
0
VERTEX
8
0
10
-0.138796
20
-0.588190
0
VERTEX
8
0
10
-0.137920
20
-0.587776
0
VERTEX
8
0
10
-0.136996
20
-0.587445
0
VERTEX
8
0
10
-0.136029
20
-0.587203
0
VERTEX
8
0
10
-0.135024
20
-0.587054
0
VERTEX
8
0
10
-0.133984
20
-0.587004
0
SEQEND
8
0
0
POLYLINE
8
0
66
1
70
1
40
0
41
0
0
VERTEX
8
0
10
-0.243984
20
-0.587004
0
VERTEX
8
0
10
-0.183984
20
-0.587004
0
VERTEX
8
0
10
-0.182945
20
-0.587054
0
VERTEX
8
0
10
-0.181940
20
-0.587203
0
VERTEX
8
0
10
-0.180973
20
-0.587445
0
VERTEX
8
0
10
-0.180049
20
-0.587776
0
VERTEX
8
0
10
-0.179172
20
-0.588190
0
VERTEX
8
0
10
-0.178348
20
-0.588685
0
VERTEX
8
0
10
-0.177581
20
-0.589254
0
VERTEX
8
0
10
-0.176875
20
-0.589894
0
VERTEX
8
0
10
-0.176235
20
-0.590601
0
VERTEX
8
0
10
-0.175665
20
-0.591368
0
VERTEX
8
0
10
-0.175171
20
-0.592192
0
VERTEX
8
0
10
-0.174756
20
-0.593069
0
VERTEX
8
0
10
-0.174425
20
-0.593993
0
VERTEX
8
0
10
-0.174183
20
-0.594959
0
VERTEX
8
0
10
-0.174035
20
-0.595965
0
VERTEX
8
0
10
-0.173984
20
-0.597004
0
VERTEX
8
0
10
-0.173984
20
-0.677004
0
VERTEX
8
0
10
-0.174035
20
-0.678043
0
VERTEX
8
0
10
-0.174183
20
-0.679048
0
VERTEX
8
0
10
-0.174425
20
-0.680015
0
VERTEX
8
0
10
-0.174756
20
-0.680939
0
VERTEX
8
0
10
-0.175171
20
-0.681816
0
VERTEX
8
0
10
-0.175665
20
-0.682640
0
VERTEX
8
0
10
-0.176235
20
-0.683407
0
VERTEX
8
0
10
-0.176875
20
-0.684113
0
VERTEX
8
0
10
-0.177581
20
-0.684754
0
VERTEX
8
0
10
-0.178348
20
-0.685323
0
VERTEX
8
0
10
-0.179172
20
-0.685818
0
VERTEX
8
0
10
-0.180049
20
-0.686232
0
VERTEX
8
0
10
-0.180973
20
-0.686563
0
VERTEX
8
0
10
-0.181940
20
-0.686805
0
VERTEX
8
0
10
-0.182945
20
-0.686954
0
VERTEX
8
0
10
-0.183984
20
-0.687004
0
VERTEX
8
0
10
-0.243984
20
-0.687004
0
VERTEX
8
0
10
-0.245024
20
-0.686954
0
VERTEX
8
0
10
-0.246029
20
-0.686805
0
VERTEX
8
0
10
-0.246996
20
-0.686563
0
VERTEX
8
0
10
-0.247920
20
-0.686232
0
VERTEX
8
0
10
-0.248796
20
-0.685818
0
VERTEX
8
0
10
-0.249620
20
-0.685323
0
VERTEX
8
0
10
-0.250388
20
-0.684754
0
VERTEX
8
0
10
-0.251094
20
-0.684113
0
VERTEX
8
0
10
-0.251734
20
-0.683407
0
VERTEX
8
0
10
-0.252303
20
-0.682640
0
VERTEX
8
0
10
-0.252798
20
-0.681816
0
VERTEX
8
0
10
-0.253213
20
-0.680939
0
VERTEX
8
0
10
-0.253543
20
-0.680015
0
VERTEX
8
0
10
-0.253785
20
-0.679048
0
VERTEX
8
0
10
-0.253934
20
-0.678043
0
VERTEX
8
0
10
-0.253984
20
-0.677004
0
VERTEX
8
0
10
-0.253984
20
-0.597004
0
VERTEX
8
0
10
-0.253934
20
-0.595965
0
VERTEX
8
0
10
-0.253785
20
-0.594959
0
VERTEX
8
0
10
-0.253543
20
-0.593993
0
VERTEX
8
0
10
-0.253213
20
-0.593069
0
VERTEX
8
0
10
-0.252798
20
-0.592192
0
VERTEX
8
0
10
-0.252303
20
-0.591368
0
VERTEX
8
0
10
-0.251734
20
-0.590601
0
VERTEX
8
0
10
-0.251094
20
-0.589894
0
VERTEX
8
0
10
-0.250388
20
-0.589254
0
VERTEX
8
0
10
-0.249620
20
-0.588685
0
VERTEX
8
0
10
-0.248796
20
-0.588190
0
VERTEX
8
0
10
-0.247920
20
-0.587776
0
VERTEX
8
0
10
-0.246996
20
-0.587445
0
VERTEX
8
0
10
-0.246029
20
-0.587203
0
VERTEX
8
0
10
-0.245024
20
-0.587054
0
VERTEX
8
0
10
-0.243984
20
-0.587004
0
SEQEND
8
0
0
INSERT
8
0
2
EPAD
10
-0.750047
20
0.109610
41
0.100000
42
0.100000
0
INSERT
8
0
2
EPAD
10
-0.650047
20
0.109610
41
0.100000
42
0.100000
0
POLYLINE
8
0
66
1
70
1
40
0
41
0
0
VERTEX
8
0
10
0.997953
20
0.011610
0
VERTEX
8
0
10
0.997953
20
-0.068390
0
VERTEX
8
0
10
0.997902
20
-0.069429
0
VERTEX
8
0
10
0.997754
20
-0.070434
0
VERTEX
8
0
10
0.997512
20
-0.071401
0
VERTEX
8
0
10
0.997181
20
-0.072325
0
VERTEX
8
0
10
0.996767
20
-0.073202
0
VERTEX
8
0
10
0.996272
20
-0.074026
0
VERTEX
8
0
10
0.995702
20
-0.074793
0
VERTEX
8
0
10
0.995062
20
-0.075499
0
VERTEX
8
0
10
0.994356
20
-0.076139
0
VERTEX
8
0
10
0.993589
20
-0.076709
0
VERTEX
8
0
10
0.992765
20
-0.077203
0
VERTEX
8
0
10
0.991888
20
-0.077618
0
VERTEX
8
0
10
0.990964
20
-0.077949
0
VERTEX
8
0
10
0.989997
20
-0.078191
0
VERTEX
8
0
10
0.988992
20
-0.078339
0
VERTEX
8
0
10
0.987953
20
-0.078390
0
VERTEX
8
0
10
0.907953
20
-0.078390
0
VERTEX
8
0
10
0.906913
20
-0.078339
0
VERTEX
8
0
10
0.905908
20
-0.078191
0
VERTEX
8
0
10
0.904941
20
-0.077949
0
VERTEX
8
0
10
0.904017
20
-0.077618
0
VERTEX
8
0
10
0.903141
20
-0.077203
0
VERTEX
8
0
10
0.902317
20
-0.076709
0
VERTEX
8
0
10
0.901550
20
-0.076139
0
VERTEX
8
0
10
0.900843
20
-0.075499
0
VERTEX
8
0
10
0.900203
20
-0.074793
0
VERTEX
8
0
10
0.899634
20
-0.074026
0
VERTEX
8
0
10
0.899139
20
-0.073202
0
VERTEX
8
0
10
0.898724
20
-0.072325
0
VERTEX
8
0
10
0.898394
20
-0.071401
0
VERTEX
8
0
10
0.898152
20
-0.070434
0
VERTEX
8
0
10
0.898003
20
-0.069429
0
VERTEX
8
0
10
0.897953
20
-0.068390
0
VERTEX
8
0
10
0.897953
20
0.011610
0
VERTEX
8
0
10
0.898003
20
0.012650
0
VERTEX
8
0
10
0.898152
20
0.013655
0
VERTEX
8
0
10
0.898394
20
0.014622
0
VERTEX
8
0
10
0.898724
20
0.015546
0
VERTEX
8
0
10
0.899139
20
0.016422
0
VERTEX
8
0
10
0.899634
20
0.017246
0
VERTEX
8
0
10
0.900203
20
0.018014
0
VERTEX
8
0
10
0.900843
20
0.018720
0
VERTEX
8
0
10
0.901550
20
0.019360
0
VERTEX
8
0
10
0.902317
20
0.019929
0
VERTEX
8
0
10
0.903141
20
0.020424
0
VERTEX
8
0
10
0.904017
20
0.020839
0
VERTEX
8
0
10
0.904941
20
0.021169
0
VERTEX
8
0
10
0.905908
20
0.021411
0
VERTEX
8
0
10
0.906913
20
0.021560
0
VERTEX
8
0
10
0.907953
20
0.021610
0
VERTEX
8
0
10
0.987953
20
0.021610
0
VERTEX
8
0
10
0.988992
20
0.021560
0
VERTEX
8
0
10
0.989997
20
0.021411
0
VERTEX
8
0
10
0.990964
20
0.021169
0
VERTEX
8
0
10
0.991888
20
0.020839
0
VERTEX
8
0
10
0.992765
20
0.020424
0
VERTEX
8
0
10
0.993589
20
0.019929
0
VERTEX
8
0
10
0.994356
20
0.019360
0
VERTEX
8
0
10
0.995062
20
0.018720
0
VERTEX
8
0
10
0.995702
20
0.018014
0
VERTEX
8
0
10
0.996272
20
0.017246
0
VERTEX
8
0
10
0.996767
20
0.016422
0
VERTEX
8
0
10
0.997181
20
0.015546
0
VERTEX
8
0
10
0.997512
20
0.014622
0
VERTEX
8
0
10
0.997754
20
0.013655
0
VERTEX
8
0
10
0.997902
20
0.012650
0
VERTEX
8
0
10
0.997953
20
0.011610
0
SEQEND
8
0
0
POLYLINE
8
0
66
1
70
1
40
0
41
0
0
VERTEX
8
0
10
0.997953
20
-0.154390
0
VERTEX
8
0
10
0.997953
20
-0.234390
0
VERTEX
8
0
10
0.997902
20
-0.235429
0
VERTEX
8
0
10
0.997754
20
-0.236434
0
VERTEX
8
0
10
0.997512
20
-0.237401
0
VERTEX
8
0
10
0.997181
20
-0.238325
0
VERTEX
8
0
10
0.996767
20
-0.239202
0
VERTEX
8
0
10
0.996272
20
-0.240026
0
VERTEX
8
0
10
0.995702
20
-0.240793
0
VERTEX
8
0
10
0.995062
20
-0.241499
0
VERTEX
8
0
10
0.994356
20
-0.242139
0
VERTEX
8
0
10
0.993589
20
-0.242709
0
VERTEX
8
0
10
0.992765
20
-0.243203
0
VERTEX
8
0
10
0.991888
20
-0.243618
0
VERTEX
8
0
10
0.990964
20
-0.243949
0
VERTEX
8
0
10
0.989997
20
-0.244191
0
VERTEX
8
0
10
0.988992
20
-0.244339
0
VERTEX
8
0
10
0.987953
20
-0.244390
0
VERTEX
8
0
10
0.907953
20
-0.244390
0
VERTEX
8
0
10
0.906913
20
-0.244339
0
VERTEX
8
0
10
0.905908
20
-0.244191
0
VERTEX
8
0
10
0.904941
20
-0.243949
0
VERTEX
8
0
10
0.904017
20
-0.243618
0
VERTEX
8
0
10
0.903141
20
-0.243203
0
VERTEX
8
0
10
0.902317
20
-0.242709
0
VERTEX
8
0
10
0.901550
20
-0.242139
0
VERTEX
8
0
10
0.900843
20
-0.241499
0
VERTEX
8
0
10
0.900203
20
-0.240793
0
VERTEX
8
0
10
0.899634
20
-0.240026
0
VERTEX
8
0
10
0.899139
20
-0.239202
0
VERTEX
8
0
10
0.898724
20
-0.238325
0
VERTEX
8
0
10
0.898394
20
-0.237401
0
VERTEX
8
0
10
0.898152
20
-0.236434
0
VERTEX
8
0
10
0.898003
20
-0.235429
0
VERTEX
8
0
10
0.897953
20
-0.234390
0
VERTEX
8
0
10
0.897953
20
-0.154390
0
VERTEX
8
0
10
0.898003
20
-0.153350
0
VERTEX
8
0
10
0.898152
20
-0.152345
0
VERTEX
8
0
10
0.898394
20
-0.151378
0
VERTEX
8
0
10
0.898724
20
-0.150454
0
VERTEX
8
0
10
0.899139
20
-0.149578
0
VERTEX
8
0
10
0.899634
20
-0.148754
0
VERTEX
8
0
10
0.900203
20
-0.147986
0
VERTEX
8
0
10
0.900843
20
-0.147280
0
VERTEX
8
0
10
0.901550
20
-0.146640
0
VERTEX
8
0
10
0.902317
20
-0.146071
0
VERTEX
8
0
10
0.903141
20
-0.145576
0
VERTEX
8
0
10
0.904017
20
-0.145161
0
VERTEX
8
0
10
0.904941
20
-0.144831
0
VERTEX
8
0
10
0.905908
20
-0.144589
0
VERTEX
8
0
10
0.906913
20
-0.144440
0
VERTEX
8
0
10
0.907953
20
-0.144390
0
VERTEX
8
0
10
0.987953
20
-0.144390
0
VERTEX
8
0
10
0.988992
20
-0.144440
0
VERTEX
8
0
10
0.989997
20
-0.144589
0
VERTEX
8
0
10
0.990964
20
-0.144831
0
VERTEX
8
0
10
0.991888
20
-0.145161
0
VERTEX
8
0
10
0.992765
20
-0.145576
0
VERTEX
8
0
10
0.993589
20
-0.146071
0
VERTEX
8
0
10
0.994356
20
-0.146640
0
VERTEX
8
0
10
0.995062
20
-0.147280
0
VERTEX
8
0
10
0.995702
20
-0.147986
0
VERTEX
8
0
10
0.996272
20
-0.148754
0
VERTEX
8
0
10
0.996767
20
-0.149578
0
VERTEX
8
0
10
0.997181
20
-0.150454
0
VERTEX
8
0
10
0.997512
20
-0.151378
0
VERTEX
8
0
10
0.997754
20
-0.152345
0
VERTEX
8
0
10
0.997902
20
-0.153350
0
VERTEX
8
0
10
0.997953
20
-0.154390
0
SEQEND
8
0
0
POLYLINE
8
0
66
1
70
1
40
0
41
0
0
VERTEX
8
0
10
-0.662047
20
-0.606390
0
VERTEX
8
0
10
-0.662047
20
-0.652390
0
VERTEX
8
0
10
-0.662385
20
-0.655866
0
VERTEX
8
0
10
-0.663359
20
-0.659080
0
VERTEX
8
0
10
-0.664905
20
-0.661971
0
VERTEX
8
0
10
-0.666961
20
-0.664476
0
VERTEX
8
0
10
-0.669466
20
-0.666532
0
VERTEX
8
0
10
-0.672357
20
-0.668078
0
VERTEX
8
0
10
-0.675571
20
-0.669052
0
VERTEX
8
0
10
-0.679047
20
-0.669390
0
VERTEX
8
0
10
-0.805047
20
-0.669390
0
VERTEX
8
0
10
-0.808523
20
-0.669052
0
VERTEX
8
0
10
-0.811737
20
-0.668078
0
VERTEX
8
0
10
-0.814628
20
-0.666532
0
VERTEX
8
0
10
-0.817133
20
-0.664476
0
VERTEX
8
0
10
-0.819190
20
-0.661971
0
VERTEX
8
0
10
-0.820736
20
-0.659080
0
VERTEX
8
0
10
-0.821709
20
-0.655866
0
VERTEX
8
0
10
-0.822047
20
-0.652390
0
VERTEX
8
0
10
-0.822047
20
-0.606390
0
VERTEX
8
0
10
-0.821709
20
-0.602914
0
VERTEX
8
0
10
-0.820736
20
-0.599700
0
VERTEX
8
0
10
-0.819190
20
-0.596809
0
VERTEX
8
0
10
-0.817133
20
-0.594304
0
VERTEX
8
0
10
-0.814628
20
-0.592247
0
VERTEX
8
0
10
-0.811737
20
-0.590701
0
VERTEX
8
0
10
-0.808523
20
-0.589728
0
VERTEX
8
0
10
-0.805047
20
-0.589390
0
VERTEX
8
0
10
-0.679047
20
-0.589390
0
VERTEX
8
0
10
-0.675571
20
-0.589728
0
VERTEX
8
0
10
-0.672357
20
-0.590701
0
VERTEX
8
0
10
-0.669466
20
-0.592247
0
VERTEX
8
0
10
-0.666961
20
-0.594304
0
VERTEX
8
0
10
-0.664905
20
-0.596809
0
VERTEX
8
0
10
-0.663359
20
-0.599700
0
VERTEX
8
0
10
-0.662385
20
-0.602914
0
VERTEX
8
0
10
-0.662047
20
-0.606390
0
SEQEND
8
0
0
POLYLINE
8
0
66
1
70
1
40
0
41
0
0
VERTEX
8
0
10
-0.662047
20
-0.706390
0
VERTEX
8
0
10
-0.662047
20
-0.752390
0
VERTEX
8
0
10
-0.662385
20
-0.755866
0
VERTEX
8
0
10
-0.663359
20
-0.759080
0
VERTEX
8
0
10
-0.664905
20
-0.761971
0
VERTEX
8
0
10
-0.666961
20
-0.764476
0
VERTEX
8
0
10
-0.669466
20
-0.766532
0
VERTEX
8
0
10
-0.672357
20
-0.768078
0
VERTEX
8
0
10
-0.675571
20
-0.769052
0
VERTEX
8
0
10
-0.679047
20
-0.769390
0
VERTEX
8
0
10
-0.805047
20
-0.769390
0
VERTEX
8
0
10
-0.808523
20
-0.769052
0
VERTEX
8
0
10
-0.811737
20
-0.768078
0
VERTEX
8
0
10
-0.814628
20
-0.766532
0
VERTEX
8
0
10
-0.817133
20
-0.764476
0
VERTEX
8
0
10
-0.819190
20
-0.761971
0
VERTEX
8
0
10
-0.820736
20
-0.759080
0
VERTEX
8
0
10
-0.821709
20
-0.755866
0
VERTEX
8
0
10
-0.822047
20
-0.752390
0
VERTEX
8
0
10
-0.822047
20
-0.706390
0
VERTEX
8
0
10
-0.821709
20
-0.702914
0
VERTEX
8
0
10
-0.820736
20
-0.699700
0
VERTEX
8
0
10
-0.819190
20
-0.696809
0
VERTEX
8
0
10
-0.817133
20
-0.694304
0
VERTEX
8
0
10
-0.814628
20
-0.692247
0
VERTEX
8
0
10
-0.811737
20
-0.690701
0
VERTEX
8
0
10
-0.808523
20
-0.689728
0
VERTEX
8
0
10
-0.805047
20
-0.689390
0
VERTEX
8
0
10
-0.679047
20
-0.689390
0
VERTEX
8
0
10
-0.675571
20
-0.689728
0
VERTEX
8
0
10
-0.672357
20
-0.690701
0
VERTEX
8
0
10
-0.669466
20
-0.692247
0
VERTEX
8
0
10
-0.666961
20
-0.694304
0
VERTEX
8
0
10
-0.664905
20
-0.696809
0
VERTEX
8
0
10
-0.663359
20
-0.699700
0
VERTEX
8
0
10
-0.662385
20
-0.702914
0
VERTEX
8
0
10
-0.662047
20
-0.706390
0
SEQEND
8
0
0
POLYLINE
8
0
66
1
70
1
40
0
41
0
0
VERTEX
8
0
10
-0.662047
20
-0.806390
0
VERTEX
8
0
10
-0.662047
20
-0.852390
0
VERTEX
8
0
10
-0.662385
20
-0.855866
0
VERTEX
8
0
10
-0.663359
20
-0.859080
0
VERTEX
8
0
10
-0.664905
20
-0.861971
0
VERTEX
8
0
10
-0.666961
20
-0.864476
0
VERTEX
8
0
10
-0.669466
20
-0.866532
0
VERTEX
8
0
10
-0.672357
20
-0.868078
0
VERTEX
8
0
10
-0.675571
20
-0.869052
0
VERTEX
8
0
10
-0.679047
20
-0.869390
0
VERTEX
8
0
10
-0.805047
20
-0.869390
0
VERTEX
8
0
10
-0.808523
20
-0.869052
0
VERTEX
8
0
10
-0.811737
20
-0.868078
0
VERTEX
8
0
10
-0.814628
20
-0.866532
0
VERTEX
8
0
10
-0.817133
20
-0.864476
0
VERTEX
8
0
10
-0.819190
20
-0.861971
0
VERTEX
8
0
10
-0.820736
20
-0.859080
0
VERTEX
8
0
10
-0.821709
20
-0.855866
0
VERTEX
8
0
10
-0.822047
20
-0.852390
0
VERTEX
8
0
10
-0.822047
20
-0.806390
0
VERTEX
8
0
10
-0.821709
20
-0.802914
0
VERTEX
8
0
10
-0.820736
20
-0.799700
0
VERTEX
8
0
10
-0.819190
20
-0.796809
0
VERTEX
8
0
10
-0.817133
20
-0.794304
0
VERTEX
8
0
10
-0.814628
20
-0.792247
0
VERTEX
8
0
10
-0.811737
20
-0.790701
0
VERTEX
8
0
10
-0.808523
20
-0.789728
0
VERTEX
8
0
10
-0.805047
20
-0.789390
0
VERTEX
8
0
10
-0.679047
20
-0.789390
0
VERTEX
8
0
10
-0.675571
20
-0.789728
0
VERTEX
8
0
10
-0.672357
20
-0.790701
0
VERTEX
8
0
10
-0.669466
20
-0.792247
0
VERTEX
8
0
10
-0.666961
20
-0.794304
0
VERTEX
8
0
10
-0.664905
20
-0.796809
0
VERTEX
8
0
10
-0.663359
20
-0.799700
0
VERTEX
8
0
10
-0.662385
20
-0.802914
0
VERTEX
8
0
10
-0.662047
20
-0.806390
0
SEQEND
8
0
0
POLYLINE
8
0
66
1
70
1
40
0
41
0
0
VERTEX
8
0
10
-0.662047
20
-0.906390
0
VERTEX
8
0
10
-0.662047
20
-0.952390
0
VERTEX
8
0
10
-0.662385
20
-0.955866
0
VERTEX
8
0
10
-0.663359
20
-0.959080
0
VERTEX
8
0
10
-0.664905
20
-0.961971
0
VERTEX
8
0
10
-0.666961
20
-0.964476
0
VERTEX
8
0
10
-0.669466
20
-0.966532
0
VERTEX
8
0
10
-0.672357
20
-0.968078
0
VERTEX
8
0
10
-0.675571
20
-0.969052
0
VERTEX
8
0
10
-0.679047
20
-0.969390
0
VERTEX
8
0
10
-0.805047
20
-0.969390
0
VERTEX
8
0
10
-0.808523
20
-0.969052
0
VERTEX
8
0
10
-0.811737
20
-0.968078
0
VERTEX
8
0
10
-0.814628
20
-0.966532
0
VERTEX
8
0
10
-0.817133
20
-0.964476
0
VERTEX
8
0
10
-0.819190
20
-0.961971
0
VERTEX
8
0
10
-0.820736
20
-0.959080
0
VERTEX
8
0
10
-0.821709
20
-0.955866
0
VERTEX
8
0
10
-0.822047
20
-0.952390
0
VERTEX
8
0
10
-0.822047
20
-0.906390
0
VERTEX
8
0
10
-0.821709
20
-0.902914
0
VERTEX
8
0
10
-0.820736
20
-0.899700
0
VERTEX
8
0
10
-0.819190
20
-0.896809
0
VERTEX
8
0
10
-0.817133
20
-0.894304
0
VERTEX
8
0
10
-0.814628
20
-0.892247
0
VERTEX
8
0
10
-0.811737
20
-0.890701
0
VERTEX
8
0
10
-0.808523
20
-0.889728
0
VERTEX
8
0
10
-0.805047
20
-0.889390
0
VERTEX
8
0
10
-0.679047
20
-0.889390
0
VERTEX
8
0
10
-0.675571
20
-0.889728
0
VERTEX
8
0
10
-0.672357
20
-0.890701
0
VERTEX
8
0
10
-0.669466
20
-0.892247
0
VERTEX
8
0
10
-0.666961
20
-0.894304
0
VERTEX
8
0
10
-0.664905
20
-0.896809
0
VERTEX
8
0
10
-0.663359
20
-0.899700
0
VERTEX
8
0
10
-0.662385
20
-0.902914
0
VERTEX
8
0
10
-0.662047
20
-0.906390
0
SEQEND
8
0
0
POLYLINE
8
0
66
1
70
1
40
0
41
0
0
VERTEX
8
0
10
-0.767047
20
-0.437390
0
VERTEX
8
0
10
-0.767047
20
-0.391390
0
VERTEX
8
0
10
-0.766709
20
-0.387914
0
VERTEX
8
0
10
-0.765736
20
-0.384700
0
VERTEX
8
0
10
-0.764190
20
-0.381809
0
VERTEX
8
0
10
-0.762133
20
-0.379304
0
VERTEX
8
0
10
-0.759628
20
-0.377247
0
VERTEX
8
0
10
-0.756737
20
-0.375701
0
VERTEX
8
0
10
-0.753523
20
-0.374728
0
VERTEX
8
0
10
-0.750047
20
-0.374390
0
VERTEX
8
0
10
-0.624047
20
-0.374390
0
VERTEX
8
0
10
-0.620571
20
-0.374728
0
VERTEX
8
0
10
-0.617357
20
-0.375701
0
VERTEX
8
0
10
-0.614466
20
-0.377247
0
VERTEX
8
0
10
-0.611961
20
-0.379304
0
VERTEX
8
0
10
-0.609905
20
-0.381809
0
VERTEX
8
0
10
-0.608359
20
-0.384700
0
VERTEX
8
0
10
-0.607385
20
-0.387914
0
VERTEX
8
0
10
-0.607047
20
-0.391390
0
VERTEX
8
0
10
-0.607047
20
-0.437390
0
VERTEX
8
0
10
-0.607385
20
-0.440866
0
VERTEX
8
0
10
-0.608359
20
-0.444080
0
VERTEX
8
0
10
-0.609905
20
-0.446971
0
VERTEX
8
0
10
-0.611961
20
-0.449476
0
VERTEX
8
0
10
-0.614466
20
-0.451532
0
VERTEX
8
0
10
-0.617357
20
-0.453078
0
VERTEX
8
0
10
-0.620571
20
-0.454052
0
VERTEX
8
0
10
-0.624047
20
-0.454390
0
VERTEX
8
0
10
-0.750047
20
-0.454390
0
VERTEX
8
0
10
-0.753523
20
-0.454052
0
VERTEX
8
0
10
-0.756737
20
-0.453078
0
VERTEX
8
0
10
-0.759628
20
-0.451532
0
VERTEX
8
0
10
-0.762133
20
-0.449476
0
VERTEX
8
0
10
-0.764190
20
-0.446971
0
VERTEX
8
0
10
-0.765736
20
-0.444080
0
VERTEX
8
0
10
-0.766709
20
-0.440866
0
VERTEX
8
0
10
-0.767047
20
-0.437390
0
SEQEND
8
0
0
POLYLINE
8
0
66
1
70
1
40
0
41
0
0
VERTEX
8
0
10
-0.767047
20
-0.337390
0
VERTEX
8
0
10
-0.767047
20
-0.291390
0
VERTEX
8
0
10
-0.766709
20
-0.287914
0
VERTEX
8
0
10
-0.765736
20
-0.284700
0
VERTEX
8
0
10
-0.764190
20
-0.281809
0
VERTEX
8
0
10
-0.762133
20
-0.279304
0
VERTEX
8
0
10
-0.759628
20
-0.277247
0
VERTEX
8
0
10
-0.756737
20
-0.275701
0
VERTEX
8
0
10
-0.753523
20
-0.274728
0
VERTEX
8
0
10
-0.750047
20
-0.274390
0
VERTEX
8
0
10
-0.624047
20
-0.274390
0
VERTEX
8
0
10
-0.620571
20
-0.274728
0
VERTEX
8
0
10
-0.617357
20
-0.275701
0
VERTEX
8
0
10
-0.614466
20
-0.277247
0
VERTEX
8
0
10
-0.611961
20
-0.279304
0
VERTEX
8
0
10
-0.609905
20
-0.281809
0
VERTEX
8
0
10
-0.608359
20
-0.284700
0
VERTEX
8
0
10
-0.607385
20
-0.287914
0
VERTEX
8
0
10
-0.607047
20
-0.291390
0
VERTEX
8
0
10
-0.607047
20
-0.337390
0
VERTEX
8
0
10
-0.607385
20
-0.340866
0
VERTEX
8
0
10
-0.608359
20
-0.344080
0
VERTEX
8
0
10
-0.609905
20
-0.346971
0
VERTEX
8
0
10
-0.611961
20
-0.349476
0
VERTEX
8
0
10
-0.614466
20
-0.351532
0
VERTEX
8
0
10
-0.617357
20
-0.353078
0
VERTEX
8
0
10
-0.620571
20
-0.354052
0
VERTEX
8
0
10
-0.624047
20
-0.354390
0
VERTEX
8
0
10
-0.750047
20
-0.354390
0
VERTEX
8
0
10
-0.753523
20
-0.354052
0
VERTEX
8
0
10
-0.756737
20
-0.353078
0
VERTEX
8
0
10
-0.759628
20
-0.351532
0
VERTEX
8
0
10
-0.762133
20
-0.349476
0
VERTEX
8
0
10
-0.764190
20
-0.346971
0
VERTEX
8
0
10
-0.765736
20
-0.344080
0
VERTEX
8
0
10
-0.766709
20
-0.340866
0
VERTEX
8
0
10
-0.767047
20
-0.337390
0
SEQEND
8
0
0
POLYLINE
8
0
66
1
70
1
40
0
41
0
0
VERTEX
8
0
10
-0.767047
20
-0.237390
0
VERTEX
8
0
10
-0.767047
20
-0.191390
0
VERTEX
8
0
10
-0.766709
20
-0.187914
0
VERTEX
8
0
10
-0.765736
20
-0.184700
0
VERTEX
8
0
10
-0.764190
20
-0.181809
0
VERTEX
8
0
10
-0.762133
20
-0.179304
0
VERTEX
8
0
10
-0.759628
20
-0.177247
0
VERTEX
8
0
10
-0.756737
20
-0.175701
0
VERTEX
8
0
10
-0.753523
20
-0.174728
0
VERTEX
8
0
10
-0.750047
20
-0.174390
0
VERTEX
8
0
10
-0.624047
20
-0.174390
0
VERTEX
8
0
10
-0.620571
20
-0.174728
0
VERTEX
8
0
10
-0.617357
20
-0.175701
0
VERTEX
8
0
10
-0.614466
20
-0.177247
0
VERTEX
8
0
10
-0.611961
20
-0.179304
0
VERTEX
8
0
10
-0.609905
20
-0.181809
0
VERTEX
8
0
10
-0.608359
20
-0.184700
0
VERTEX
8
0
10
-0.607385
20
-0.187914
0
VERTEX
8
0
10
-0.607047
20
-0.191390
0
VERTEX
8
0
10
-0.607047
20
-0.237390
0
VERTEX
8
0
10
-0.607385
20
-0.240866
0
VERTEX
8
0
10
-0.608359
20
-0.244080
0
VERTEX
8
0
10
-0.609905
20
-0.246971
0
VERTEX
8
0
10
-0.611961
20
-0.249476
0
VERTEX
8
0
10
-0.614466
20
-0.251532
0
VERTEX
8
0
10
-0.617357
20
-0.253078
0
VERTEX
8
0
10
-0.620571
20
-0.254052
0
VERTEX
8
0
10
-0.624047
20
-0.254390
0
VERTEX
8
0
10
-0.750047
20
-0.254390
0
VERTEX
8
0
10
-0.753523
20
-0.254052
0
VERTEX
8
0
10
-0.756737
20
-0.253078
0
VERTEX
8
0
10
-0.759628
20
-0.251532
0
VERTEX
8
0
10
-0.762133
20
-0.249476
0
VERTEX
8
0
10
-0.764190
20
-0.246971
0
VERTEX
8
0
10
-0.765736
20
-0.244080
0
VERTEX
8
0
10
-0.766709
20
-0.240866
0
VERTEX
8
0
10
-0.767047
20
-0.237390
0
SEQEND
8
0
0
POLYLINE
8
0
66
1
70
1
40
0
41
0
0
VERTEX
8
0
10
-0.767047
20
-0.137390
0
VERTEX
8
0
10
-0.767047
20
-0.091390
0
VERTEX
8
0
10
-0.766709
20
-0.087914
0
VERTEX
8
0
10
-0.765736
20
-0.084700
0
VERTEX
8
0
10
-0.764190
20
-0.081809
0
VERTEX
8
0
10
-0.762133
20
-0.079304
0
VERTEX
8
0
10
-0.759628
20
-0.077247
0
VERTEX
8
0
10
-0.756737
20
-0.075701
0
VERTEX
8
0
10
-0.753523
20
-0.074728
0
VERTEX
8
0
10
-0.750047
20
-0.074390
0
VERTEX
8
0
10
-0.624047
20
-0.074390
0
VERTEX
8
0
10
-0.620571
20
-0.074728
0
VERTEX
8
0
10
-0.617357
20
-0.075701
0
VERTEX
8
0
10
-0.614466
20
-0.077247
0
VERTEX
8
0
10
-0.611961
20
-0.079304
0
VERTEX
8
0
10
-0.609905
20
-0.081809
0
VERTEX
8
0
10
-0.608359
20
-0.084700
0
VERTEX
8
0
10
-0.607385
20
-0.087914
0
VERTEX
8
0
10
-0.607047
20
-0.091390
0
VERTEX
8
0
10
-0.607047
20
-0.137390
0
VERTEX
8
0
10
-0.607385
20
-0.140866
0
VERTEX
8
0
10
-0.608359
20
-0.144080
0
VERTEX
8
0
10
-0.609905
20
-0.146971
0
VERTEX
8
0
10
-0.611961
20
-0.149476
0
VERTEX
8
0
10
-0.614466
20
-0.151532
0
VERTEX
8
0
10
-0.617357
20
-0.153078
0
VERTEX
8
0
10
-0.620571
20
-0.154052
0
VERTEX
8
0
10
-0.624047
20
-0.154390
0
VERTEX
8
0
10
-0.750047
20
-0.154390
0
VERTEX
8
0
10
-0.753523
20
-0.154052
0
VERTEX
8
0
10
-0.756737
20
-0.153078
0
VERTEX
8
0
10
-0.759628
20
-0.151532
0
VERTEX
8
0
10
-0.762133
20
-0.149476
0
VERTEX
8
0
10
-0.764190
20
-0.146971
0
VERTEX
8
0
10
-0.765736
20
-0.144080
0
VERTEX
8
0
10
-0.766709
20
-0.140866
0
VERTEX
8
0
10
-0.767047
20
-0.137390
0
SEQEND
8
0
0
POLYLINE
8
0
66
1
70
1
40
0
41
0
0
VERTEX
8
0
10
-0.155047
20
-0.837390
0
VERTEX
8
0
10
-0.109047
20
-0.837390
0
VERTEX
8
0
10
-0.105571
20
-0.837728
0
VERTEX
8
0
10
-0.102357
20
-0.838701
0
VERTEX
8
0
10
-0.099466
20
-0.840247
0
VERTEX
8
0
10
-0.096961
20
-0.842304
0
VERTEX
8
0
10
-0.094905
20
-0.844809
0
VERTEX
8
0
10
-0.093359
20
-0.847700
0
VERTEX
8
0
10
-0.092385
20
-0.850914
0
VERTEX
8
0
10
-0.092047
20
-0.854390
0
VERTEX
8
0
10
-0.092047
20
-0.980390
0
VERTEX
8
0
10
-0.092385
20
-0.983866
0
VERTEX
8
0
10
-0.093359
20
-0.987080
0
VERTEX
8
0
10
-0.094905
20
-0.989971
0
VERTEX
8
0
10
-0.096961
20
-0.992476
0
VERTEX
8
0
10
-0.099466
20
-0.994532
0
VERTEX
8
0
10
-0.102357
20
-0.996078
0
VERTEX
8
0
10
-0.105571
20
-0.997052
0
VERTEX
8
0
10
-0.109047
20
-0.997390
0
VERTEX
8
0
10
-0.155047
20
-0.997390
0
VERTEX
8
0
10
-0.158523
20
-0.997052
0
VERTEX
8
0
10
-0.161737
20
-0.996078
0
VERTEX
8
0
10
-0.164628
20
-0.994532
0
VERTEX
8
0
10
-0.167133
20
-0.992476
0
VERTEX
8
0
10
-0.169190
20
-0.989971
0
VERTEX
8
0
10
-0.170736
20
-0.987080
0
VERTEX
8
0
10
-0.171709
20
-0.983866
0
VERTEX
8
0
10
-0.172047
20
-0.980390
0
VERTEX
8
0
10
-0.172047
20
-0.854390
0
VERTEX
8
0
10
-0.171709
20
-0.850914
0
VERTEX
8
0
10
-0.170736
20
-0.847700
0
VERTEX
8
0
10
-0.169190
20
-0.844809
0
VERTEX
8
0
10
-0.167133
20
-0.842304
0
VERTEX
8
0
10
-0.164628
20
-0.840247
0
VERTEX
8
0
10
-0.161737
20
-0.838701
0
VERTEX
8
0
10
-0.158523
20
-0.837728
0
VERTEX
8
0
10
-0.155047
20
-0.837390
0
SEQEND
8
0
0
POLYLINE
8
0
66
1
70
1
40
0
41
0
0
VERTEX
8
0
10
-0.055047
20
-0.837390
0
VERTEX
8
0
10
-0.009047
20
-0.837390
0
VERTEX
8
0
10
-0.005571
20
-0.837728
0
VERTEX
8
0
10
-0.002357
20
-0.838701
0
VERTEX
8
0
10
0.000534
20
-0.840247
0
VERTEX
8
0
10
0.003039
20
-0.842304
0
VERTEX
8
0
10
0.005095
20
-0.844809
0
VERTEX
8
0
10
0.006641
20
-0.847700
0
VERTEX
8
0
10
0.007615
20
-0.850914
0
VERTEX
8
0
10
0.007953
20
-0.854390
0
VERTEX
8
0
10
0.007953
20
-0.980390
0
VERTEX
8
0
10
0.007615
20
-0.983866
0
VERTEX
8
0
10
0.006641
20
-0.987080
0
VERTEX
8
0
10
0.005095
20
-0.989971
0
VERTEX
8
0
10
0.003039
20
-0.992476
0
VERTEX
8
0
10
0.000534
20
-0.994532
0
VERTEX
8
0
10
-0.002357
20
-0.996078
0
VERTEX
8
0
10
-0.005571
20
-0.997052
0
VERTEX
8
0
10
-0.009047
20
-0.997390
0
VERTEX
8
0
10
-0.055047
20
-0.997390
0
VERTEX
8
0
10
-0.058523
20
-0.997052
0
VERTEX
8
0
10
-0.061737
20
-0.996078
0
VERTEX
8
0
10
-0.064628
20
-0.994532
0
VERTEX
8
0
10
-0.067133
20
-0.992476
0
VERTEX
8
0
10
-0.069190
20
-0.989971
0
VERTEX
8
0
10
-0.070736
20
-0.987080
0
VERTEX
8
0
10
-0.071709
20
-0.983866
0
VERTEX
8
0
10
-0.072047
20
-0.980390
0
VERTEX
8
0
10
-0.072047
20
-0.854390
0
VERTEX
8
0
10
-0.071709
20
-0.850914
0
VERTEX
8
0
10
-0.070736
20
-0.847700
0
VERTEX
8
0
10
-0.069190
20
-0.844809
0
VERTEX
8
0
10
-0.067133
20
-0.842304
0
VERTEX
8
0
10
-0.064628
20
-0.840247
0
VERTEX
8
0
10
-0.061737
20
-0.838701
0
VERTEX
8
0
10
-0.058523
20
-0.837728
0
VERTEX
8
0
10
-0.055047
20
-0.837390
0
SEQEND
8
0
0
POLYLINE
8
0
66
1
70
1
40
0
41
0
0
VERTEX
8
0
10
0.044953
20
-0.837390
0
VERTEX
8
0
10
0.090953
20
-0.837390
0
VERTEX
8
0
10
0.094429
20
-0.837728
0
VERTEX
8
0
10
0.097643
20
-0.838701
0
VERTEX
8
0
10
0.100534
20
-0.840247
0
VERTEX
8
0
10
0.103039
20
-0.842304
0
VERTEX
8
0
10
0.105095
20
-0.844809
0
VERTEX
8
0
10
0.106641
20
-0.847700
0
VERTEX
8
0
10
0.107615
20
-0.850914
0
VERTEX
8
0
10
0.107953
20
-0.854390
0
VERTEX
8
0
10
0.107953
20
-0.980390
0
VERTEX
8
0
10
0.107615
20
-0.983866
0
VERTEX
8
0
10
0.106641
20
-0.987080
0
VERTEX
8
0
10
0.105095
20
-0.989971
0
VERTEX
8
0
10
0.103039
20
-0.992476
0
VERTEX
8
0
10
0.100534
20
-0.994532
0
VERTEX
8
0
10
0.097643
20
-0.996078
0
VERTEX
8
0
10
0.094429
20
-0.997052
0
VERTEX
8
0
10
0.090953
20
-0.997390
0
VERTEX
8
0
10
0.044953
20
-0.997390
0
VERTEX
8
0
10
0.041477
20
-0.997052
0
VERTEX
8
0
10
0.038263
20
-0.996078
0
VERTEX
8
0
10
0.035372
20
-0.994532
0
VERTEX
8
0
10
0.032867
20
-0.992476
0
VERTEX
8
0
10
0.030810
20
-0.989971
0
VERTEX
8
0
10
0.029264
20
-0.987080
0
VERTEX
8
0
10
0.028291
20
-0.983866
0
VERTEX
8
0
10
0.027953
20
-0.980390
0
VERTEX
8
0
10
0.027953
20
-0.854390
0
VERTEX
8
0
10
0.028291
20
-0.850914
0
VERTEX
8
0
10
0.029264
20
-0.847700
0
VERTEX
8
0
10
0.030810
20
-0.844809
0
VERTEX
8
0
10
0.032867
20
-0.842304
0
VERTEX
8
0
10
0.035372
20
-0.840247
0
VERTEX
8
0
10
0.038263
20
-0.838701
0
VERTEX
8
0
10
0.041477
20
-0.837728
0
VERTEX
8
0
10
0.044953
20
-0.837390
0
SEQEND
8
0
0
POLYLINE
8
0
66
1
70
1
40
0
41
0
0
VERTEX
8
0
10
0.144953
20
-0.837390
0
VERTEX
8
0
10
0.190953
20
-0.837390
0
VERTEX
8
0
10
0.194429
20
-0.837728
0
VERTEX
8
0
10
0.197643
20
-0.838701
0
VERTEX
8
0
10
0.200534
20
-0.840247
0
VERTEX
8
0
10
0.203039
20
-0.842304
0
VERTEX
8
0
10
0.205095
20
-0.844809
0
VERTEX
8
0
10
0.206641
20
-0.847700
0
VERTEX
8
0
10
0.207615
20
-0.850914
0
VERTEX
8
0
10
0.207953
20
-0.854390
0
VERTEX
8
0
10
0.207953
20
-0.980390
0
VERTEX
8
0
10
0.207615
20
-0.983866
0
VERTEX
8
0
10
0.206641
20
-0.987080
0
VERTEX
8
0
10
0.205095
20
-0.989971
0
VERTEX
8
0
10
0.203039
20
-0.992476
0
VERTEX
8
0
10
0.200534
20
-0.994532
0
VERTEX
8
0
10
0.197643
20
-0.996078
0
VERTEX
8
0
10
0.194429
20
-0.997052
0
VERTEX
8
0
10
0.190953
20
-0.997390
0
VERTEX
8
0
10
0.144953
20
-0.997390
0
VERTEX
8
0
10
0.141477
20
-0.997052
0
VERTEX
8
0
10
0.138263
20
-0.996078
0
VERTEX
8
0
10
0.135372
20
-0.994532
0
VERTEX
8
0
10
0.132867
20
-0.992476
0
VERTEX
8
0
10
0.130810
20
-0.989971
0
VERTEX
8
0
10
0.129264
20
-0.987080
0
VERTEX
8
0
10
0.128291
20
-0.983866
0
VERTEX
8
0
10
0.127953
20
-0.980390
0
VERTEX
8
0
10
0.127953
20
-0.854390
0
VERTEX
8
0
10
0.128291
20
-0.850914
0
VERTEX
8
0
10
0.129264
20
-0.847700
0
VERTEX
8
0
10
0.130810
20
-0.844809
0
VERTEX
8
0
10
0.132867
20
-0.842304
0
VERTEX
8
0
10
0.135372
20
-0.840247
0
VERTEX
8
0
10
0.138263
20
-0.838701
0
VERTEX
8
0
10
0.141477
20
-0.837728
0
VERTEX
8
0
10
0.144953
20
-0.837390
0
SEQEND
8
0
0
INSERT
8
0
2
EPAD
10
0.835165
20
0.630673
41
0.108425
42
0.108425
0
INSERT
8
0
2
EPAD
10
0.047764
20
0.630673
41
0.108425
42
0.108425
0
POLYLINE
8
0
66
1
70
1
40
0
41
0
0
VERTEX
8
0
10
-0.473291
20
0.697669
0
VERTEX
8
0
10
-0.449291
20
0.697669
0
VERTEX
8
0
10
-0.449291
20
0.626669
0
VERTEX
8
0
10
-0.473291
20
0.626669
0
VERTEX
8
0
10
-0.473291
20
0.697669
0
SEQEND
8
0
0
POLYLINE
8
0
66
1
70
1
40
0
41
0
0
VERTEX
8
0
10
-0.523291
20
0.697669
0
VERTEX
8
0
10
-0.499291
20
0.697669
0
VERTEX
8
0
10
-0.499291
20
0.626669
0
VERTEX
8
0
10
-0.523291
20
0.626669
0
VERTEX
8
0
10
-0.523291
20
0.697669
0
SEQEND
8
0
0
POLYLINE
8
0
66
1
70
1
40
0
41
0
0
VERTEX
8
0
10
-0.573291
20
0.697669
0
VERTEX
8
0
10
-0.549291
20
0.697669
0
VERTEX
8
0
10
-0.549291
20
0.626669
0
VERTEX
8
0
10
-0.573291
20
0.626669
0
VERTEX
8
0
10
-0.573291
20
0.697669
0
SEQEND
8
0
0
POLYLINE
8
0
66
1
70
1
40
0
41
0
0
VERTEX
8
0
10
-0.623291
20
0.697669
0
VERTEX
8
0
10
-0.599291
20
0.697669
0
VERTEX
8
0
10
-0.599291
20
0.626669
0
VERTEX
8
0
10
-0.623291
20
0.626669
0
VERTEX
8
0
10
-0.623291
20
0.697669
0
SEQEND
8
0
0
POLYLINE
8
0
66
1
70
1
40
0
41
0
0
VERTEX
8
0
10
-0.623291
20
0.418142
0
VERTEX
8
0
10
-0.599291
20
0.418142
0
VERTEX
8
0
10
-0.599291
20
0.347142
0
VERTEX
8
0
10
-0.623291
20
0.347142
0
VERTEX
8
0
10
-0.623291
20
0.418142
0
SEQEND
8
0
0
POLYLINE
8
0
66
1
70
1
40
0
41
0
0
VERTEX
8
0
10
-0.573291
20
0.418142
0
VERTEX
8
0
10
-0.549291
20
0.418142
0
VERTEX
8
0
10
-0.549291
20
0.347142
0
VERTEX
8
0
10
-0.573291
20
0.347142
0
VERTEX
8
0
10
-0.573291
20
0.418142
0
SEQEND
8
0
0
POLYLINE
8
0
66
1
70
1
40
0
41
0
0
VERTEX
8
0
10
-0.523291
20
0.418142
0
VERTEX
8
0
10
-0.499291
20
0.418142
0
VERTEX
8
0
10
-0.499291
20
0.347142
0
VERTEX
8
0
10
-0.523291
20
0.347142
0
VERTEX
8
0
10
-0.523291
20
0.418142
0
SEQEND
8
0
0
POLYLINE
8
0
66
1
70
1
40
0
41
0
0
VERTEX
8
0
10
-0.473291
20
0.418142
0
VERTEX
8
0
10
-0.449291
20
0.418142
0
VERTEX
8
0
10
-0.449291
20
0.347142
0
VERTEX
8
0
10
-0.473291
20
0.347142
0
VERTEX
8
0
10
-0.473291
20
0.418142
0
SEQEND
8
0
0
INSERT
8
0
2
EPAD
10
-0.479795
20
0.902327
41
0.100000
42
0.100000
0
INSERT
8
0
2
EPAD
10
-0.579795
20
0.902327
41
0.100000
42
0.100000
0
INSERT
8
0
2
EPAD
10
-0.956173
20
1.044059
41
0.180000
42
0.180000
0
INSERT
8
0
2
EPAD
10
0.969024
20
1.044059
41
0.180000
42
0.180000
0
INSERT
8
0
2
EPAD
10
0.961150
20
-1.018933
41
0.180000
42
0.180000
0
INSERT
8
0
2
EPAD
10
-0.964047
20
-1.042555
41
0.180000
42
0.180000
0
POLYLINE
8
0
66
1
40
0.008000
41
0.008000
0
VERTEX
8
0
10
-1.071228
20
-1.140980
0
VERTEX
8
0
10
1.071228
20
-1.140980
0
VERTEX
8
0
10
1.071228
20
1.140980
0
VERTEX
8
0
10
-1.071228
20
1.140980
0
VERTEX
8
0
10
-1.071228
20
-1.140980
0
SEQEND
8
0
0
CIRCLE
8
0
10
0.262591
20
-0.131098
40
0.004921
0
POLYLINE
8
0
66
1
40
0.007874
41
0.007874
0
VERTEX
8
0
10
-0.451976
20
-0.213776
0
VERTEX
8
0
10
-0.451976
20
-0.477555
0
VERTEX
8
0
10
0.260622
20
-0.477555
0
VERTEX
8
0
10
0.260622
20
-0.213776
0
VERTEX
8
0
10
-0.451976
20
-0.213776
0
SEQEND
8
0
0
CIRCLE
8
0
10
0.221252
20
-0.253146
40
0.011811
0
TEXT
8
0
10
0.074465
20
-0.305114
40
0.048000
41
1.041667
50
90.000000
1
U1
0
CIRCLE
8
0
10
0.051764
20
0.170083
40
0.004921
0
POLYLINE
8
0
66
1
40
0.007874
41
0.007874
0
VERTEX
8
0
10
0.095071
20
0.038193
0
VERTEX
8
0
10
0.118693
20
0.038193
0
VERTEX
8
0
10
0.118693
20
0.160240
0
VERTEX
8
0
10
0.095071
20
0.160240
0
VERTEX
8
0
10
0.095071
20
0.038193
0
SEQEND
8
0
0
TEXT
8
0
10
0.198614
20
0.071752
40
0.048000
41
1.041667
1
Q1
0
POLYLINE
8
0
66
1
40
0.008000
41
0.008000
0
VERTEX
8
0
10
0.348386
20
-0.193563
0
VERTEX
8
0
10
0.348386
20
-0.220563
0
SEQEND
8
0
0
POLYLINE
8
0
66
1
40
0.008000
41
0.008000
0
VERTEX
8
0
10
0.300386
20
-0.193563
0
VERTEX
8
0
10
0.300386
20
-0.221563
0
SEQEND
8
0
0
TEXT
8
0
10
0.406386
20
-0.256563
40
0.048000
41
1.041667
50
90.000000
1
R1
0
POLYLINE
8
0
66
1
40
0.008000
41
0.008000
0
VERTEX
8
0
10
0.070921
20
-0.019516
0
VERTEX
8
0
10
0.097921
20
-0.019516
0
SEQEND
8
0
0
POLYLINE
8
0
66
1
40
0.008000
41
0.008000
0
VERTEX
8
0
10
0.070921
20
-0.067516
0
VERTEX
8
0
10
0.098921
20
-0.067516
0
SEQEND
8
0
0
TEXT
8
0
10
0.155969
20
-0.068571
40
0.048000
41
1.041667
1
R2
0
POLYLINE
8
0
66
1
40
0.008000
41
0.008000
0
VERTEX
8
0
10
0.774087
20
-0.900161
0
VERTEX
8
0
10
0.747087
20
-0.900161
0
SEQEND
8
0
0
POLYLINE
8
0
66
1
40
0.008000
41
0.008000
0
VERTEX
8
0
10
0.774087
20
-0.852161
0
VERTEX
8
0
10
0.746087
20
-0.852161
0
SEQEND
8
0
0
TEXT
8
0
10
0.686087
20
-0.958161
40
0.048000
41
1.041667
1
R24
0
CIRCLE
8
0
10
0.494677
20
-0.810232
40
0.004921
0
POLYLINE
8
0
66
1
40
0.007874
41
0.007874
0
VERTEX
8
0
10
0.518299
20
-0.885035
0
VERTEX
8
0
10
0.471055
20
-0.885035
0
SEQEND
8
0
0
TEXT
8
0
10
0.576236
20
-0.925685
40
0.048000
41
1.041667
50
90.000000
1
D1
0
POLYLINE
8
0
66
1
40
0.008000
41
0.008000
0
VERTEX
8
0
10
0.561213
20
-0.835429
0
VERTEX
8
0
10
0.811213
20
-0.835429
0
VERTEX
8
0
10
0.811213
20
-0.335429
0
VERTEX
8
0
10
0.561213
20
-0.335429
0
VERTEX
8
0
10
0.561213
20
-0.835429
0
SEQEND
8
0
0
POLYLINE
8
0
66
1
40
0.008000
41
0.008000
0
VERTEX
8
0
10
0.611213
20
-0.835429
0
VERTEX
8
0
10
0.611213
20
-0.335429
0
SEQEND
8
0
0
TEXT
8
0
10
0.551213
20
-0.635429
40
0.048000
41
1.041667
50
90.000000
1
J2
0
POLYLINE
8
0
66
1
40
0.008000
41
0.008000
0
VERTEX
8
0
10
-0.287346
20
0.291508
0
VERTEX
8
0
10
-0.260346
20
0.291508
0
SEQEND
8
0
0
POLYLINE
8
0
66
1
40
0.008000
41
0.008000
0
VERTEX
8
0
10
-0.287346
20
0.243508
0
VERTEX
8
0
10
-0.259346
20
0.243508
0
SEQEND
8
0
0
TEXT
8
0
10
-0.410961
20
0.281823
40
0.048000
41
1.041667
1
C9
0
POLYLINE
8
0
66
1
40
0.008000
41
0.008000
0
VERTEX
8
0
10
-0.062409
20
0.026776
0
VERTEX
8
0
10
-0.362409
20
0.026776
0
VERTEX
8
0
10
-0.412409
20
0.076776
0
VERTEX
8
0
10
-0.412409
20
0.176776
0
VERTEX
8
0
10
-0.362409
20
0.226776
0
VERTEX
8
0
10
-0.062409
20
0.226776
0
VERTEX
8
0
10
-0.012409
20
0.176776
0
VERTEX
8
0
10
-0.012409
20
0.076776
0
VERTEX
8
0
10
-0.062409
20
0.026776
0
SEQEND
8
0
0
TEXT
8
0
10
-0.262409
20
-0.031224
40
0.048000
41
1.041667
1
X1
0
POLYLINE
8
0
66
1
40
0.008000
41
0.008000
0
VERTEX
8
0
10
-0.114118
20
0.291508
0
VERTEX
8
0
10
-0.087118
20
0.291508
0
SEQEND
8
0
0
POLYLINE
8
0
66
1
40
0.008000
41
0.008000
0
VERTEX
8
0
10
-0.114118
20
0.243508
0
VERTEX
8
0
10
-0.086118
20
0.243508
0
SEQEND
8
0
0
TEXT
8
0
10
-0.033008
20
0.242453
40
0.048000
41
1.041667
1
C8
0
CIRCLE
8
0
10
0.620661
20
-0.050390
40
0.242565
0
CIRCLE
8
0
10
0.620661
20
-0.050390
40
0.050418
0
TEXT
8
0
10
0.455307
20
0.054098
40
0.080000
41
1.125000
1
+
0
TEXT
8
0
10
0.784441
20
0.139183
40
0.048000
41
1.041667
1
BUZ1
0
POLYLINE
8
0
66
1
40
0.008000
41
0.008000
0
VERTEX
8
0
10
0.456803
20
-0.726925
0
VERTEX
8
0
10
0.456803
20
-0.696925
0
SEQEND
8
0
0
POLYLINE
8
0
66
1
40
0.008000
41
0.008000
0
VERTEX
8
0
10
0.516803
20
-0.726925
0
VERTEX
8
0
10
0.516803
20
-0.696925
0
SEQEND
8
0
0
POLYLINE
8
0
66
1
40
0.008000
41
0.008000
0
VERTEX
8
0
10
0.426803
20
-0.676925
0
VERTEX
8
0
10
0.426803
20
-0.656925
0
SEQEND
8
0
0
POLYLINE
8
0
66
1
40
0.008000
41
0.008000
0
VERTEX
8
0
10
0.416803
20
-0.666925
0
VERTEX
8
0
10
0.436803
20
-0.666925
0
SEQEND
8
0
0
TEXT
8
0
10
0.438299
20
-0.946965
40
0.048000
41
1.041667
50
90.000000
1
C3
0
POLYLINE
8
0
66
1
40
0.008000
41
0.008000
0
VERTEX
8
0
10
-0.173984
20
-0.607004
0
VERTEX
8
0
10
-0.143984
20
-0.607004
0
SEQEND
8
0
0
POLYLINE
8
0
66
1
40
0.008000
41
0.008000
0
VERTEX
8
0
10
-0.173984
20
-0.667004
0
VERTEX
8
0
10
-0.143984
20
-0.667004
0
SEQEND
8
0
0
POLYLINE
8
0
66
1
40
0.008000
41
0.008000
0
VERTEX
8
0
10
-0.123984
20
-0.577004
0
VERTEX
8
0
10
-0.103984
20
-0.577004
0
SEQEND
8
0
0
POLYLINE
8
0
66
1
40
0.008000
41
0.008000
0
VERTEX
8
0
10
-0.113984
20
-0.567004
0
VERTEX
8
0
10
-0.113984
20
-0.587004
0
SEQEND
8
0
0
TEXT
8
0
10
-0.358591
20
-0.643618
40
0.048000
41
1.041667
1
C2
0
TEXT
8
0
10
-0.228844
20
-0.752865
40
0.040000
41
1.000000
1
VCC TX RX GND
0
TEXT
8
0
10
0.895134
20
-0.892909
40
0.048000
41
0.833333
50
90.000000
1
GND VCC SCL SDA
0
TEXT
8
0
10
-0.986654
20
-0.541610
40
0.040000
41
1.000000
50
90.000000
1
www.jpinglobal.com
0
TEXT
8
0
10
0.740126
20
0.355248
40
0.048000
41
0.833333
1
Bogota
0
TEXT
8
0
10
0.662945
20
0.270720
40
0.048000
41
0.833333
1
Colombia
0
TEXT
8
0
10
-0.384425
20
1.037185
40
0.048000
41
0.833333
1
JUDAPIES
0
TEXT
8
0
10
0.346906
20
-1.032996
40
0.048000
41
0.833333
1
AUX_I2C
0
CIRCLE
8
0
10
-0.700047
20
0.109610
40
0.100000
0
POLYLINE
8
0
66
1
40
0.008000
41
0.008000
0
VERTEX
8
0
10
-0.775047
20
0.159610
0
VERTEX
8
0
10
-0.725047
20
0.159610
0
SEQEND
8
0
0
POLYLINE
8
0
66
1
40
0.008000
41
0.008000
0
VERTEX
8
0
10
-0.750047
20
0.184610
0
VERTEX
8
0
10
-0.750047
20
0.134610
0
SEQEND
8
0
0
TEXT
8
0
10
-0.750409
20
0.219610
40
0.048000
41
1.041667
1
C1
0
POLYLINE
8
0
66
1
40
0.008000
41
0.008000
0
VERTEX
8
0
10
0.997953
20
-0.013390
0
VERTEX
8
0
10
0.997953
20
-0.210390
0
SEQEND
8
0
0
POLYLINE
8
0
66
1
40
0.008000
41
0.008000
0
VERTEX
8
0
10
0.897953
20
-0.210390
0
VERTEX
8
0
10
0.897953
20
-0.013390
0
SEQEND
8
0
0
POLYLINE
8
0
66
1
40
0.008000
41
0.008000
0
VERTEX
8
0
10
0.997953
20
-0.134390
0
VERTEX
8
0
10
0.897953
20
-0.134390
0
SEQEND
8
0
0
TEXT
8
0
10
1.055953
20
-0.161390
40
0.048000
41
1.041667
50
90.000000
1
D4
0
POLYLINE
8
0
66
1
40
0.008000
41
0.008000
0
VERTEX
8
0
10
-0.842047
20
-1.029390
0
VERTEX
8
0
10
-0.592047
20
-1.029390
0
VERTEX
8
0
10
-0.592047
20
-0.529390
0
VERTEX
8
0
10
-0.842047
20
-0.529390
0
VERTEX
8
0
10
-0.842047
20
-1.029390
0
SEQEND
8
0
0
POLYLINE
8
0
66
1
40
0.008000
41
0.008000
0
VERTEX
8
0
10
-0.642047
20
-0.529390
0
VERTEX
8
0
10
-0.642047
20
-1.029390
0
SEQEND
8
0
0
TEXT
8
0
10
-0.534047
20
-0.829390
40
0.048000
41
1.041667
50
90.000000
1
J1
0
POLYLINE
8
0
66
1
40
0.008000
41
0.008000
0
VERTEX
8
0
10
-0.837047
20
-0.514390
0
VERTEX
8
0
10
-0.587047
20
-0.514390
0
VERTEX
8
0
10
-0.587047
20
-0.014390
0
VERTEX
8
0
10
-0.837047
20
-0.014390
0
VERTEX
8
0
10
-0.837047
20
-0.514390
0
SEQEND
8
0
0
POLYLINE
8
0
66
1
40
0.008000
41
0.008000
0
VERTEX
8
0
10
-0.787047
20
-0.514390
0
VERTEX
8
0
10
-0.787047
20
-0.014390
0
SEQEND
8
0
0
TEXT
8
0
10
-0.520276
20
-0.314390
40
0.048000
41
1.041667
50
90.000000
1
J3
0
POLYLINE
8
0
66
1
40
0.008000
41
0.008000
0
VERTEX
8
0
10
-0.232047
20
-1.017390
0
VERTEX
8
0
10
0.267953
20
-1.017390
0
VERTEX
8
0
10
0.267953
20
-0.767390
0
VERTEX
8
0
10
-0.232047
20
-0.767390
0
VERTEX
8
0
10
-0.232047
20
-1.017390
0
SEQEND
8
0
0
POLYLINE
8
0
66
1
40
0.008000
41
0.008000
0
VERTEX
8
0
10
-0.232047
20
-0.817390
0
VERTEX
8
0
10
0.267953
20
-0.817390
0
SEQEND
8
0
0
TEXT
8
0
10
-0.071417
20
-1.092035
40
0.048000
41
1.041667
1
J5
0
CIRCLE
8
0
10
0.295795
20
0.630673
40
0.452756
0
CIRCLE
8
0
10
0.291858
20
0.626736
40
0.323616
0
POLYLINE
8
0
66
1
40
0.008000
41
0.008000
0
VERTEX
8
0
10
0.724929
20
0.784217
0
VERTEX
8
0
10
0.961150
20
0.784217
0
SEQEND
8
0
0
POLYLINE
8
0
66
1
40
0.008000
41
0.008000
0
VERTEX
8
0
10
0.961150
20
0.469256
0
VERTEX
8
0
10
0.717055
20
0.469256
0
SEQEND
8
0
0
POLYLINE
8
0
66
1
40
0.008000
41
0.008000
0
VERTEX
8
0
10
0.961150
20
0.473193
0
VERTEX
8
0
10
0.961150
20
0.784217
0
SEQEND
8
0
0
TEXT
8
0
10
0.606622
20
0.991067
40
0.048000
41
1.041667
1
J19
0
CIRCLE
8
0
10
-0.428024
20
0.687760
40
0.004921
0
POLYLINE
8
0
66
1
40
0.007874
41
0.007874
0
VERTEX
8
0
10
-0.644559
20
0.612957
0
VERTEX
8
0
10
-0.644559
20
0.431854
0
VERTEX
8
0
10
-0.428024
20
0.431854
0
VERTEX
8
0
10
-0.428024
20
0.612957
0
VERTEX
8
0
10
-0.644559
20
0.612957
0
SEQEND
8
0
0
CIRCLE
8
0
10
-0.467394
20
0.573587
40
0.011811
0
TEXT
8
0
10
-0.364181
20
0.447406
40
0.048000
41
1.041667
50
90.000000
1
U13
0
CIRCLE
8
0
10
-0.529795
20
0.902327
40
0.100000
0
POLYLINE
8
0
66
1
40
0.008000
41
0.008000
0
VERTEX
8
0
10
-0.454795
20
0.852327
0
VERTEX
8
0
10
-0.504795
20
0.852327
0
SEQEND
8
0
0
POLYLINE
8
0
66
1
40
0.008000
41
0.008000
0
VERTEX
8
0
10
-0.479795
20
0.827327
0
VERTEX
8
0
10
-0.479795
20
0.877327
0
SEQEND
8
0
0
TEXT
8
0
10
-0.629433
20
0.744327
40
0.048000
41
1.041667
1
XTAL
0
TEXT
8
0
10
-0.452228
20
-0.979563
40
0.056000
41
0.892857
50
90.000000
1
DISPLAY
0
TEXT
8
0
10
-0.858866
20
-1.003185
40
0.048000
41
0.833333
50
90.000000
1
GND RX TX VCC
0
TEXT
8
0
10
-0.858866
20
-0.452004
40
0.048000
41
0.833333
50
90.000000
1
VCC D- D+ GND
0
TEXT
8
0
10
-0.511283
20
-0.164602
40
0.056000
41
0.892857
50
90.000000
1
USB
0
TEXT
8
0
10
-0.054598
20
-0.697791
40
0.040000
41
1.000000
1
IMPRESORA
0
POLYLINE
8
0
66
1
40
0.008000
41
0.008000
0
VERTEX
8
0
10
-1.071228
20
-1.140980
0
VERTEX
8
0
10
1.071228
20
-1.140980
0
VERTEX
8
0
10
1.071228
20
1.140980
0
VERTEX
8
0
10
-1.071228
20
1.140980
0
VERTEX
8
0
10
-1.071228
20
-1.140980
0
SEQEND
8
0
0
CIRCLE
8
0
10
0.262591
20
-0.131098
40
0.004921
0
POLYLINE
8
0
66
1
40
0.007874
41
0.007874
0
VERTEX
8
0
10
-0.451976
20
-0.213776
0
VERTEX
8
0
10
-0.451976
20
-0.477555
0
VERTEX
8
0
10
0.260622
20
-0.477555
0
VERTEX
8
0
10
0.260622
20
-0.213776
0
VERTEX
8
0
10
-0.451976
20
-0.213776
0
SEQEND
8
0
0
CIRCLE
8
0
10
0.221252
20
-0.253146
40
0.011811
0
TEXT
8
0
10
0.074465
20
-0.305114
40
0.048000
41
1.041667
50
90.000000
1
U1
0
CIRCLE
8
0
10
0.051764
20
0.170083
40
0.004921
0
POLYLINE
8
0
66
1
40
0.007874
41
0.007874
0
VERTEX
8
0
10
0.095071
20
0.038193
0
VERTEX
8
0
10
0.118693
20
0.038193
0
VERTEX
8
0
10
0.118693
20
0.160240
0
VERTEX
8
0
10
0.095071
20
0.160240
0
VERTEX
8
0
10
0.095071
20
0.038193
0
SEQEND
8
0
0
TEXT
8
0
10
0.198614
20
0.071752
40
0.048000
41
1.041667
1
Q1
0
POLYLINE
8
0
66
1
40
0.008000
41
0.008000
0
VERTEX
8
0
10
0.348386
20
-0.193563
0
VERTEX
8
0
10
0.348386
20
-0.220563
0
SEQEND
8
0
0
POLYLINE
8
0
66
1
40
0.008000
41
0.008000
0
VERTEX
8
0
10
0.300386
20
-0.193563
0
VERTEX
8
0
10
0.300386
20
-0.221563
0
SEQEND
8
0
0
TEXT
8
0
10
0.406386
20
-0.256563
40
0.048000
41
1.041667
50
90.000000
1
R1
0
POLYLINE
8
0
66
1
40
0.008000
41
0.008000
0
VERTEX
8
0
10
0.070921
20
-0.019516
0
VERTEX
8
0
10
0.097921
20
-0.019516
0
SEQEND
8
0
0
POLYLINE
8
0
66
1
40
0.008000
41
0.008000
0
VERTEX
8
0
10
0.070921
20
-0.067516
0
VERTEX
8
0
10
0.098921
20
-0.067516
0
SEQEND
8
0
0
TEXT
8
0
10
0.155969
20
-0.068571
40
0.048000
41
1.041667
1
R2
0
POLYLINE
8
0
66
1
40
0.008000
41
0.008000
0
VERTEX
8
0
10
0.774087
20
-0.900161
0
VERTEX
8
0
10
0.747087
20
-0.900161
0
SEQEND
8
0
0
POLYLINE
8
0
66
1
40
0.008000
41
0.008000
0
VERTEX
8
0
10
0.774087
20
-0.852161
0
VERTEX
8
0
10
0.746087
20
-0.852161
0
SEQEND
8
0
0
TEXT
8
0
10
0.686087
20
-0.958161
40
0.048000
41
1.041667
1
R24
0
CIRCLE
8
0
10
0.494677
20
-0.810232
40
0.004921
0
POLYLINE
8
0
66
1
40
0.007874
41
0.007874
0
VERTEX
8
0
10
0.518299
20
-0.885035
0
VERTEX
8
0
10
0.471055
20
-0.885035
0
SEQEND
8
0
0
TEXT
8
0
10
0.576236
20
-0.925685
40
0.048000
41
1.041667
50
90.000000
1
D1
0
POLYLINE
8
0
66
1
40
0.008000
41
0.008000
0
VERTEX
8
0
10
0.561213
20
-0.835429
0
VERTEX
8
0
10
0.811213
20
-0.835429
0
VERTEX
8
0
10
0.811213
20
-0.335429
0
VERTEX
8
0
10
0.561213
20
-0.335429
0
VERTEX
8
0
10
0.561213
20
-0.835429
0
SEQEND
8
0
0
POLYLINE
8
0
66
1
40
0.008000
41
0.008000
0
VERTEX
8
0
10
0.611213
20
-0.835429
0
VERTEX
8
0
10
0.611213
20
-0.335429
0
SEQEND
8
0
0
TEXT
8
0
10
0.551213
20
-0.635429
40
0.048000
41
1.041667
50
90.000000
1
J2
0
POLYLINE
8
0
66
1
40
0.008000
41
0.008000
0
VERTEX
8
0
10
-0.287346
20
0.291508
0
VERTEX
8
0
10
-0.260346
20
0.291508
0
SEQEND
8
0
0
POLYLINE
8
0
66
1
40
0.008000
41
0.008000
0
VERTEX
8
0
10
-0.287346
20
0.243508
0
VERTEX
8
0
10
-0.259346
20
0.243508
0
SEQEND
8
0
0
TEXT
8
0
10
-0.410961
20
0.281823
40
0.048000
41
1.041667
1
C9
0
POLYLINE
8
0
66
1
40
0.008000
41
0.008000
0
VERTEX
8
0
10
-0.062409
20
0.026776
0
VERTEX
8
0
10
-0.362409
20
0.026776
0
VERTEX
8
0
10
-0.412409
20
0.076776
0
VERTEX
8
0
10
-0.412409
20
0.176776
0
VERTEX
8
0
10
-0.362409
20
0.226776
0
VERTEX
8
0
10
-0.062409
20
0.226776
0
VERTEX
8
0
10
-0.012409
20
0.176776
0
VERTEX
8
0
10
-0.012409
20
0.076776
0
VERTEX
8
0
10
-0.062409
20
0.026776
0
SEQEND
8
0
0
TEXT
8
0
10
-0.262409
20
-0.031224
40
0.048000
41
1.041667
1
X1
0
POLYLINE
8
0
66
1
40
0.008000
41
0.008000
0
VERTEX
8
0
10
-0.114118
20
0.291508
0
VERTEX
8
0
10
-0.087118
20
0.291508
0
SEQEND
8
0
0
POLYLINE
8
0
66
1
40
0.008000
41
0.008000
0
VERTEX
8
0
10
-0.114118
20
0.243508
0
VERTEX
8
0
10
-0.086118
20
0.243508
0
SEQEND
8
0
0
TEXT
8
0
10
-0.033008
20
0.242453
40
0.048000
41
1.041667
1
C8
0
CIRCLE
8
0
10
0.620661
20
-0.050390
40
0.242565
0
CIRCLE
8
0
10
0.620661
20
-0.050390
40
0.050418
0
TEXT
8
0
10
0.455307
20
0.054098
40
0.080000
41
1.125000
1
+
0
TEXT
8
0
10
0.784441
20
0.139183
40
0.048000
41
1.041667
1
BUZ1
0
POLYLINE
8
0
66
1
40
0.008000
41
0.008000
0
VERTEX
8
0
10
0.456803
20
-0.726925
0
VERTEX
8
0
10
0.456803
20
-0.696925
0
SEQEND
8
0
0
POLYLINE
8
0
66
1
40
0.008000
41
0.008000
0
VERTEX
8
0
10
0.516803
20
-0.726925
0
VERTEX
8
0
10
0.516803
20
-0.696925
0
SEQEND
8
0
0
POLYLINE
8
0
66
1
40
0.008000
41
0.008000
0
VERTEX
8
0
10
0.426803
20
-0.676925
0
VERTEX
8
0
10
0.426803
20
-0.656925
0
SEQEND
8
0
0
POLYLINE
8
0
66
1
40
0.008000
41
0.008000
0
VERTEX
8
0
10
0.416803
20
-0.666925
0
VERTEX
8
0
10
0.436803
20
-0.666925
0
SEQEND
8
0
0
TEXT
8
0
10
0.438299
20
-0.946965
40
0.048000
41
1.041667
50
90.000000
1
C3
0
POLYLINE
8
0
66
1
40
0.008000
41
0.008000
0
VERTEX
8
0
10
-0.173984
20
-0.607004
0
VERTEX
8
0
10
-0.143984
20
-0.607004
0
SEQEND
8
0
0
POLYLINE
8
0
66
1
40
0.008000
41
0.008000
0
VERTEX
8
0
10
-0.173984
20
-0.667004
0
VERTEX
8
0
10
-0.143984
20
-0.667004
0
SEQEND
8
0
0
POLYLINE
8
0
66
1
40
0.008000
41
0.008000
0
VERTEX
8
0
10
-0.123984
20
-0.577004
0
VERTEX
8
0
10
-0.103984
20
-0.577004
0
SEQEND
8
0
0
POLYLINE
8
0
66
1
40
0.008000
41
0.008000
0
VERTEX
8
0
10
-0.113984
20
-0.567004
0
VERTEX
8
0
10
-0.113984
20
-0.587004
0
SEQEND
8
0
0
TEXT
8
0
10
-0.358591
20
-0.643618
40
0.048000
41
1.041667
1
C2
0
TEXT
8
0
10
-0.228844
20
-0.752865
40
0.040000
41
1.000000
1
VCC TX RX GND
0
TEXT
8
0
10
0.895134
20
-0.892909
40
0.048000
41
0.833333
50
90.000000
1
GND VCC SCL SDA
0
POLYLINE
8
0
66
1
40
0.000000
41
0.000000
0
VERTEX
8
0
10
-0.863980
20
0.277295
0
VERTEX
8
0
10
-0.863980
20
0.929264
0
VERTEX
8
0
10
-1.032484
20
0.929264
0
VERTEX
8
0
10
-1.032484
20
0.277295
0
VERTEX
8
0
10
-0.863980
20
0.277295
0
SEQEND
8
0
0
TEXT
8
0
10
-0.986654
20
-0.541610
40
0.040000
41
1.000000
50
90.000000
1
www.jpinglobal.com
0
TEXT
8
0
10
0.740126
20
0.355248
40
0.048000
41
0.833333
1
Bogota
0
TEXT
8
0
10
0.662945
20
0.270720
40
0.048000
41
0.833333
1
Colombia
0
TEXT
8
0
10
-0.384425
20
1.037185
40
0.048000
41
0.833333
1
JUDAPIES
0
TEXT
8
0
10
0.346906
20
-1.032996
40
0.048000
41
0.833333
1
AUX_I2C
0
CIRCLE
8
0
10
-0.700047
20
0.109610
40
0.100000
0
POLYLINE
8
0
66
1
40
0.008000
41
0.008000
0
VERTEX
8
0
10
-0.775047
20
0.159610
0
VERTEX
8
0
10
-0.725047
20
0.159610
0
SEQEND
8
0
0
POLYLINE
8
0
66
1
40
0.008000
41
0.008000
0
VERTEX
8
0
10
-0.750047
20
0.184610
0
VERTEX
8
0
10
-0.750047
20
0.134610
0
SEQEND
8
0
0
TEXT
8
0
10
-0.750409
20
0.219610
40
0.048000
41
1.041667
1
C1
0
POLYLINE
8
0
66
1
40
0.008000
41
0.008000
0
VERTEX
8
0
10
0.997953
20
-0.013390
0
VERTEX
8
0
10
0.997953
20
-0.210390
0
SEQEND
8
0
0
POLYLINE
8
0
66
1
40
0.008000
41
0.008000
0
VERTEX
8
0
10
0.897953
20
-0.210390
0
VERTEX
8
0
10
0.897953
20
-0.013390
0
SEQEND
8
0
0
POLYLINE
8
0
66
1
40
0.008000
41
0.008000
0
VERTEX
8
0
10
0.997953
20
-0.134390
0
VERTEX
8
0
10
0.897953
20
-0.134390
0
SEQEND
8
0
0
TEXT
8
0
10
1.055953
20
-0.161390
40
0.048000
41
1.041667
50
90.000000
1
D4
0
POLYLINE
8
0
66
1
40
0.008000
41
0.008000
0
VERTEX
8
0
10
-0.842047
20
-1.029390
0
VERTEX
8
0
10
-0.592047
20
-1.029390
0
VERTEX
8
0
10
-0.592047
20
-0.529390
0
VERTEX
8
0
10
-0.842047
20
-0.529390
0
VERTEX
8
0
10
-0.842047
20
-1.029390
0
SEQEND
8
0
0
POLYLINE
8
0
66
1
40
0.008000
41
0.008000
0
VERTEX
8
0
10
-0.642047
20
-0.529390
0
VERTEX
8
0
10
-0.642047
20
-1.029390
0
SEQEND
8
0
0
TEXT
8
0
10
-0.534047
20
-0.829390
40
0.048000
41
1.041667
50
90.000000
1
J1
0
POLYLINE
8
0
66
1
40
0.008000
41
0.008000
0
VERTEX
8
0
10
-0.837047
20
-0.514390
0
VERTEX
8
0
10
-0.587047
20
-0.514390
0
VERTEX
8
0
10
-0.587047
20
-0.014390
0
VERTEX
8
0
10
-0.837047
20
-0.014390
0
VERTEX
8
0
10
-0.837047
20
-0.514390
0
SEQEND
8
0
0
POLYLINE
8
0
66
1
40
0.008000
41
0.008000
0
VERTEX
8
0
10
-0.787047
20
-0.514390
0
VERTEX
8
0
10
-0.787047
20
-0.014390
0
SEQEND
8
0
0
TEXT
8
0
10
-0.520276
20
-0.314390
40
0.048000
41
1.041667
50
90.000000
1
J3
0
POLYLINE
8
0
66
1
40
0.008000
41
0.008000
0
VERTEX
8
0
10
-0.232047
20
-1.017390
0
VERTEX
8
0
10
0.267953
20
-1.017390
0
VERTEX
8
0
10
0.267953
20
-0.767390
0
VERTEX
8
0
10
-0.232047
20
-0.767390
0
VERTEX
8
0
10
-0.232047
20
-1.017390
0
SEQEND
8
0
0
POLYLINE
8
0
66
1
40
0.008000
41
0.008000
0
VERTEX
8
0
10
-0.232047
20
-0.817390
0
VERTEX
8
0
10
0.267953
20
-0.817390
0
SEQEND
8
0
0
TEXT
8
0
10
-0.071417
20
-1.092035
40
0.048000
41
1.041667
1
J5
0
CIRCLE
8
0
10
0.295795
20
0.630673
40
0.452756
0
CIRCLE
8
0
10
0.291858
20
0.626736
40
0.323616
0
POLYLINE
8
0
66
1
40
0.008000
41
0.008000
0
VERTEX
8
0
10
0.724929
20
0.784217
0
VERTEX
8
0
10
0.961150
20
0.784217
0
SEQEND
8
0
0
POLYLINE
8
0
66
1
40
0.008000
41
0.008000
0
VERTEX
8
0
10
0.961150
20
0.469256
0
VERTEX
8
0
10
0.717055
20
0.469256
0
SEQEND
8
0
0
POLYLINE
8
0
66
1
40
0.008000
41
0.008000
0
VERTEX
8
0
10
0.961150
20
0.473193
0
VERTEX
8
0
10
0.961150
20
0.784217
0
SEQEND
8
0
0
TEXT
8
0
10
0.606622
20
0.991067
40
0.048000
41
1.041667
1
J19
0
CIRCLE
8
0
10
-0.428024
20
0.687760
40
0.004921
0
POLYLINE
8
0
66
1
40
0.007874
41
0.007874
0
VERTEX
8
0
10
-0.644559
20
0.612957
0
VERTEX
8
0
10
-0.644559
20
0.431854
0
VERTEX
8
0
10
-0.428024
20
0.431854
0
VERTEX
8
0
10
-0.428024
20
0.612957
0
VERTEX
8
0
10
-0.644559
20
0.612957
0
SEQEND
8
0
0
CIRCLE
8
0
10
-0.467394
20
0.573587
40
0.011811
0
TEXT
8
0
10
-0.364181
20
0.447406
40
0.048000
41
1.041667
50
90.000000
1
U13
0
CIRCLE
8
0
10
-0.529795
20
0.902327
40
0.100000
0
POLYLINE
8
0
66
1
40
0.008000
41
0.008000
0
VERTEX
8
0
10
-0.454795
20
0.852327
0
VERTEX
8
0
10
-0.504795
20
0.852327
0
SEQEND
8
0
0
POLYLINE
8
0
66
1
40
0.008000
41
0.008000
0
VERTEX
8
0
10
-0.479795
20
0.827327
0
VERTEX
8
0
10
-0.479795
20
0.877327
0
SEQEND
8
0
0
TEXT
8
0
10
-0.629433
20
0.744327
40
0.048000
41
1.041667
1
XTAL
0
TEXT
8
0
10
-0.452228
20
-0.979563
40
0.056000
41
0.892857
50
90.000000
1
DISPLAY
0
TEXT
8
0
10
-0.858866
20
-1.003185
40
0.048000
41
0.833333
50
90.000000
1
GND RX TX VCC
0
TEXT
8
0
10
-0.858866
20
-0.452004
40
0.048000
41
0.833333
50
90.000000
1
VCC D- D+ GND
0
TEXT
8
0
10
-0.511283
20
-0.164602
40
0.056000
41
0.892857
50
90.000000
1
USB
0
TEXT
8
0
10
-0.054598
20
-0.697791
40
0.040000
41
1.000000
1
IMPRESORA
0
ENDSEC
0
EOF

