  0
SECTION
  2
HEADER
  9
$ACADVER
  1
AC1009
  9
$INSUNITS
 70
     1
  0
ENDSEC
  0
SECTION
  2
TABLES
  0
TABLE
  2
LAYER
 70
     8
  0
LAYER
  2
0
 62
     7
 70
0
  6
CONTINUOUS
  0
LAYER
  2
1
 62
     1
 70
0
  6
CONTINUOUS
  0
LAYER
  2
2
 62
     2
 70
0
  6
CONTINUOUS
  0
LAYER
  2
3
 62
     3
 70
0
  6
CONTINUOUS
  0
LAYER
  2
4
 62
     4
 70
0
  6
CONTINUOUS
  0
LAYER
  2
5
 62
     5
 70
0
  6
CONTINUOUS
  0
LAYER
  2
6
 62
     6
 70
0
  6
CONTINUOUS
  0
LAYER
  2
7
 62
     7
 70
0
  6
CONTINUOUS
  0
ENDTAB
  0
TABLE
  2
STYLE
 70
     1
  0
STYLE
 70
     0
  2
STANDARD
  3
TXT
 40
0.00
 41
1.00
 42
1.00
 50
0.00
 71
     0
  0
ENDTAB
  0
ENDSEC
  0
SECTION
  2
BLOCKS
  0
BLOCK
  8
0
  2
EPAD
 70
0
 10
0.0
 20
0.0
  0
POLYLINE
  8
0
 66
1
 70
1
 40
0.5
 41
0.5
  0
VERTEX
  8
0
 10
-0.25
 20
0.0
 42
1.0
  0
VERTEX
  8
0
 10
0.25
 20
0.0
 42
1.0
  0
SEQEND
  8
0
  0
ENDBLK
  8
0
  0
BLOCK
  8
0
  2
RPAD
 70
0
 10
0.0
 20
0.0
  0
TRACE
  8
0
 10
-0.5
 20
-0.5
 11
-0.5
 21
0.5
 12
0.5
 22
-0.5
 13
0.5
 23
0.5
  0
ENDBLK
  8
0
  0
ENDSEC
0
SECTION
2
ENTITIES
0
INSERT
8
0
2
RPAD
10
-0.197126
20
0.212598
41
0.024000
42
0.079000
50
0.000000
0
INSERT
8
0
2
RPAD
10
-0.247126
20
0.212598
41
0.024000
42
0.079000
50
0.000000
0
INSERT
8
0
2
RPAD
10
-0.297126
20
0.212598
41
0.024000
42
0.079000
50
0.000000
0
INSERT
8
0
2
RPAD
10
-0.347126
20
0.212598
41
0.024000
42
0.079000
50
0.000000
0
INSERT
8
0
2
RPAD
10
-0.397126
20
0.212598
41
0.024000
42
0.079000
50
0.000000
0
INSERT
8
0
2
RPAD
10
-0.447126
20
0.212598
41
0.024000
42
0.079000
50
0.000000
0
INSERT
8
0
2
RPAD
10
-0.497126
20
0.212598
41
0.024000
42
0.079000
50
0.000000
0
INSERT
8
0
2
RPAD
10
-0.547126
20
0.212598
41
0.024000
42
0.079000
50
0.000000
0
INSERT
8
0
2
RPAD
10
-0.597126
20
0.212598
41
0.024000
42
0.079000
50
0.000000
0
INSERT
8
0
2
RPAD
10
-0.647126
20
0.212598
41
0.024000
42
0.079000
50
0.000000
0
INSERT
8
0
2
RPAD
10
-0.697126
20
0.212598
41
0.024000
42
0.079000
50
0.000000
0
INSERT
8
0
2
RPAD
10
-0.747126
20
0.212598
41
0.024000
42
0.079000
50
0.000000
0
INSERT
8
0
2
RPAD
10
-0.797126
20
0.212598
41
0.024000
42
0.079000
50
0.000000
0
INSERT
8
0
2
RPAD
10
-0.847126
20
0.212598
41
0.024000
42
0.079000
50
0.000000
0
INSERT
8
0
2
RPAD
10
-0.847126
20
-0.157480
41
0.024000
42
0.079000
50
0.000000
0
INSERT
8
0
2
RPAD
10
-0.797126
20
-0.157480
41
0.024000
42
0.079000
50
0.000000
0
INSERT
8
0
2
RPAD
10
-0.747126
20
-0.157480
41
0.024000
42
0.079000
50
0.000000
0
INSERT
8
0
2
RPAD
10
-0.697126
20
-0.157480
41
0.024000
42
0.079000
50
0.000000
0
INSERT
8
0
2
RPAD
10
-0.647126
20
-0.157480
41
0.024000
42
0.079000
50
0.000000
0
INSERT
8
0
2
RPAD
10
-0.597126
20
-0.157480
41
0.024000
42
0.079000
50
0.000000
0
INSERT
8
0
2
RPAD
10
-0.547126
20
-0.157480
41
0.024000
42
0.079000
50
0.000000
0
INSERT
8
0
2
RPAD
10
-0.497126
20
-0.157480
41
0.024000
42
0.079000
50
0.000000
0
INSERT
8
0
2
RPAD
10
-0.447126
20
-0.157480
41
0.024000
42
0.079000
50
0.000000
0
INSERT
8
0
2
RPAD
10
-0.397126
20
-0.157480
41
0.024000
42
0.079000
50
0.000000
0
INSERT
8
0
2
RPAD
10
-0.347126
20
-0.157480
41
0.024000
42
0.079000
50
0.000000
0
INSERT
8
0
2
RPAD
10
-0.297126
20
-0.157480
41
0.024000
42
0.079000
50
0.000000
0
INSERT
8
0
2
RPAD
10
-0.247126
20
-0.157480
41
0.024000
42
0.079000
50
0.000000
0
INSERT
8
0
2
RPAD
10
-0.197126
20
-0.157480
41
0.024000
42
0.079000
50
0.000000
0
INSERT
8
0
2
RPAD
10
-0.364843
20
0.509843
41
0.024000
42
0.037000
50
90.000000
0
INSERT
8
0
2
RPAD
10
-0.364843
20
0.435039
41
0.024000
42
0.037000
50
90.000000
0
INSERT
8
0
2
RPAD
10
-0.274291
20
0.472441
41
0.024000
42
0.037000
50
90.000000
0
INSERT
8
0
2
RPAD
10
-0.101063
20
0.208661
41
0.040000
42
0.050000
50
-90.000000
0
INSERT
8
0
2
RPAD
10
-0.101063
20
0.124661
41
0.040000
42
0.050000
50
-90.000000
0
INSERT
8
0
2
RPAD
10
-0.384528
20
0.330709
41
0.040000
42
0.050000
50
0.000000
0
INSERT
8
0
2
RPAD
10
-0.300528
20
0.330709
41
0.040000
42
0.050000
50
0.000000
0
INSERT
8
0
2
RPAD
10
0.376638
20
-0.503937
41
0.040000
42
0.050000
50
180.000000
0
INSERT
8
0
2
RPAD
10
0.292638
20
-0.503937
41
0.040000
42
0.050000
50
180.000000
0
INSERT
8
0
2
RPAD
10
0.068228
20
-0.547244
41
0.039000
42
0.055000
50
-90.000000
0
INSERT
8
0
2
RPAD
10
0.068228
20
-0.476378
41
0.039000
42
0.055000
50
-90.000000
0
INSERT
8
0
2
RPAD
10
-0.805787
20
0.519685
41
0.040000
42
0.050000
50
0.000000
0
INSERT
8
0
2
RPAD
10
-0.721787
20
0.519685
41
0.040000
42
0.050000
50
0.000000
0
INSERT
8
0
2
RPAD
10
-0.632559
20
0.519685
41
0.040000
42
0.050000
50
0.000000
0
INSERT
8
0
2
RPAD
10
-0.548559
20
0.519685
41
0.040000
42
0.050000
50
0.000000
0
INSERT
8
0
2
RPAD
10
0.060354
20
-0.283701
41
0.060000
42
0.080000
50
90.000000
0
INSERT
8
0
2
RPAD
10
0.060354
20
-0.393701
41
0.060000
42
0.080000
50
90.000000
0
INSERT
8
0
2
RPAD
10
-0.530433
20
-0.263780
41
0.060000
42
0.080000
50
0.000000
0
INSERT
8
0
2
RPAD
10
-0.640433
20
-0.263780
41
0.060000
42
0.080000
50
0.000000
0
POLYLINE
8
0
66
1
40
0.008000
41
0.008000
0
VERTEX
8
0
10
-0.908150
20
-0.598425
0
VERTEX
8
0
10
0.907189
20
-0.598425
0
VERTEX
8
0
10
0.907189
20
0.598425
0
VERTEX
8
0
10
-0.908150
20
0.598425
0
VERTEX
8
0
10
-0.908150
20
-0.598425
0
SEQEND
8
0
0
CIRCLE
8
0
10
-0.163858
20
0.242126
40
0.004921
0
POLYLINE
8
0
66
1
40
0.007874
41
0.007874
0
VERTEX
8
0
10
-0.878425
20
0.159449
0
VERTEX
8
0
10
-0.878425
20
-0.104331
0
VERTEX
8
0
10
-0.165827
20
-0.104331
0
VERTEX
8
0
10
-0.165827
20
0.159449
0
VERTEX
8
0
10
-0.878425
20
0.159449
0
SEQEND
8
0
0
CIRCLE
8
0
10
-0.205197
20
0.120079
40
0.011811
0
TEXT
8
0
10
-0.351984
20
0.068110
40
0.048000
41
1.041667
50
90.000000
1
U1
0
POLYLINE
8
0
66
1
40
0.008000
41
0.008000
0
VERTEX
8
0
10
-0.508150
20
-0.540945
0
VERTEX
8
0
10
-0.108150
20
-0.540945
0
VERTEX
8
0
10
-0.108150
20
-0.290945
0
VERTEX
8
0
10
-0.508150
20
-0.290945
0
VERTEX
8
0
10
-0.508150
20
-0.540945
0
SEQEND
8
0
0
POLYLINE
8
0
66
1
40
0.008000
41
0.008000
0
VERTEX
8
0
10
-0.508150
20
-0.340945
0
VERTEX
8
0
10
-0.108150
20
-0.340945
0
SEQEND
8
0
0
TEXT
8
0
10
-0.665236
20
-0.418740
40
0.048000
41
1.041667
1
J3
0
CIRCLE
8
0
10
-0.374685
20
0.543307
40
0.004921
0
POLYLINE
8
0
66
1
40
0.007874
41
0.007874
0
VERTEX
8
0
10
-0.331378
20
0.411417
0
VERTEX
8
0
10
-0.307756
20
0.411417
0
VERTEX
8
0
10
-0.307756
20
0.533465
0
VERTEX
8
0
10
-0.331378
20
0.533465
0
VERTEX
8
0
10
-0.331378
20
0.411417
0
SEQEND
8
0
0
TEXT
8
0
10
-0.227835
20
0.444976
40
0.048000
41
1.041667
1
Q1
0
POLYLINE
8
0
66
1
40
0.008000
41
0.008000
0
VERTEX
8
0
10
-0.078063
20
0.179661
0
VERTEX
8
0
10
-0.078063
20
0.152661
0
SEQEND
8
0
0
POLYLINE
8
0
66
1
40
0.008000
41
0.008000
0
VERTEX
8
0
10
-0.126063
20
0.179661
0
VERTEX
8
0
10
-0.126063
20
0.151661
0
SEQEND
8
0
0
TEXT
8
0
10
-0.020063
20
0.116661
40
0.048000
41
1.041667
50
90.000000
1
R1
0
POLYLINE
8
0
66
1
40
0.008000
41
0.008000
0
VERTEX
8
0
10
-0.355528
20
0.353709
0
VERTEX
8
0
10
-0.328528
20
0.353709
0
SEQEND
8
0
0
POLYLINE
8
0
66
1
40
0.008000
41
0.008000
0
VERTEX
8
0
10
-0.355528
20
0.305709
0
VERTEX
8
0
10
-0.327528
20
0.305709
0
SEQEND
8
0
0
TEXT
8
0
10
-0.270480
20
0.304654
40
0.048000
41
1.041667
1
R2
0
POLYLINE
8
0
66
1
40
0.008000
41
0.008000
0
VERTEX
8
0
10
0.347638
20
-0.526937
0
VERTEX
8
0
10
0.320638
20
-0.526937
0
SEQEND
8
0
0
POLYLINE
8
0
66
1
40
0.008000
41
0.008000
0
VERTEX
8
0
10
0.347638
20
-0.478937
0
VERTEX
8
0
10
0.319638
20
-0.478937
0
SEQEND
8
0
0
TEXT
8
0
10
0.259638
20
-0.584937
40
0.048000
41
1.041667
1
R24
0
CIRCLE
8
0
10
0.068228
20
-0.437008
40
0.004921
0
POLYLINE
8
0
66
1
40
0.007874
41
0.007874
0
VERTEX
8
0
10
0.091850
20
-0.511811
0
VERTEX
8
0
10
0.044606
20
-0.511811
0
SEQEND
8
0
0
TEXT
8
0
10
0.149787
20
-0.552461
40
0.048000
41
1.041667
50
90.000000
1
D1
0
POLYLINE
8
0
66
1
40
0.008000
41
0.008000
0
VERTEX
8
0
10
0.134764
20
-0.462205
0
VERTEX
8
0
10
0.384764
20
-0.462205
0
VERTEX
8
0
10
0.384764
20
0.037795
0
VERTEX
8
0
10
0.134764
20
0.037795
0
VERTEX
8
0
10
0.134764
20
-0.462205
0
SEQEND
8
0
0
POLYLINE
8
0
66
1
40
0.008000
41
0.008000
0
VERTEX
8
0
10
0.184764
20
-0.462205
0
VERTEX
8
0
10
0.184764
20
0.037795
0
SEQEND
8
0
0
TEXT
8
0
10
0.124764
20
-0.262205
40
0.048000
41
1.041667
50
90.000000
1
J2
0
POLYLINE
8
0
66
1
40
0.008000
41
0.008000
0
VERTEX
8
0
10
-0.776787
20
0.542685
0
VERTEX
8
0
10
-0.749787
20
0.542685
0
SEQEND
8
0
0
POLYLINE
8
0
66
1
40
0.008000
41
0.008000
0
VERTEX
8
0
10
-0.776787
20
0.494685
0
VERTEX
8
0
10
-0.748787
20
0.494685
0
SEQEND
8
0
0
TEXT
8
0
10
-0.900402
20
0.533000
40
0.048000
41
1.041667
1
C9
0
POLYLINE
8
0
66
1
40
0.008000
41
0.008000
0
VERTEX
8
0
10
-0.551850
20
0.277953
0
VERTEX
8
0
10
-0.851850
20
0.277953
0
VERTEX
8
0
10
-0.901850
20
0.327953
0
VERTEX
8
0
10
-0.901850
20
0.427953
0
VERTEX
8
0
10
-0.851850
20
0.477953
0
VERTEX
8
0
10
-0.551850
20
0.477953
0
VERTEX
8
0
10
-0.501850
20
0.427953
0
VERTEX
8
0
10
-0.501850
20
0.327953
0
VERTEX
8
0
10
-0.551850
20
0.277953
0
SEQEND
8
0
0
TEXT
8
0
10
-0.751850
20
0.219953
40
0.048000
41
1.041667
1
X1
0
POLYLINE
8
0
66
1
40
0.008000
41
0.008000
0
VERTEX
8
0
10
-0.603559
20
0.542685
0
VERTEX
8
0
10
-0.576559
20
0.542685
0
SEQEND
8
0
0
POLYLINE
8
0
66
1
40
0.008000
41
0.008000
0
VERTEX
8
0
10
-0.603559
20
0.494685
0
VERTEX
8
0
10
-0.575559
20
0.494685
0
SEQEND
8
0
0
TEXT
8
0
10
-0.522449
20
0.493630
40
0.048000
41
1.041667
1
C8
0
CIRCLE
8
0
10
0.194213
20
0.322835
40
0.242565
0
CIRCLE
8
0
10
0.194213
20
0.322835
40
0.050418
0
TEXT
8
0
10
0.028858
20
0.427323
40
0.080000
41
1.125000
1
+
0
TEXT
8
0
10
-0.161693
20
0.512408
40
0.048000
41
1.041667
1
BUZ1
0
POLYLINE
8
0
66
1
40
0.008000
41
0.008000
0
VERTEX
8
0
10
0.030354
20
-0.353701
0
VERTEX
8
0
10
0.030354
20
-0.323701
0
SEQEND
8
0
0
POLYLINE
8
0
66
1
40
0.008000
41
0.008000
0
VERTEX
8
0
10
0.090354
20
-0.353701
0
VERTEX
8
0
10
0.090354
20
-0.323701
0
SEQEND
8
0
0
POLYLINE
8
0
66
1
40
0.008000
41
0.008000
0
VERTEX
8
0
10
0.000354
20
-0.303701
0
VERTEX
8
0
10
0.000354
20
-0.283701
0
SEQEND
8
0
0
POLYLINE
8
0
66
1
40
0.008000
41
0.008000
0
VERTEX
8
0
10
-0.009646
20
-0.293701
0
VERTEX
8
0
10
0.010354
20
-0.293701
0
SEQEND
8
0
0
TEXT
8
0
10
0.011850
20
-0.573740
40
0.048000
41
1.041667
50
90.000000
1
C3
0
POLYLINE
8
0
66
1
40
0.008000
41
0.008000
0
VERTEX
8
0
10
-0.600433
20
-0.233780
0
VERTEX
8
0
10
-0.570433
20
-0.233780
0
SEQEND
8
0
0
POLYLINE
8
0
66
1
40
0.008000
41
0.008000
0
VERTEX
8
0
10
-0.600433
20
-0.293780
0
VERTEX
8
0
10
-0.570433
20
-0.293780
0
SEQEND
8
0
0
POLYLINE
8
0
66
1
40
0.008000
41
0.008000
0
VERTEX
8
0
10
-0.550433
20
-0.203780
0
VERTEX
8
0
10
-0.530433
20
-0.203780
0
SEQEND
8
0
0
POLYLINE
8
0
66
1
40
0.008000
41
0.008000
0
VERTEX
8
0
10
-0.540433
20
-0.193780
0
VERTEX
8
0
10
-0.540433
20
-0.213780
0
SEQEND
8
0
0
TEXT
8
0
10
-0.785039
20
-0.270394
40
0.048000
41
1.041667
1
C2
0
POLYLINE
8
0
66
1
40
0.008000
41
0.008000
0
VERTEX
8
0
10
0.648150
20
-0.368110
0
VERTEX
8
0
10
0.848150
20
-0.368110
0
VERTEX
8
0
10
0.848150
20
0.431890
0
VERTEX
8
0
10
0.648150
20
0.431890
0
VERTEX
8
0
10
0.648150
20
-0.368110
0
SEQEND
8
0
0
TEXT
8
0
10
0.906150
20
-0.018110
40
0.048000
41
1.041667
50
90.000000
1
J1
0
TEXT
8
0
10
-0.447520
20
-0.284265
40
0.040000
41
0.750000
1
TX RX GND
0
TEXT
8
0
10
0.468685
20
-0.519685
40
0.048000
41
0.833333
50
90.000000
1
GND VCC SCL SDA
0
TEXT
8
0
10
-0.896339
20
-0.584370
40
0.040000
41
1.000000
1
www.jpinglobal.com
0
TEXT
8
0
10
-0.888465
20
-0.459512
40
0.048000
41
0.833333
1
Bogota
0
TEXT
8
0
10
-0.892402
20
-0.534315
40
0.048000
41
0.833333
1
Colombia
0
TEXT
8
0
10
0.536732
20
-0.565811
40
0.048000
41
0.833333
1
JUDAPIES
0
TEXT
8
0
10
0.418622
20
0.524740
40
0.048000
41
0.833333
1
CH376S_I2C
0
INSERT
8
0
2
EPAD
10
-0.050274
20
-0.154545
41
0.090000
42
0.090000
0
INSERT
8
0
2
EPAD
10
-0.053537
20
-0.245899
41
0.090000
42
0.090000
0
INSERT
8
0
2
EPAD
10
-0.109001
20
0.294068
41
0.090000
42
0.090000
0
INSERT
8
0
2
EPAD
10
0.056417
20
-0.153543
41
0.090000
42
0.090000
0
INSERT
8
0
2
EPAD
10
-0.053150
20
-0.335735
41
0.090000
42
0.090000
0
POLYLINE
8
0
66
1
70
1
40
0
41
0
0
VERTEX
8
0
10
-0.209126
20
0.252098
0
VERTEX
8
0
10
-0.185126
20
0.252098
0
VERTEX
8
0
10
-0.185126
20
0.173098
0
VERTEX
8
0
10
-0.209126
20
0.173098
0
VERTEX
8
0
10
-0.209126
20
0.252098
0
SEQEND
8
0
0
POLYLINE
8
0
66
1
70
1
40
0
41
0
0
VERTEX
8
0
10
-0.259126
20
0.252098
0
VERTEX
8
0
10
-0.235126
20
0.252098
0
VERTEX
8
0
10
-0.235126
20
0.173098
0
VERTEX
8
0
10
-0.259126
20
0.173098
0
VERTEX
8
0
10
-0.259126
20
0.252098
0
SEQEND
8
0
0
POLYLINE
8
0
66
1
70
1
40
0
41
0
0
VERTEX
8
0
10
-0.309126
20
0.252098
0
VERTEX
8
0
10
-0.285126
20
0.252098
0
VERTEX
8
0
10
-0.285126
20
0.173098
0
VERTEX
8
0
10
-0.309126
20
0.173098
0
VERTEX
8
0
10
-0.309126
20
0.252098
0
SEQEND
8
0
0
POLYLINE
8
0
66
1
70
1
40
0
41
0
0
VERTEX
8
0
10
-0.359126
20
0.252098
0
VERTEX
8
0
10
-0.335126
20
0.252098
0
VERTEX
8
0
10
-0.335126
20
0.173098
0
VERTEX
8
0
10
-0.359126
20
0.173098
0
VERTEX
8
0
10
-0.359126
20
0.252098
0
SEQEND
8
0
0
POLYLINE
8
0
66
1
70
1
40
0
41
0
0
VERTEX
8
0
10
-0.409126
20
0.252098
0
VERTEX
8
0
10
-0.385126
20
0.252098
0
VERTEX
8
0
10
-0.385126
20
0.173098
0
VERTEX
8
0
10
-0.409126
20
0.173098
0
VERTEX
8
0
10
-0.409126
20
0.252098
0
SEQEND
8
0
0
POLYLINE
8
0
66
1
70
1
40
0
41
0
0
VERTEX
8
0
10
-0.459126
20
0.252098
0
VERTEX
8
0
10
-0.435126
20
0.252098
0
VERTEX
8
0
10
-0.435126
20
0.173098
0
VERTEX
8
0
10
-0.459126
20
0.173098
0
VERTEX
8
0
10
-0.459126
20
0.252098
0
SEQEND
8
0
0
POLYLINE
8
0
66
1
70
1
40
0
41
0
0
VERTEX
8
0
10
-0.509126
20
0.252098
0
VERTEX
8
0
10
-0.485126
20
0.252098
0
VERTEX
8
0
10
-0.485126
20
0.173098
0
VERTEX
8
0
10
-0.509126
20
0.173098
0
VERTEX
8
0
10
-0.509126
20
0.252098
0
SEQEND
8
0
0
POLYLINE
8
0
66
1
70
1
40
0
41
0
0
VERTEX
8
0
10
-0.559126
20
0.252098
0
VERTEX
8
0
10
-0.535126
20
0.252098
0
VERTEX
8
0
10
-0.535126
20
0.173098
0
VERTEX
8
0
10
-0.559126
20
0.173098
0
VERTEX
8
0
10
-0.559126
20
0.252098
0
SEQEND
8
0
0
POLYLINE
8
0
66
1
70
1
40
0
41
0
0
VERTEX
8
0
10
-0.609126
20
0.252098
0
VERTEX
8
0
10
-0.585126
20
0.252098
0
VERTEX
8
0
10
-0.585126
20
0.173098
0
VERTEX
8
0
10
-0.609126
20
0.173098
0
VERTEX
8
0
10
-0.609126
20
0.252098
0
SEQEND
8
0
0
POLYLINE
8
0
66
1
70
1
40
0
41
0
0
VERTEX
8
0
10
-0.659126
20
0.252098
0
VERTEX
8
0
10
-0.635126
20
0.252098
0
VERTEX
8
0
10
-0.635126
20
0.173098
0
VERTEX
8
0
10
-0.659126
20
0.173098
0
VERTEX
8
0
10
-0.659126
20
0.252098
0
SEQEND
8
0
0
POLYLINE
8
0
66
1
70
1
40
0
41
0
0
VERTEX
8
0
10
-0.709126
20
0.252098
0
VERTEX
8
0
10
-0.685126
20
0.252098
0
VERTEX
8
0
10
-0.685126
20
0.173098
0
VERTEX
8
0
10
-0.709126
20
0.173098
0
VERTEX
8
0
10
-0.709126
20
0.252098
0
SEQEND
8
0
0
POLYLINE
8
0
66
1
70
1
40
0
41
0
0
VERTEX
8
0
10
-0.759126
20
0.252098
0
VERTEX
8
0
10
-0.735126
20
0.252098
0
VERTEX
8
0
10
-0.735126
20
0.173098
0
VERTEX
8
0
10
-0.759126
20
0.173098
0
VERTEX
8
0
10
-0.759126
20
0.252098
0
SEQEND
8
0
0
POLYLINE
8
0
66
1
70
1
40
0
41
0
0
VERTEX
8
0
10
-0.809126
20
0.252098
0
VERTEX
8
0
10
-0.785126
20
0.252098
0
VERTEX
8
0
10
-0.785126
20
0.173098
0
VERTEX
8
0
10
-0.809126
20
0.173098
0
VERTEX
8
0
10
-0.809126
20
0.252098
0
SEQEND
8
0
0
POLYLINE
8
0
66
1
70
1
40
0
41
0
0
VERTEX
8
0
10
-0.859126
20
0.252098
0
VERTEX
8
0
10
-0.835126
20
0.252098
0
VERTEX
8
0
10
-0.835126
20
0.173098
0
VERTEX
8
0
10
-0.859126
20
0.173098
0
VERTEX
8
0
10
-0.859126
20
0.252098
0
SEQEND
8
0
0
POLYLINE
8
0
66
1
70
1
40
0
41
0
0
VERTEX
8
0
10
-0.859126
20
-0.117980
0
VERTEX
8
0
10
-0.835126
20
-0.117980
0
VERTEX
8
0
10
-0.835126
20
-0.196980
0
VERTEX
8
0
10
-0.859126
20
-0.196980
0
VERTEX
8
0
10
-0.859126
20
-0.117980
0
SEQEND
8
0
0
POLYLINE
8
0
66
1
70
1
40
0
41
0
0
VERTEX
8
0
10
-0.809126
20
-0.117980
0
VERTEX
8
0
10
-0.785126
20
-0.117980
0
VERTEX
8
0
10
-0.785126
20
-0.196980
0
VERTEX
8
0
10
-0.809126
20
-0.196980
0
VERTEX
8
0
10
-0.809126
20
-0.117980
0
SEQEND
8
0
0
POLYLINE
8
0
66
1
70
1
40
0
41
0
0
VERTEX
8
0
10
-0.759126
20
-0.117980
0
VERTEX
8
0
10
-0.735126
20
-0.117980
0
VERTEX
8
0
10
-0.735126
20
-0.196980
0
VERTEX
8
0
10
-0.759126
20
-0.196980
0
VERTEX
8
0
10
-0.759126
20
-0.117980
0
SEQEND
8
0
0
POLYLINE
8
0
66
1
70
1
40
0
41
0
0
VERTEX
8
0
10
-0.709126
20
-0.117980
0
VERTEX
8
0
10
-0.685126
20
-0.117980
0
VERTEX
8
0
10
-0.685126
20
-0.196980
0
VERTEX
8
0
10
-0.709126
20
-0.196980
0
VERTEX
8
0
10
-0.709126
20
-0.117980
0
SEQEND
8
0
0
POLYLINE
8
0
66
1
70
1
40
0
41
0
0
VERTEX
8
0
10
-0.659126
20
-0.117980
0
VERTEX
8
0
10
-0.635126
20
-0.117980
0
VERTEX
8
0
10
-0.635126
20
-0.196980
0
VERTEX
8
0
10
-0.659126
20
-0.196980
0
VERTEX
8
0
10
-0.659126
20
-0.117980
0
SEQEND
8
0
0
POLYLINE
8
0
66
1
70
1
40
0
41
0
0
VERTEX
8
0
10
-0.609126
20
-0.117980
0
VERTEX
8
0
10
-0.585126
20
-0.117980
0
VERTEX
8
0
10
-0.585126
20
-0.196980
0
VERTEX
8
0
10
-0.609126
20
-0.196980
0
VERTEX
8
0
10
-0.609126
20
-0.117980
0
SEQEND
8
0
0
POLYLINE
8
0
66
1
70
1
40
0
41
0
0
VERTEX
8
0
10
-0.559126
20
-0.117980
0
VERTEX
8
0
10
-0.535126
20
-0.117980
0
VERTEX
8
0
10
-0.535126
20
-0.196980
0
VERTEX
8
0
10
-0.559126
20
-0.196980
0
VERTEX
8
0
10
-0.559126
20
-0.117980
0
SEQEND
8
0
0
POLYLINE
8
0
66
1
70
1
40
0
41
0
0
VERTEX
8
0
10
-0.509126
20
-0.117980
0
VERTEX
8
0
10
-0.485126
20
-0.117980
0
VERTEX
8
0
10
-0.485126
20
-0.196980
0
VERTEX
8
0
10
-0.509126
20
-0.196980
0
VERTEX
8
0
10
-0.509126
20
-0.117980
0
SEQEND
8
0
0
POLYLINE
8
0
66
1
70
1
40
0
41
0
0
VERTEX
8
0
10
-0.459126
20
-0.117980
0
VERTEX
8
0
10
-0.435126
20
-0.117980
0
VERTEX
8
0
10
-0.435126
20
-0.196980
0
VERTEX
8
0
10
-0.459126
20
-0.196980
0
VERTEX
8
0
10
-0.459126
20
-0.117980
0
SEQEND
8
0
0
POLYLINE
8
0
66
1
70
1
40
0
41
0
0
VERTEX
8
0
10
-0.409126
20
-0.117980
0
VERTEX
8
0
10
-0.385126
20
-0.117980
0
VERTEX
8
0
10
-0.385126
20
-0.196980
0
VERTEX
8
0
10
-0.409126
20
-0.196980
0
VERTEX
8
0
10
-0.409126
20
-0.117980
0
SEQEND
8
0
0
POLYLINE
8
0
66
1
70
1
40
0
41
0
0
VERTEX
8
0
10
-0.359126
20
-0.117980
0
VERTEX
8
0
10
-0.335126
20
-0.117980
0
VERTEX
8
0
10
-0.335126
20
-0.196980
0
VERTEX
8
0
10
-0.359126
20
-0.196980
0
VERTEX
8
0
10
-0.359126
20
-0.117980
0
SEQEND
8
0
0
POLYLINE
8
0
66
1
70
1
40
0
41
0
0
VERTEX
8
0
10
-0.309126
20
-0.117980
0
VERTEX
8
0
10
-0.285126
20
-0.117980
0
VERTEX
8
0
10
-0.285126
20
-0.196980
0
VERTEX
8
0
10
-0.309126
20
-0.196980
0
VERTEX
8
0
10
-0.309126
20
-0.117980
0
SEQEND
8
0
0
POLYLINE
8
0
66
1
70
1
40
0
41
0
0
VERTEX
8
0
10
-0.259126
20
-0.117980
0
VERTEX
8
0
10
-0.235126
20
-0.117980
0
VERTEX
8
0
10
-0.235126
20
-0.196980
0
VERTEX
8
0
10
-0.259126
20
-0.196980
0
VERTEX
8
0
10
-0.259126
20
-0.117980
0
SEQEND
8
0
0
POLYLINE
8
0
66
1
70
1
40
0
41
0
0
VERTEX
8
0
10
-0.209126
20
-0.117980
0
VERTEX
8
0
10
-0.185126
20
-0.117980
0
VERTEX
8
0
10
-0.185126
20
-0.196980
0
VERTEX
8
0
10
-0.209126
20
-0.196980
0
VERTEX
8
0
10
-0.209126
20
-0.117980
0
SEQEND
8
0
0
INSERT
8
0
2
EPAD
10
-0.408150
20
-0.440945
41
0.090000
42
0.090000
0
INSERT
8
0
2
EPAD
10
-0.308150
20
-0.440945
41
0.090000
42
0.090000
0
INSERT
8
0
2
EPAD
10
-0.208150
20
-0.440945
41
0.090000
42
0.090000
0
POLYLINE
8
0
66
1
70
1
40
0
41
0
0
VERTEX
8
0
10
-0.383343
20
0.497843
0
VERTEX
8
0
10
-0.383343
20
0.521843
0
VERTEX
8
0
10
-0.346343
20
0.521843
0
VERTEX
8
0
10
-0.346343
20
0.497843
0
VERTEX
8
0
10
-0.383343
20
0.497843
0
SEQEND
8
0
0
POLYLINE
8
0
66
1
70
1
40
0
41
0
0
VERTEX
8
0
10
-0.383343
20
0.423039
0
VERTEX
8
0
10
-0.383343
20
0.447039
0
VERTEX
8
0
10
-0.346343
20
0.447039
0
VERTEX
8
0
10
-0.346343
20
0.423039
0
VERTEX
8
0
10
-0.383343
20
0.423039
0
SEQEND
8
0
0
POLYLINE
8
0
66
1
70
1
40
0
41
0
0
VERTEX
8
0
10
-0.292791
20
0.460441
0
VERTEX
8
0
10
-0.292791
20
0.484441
0
VERTEX
8
0
10
-0.255791
20
0.484441
0
VERTEX
8
0
10
-0.255791
20
0.460441
0
VERTEX
8
0
10
-0.292791
20
0.460441
0
SEQEND
8
0
0
POLYLINE
8
0
66
1
70
1
40
0
41
0
0
VERTEX
8
0
10
-0.066063
20
0.228661
0
VERTEX
8
0
10
-0.066063
20
0.188661
0
VERTEX
8
0
10
-0.066113
20
0.187622
0
VERTEX
8
0
10
-0.066262
20
0.186617
0
VERTEX
8
0
10
-0.066504
20
0.185650
0
VERTEX
8
0
10
-0.066835
20
0.184726
0
VERTEX
8
0
10
-0.067249
20
0.183850
0
VERTEX
8
0
10
-0.067744
20
0.183026
0
VERTEX
8
0
10
-0.068313
20
0.182258
0
VERTEX
8
0
10
-0.068954
20
0.181552
0
VERTEX
8
0
10
-0.069660
20
0.180912
0
VERTEX
8
0
10
-0.070427
20
0.180343
0
VERTEX
8
0
10
-0.071251
20
0.179848
0
VERTEX
8
0
10
-0.072128
20
0.179433
0
VERTEX
8
0
10
-0.073052
20
0.179102
0
VERTEX
8
0
10
-0.074019
20
0.178860
0
VERTEX
8
0
10
-0.075024
20
0.178712
0
VERTEX
8
0
10
-0.076063
20
0.178661
0
VERTEX
8
0
10
-0.126063
20
0.178661
0
VERTEX
8
0
10
-0.127102
20
0.178712
0
VERTEX
8
0
10
-0.128107
20
0.178860
0
VERTEX
8
0
10
-0.129074
20
0.179102
0
VERTEX
8
0
10
-0.129998
20
0.179433
0
VERTEX
8
0
10
-0.130875
20
0.179848
0
VERTEX
8
0
10
-0.131699
20
0.180343
0
VERTEX
8
0
10
-0.132466
20
0.180912
0
VERTEX
8
0
10
-0.133172
20
0.181552
0
VERTEX
8
0
10
-0.133813
20
0.182258
0
VERTEX
8
0
10
-0.134382
20
0.183026
0
VERTEX
8
0
10
-0.134877
20
0.183850
0
VERTEX
8
0
10
-0.135291
20
0.184726
0
VERTEX
8
0
10
-0.135622
20
0.185650
0
VERTEX
8
0
10
-0.135864
20
0.186617
0
VERTEX
8
0
10
-0.136013
20
0.187622
0
VERTEX
8
0
10
-0.136063
20
0.188661
0
VERTEX
8
0
10
-0.136063
20
0.228661
0
VERTEX
8
0
10
-0.136013
20
0.229701
0
VERTEX
8
0
10
-0.135864
20
0.230706
0
VERTEX
8
0
10
-0.135622
20
0.231673
0
VERTEX
8
0
10
-0.135291
20
0.232597
0
VERTEX
8
0
10
-0.134877
20
0.233473
0
VERTEX
8
0
10
-0.134382
20
0.234297
0
VERTEX
8
0
10
-0.133813
20
0.235065
0
VERTEX
8
0
10
-0.133172
20
0.235771
0
VERTEX
8
0
10
-0.132466
20
0.236411
0
VERTEX
8
0
10
-0.131699
20
0.236980
0
VERTEX
8
0
10
-0.130875
20
0.237475
0
VERTEX
8
0
10
-0.129998
20
0.237890
0
VERTEX
8
0
10
-0.129074
20
0.238220
0
VERTEX
8
0
10
-0.128107
20
0.238463
0
VERTEX
8
0
10
-0.127102
20
0.238611
0
VERTEX
8
0
10
-0.126063
20
0.238661
0
VERTEX
8
0
10
-0.076063
20
0.238661
0
VERTEX
8
0
10
-0.075024
20
0.238611
0
VERTEX
8
0
10
-0.074019
20
0.238463
0
VERTEX
8
0
10
-0.073052
20
0.238220
0
VERTEX
8
0
10
-0.072128
20
0.237890
0
VERTEX
8
0
10
-0.071251
20
0.237475
0
VERTEX
8
0
10
-0.070427
20
0.236980
0
VERTEX
8
0
10
-0.069660
20
0.236411
0
VERTEX
8
0
10
-0.068954
20
0.235771
0
VERTEX
8
0
10
-0.068313
20
0.235065
0
VERTEX
8
0
10
-0.067744
20
0.234297
0
VERTEX
8
0
10
-0.067249
20
0.233473
0
VERTEX
8
0
10
-0.066835
20
0.232597
0
VERTEX
8
0
10
-0.066504
20
0.231673
0
VERTEX
8
0
10
-0.066262
20
0.230706
0
VERTEX
8
0
10
-0.066113
20
0.229701
0
VERTEX
8
0
10
-0.066063
20
0.228661
0
SEQEND
8
0
0
POLYLINE
8
0
66
1
70
1
40
0
41
0
0
VERTEX
8
0
10
-0.066063
20
0.144661
0
VERTEX
8
0
10
-0.066063
20
0.104661
0
VERTEX
8
0
10
-0.066113
20
0.103622
0
VERTEX
8
0
10
-0.066262
20
0.102617
0
VERTEX
8
0
10
-0.066504
20
0.101650
0
VERTEX
8
0
10
-0.066835
20
0.100726
0
VERTEX
8
0
10
-0.067249
20
0.099850
0
VERTEX
8
0
10
-0.067744
20
0.099026
0
VERTEX
8
0
10
-0.068313
20
0.098258
0
VERTEX
8
0
10
-0.068954
20
0.097552
0
VERTEX
8
0
10
-0.069660
20
0.096912
0
VERTEX
8
0
10
-0.070427
20
0.096343
0
VERTEX
8
0
10
-0.071251
20
0.095848
0
VERTEX
8
0
10
-0.072128
20
0.095433
0
VERTEX
8
0
10
-0.073052
20
0.095102
0
VERTEX
8
0
10
-0.074019
20
0.094860
0
VERTEX
8
0
10
-0.075024
20
0.094712
0
VERTEX
8
0
10
-0.076063
20
0.094661
0
VERTEX
8
0
10
-0.126063
20
0.094661
0
VERTEX
8
0
10
-0.127102
20
0.094712
0
VERTEX
8
0
10
-0.128107
20
0.094860
0
VERTEX
8
0
10
-0.129074
20
0.095102
0
VERTEX
8
0
10
-0.129998
20
0.095433
0
VERTEX
8
0
10
-0.130875
20
0.095848
0
VERTEX
8
0
10
-0.131699
20
0.096343
0
VERTEX
8
0
10
-0.132466
20
0.096912
0
VERTEX
8
0
10
-0.133172
20
0.097552
0
VERTEX
8
0
10
-0.133813
20
0.098258
0
VERTEX
8
0
10
-0.134382
20
0.099026
0
VERTEX
8
0
10
-0.134877
20
0.099850
0
VERTEX
8
0
10
-0.135291
20
0.100726
0
VERTEX
8
0
10
-0.135622
20
0.101650
0
VERTEX
8
0
10
-0.135864
20
0.102617
0
VERTEX
8
0
10
-0.136013
20
0.103622
0
VERTEX
8
0
10
-0.136063
20
0.104661
0
VERTEX
8
0
10
-0.136063
20
0.144661
0
VERTEX
8
0
10
-0.136013
20
0.145701
0
VERTEX
8
0
10
-0.135864
20
0.146706
0
VERTEX
8
0
10
-0.135622
20
0.147673
0
VERTEX
8
0
10
-0.135291
20
0.148597
0
VERTEX
8
0
10
-0.134877
20
0.149473
0
VERTEX
8
0
10
-0.134382
20
0.150297
0
VERTEX
8
0
10
-0.133813
20
0.151065
0
VERTEX
8
0
10
-0.133172
20
0.151771
0
VERTEX
8
0
10
-0.132466
20
0.152411
0
VERTEX
8
0
10
-0.131699
20
0.152980
0
VERTEX
8
0
10
-0.130875
20
0.153475
0
VERTEX
8
0
10
-0.129998
20
0.153890
0
VERTEX
8
0
10
-0.129074
20
0.154220
0
VERTEX
8
0
10
-0.128107
20
0.154463
0
VERTEX
8
0
10
-0.127102
20
0.154611
0
VERTEX
8
0
10
-0.126063
20
0.154661
0
VERTEX
8
0
10
-0.076063
20
0.154661
0
VERTEX
8
0
10
-0.075024
20
0.154611
0
VERTEX
8
0
10
-0.074019
20
0.154463
0
VERTEX
8
0
10
-0.073052
20
0.154220
0
VERTEX
8
0
10
-0.072128
20
0.153890
0
VERTEX
8
0
10
-0.071251
20
0.153475
0
VERTEX
8
0
10
-0.070427
20
0.152980
0
VERTEX
8
0
10
-0.069660
20
0.152411
0
VERTEX
8
0
10
-0.068954
20
0.151771
0
VERTEX
8
0
10
-0.068313
20
0.151065
0
VERTEX
8
0
10
-0.067744
20
0.150297
0
VERTEX
8
0
10
-0.067249
20
0.149473
0
VERTEX
8
0
10
-0.066835
20
0.148597
0
VERTEX
8
0
10
-0.066504
20
0.147673
0
VERTEX
8
0
10
-0.066262
20
0.146706
0
VERTEX
8
0
10
-0.066113
20
0.145701
0
VERTEX
8
0
10
-0.066063
20
0.144661
0
SEQEND
8
0
0
POLYLINE
8
0
66
1
70
1
40
0
41
0
0
VERTEX
8
0
10
-0.404528
20
0.365709
0
VERTEX
8
0
10
-0.364528
20
0.365709
0
VERTEX
8
0
10
-0.363488
20
0.365658
0
VERTEX
8
0
10
-0.362483
20
0.365510
0
VERTEX
8
0
10
-0.361516
20
0.365268
0
VERTEX
8
0
10
-0.360592
20
0.364937
0
VERTEX
8
0
10
-0.359716
20
0.364522
0
VERTEX
8
0
10
-0.358892
20
0.364028
0
VERTEX
8
0
10
-0.358124
20
0.363458
0
VERTEX
8
0
10
-0.357418
20
0.362818
0
VERTEX
8
0
10
-0.356778
20
0.362112
0
VERTEX
8
0
10
-0.356209
20
0.361344
0
VERTEX
8
0
10
-0.355714
20
0.360520
0
VERTEX
8
0
10
-0.355299
20
0.359644
0
VERTEX
8
0
10
-0.354969
20
0.358720
0
VERTEX
8
0
10
-0.354726
20
0.357753
0
VERTEX
8
0
10
-0.354578
20
0.356748
0
VERTEX
8
0
10
-0.354528
20
0.355709
0
VERTEX
8
0
10
-0.354528
20
0.305709
0
VERTEX
8
0
10
-0.354578
20
0.304669
0
VERTEX
8
0
10
-0.354726
20
0.303664
0
VERTEX
8
0
10
-0.354969
20
0.302697
0
VERTEX
8
0
10
-0.355299
20
0.301773
0
VERTEX
8
0
10
-0.355714
20
0.300897
0
VERTEX
8
0
10
-0.356209
20
0.300073
0
VERTEX
8
0
10
-0.356778
20
0.299306
0
VERTEX
8
0
10
-0.357418
20
0.298599
0
VERTEX
8
0
10
-0.358124
20
0.297959
0
VERTEX
8
0
10
-0.358892
20
0.297390
0
VERTEX
8
0
10
-0.359716
20
0.296895
0
VERTEX
8
0
10
-0.360592
20
0.296480
0
VERTEX
8
0
10
-0.361516
20
0.296150
0
VERTEX
8
0
10
-0.362483
20
0.295907
0
VERTEX
8
0
10
-0.363488
20
0.295759
0
VERTEX
8
0
10
-0.364528
20
0.295709
0
VERTEX
8
0
10
-0.404528
20
0.295709
0
VERTEX
8
0
10
-0.405567
20
0.295759
0
VERTEX
8
0
10
-0.406572
20
0.295907
0
VERTEX
8
0
10
-0.407539
20
0.296150
0
VERTEX
8
0
10
-0.408463
20
0.296480
0
VERTEX
8
0
10
-0.409339
20
0.296895
0
VERTEX
8
0
10
-0.410163
20
0.297390
0
VERTEX
8
0
10
-0.410931
20
0.297959
0
VERTEX
8
0
10
-0.411637
20
0.298599
0
VERTEX
8
0
10
-0.412277
20
0.299306
0
VERTEX
8
0
10
-0.412846
20
0.300073
0
VERTEX
8
0
10
-0.413341
20
0.300897
0
VERTEX
8
0
10
-0.413756
20
0.301773
0
VERTEX
8
0
10
-0.414087
20
0.302697
0
VERTEX
8
0
10
-0.414329
20
0.303664
0
VERTEX
8
0
10
-0.414477
20
0.304669
0
VERTEX
8
0
10
-0.414528
20
0.305709
0
VERTEX
8
0
10
-0.414528
20
0.355709
0
VERTEX
8
0
10
-0.414477
20
0.356748
0
VERTEX
8
0
10
-0.414329
20
0.357753
0
VERTEX
8
0
10
-0.414087
20
0.358720
0
VERTEX
8
0
10
-0.413756
20
0.359644
0
VERTEX
8
0
10
-0.413341
20
0.360520
0
VERTEX
8
0
10
-0.412846
20
0.361344
0
VERTEX
8
0
10
-0.412277
20
0.362112
0
VERTEX
8
0
10
-0.411637
20
0.362818
0
VERTEX
8
0
10
-0.410931
20
0.363458
0
VERTEX
8
0
10
-0.410163
20
0.364028
0
VERTEX
8
0
10
-0.409339
20
0.364522
0
VERTEX
8
0
10
-0.408463
20
0.364937
0
VERTEX
8
0
10
-0.407539
20
0.365268
0
VERTEX
8
0
10
-0.406572
20
0.365510
0
VERTEX
8
0
10
-0.405567
20
0.365658
0
VERTEX
8
0
10
-0.404528
20
0.365709
0
SEQEND
8
0
0
POLYLINE
8
0
66
1
70
1
40
0
41
0
0
VERTEX
8
0
10
-0.320528
20
0.365709
0
VERTEX
8
0
10
-0.280528
20
0.365709
0
VERTEX
8
0
10
-0.279488
20
0.365658
0
VERTEX
8
0
10
-0.278483
20
0.365510
0
VERTEX
8
0
10
-0.277516
20
0.365268
0
VERTEX
8
0
10
-0.276592
20
0.364937
0
VERTEX
8
0
10
-0.275716
20
0.364522
0
VERTEX
8
0
10
-0.274892
20
0.364028
0
VERTEX
8
0
10
-0.274124
20
0.363458
0
VERTEX
8
0
10
-0.273418
20
0.362818
0
VERTEX
8
0
10
-0.272778
20
0.362112
0
VERTEX
8
0
10
-0.272209
20
0.361344
0
VERTEX
8
0
10
-0.271714
20
0.360520
0
VERTEX
8
0
10
-0.271299
20
0.359644
0
VERTEX
8
0
10
-0.270969
20
0.358720
0
VERTEX
8
0
10
-0.270726
20
0.357753
0
VERTEX
8
0
10
-0.270578
20
0.356748
0
VERTEX
8
0
10
-0.270528
20
0.355709
0
VERTEX
8
0
10
-0.270528
20
0.305709
0
VERTEX
8
0
10
-0.270578
20
0.304669
0
VERTEX
8
0
10
-0.270726
20
0.303664
0
VERTEX
8
0
10
-0.270969
20
0.302697
0
VERTEX
8
0
10
-0.271299
20
0.301773
0
VERTEX
8
0
10
-0.271714
20
0.300897
0
VERTEX
8
0
10
-0.272209
20
0.300073
0
VERTEX
8
0
10
-0.272778
20
0.299306
0
VERTEX
8
0
10
-0.273418
20
0.298599
0
VERTEX
8
0
10
-0.274124
20
0.297959
0
VERTEX
8
0
10
-0.274892
20
0.297390
0
VERTEX
8
0
10
-0.275716
20
0.296895
0
VERTEX
8
0
10
-0.276592
20
0.296480
0
VERTEX
8
0
10
-0.277516
20
0.296150
0
VERTEX
8
0
10
-0.278483
20
0.295907
0
VERTEX
8
0
10
-0.279488
20
0.295759
0
VERTEX
8
0
10
-0.280528
20
0.295709
0
VERTEX
8
0
10
-0.320528
20
0.295709
0
VERTEX
8
0
10
-0.321567
20
0.295759
0
VERTEX
8
0
10
-0.322572
20
0.295907
0
VERTEX
8
0
10
-0.323539
20
0.296150
0
VERTEX
8
0
10
-0.324463
20
0.296480
0
VERTEX
8
0
10
-0.325339
20
0.296895
0
VERTEX
8
0
10
-0.326163
20
0.297390
0
VERTEX
8
0
10
-0.326931
20
0.297959
0
VERTEX
8
0
10
-0.327637
20
0.298599
0
VERTEX
8
0
10
-0.328277
20
0.299306
0
VERTEX
8
0
10
-0.328846
20
0.300073
0
VERTEX
8
0
10
-0.329341
20
0.300897
0
VERTEX
8
0
10
-0.329756
20
0.301773
0
VERTEX
8
0
10
-0.330087
20
0.302697
0
VERTEX
8
0
10
-0.330329
20
0.303664
0
VERTEX
8
0
10
-0.330477
20
0.304669
0
VERTEX
8
0
10
-0.330528
20
0.305709
0
VERTEX
8
0
10
-0.330528
20
0.355709
0
VERTEX
8
0
10
-0.330477
20
0.356748
0
VERTEX
8
0
10
-0.330329
20
0.357753
0
VERTEX
8
0
10
-0.330087
20
0.358720
0
VERTEX
8
0
10
-0.329756
20
0.359644
0
VERTEX
8
0
10
-0.329341
20
0.360520
0
VERTEX
8
0
10
-0.328846
20
0.361344
0
VERTEX
8
0
10
-0.328277
20
0.362112
0
VERTEX
8
0
10
-0.327637
20
0.362818
0
VERTEX
8
0
10
-0.326931
20
0.363458
0
VERTEX
8
0
10
-0.326163
20
0.364028
0
VERTEX
8
0
10
-0.325339
20
0.364522
0
VERTEX
8
0
10
-0.324463
20
0.364937
0
VERTEX
8
0
10
-0.323539
20
0.365268
0
VERTEX
8
0
10
-0.322572
20
0.365510
0
VERTEX
8
0
10
-0.321567
20
0.365658
0
VERTEX
8
0
10
-0.320528
20
0.365709
0
SEQEND
8
0
0
POLYLINE
8
0
66
1
70
1
40
0
41
0
0
VERTEX
8
0
10
0.396638
20
-0.538937
0
VERTEX
8
0
10
0.356638
20
-0.538937
0
VERTEX
8
0
10
0.355598
20
-0.538887
0
VERTEX
8
0
10
0.354593
20
-0.538738
0
VERTEX
8
0
10
0.353626
20
-0.538496
0
VERTEX
8
0
10
0.352702
20
-0.538165
0
VERTEX
8
0
10
0.351826
20
-0.537751
0
VERTEX
8
0
10
0.351002
20
-0.537256
0
VERTEX
8
0
10
0.350234
20
-0.536687
0
VERTEX
8
0
10
0.349528
20
-0.536046
0
VERTEX
8
0
10
0.348888
20
-0.535340
0
VERTEX
8
0
10
0.348319
20
-0.534573
0
VERTEX
8
0
10
0.347824
20
-0.533749
0
VERTEX
8
0
10
0.347409
20
-0.532872
0
VERTEX
8
0
10
0.347079
20
-0.531948
0
VERTEX
8
0
10
0.346837
20
-0.530981
0
VERTEX
8
0
10
0.346688
20
-0.529976
0
VERTEX
8
0
10
0.346638
20
-0.528937
0
VERTEX
8
0
10
0.346638
20
-0.478937
0
VERTEX
8
0
10
0.346688
20
-0.477898
0
VERTEX
8
0
10
0.346837
20
-0.476893
0
VERTEX
8
0
10
0.347079
20
-0.475926
0
VERTEX
8
0
10
0.347409
20
-0.475002
0
VERTEX
8
0
10
0.347824
20
-0.474125
0
VERTEX
8
0
10
0.348319
20
-0.473301
0
VERTEX
8
0
10
0.348888
20
-0.472534
0
VERTEX
8
0
10
0.349528
20
-0.471828
0
VERTEX
8
0
10
0.350234
20
-0.471187
0
VERTEX
8
0
10
0.351002
20
-0.470618
0
VERTEX
8
0
10
0.351826
20
-0.470123
0
VERTEX
8
0
10
0.352702
20
-0.469709
0
VERTEX
8
0
10
0.353626
20
-0.469378
0
VERTEX
8
0
10
0.354593
20
-0.469136
0
VERTEX
8
0
10
0.355598
20
-0.468987
0
VERTEX
8
0
10
0.356638
20
-0.468937
0
VERTEX
8
0
10
0.396638
20
-0.468937
0
VERTEX
8
0
10
0.397677
20
-0.468987
0
VERTEX
8
0
10
0.398682
20
-0.469136
0
VERTEX
8
0
10
0.399649
20
-0.469378
0
VERTEX
8
0
10
0.400573
20
-0.469709
0
VERTEX
8
0
10
0.401450
20
-0.470123
0
VERTEX
8
0
10
0.402274
20
-0.470618
0
VERTEX
8
0
10
0.403041
20
-0.471187
0
VERTEX
8
0
10
0.403747
20
-0.471828
0
VERTEX
8
0
10
0.404387
20
-0.472534
0
VERTEX
8
0
10
0.404957
20
-0.473301
0
VERTEX
8
0
10
0.405451
20
-0.474125
0
VERTEX
8
0
10
0.405866
20
-0.475002
0
VERTEX
8
0
10
0.406197
20
-0.475926
0
VERTEX
8
0
10
0.406439
20
-0.476893
0
VERTEX
8
0
10
0.406587
20
-0.477898
0
VERTEX
8
0
10
0.406638
20
-0.478937
0
VERTEX
8
0
10
0.406638
20
-0.528937
0
VERTEX
8
0
10
0.406587
20
-0.529976
0
VERTEX
8
0
10
0.406439
20
-0.530981
0
VERTEX
8
0
10
0.406197
20
-0.531948
0
VERTEX
8
0
10
0.405866
20
-0.532872
0
VERTEX
8
0
10
0.405451
20
-0.533749
0
VERTEX
8
0
10
0.404957
20
-0.534573
0
VERTEX
8
0
10
0.404387
20
-0.535340
0
VERTEX
8
0
10
0.403747
20
-0.536046
0
VERTEX
8
0
10
0.403041
20
-0.536687
0
VERTEX
8
0
10
0.402274
20
-0.537256
0
VERTEX
8
0
10
0.401450
20
-0.537751
0
VERTEX
8
0
10
0.400573
20
-0.538165
0
VERTEX
8
0
10
0.399649
20
-0.538496
0
VERTEX
8
0
10
0.398682
20
-0.538738
0
VERTEX
8
0
10
0.397677
20
-0.538887
0
VERTEX
8
0
10
0.396638
20
-0.538937
0
SEQEND
8
0
0
POLYLINE
8
0
66
1
70
1
40
0
41
0
0
VERTEX
8
0
10
0.312638
20
-0.538937
0
VERTEX
8
0
10
0.272638
20
-0.538937
0
VERTEX
8
0
10
0.271598
20
-0.538887
0
VERTEX
8
0
10
0.270593
20
-0.538738
0
VERTEX
8
0
10
0.269626
20
-0.538496
0
VERTEX
8
0
10
0.268702
20
-0.538165
0
VERTEX
8
0
10
0.267826
20
-0.537751
0
VERTEX
8
0
10
0.267002
20
-0.537256
0
VERTEX
8
0
10
0.266234
20
-0.536687
0
VERTEX
8
0
10
0.265528
20
-0.536046
0
VERTEX
8
0
10
0.264888
20
-0.535340
0
VERTEX
8
0
10
0.264319
20
-0.534573
0
VERTEX
8
0
10
0.263824
20
-0.533749
0
VERTEX
8
0
10
0.263409
20
-0.532872
0
VERTEX
8
0
10
0.263079
20
-0.531948
0
VERTEX
8
0
10
0.262837
20
-0.530981
0
VERTEX
8
0
10
0.262688
20
-0.529976
0
VERTEX
8
0
10
0.262638
20
-0.528937
0
VERTEX
8
0
10
0.262638
20
-0.478937
0
VERTEX
8
0
10
0.262688
20
-0.477898
0
VERTEX
8
0
10
0.262837
20
-0.476893
0
VERTEX
8
0
10
0.263079
20
-0.475926
0
VERTEX
8
0
10
0.263409
20
-0.475002
0
VERTEX
8
0
10
0.263824
20
-0.474125
0
VERTEX
8
0
10
0.264319
20
-0.473301
0
VERTEX
8
0
10
0.264888
20
-0.472534
0
VERTEX
8
0
10
0.265528
20
-0.471828
0
VERTEX
8
0
10
0.266234
20
-0.471187
0
VERTEX
8
0
10
0.267002
20
-0.470618
0
VERTEX
8
0
10
0.267826
20
-0.470123
0
VERTEX
8
0
10
0.268702
20
-0.469709
0
VERTEX
8
0
10
0.269626
20
-0.469378
0
VERTEX
8
0
10
0.270593
20
-0.469136
0
VERTEX
8
0
10
0.271598
20
-0.468987
0
VERTEX
8
0
10
0.272638
20
-0.468937
0
VERTEX
8
0
10
0.312638
20
-0.468937
0
VERTEX
8
0
10
0.313677
20
-0.468987
0
VERTEX
8
0
10
0.314682
20
-0.469136
0
VERTEX
8
0
10
0.315649
20
-0.469378
0
VERTEX
8
0
10
0.316573
20
-0.469709
0
VERTEX
8
0
10
0.317450
20
-0.470123
0
VERTEX
8
0
10
0.318274
20
-0.470618
0
VERTEX
8
0
10
0.319041
20
-0.471187
0
VERTEX
8
0
10
0.319747
20
-0.471828
0
VERTEX
8
0
10
0.320387
20
-0.472534
0
VERTEX
8
0
10
0.320957
20
-0.473301
0
VERTEX
8
0
10
0.321451
20
-0.474125
0
VERTEX
8
0
10
0.321866
20
-0.475002
0
VERTEX
8
0
10
0.322197
20
-0.475926
0
VERTEX
8
0
10
0.322439
20
-0.476893
0
VERTEX
8
0
10
0.322587
20
-0.477898
0
VERTEX
8
0
10
0.322638
20
-0.478937
0
VERTEX
8
0
10
0.322638
20
-0.528937
0
VERTEX
8
0
10
0.322587
20
-0.529976
0
VERTEX
8
0
10
0.322439
20
-0.530981
0
VERTEX
8
0
10
0.322197
20
-0.531948
0
VERTEX
8
0
10
0.321866
20
-0.532872
0
VERTEX
8
0
10
0.321451
20
-0.533749
0
VERTEX
8
0
10
0.320957
20
-0.534573
0
VERTEX
8
0
10
0.320387
20
-0.535340
0
VERTEX
8
0
10
0.319747
20
-0.536046
0
VERTEX
8
0
10
0.319041
20
-0.536687
0
VERTEX
8
0
10
0.318274
20
-0.537256
0
VERTEX
8
0
10
0.317450
20
-0.537751
0
VERTEX
8
0
10
0.316573
20
-0.538165
0
VERTEX
8
0
10
0.315649
20
-0.538496
0
VERTEX
8
0
10
0.314682
20
-0.538738
0
VERTEX
8
0
10
0.313677
20
-0.538887
0
VERTEX
8
0
10
0.312638
20
-0.538937
0
SEQEND
8
0
0
POLYLINE
8
0
66
1
70
1
40
0
41
0
0
VERTEX
8
0
10
0.095728
20
-0.527744
0
VERTEX
8
0
10
0.095728
20
-0.566744
0
VERTEX
8
0
10
0.040728
20
-0.566744
0
VERTEX
8
0
10
0.040728
20
-0.527744
0
VERTEX
8
0
10
0.095728
20
-0.527744
0
SEQEND
8
0
0
POLYLINE
8
0
66
1
70
1
40
0
41
0
0
VERTEX
8
0
10
0.095728
20
-0.456878
0
VERTEX
8
0
10
0.095728
20
-0.495878
0
VERTEX
8
0
10
0.040728
20
-0.495878
0
VERTEX
8
0
10
0.040728
20
-0.456878
0
VERTEX
8
0
10
0.095728
20
-0.456878
0
SEQEND
8
0
0
INSERT
8
0
2
EPAD
10
0.284764
20
-0.362205
41
0.090000
42
0.090000
0
INSERT
8
0
2
EPAD
10
0.284764
20
-0.262205
41
0.090000
42
0.090000
0
INSERT
8
0
2
EPAD
10
0.284764
20
-0.162205
41
0.090000
42
0.090000
0
INSERT
8
0
2
EPAD
10
0.284764
20
-0.062205
41
0.090000
42
0.090000
0
POLYLINE
8
0
66
1
70
1
40
0
41
0
0
VERTEX
8
0
10
-0.825787
20
0.554685
0
VERTEX
8
0
10
-0.785787
20
0.554685
0
VERTEX
8
0
10
-0.784748
20
0.554635
0
VERTEX
8
0
10
-0.783743
20
0.554486
0
VERTEX
8
0
10
-0.782776
20
0.554244
0
VERTEX
8
0
10
-0.781852
20
0.553913
0
VERTEX
8
0
10
-0.780976
20
0.553499
0
VERTEX
8
0
10
-0.780152
20
0.553004
0
VERTEX
8
0
10
-0.779384
20
0.552435
0
VERTEX
8
0
10
-0.778678
20
0.551794
0
VERTEX
8
0
10
-0.778038
20
0.551088
0
VERTEX
8
0
10
-0.777469
20
0.550321
0
VERTEX
8
0
10
-0.776974
20
0.549497
0
VERTEX
8
0
10
-0.776559
20
0.548620
0
VERTEX
8
0
10
-0.776228
20
0.547696
0
VERTEX
8
0
10
-0.775986
20
0.546730
0
VERTEX
8
0
10
-0.775838
20
0.545724
0
VERTEX
8
0
10
-0.775787
20
0.544685
0
VERTEX
8
0
10
-0.775787
20
0.494685
0
VERTEX
8
0
10
-0.775838
20
0.493646
0
VERTEX
8
0
10
-0.775986
20
0.492641
0
VERTEX
8
0
10
-0.776228
20
0.491674
0
VERTEX
8
0
10
-0.776559
20
0.490750
0
VERTEX
8
0
10
-0.776974
20
0.489873
0
VERTEX
8
0
10
-0.777469
20
0.489049
0
VERTEX
8
0
10
-0.778038
20
0.488282
0
VERTEX
8
0
10
-0.778678
20
0.487576
0
VERTEX
8
0
10
-0.779384
20
0.486935
0
VERTEX
8
0
10
-0.780152
20
0.486366
0
VERTEX
8
0
10
-0.780976
20
0.485871
0
VERTEX
8
0
10
-0.781852
20
0.485457
0
VERTEX
8
0
10
-0.782776
20
0.485126
0
VERTEX
8
0
10
-0.783743
20
0.484884
0
VERTEX
8
0
10
-0.784748
20
0.484735
0
VERTEX
8
0
10
-0.785787
20
0.484685
0
VERTEX
8
0
10
-0.825787
20
0.484685
0
VERTEX
8
0
10
-0.826827
20
0.484735
0
VERTEX
8
0
10
-0.827832
20
0.484884
0
VERTEX
8
0
10
-0.828799
20
0.485126
0
VERTEX
8
0
10
-0.829723
20
0.485457
0
VERTEX
8
0
10
-0.830599
20
0.485871
0
VERTEX
8
0
10
-0.831423
20
0.486366
0
VERTEX
8
0
10
-0.832191
20
0.486935
0
VERTEX
8
0
10
-0.832897
20
0.487576
0
VERTEX
8
0
10
-0.833537
20
0.488282
0
VERTEX
8
0
10
-0.834106
20
0.489049
0
VERTEX
8
0
10
-0.834601
20
0.489873
0
VERTEX
8
0
10
-0.835016
20
0.490750
0
VERTEX
8
0
10
-0.835346
20
0.491674
0
VERTEX
8
0
10
-0.835589
20
0.492641
0
VERTEX
8
0
10
-0.835737
20
0.493646
0
VERTEX
8
0
10
-0.835787
20
0.494685
0
VERTEX
8
0
10
-0.835787
20
0.544685
0
VERTEX
8
0
10
-0.835737
20
0.545724
0
VERTEX
8
0
10
-0.835589
20
0.546730
0
VERTEX
8
0
10
-0.835346
20
0.547696
0
VERTEX
8
0
10
-0.835016
20
0.548620
0
VERTEX
8
0
10
-0.834601
20
0.549497
0
VERTEX
8
0
10
-0.834106
20
0.550321
0
VERTEX
8
0
10
-0.833537
20
0.551088
0
VERTEX
8
0
10
-0.832897
20
0.551794
0
VERTEX
8
0
10
-0.832191
20
0.552435
0
VERTEX
8
0
10
-0.831423
20
0.553004
0
VERTEX
8
0
10
-0.830599
20
0.553499
0
VERTEX
8
0
10
-0.829723
20
0.553913
0
VERTEX
8
0
10
-0.828799
20
0.554244
0
VERTEX
8
0
10
-0.827832
20
0.554486
0
VERTEX
8
0
10
-0.826827
20
0.554635
0
VERTEX
8
0
10
-0.825787
20
0.554685
0
SEQEND
8
0
0
POLYLINE
8
0
66
1
70
1
40
0
41
0
0
VERTEX
8
0
10
-0.741787
20
0.554685
0
VERTEX
8
0
10
-0.701787
20
0.554685
0
VERTEX
8
0
10
-0.700748
20
0.554635
0
VERTEX
8
0
10
-0.699743
20
0.554486
0
VERTEX
8
0
10
-0.698776
20
0.554244
0
VERTEX
8
0
10
-0.697852
20
0.553913
0
VERTEX
8
0
10
-0.696976
20
0.553499
0
VERTEX
8
0
10
-0.696152
20
0.553004
0
VERTEX
8
0
10
-0.695384
20
0.552435
0
VERTEX
8
0
10
-0.694678
20
0.551794
0
VERTEX
8
0
10
-0.694038
20
0.551088
0
VERTEX
8
0
10
-0.693469
20
0.550321
0
VERTEX
8
0
10
-0.692974
20
0.549497
0
VERTEX
8
0
10
-0.692559
20
0.548620
0
VERTEX
8
0
10
-0.692228
20
0.547696
0
VERTEX
8
0
10
-0.691986
20
0.546730
0
VERTEX
8
0
10
-0.691838
20
0.545724
0
VERTEX
8
0
10
-0.691787
20
0.544685
0
VERTEX
8
0
10
-0.691787
20
0.494685
0
VERTEX
8
0
10
-0.691838
20
0.493646
0
VERTEX
8
0
10
-0.691986
20
0.492641
0
VERTEX
8
0
10
-0.692228
20
0.491674
0
VERTEX
8
0
10
-0.692559
20
0.490750
0
VERTEX
8
0
10
-0.692974
20
0.489873
0
VERTEX
8
0
10
-0.693469
20
0.489049
0
VERTEX
8
0
10
-0.694038
20
0.488282
0
VERTEX
8
0
10
-0.694678
20
0.487576
0
VERTEX
8
0
10
-0.695384
20
0.486935
0
VERTEX
8
0
10
-0.696152
20
0.486366
0
VERTEX
8
0
10
-0.696976
20
0.485871
0
VERTEX
8
0
10
-0.697852
20
0.485457
0
VERTEX
8
0
10
-0.698776
20
0.485126
0
VERTEX
8
0
10
-0.699743
20
0.484884
0
VERTEX
8
0
10
-0.700748
20
0.484735
0
VERTEX
8
0
10
-0.701787
20
0.484685
0
VERTEX
8
0
10
-0.741787
20
0.484685
0
VERTEX
8
0
10
-0.742827
20
0.484735
0
VERTEX
8
0
10
-0.743832
20
0.484884
0
VERTEX
8
0
10
-0.744799
20
0.485126
0
VERTEX
8
0
10
-0.745723
20
0.485457
0
VERTEX
8
0
10
-0.746599
20
0.485871
0
VERTEX
8
0
10
-0.747423
20
0.486366
0
VERTEX
8
0
10
-0.748191
20
0.486935
0
VERTEX
8
0
10
-0.748897
20
0.487576
0
VERTEX
8
0
10
-0.749537
20
0.488282
0
VERTEX
8
0
10
-0.750106
20
0.489049
0
VERTEX
8
0
10
-0.750601
20
0.489873
0
VERTEX
8
0
10
-0.751016
20
0.490750
0
VERTEX
8
0
10
-0.751346
20
0.491674
0
VERTEX
8
0
10
-0.751589
20
0.492641
0
VERTEX
8
0
10
-0.751737
20
0.493646
0
VERTEX
8
0
10
-0.751787
20
0.494685
0
VERTEX
8
0
10
-0.751787
20
0.544685
0
VERTEX
8
0
10
-0.751737
20
0.545724
0
VERTEX
8
0
10
-0.751589
20
0.546730
0
VERTEX
8
0
10
-0.751346
20
0.547696
0
VERTEX
8
0
10
-0.751016
20
0.548620
0
VERTEX
8
0
10
-0.750601
20
0.549497
0
VERTEX
8
0
10
-0.750106
20
0.550321
0
VERTEX
8
0
10
-0.749537
20
0.551088
0
VERTEX
8
0
10
-0.748897
20
0.551794
0
VERTEX
8
0
10
-0.748191
20
0.552435
0
VERTEX
8
0
10
-0.747423
20
0.553004
0
VERTEX
8
0
10
-0.746599
20
0.553499
0
VERTEX
8
0
10
-0.745723
20
0.553913
0
VERTEX
8
0
10
-0.744799
20
0.554244
0
VERTEX
8
0
10
-0.743832
20
0.554486
0
VERTEX
8
0
10
-0.742827
20
0.554635
0
VERTEX
8
0
10
-0.741787
20
0.554685
0
SEQEND
8
0
0
INSERT
8
0
2
EPAD
10
-0.601850
20
0.377953
41
0.100000
42
0.100000
0
INSERT
8
0
2
EPAD
10
-0.801850
20
0.377953
41
0.100000
42
0.100000
0
POLYLINE
8
0
66
1
70
1
40
0
41
0
0
VERTEX
8
0
10
-0.652559
20
0.554685
0
VERTEX
8
0
10
-0.612559
20
0.554685
0
VERTEX
8
0
10
-0.611520
20
0.554635
0
VERTEX
8
0
10
-0.610515
20
0.554486
0
VERTEX
8
0
10
-0.609548
20
0.554244
0
VERTEX
8
0
10
-0.608624
20
0.553913
0
VERTEX
8
0
10
-0.607747
20
0.553499
0
VERTEX
8
0
10
-0.606923
20
0.553004
0
VERTEX
8
0
10
-0.606156
20
0.552435
0
VERTEX
8
0
10
-0.605450
20
0.551794
0
VERTEX
8
0
10
-0.604809
20
0.551088
0
VERTEX
8
0
10
-0.604240
20
0.550321
0
VERTEX
8
0
10
-0.603746
20
0.549497
0
VERTEX
8
0
10
-0.603331
20
0.548620
0
VERTEX
8
0
10
-0.603000
20
0.547696
0
VERTEX
8
0
10
-0.602758
20
0.546730
0
VERTEX
8
0
10
-0.602609
20
0.545724
0
VERTEX
8
0
10
-0.602559
20
0.544685
0
VERTEX
8
0
10
-0.602559
20
0.494685
0
VERTEX
8
0
10
-0.602609
20
0.493646
0
VERTEX
8
0
10
-0.602758
20
0.492641
0
VERTEX
8
0
10
-0.603000
20
0.491674
0
VERTEX
8
0
10
-0.603331
20
0.490750
0
VERTEX
8
0
10
-0.603746
20
0.489873
0
VERTEX
8
0
10
-0.604240
20
0.489049
0
VERTEX
8
0
10
-0.604809
20
0.488282
0
VERTEX
8
0
10
-0.605450
20
0.487576
0
VERTEX
8
0
10
-0.606156
20
0.486935
0
VERTEX
8
0
10
-0.606923
20
0.486366
0
VERTEX
8
0
10
-0.607747
20
0.485871
0
VERTEX
8
0
10
-0.608624
20
0.485457
0
VERTEX
8
0
10
-0.609548
20
0.485126
0
VERTEX
8
0
10
-0.610515
20
0.484884
0
VERTEX
8
0
10
-0.611520
20
0.484735
0
VERTEX
8
0
10
-0.612559
20
0.484685
0
VERTEX
8
0
10
-0.652559
20
0.484685
0
VERTEX
8
0
10
-0.653598
20
0.484735
0
VERTEX
8
0
10
-0.654604
20
0.484884
0
VERTEX
8
0
10
-0.655570
20
0.485126
0
VERTEX
8
0
10
-0.656494
20
0.485457
0
VERTEX
8
0
10
-0.657371
20
0.485871
0
VERTEX
8
0
10
-0.658195
20
0.486366
0
VERTEX
8
0
10
-0.658963
20
0.486935
0
VERTEX
8
0
10
-0.659669
20
0.487576
0
VERTEX
8
0
10
-0.660309
20
0.488282
0
VERTEX
8
0
10
-0.660878
20
0.489049
0
VERTEX
8
0
10
-0.661372
20
0.489873
0
VERTEX
8
0
10
-0.661787
20
0.490750
0
VERTEX
8
0
10
-0.662118
20
0.491674
0
VERTEX
8
0
10
-0.662360
20
0.492641
0
VERTEX
8
0
10
-0.662509
20
0.493646
0
VERTEX
8
0
10
-0.662559
20
0.494685
0
VERTEX
8
0
10
-0.662559
20
0.544685
0
VERTEX
8
0
10
-0.662509
20
0.545724
0
VERTEX
8
0
10
-0.662360
20
0.546730
0
VERTEX
8
0
10
-0.662118
20
0.547696
0
VERTEX
8
0
10
-0.661787
20
0.548620
0
VERTEX
8
0
10
-0.661372
20
0.549497
0
VERTEX
8
0
10
-0.660878
20
0.550321
0
VERTEX
8
0
10
-0.660309
20
0.551088
0
VERTEX
8
0
10
-0.659669
20
0.551794
0
VERTEX
8
0
10
-0.658963
20
0.552435
0
VERTEX
8
0
10
-0.658195
20
0.553004
0
VERTEX
8
0
10
-0.657371
20
0.553499
0
VERTEX
8
0
10
-0.656494
20
0.553913
0
VERTEX
8
0
10
-0.655570
20
0.554244
0
VERTEX
8
0
10
-0.654604
20
0.554486
0
VERTEX
8
0
10
-0.653598
20
0.554635
0
VERTEX
8
0
10
-0.652559
20
0.554685
0
SEQEND
8
0
0
POLYLINE
8
0
66
1
70
1
40
0
41
0
0
VERTEX
8
0
10
-0.568559
20
0.554685
0
VERTEX
8
0
10
-0.528559
20
0.554685
0
VERTEX
8
0
10
-0.527520
20
0.554635
0
VERTEX
8
0
10
-0.526515
20
0.554486
0
VERTEX
8
0
10
-0.525548
20
0.554244
0
VERTEX
8
0
10
-0.524624
20
0.553913
0
VERTEX
8
0
10
-0.523747
20
0.553499
0
VERTEX
8
0
10
-0.522923
20
0.553004
0
VERTEX
8
0
10
-0.522156
20
0.552435
0
VERTEX
8
0
10
-0.521450
20
0.551794
0
VERTEX
8
0
10
-0.520809
20
0.551088
0
VERTEX
8
0
10
-0.520240
20
0.550321
0
VERTEX
8
0
10
-0.519746
20
0.549497
0
VERTEX
8
0
10
-0.519331
20
0.548620
0
VERTEX
8
0
10
-0.519000
20
0.547696
0
VERTEX
8
0
10
-0.518758
20
0.546730
0
VERTEX
8
0
10
-0.518609
20
0.545724
0
VERTEX
8
0
10
-0.518559
20
0.544685
0
VERTEX
8
0
10
-0.518559
20
0.494685
0
VERTEX
8
0
10
-0.518609
20
0.493646
0
VERTEX
8
0
10
-0.518758
20
0.492641
0
VERTEX
8
0
10
-0.519000
20
0.491674
0
VERTEX
8
0
10
-0.519331
20
0.490750
0
VERTEX
8
0
10
-0.519746
20
0.489873
0
VERTEX
8
0
10
-0.520240
20
0.489049
0
VERTEX
8
0
10
-0.520809
20
0.488282
0
VERTEX
8
0
10
-0.521450
20
0.487576
0
VERTEX
8
0
10
-0.522156
20
0.486935
0
VERTEX
8
0
10
-0.522923
20
0.486366
0
VERTEX
8
0
10
-0.523747
20
0.485871
0
VERTEX
8
0
10
-0.524624
20
0.485457
0
VERTEX
8
0
10
-0.525548
20
0.485126
0
VERTEX
8
0
10
-0.526515
20
0.484884
0
VERTEX
8
0
10
-0.527520
20
0.484735
0
VERTEX
8
0
10
-0.528559
20
0.484685
0
VERTEX
8
0
10
-0.568559
20
0.484685
0
VERTEX
8
0
10
-0.569598
20
0.484735
0
VERTEX
8
0
10
-0.570604
20
0.484884
0
VERTEX
8
0
10
-0.571570
20
0.485126
0
VERTEX
8
0
10
-0.572494
20
0.485457
0
VERTEX
8
0
10
-0.573371
20
0.485871
0
VERTEX
8
0
10
-0.574195
20
0.486366
0
VERTEX
8
0
10
-0.574963
20
0.486935
0
VERTEX
8
0
10
-0.575669
20
0.487576
0
VERTEX
8
0
10
-0.576309
20
0.488282
0
VERTEX
8
0
10
-0.576878
20
0.489049
0
VERTEX
8
0
10
-0.577372
20
0.489873
0
VERTEX
8
0
10
-0.577787
20
0.490750
0
VERTEX
8
0
10
-0.578118
20
0.491674
0
VERTEX
8
0
10
-0.578360
20
0.492641
0
VERTEX
8
0
10
-0.578509
20
0.493646
0
VERTEX
8
0
10
-0.578559
20
0.494685
0
VERTEX
8
0
10
-0.578559
20
0.544685
0
VERTEX
8
0
10
-0.578509
20
0.545724
0
VERTEX
8
0
10
-0.578360
20
0.546730
0
VERTEX
8
0
10
-0.578118
20
0.547696
0
VERTEX
8
0
10
-0.577787
20
0.548620
0
VERTEX
8
0
10
-0.577372
20
0.549497
0
VERTEX
8
0
10
-0.576878
20
0.550321
0
VERTEX
8
0
10
-0.576309
20
0.551088
0
VERTEX
8
0
10
-0.575669
20
0.551794
0
VERTEX
8
0
10
-0.574963
20
0.552435
0
VERTEX
8
0
10
-0.574195
20
0.553004
0
VERTEX
8
0
10
-0.573371
20
0.553499
0
VERTEX
8
0
10
-0.572494
20
0.553913
0
VERTEX
8
0
10
-0.571570
20
0.554244
0
VERTEX
8
0
10
-0.570604
20
0.554486
0
VERTEX
8
0
10
-0.569598
20
0.554635
0
VERTEX
8
0
10
-0.568559
20
0.554685
0
SEQEND
8
0
0
POLYLINE
8
0
66
1
70
1
40
0
41
0
0
VERTEX
8
0
10
0.021606
20
0.402835
0
VERTEX
8
0
10
0.067606
20
0.402835
0
VERTEX
8
0
10
0.071082
20
0.402496
0
VERTEX
8
0
10
0.074296
20
0.401523
0
VERTEX
8
0
10
0.077187
20
0.399977
0
VERTEX
8
0
10
0.079692
20
0.397920
0
VERTEX
8
0
10
0.081749
20
0.395416
0
VERTEX
8
0
10
0.083295
20
0.392525
0
VERTEX
8
0
10
0.084268
20
0.389311
0
VERTEX
8
0
10
0.084606
20
0.385835
0
VERTEX
8
0
10
0.084606
20
0.259835
0
VERTEX
8
0
10
0.084268
20
0.256359
0
VERTEX
8
0
10
0.083295
20
0.253144
0
VERTEX
8
0
10
0.081749
20
0.250254
0
VERTEX
8
0
10
0.079692
20
0.247749
0
VERTEX
8
0
10
0.077187
20
0.245692
0
VERTEX
8
0
10
0.074296
20
0.244146
0
VERTEX
8
0
10
0.071082
20
0.243173
0
VERTEX
8
0
10
0.067606
20
0.242835
0
VERTEX
8
0
10
0.021606
20
0.242835
0
VERTEX
8
0
10
0.018130
20
0.243173
0
VERTEX
8
0
10
0.014916
20
0.244146
0
VERTEX
8
0
10
0.012025
20
0.245692
0
VERTEX
8
0
10
0.009520
20
0.247749
0
VERTEX
8
0
10
0.007464
20
0.250254
0
VERTEX
8
0
10
0.005918
20
0.253144
0
VERTEX
8
0
10
0.004944
20
0.256359
0
VERTEX
8
0
10
0.004606
20
0.259835
0
VERTEX
8
0
10
0.004606
20
0.385835
0
VERTEX
8
0
10
0.004944
20
0.389311
0
VERTEX
8
0
10
0.005918
20
0.392525
0
VERTEX
8
0
10
0.007464
20
0.395416
0
VERTEX
8
0
10
0.009520
20
0.397920
0
VERTEX
8
0
10
0.012025
20
0.399977
0
VERTEX
8
0
10
0.014916
20
0.401523
0
VERTEX
8
0
10
0.018130
20
0.402496
0
VERTEX
8
0
10
0.021606
20
0.402835
0
SEQEND
8
0
0
POLYLINE
8
0
66
1
70
1
40
0
41
0
0
VERTEX
8
0
10
0.324756
20
0.402835
0
VERTEX
8
0
10
0.370756
20
0.402835
0
VERTEX
8
0
10
0.374232
20
0.402496
0
VERTEX
8
0
10
0.377446
20
0.401523
0
VERTEX
8
0
10
0.380337
20
0.399977
0
VERTEX
8
0
10
0.382842
20
0.397920
0
VERTEX
8
0
10
0.384898
20
0.395416
0
VERTEX
8
0
10
0.386444
20
0.392525
0
VERTEX
8
0
10
0.387418
20
0.389311
0
VERTEX
8
0
10
0.387756
20
0.385835
0
VERTEX
8
0
10
0.387756
20
0.259835
0
VERTEX
8
0
10
0.387418
20
0.256359
0
VERTEX
8
0
10
0.386444
20
0.253144
0
VERTEX
8
0
10
0.384898
20
0.250254
0
VERTEX
8
0
10
0.382842
20
0.247749
0
VERTEX
8
0
10
0.380337
20
0.245692
0
VERTEX
8
0
10
0.377446
20
0.244146
0
VERTEX
8
0
10
0.374232
20
0.243173
0
VERTEX
8
0
10
0.370756
20
0.242835
0
VERTEX
8
0
10
0.324756
20
0.242835
0
VERTEX
8
0
10
0.321280
20
0.243173
0
VERTEX
8
0
10
0.318066
20
0.244146
0
VERTEX
8
0
10
0.315175
20
0.245692
0
VERTEX
8
0
10
0.312670
20
0.247749
0
VERTEX
8
0
10
0.310613
20
0.250254
0
VERTEX
8
0
10
0.309067
20
0.253144
0
VERTEX
8
0
10
0.308094
20
0.256359
0
VERTEX
8
0
10
0.307756
20
0.259835
0
VERTEX
8
0
10
0.307756
20
0.385835
0
VERTEX
8
0
10
0.308094
20
0.389311
0
VERTEX
8
0
10
0.309067
20
0.392525
0
VERTEX
8
0
10
0.310613
20
0.395416
0
VERTEX
8
0
10
0.312670
20
0.397920
0
VERTEX
8
0
10
0.315175
20
0.399977
0
VERTEX
8
0
10
0.318066
20
0.401523
0
VERTEX
8
0
10
0.321280
20
0.402496
0
VERTEX
8
0
10
0.324756
20
0.402835
0
SEQEND
8
0
0
POLYLINE
8
0
66
1
70
1
40
0
41
0
0
VERTEX
8
0
10
0.010354
20
-0.313701
0
VERTEX
8
0
10
0.010354
20
-0.253701
0
VERTEX
8
0
10
0.010405
20
-0.252661
0
VERTEX
8
0
10
0.010553
20
-0.251656
0
VERTEX
8
0
10
0.010795
20
-0.250689
0
VERTEX
8
0
10
0.011126
20
-0.249765
0
VERTEX
8
0
10
0.011541
20
-0.248889
0
VERTEX
8
0
10
0.012035
20
-0.248065
0
VERTEX
8
0
10
0.012605
20
-0.247297
0
VERTEX
8
0
10
0.013245
20
-0.246591
0
VERTEX
8
0
10
0.013951
20
-0.245951
0
VERTEX
8
0
10
0.014719
20
-0.245382
0
VERTEX
8
0
10
0.015543
20
-0.244887
0
VERTEX
8
0
10
0.016419
20
-0.244472
0
VERTEX
8
0
10
0.017343
20
-0.244142
0
VERTEX
8
0
10
0.018310
20
-0.243900
0
VERTEX
8
0
10
0.019315
20
-0.243751
0
VERTEX
8
0
10
0.020354
20
-0.243701
0
VERTEX
8
0
10
0.100354
20
-0.243701
0
VERTEX
8
0
10
0.101394
20
-0.243751
0
VERTEX
8
0
10
0.102399
20
-0.243900
0
VERTEX
8
0
10
0.103366
20
-0.244142
0
VERTEX
8
0
10
0.104290
20
-0.244472
0
VERTEX
8
0
10
0.105166
20
-0.244887
0
VERTEX
8
0
10
0.105990
20
-0.245382
0
VERTEX
8
0
10
0.106757
20
-0.245951
0
VERTEX
8
0
10
0.107464
20
-0.246591
0
VERTEX
8
0
10
0.108104
20
-0.247297
0
VERTEX
8
0
10
0.108673
20
-0.248065
0
VERTEX
8
0
10
0.109168
20
-0.248889
0
VERTEX
8
0
10
0.109583
20
-0.249765
0
VERTEX
8
0
10
0.109913
20
-0.250689
0
VERTEX
8
0
10
0.110156
20
-0.251656
0
VERTEX
8
0
10
0.110304
20
-0.252661
0
VERTEX
8
0
10
0.110354
20
-0.253701
0
VERTEX
8
0
10
0.110354
20
-0.313701
0
VERTEX
8
0
10
0.110304
20
-0.314740
0
VERTEX
8
0
10
0.110156
20
-0.315745
0
VERTEX
8
0
10
0.109913
20
-0.316712
0
VERTEX
8
0
10
0.109583
20
-0.317636
0
VERTEX
8
0
10
0.109168
20
-0.318513
0
VERTEX
8
0
10
0.108673
20
-0.319337
0
VERTEX
8
0
10
0.108104
20
-0.320104
0
VERTEX
8
0
10
0.107464
20
-0.320810
0
VERTEX
8
0
10
0.106757
20
-0.321450
0
VERTEX
8
0
10
0.105990
20
-0.322020
0
VERTEX
8
0
10
0.105166
20
-0.322514
0
VERTEX
8
0
10
0.104290
20
-0.322929
0
VERTEX
8
0
10
0.103366
20
-0.323260
0
VERTEX
8
0
10
0.102399
20
-0.323502
0
VERTEX
8
0
10
0.101394
20
-0.323650
0
VERTEX
8
0
10
0.100354
20
-0.323701
0
VERTEX
8
0
10
0.020354
20
-0.323701
0
VERTEX
8
0
10
0.019315
20
-0.323650
0
VERTEX
8
0
10
0.018310
20
-0.323502
0
VERTEX
8
0
10
0.017343
20
-0.323260
0
VERTEX
8
0
10
0.016419
20
-0.322929
0
VERTEX
8
0
10
0.015543
20
-0.322514
0
VERTEX
8
0
10
0.014719
20
-0.322020
0
VERTEX
8
0
10
0.013951
20
-0.321450
0
VERTEX
8
0
10
0.013245
20
-0.320810
0
VERTEX
8
0
10
0.012605
20
-0.320104
0
VERTEX
8
0
10
0.012035
20
-0.319337
0
VERTEX
8
0
10
0.011541
20
-0.318513
0
VERTEX
8
0
10
0.011126
20
-0.317636
0
VERTEX
8
0
10
0.010795
20
-0.316712
0
VERTEX
8
0
10
0.010553
20
-0.315745
0
VERTEX
8
0
10
0.010405
20
-0.314740
0
VERTEX
8
0
10
0.010354
20
-0.313701
0
SEQEND
8
0
0
POLYLINE
8
0
66
1
70
1
40
0
41
0
0
VERTEX
8
0
10
0.010354
20
-0.423701
0
VERTEX
8
0
10
0.010354
20
-0.363701
0
VERTEX
8
0
10
0.010405
20
-0.362661
0
VERTEX
8
0
10
0.010553
20
-0.361656
0
VERTEX
8
0
10
0.010795
20
-0.360689
0
VERTEX
8
0
10
0.011126
20
-0.359765
0
VERTEX
8
0
10
0.011541
20
-0.358889
0
VERTEX
8
0
10
0.012035
20
-0.358065
0
VERTEX
8
0
10
0.012605
20
-0.357297
0
VERTEX
8
0
10
0.013245
20
-0.356591
0
VERTEX
8
0
10
0.013951
20
-0.355951
0
VERTEX
8
0
10
0.014719
20
-0.355382
0
VERTEX
8
0
10
0.015543
20
-0.354887
0
VERTEX
8
0
10
0.016419
20
-0.354472
0
VERTEX
8
0
10
0.017343
20
-0.354142
0
VERTEX
8
0
10
0.018310
20
-0.353900
0
VERTEX
8
0
10
0.019315
20
-0.353751
0
VERTEX
8
0
10
0.020354
20
-0.353701
0
VERTEX
8
0
10
0.100354
20
-0.353701
0
VERTEX
8
0
10
0.101394
20
-0.353751
0
VERTEX
8
0
10
0.102399
20
-0.353900
0
VERTEX
8
0
10
0.103366
20
-0.354142
0
VERTEX
8
0
10
0.104290
20
-0.354472
0
VERTEX
8
0
10
0.105166
20
-0.354887
0
VERTEX
8
0
10
0.105990
20
-0.355382
0
VERTEX
8
0
10
0.106757
20
-0.355951
0
VERTEX
8
0
10
0.107464
20
-0.356591
0
VERTEX
8
0
10
0.108104
20
-0.357297
0
VERTEX
8
0
10
0.108673
20
-0.358065
0
VERTEX
8
0
10
0.109168
20
-0.358889
0
VERTEX
8
0
10
0.109583
20
-0.359765
0
VERTEX
8
0
10
0.109913
20
-0.360689
0
VERTEX
8
0
10
0.110156
20
-0.361656
0
VERTEX
8
0
10
0.110304
20
-0.362661
0
VERTEX
8
0
10
0.110354
20
-0.363701
0
VERTEX
8
0
10
0.110354
20
-0.423701
0
VERTEX
8
0
10
0.110304
20
-0.424740
0
VERTEX
8
0
10
0.110156
20
-0.425745
0
VERTEX
8
0
10
0.109913
20
-0.426712
0
VERTEX
8
0
10
0.109583
20
-0.427636
0
VERTEX
8
0
10
0.109168
20
-0.428513
0
VERTEX
8
0
10
0.108673
20
-0.429337
0
VERTEX
8
0
10
0.108104
20
-0.430104
0
VERTEX
8
0
10
0.107464
20
-0.430810
0
VERTEX
8
0
10
0.106757
20
-0.431450
0
VERTEX
8
0
10
0.105990
20
-0.432020
0
VERTEX
8
0
10
0.105166
20
-0.432514
0
VERTEX
8
0
10
0.104290
20
-0.432929
0
VERTEX
8
0
10
0.103366
20
-0.433260
0
VERTEX
8
0
10
0.102399
20
-0.433502
0
VERTEX
8
0
10
0.101394
20
-0.433650
0
VERTEX
8
0
10
0.100354
20
-0.433701
0
VERTEX
8
0
10
0.020354
20
-0.433701
0
VERTEX
8
0
10
0.019315
20
-0.433650
0
VERTEX
8
0
10
0.018310
20
-0.433502
0
VERTEX
8
0
10
0.017343
20
-0.433260
0
VERTEX
8
0
10
0.016419
20
-0.432929
0
VERTEX
8
0
10
0.015543
20
-0.432514
0
VERTEX
8
0
10
0.014719
20
-0.432020
0
VERTEX
8
0
10
0.013951
20
-0.431450
0
VERTEX
8
0
10
0.013245
20
-0.430810
0
VERTEX
8
0
10
0.012605
20
-0.430104
0
VERTEX
8
0
10
0.012035
20
-0.429337
0
VERTEX
8
0
10
0.011541
20
-0.428513
0
VERTEX
8
0
10
0.011126
20
-0.427636
0
VERTEX
8
0
10
0.010795
20
-0.426712
0
VERTEX
8
0
10
0.010553
20
-0.425745
0
VERTEX
8
0
10
0.010405
20
-0.424740
0
VERTEX
8
0
10
0.010354
20
-0.423701
0
SEQEND
8
0
0
POLYLINE
8
0
66
1
70
1
40
0
41
0
0
VERTEX
8
0
10
-0.560433
20
-0.213780
0
VERTEX
8
0
10
-0.500433
20
-0.213780
0
VERTEX
8
0
10
-0.499394
20
-0.213830
0
VERTEX
8
0
10
-0.498389
20
-0.213978
0
VERTEX
8
0
10
-0.497422
20
-0.214220
0
VERTEX
8
0
10
-0.496498
20
-0.214551
0
VERTEX
8
0
10
-0.495621
20
-0.214966
0
VERTEX
8
0
10
-0.494797
20
-0.215461
0
VERTEX
8
0
10
-0.494030
20
-0.216030
0
VERTEX
8
0
10
-0.493324
20
-0.216670
0
VERTEX
8
0
10
-0.492683
20
-0.217376
0
VERTEX
8
0
10
-0.492114
20
-0.218144
0
VERTEX
8
0
10
-0.491620
20
-0.218968
0
VERTEX
8
0
10
-0.491205
20
-0.219844
0
VERTEX
8
0
10
-0.490874
20
-0.220768
0
VERTEX
8
0
10
-0.490632
20
-0.221735
0
VERTEX
8
0
10
-0.490483
20
-0.222740
0
VERTEX
8
0
10
-0.490433
20
-0.223780
0
VERTEX
8
0
10
-0.490433
20
-0.303780
0
VERTEX
8
0
10
-0.490483
20
-0.304819
0
VERTEX
8
0
10
-0.490632
20
-0.305824
0
VERTEX
8
0
10
-0.490874
20
-0.306791
0
VERTEX
8
0
10
-0.491205
20
-0.307715
0
VERTEX
8
0
10
-0.491620
20
-0.308591
0
VERTEX
8
0
10
-0.492114
20
-0.309415
0
VERTEX
8
0
10
-0.492683
20
-0.310183
0
VERTEX
8
0
10
-0.493324
20
-0.310889
0
VERTEX
8
0
10
-0.494030
20
-0.311529
0
VERTEX
8
0
10
-0.494797
20
-0.312098
0
VERTEX
8
0
10
-0.495621
20
-0.312593
0
VERTEX
8
0
10
-0.496498
20
-0.313008
0
VERTEX
8
0
10
-0.497422
20
-0.313339
0
VERTEX
8
0
10
-0.498389
20
-0.313581
0
VERTEX
8
0
10
-0.499394
20
-0.313729
0
VERTEX
8
0
10
-0.500433
20
-0.313780
0
VERTEX
8
0
10
-0.560433
20
-0.313780
0
VERTEX
8
0
10
-0.561472
20
-0.313729
0
VERTEX
8
0
10
-0.562478
20
-0.313581
0
VERTEX
8
0
10
-0.563444
20
-0.313339
0
VERTEX
8
0
10
-0.564369
20
-0.313008
0
VERTEX
8
0
10
-0.565245
20
-0.312593
0
VERTEX
8
0
10
-0.566069
20
-0.312098
0
VERTEX
8
0
10
-0.566837
20
-0.311529
0
VERTEX
8
0
10
-0.567543
20
-0.310889
0
VERTEX
8
0
10
-0.568183
20
-0.310183
0
VERTEX
8
0
10
-0.568752
20
-0.309415
0
VERTEX
8
0
10
-0.569246
20
-0.308591
0
VERTEX
8
0
10
-0.569661
20
-0.307715
0
VERTEX
8
0
10
-0.569992
20
-0.306791
0
VERTEX
8
0
10
-0.570234
20
-0.305824
0
VERTEX
8
0
10
-0.570383
20
-0.304819
0
VERTEX
8
0
10
-0.570433
20
-0.303780
0
VERTEX
8
0
10
-0.570433
20
-0.223780
0
VERTEX
8
0
10
-0.570383
20
-0.222740
0
VERTEX
8
0
10
-0.570234
20
-0.221735
0
VERTEX
8
0
10
-0.569992
20
-0.220768
0
VERTEX
8
0
10
-0.569661
20
-0.219844
0
VERTEX
8
0
10
-0.569246
20
-0.218968
0
VERTEX
8
0
10
-0.568752
20
-0.218144
0
VERTEX
8
0
10
-0.568183
20
-0.217376
0
VERTEX
8
0
10
-0.567543
20
-0.216670
0
VERTEX
8
0
10
-0.566837
20
-0.216030
0
VERTEX
8
0
10
-0.566069
20
-0.215461
0
VERTEX
8
0
10
-0.565245
20
-0.214966
0
VERTEX
8
0
10
-0.564369
20
-0.214551
0
VERTEX
8
0
10
-0.563444
20
-0.214220
0
VERTEX
8
0
10
-0.562478
20
-0.213978
0
VERTEX
8
0
10
-0.561472
20
-0.213830
0
VERTEX
8
0
10
-0.560433
20
-0.213780
0
SEQEND
8
0
0
POLYLINE
8
0
66
1
70
1
40
0
41
0
0
VERTEX
8
0
10
-0.670433
20
-0.213780
0
VERTEX
8
0
10
-0.610433
20
-0.213780
0
VERTEX
8
0
10
-0.609394
20
-0.213830
0
VERTEX
8
0
10
-0.608389
20
-0.213978
0
VERTEX
8
0
10
-0.607422
20
-0.214220
0
VERTEX
8
0
10
-0.606498
20
-0.214551
0
VERTEX
8
0
10
-0.605621
20
-0.214966
0
VERTEX
8
0
10
-0.604797
20
-0.215461
0
VERTEX
8
0
10
-0.604030
20
-0.216030
0
VERTEX
8
0
10
-0.603324
20
-0.216670
0
VERTEX
8
0
10
-0.602683
20
-0.217376
0
VERTEX
8
0
10
-0.602114
20
-0.218144
0
VERTEX
8
0
10
-0.601620
20
-0.218968
0
VERTEX
8
0
10
-0.601205
20
-0.219844
0
VERTEX
8
0
10
-0.600874
20
-0.220768
0
VERTEX
8
0
10
-0.600632
20
-0.221735
0
VERTEX
8
0
10
-0.600483
20
-0.222740
0
VERTEX
8
0
10
-0.600433
20
-0.223780
0
VERTEX
8
0
10
-0.600433
20
-0.303780
0
VERTEX
8
0
10
-0.600483
20
-0.304819
0
VERTEX
8
0
10
-0.600632
20
-0.305824
0
VERTEX
8
0
10
-0.600874
20
-0.306791
0
VERTEX
8
0
10
-0.601205
20
-0.307715
0
VERTEX
8
0
10
-0.601620
20
-0.308591
0
VERTEX
8
0
10
-0.602114
20
-0.309415
0
VERTEX
8
0
10
-0.602683
20
-0.310183
0
VERTEX
8
0
10
-0.603324
20
-0.310889
0
VERTEX
8
0
10
-0.604030
20
-0.311529
0
VERTEX
8
0
10
-0.604797
20
-0.312098
0
VERTEX
8
0
10
-0.605621
20
-0.312593
0
VERTEX
8
0
10
-0.606498
20
-0.313008
0
VERTEX
8
0
10
-0.607422
20
-0.313339
0
VERTEX
8
0
10
-0.608389
20
-0.313581
0
VERTEX
8
0
10
-0.609394
20
-0.313729
0
VERTEX
8
0
10
-0.610433
20
-0.313780
0
VERTEX
8
0
10
-0.670433
20
-0.313780
0
VERTEX
8
0
10
-0.671472
20
-0.313729
0
VERTEX
8
0
10
-0.672478
20
-0.313581
0
VERTEX
8
0
10
-0.673444
20
-0.313339
0
VERTEX
8
0
10
-0.674369
20
-0.313008
0
VERTEX
8
0
10
-0.675245
20
-0.312593
0
VERTEX
8
0
10
-0.676069
20
-0.312098
0
VERTEX
8
0
10
-0.676837
20
-0.311529
0
VERTEX
8
0
10
-0.677543
20
-0.310889
0
VERTEX
8
0
10
-0.678183
20
-0.310183
0
VERTEX
8
0
10
-0.678752
20
-0.309415
0
VERTEX
8
0
10
-0.679246
20
-0.308591
0
VERTEX
8
0
10
-0.679661
20
-0.307715
0
VERTEX
8
0
10
-0.679992
20
-0.306791
0
VERTEX
8
0
10
-0.680234
20
-0.305824
0
VERTEX
8
0
10
-0.680383
20
-0.304819
0
VERTEX
8
0
10
-0.680433
20
-0.303780
0
VERTEX
8
0
10
-0.680433
20
-0.223780
0
VERTEX
8
0
10
-0.680383
20
-0.222740
0
VERTEX
8
0
10
-0.680234
20
-0.221735
0
VERTEX
8
0
10
-0.679992
20
-0.220768
0
VERTEX
8
0
10
-0.679661
20
-0.219844
0
VERTEX
8
0
10
-0.679246
20
-0.218968
0
VERTEX
8
0
10
-0.678752
20
-0.218144
0
VERTEX
8
0
10
-0.678183
20
-0.217376
0
VERTEX
8
0
10
-0.677543
20
-0.216670
0
VERTEX
8
0
10
-0.676837
20
-0.216030
0
VERTEX
8
0
10
-0.676069
20
-0.215461
0
VERTEX
8
0
10
-0.675245
20
-0.214966
0
VERTEX
8
0
10
-0.674369
20
-0.214551
0
VERTEX
8
0
10
-0.673444
20
-0.214220
0
VERTEX
8
0
10
-0.672478
20
-0.213978
0
VERTEX
8
0
10
-0.671472
20
-0.213830
0
VERTEX
8
0
10
-0.670433
20
-0.213780
0
SEQEND
8
0
0
POLYLINE
8
0
66
1
70
1
40
0
41
0
0
VERTEX
8
0
10
0.748150
20
0.421890
0
VERTEX
8
0
10
0.748150
20
0.341890
0
VERTEX
8
0
10
0.748099
20
0.340850
0
VERTEX
8
0
10
0.747951
20
0.339845
0
VERTEX
8
0
10
0.747709
20
0.338878
0
VERTEX
8
0
10
0.747378
20
0.337954
0
VERTEX
8
0
10
0.746963
20
0.337078
0
VERTEX
8
0
10
0.746469
20
0.336254
0
VERTEX
8
0
10
0.745899
20
0.335486
0
VERTEX
8
0
10
0.745259
20
0.334780
0
VERTEX
8
0
10
0.744553
20
0.334140
0
VERTEX
8
0
10
0.743785
20
0.333571
0
VERTEX
8
0
10
0.742961
20
0.333076
0
VERTEX
8
0
10
0.742085
20
0.332661
0
VERTEX
8
0
10
0.741161
20
0.332331
0
VERTEX
8
0
10
0.740194
20
0.332089
0
VERTEX
8
0
10
0.739189
20
0.331940
0
VERTEX
8
0
10
0.738150
20
0.331890
0
VERTEX
8
0
10
0.658150
20
0.331890
0
VERTEX
8
0
10
0.657110
20
0.331940
0
VERTEX
8
0
10
0.656105
20
0.332089
0
VERTEX
8
0
10
0.655138
20
0.332331
0
VERTEX
8
0
10
0.654214
20
0.332661
0
VERTEX
8
0
10
0.653338
20
0.333076
0
VERTEX
8
0
10
0.652514
20
0.333571
0
VERTEX
8
0
10
0.651746
20
0.334140
0
VERTEX
8
0
10
0.651040
20
0.334780
0
VERTEX
8
0
10
0.650400
20
0.335486
0
VERTEX
8
0
10
0.649831
20
0.336254
0
VERTEX
8
0
10
0.649336
20
0.337078
0
VERTEX
8
0
10
0.648921
20
0.337954
0
VERTEX
8
0
10
0.648591
20
0.338878
0
VERTEX
8
0
10
0.648348
20
0.339845
0
VERTEX
8
0
10
0.648200
20
0.340850
0
VERTEX
8
0
10
0.648150
20
0.341890
0
VERTEX
8
0
10
0.648150
20
0.421890
0
VERTEX
8
0
10
0.648200
20
0.422929
0
VERTEX
8
0
10
0.648348
20
0.423934
0
VERTEX
8
0
10
0.648591
20
0.424901
0
VERTEX
8
0
10
0.648921
20
0.425825
0
VERTEX
8
0
10
0.649336
20
0.426702
0
VERTEX
8
0
10
0.649831
20
0.427526
0
VERTEX
8
0
10
0.650400
20
0.428293
0
VERTEX
8
0
10
0.651040
20
0.428999
0
VERTEX
8
0
10
0.651746
20
0.429639
0
VERTEX
8
0
10
0.652514
20
0.430209
0
VERTEX
8
0
10
0.653338
20
0.430703
0
VERTEX
8
0
10
0.654214
20
0.431118
0
VERTEX
8
0
10
0.655138
20
0.431449
0
VERTEX
8
0
10
0.656105
20
0.431691
0
VERTEX
8
0
10
0.657110
20
0.431839
0
VERTEX
8
0
10
0.658150
20
0.431890
0
VERTEX
8
0
10
0.738150
20
0.431890
0
VERTEX
8
0
10
0.739189
20
0.431839
0
VERTEX
8
0
10
0.740194
20
0.431691
0
VERTEX
8
0
10
0.741161
20
0.431449
0
VERTEX
8
0
10
0.742085
20
0.431118
0
VERTEX
8
0
10
0.742961
20
0.430703
0
VERTEX
8
0
10
0.743785
20
0.430209
0
VERTEX
8
0
10
0.744553
20
0.429639
0
VERTEX
8
0
10
0.745259
20
0.428999
0
VERTEX
8
0
10
0.745899
20
0.428293
0
VERTEX
8
0
10
0.746469
20
0.427526
0
VERTEX
8
0
10
0.746963
20
0.426702
0
VERTEX
8
0
10
0.747378
20
0.425825
0
VERTEX
8
0
10
0.747709
20
0.424901
0
VERTEX
8
0
10
0.747951
20
0.423934
0
VERTEX
8
0
10
0.748099
20
0.422929
0
VERTEX
8
0
10
0.748150
20
0.421890
0
SEQEND
8
0
0
POLYLINE
8
0
66
1
70
1
40
0
41
0
0
VERTEX
8
0
10
0.748150
20
0.321890
0
VERTEX
8
0
10
0.748150
20
0.241890
0
VERTEX
8
0
10
0.748099
20
0.240850
0
VERTEX
8
0
10
0.747951
20
0.239845
0
VERTEX
8
0
10
0.747709
20
0.238878
0
VERTEX
8
0
10
0.747378
20
0.237954
0
VERTEX
8
0
10
0.746963
20
0.237078
0
VERTEX
8
0
10
0.746469
20
0.236254
0
VERTEX
8
0
10
0.745899
20
0.235486
0
VERTEX
8
0
10
0.745259
20
0.234780
0
VERTEX
8
0
10
0.744553
20
0.234140
0
VERTEX
8
0
10
0.743785
20
0.233571
0
VERTEX
8
0
10
0.742961
20
0.233076
0
VERTEX
8
0
10
0.742085
20
0.232661
0
VERTEX
8
0
10
0.741161
20
0.232331
0
VERTEX
8
0
10
0.740194
20
0.232089
0
VERTEX
8
0
10
0.739189
20
0.231940
0
VERTEX
8
0
10
0.738150
20
0.231890
0
VERTEX
8
0
10
0.658150
20
0.231890
0
VERTEX
8
0
10
0.657110
20
0.231940
0
VERTEX
8
0
10
0.656105
20
0.232089
0
VERTEX
8
0
10
0.655138
20
0.232331
0
VERTEX
8
0
10
0.654214
20
0.232661
0
VERTEX
8
0
10
0.653338
20
0.233076
0
VERTEX
8
0
10
0.652514
20
0.233571
0
VERTEX
8
0
10
0.651746
20
0.234140
0
VERTEX
8
0
10
0.651040
20
0.234780
0
VERTEX
8
0
10
0.650400
20
0.235486
0
VERTEX
8
0
10
0.649831
20
0.236254
0
VERTEX
8
0
10
0.649336
20
0.237078
0
VERTEX
8
0
10
0.648921
20
0.237954
0
VERTEX
8
0
10
0.648591
20
0.238878
0
VERTEX
8
0
10
0.648348
20
0.239845
0
VERTEX
8
0
10
0.648200
20
0.240850
0
VERTEX
8
0
10
0.648150
20
0.241890
0
VERTEX
8
0
10
0.648150
20
0.321890
0
VERTEX
8
0
10
0.648200
20
0.322929
0
VERTEX
8
0
10
0.648348
20
0.323934
0
VERTEX
8
0
10
0.648591
20
0.324901
0
VERTEX
8
0
10
0.648921
20
0.325825
0
VERTEX
8
0
10
0.649336
20
0.326702
0
VERTEX
8
0
10
0.649831
20
0.327526
0
VERTEX
8
0
10
0.650400
20
0.328293
0
VERTEX
8
0
10
0.651040
20
0.328999
0
VERTEX
8
0
10
0.651746
20
0.329639
0
VERTEX
8
0
10
0.652514
20
0.330209
0
VERTEX
8
0
10
0.653338
20
0.330703
0
VERTEX
8
0
10
0.654214
20
0.331118
0
VERTEX
8
0
10
0.655138
20
0.331449
0
VERTEX
8
0
10
0.656105
20
0.331691
0
VERTEX
8
0
10
0.657110
20
0.331839
0
VERTEX
8
0
10
0.658150
20
0.331890
0
VERTEX
8
0
10
0.738150
20
0.331890
0
VERTEX
8
0
10
0.739189
20
0.331839
0
VERTEX
8
0
10
0.740194
20
0.331691
0
VERTEX
8
0
10
0.741161
20
0.331449
0
VERTEX
8
0
10
0.742085
20
0.331118
0
VERTEX
8
0
10
0.742961
20
0.330703
0
VERTEX
8
0
10
0.743785
20
0.330209
0
VERTEX
8
0
10
0.744553
20
0.329639
0
VERTEX
8
0
10
0.745259
20
0.328999
0
VERTEX
8
0
10
0.745899
20
0.328293
0
VERTEX
8
0
10
0.746469
20
0.327526
0
VERTEX
8
0
10
0.746963
20
0.326702
0
VERTEX
8
0
10
0.747378
20
0.325825
0
VERTEX
8
0
10
0.747709
20
0.324901
0
VERTEX
8
0
10
0.747951
20
0.323934
0
VERTEX
8
0
10
0.748099
20
0.322929
0
VERTEX
8
0
10
0.748150
20
0.321890
0
SEQEND
8
0
0
POLYLINE
8
0
66
1
70
1
40
0
41
0
0
VERTEX
8
0
10
0.748150
20
0.221890
0
VERTEX
8
0
10
0.748150
20
0.141890
0
VERTEX
8
0
10
0.748099
20
0.140850
0
VERTEX
8
0
10
0.747951
20
0.139845
0
VERTEX
8
0
10
0.747709
20
0.138878
0
VERTEX
8
0
10
0.747378
20
0.137954
0
VERTEX
8
0
10
0.746963
20
0.137078
0
VERTEX
8
0
10
0.746469
20
0.136254
0
VERTEX
8
0
10
0.745899
20
0.135486
0
VERTEX
8
0
10
0.745259
20
0.134780
0
VERTEX
8
0
10
0.744553
20
0.134140
0
VERTEX
8
0
10
0.743785
20
0.133571
0
VERTEX
8
0
10
0.742961
20
0.133076
0
VERTEX
8
0
10
0.742085
20
0.132661
0
VERTEX
8
0
10
0.741161
20
0.132331
0
VERTEX
8
0
10
0.740194
20
0.132089
0
VERTEX
8
0
10
0.739189
20
0.131940
0
VERTEX
8
0
10
0.738150
20
0.131890
0
VERTEX
8
0
10
0.658150
20
0.131890
0
VERTEX
8
0
10
0.657110
20
0.131940
0
VERTEX
8
0
10
0.656105
20
0.132089
0
VERTEX
8
0
10
0.655138
20
0.132331
0
VERTEX
8
0
10
0.654214
20
0.132661
0
VERTEX
8
0
10
0.653338
20
0.133076
0
VERTEX
8
0
10
0.652514
20
0.133571
0
VERTEX
8
0
10
0.651746
20
0.134140
0
VERTEX
8
0
10
0.651040
20
0.134780
0
VERTEX
8
0
10
0.650400
20
0.135486
0
VERTEX
8
0
10
0.649831
20
0.136254
0
VERTEX
8
0
10
0.649336
20
0.137078
0
VERTEX
8
0
10
0.648921
20
0.137954
0
VERTEX
8
0
10
0.648591
20
0.138878
0
VERTEX
8
0
10
0.648348
20
0.139845
0
VERTEX
8
0
10
0.648200
20
0.140850
0
VERTEX
8
0
10
0.648150
20
0.141890
0
VERTEX
8
0
10
0.648150
20
0.221890
0
VERTEX
8
0
10
0.648200
20
0.222929
0
VERTEX
8
0
10
0.648348
20
0.223934
0
VERTEX
8
0
10
0.648591
20
0.224901
0
VERTEX
8
0
10
0.648921
20
0.225825
0
VERTEX
8
0
10
0.649336
20
0.226702
0
VERTEX
8
0
10
0.649831
20
0.227526
0
VERTEX
8
0
10
0.650400
20
0.228293
0
VERTEX
8
0
10
0.651040
20
0.228999
0
VERTEX
8
0
10
0.651746
20
0.229639
0
VERTEX
8
0
10
0.652514
20
0.230209
0
VERTEX
8
0
10
0.653338
20
0.230703
0
VERTEX
8
0
10
0.654214
20
0.231118
0
VERTEX
8
0
10
0.655138
20
0.231449
0
VERTEX
8
0
10
0.656105
20
0.231691
0
VERTEX
8
0
10
0.657110
20
0.231839
0
VERTEX
8
0
10
0.658150
20
0.231890
0
VERTEX
8
0
10
0.738150
20
0.231890
0
VERTEX
8
0
10
0.739189
20
0.231839
0
VERTEX
8
0
10
0.740194
20
0.231691
0
VERTEX
8
0
10
0.741161
20
0.231449
0
VERTEX
8
0
10
0.742085
20
0.231118
0
VERTEX
8
0
10
0.742961
20
0.230703
0
VERTEX
8
0
10
0.743785
20
0.230209
0
VERTEX
8
0
10
0.744553
20
0.229639
0
VERTEX
8
0
10
0.745259
20
0.228999
0
VERTEX
8
0
10
0.745899
20
0.228293
0
VERTEX
8
0
10
0.746469
20
0.227526
0
VERTEX
8
0
10
0.746963
20
0.226702
0
VERTEX
8
0
10
0.747378
20
0.225825
0
VERTEX
8
0
10
0.747709
20
0.224901
0
VERTEX
8
0
10
0.747951
20
0.223934
0
VERTEX
8
0
10
0.748099
20
0.222929
0
VERTEX
8
0
10
0.748150
20
0.221890
0
SEQEND
8
0
0
POLYLINE
8
0
66
1
70
1
40
0
41
0
0
VERTEX
8
0
10
0.748150
20
0.121890
0
VERTEX
8
0
10
0.748150
20
0.041890
0
VERTEX
8
0
10
0.748099
20
0.040850
0
VERTEX
8
0
10
0.747951
20
0.039845
0
VERTEX
8
0
10
0.747709
20
0.038878
0
VERTEX
8
0
10
0.747378
20
0.037954
0
VERTEX
8
0
10
0.746963
20
0.037078
0
VERTEX
8
0
10
0.746469
20
0.036254
0
VERTEX
8
0
10
0.745899
20
0.035486
0
VERTEX
8
0
10
0.745259
20
0.034780
0
VERTEX
8
0
10
0.744553
20
0.034140
0
VERTEX
8
0
10
0.743785
20
0.033571
0
VERTEX
8
0
10
0.742961
20
0.033076
0
VERTEX
8
0
10
0.742085
20
0.032661
0
VERTEX
8
0
10
0.741161
20
0.032331
0
VERTEX
8
0
10
0.740194
20
0.032089
0
VERTEX
8
0
10
0.739189
20
0.031940
0
VERTEX
8
0
10
0.738150
20
0.031890
0
VERTEX
8
0
10
0.658150
20
0.031890
0
VERTEX
8
0
10
0.657110
20
0.031940
0
VERTEX
8
0
10
0.656105
20
0.032089
0
VERTEX
8
0
10
0.655138
20
0.032331
0
VERTEX
8
0
10
0.654214
20
0.032661
0
VERTEX
8
0
10
0.653338
20
0.033076
0
VERTEX
8
0
10
0.652514
20
0.033571
0
VERTEX
8
0
10
0.651746
20
0.034140
0
VERTEX
8
0
10
0.651040
20
0.034780
0
VERTEX
8
0
10
0.650400
20
0.035486
0
VERTEX
8
0
10
0.649831
20
0.036254
0
VERTEX
8
0
10
0.649336
20
0.037078
0
VERTEX
8
0
10
0.648921
20
0.037954
0
VERTEX
8
0
10
0.648591
20
0.038878
0
VERTEX
8
0
10
0.648348
20
0.039845
0
VERTEX
8
0
10
0.648200
20
0.040850
0
VERTEX
8
0
10
0.648150
20
0.041890
0
VERTEX
8
0
10
0.648150
20
0.121890
0
VERTEX
8
0
10
0.648200
20
0.122929
0
VERTEX
8
0
10
0.648348
20
0.123934
0
VERTEX
8
0
10
0.648591
20
0.124901
0
VERTEX
8
0
10
0.648921
20
0.125825
0
VERTEX
8
0
10
0.649336
20
0.126702
0
VERTEX
8
0
10
0.649831
20
0.127526
0
VERTEX
8
0
10
0.650400
20
0.128293
0
VERTEX
8
0
10
0.651040
20
0.128999
0
VERTEX
8
0
10
0.651746
20
0.129639
0
VERTEX
8
0
10
0.652514
20
0.130209
0
VERTEX
8
0
10
0.653338
20
0.130703
0
VERTEX
8
0
10
0.654214
20
0.131118
0
VERTEX
8
0
10
0.655138
20
0.131449
0
VERTEX
8
0
10
0.656105
20
0.131691
0
VERTEX
8
0
10
0.657110
20
0.131839
0
VERTEX
8
0
10
0.658150
20
0.131890
0
VERTEX
8
0
10
0.738150
20
0.131890
0
VERTEX
8
0
10
0.739189
20
0.131839
0
VERTEX
8
0
10
0.740194
20
0.131691
0
VERTEX
8
0
10
0.741161
20
0.131449
0
VERTEX
8
0
10
0.742085
20
0.131118
0
VERTEX
8
0
10
0.742961
20
0.130703
0
VERTEX
8
0
10
0.743785
20
0.130209
0
VERTEX
8
0
10
0.744553
20
0.129639
0
VERTEX
8
0
10
0.745259
20
0.128999
0
VERTEX
8
0
10
0.745899
20
0.128293
0
VERTEX
8
0
10
0.746469
20
0.127526
0
VERTEX
8
0
10
0.746963
20
0.126702
0
VERTEX
8
0
10
0.747378
20
0.125825
0
VERTEX
8
0
10
0.747709
20
0.124901
0
VERTEX
8
0
10
0.747951
20
0.123934
0
VERTEX
8
0
10
0.748099
20
0.122929
0
VERTEX
8
0
10
0.748150
20
0.121890
0
SEQEND
8
0
0
POLYLINE
8
0
66
1
70
1
40
0
41
0
0
VERTEX
8
0
10
0.748150
20
0.021890
0
VERTEX
8
0
10
0.748150
20
-0.058110
0
VERTEX
8
0
10
0.748099
20
-0.059150
0
VERTEX
8
0
10
0.747951
20
-0.060155
0
VERTEX
8
0
10
0.747709
20
-0.061122
0
VERTEX
8
0
10
0.747378
20
-0.062046
0
VERTEX
8
0
10
0.746963
20
-0.062922
0
VERTEX
8
0
10
0.746469
20
-0.063746
0
VERTEX
8
0
10
0.745899
20
-0.064514
0
VERTEX
8
0
10
0.745259
20
-0.065220
0
VERTEX
8
0
10
0.744553
20
-0.065860
0
VERTEX
8
0
10
0.743785
20
-0.066429
0
VERTEX
8
0
10
0.742961
20
-0.066924
0
VERTEX
8
0
10
0.742085
20
-0.067339
0
VERTEX
8
0
10
0.741161
20
-0.067669
0
VERTEX
8
0
10
0.740194
20
-0.067911
0
VERTEX
8
0
10
0.739189
20
-0.068060
0
VERTEX
8
0
10
0.738150
20
-0.068110
0
VERTEX
8
0
10
0.658150
20
-0.068110
0
VERTEX
8
0
10
0.657110
20
-0.068060
0
VERTEX
8
0
10
0.656105
20
-0.067911
0
VERTEX
8
0
10
0.655138
20
-0.067669
0
VERTEX
8
0
10
0.654214
20
-0.067339
0
VERTEX
8
0
10
0.653338
20
-0.066924
0
VERTEX
8
0
10
0.652514
20
-0.066429
0
VERTEX
8
0
10
0.651746
20
-0.065860
0
VERTEX
8
0
10
0.651040
20
-0.065220
0
VERTEX
8
0
10
0.650400
20
-0.064514
0
VERTEX
8
0
10
0.649831
20
-0.063746
0
VERTEX
8
0
10
0.649336
20
-0.062922
0
VERTEX
8
0
10
0.648921
20
-0.062046
0
VERTEX
8
0
10
0.648591
20
-0.061122
0
VERTEX
8
0
10
0.648348
20
-0.060155
0
VERTEX
8
0
10
0.648200
20
-0.059150
0
VERTEX
8
0
10
0.648150
20
-0.058110
0
VERTEX
8
0
10
0.648150
20
0.021890
0
VERTEX
8
0
10
0.648200
20
0.022929
0
VERTEX
8
0
10
0.648348
20
0.023934
0
VERTEX
8
0
10
0.648591
20
0.024901
0
VERTEX
8
0
10
0.648921
20
0.025825
0
VERTEX
8
0
10
0.649336
20
0.026702
0
VERTEX
8
0
10
0.649831
20
0.027526
0
VERTEX
8
0
10
0.650400
20
0.028293
0
VERTEX
8
0
10
0.651040
20
0.028999
0
VERTEX
8
0
10
0.651746
20
0.029639
0
VERTEX
8
0
10
0.652514
20
0.030209
0
VERTEX
8
0
10
0.653338
20
0.030703
0
VERTEX
8
0
10
0.654214
20
0.031118
0
VERTEX
8
0
10
0.655138
20
0.031449
0
VERTEX
8
0
10
0.656105
20
0.031691
0
VERTEX
8
0
10
0.657110
20
0.031839
0
VERTEX
8
0
10
0.658150
20
0.031890
0
VERTEX
8
0
10
0.738150
20
0.031890
0
VERTEX
8
0
10
0.739189
20
0.031839
0
VERTEX
8
0
10
0.740194
20
0.031691
0
VERTEX
8
0
10
0.741161
20
0.031449
0
VERTEX
8
0
10
0.742085
20
0.031118
0
VERTEX
8
0
10
0.742961
20
0.030703
0
VERTEX
8
0
10
0.743785
20
0.030209
0
VERTEX
8
0
10
0.744553
20
0.029639
0
VERTEX
8
0
10
0.745259
20
0.028999
0
VERTEX
8
0
10
0.745899
20
0.028293
0
VERTEX
8
0
10
0.746469
20
0.027526
0
VERTEX
8
0
10
0.746963
20
0.026702
0
VERTEX
8
0
10
0.747378
20
0.025825
0
VERTEX
8
0
10
0.747709
20
0.024901
0
VERTEX
8
0
10
0.747951
20
0.023934
0
VERTEX
8
0
10
0.748099
20
0.022929
0
VERTEX
8
0
10
0.748150
20
0.021890
0
SEQEND
8
0
0
POLYLINE
8
0
66
1
70
1
40
0
41
0
0
VERTEX
8
0
10
0.748150
20
-0.078110
0
VERTEX
8
0
10
0.748150
20
-0.158110
0
VERTEX
8
0
10
0.748099
20
-0.159150
0
VERTEX
8
0
10
0.747951
20
-0.160155
0
VERTEX
8
0
10
0.747709
20
-0.161122
0
VERTEX
8
0
10
0.747378
20
-0.162046
0
VERTEX
8
0
10
0.746963
20
-0.162922
0
VERTEX
8
0
10
0.746469
20
-0.163746
0
VERTEX
8
0
10
0.745899
20
-0.164514
0
VERTEX
8
0
10
0.745259
20
-0.165220
0
VERTEX
8
0
10
0.744553
20
-0.165860
0
VERTEX
8
0
10
0.743785
20
-0.166429
0
VERTEX
8
0
10
0.742961
20
-0.166924
0
VERTEX
8
0
10
0.742085
20
-0.167339
0
VERTEX
8
0
10
0.741161
20
-0.167669
0
VERTEX
8
0
10
0.740194
20
-0.167911
0
VERTEX
8
0
10
0.739189
20
-0.168060
0
VERTEX
8
0
10
0.738150
20
-0.168110
0
VERTEX
8
0
10
0.658150
20
-0.168110
0
VERTEX
8
0
10
0.657110
20
-0.168060
0
VERTEX
8
0
10
0.656105
20
-0.167911
0
VERTEX
8
0
10
0.655138
20
-0.167669
0
VERTEX
8
0
10
0.654214
20
-0.167339
0
VERTEX
8
0
10
0.653338
20
-0.166924
0
VERTEX
8
0
10
0.652514
20
-0.166429
0
VERTEX
8
0
10
0.651746
20
-0.165860
0
VERTEX
8
0
10
0.651040
20
-0.165220
0
VERTEX
8
0
10
0.650400
20
-0.164514
0
VERTEX
8
0
10
0.649831
20
-0.163746
0
VERTEX
8
0
10
0.649336
20
-0.162922
0
VERTEX
8
0
10
0.648921
20
-0.162046
0
VERTEX
8
0
10
0.648591
20
-0.161122
0
VERTEX
8
0
10
0.648348
20
-0.160155
0
VERTEX
8
0
10
0.648200
20
-0.159150
0
VERTEX
8
0
10
0.648150
20
-0.158110
0
VERTEX
8
0
10
0.648150
20
-0.078110
0
VERTEX
8
0
10
0.648200
20
-0.077071
0
VERTEX
8
0
10
0.648348
20
-0.076066
0
VERTEX
8
0
10
0.648591
20
-0.075099
0
VERTEX
8
0
10
0.648921
20
-0.074175
0
VERTEX
8
0
10
0.649336
20
-0.073298
0
VERTEX
8
0
10
0.649831
20
-0.072474
0
VERTEX
8
0
10
0.650400
20
-0.071707
0
VERTEX
8
0
10
0.651040
20
-0.071001
0
VERTEX
8
0
10
0.651746
20
-0.070361
0
VERTEX
8
0
10
0.652514
20
-0.069791
0
VERTEX
8
0
10
0.653338
20
-0.069297
0
VERTEX
8
0
10
0.654214
20
-0.068882
0
VERTEX
8
0
10
0.655138
20
-0.068551
0
VERTEX
8
0
10
0.656105
20
-0.068309
0
VERTEX
8
0
10
0.657110
20
-0.068161
0
VERTEX
8
0
10
0.658150
20
-0.068110
0
VERTEX
8
0
10
0.738150
20
-0.068110
0
VERTEX
8
0
10
0.739189
20
-0.068161
0
VERTEX
8
0
10
0.740194
20
-0.068309
0
VERTEX
8
0
10
0.741161
20
-0.068551
0
VERTEX
8
0
10
0.742085
20
-0.068882
0
VERTEX
8
0
10
0.742961
20
-0.069297
0
VERTEX
8
0
10
0.743785
20
-0.069791
0
VERTEX
8
0
10
0.744553
20
-0.070361
0
VERTEX
8
0
10
0.745259
20
-0.071001
0
VERTEX
8
0
10
0.745899
20
-0.071707
0
VERTEX
8
0
10
0.746469
20
-0.072474
0
VERTEX
8
0
10
0.746963
20
-0.073298
0
VERTEX
8
0
10
0.747378
20
-0.074175
0
VERTEX
8
0
10
0.747709
20
-0.075099
0
VERTEX
8
0
10
0.747951
20
-0.076066
0
VERTEX
8
0
10
0.748099
20
-0.077071
0
VERTEX
8
0
10
0.748150
20
-0.078110
0
SEQEND
8
0
0
POLYLINE
8
0
66
1
70
1
40
0
41
0
0
VERTEX
8
0
10
0.748150
20
-0.178110
0
VERTEX
8
0
10
0.748150
20
-0.258110
0
VERTEX
8
0
10
0.748099
20
-0.259150
0
VERTEX
8
0
10
0.747951
20
-0.260155
0
VERTEX
8
0
10
0.747709
20
-0.261122
0
VERTEX
8
0
10
0.747378
20
-0.262046
0
VERTEX
8
0
10
0.746963
20
-0.262922
0
VERTEX
8
0
10
0.746469
20
-0.263746
0
VERTEX
8
0
10
0.745899
20
-0.264514
0
VERTEX
8
0
10
0.745259
20
-0.265220
0
VERTEX
8
0
10
0.744553
20
-0.265860
0
VERTEX
8
0
10
0.743785
20
-0.266429
0
VERTEX
8
0
10
0.742961
20
-0.266924
0
VERTEX
8
0
10
0.742085
20
-0.267339
0
VERTEX
8
0
10
0.741161
20
-0.267669
0
VERTEX
8
0
10
0.740194
20
-0.267911
0
VERTEX
8
0
10
0.739189
20
-0.268060
0
VERTEX
8
0
10
0.738150
20
-0.268110
0
VERTEX
8
0
10
0.658150
20
-0.268110
0
VERTEX
8
0
10
0.657110
20
-0.268060
0
VERTEX
8
0
10
0.656105
20
-0.267911
0
VERTEX
8
0
10
0.655138
20
-0.267669
0
VERTEX
8
0
10
0.654214
20
-0.267339
0
VERTEX
8
0
10
0.653338
20
-0.266924
0
VERTEX
8
0
10
0.652514
20
-0.266429
0
VERTEX
8
0
10
0.651746
20
-0.265860
0
VERTEX
8
0
10
0.651040
20
-0.265220
0
VERTEX
8
0
10
0.650400
20
-0.264514
0
VERTEX
8
0
10
0.649831
20
-0.263746
0
VERTEX
8
0
10
0.649336
20
-0.262922
0
VERTEX
8
0
10
0.648921
20
-0.262046
0
VERTEX
8
0
10
0.648591
20
-0.261122
0
VERTEX
8
0
10
0.648348
20
-0.260155
0
VERTEX
8
0
10
0.648200
20
-0.259150
0
VERTEX
8
0
10
0.648150
20
-0.258110
0
VERTEX
8
0
10
0.648150
20
-0.178110
0
VERTEX
8
0
10
0.648200
20
-0.177071
0
VERTEX
8
0
10
0.648348
20
-0.176066
0
VERTEX
8
0
10
0.648591
20
-0.175099
0
VERTEX
8
0
10
0.648921
20
-0.174175
0
VERTEX
8
0
10
0.649336
20
-0.173298
0
VERTEX
8
0
10
0.649831
20
-0.172474
0
VERTEX
8
0
10
0.650400
20
-0.171707
0
VERTEX
8
0
10
0.651040
20
-0.171001
0
VERTEX
8
0
10
0.651746
20
-0.170361
0
VERTEX
8
0
10
0.652514
20
-0.169791
0
VERTEX
8
0
10
0.653338
20
-0.169297
0
VERTEX
8
0
10
0.654214
20
-0.168882
0
VERTEX
8
0
10
0.655138
20
-0.168551
0
VERTEX
8
0
10
0.656105
20
-0.168309
0
VERTEX
8
0
10
0.657110
20
-0.168161
0
VERTEX
8
0
10
0.658150
20
-0.168110
0
VERTEX
8
0
10
0.738150
20
-0.168110
0
VERTEX
8
0
10
0.739189
20
-0.168161
0
VERTEX
8
0
10
0.740194
20
-0.168309
0
VERTEX
8
0
10
0.741161
20
-0.168551
0
VERTEX
8
0
10
0.742085
20
-0.168882
0
VERTEX
8
0
10
0.742961
20
-0.169297
0
VERTEX
8
0
10
0.743785
20
-0.169791
0
VERTEX
8
0
10
0.744553
20
-0.170361
0
VERTEX
8
0
10
0.745259
20
-0.171001
0
VERTEX
8
0
10
0.745899
20
-0.171707
0
VERTEX
8
0
10
0.746469
20
-0.172474
0
VERTEX
8
0
10
0.746963
20
-0.173298
0
VERTEX
8
0
10
0.747378
20
-0.174175
0
VERTEX
8
0
10
0.747709
20
-0.175099
0
VERTEX
8
0
10
0.747951
20
-0.176066
0
VERTEX
8
0
10
0.748099
20
-0.177071
0
VERTEX
8
0
10
0.748150
20
-0.178110
0
SEQEND
8
0
0
POLYLINE
8
0
66
1
70
1
40
0
41
0
0
VERTEX
8
0
10
0.748150
20
-0.278110
0
VERTEX
8
0
10
0.748150
20
-0.358110
0
VERTEX
8
0
10
0.748099
20
-0.359150
0
VERTEX
8
0
10
0.747951
20
-0.360155
0
VERTEX
8
0
10
0.747709
20
-0.361122
0
VERTEX
8
0
10
0.747378
20
-0.362046
0
VERTEX
8
0
10
0.746963
20
-0.362922
0
VERTEX
8
0
10
0.746469
20
-0.363746
0
VERTEX
8
0
10
0.745899
20
-0.364514
0
VERTEX
8
0
10
0.745259
20
-0.365220
0
VERTEX
8
0
10
0.744553
20
-0.365860
0
VERTEX
8
0
10
0.743785
20
-0.366429
0
VERTEX
8
0
10
0.742961
20
-0.366924
0
VERTEX
8
0
10
0.742085
20
-0.367339
0
VERTEX
8
0
10
0.741161
20
-0.367669
0
VERTEX
8
0
10
0.740194
20
-0.367911
0
VERTEX
8
0
10
0.739189
20
-0.368060
0
VERTEX
8
0
10
0.738150
20
-0.368110
0
VERTEX
8
0
10
0.658150
20
-0.368110
0
VERTEX
8
0
10
0.657110
20
-0.368060
0
VERTEX
8
0
10
0.656105
20
-0.367911
0
VERTEX
8
0
10
0.655138
20
-0.367669
0
VERTEX
8
0
10
0.654214
20
-0.367339
0
VERTEX
8
0
10
0.653338
20
-0.366924
0
VERTEX
8
0
10
0.652514
20
-0.366429
0
VERTEX
8
0
10
0.651746
20
-0.365860
0
VERTEX
8
0
10
0.651040
20
-0.365220
0
VERTEX
8
0
10
0.650400
20
-0.364514
0
VERTEX
8
0
10
0.649831
20
-0.363746
0
VERTEX
8
0
10
0.649336
20
-0.362922
0
VERTEX
8
0
10
0.648921
20
-0.362046
0
VERTEX
8
0
10
0.648591
20
-0.361122
0
VERTEX
8
0
10
0.648348
20
-0.360155
0
VERTEX
8
0
10
0.648200
20
-0.359150
0
VERTEX
8
0
10
0.648150
20
-0.358110
0
VERTEX
8
0
10
0.648150
20
-0.278110
0
VERTEX
8
0
10
0.648200
20
-0.277071
0
VERTEX
8
0
10
0.648348
20
-0.276066
0
VERTEX
8
0
10
0.648591
20
-0.275099
0
VERTEX
8
0
10
0.648921
20
-0.274175
0
VERTEX
8
0
10
0.649336
20
-0.273298
0
VERTEX
8
0
10
0.649831
20
-0.272474
0
VERTEX
8
0
10
0.650400
20
-0.271707
0
VERTEX
8
0
10
0.651040
20
-0.271001
0
VERTEX
8
0
10
0.651746
20
-0.270361
0
VERTEX
8
0
10
0.652514
20
-0.269791
0
VERTEX
8
0
10
0.653338
20
-0.269297
0
VERTEX
8
0
10
0.654214
20
-0.268882
0
VERTEX
8
0
10
0.655138
20
-0.268551
0
VERTEX
8
0
10
0.656105
20
-0.268309
0
VERTEX
8
0
10
0.657110
20
-0.268161
0
VERTEX
8
0
10
0.658150
20
-0.268110
0
VERTEX
8
0
10
0.738150
20
-0.268110
0
VERTEX
8
0
10
0.739189
20
-0.268161
0
VERTEX
8
0
10
0.740194
20
-0.268309
0
VERTEX
8
0
10
0.741161
20
-0.268551
0
VERTEX
8
0
10
0.742085
20
-0.268882
0
VERTEX
8
0
10
0.742961
20
-0.269297
0
VERTEX
8
0
10
0.743785
20
-0.269791
0
VERTEX
8
0
10
0.744553
20
-0.270361
0
VERTEX
8
0
10
0.745259
20
-0.271001
0
VERTEX
8
0
10
0.745899
20
-0.271707
0
VERTEX
8
0
10
0.746469
20
-0.272474
0
VERTEX
8
0
10
0.746963
20
-0.273298
0
VERTEX
8
0
10
0.747378
20
-0.274175
0
VERTEX
8
0
10
0.747709
20
-0.275099
0
VERTEX
8
0
10
0.747951
20
-0.276066
0
VERTEX
8
0
10
0.748099
20
-0.277071
0
VERTEX
8
0
10
0.748150
20
-0.278110
0
SEQEND
8
0
0
POLYLINE
8
0
66
1
70
1
40
0
41
0
0
VERTEX
8
0
10
0.848150
20
-0.278110
0
VERTEX
8
0
10
0.848150
20
-0.358110
0
VERTEX
8
0
10
0.848099
20
-0.359150
0
VERTEX
8
0
10
0.847951
20
-0.360155
0
VERTEX
8
0
10
0.847709
20
-0.361122
0
VERTEX
8
0
10
0.847378
20
-0.362046
0
VERTEX
8
0
10
0.846963
20
-0.362922
0
VERTEX
8
0
10
0.846469
20
-0.363746
0
VERTEX
8
0
10
0.845899
20
-0.364514
0
VERTEX
8
0
10
0.845259
20
-0.365220
0
VERTEX
8
0
10
0.844553
20
-0.365860
0
VERTEX
8
0
10
0.843785
20
-0.366429
0
VERTEX
8
0
10
0.842961
20
-0.366924
0
VERTEX
8
0
10
0.842085
20
-0.367339
0
VERTEX
8
0
10
0.841161
20
-0.367669
0
VERTEX
8
0
10
0.840194
20
-0.367911
0
VERTEX
8
0
10
0.839189
20
-0.368060
0
VERTEX
8
0
10
0.838150
20
-0.368110
0
VERTEX
8
0
10
0.758150
20
-0.368110
0
VERTEX
8
0
10
0.757110
20
-0.368060
0
VERTEX
8
0
10
0.756105
20
-0.367911
0
VERTEX
8
0
10
0.755138
20
-0.367669
0
VERTEX
8
0
10
0.754214
20
-0.367339
0
VERTEX
8
0
10
0.753338
20
-0.366924
0
VERTEX
8
0
10
0.752514
20
-0.366429
0
VERTEX
8
0
10
0.751746
20
-0.365860
0
VERTEX
8
0
10
0.751040
20
-0.365220
0
VERTEX
8
0
10
0.750400
20
-0.364514
0
VERTEX
8
0
10
0.749831
20
-0.363746
0
VERTEX
8
0
10
0.749336
20
-0.362922
0
VERTEX
8
0
10
0.748921
20
-0.362046
0
VERTEX
8
0
10
0.748591
20
-0.361122
0
VERTEX
8
0
10
0.748348
20
-0.360155
0
VERTEX
8
0
10
0.748200
20
-0.359150
0
VERTEX
8
0
10
0.748150
20
-0.358110
0
VERTEX
8
0
10
0.748150
20
-0.278110
0
VERTEX
8
0
10
0.748200
20
-0.277071
0
VERTEX
8
0
10
0.748348
20
-0.276066
0
VERTEX
8
0
10
0.748591
20
-0.275099
0
VERTEX
8
0
10
0.748921
20
-0.274175
0
VERTEX
8
0
10
0.749336
20
-0.273298
0
VERTEX
8
0
10
0.749831
20
-0.272474
0
VERTEX
8
0
10
0.750400
20
-0.271707
0
VERTEX
8
0
10
0.751040
20
-0.271001
0
VERTEX
8
0
10
0.751746
20
-0.270361
0
VERTEX
8
0
10
0.752514
20
-0.269791
0
VERTEX
8
0
10
0.753338
20
-0.269297
0
VERTEX
8
0
10
0.754214
20
-0.268882
0
VERTEX
8
0
10
0.755138
20
-0.268551
0
VERTEX
8
0
10
0.756105
20
-0.268309
0
VERTEX
8
0
10
0.757110
20
-0.268161
0
VERTEX
8
0
10
0.758150
20
-0.268110
0
VERTEX
8
0
10
0.838150
20
-0.268110
0
VERTEX
8
0
10
0.839189
20
-0.268161
0
VERTEX
8
0
10
0.840194
20
-0.268309
0
VERTEX
8
0
10
0.841161
20
-0.268551
0
VERTEX
8
0
10
0.842085
20
-0.268882
0
VERTEX
8
0
10
0.842961
20
-0.269297
0
VERTEX
8
0
10
0.843785
20
-0.269791
0
VERTEX
8
0
10
0.844553
20
-0.270361
0
VERTEX
8
0
10
0.845259
20
-0.271001
0
VERTEX
8
0
10
0.845899
20
-0.271707
0
VERTEX
8
0
10
0.846469
20
-0.272474
0
VERTEX
8
0
10
0.846963
20
-0.273298
0
VERTEX
8
0
10
0.847378
20
-0.274175
0
VERTEX
8
0
10
0.847709
20
-0.275099
0
VERTEX
8
0
10
0.847951
20
-0.276066
0
VERTEX
8
0
10
0.848099
20
-0.277071
0
VERTEX
8
0
10
0.848150
20
-0.278110
0
SEQEND
8
0
0
POLYLINE
8
0
66
1
70
1
40
0
41
0
0
VERTEX
8
0
10
0.848150
20
-0.178110
0
VERTEX
8
0
10
0.848150
20
-0.258110
0
VERTEX
8
0
10
0.848099
20
-0.259150
0
VERTEX
8
0
10
0.847951
20
-0.260155
0
VERTEX
8
0
10
0.847709
20
-0.261122
0
VERTEX
8
0
10
0.847378
20
-0.262046
0
VERTEX
8
0
10
0.846963
20
-0.262922
0
VERTEX
8
0
10
0.846469
20
-0.263746
0
VERTEX
8
0
10
0.845899
20
-0.264514
0
VERTEX
8
0
10
0.845259
20
-0.265220
0
VERTEX
8
0
10
0.844553
20
-0.265860
0
VERTEX
8
0
10
0.843785
20
-0.266429
0
VERTEX
8
0
10
0.842961
20
-0.266924
0
VERTEX
8
0
10
0.842085
20
-0.267339
0
VERTEX
8
0
10
0.841161
20
-0.267669
0
VERTEX
8
0
10
0.840194
20
-0.267911
0
VERTEX
8
0
10
0.839189
20
-0.268060
0
VERTEX
8
0
10
0.838150
20
-0.268110
0
VERTEX
8
0
10
0.758150
20
-0.268110
0
VERTEX
8
0
10
0.757110
20
-0.268060
0
VERTEX
8
0
10
0.756105
20
-0.267911
0
VERTEX
8
0
10
0.755138
20
-0.267669
0
VERTEX
8
0
10
0.754214
20
-0.267339
0
VERTEX
8
0
10
0.753338
20
-0.266924
0
VERTEX
8
0
10
0.752514
20
-0.266429
0
VERTEX
8
0
10
0.751746
20
-0.265860
0
VERTEX
8
0
10
0.751040
20
-0.265220
0
VERTEX
8
0
10
0.750400
20
-0.264514
0
VERTEX
8
0
10
0.749831
20
-0.263746
0
VERTEX
8
0
10
0.749336
20
-0.262922
0
VERTEX
8
0
10
0.748921
20
-0.262046
0
VERTEX
8
0
10
0.748591
20
-0.261122
0
VERTEX
8
0
10
0.748348
20
-0.260155
0
VERTEX
8
0
10
0.748200
20
-0.259150
0
VERTEX
8
0
10
0.748150
20
-0.258110
0
VERTEX
8
0
10
0.748150
20
-0.178110
0
VERTEX
8
0
10
0.748200
20
-0.177071
0
VERTEX
8
0
10
0.748348
20
-0.176066
0
VERTEX
8
0
10
0.748591
20
-0.175099
0
VERTEX
8
0
10
0.748921
20
-0.174175
0
VERTEX
8
0
10
0.749336
20
-0.173298
0
VERTEX
8
0
10
0.749831
20
-0.172474
0
VERTEX
8
0
10
0.750400
20
-0.171707
0
VERTEX
8
0
10
0.751040
20
-0.171001
0
VERTEX
8
0
10
0.751746
20
-0.170361
0
VERTEX
8
0
10
0.752514
20
-0.169791
0
VERTEX
8
0
10
0.753338
20
-0.169297
0
VERTEX
8
0
10
0.754214
20
-0.168882
0
VERTEX
8
0
10
0.755138
20
-0.168551
0
VERTEX
8
0
10
0.756105
20
-0.168309
0
VERTEX
8
0
10
0.757110
20
-0.168161
0
VERTEX
8
0
10
0.758150
20
-0.168110
0
VERTEX
8
0
10
0.838150
20
-0.168110
0
VERTEX
8
0
10
0.839189
20
-0.168161
0
VERTEX
8
0
10
0.840194
20
-0.168309
0
VERTEX
8
0
10
0.841161
20
-0.168551
0
VERTEX
8
0
10
0.842085
20
-0.168882
0
VERTEX
8
0
10
0.842961
20
-0.169297
0
VERTEX
8
0
10
0.843785
20
-0.169791
0
VERTEX
8
0
10
0.844553
20
-0.170361
0
VERTEX
8
0
10
0.845259
20
-0.171001
0
VERTEX
8
0
10
0.845899
20
-0.171707
0
VERTEX
8
0
10
0.846469
20
-0.172474
0
VERTEX
8
0
10
0.846963
20
-0.173298
0
VERTEX
8
0
10
0.847378
20
-0.174175
0
VERTEX
8
0
10
0.847709
20
-0.175099
0
VERTEX
8
0
10
0.847951
20
-0.176066
0
VERTEX
8
0
10
0.848099
20
-0.177071
0
VERTEX
8
0
10
0.848150
20
-0.178110
0
SEQEND
8
0
0
POLYLINE
8
0
66
1
70
1
40
0
41
0
0
VERTEX
8
0
10
0.848150
20
-0.078110
0
VERTEX
8
0
10
0.848150
20
-0.158110
0
VERTEX
8
0
10
0.848099
20
-0.159150
0
VERTEX
8
0
10
0.847951
20
-0.160155
0
VERTEX
8
0
10
0.847709
20
-0.161122
0
VERTEX
8
0
10
0.847378
20
-0.162046
0
VERTEX
8
0
10
0.846963
20
-0.162922
0
VERTEX
8
0
10
0.846469
20
-0.163746
0
VERTEX
8
0
10
0.845899
20
-0.164514
0
VERTEX
8
0
10
0.845259
20
-0.165220
0
VERTEX
8
0
10
0.844553
20
-0.165860
0
VERTEX
8
0
10
0.843785
20
-0.166429
0
VERTEX
8
0
10
0.842961
20
-0.166924
0
VERTEX
8
0
10
0.842085
20
-0.167339
0
VERTEX
8
0
10
0.841161
20
-0.167669
0
VERTEX
8
0
10
0.840194
20
-0.167911
0
VERTEX
8
0
10
0.839189
20
-0.168060
0
VERTEX
8
0
10
0.838150
20
-0.168110
0
VERTEX
8
0
10
0.758150
20
-0.168110
0
VERTEX
8
0
10
0.757110
20
-0.168060
0
VERTEX
8
0
10
0.756105
20
-0.167911
0
VERTEX
8
0
10
0.755138
20
-0.167669
0
VERTEX
8
0
10
0.754214
20
-0.167339
0
VERTEX
8
0
10
0.753338
20
-0.166924
0
VERTEX
8
0
10
0.752514
20
-0.166429
0
VERTEX
8
0
10
0.751746
20
-0.165860
0
VERTEX
8
0
10
0.751040
20
-0.165220
0
VERTEX
8
0
10
0.750400
20
-0.164514
0
VERTEX
8
0
10
0.749831
20
-0.163746
0
VERTEX
8
0
10
0.749336
20
-0.162922
0
VERTEX
8
0
10
0.748921
20
-0.162046
0
VERTEX
8
0
10
0.748591
20
-0.161122
0
VERTEX
8
0
10
0.748348
20
-0.160155
0
VERTEX
8
0
10
0.748200
20
-0.159150
0
VERTEX
8
0
10
0.748150
20
-0.158110
0
VERTEX
8
0
10
0.748150
20
-0.078110
0
VERTEX
8
0
10
0.748200
20
-0.077071
0
VERTEX
8
0
10
0.748348
20
-0.076066
0
VERTEX
8
0
10
0.748591
20
-0.075099
0
VERTEX
8
0
10
0.748921
20
-0.074175
0
VERTEX
8
0
10
0.749336
20
-0.073298
0
VERTEX
8
0
10
0.749831
20
-0.072474
0
VERTEX
8
0
10
0.750400
20
-0.071707
0
VERTEX
8
0
10
0.751040
20
-0.071001
0
VERTEX
8
0
10
0.751746
20
-0.070361
0
VERTEX
8
0
10
0.752514
20
-0.069791
0
VERTEX
8
0
10
0.753338
20
-0.069297
0
VERTEX
8
0
10
0.754214
20
-0.068882
0
VERTEX
8
0
10
0.755138
20
-0.068551
0
VERTEX
8
0
10
0.756105
20
-0.068309
0
VERTEX
8
0
10
0.757110
20
-0.068161
0
VERTEX
8
0
10
0.758150
20
-0.068110
0
VERTEX
8
0
10
0.838150
20
-0.068110
0
VERTEX
8
0
10
0.839189
20
-0.068161
0
VERTEX
8
0
10
0.840194
20
-0.068309
0
VERTEX
8
0
10
0.841161
20
-0.068551
0
VERTEX
8
0
10
0.842085
20
-0.068882
0
VERTEX
8
0
10
0.842961
20
-0.069297
0
VERTEX
8
0
10
0.843785
20
-0.069791
0
VERTEX
8
0
10
0.844553
20
-0.070361
0
VERTEX
8
0
10
0.845259
20
-0.071001
0
VERTEX
8
0
10
0.845899
20
-0.071707
0
VERTEX
8
0
10
0.846469
20
-0.072474
0
VERTEX
8
0
10
0.846963
20
-0.073298
0
VERTEX
8
0
10
0.847378
20
-0.074175
0
VERTEX
8
0
10
0.847709
20
-0.075099
0
VERTEX
8
0
10
0.847951
20
-0.076066
0
VERTEX
8
0
10
0.848099
20
-0.077071
0
VERTEX
8
0
10
0.848150
20
-0.078110
0
SEQEND
8
0
0
POLYLINE
8
0
66
1
70
1
40
0
41
0
0
VERTEX
8
0
10
0.848150
20
0.021890
0
VERTEX
8
0
10
0.848150
20
-0.058110
0
VERTEX
8
0
10
0.848099
20
-0.059150
0
VERTEX
8
0
10
0.847951
20
-0.060155
0
VERTEX
8
0
10
0.847709
20
-0.061122
0
VERTEX
8
0
10
0.847378
20
-0.062046
0
VERTEX
8
0
10
0.846963
20
-0.062922
0
VERTEX
8
0
10
0.846469
20
-0.063746
0
VERTEX
8
0
10
0.845899
20
-0.064514
0
VERTEX
8
0
10
0.845259
20
-0.065220
0
VERTEX
8
0
10
0.844553
20
-0.065860
0
VERTEX
8
0
10
0.843785
20
-0.066429
0
VERTEX
8
0
10
0.842961
20
-0.066924
0
VERTEX
8
0
10
0.842085
20
-0.067339
0
VERTEX
8
0
10
0.841161
20
-0.067669
0
VERTEX
8
0
10
0.840194
20
-0.067911
0
VERTEX
8
0
10
0.839189
20
-0.068060
0
VERTEX
8
0
10
0.838150
20
-0.068110
0
VERTEX
8
0
10
0.758150
20
-0.068110
0
VERTEX
8
0
10
0.757110
20
-0.068060
0
VERTEX
8
0
10
0.756105
20
-0.067911
0
VERTEX
8
0
10
0.755138
20
-0.067669
0
VERTEX
8
0
10
0.754214
20
-0.067339
0
VERTEX
8
0
10
0.753338
20
-0.066924
0
VERTEX
8
0
10
0.752514
20
-0.066429
0
VERTEX
8
0
10
0.751746
20
-0.065860
0
VERTEX
8
0
10
0.751040
20
-0.065220
0
VERTEX
8
0
10
0.750400
20
-0.064514
0
VERTEX
8
0
10
0.749831
20
-0.063746
0
VERTEX
8
0
10
0.749336
20
-0.062922
0
VERTEX
8
0
10
0.748921
20
-0.062046
0
VERTEX
8
0
10
0.748591
20
-0.061122
0
VERTEX
8
0
10
0.748348
20
-0.060155
0
VERTEX
8
0
10
0.748200
20
-0.059150
0
VERTEX
8
0
10
0.748150
20
-0.058110
0
VERTEX
8
0
10
0.748150
20
0.021890
0
VERTEX
8
0
10
0.748200
20
0.022929
0
VERTEX
8
0
10
0.748348
20
0.023934
0
VERTEX
8
0
10
0.748591
20
0.024901
0
VERTEX
8
0
10
0.748921
20
0.025825
0
VERTEX
8
0
10
0.749336
20
0.026702
0
VERTEX
8
0
10
0.749831
20
0.027526
0
VERTEX
8
0
10
0.750400
20
0.028293
0
VERTEX
8
0
10
0.751040
20
0.028999
0
VERTEX
8
0
10
0.751746
20
0.029639
0
VERTEX
8
0
10
0.752514
20
0.030209
0
VERTEX
8
0
10
0.753338
20
0.030703
0
VERTEX
8
0
10
0.754214
20
0.031118
0
VERTEX
8
0
10
0.755138
20
0.031449
0
VERTEX
8
0
10
0.756105
20
0.031691
0
VERTEX
8
0
10
0.757110
20
0.031839
0
VERTEX
8
0
10
0.758150
20
0.031890
0
VERTEX
8
0
10
0.838150
20
0.031890
0
VERTEX
8
0
10
0.839189
20
0.031839
0
VERTEX
8
0
10
0.840194
20
0.031691
0
VERTEX
8
0
10
0.841161
20
0.031449
0
VERTEX
8
0
10
0.842085
20
0.031118
0
VERTEX
8
0
10
0.842961
20
0.030703
0
VERTEX
8
0
10
0.843785
20
0.030209
0
VERTEX
8
0
10
0.844553
20
0.029639
0
VERTEX
8
0
10
0.845259
20
0.028999
0
VERTEX
8
0
10
0.845899
20
0.028293
0
VERTEX
8
0
10
0.846469
20
0.027526
0
VERTEX
8
0
10
0.846963
20
0.026702
0
VERTEX
8
0
10
0.847378
20
0.025825
0
VERTEX
8
0
10
0.847709
20
0.024901
0
VERTEX
8
0
10
0.847951
20
0.023934
0
VERTEX
8
0
10
0.848099
20
0.022929
0
VERTEX
8
0
10
0.848150
20
0.021890
0
SEQEND
8
0
0
POLYLINE
8
0
66
1
70
1
40
0
41
0
0
VERTEX
8
0
10
0.848150
20
0.121890
0
VERTEX
8
0
10
0.848150
20
0.041890
0
VERTEX
8
0
10
0.848099
20
0.040850
0
VERTEX
8
0
10
0.847951
20
0.039845
0
VERTEX
8
0
10
0.847709
20
0.038878
0
VERTEX
8
0
10
0.847378
20
0.037954
0
VERTEX
8
0
10
0.846963
20
0.037078
0
VERTEX
8
0
10
0.846469
20
0.036254
0
VERTEX
8
0
10
0.845899
20
0.035486
0
VERTEX
8
0
10
0.845259
20
0.034780
0
VERTEX
8
0
10
0.844553
20
0.034140
0
VERTEX
8
0
10
0.843785
20
0.033571
0
VERTEX
8
0
10
0.842961
20
0.033076
0
VERTEX
8
0
10
0.842085
20
0.032661
0
VERTEX
8
0
10
0.841161
20
0.032331
0
VERTEX
8
0
10
0.840194
20
0.032089
0
VERTEX
8
0
10
0.839189
20
0.031940
0
VERTEX
8
0
10
0.838150
20
0.031890
0
VERTEX
8
0
10
0.758150
20
0.031890
0
VERTEX
8
0
10
0.757110
20
0.031940
0
VERTEX
8
0
10
0.756105
20
0.032089
0
VERTEX
8
0
10
0.755138
20
0.032331
0
VERTEX
8
0
10
0.754214
20
0.032661
0
VERTEX
8
0
10
0.753338
20
0.033076
0
VERTEX
8
0
10
0.752514
20
0.033571
0
VERTEX
8
0
10
0.751746
20
0.034140
0
VERTEX
8
0
10
0.751040
20
0.034780
0
VERTEX
8
0
10
0.750400
20
0.035486
0
VERTEX
8
0
10
0.749831
20
0.036254
0
VERTEX
8
0
10
0.749336
20
0.037078
0
VERTEX
8
0
10
0.748921
20
0.037954
0
VERTEX
8
0
10
0.748591
20
0.038878
0
VERTEX
8
0
10
0.748348
20
0.039845
0
VERTEX
8
0
10
0.748200
20
0.040850
0
VERTEX
8
0
10
0.748150
20
0.041890
0
VERTEX
8
0
10
0.748150
20
0.121890
0
VERTEX
8
0
10
0.748200
20
0.122929
0
VERTEX
8
0
10
0.748348
20
0.123934
0
VERTEX
8
0
10
0.748591
20
0.124901
0
VERTEX
8
0
10
0.748921
20
0.125825
0
VERTEX
8
0
10
0.749336
20
0.126702
0
VERTEX
8
0
10
0.749831
20
0.127526
0
VERTEX
8
0
10
0.750400
20
0.128293
0
VERTEX
8
0
10
0.751040
20
0.128999
0
VERTEX
8
0
10
0.751746
20
0.129639
0
VERTEX
8
0
10
0.752514
20
0.130209
0
VERTEX
8
0
10
0.753338
20
0.130703
0
VERTEX
8
0
10
0.754214
20
0.131118
0
VERTEX
8
0
10
0.755138
20
0.131449
0
VERTEX
8
0
10
0.756105
20
0.131691
0
VERTEX
8
0
10
0.757110
20
0.131839
0
VERTEX
8
0
10
0.758150
20
0.131890
0
VERTEX
8
0
10
0.838150
20
0.131890
0
VERTEX
8
0
10
0.839189
20
0.131839
0
VERTEX
8
0
10
0.840194
20
0.131691
0
VERTEX
8
0
10
0.841161
20
0.131449
0
VERTEX
8
0
10
0.842085
20
0.131118
0
VERTEX
8
0
10
0.842961
20
0.130703
0
VERTEX
8
0
10
0.843785
20
0.130209
0
VERTEX
8
0
10
0.844553
20
0.129639
0
VERTEX
8
0
10
0.845259
20
0.128999
0
VERTEX
8
0
10
0.845899
20
0.128293
0
VERTEX
8
0
10
0.846469
20
0.127526
0
VERTEX
8
0
10
0.846963
20
0.126702
0
VERTEX
8
0
10
0.847378
20
0.125825
0
VERTEX
8
0
10
0.847709
20
0.124901
0
VERTEX
8
0
10
0.847951
20
0.123934
0
VERTEX
8
0
10
0.848099
20
0.122929
0
VERTEX
8
0
10
0.848150
20
0.121890
0
SEQEND
8
0
0
POLYLINE
8
0
66
1
70
1
40
0
41
0
0
VERTEX
8
0
10
0.848150
20
0.221890
0
VERTEX
8
0
10
0.848150
20
0.141890
0
VERTEX
8
0
10
0.848099
20
0.140850
0
VERTEX
8
0
10
0.847951
20
0.139845
0
VERTEX
8
0
10
0.847709
20
0.138878
0
VERTEX
8
0
10
0.847378
20
0.137954
0
VERTEX
8
0
10
0.846963
20
0.137078
0
VERTEX
8
0
10
0.846469
20
0.136254
0
VERTEX
8
0
10
0.845899
20
0.135486
0
VERTEX
8
0
10
0.845259
20
0.134780
0
VERTEX
8
0
10
0.844553
20
0.134140
0
VERTEX
8
0
10
0.843785
20
0.133571
0
VERTEX
8
0
10
0.842961
20
0.133076
0
VERTEX
8
0
10
0.842085
20
0.132661
0
VERTEX
8
0
10
0.841161
20
0.132331
0
VERTEX
8
0
10
0.840194
20
0.132089
0
VERTEX
8
0
10
0.839189
20
0.131940
0
VERTEX
8
0
10
0.838150
20
0.131890
0
VERTEX
8
0
10
0.758150
20
0.131890
0
VERTEX
8
0
10
0.757110
20
0.131940
0
VERTEX
8
0
10
0.756105
20
0.132089
0
VERTEX
8
0
10
0.755138
20
0.132331
0
VERTEX
8
0
10
0.754214
20
0.132661
0
VERTEX
8
0
10
0.753338
20
0.133076
0
VERTEX
8
0
10
0.752514
20
0.133571
0
VERTEX
8
0
10
0.751746
20
0.134140
0
VERTEX
8
0
10
0.751040
20
0.134780
0
VERTEX
8
0
10
0.750400
20
0.135486
0
VERTEX
8
0
10
0.749831
20
0.136254
0
VERTEX
8
0
10
0.749336
20
0.137078
0
VERTEX
8
0
10
0.748921
20
0.137954
0
VERTEX
8
0
10
0.748591
20
0.138878
0
VERTEX
8
0
10
0.748348
20
0.139845
0
VERTEX
8
0
10
0.748200
20
0.140850
0
VERTEX
8
0
10
0.748150
20
0.141890
0
VERTEX
8
0
10
0.748150
20
0.221890
0
VERTEX
8
0
10
0.748200
20
0.222929
0
VERTEX
8
0
10
0.748348
20
0.223934
0
VERTEX
8
0
10
0.748591
20
0.224901
0
VERTEX
8
0
10
0.748921
20
0.225825
0
VERTEX
8
0
10
0.749336
20
0.226702
0
VERTEX
8
0
10
0.749831
20
0.227526
0
VERTEX
8
0
10
0.750400
20
0.228293
0
VERTEX
8
0
10
0.751040
20
0.228999
0
VERTEX
8
0
10
0.751746
20
0.229639
0
VERTEX
8
0
10
0.752514
20
0.230209
0
VERTEX
8
0
10
0.753338
20
0.230703
0
VERTEX
8
0
10
0.754214
20
0.231118
0
VERTEX
8
0
10
0.755138
20
0.231449
0
VERTEX
8
0
10
0.756105
20
0.231691
0
VERTEX
8
0
10
0.757110
20
0.231839
0
VERTEX
8
0
10
0.758150
20
0.231890
0
VERTEX
8
0
10
0.838150
20
0.231890
0
VERTEX
8
0
10
0.839189
20
0.231839
0
VERTEX
8
0
10
0.840194
20
0.231691
0
VERTEX
8
0
10
0.841161
20
0.231449
0
VERTEX
8
0
10
0.842085
20
0.231118
0
VERTEX
8
0
10
0.842961
20
0.230703
0
VERTEX
8
0
10
0.843785
20
0.230209
0
VERTEX
8
0
10
0.844553
20
0.229639
0
VERTEX
8
0
10
0.845259
20
0.228999
0
VERTEX
8
0
10
0.845899
20
0.228293
0
VERTEX
8
0
10
0.846469
20
0.227526
0
VERTEX
8
0
10
0.846963
20
0.226702
0
VERTEX
8
0
10
0.847378
20
0.225825
0
VERTEX
8
0
10
0.847709
20
0.224901
0
VERTEX
8
0
10
0.847951
20
0.223934
0
VERTEX
8
0
10
0.848099
20
0.222929
0
VERTEX
8
0
10
0.848150
20
0.221890
0
SEQEND
8
0
0
POLYLINE
8
0
66
1
70
1
40
0
41
0
0
VERTEX
8
0
10
0.848150
20
0.321890
0
VERTEX
8
0
10
0.848150
20
0.241890
0
VERTEX
8
0
10
0.848099
20
0.240850
0
VERTEX
8
0
10
0.847951
20
0.239845
0
VERTEX
8
0
10
0.847709
20
0.238878
0
VERTEX
8
0
10
0.847378
20
0.237954
0
VERTEX
8
0
10
0.846963
20
0.237078
0
VERTEX
8
0
10
0.846469
20
0.236254
0
VERTEX
8
0
10
0.845899
20
0.235486
0
VERTEX
8
0
10
0.845259
20
0.234780
0
VERTEX
8
0
10
0.844553
20
0.234140
0
VERTEX
8
0
10
0.843785
20
0.233571
0
VERTEX
8
0
10
0.842961
20
0.233076
0
VERTEX
8
0
10
0.842085
20
0.232661
0
VERTEX
8
0
10
0.841161
20
0.232331
0
VERTEX
8
0
10
0.840194
20
0.232089
0
VERTEX
8
0
10
0.839189
20
0.231940
0
VERTEX
8
0
10
0.838150
20
0.231890
0
VERTEX
8
0
10
0.758150
20
0.231890
0
VERTEX
8
0
10
0.757110
20
0.231940
0
VERTEX
8
0
10
0.756105
20
0.232089
0
VERTEX
8
0
10
0.755138
20
0.232331
0
VERTEX
8
0
10
0.754214
20
0.232661
0
VERTEX
8
0
10
0.753338
20
0.233076
0
VERTEX
8
0
10
0.752514
20
0.233571
0
VERTEX
8
0
10
0.751746
20
0.234140
0
VERTEX
8
0
10
0.751040
20
0.234780
0
VERTEX
8
0
10
0.750400
20
0.235486
0
VERTEX
8
0
10
0.749831
20
0.236254
0
VERTEX
8
0
10
0.749336
20
0.237078
0
VERTEX
8
0
10
0.748921
20
0.237954
0
VERTEX
8
0
10
0.748591
20
0.238878
0
VERTEX
8
0
10
0.748348
20
0.239845
0
VERTEX
8
0
10
0.748200
20
0.240850
0
VERTEX
8
0
10
0.748150
20
0.241890
0
VERTEX
8
0
10
0.748150
20
0.321890
0
VERTEX
8
0
10
0.748200
20
0.322929
0
VERTEX
8
0
10
0.748348
20
0.323934
0
VERTEX
8
0
10
0.748591
20
0.324901
0
VERTEX
8
0
10
0.748921
20
0.325825
0
VERTEX
8
0
10
0.749336
20
0.326702
0
VERTEX
8
0
10
0.749831
20
0.327526
0
VERTEX
8
0
10
0.750400
20
0.328293
0
VERTEX
8
0
10
0.751040
20
0.328999
0
VERTEX
8
0
10
0.751746
20
0.329639
0
VERTEX
8
0
10
0.752514
20
0.330209
0
VERTEX
8
0
10
0.753338
20
0.330703
0
VERTEX
8
0
10
0.754214
20
0.331118
0
VERTEX
8
0
10
0.755138
20
0.331449
0
VERTEX
8
0
10
0.756105
20
0.331691
0
VERTEX
8
0
10
0.757110
20
0.331839
0
VERTEX
8
0
10
0.758150
20
0.331890
0
VERTEX
8
0
10
0.838150
20
0.331890
0
VERTEX
8
0
10
0.839189
20
0.331839
0
VERTEX
8
0
10
0.840194
20
0.331691
0
VERTEX
8
0
10
0.841161
20
0.331449
0
VERTEX
8
0
10
0.842085
20
0.331118
0
VERTEX
8
0
10
0.842961
20
0.330703
0
VERTEX
8
0
10
0.843785
20
0.330209
0
VERTEX
8
0
10
0.844553
20
0.329639
0
VERTEX
8
0
10
0.845259
20
0.328999
0
VERTEX
8
0
10
0.845899
20
0.328293
0
VERTEX
8
0
10
0.846469
20
0.327526
0
VERTEX
8
0
10
0.846963
20
0.326702
0
VERTEX
8
0
10
0.847378
20
0.325825
0
VERTEX
8
0
10
0.847709
20
0.324901
0
VERTEX
8
0
10
0.847951
20
0.323934
0
VERTEX
8
0
10
0.848099
20
0.322929
0
VERTEX
8
0
10
0.848150
20
0.321890
0
SEQEND
8
0
0
POLYLINE
8
0
66
1
70
1
40
0
41
0
0
VERTEX
8
0
10
0.848150
20
0.421890
0
VERTEX
8
0
10
0.848150
20
0.341890
0
VERTEX
8
0
10
0.848099
20
0.340850
0
VERTEX
8
0
10
0.847951
20
0.339845
0
VERTEX
8
0
10
0.847709
20
0.338878
0
VERTEX
8
0
10
0.847378
20
0.337954
0
VERTEX
8
0
10
0.846963
20
0.337078
0
VERTEX
8
0
10
0.846469
20
0.336254
0
VERTEX
8
0
10
0.845899
20
0.335486
0
VERTEX
8
0
10
0.845259
20
0.334780
0
VERTEX
8
0
10
0.844553
20
0.334140
0
VERTEX
8
0
10
0.843785
20
0.333571
0
VERTEX
8
0
10
0.842961
20
0.333076
0
VERTEX
8
0
10
0.842085
20
0.332661
0
VERTEX
8
0
10
0.841161
20
0.332331
0
VERTEX
8
0
10
0.840194
20
0.332089
0
VERTEX
8
0
10
0.839189
20
0.331940
0
VERTEX
8
0
10
0.838150
20
0.331890
0
VERTEX
8
0
10
0.758150
20
0.331890
0
VERTEX
8
0
10
0.757110
20
0.331940
0
VERTEX
8
0
10
0.756105
20
0.332089
0
VERTEX
8
0
10
0.755138
20
0.332331
0
VERTEX
8
0
10
0.754214
20
0.332661
0
VERTEX
8
0
10
0.753338
20
0.333076
0
VERTEX
8
0
10
0.752514
20
0.333571
0
VERTEX
8
0
10
0.751746
20
0.334140
0
VERTEX
8
0
10
0.751040
20
0.334780
0
VERTEX
8
0
10
0.750400
20
0.335486
0
VERTEX
8
0
10
0.749831
20
0.336254
0
VERTEX
8
0
10
0.749336
20
0.337078
0
VERTEX
8
0
10
0.748921
20
0.337954
0
VERTEX
8
0
10
0.748591
20
0.338878
0
VERTEX
8
0
10
0.748348
20
0.339845
0
VERTEX
8
0
10
0.748200
20
0.340850
0
VERTEX
8
0
10
0.748150
20
0.341890
0
VERTEX
8
0
10
0.748150
20
0.421890
0
VERTEX
8
0
10
0.748200
20
0.422929
0
VERTEX
8
0
10
0.748348
20
0.423934
0
VERTEX
8
0
10
0.748591
20
0.424901
0
VERTEX
8
0
10
0.748921
20
0.425825
0
VERTEX
8
0
10
0.749336
20
0.426702
0
VERTEX
8
0
10
0.749831
20
0.427526
0
VERTEX
8
0
10
0.750400
20
0.428293
0
VERTEX
8
0
10
0.751040
20
0.428999
0
VERTEX
8
0
10
0.751746
20
0.429639
0
VERTEX
8
0
10
0.752514
20
0.430209
0
VERTEX
8
0
10
0.753338
20
0.430703
0
VERTEX
8
0
10
0.754214
20
0.431118
0
VERTEX
8
0
10
0.755138
20
0.431449
0
VERTEX
8
0
10
0.756105
20
0.431691
0
VERTEX
8
0
10
0.757110
20
0.431839
0
VERTEX
8
0
10
0.758150
20
0.431890
0
VERTEX
8
0
10
0.838150
20
0.431890
0
VERTEX
8
0
10
0.839189
20
0.431839
0
VERTEX
8
0
10
0.840194
20
0.431691
0
VERTEX
8
0
10
0.841161
20
0.431449
0
VERTEX
8
0
10
0.842085
20
0.431118
0
VERTEX
8
0
10
0.842961
20
0.430703
0
VERTEX
8
0
10
0.843785
20
0.430209
0
VERTEX
8
0
10
0.844553
20
0.429639
0
VERTEX
8
0
10
0.845259
20
0.428999
0
VERTEX
8
0
10
0.845899
20
0.428293
0
VERTEX
8
0
10
0.846469
20
0.427526
0
VERTEX
8
0
10
0.846963
20
0.426702
0
VERTEX
8
0
10
0.847378
20
0.425825
0
VERTEX
8
0
10
0.847709
20
0.424901
0
VERTEX
8
0
10
0.847951
20
0.423934
0
VERTEX
8
0
10
0.848099
20
0.422929
0
VERTEX
8
0
10
0.848150
20
0.421890
0
SEQEND
8
0
0
POLYLINE
8
0
66
1
40
0.008000
41
0.008000
0
VERTEX
8
0
10
-0.908150
20
-0.598425
0
VERTEX
8
0
10
0.907189
20
-0.598425
0
VERTEX
8
0
10
0.907189
20
0.598425
0
VERTEX
8
0
10
-0.908150
20
0.598425
0
VERTEX
8
0
10
-0.908150
20
-0.598425
0
SEQEND
8
0
0
CIRCLE
8
0
10
-0.163858
20
0.242126
40
0.004921
0
POLYLINE
8
0
66
1
40
0.007874
41
0.007874
0
VERTEX
8
0
10
-0.878425
20
0.159449
0
VERTEX
8
0
10
-0.878425
20
-0.104331
0
VERTEX
8
0
10
-0.165827
20
-0.104331
0
VERTEX
8
0
10
-0.165827
20
0.159449
0
VERTEX
8
0
10
-0.878425
20
0.159449
0
SEQEND
8
0
0
CIRCLE
8
0
10
-0.205197
20
0.120079
40
0.011811
0
TEXT
8
0
10
-0.351984
20
0.068110
40
0.048000
41
1.041667
50
90.000000
1
U1
0
POLYLINE
8
0
66
1
40
0.008000
41
0.008000
0
VERTEX
8
0
10
-0.508150
20
-0.540945
0
VERTEX
8
0
10
-0.108150
20
-0.540945
0
VERTEX
8
0
10
-0.108150
20
-0.290945
0
VERTEX
8
0
10
-0.508150
20
-0.290945
0
VERTEX
8
0
10
-0.508150
20
-0.540945
0
SEQEND
8
0
0
POLYLINE
8
0
66
1
40
0.008000
41
0.008000
0
VERTEX
8
0
10
-0.508150
20
-0.340945
0
VERTEX
8
0
10
-0.108150
20
-0.340945
0
SEQEND
8
0
0
TEXT
8
0
10
-0.665236
20
-0.418740
40
0.048000
41
1.041667
1
J3
0
CIRCLE
8
0
10
-0.374685
20
0.543307
40
0.004921
0
POLYLINE
8
0
66
1
40
0.007874
41
0.007874
0
VERTEX
8
0
10
-0.331378
20
0.411417
0
VERTEX
8
0
10
-0.307756
20
0.411417
0
VERTEX
8
0
10
-0.307756
20
0.533465
0
VERTEX
8
0
10
-0.331378
20
0.533465
0
VERTEX
8
0
10
-0.331378
20
0.411417
0
SEQEND
8
0
0
TEXT
8
0
10
-0.227835
20
0.444976
40
0.048000
41
1.041667
1
Q1
0
POLYLINE
8
0
66
1
40
0.008000
41
0.008000
0
VERTEX
8
0
10
-0.078063
20
0.179661
0
VERTEX
8
0
10
-0.078063
20
0.152661
0
SEQEND
8
0
0
POLYLINE
8
0
66
1
40
0.008000
41
0.008000
0
VERTEX
8
0
10
-0.126063
20
0.179661
0
VERTEX
8
0
10
-0.126063
20
0.151661
0
SEQEND
8
0
0
TEXT
8
0
10
-0.020063
20
0.116661
40
0.048000
41
1.041667
50
90.000000
1
R1
0
POLYLINE
8
0
66
1
40
0.008000
41
0.008000
0
VERTEX
8
0
10
-0.355528
20
0.353709
0
VERTEX
8
0
10
-0.328528
20
0.353709
0
SEQEND
8
0
0
POLYLINE
8
0
66
1
40
0.008000
41
0.008000
0
VERTEX
8
0
10
-0.355528
20
0.305709
0
VERTEX
8
0
10
-0.327528
20
0.305709
0
SEQEND
8
0
0
TEXT
8
0
10
-0.270480
20
0.304654
40
0.048000
41
1.041667
1
R2
0
POLYLINE
8
0
66
1
40
0.008000
41
0.008000
0
VERTEX
8
0
10
0.347638
20
-0.526937
0
VERTEX
8
0
10
0.320638
20
-0.526937
0
SEQEND
8
0
0
POLYLINE
8
0
66
1
40
0.008000
41
0.008000
0
VERTEX
8
0
10
0.347638
20
-0.478937
0
VERTEX
8
0
10
0.319638
20
-0.478937
0
SEQEND
8
0
0
TEXT
8
0
10
0.259638
20
-0.584937
40
0.048000
41
1.041667
1
R24
0
CIRCLE
8
0
10
0.068228
20
-0.437008
40
0.004921
0
POLYLINE
8
0
66
1
40
0.007874
41
0.007874
0
VERTEX
8
0
10
0.091850
20
-0.511811
0
VERTEX
8
0
10
0.044606
20
-0.511811
0
SEQEND
8
0
0
TEXT
8
0
10
0.149787
20
-0.552461
40
0.048000
41
1.041667
50
90.000000
1
D1
0
POLYLINE
8
0
66
1
40
0.008000
41
0.008000
0
VERTEX
8
0
10
0.134764
20
-0.462205
0
VERTEX
8
0
10
0.384764
20
-0.462205
0
VERTEX
8
0
10
0.384764
20
0.037795
0
VERTEX
8
0
10
0.134764
20
0.037795
0
VERTEX
8
0
10
0.134764
20
-0.462205
0
SEQEND
8
0
0
POLYLINE
8
0
66
1
40
0.008000
41
0.008000
0
VERTEX
8
0
10
0.184764
20
-0.462205
0
VERTEX
8
0
10
0.184764
20
0.037795
0
SEQEND
8
0
0
TEXT
8
0
10
0.124764
20
-0.262205
40
0.048000
41
1.041667
50
90.000000
1
J2
0
POLYLINE
8
0
66
1
40
0.008000
41
0.008000
0
VERTEX
8
0
10
-0.776787
20
0.542685
0
VERTEX
8
0
10
-0.749787
20
0.542685
0
SEQEND
8
0
0
POLYLINE
8
0
66
1
40
0.008000
41
0.008000
0
VERTEX
8
0
10
-0.776787
20
0.494685
0
VERTEX
8
0
10
-0.748787
20
0.494685
0
SEQEND
8
0
0
TEXT
8
0
10
-0.900402
20
0.533000
40
0.048000
41
1.041667
1
C9
0
POLYLINE
8
0
66
1
40
0.008000
41
0.008000
0
VERTEX
8
0
10
-0.551850
20
0.277953
0
VERTEX
8
0
10
-0.851850
20
0.277953
0
VERTEX
8
0
10
-0.901850
20
0.327953
0
VERTEX
8
0
10
-0.901850
20
0.427953
0
VERTEX
8
0
10
-0.851850
20
0.477953
0
VERTEX
8
0
10
-0.551850
20
0.477953
0
VERTEX
8
0
10
-0.501850
20
0.427953
0
VERTEX
8
0
10
-0.501850
20
0.327953
0
VERTEX
8
0
10
-0.551850
20
0.277953
0
SEQEND
8
0
0
TEXT
8
0
10
-0.751850
20
0.219953
40
0.048000
41
1.041667
1
X1
0
POLYLINE
8
0
66
1
40
0.008000
41
0.008000
0
VERTEX
8
0
10
-0.603559
20
0.542685
0
VERTEX
8
0
10
-0.576559
20
0.542685
0
SEQEND
8
0
0
POLYLINE
8
0
66
1
40
0.008000
41
0.008000
0
VERTEX
8
0
10
-0.603559
20
0.494685
0
VERTEX
8
0
10
-0.575559
20
0.494685
0
SEQEND
8
0
0
TEXT
8
0
10
-0.522449
20
0.493630
40
0.048000
41
1.041667
1
C8
0
CIRCLE
8
0
10
0.194213
20
0.322835
40
0.242565
0
CIRCLE
8
0
10
0.194213
20
0.322835
40
0.050418
0
TEXT
8
0
10
0.028858
20
0.427323
40
0.080000
41
1.125000
1
+
0
TEXT
8
0
10
-0.161693
20
0.512408
40
0.048000
41
1.041667
1
BUZ1
0
POLYLINE
8
0
66
1
40
0.008000
41
0.008000
0
VERTEX
8
0
10
0.030354
20
-0.353701
0
VERTEX
8
0
10
0.030354
20
-0.323701
0
SEQEND
8
0
0
POLYLINE
8
0
66
1
40
0.008000
41
0.008000
0
VERTEX
8
0
10
0.090354
20
-0.353701
0
VERTEX
8
0
10
0.090354
20
-0.323701
0
SEQEND
8
0
0
POLYLINE
8
0
66
1
40
0.008000
41
0.008000
0
VERTEX
8
0
10
0.000354
20
-0.303701
0
VERTEX
8
0
10
0.000354
20
-0.283701
0
SEQEND
8
0
0
POLYLINE
8
0
66
1
40
0.008000
41
0.008000
0
VERTEX
8
0
10
-0.009646
20
-0.293701
0
VERTEX
8
0
10
0.010354
20
-0.293701
0
SEQEND
8
0
0
TEXT
8
0
10
0.011850
20
-0.573740
40
0.048000
41
1.041667
50
90.000000
1
C3
0
POLYLINE
8
0
66
1
40
0.008000
41
0.008000
0
VERTEX
8
0
10
-0.600433
20
-0.233780
0
VERTEX
8
0
10
-0.570433
20
-0.233780
0
SEQEND
8
0
0
POLYLINE
8
0
66
1
40
0.008000
41
0.008000
0
VERTEX
8
0
10
-0.600433
20
-0.293780
0
VERTEX
8
0
10
-0.570433
20
-0.293780
0
SEQEND
8
0
0
POLYLINE
8
0
66
1
40
0.008000
41
0.008000
0
VERTEX
8
0
10
-0.550433
20
-0.203780
0
VERTEX
8
0
10
-0.530433
20
-0.203780
0
SEQEND
8
0
0
POLYLINE
8
0
66
1
40
0.008000
41
0.008000
0
VERTEX
8
0
10
-0.540433
20
-0.193780
0
VERTEX
8
0
10
-0.540433
20
-0.213780
0
SEQEND
8
0
0
TEXT
8
0
10
-0.785039
20
-0.270394
40
0.048000
41
1.041667
1
C2
0
POLYLINE
8
0
66
1
40
0.008000
41
0.008000
0
VERTEX
8
0
10
0.648150
20
-0.368110
0
VERTEX
8
0
10
0.848150
20
-0.368110
0
VERTEX
8
0
10
0.848150
20
0.431890
0
VERTEX
8
0
10
0.648150
20
0.431890
0
VERTEX
8
0
10
0.648150
20
-0.368110
0
SEQEND
8
0
0
TEXT
8
0
10
0.906150
20
-0.018110
40
0.048000
41
1.041667
50
90.000000
1
J1
0
TEXT
8
0
10
-0.447520
20
-0.284265
40
0.040000
41
0.750000
1
TX RX GND
0
TEXT
8
0
10
0.468685
20
-0.519685
40
0.048000
41
0.833333
50
90.000000
1
GND VCC SCL SDA
0
TEXT
8
0
10
-0.896339
20
-0.584370
40
0.040000
41
1.000000
1
www.jpinglobal.com
0
TEXT
8
0
10
-0.888465
20
-0.459512
40
0.048000
41
0.833333
1
Bogota
0
TEXT
8
0
10
-0.892402
20
-0.534315
40
0.048000
41
0.833333
1
Colombia
0
TEXT
8
0
10
0.536732
20
-0.565811
40
0.048000
41
0.833333
1
JUDAPIES
0
TEXT
8
0
10
0.418622
20
0.524740
40
0.048000
41
0.833333
1
CH376S_I2C
0
POLYLINE
8
0
66
1
40
0.008000
41
0.008000
0
VERTEX
8
0
10
-0.908150
20
-0.598425
0
VERTEX
8
0
10
0.907189
20
-0.598425
0
VERTEX
8
0
10
0.907189
20
0.598425
0
VERTEX
8
0
10
-0.908150
20
0.598425
0
VERTEX
8
0
10
-0.908150
20
-0.598425
0
SEQEND
8
0
0
CIRCLE
8
0
10
-0.163858
20
0.242126
40
0.004921
0
POLYLINE
8
0
66
1
40
0.007874
41
0.007874
0
VERTEX
8
0
10
-0.878425
20
0.159449
0
VERTEX
8
0
10
-0.878425
20
-0.104331
0
VERTEX
8
0
10
-0.165827
20
-0.104331
0
VERTEX
8
0
10
-0.165827
20
0.159449
0
VERTEX
8
0
10
-0.878425
20
0.159449
0
SEQEND
8
0
0
CIRCLE
8
0
10
-0.205197
20
0.120079
40
0.011811
0
TEXT
8
0
10
-0.351984
20
0.068110
40
0.048000
41
1.041667
50
90.000000
1
U1
0
POLYLINE
8
0
66
1
40
0.008000
41
0.008000
0
VERTEX
8
0
10
-0.508150
20
-0.540945
0
VERTEX
8
0
10
-0.108150
20
-0.540945
0
VERTEX
8
0
10
-0.108150
20
-0.290945
0
VERTEX
8
0
10
-0.508150
20
-0.290945
0
VERTEX
8
0
10
-0.508150
20
-0.540945
0
SEQEND
8
0
0
POLYLINE
8
0
66
1
40
0.008000
41
0.008000
0
VERTEX
8
0
10
-0.508150
20
-0.340945
0
VERTEX
8
0
10
-0.108150
20
-0.340945
0
SEQEND
8
0
0
TEXT
8
0
10
-0.665236
20
-0.418740
40
0.048000
41
1.041667
1
J3
0
CIRCLE
8
0
10
-0.374685
20
0.543307
40
0.004921
0
POLYLINE
8
0
66
1
40
0.007874
41
0.007874
0
VERTEX
8
0
10
-0.331378
20
0.411417
0
VERTEX
8
0
10
-0.307756
20
0.411417
0
VERTEX
8
0
10
-0.307756
20
0.533465
0
VERTEX
8
0
10
-0.331378
20
0.533465
0
VERTEX
8
0
10
-0.331378
20
0.411417
0
SEQEND
8
0
0
TEXT
8
0
10
-0.227835
20
0.444976
40
0.048000
41
1.041667
1
Q1
0
POLYLINE
8
0
66
1
40
0.008000
41
0.008000
0
VERTEX
8
0
10
-0.078063
20
0.179661
0
VERTEX
8
0
10
-0.078063
20
0.152661
0
SEQEND
8
0
0
POLYLINE
8
0
66
1
40
0.008000
41
0.008000
0
VERTEX
8
0
10
-0.126063
20
0.179661
0
VERTEX
8
0
10
-0.126063
20
0.151661
0
SEQEND
8
0
0
TEXT
8
0
10
-0.020063
20
0.116661
40
0.048000
41
1.041667
50
90.000000
1
R1
0
POLYLINE
8
0
66
1
40
0.008000
41
0.008000
0
VERTEX
8
0
10
-0.355528
20
0.353709
0
VERTEX
8
0
10
-0.328528
20
0.353709
0
SEQEND
8
0
0
POLYLINE
8
0
66
1
40
0.008000
41
0.008000
0
VERTEX
8
0
10
-0.355528
20
0.305709
0
VERTEX
8
0
10
-0.327528
20
0.305709
0
SEQEND
8
0
0
TEXT
8
0
10
-0.270480
20
0.304654
40
0.048000
41
1.041667
1
R2
0
POLYLINE
8
0
66
1
40
0.008000
41
0.008000
0
VERTEX
8
0
10
0.347638
20
-0.526937
0
VERTEX
8
0
10
0.320638
20
-0.526937
0
SEQEND
8
0
0
POLYLINE
8
0
66
1
40
0.008000
41
0.008000
0
VERTEX
8
0
10
0.347638
20
-0.478937
0
VERTEX
8
0
10
0.319638
20
-0.478937
0
SEQEND
8
0
0
TEXT
8
0
10
0.259638
20
-0.584937
40
0.048000
41
1.041667
1
R24
0
CIRCLE
8
0
10
0.068228
20
-0.437008
40
0.004921
0
POLYLINE
8
0
66
1
40
0.007874
41
0.007874
0
VERTEX
8
0
10
0.091850
20
-0.511811
0
VERTEX
8
0
10
0.044606
20
-0.511811
0
SEQEND
8
0
0
TEXT
8
0
10
0.149787
20
-0.552461
40
0.048000
41
1.041667
50
90.000000
1
D1
0
POLYLINE
8
0
66
1
40
0.008000
41
0.008000
0
VERTEX
8
0
10
0.134764
20
-0.462205
0
VERTEX
8
0
10
0.384764
20
-0.462205
0
VERTEX
8
0
10
0.384764
20
0.037795
0
VERTEX
8
0
10
0.134764
20
0.037795
0
VERTEX
8
0
10
0.134764
20
-0.462205
0
SEQEND
8
0
0
POLYLINE
8
0
66
1
40
0.008000
41
0.008000
0
VERTEX
8
0
10
0.184764
20
-0.462205
0
VERTEX
8
0
10
0.184764
20
0.037795
0
SEQEND
8
0
0
TEXT
8
0
10
0.124764
20
-0.262205
40
0.048000
41
1.041667
50
90.000000
1
J2
0
POLYLINE
8
0
66
1
40
0.008000
41
0.008000
0
VERTEX
8
0
10
-0.776787
20
0.542685
0
VERTEX
8
0
10
-0.749787
20
0.542685
0
SEQEND
8
0
0
POLYLINE
8
0
66
1
40
0.008000
41
0.008000
0
VERTEX
8
0
10
-0.776787
20
0.494685
0
VERTEX
8
0
10
-0.748787
20
0.494685
0
SEQEND
8
0
0
TEXT
8
0
10
-0.900402
20
0.533000
40
0.048000
41
1.041667
1
C9
0
POLYLINE
8
0
66
1
40
0.008000
41
0.008000
0
VERTEX
8
0
10
-0.551850
20
0.277953
0
VERTEX
8
0
10
-0.851850
20
0.277953
0
VERTEX
8
0
10
-0.901850
20
0.327953
0
VERTEX
8
0
10
-0.901850
20
0.427953
0
VERTEX
8
0
10
-0.851850
20
0.477953
0
VERTEX
8
0
10
-0.551850
20
0.477953
0
VERTEX
8
0
10
-0.501850
20
0.427953
0
VERTEX
8
0
10
-0.501850
20
0.327953
0
VERTEX
8
0
10
-0.551850
20
0.277953
0
SEQEND
8
0
0
TEXT
8
0
10
-0.751850
20
0.219953
40
0.048000
41
1.041667
1
X1
0
POLYLINE
8
0
66
1
40
0.008000
41
0.008000
0
VERTEX
8
0
10
-0.603559
20
0.542685
0
VERTEX
8
0
10
-0.576559
20
0.542685
0
SEQEND
8
0
0
POLYLINE
8
0
66
1
40
0.008000
41
0.008000
0
VERTEX
8
0
10
-0.603559
20
0.494685
0
VERTEX
8
0
10
-0.575559
20
0.494685
0
SEQEND
8
0
0
TEXT
8
0
10
-0.522449
20
0.493630
40
0.048000
41
1.041667
1
C8
0
CIRCLE
8
0
10
0.194213
20
0.322835
40
0.242565
0
CIRCLE
8
0
10
0.194213
20
0.322835
40
0.050418
0
TEXT
8
0
10
0.028858
20
0.427323
40
0.080000
41
1.125000
1
+
0
TEXT
8
0
10
-0.161693
20
0.512408
40
0.048000
41
1.041667
1
BUZ1
0
POLYLINE
8
0
66
1
40
0.008000
41
0.008000
0
VERTEX
8
0
10
0.030354
20
-0.353701
0
VERTEX
8
0
10
0.030354
20
-0.323701
0
SEQEND
8
0
0
POLYLINE
8
0
66
1
40
0.008000
41
0.008000
0
VERTEX
8
0
10
0.090354
20
-0.353701
0
VERTEX
8
0
10
0.090354
20
-0.323701
0
SEQEND
8
0
0
POLYLINE
8
0
66
1
40
0.008000
41
0.008000
0
VERTEX
8
0
10
0.000354
20
-0.303701
0
VERTEX
8
0
10
0.000354
20
-0.283701
0
SEQEND
8
0
0
POLYLINE
8
0
66
1
40
0.008000
41
0.008000
0
VERTEX
8
0
10
-0.009646
20
-0.293701
0
VERTEX
8
0
10
0.010354
20
-0.293701
0
SEQEND
8
0
0
TEXT
8
0
10
0.011850
20
-0.573740
40
0.048000
41
1.041667
50
90.000000
1
C3
0
POLYLINE
8
0
66
1
40
0.008000
41
0.008000
0
VERTEX
8
0
10
-0.600433
20
-0.233780
0
VERTEX
8
0
10
-0.570433
20
-0.233780
0
SEQEND
8
0
0
POLYLINE
8
0
66
1
40
0.008000
41
0.008000
0
VERTEX
8
0
10
-0.600433
20
-0.293780
0
VERTEX
8
0
10
-0.570433
20
-0.293780
0
SEQEND
8
0
0
POLYLINE
8
0
66
1
40
0.008000
41
0.008000
0
VERTEX
8
0
10
-0.550433
20
-0.203780
0
VERTEX
8
0
10
-0.530433
20
-0.203780
0
SEQEND
8
0
0
POLYLINE
8
0
66
1
40
0.008000
41
0.008000
0
VERTEX
8
0
10
-0.540433
20
-0.193780
0
VERTEX
8
0
10
-0.540433
20
-0.213780
0
SEQEND
8
0
0
TEXT
8
0
10
-0.785039
20
-0.270394
40
0.048000
41
1.041667
1
C2
0
POLYLINE
8
0
66
1
40
0.008000
41
0.008000
0
VERTEX
8
0
10
0.648150
20
-0.368110
0
VERTEX
8
0
10
0.848150
20
-0.368110
0
VERTEX
8
0
10
0.848150
20
0.431890
0
VERTEX
8
0
10
0.648150
20
0.431890
0
VERTEX
8
0
10
0.648150
20
-0.368110
0
SEQEND
8
0
0
TEXT
8
0
10
0.906150
20
-0.018110
40
0.048000
41
1.041667
50
90.000000
1
J1
0
TEXT
8
0
10
-0.447520
20
-0.284265
40
0.040000
41
0.750000
1
TX RX GND
0
TEXT
8
0
10
0.468685
20
-0.519685
40
0.048000
41
0.833333
50
90.000000
1
GND VCC SCL SDA
0
POLYLINE
8
0
66
1
40
0.000000
41
0.000000
0
VERTEX
8
0
10
0.645162
20
-0.444094
0
VERTEX
8
0
10
0.645162
20
0.448031
0
VERTEX
8
0
10
0.484532
20
0.448031
0
VERTEX
8
0
10
0.484532
20
-0.444094
0
VERTEX
8
0
10
0.645162
20
-0.444094
0
SEQEND
8
0
0
TEXT
8
0
10
-0.896339
20
-0.584370
40
0.040000
41
1.000000
1
www.jpinglobal.com
0
TEXT
8
0
10
-0.888465
20
-0.459512
40
0.048000
41
0.833333
1
Bogota
0
TEXT
8
0
10
-0.892402
20
-0.534315
40
0.048000
41
0.833333
1
Colombia
0
TEXT
8
0
10
0.536732
20
-0.565811
40
0.048000
41
0.833333
1
JUDAPIES
0
TEXT
8
0
10
0.418622
20
0.524740
40
0.048000
41
0.833333
1
CH376S_I2C
0
ENDSEC
0
EOF

