M48
METRIC,TZ
T01C0.5080
T02C3.0000
T03C1.0160
T04C1.5240
T05C0.7620
T06C4.0000
%
T01
X+62339Y+88283
X+53334Y+83404
X+46593Y+62813
X+53400Y+86300
X+25900Y+55900
X+14500Y+75800
X+18200Y+111831
X+16600Y+57667
X+32466Y+63872
X+47100Y+46500
X+70029Y+97916
X+40700Y+55858
X+73137Y+28077
X+36159Y+73014
X+108859Y+27419
X+34544Y+70112
X+35578Y+29418
X+35578Y+43154
X+33148Y+18834
X+33148Y+45646
X+22691Y+18540
X+24815Y+40244
X+31263Y+38121
X+40709Y+76274
X+63300Y+42740
X+46400Y+43400
X+79000Y+59900
X+46622Y+38990
T02
X+123300Y+109200
X+3900Y+109200
X+4700Y+3700
X+124100Y+4400
T03
X+4219Y+46444
X+4219Y+43904
X+4219Y+41364
X+109280Y+23660
X+106780Y+23660
X+104280Y+23660
X+101780Y+23660
X+99280Y+23660
X+96780Y+23660
X+73740Y+24180
X+71240Y+24180
X+68740Y+24180
X+66240Y+24180
X+63740Y+24180
X+61240Y+24180
X+20900Y+73420
X+20900Y+70880
X+20900Y+68340
X+20900Y+65800
X+20900Y+63260
X+20900Y+60720
X+20900Y+58180
X+20900Y+55640
X+20040Y+29980
X+22580Y+29980
X+58700Y+40200
X+58700Y+42740
X+58700Y+45280
X+58700Y+47820
X+58700Y+50360
X+58700Y+52900
X+58700Y+55440
X+58700Y+57980
X+58700Y+60520
X+58700Y+63060
X+58700Y+65600
X+58700Y+68140
X+58700Y+70680
X+58700Y+73220
X+58700Y+75760
X+58700Y+78300
X+58700Y+80840
X+58700Y+83380
X+58700Y+85920
X+58700Y+88460
X+30160Y+14700
X+32700Y+14700
X+35240Y+14700
X+41200Y+14800
X+43740Y+14800
X+46280Y+14800
X+11500Y+105660
X+11500Y+108200
X+11500Y+110740
X+5500Y+12240
X+5500Y+14780
X+5500Y+17320
X+5500Y+19860
X+98438Y+59309
X+98438Y+61849
X+98438Y+64389
X+98438Y+38303
X+98438Y+40843
X+98438Y+43383
T04
X+8119Y+31304
X+8119Y+56304
X+123040Y+95880
X+123040Y+75080
X+77940Y+95880
X+77940Y+87880
X+118828Y+30320
X+118828Y+35400
X+118878Y+41565
X+118878Y+46645
X+118980Y+57660
X+118980Y+52580
X+7440Y+88380
X+7440Y+93460
X+7440Y+98540
X+7440Y+78080
X+7440Y+83160
X+43440Y+105090
X+48520Y+105090
X+53600Y+105090
X+58800Y+105090
X+63880Y+105090
X+68960Y+105090
X+20200Y+5750
X+25280Y+5750
X+40760Y+5750
X+35680Y+5750
X+30600Y+5750
X+98500Y+105000
X+103580Y+105000
X+118923Y+63424
X+118923Y+68504
T05
X+28200Y+81300
X+28200Y+78760
X+28200Y+76220
X+28200Y+73680
X+28200Y+71140
X+28200Y+68600
X+28200Y+66060
X+28200Y+63520
X+28200Y+60980
X+28200Y+58440
X+28200Y+55900
X+28200Y+53360
X+28200Y+50820
X+28200Y+48280
X+28200Y+45740
X+28200Y+43200
X+28200Y+40660
X+28200Y+38120
X+28200Y+35580
X+28200Y+33040
X+43440Y+33040
X+43440Y+35580
X+43440Y+38120
X+43440Y+40660
X+43440Y+43200
X+43440Y+45740
X+43440Y+48280
X+43440Y+50820
X+43440Y+53360
X+43440Y+55900
X+43440Y+58440
X+43440Y+60980
X+43440Y+63520
X+43440Y+66060
X+43440Y+68600
X+43440Y+71140
X+43440Y+73680
X+43440Y+76220
X+43440Y+78760
X+43440Y+81300
X+25540Y+83480
X+15380Y+83480
X+33400Y+94960
X+30860Y+94960
X+28320Y+94960
X+25780Y+94960
X+23240Y+94960
X+20700Y+94960
X+18160Y+94960
X+18160Y+87340
X+20700Y+87340
X+23240Y+87340
X+25780Y+87340
X+28320Y+87340
X+30860Y+87340
X+33400Y+87340
X+23300Y+44740
X+23300Y+49820
X+18730Y+44720
X+16190Y+44720
X+18730Y+49720
X+16190Y+49720
X+82906Y+64685
X+82906Y+62145
X+82906Y+59605
X+90526Y+59605
X+90526Y+62145
X+90526Y+64685
X+16440Y+73480
X+6280Y+73480
X+16440Y+70480
X+6280Y+70480
X+16540Y+67480
X+6380Y+67480
X+16440Y+64380
X+6280Y+64380
X+16340Y+38780
X+16340Y+28620
X+30860Y+98840
X+20700Y+98840
X+30900Y+101740
X+20740Y+101740
X+38200Y+97220
X+38200Y+87060
X+14950Y+106100
X+25110Y+106100
X+14950Y+108800
X+25110Y+108800
X+44200Y+97480
X+44200Y+92400
X+49800Y+94940
X+15300Y+78700
X+25460Y+78700
X+38460Y+104700
X+28300Y+104700
X+38460Y+107700
X+28300Y+107700
X+38460Y+110500
X+28300Y+110500
X+9900Y+17300
X+20060Y+17300
X+9900Y+20400
X+20060Y+20400
X+75693Y+69803
X+75693Y+67771
X+75693Y+65739
X+71900Y+61100
X+71900Y+71260
X+7100Y+103800
X+4560Y+103800
X+14000Y+14400
X+14000Y+4240
X+30500Y+20700
X+40660Y+20700
X+30500Y+23400
X+40660Y+23400
X+34300Y+26400
X+44460Y+26400
X+24900Y+24100
X+24900Y+13940
X+87700Y+106500
X+87700Y+103960
X+19700Y+37900
X+22240Y+37900
X+69400Y+30900
X+74480Y+30900
X+82829Y+44069
X+82829Y+41529
X+82829Y+38989
X+90449Y+38989
X+90449Y+41529
X+90449Y+44069
X+75209Y+46406
X+75209Y+36246
X+75209Y+61493
X+75209Y+51333
X+92989Y+69723
X+80289Y+69723
X+92989Y+49784
X+80289Y+49784
X+103391Y+31801
X+103391Y+47041
X+103391Y+53569
X+103391Y+68809
X+81559Y+34087
X+91719Y+34087
X+81686Y+54940
X+91846Y+54940
X+108547Y+69596
X+108547Y+54356
X+108547Y+46914
X+108547Y+31674
T06
X+91480Y+11660
X+114480Y+11660
X+55940Y+12180
X+78940Y+12180
M30
