  0
SECTION
  2
HEADER
  9
$ACADVER
  1
AC2.10
  0
ENDSEC
  0
SECTION
  2
TABLES
  0
TABLE
  2
LAYER
 70
     8
  0
LAYER
  2
0
 62
     7
 70
0
  6
CONTINUOUS
  0
LAYER
  2
1
 62
     1
 70
0
  6
CONTINUOUS
  0
LAYER
  2
2
 62
     2
 70
0
  6
CONTINUOUS
  0
LAYER
  2
3
 62
     3
 70
0
  6
CONTINUOUS
  0
LAYER
  2
4
 62
     4
 70
0
  6
CONTINUOUS
  0
LAYER
  2
5
 62
     5
 70
0
  6
CONTINUOUS
  0
LAYER
  2
6
 62
     6
 70
0
  6
CONTINUOUS
  0
LAYER
  2
7
 62
     7
 70
0
  6
CONTINUOUS
  0
ENDTAB
  0
TABLE
  2
STYLE
 70
     1
  0
STYLE
 70
     0
  2
STANDARD
  3
TXT
 40
0.00
 41
1.00
 42
1.00
 50
0.00
 71
     0
  0
ENDTAB
  0
ENDSEC
  0
SECTION
  2
BLOCKS
  0
BLOCK
  8
0
  2
EPAD
 70
0
 10
0.0
 20
0.0
  0
POLYLINE
  8
0
 66
1
 70
1
 40
0.5
 41
0.5
  0
VERTEX
  8
0
 10
-0.25
 20
0.0
 42
1.0
  0
VERTEX
  8
0
 10
0.25
 20
0.0
 42
1.0
  0
SEQEND
  8
0
  0
ENDBLK
  8
0
  0
BLOCK
  8
0
  2
RPAD
 70
0
 10
0.0
 20
0.0
  0
TRACE
  8
0
 10
-0.5
 20
-0.5
 11
-0.5
 21
0.5
 12
0.5
 22
-0.5
 13
0.5
 23
0.5
  0
ENDBLK
  8
0
  0
ENDSEC
0
SECTION
2
ENTITIES
0
POLYLINE
8
0
66
1
40
0.025000
41
0.025000
0
VERTEX
8
0
10
-0.768000
20
-1.899000
0
VERTEX
8
0
10
-0.324000
20
-1.899000
0
VERTEX
8
0
10
-0.265000
20
-1.959000
0
SEQEND
8
0
0
POLYLINE
8
0
66
1
40
0.025000
41
0.025000
0
VERTEX
8
0
10
-0.976000
20
-1.444000
0
VERTEX
8
0
10
-1.538000
20
-1.444000
0
VERTEX
8
0
10
-1.544000
20
-1.450000
0
SEQEND
8
0
0
POLYLINE
8
0
66
1
40
0.025000
41
0.025000
0
VERTEX
8
0
10
-2.902000
20
-0.022000
0
VERTEX
8
0
10
-2.820000
20
0.066000
0
VERTEX
8
0
10
-2.750000
20
0.136000
0
VERTEX
8
0
10
-1.363000
20
0.136000
0
SEQEND
8
0
0
POLYLINE
8
0
66
1
40
0.025000
41
0.025000
0
VERTEX
8
0
10
-2.810000
20
-0.085000
0
VERTEX
8
0
10
-2.810000
20
-0.022000
0
VERTEX
8
0
10
-2.707000
20
0.080000
0
VERTEX
8
0
10
-1.587000
20
0.080000
0
VERTEX
8
0
10
-1.540000
20
0.032000
0
VERTEX
8
0
10
-1.332000
20
0.032000
0
VERTEX
8
0
10
-1.235000
20
0.129000
0
SEQEND
8
0
0
POLYLINE
8
0
66
1
40
0.025000
41
0.025000
0
VERTEX
8
0
10
-2.709000
20
-0.128000
0
VERTEX
8
0
10
-2.709000
20
-0.063000
0
VERTEX
8
0
10
-2.629000
20
0.017000
0
VERTEX
8
0
10
-1.617000
20
0.017000
0
VERTEX
8
0
10
-1.552000
20
-0.047000
0
VERTEX
8
0
10
-1.270000
20
-0.047000
0
VERTEX
8
0
10
-1.093000
20
0.129000
0
SEQEND
8
0
0
POLYLINE
8
0
66
1
40
0.025000
41
0.025000
0
VERTEX
8
0
10
-2.882000
20
0.504000
0
VERTEX
8
0
10
-0.909000
20
0.504000
0
VERTEX
8
0
10
-0.838000
20
0.433000
0
VERTEX
8
0
10
-0.838000
20
0.216000
0
VERTEX
8
0
10
-0.965000
20
0.089000
0
SEQEND
8
0
0
POLYLINE
8
0
66
1
40
0.025000
41
0.025000
0
VERTEX
8
0
10
-1.192000
20
-0.383000
0
VERTEX
8
0
10
-0.817000
20
-0.383000
0
VERTEX
8
0
10
-0.600000
20
-0.165000
0
SEQEND
8
0
0
POLYLINE
8
0
66
1
40
0.025000
41
0.025000
0
VERTEX
8
0
10
-3.111000
20
0.410000
0
VERTEX
8
0
10
-3.111000
20
0.546000
0
VERTEX
8
0
10
-3.002000
20
0.655000
0
SEQEND
8
0
0
POLYLINE
8
0
66
1
40
0.025000
41
0.025000
0
VERTEX
8
0
10
-0.602000
20
-0.876000
0
VERTEX
8
0
10
-0.602000
20
-0.791000
0
VERTEX
8
0
10
-0.396000
20
-0.585000
0
VERTEX
8
0
10
-0.349000
20
-0.585000
0
VERTEX
8
0
10
-0.327000
20
-0.563000
0
SEQEND
8
0
0
POLYLINE
8
0
66
1
40
0.025000
41
0.025000
0
VERTEX
8
0
10
-0.967000
20
-1.112000
0
VERTEX
8
0
10
-0.883000
20
-1.112000
0
VERTEX
8
0
10
-0.647000
20
-0.876000
0
VERTEX
8
0
10
-0.602000
20
-0.876000
0
VERTEX
8
0
10
-0.479000
20
-0.876000
0
VERTEX
8
0
10
-0.377000
20
-0.978000
0
VERTEX
8
0
10
-0.253000
20
-0.978000
0
VERTEX
8
0
10
-0.252000
20
-0.979000
0
SEQEND
8
0
0
POLYLINE
8
0
66
1
40
0.025000
41
0.025000
0
VERTEX
8
0
10
2.715000
20
-1.551000
0
VERTEX
8
0
10
2.715000
20
-1.474000
0
VERTEX
8
0
10
2.845000
20
-1.345000
0
SEQEND
8
0
0
POLYLINE
8
0
66
1
40
0.025000
41
0.025000
0
VERTEX
8
0
10
0.530000
20
-1.333000
0
VERTEX
8
0
10
0.980000
20
-1.333000
0
VERTEX
8
0
10
1.212000
20
-1.565000
0
SEQEND
8
0
0
POLYLINE
8
0
66
1
40
0.025000
41
0.025000
0
VERTEX
8
0
10
-2.473000
20
-1.851000
0
VERTEX
8
0
10
-2.664000
20
-1.851000
0
VERTEX
8
0
10
-2.810000
20
-1.706000
0
VERTEX
8
0
10
-2.810000
20
-1.595000
0
SEQEND
8
0
0
POLYLINE
8
0
66
1
40
0.025000
41
0.025000
0
VERTEX
8
0
10
-0.404000
20
-0.410000
0
VERTEX
8
0
10
-0.555000
20
-0.410000
0
VERTEX
8
0
10
-0.656000
20
-0.511000
0
VERTEX
8
0
10
-2.141000
20
-0.511000
0
VERTEX
8
0
10
-2.212000
20
-0.440000
0
VERTEX
8
0
10
-2.212000
20
-0.237000
0
VERTEX
8
0
10
-2.203000
20
-0.228000
0
SEQEND
8
0
0
POLYLINE
8
0
66
1
40
0.025000
41
0.025000
0
VERTEX
8
0
10
-0.520000
20
0.014000
0
VERTEX
8
0
10
-0.904000
20
0.014000
0
VERTEX
8
0
10
-1.050000
20
-0.132000
0
VERTEX
8
0
10
-2.303000
20
-0.132000
0
VERTEX
8
0
10
-2.308000
20
-0.127000
0
SEQEND
8
0
0
POLYLINE
8
0
66
1
40
0.025000
41
0.025000
0
VERTEX
8
0
10
-1.037000
20
-1.763000
0
VERTEX
8
0
10
-1.037000
20
-1.810000
0
VERTEX
8
0
10
-1.033000
20
-1.814000
0
VERTEX
8
0
10
-0.911000
20
-1.937000
0
VERTEX
8
0
10
-0.910000
20
-1.937000
0
VERTEX
8
0
10
-0.910000
20
-1.967000
0
VERTEX
8
0
10
-0.837000
20
-2.040000
0
VERTEX
8
0
10
-0.213000
20
-2.040000
0
VERTEX
8
0
10
-0.159000
20
-1.986000
0
VERTEX
8
0
10
-0.159000
20
-1.934000
0
VERTEX
8
0
10
-0.303000
20
-1.790000
0
VERTEX
8
0
10
-0.303000
20
-1.650000
0
SEQEND
8
0
0
POLYLINE
8
0
66
1
40
0.025000
41
0.025000
0
VERTEX
8
0
10
-1.033000
20
-1.814000
0
VERTEX
8
0
10
-1.033000
20
-1.767000
0
VERTEX
8
0
10
-1.037000
20
-1.763000
0
SEQEND
8
0
0
POLYLINE
8
0
66
1
40
0.025000
41
0.025000
0
VERTEX
8
0
10
-0.213000
20
-2.040000
0
VERTEX
8
0
10
-0.202000
20
-2.040000
0
VERTEX
8
0
10
-0.159000
20
-1.997000
0
VERTEX
8
0
10
-0.159000
20
-1.986000
0
SEQEND
8
0
0
POLYLINE
8
0
66
1
40
0.025000
41
0.025000
0
VERTEX
8
0
10
2.408000
20
0.322000
0
VERTEX
8
0
10
2.171000
20
0.322000
0
VERTEX
8
0
10
2.061000
20
0.213000
0
SEQEND
8
0
0
POLYLINE
8
0
66
1
40
0.025000
41
0.025000
0
VERTEX
8
0
10
2.228000
20
-0.408000
0
VERTEX
8
0
10
2.543000
20
-0.408000
0
VERTEX
8
0
10
2.580000
20
-0.370000
0
VERTEX
8
0
10
2.580000
20
-0.139000
0
SEQEND
8
0
0
POLYLINE
8
0
66
1
40
0.025000
41
0.025000
0
VERTEX
8
0
10
2.736000
20
-1.113000
0
VERTEX
8
0
10
2.676000
20
-1.113000
0
VERTEX
8
0
10
2.467000
20
-1.321000
0
VERTEX
8
0
10
2.467000
20
-1.341000
0
VERTEX
8
0
10
2.242000
20
-1.341000
0
VERTEX
8
0
10
2.095000
20
-1.194000
0
VERTEX
8
0
10
2.095000
20
-1.104000
0
VERTEX
8
0
10
2.115000
20
-1.084000
0
SEQEND
8
0
0
POLYLINE
8
0
66
1
40
0.025000
41
0.025000
0
VERTEX
8
0
10
2.104000
20
-0.932000
0
VERTEX
8
0
10
2.104000
20
-0.631000
0
VERTEX
8
0
10
2.253000
20
-0.483000
0
VERTEX
8
0
10
2.372000
20
-0.483000
0
VERTEX
8
0
10
2.440000
20
-0.550000
0
VERTEX
8
0
10
2.440000
20
-0.617000
0
VERTEX
8
0
10
2.515000
20
-0.692000
0
VERTEX
8
0
10
2.897000
20
-0.692000
0
VERTEX
8
0
10
2.903000
20
-0.698000
0
SEQEND
8
0
0
POLYLINE
8
0
66
1
40
0.025000
41
0.025000
0
VERTEX
8
0
10
2.501000
20
-1.013000
0
VERTEX
8
0
10
3.025000
20
-1.013000
0
VERTEX
8
0
10
3.148000
20
-1.136000
0
VERTEX
8
0
10
3.270000
20
-1.258000
0
VERTEX
8
0
10
3.270000
20
-1.497000
0
SEQEND
8
0
0
POLYLINE
8
0
66
1
40
0.025000
41
0.025000
0
VERTEX
8
0
10
3.112000
20
-0.533000
0
VERTEX
8
0
10
3.258000
20
-0.679000
0
VERTEX
8
0
10
3.367000
20
-0.679000
0
VERTEX
8
0
10
3.437000
20
-0.749000
0
VERTEX
8
0
10
3.437000
20
-0.837000
0
SEQEND
8
0
0
POLYLINE
8
0
66
1
40
0.025000
41
0.025000
0
VERTEX
8
0
10
3.049000
20
-0.617000
0
VERTEX
8
0
10
3.049000
20
-0.646000
0
VERTEX
8
0
10
3.168000
20
-0.765000
0
VERTEX
8
0
10
3.145000
20
-0.788000
0
VERTEX
8
0
10
3.145000
20
-0.937000
0
SEQEND
8
0
0
POLYLINE
8
0
66
1
40
0.025000
41
0.025000
0
VERTEX
8
0
10
0.515000
20
-1.317000
0
VERTEX
8
0
10
0.515000
20
-1.232000
0
VERTEX
8
0
10
0.731000
20
-1.016000
0
VERTEX
8
0
10
0.816000
20
-1.016000
0
VERTEX
8
0
10
0.852000
20
-0.980000
0
SEQEND
8
0
0
POLYLINE
8
0
66
1
40
0.025000
41
0.025000
0
VERTEX
8
0
10
-0.976000
20
-1.444000
0
VERTEX
8
0
10
-0.642000
20
-1.444000
0
VERTEX
8
0
10
-0.577000
20
-1.379000
0
VERTEX
8
0
10
-0.577000
20
-1.188000
0
VERTEX
8
0
10
-0.442000
20
-1.053000
0
VERTEX
8
0
10
0.251000
20
-1.053000
0
VERTEX
8
0
10
0.515000
20
-1.317000
0
VERTEX
8
0
10
0.530000
20
-1.333000
0
SEQEND
8
0
0
POLYLINE
8
0
66
1
40
0.025000
41
0.025000
0
VERTEX
8
0
10
1.625000
20
-1.388000
0
VERTEX
8
0
10
1.389000
20
-1.388000
0
VERTEX
8
0
10
1.198000
20
-1.197000
0
SEQEND
8
0
0
POLYLINE
8
0
66
1
40
0.025000
41
0.025000
0
VERTEX
8
0
10
1.683000
20
-0.391000
0
VERTEX
8
0
10
1.890000
20
-0.391000
0
VERTEX
8
0
10
2.029000
20
-0.252000
0
VERTEX
8
0
10
2.029000
20
-0.175000
0
SEQEND
8
0
0
POLYLINE
8
0
66
1
40
0.025000
41
0.025000
0
VERTEX
8
0
10
0.809000
20
0.114000
0
VERTEX
8
0
10
0.809000
20
0.512000
0
VERTEX
8
0
10
0.805000
20
0.516000
0
SEQEND
8
0
0
POLYLINE
8
0
66
1
40
0.025000
41
0.025000
0
VERTEX
8
0
10
1.681000
20
-0.933000
0
VERTEX
8
0
10
1.681000
20
-1.277000
0
VERTEX
8
0
10
1.829000
20
-1.425000
0
VERTEX
8
0
10
2.355000
20
-1.425000
0
SEQEND
8
0
0
POLYLINE
8
0
66
1
40
0.025000
41
0.025000
0
VERTEX
8
0
10
1.400000
20
-0.102000
0
VERTEX
8
0
10
1.400000
20
0.060000
0
VERTEX
8
0
10
1.587000
20
0.247000
0
VERTEX
8
0
10
1.943000
20
0.247000
0
VERTEX
8
0
10
2.078000
20
0.382000
0
VERTEX
8
0
10
2.302000
20
0.382000
0
VERTEX
8
0
10
2.365000
20
0.445000
0
VERTEX
8
0
10
2.846000
20
0.445000
0
VERTEX
8
0
10
2.972000
20
0.571000
0
SEQEND
8
0
0
POLYLINE
8
0
66
1
40
0.025000
41
0.025000
0
VERTEX
8
0
10
1.328000
20
0.009000
0
VERTEX
8
0
10
1.328000
20
0.089000
0
VERTEX
8
0
10
1.547000
20
0.308000
0
VERTEX
8
0
10
1.915000
20
0.308000
0
VERTEX
8
0
10
2.045000
20
0.438000
0
VERTEX
8
0
10
2.257000
20
0.438000
0
VERTEX
8
0
10
2.319000
20
0.499000
0
VERTEX
8
0
10
2.817000
20
0.499000
0
VERTEX
8
0
10
2.817000
20
0.624000
0
VERTEX
8
0
10
2.980000
20
0.787000
0
SEQEND
8
0
0
POLYLINE
8
0
66
1
40
0.025000
41
0.025000
0
VERTEX
8
0
10
1.307000
20
0.172000
0
VERTEX
8
0
10
1.522000
20
0.386000
0
VERTEX
8
0
10
1.907000
20
0.386000
0
VERTEX
8
0
10
2.016000
20
0.495000
0
VERTEX
8
0
10
2.223000
20
0.495000
0
VERTEX
8
0
10
2.294000
20
0.566000
0
VERTEX
8
0
10
2.650000
20
0.566000
0
VERTEX
8
0
10
2.874000
20
0.790000
0
VERTEX
8
0
10
2.874000
20
0.915000
0
VERTEX
8
0
10
2.951000
20
0.992000
0
SEQEND
8
0
0
POLYLINE
8
0
66
1
40
0.025000
41
0.025000
0
VERTEX
8
0
10
1.305000
20
0.291000
0
VERTEX
8
0
10
1.461000
20
0.447000
0
VERTEX
8
0
10
1.892000
20
0.447000
0
VERTEX
8
0
10
2.193000
20
0.749000
0
VERTEX
8
0
10
2.716000
20
0.749000
0
VERTEX
8
0
10
2.809000
20
0.842000
0
VERTEX
8
0
10
2.809000
20
1.036000
0
VERTEX
8
0
10
2.960000
20
1.187000
0
SEQEND
8
0
0
POLYLINE
8
0
66
1
40
0.025000
41
0.025000
0
VERTEX
8
0
10
2.061000
20
0.213000
0
VERTEX
8
0
10
1.990000
20
0.142000
0
VERTEX
8
0
10
1.990000
20
-0.052000
0
VERTEX
8
0
10
1.916000
20
-0.126000
0
VERTEX
8
0
10
1.916000
20
-0.265000
0
VERTEX
8
0
10
1.878000
20
-0.303000
0
VERTEX
8
0
10
1.111000
20
-0.303000
0
VERTEX
8
0
10
0.911000
20
-0.504000
0
VERTEX
8
0
10
0.911000
20
-0.518000
0
VERTEX
8
0
10
0.731000
20
-0.518000
0
VERTEX
8
0
10
0.660000
20
-0.589000
0
SEQEND
8
0
0
INSERT
8
0
2
EPAD
10
-0.768000
20
-1.899000
41
0.070000
42
0.070000
0
CIRCLE
8
0
10
-0.768000
20
-1.899000
40
0.025000
0
INSERT
8
0
2
EPAD
10
-0.265000
20
-1.959000
41
0.070000
42
0.070000
0
CIRCLE
8
0
10
-0.265000
20
-1.959000
40
0.025000
0
INSERT
8
0
2
EPAD
10
-0.976000
20
-1.444000
41
0.070000
42
0.070000
0
CIRCLE
8
0
10
-0.976000
20
-1.444000
40
0.025000
0
INSERT
8
0
2
EPAD
10
-1.544000
20
-1.450000
41
0.070000
42
0.070000
0
CIRCLE
8
0
10
-1.544000
20
-1.450000
40
0.025000
0
INSERT
8
0
2
EPAD
10
0.530000
20
-1.333000
41
0.070000
42
0.070000
0
CIRCLE
8
0
10
0.530000
20
-1.333000
40
0.025000
0
INSERT
8
0
2
EPAD
10
-2.902000
20
-0.022000
41
0.070000
42
0.070000
0
CIRCLE
8
0
10
-2.902000
20
-0.022000
40
0.025000
0
INSERT
8
0
2
EPAD
10
-1.363000
20
0.136000
41
0.070000
42
0.070000
0
CIRCLE
8
0
10
-1.363000
20
0.136000
40
0.025000
0
INSERT
8
0
2
EPAD
10
-2.810000
20
-0.085000
41
0.070000
42
0.070000
0
CIRCLE
8
0
10
-2.810000
20
-0.085000
40
0.025000
0
INSERT
8
0
2
EPAD
10
-1.235000
20
0.129000
41
0.070000
42
0.070000
0
CIRCLE
8
0
10
-1.235000
20
0.129000
40
0.025000
0
INSERT
8
0
2
EPAD
10
-2.709000
20
-0.128000
41
0.070000
42
0.070000
0
CIRCLE
8
0
10
-2.709000
20
-0.128000
40
0.025000
0
INSERT
8
0
2
EPAD
10
-1.093000
20
0.129000
41
0.070000
42
0.070000
0
CIRCLE
8
0
10
-1.093000
20
0.129000
40
0.025000
0
INSERT
8
0
2
EPAD
10
-2.882000
20
0.504000
41
0.070000
42
0.070000
0
CIRCLE
8
0
10
-2.882000
20
0.504000
40
0.025000
0
INSERT
8
0
2
EPAD
10
-0.965000
20
0.089000
41
0.070000
42
0.070000
0
CIRCLE
8
0
10
-0.965000
20
0.089000
40
0.025000
0
INSERT
8
0
2
EPAD
10
-1.192000
20
-0.383000
41
0.070000
42
0.070000
0
CIRCLE
8
0
10
-1.192000
20
-0.383000
40
0.025000
0
INSERT
8
0
2
EPAD
10
-0.600000
20
-0.165000
41
0.070000
42
0.070000
0
CIRCLE
8
0
10
-0.600000
20
-0.165000
40
0.025000
0
INSERT
8
0
2
EPAD
10
-0.967000
20
-1.112000
41
0.070000
42
0.070000
0
CIRCLE
8
0
10
-0.967000
20
-1.112000
40
0.025000
0
INSERT
8
0
2
EPAD
10
-0.252000
20
-0.979000
41
0.070000
42
0.070000
0
CIRCLE
8
0
10
-0.252000
20
-0.979000
40
0.025000
0
INSERT
8
0
2
EPAD
10
-3.111000
20
0.410000
41
0.070000
42
0.070000
0
CIRCLE
8
0
10
-3.111000
20
0.410000
40
0.025000
0
INSERT
8
0
2
EPAD
10
-3.002000
20
0.655000
41
0.070000
42
0.070000
0
CIRCLE
8
0
10
-3.002000
20
0.655000
40
0.025000
0
INSERT
8
0
2
EPAD
10
-0.327000
20
-0.563000
41
0.070000
42
0.070000
0
CIRCLE
8
0
10
-0.327000
20
-0.563000
40
0.025000
0
INSERT
8
0
2
EPAD
10
2.715000
20
-1.551000
41
0.070000
42
0.070000
0
CIRCLE
8
0
10
2.715000
20
-1.551000
40
0.025000
0
INSERT
8
0
2
EPAD
10
2.845000
20
-1.345000
41
0.070000
42
0.070000
0
CIRCLE
8
0
10
2.845000
20
-1.345000
40
0.025000
0
INSERT
8
0
2
EPAD
10
1.212000
20
-1.565000
41
0.070000
42
0.070000
0
CIRCLE
8
0
10
1.212000
20
-1.565000
40
0.025000
0
INSERT
8
0
2
EPAD
10
-2.473000
20
-1.851000
41
0.070000
42
0.070000
0
CIRCLE
8
0
10
-2.473000
20
-1.851000
40
0.025000
0
INSERT
8
0
2
EPAD
10
-2.810000
20
-1.595000
41
0.070000
42
0.070000
0
CIRCLE
8
0
10
-2.810000
20
-1.595000
40
0.025000
0
INSERT
8
0
2
EPAD
10
-0.404000
20
-0.410000
41
0.070000
42
0.070000
0
CIRCLE
8
0
10
-0.404000
20
-0.410000
40
0.025000
0
INSERT
8
0
2
EPAD
10
-0.520000
20
0.014000
41
0.070000
42
0.070000
0
CIRCLE
8
0
10
-0.520000
20
0.014000
40
0.025000
0
INSERT
8
0
2
EPAD
10
-2.308000
20
-0.127000
41
0.070000
42
0.070000
0
CIRCLE
8
0
10
-2.308000
20
-0.127000
40
0.025000
0
INSERT
8
0
2
EPAD
10
-0.911000
20
-1.937000
41
0.070000
42
0.070000
0
CIRCLE
8
0
10
-0.911000
20
-1.937000
40
0.025000
0
INSERT
8
0
2
EPAD
10
-1.037000
20
-1.763000
41
0.070000
42
0.070000
0
CIRCLE
8
0
10
-1.037000
20
-1.763000
40
0.025000
0
INSERT
8
0
2
EPAD
10
-0.303000
20
-1.650000
41
0.070000
42
0.070000
0
CIRCLE
8
0
10
-0.303000
20
-1.650000
40
0.025000
0
INSERT
8
0
2
EPAD
10
2.408000
20
0.322000
41
0.070000
42
0.070000
0
CIRCLE
8
0
10
2.408000
20
0.322000
40
0.025000
0
INSERT
8
0
2
EPAD
10
2.061000
20
0.213000
41
0.070000
42
0.070000
0
CIRCLE
8
0
10
2.061000
20
0.213000
40
0.025000
0
INSERT
8
0
2
EPAD
10
2.228000
20
-0.408000
41
0.070000
42
0.070000
0
CIRCLE
8
0
10
2.228000
20
-0.408000
40
0.025000
0
INSERT
8
0
2
EPAD
10
2.580000
20
-0.139000
41
0.070000
42
0.070000
0
CIRCLE
8
0
10
2.580000
20
-0.139000
40
0.025000
0
INSERT
8
0
2
EPAD
10
2.736000
20
-1.113000
41
0.070000
42
0.070000
0
CIRCLE
8
0
10
2.736000
20
-1.113000
40
0.025000
0
INSERT
8
0
2
EPAD
10
2.115000
20
-1.084000
41
0.070000
42
0.070000
0
CIRCLE
8
0
10
2.115000
20
-1.084000
40
0.025000
0
INSERT
8
0
2
EPAD
10
2.104000
20
-0.932000
41
0.070000
42
0.070000
0
CIRCLE
8
0
10
2.104000
20
-0.932000
40
0.025000
0
INSERT
8
0
2
EPAD
10
2.903000
20
-0.698000
41
0.070000
42
0.070000
0
CIRCLE
8
0
10
2.903000
20
-0.698000
40
0.025000
0
INSERT
8
0
2
EPAD
10
2.501000
20
-1.013000
41
0.070000
42
0.070000
0
CIRCLE
8
0
10
2.501000
20
-1.013000
40
0.025000
0
INSERT
8
0
2
EPAD
10
3.270000
20
-1.497000
41
0.070000
42
0.070000
0
CIRCLE
8
0
10
3.270000
20
-1.497000
40
0.025000
0
INSERT
8
0
2
EPAD
10
3.112000
20
-0.533000
41
0.070000
42
0.070000
0
CIRCLE
8
0
10
3.112000
20
-0.533000
40
0.025000
0
INSERT
8
0
2
EPAD
10
3.437000
20
-0.837000
41
0.070000
42
0.070000
0
CIRCLE
8
0
10
3.437000
20
-0.837000
40
0.025000
0
INSERT
8
0
2
EPAD
10
3.049000
20
-0.617000
41
0.070000
42
0.070000
0
CIRCLE
8
0
10
3.049000
20
-0.617000
40
0.025000
0
INSERT
8
0
2
EPAD
10
3.145000
20
-0.937000
41
0.070000
42
0.070000
0
CIRCLE
8
0
10
3.145000
20
-0.937000
40
0.025000
0
INSERT
8
0
2
EPAD
10
0.852000
20
-0.980000
41
0.070000
42
0.070000
0
CIRCLE
8
0
10
0.852000
20
-0.980000
40
0.025000
0
INSERT
8
0
2
EPAD
10
1.625000
20
-1.388000
41
0.070000
42
0.070000
0
CIRCLE
8
0
10
1.625000
20
-1.388000
40
0.025000
0
INSERT
8
0
2
EPAD
10
1.198000
20
-1.197000
41
0.070000
42
0.070000
0
CIRCLE
8
0
10
1.198000
20
-1.197000
40
0.025000
0
INSERT
8
0
2
EPAD
10
1.683000
20
-0.391000
41
0.070000
42
0.070000
0
CIRCLE
8
0
10
1.683000
20
-0.391000
40
0.025000
0
INSERT
8
0
2
EPAD
10
2.029000
20
-0.175000
41
0.070000
42
0.070000
0
CIRCLE
8
0
10
2.029000
20
-0.175000
40
0.025000
0
INSERT
8
0
2
EPAD
10
0.809000
20
0.114000
41
0.070000
42
0.070000
0
CIRCLE
8
0
10
0.809000
20
0.114000
40
0.025000
0
INSERT
8
0
2
EPAD
10
0.805000
20
0.516000
41
0.070000
42
0.070000
0
CIRCLE
8
0
10
0.805000
20
0.516000
40
0.025000
0
INSERT
8
0
2
EPAD
10
1.681000
20
-0.933000
41
0.070000
42
0.070000
0
CIRCLE
8
0
10
1.681000
20
-0.933000
40
0.025000
0
INSERT
8
0
2
EPAD
10
2.355000
20
-1.425000
41
0.070000
42
0.070000
0
CIRCLE
8
0
10
2.355000
20
-1.425000
40
0.025000
0
INSERT
8
0
2
EPAD
10
1.400000
20
-0.102000
41
0.070000
42
0.070000
0
CIRCLE
8
0
10
1.400000
20
-0.102000
40
0.025000
0
INSERT
8
0
2
EPAD
10
2.972000
20
0.571000
41
0.070000
42
0.070000
0
CIRCLE
8
0
10
2.972000
20
0.571000
40
0.025000
0
INSERT
8
0
2
EPAD
10
1.328000
20
0.009000
41
0.070000
42
0.070000
0
CIRCLE
8
0
10
1.328000
20
0.009000
40
0.025000
0
INSERT
8
0
2
EPAD
10
2.980000
20
0.787000
41
0.070000
42
0.070000
0
CIRCLE
8
0
10
2.980000
20
0.787000
40
0.025000
0
INSERT
8
0
2
EPAD
10
1.307000
20
0.172000
41
0.070000
42
0.070000
0
CIRCLE
8
0
10
1.307000
20
0.172000
40
0.025000
0
INSERT
8
0
2
EPAD
10
2.951000
20
0.992000
41
0.070000
42
0.070000
0
CIRCLE
8
0
10
2.951000
20
0.992000
40
0.025000
0
INSERT
8
0
2
EPAD
10
1.305000
20
0.291000
41
0.070000
42
0.070000
0
CIRCLE
8
0
10
1.305000
20
0.291000
40
0.025000
0
INSERT
8
0
2
EPAD
10
2.960000
20
1.187000
41
0.070000
42
0.070000
0
CIRCLE
8
0
10
2.960000
20
1.187000
40
0.025000
0
INSERT
8
0
2
EPAD
10
0.660000
20
-0.589000
41
0.070000
42
0.070000
0
CIRCLE
8
0
10
0.660000
20
-0.589000
40
0.025000
0
INSERT
8
0
2
EPAD
10
3.498000
20
2.281000
41
0.250000
42
0.250000
0
CIRCLE
8
0
10
3.498000
20
2.281000
40
0.030000
0
INSERT
8
0
2
EPAD
10
-3.450000
20
2.281000
41
0.250000
42
0.250000
0
CIRCLE
8
0
10
-3.450000
20
2.281000
40
0.030000
0
INSERT
8
0
2
EPAD
10
-3.450000
20
-2.305000
41
0.250000
42
0.250000
0
CIRCLE
8
0
10
-3.450000
20
-2.305000
40
0.030000
0
INSERT
8
0
2
EPAD
10
3.498000
20
-2.305000
41
0.250000
42
0.250000
0
CIRCLE
8
0
10
3.498000
20
-2.305000
40
0.030000
0
INSERT
8
0
2
RPAD
10
-2.903000
20
-0.828000
41
0.050000
42
0.050000
50
0.000000
0
CIRCLE
8
0
10
-2.903000
20
-0.828000
40
0.030000
0
INSERT
8
0
2
EPAD
10
-2.803000
20
-0.828000
41
0.050000
42
0.050000
0
CIRCLE
8
0
10
-2.803000
20
-0.828000
40
0.030000
0
INSERT
8
0
2
EPAD
10
-2.703000
20
-0.828000
41
0.050000
42
0.050000
0
CIRCLE
8
0
10
-2.703000
20
-0.828000
40
0.030000
0
INSERT
8
0
2
EPAD
10
-2.603000
20
-0.828000
41
0.050000
42
0.050000
0
CIRCLE
8
0
10
-2.603000
20
-0.828000
40
0.030000
0
INSERT
8
0
2
EPAD
10
-2.503000
20
-0.828000
41
0.050000
42
0.050000
0
CIRCLE
8
0
10
-2.503000
20
-0.828000
40
0.030000
0
INSERT
8
0
2
EPAD
10
-2.403000
20
-0.828000
41
0.050000
42
0.050000
0
CIRCLE
8
0
10
-2.403000
20
-0.828000
40
0.030000
0
INSERT
8
0
2
EPAD
10
-2.303000
20
-0.828000
41
0.050000
42
0.050000
0
CIRCLE
8
0
10
-2.303000
20
-0.828000
40
0.030000
0
INSERT
8
0
2
EPAD
10
-2.203000
20
-0.828000
41
0.050000
42
0.050000
0
CIRCLE
8
0
10
-2.203000
20
-0.828000
40
0.030000
0
INSERT
8
0
2
EPAD
10
-2.103000
20
-0.828000
41
0.050000
42
0.050000
0
CIRCLE
8
0
10
-2.103000
20
-0.828000
40
0.030000
0
INSERT
8
0
2
EPAD
10
-2.003000
20
-0.828000
41
0.050000
42
0.050000
0
CIRCLE
8
0
10
-2.003000
20
-0.828000
40
0.030000
0
INSERT
8
0
2
EPAD
10
-1.903000
20
-0.828000
41
0.050000
42
0.050000
0
CIRCLE
8
0
10
-1.903000
20
-0.828000
40
0.030000
0
INSERT
8
0
2
EPAD
10
-1.803000
20
-0.828000
41
0.050000
42
0.050000
0
CIRCLE
8
0
10
-1.803000
20
-0.828000
40
0.030000
0
INSERT
8
0
2
EPAD
10
-1.703000
20
-0.828000
41
0.050000
42
0.050000
0
CIRCLE
8
0
10
-1.703000
20
-0.828000
40
0.030000
0
INSERT
8
0
2
EPAD
10
-1.603000
20
-0.828000
41
0.050000
42
0.050000
0
CIRCLE
8
0
10
-1.603000
20
-0.828000
40
0.030000
0
INSERT
8
0
2
EPAD
10
-1.503000
20
-0.828000
41
0.050000
42
0.050000
0
CIRCLE
8
0
10
-1.503000
20
-0.828000
40
0.030000
0
INSERT
8
0
2
EPAD
10
-1.403000
20
-0.828000
41
0.050000
42
0.050000
0
CIRCLE
8
0
10
-1.403000
20
-0.828000
40
0.030000
0
INSERT
8
0
2
EPAD
10
-1.303000
20
-0.828000
41
0.050000
42
0.050000
0
CIRCLE
8
0
10
-1.303000
20
-0.828000
40
0.030000
0
INSERT
8
0
2
EPAD
10
-1.203000
20
-0.828000
41
0.050000
42
0.050000
0
CIRCLE
8
0
10
-1.203000
20
-0.828000
40
0.030000
0
INSERT
8
0
2
EPAD
10
-1.103000
20
-0.828000
41
0.050000
42
0.050000
0
CIRCLE
8
0
10
-1.103000
20
-0.828000
40
0.030000
0
INSERT
8
0
2
EPAD
10
-1.003000
20
-0.828000
41
0.050000
42
0.050000
0
CIRCLE
8
0
10
-1.003000
20
-0.828000
40
0.030000
0
INSERT
8
0
2
EPAD
10
-1.003000
20
-0.228000
41
0.050000
42
0.050000
0
CIRCLE
8
0
10
-1.003000
20
-0.228000
40
0.030000
0
INSERT
8
0
2
EPAD
10
-1.103000
20
-0.228000
41
0.050000
42
0.050000
0
CIRCLE
8
0
10
-1.103000
20
-0.228000
40
0.030000
0
INSERT
8
0
2
EPAD
10
-1.203000
20
-0.228000
41
0.050000
42
0.050000
0
CIRCLE
8
0
10
-1.203000
20
-0.228000
40
0.030000
0
INSERT
8
0
2
EPAD
10
-1.303000
20
-0.228000
41
0.050000
42
0.050000
0
CIRCLE
8
0
10
-1.303000
20
-0.228000
40
0.030000
0
INSERT
8
0
2
EPAD
10
-1.403000
20
-0.228000
41
0.050000
42
0.050000
0
CIRCLE
8
0
10
-1.403000
20
-0.228000
40
0.030000
0
INSERT
8
0
2
EPAD
10
-1.503000
20
-0.228000
41
0.050000
42
0.050000
0
CIRCLE
8
0
10
-1.503000
20
-0.228000
40
0.030000
0
INSERT
8
0
2
EPAD
10
-1.603000
20
-0.228000
41
0.050000
42
0.050000
0
CIRCLE
8
0
10
-1.603000
20
-0.228000
40
0.030000
0
INSERT
8
0
2
EPAD
10
-1.703000
20
-0.228000
41
0.050000
42
0.050000
0
CIRCLE
8
0
10
-1.703000
20
-0.228000
40
0.030000
0
INSERT
8
0
2
EPAD
10
-1.803000
20
-0.228000
41
0.050000
42
0.050000
0
CIRCLE
8
0
10
-1.803000
20
-0.228000
40
0.030000
0
INSERT
8
0
2
EPAD
10
-1.903000
20
-0.228000
41
0.050000
42
0.050000
0
CIRCLE
8
0
10
-1.903000
20
-0.228000
40
0.030000
0
INSERT
8
0
2
EPAD
10
-2.003000
20
-0.228000
41
0.050000
42
0.050000
0
CIRCLE
8
0
10
-2.003000
20
-0.228000
40
0.030000
0
INSERT
8
0
2
EPAD
10
-2.103000
20
-0.228000
41
0.050000
42
0.050000
0
CIRCLE
8
0
10
-2.103000
20
-0.228000
40
0.030000
0
INSERT
8
0
2
EPAD
10
-2.203000
20
-0.228000
41
0.050000
42
0.050000
0
CIRCLE
8
0
10
-2.203000
20
-0.228000
40
0.030000
0
INSERT
8
0
2
EPAD
10
-2.303000
20
-0.228000
41
0.050000
42
0.050000
0
CIRCLE
8
0
10
-2.303000
20
-0.228000
40
0.030000
0
INSERT
8
0
2
EPAD
10
-2.403000
20
-0.228000
41
0.050000
42
0.050000
0
CIRCLE
8
0
10
-2.403000
20
-0.228000
40
0.030000
0
INSERT
8
0
2
EPAD
10
-2.503000
20
-0.228000
41
0.050000
42
0.050000
0
CIRCLE
8
0
10
-2.503000
20
-0.228000
40
0.030000
0
INSERT
8
0
2
EPAD
10
-2.603000
20
-0.228000
41
0.050000
42
0.050000
0
CIRCLE
8
0
10
-2.603000
20
-0.228000
40
0.030000
0
INSERT
8
0
2
EPAD
10
-2.703000
20
-0.228000
41
0.050000
42
0.050000
0
CIRCLE
8
0
10
-2.703000
20
-0.228000
40
0.030000
0
INSERT
8
0
2
EPAD
10
-2.803000
20
-0.228000
41
0.050000
42
0.050000
0
CIRCLE
8
0
10
-2.803000
20
-0.228000
40
0.030000
0
INSERT
8
0
2
EPAD
10
-2.903000
20
-0.228000
41
0.050000
42
0.050000
0
CIRCLE
8
0
10
-2.903000
20
-0.228000
40
0.030000
0
INSERT
8
0
2
RPAD
10
-0.093000
20
-0.822000
41
0.050000
42
0.050000
50
0.000000
0
CIRCLE
8
0
10
-0.093000
20
-0.822000
40
0.030000
0
INSERT
8
0
2
EPAD
10
0.006000
20
-0.822000
41
0.050000
42
0.050000
0
CIRCLE
8
0
10
0.006000
20
-0.822000
40
0.030000
0
INSERT
8
0
2
EPAD
10
0.106000
20
-0.822000
41
0.050000
42
0.050000
0
CIRCLE
8
0
10
0.106000
20
-0.822000
40
0.030000
0
INSERT
8
0
2
EPAD
10
0.206000
20
-0.822000
41
0.050000
42
0.050000
0
CIRCLE
8
0
10
0.206000
20
-0.822000
40
0.030000
0
INSERT
8
0
2
EPAD
10
0.306000
20
-0.822000
41
0.050000
42
0.050000
0
CIRCLE
8
0
10
0.306000
20
-0.822000
40
0.030000
0
INSERT
8
0
2
EPAD
10
0.406000
20
-0.822000
41
0.050000
42
0.050000
0
CIRCLE
8
0
10
0.406000
20
-0.822000
40
0.030000
0
INSERT
8
0
2
EPAD
10
0.506000
20
-0.822000
41
0.050000
42
0.050000
0
CIRCLE
8
0
10
0.506000
20
-0.822000
40
0.030000
0
INSERT
8
0
2
EPAD
10
0.606000
20
-0.822000
41
0.050000
42
0.050000
0
CIRCLE
8
0
10
0.606000
20
-0.822000
40
0.030000
0
INSERT
8
0
2
EPAD
10
0.706000
20
-0.822000
41
0.050000
42
0.050000
0
CIRCLE
8
0
10
0.706000
20
-0.822000
40
0.030000
0
INSERT
8
0
2
EPAD
10
0.806000
20
-0.822000
41
0.050000
42
0.050000
0
CIRCLE
8
0
10
0.806000
20
-0.822000
40
0.030000
0
INSERT
8
0
2
EPAD
10
0.906000
20
-0.822000
41
0.050000
42
0.050000
0
CIRCLE
8
0
10
0.906000
20
-0.822000
40
0.030000
0
INSERT
8
0
2
EPAD
10
1.006000
20
-0.822000
41
0.050000
42
0.050000
0
CIRCLE
8
0
10
1.006000
20
-0.822000
40
0.030000
0
INSERT
8
0
2
EPAD
10
1.106000
20
-0.822000
41
0.050000
42
0.050000
0
CIRCLE
8
0
10
1.106000
20
-0.822000
40
0.030000
0
INSERT
8
0
2
EPAD
10
1.206000
20
-0.822000
41
0.050000
42
0.050000
0
CIRCLE
8
0
10
1.206000
20
-0.822000
40
0.030000
0
INSERT
8
0
2
EPAD
10
1.306000
20
-0.822000
41
0.050000
42
0.050000
0
CIRCLE
8
0
10
1.306000
20
-0.822000
40
0.030000
0
INSERT
8
0
2
EPAD
10
1.406000
20
-0.822000
41
0.050000
42
0.050000
0
CIRCLE
8
0
10
1.406000
20
-0.822000
40
0.030000
0
INSERT
8
0
2
EPAD
10
1.506000
20
-0.822000
41
0.050000
42
0.050000
0
CIRCLE
8
0
10
1.506000
20
-0.822000
40
0.030000
0
INSERT
8
0
2
EPAD
10
1.606000
20
-0.822000
41
0.050000
42
0.050000
0
CIRCLE
8
0
10
1.606000
20
-0.822000
40
0.030000
0
INSERT
8
0
2
EPAD
10
1.706000
20
-0.822000
41
0.050000
42
0.050000
0
CIRCLE
8
0
10
1.706000
20
-0.822000
40
0.030000
0
INSERT
8
0
2
EPAD
10
1.806000
20
-0.822000
41
0.050000
42
0.050000
0
CIRCLE
8
0
10
1.806000
20
-0.822000
40
0.030000
0
INSERT
8
0
2
EPAD
10
1.806000
20
-0.222000
41
0.050000
42
0.050000
0
CIRCLE
8
0
10
1.806000
20
-0.222000
40
0.030000
0
INSERT
8
0
2
EPAD
10
1.706000
20
-0.222000
41
0.050000
42
0.050000
0
CIRCLE
8
0
10
1.706000
20
-0.222000
40
0.030000
0
INSERT
8
0
2
EPAD
10
1.606000
20
-0.222000
41
0.050000
42
0.050000
0
CIRCLE
8
0
10
1.606000
20
-0.222000
40
0.030000
0
INSERT
8
0
2
EPAD
10
1.506000
20
-0.222000
41
0.050000
42
0.050000
0
CIRCLE
8
0
10
1.506000
20
-0.222000
40
0.030000
0
INSERT
8
0
2
EPAD
10
1.406000
20
-0.222000
41
0.050000
42
0.050000
0
CIRCLE
8
0
10
1.406000
20
-0.222000
40
0.030000
0
INSERT
8
0
2
EPAD
10
1.306000
20
-0.222000
41
0.050000
42
0.050000
0
CIRCLE
8
0
10
1.306000
20
-0.222000
40
0.030000
0
INSERT
8
0
2
EPAD
10
1.206000
20
-0.222000
41
0.050000
42
0.050000
0
CIRCLE
8
0
10
1.206000
20
-0.222000
40
0.030000
0
INSERT
8
0
2
EPAD
10
1.106000
20
-0.222000
41
0.050000
42
0.050000
0
CIRCLE
8
0
10
1.106000
20
-0.222000
40
0.030000
0
INSERT
8
0
2
EPAD
10
1.006000
20
-0.222000
41
0.050000
42
0.050000
0
CIRCLE
8
0
10
1.006000
20
-0.222000
40
0.030000
0
INSERT
8
0
2
EPAD
10
0.906000
20
-0.222000
41
0.050000
42
0.050000
0
CIRCLE
8
0
10
0.906000
20
-0.222000
40
0.030000
0
INSERT
8
0
2
EPAD
10
0.806000
20
-0.222000
41
0.050000
42
0.050000
0
CIRCLE
8
0
10
0.806000
20
-0.222000
40
0.030000
0
INSERT
8
0
2
EPAD
10
0.706000
20
-0.222000
41
0.050000
42
0.050000
0
CIRCLE
8
0
10
0.706000
20
-0.222000
40
0.030000
0
INSERT
8
0
2
EPAD
10
0.606000
20
-0.222000
41
0.050000
42
0.050000
0
CIRCLE
8
0
10
0.606000
20
-0.222000
40
0.030000
0
INSERT
8
0
2
EPAD
10
0.506000
20
-0.222000
41
0.050000
42
0.050000
0
CIRCLE
8
0
10
0.506000
20
-0.222000
40
0.030000
0
INSERT
8
0
2
EPAD
10
0.406000
20
-0.222000
41
0.050000
42
0.050000
0
CIRCLE
8
0
10
0.406000
20
-0.222000
40
0.030000
0
INSERT
8
0
2
EPAD
10
0.306000
20
-0.222000
41
0.050000
42
0.050000
0
CIRCLE
8
0
10
0.306000
20
-0.222000
40
0.030000
0
INSERT
8
0
2
EPAD
10
0.206000
20
-0.222000
41
0.050000
42
0.050000
0
CIRCLE
8
0
10
0.206000
20
-0.222000
40
0.030000
0
INSERT
8
0
2
EPAD
10
0.106000
20
-0.222000
41
0.050000
42
0.050000
0
CIRCLE
8
0
10
0.106000
20
-0.222000
40
0.030000
0
INSERT
8
0
2
EPAD
10
0.006000
20
-0.222000
41
0.050000
42
0.050000
0
CIRCLE
8
0
10
0.006000
20
-0.222000
40
0.030000
0
INSERT
8
0
2
EPAD
10
-0.093000
20
-0.222000
41
0.050000
42
0.050000
0
CIRCLE
8
0
10
-0.093000
20
-0.222000
40
0.030000
0
INSERT
8
0
2
EPAD
10
-3.379000
20
-1.087000
41
0.120000
42
0.120000
0
CIRCLE
8
0
10
-3.379000
20
-1.087000
40
0.030000
0
INSERT
8
0
2
EPAD
10
-3.379000
20
-1.287000
41
0.120000
42
0.120000
0
CIRCLE
8
0
10
-3.379000
20
-1.287000
40
0.030000
0
INSERT
8
0
2
EPAD
10
-3.241000
20
-1.578000
41
0.100000
42
0.100000
0
CIRCLE
8
0
10
-3.241000
20
-1.578000
40
0.025000
0
INSERT
8
0
2
EPAD
10
-3.441000
20
-1.778000
41
0.100000
42
0.100000
0
CIRCLE
8
0
10
-3.441000
20
-1.778000
40
0.025000
0
INSERT
8
0
2
EPAD
10
-3.441000
20
-1.578000
41
0.100000
42
0.100000
0
CIRCLE
8
0
10
-3.441000
20
-1.578000
40
0.025000
0
INSERT
8
0
2
EPAD
10
-3.241000
20
-1.778000
41
0.100000
42
0.100000
0
CIRCLE
8
0
10
-3.241000
20
-1.778000
40
0.025000
0
INSERT
8
0
2
EPAD
10
-3.156000
20
-2.175000
41
0.100000
42
0.100000
0
CIRCLE
8
0
10
-3.156000
20
-2.175000
40
0.025000
0
INSERT
8
0
2
EPAD
10
-2.956000
20
-2.175000
41
0.100000
42
0.100000
0
CIRCLE
8
0
10
-2.956000
20
-2.175000
40
0.025000
0
INSERT
8
0
2
EPAD
10
-2.921000
20
-1.471000
41
0.070000
42
0.070000
0
CIRCLE
8
0
10
-2.921000
20
-1.471000
40
0.025000
0
INSERT
8
0
2
EPAD
10
-2.921000
20
-1.871000
41
0.070000
42
0.070000
0
CIRCLE
8
0
10
-2.921000
20
-1.871000
40
0.025000
0
INSERT
8
0
2
RPAD
10
-2.181000
20
-2.329000
41
0.080000
42
0.080000
50
0.000000
0
CIRCLE
8
0
10
-2.181000
20
-2.329000
40
0.025000
0
INSERT
8
0
2
RPAD
10
-2.081000
20
-2.329000
41
0.080000
42
0.080000
50
0.000000
0
CIRCLE
8
0
10
-2.081000
20
-2.329000
40
0.025000
0
INSERT
8
0
2
RPAD
10
-1.981000
20
-2.329000
41
0.080000
42
0.080000
50
0.000000
0
CIRCLE
8
0
10
-1.981000
20
-2.329000
40
0.025000
0
INSERT
8
0
2
EPAD
10
-1.585000
20
-2.176000
41
0.150000
42
0.150000
0
CIRCLE
8
0
10
-1.585000
20
-2.176000
40
0.030000
0
INSERT
8
0
2
EPAD
10
-2.569000
20
-2.176000
41
0.150000
42
0.150000
0
CIRCLE
8
0
10
-2.569000
20
-2.176000
40
0.030000
0
INSERT
8
0
2
EPAD
10
-1.770000
20
-1.763000
41
0.080000
42
0.080000
0
CIRCLE
8
0
10
-1.770000
20
-1.763000
40
0.025000
0
INSERT
8
0
2
EPAD
10
-1.870000
20
-1.763000
41
0.080000
42
0.080000
0
CIRCLE
8
0
10
-1.870000
20
-1.763000
40
0.025000
0
INSERT
8
0
2
EPAD
10
-2.009000
20
-1.779000
41
0.070000
42
0.070000
0
CIRCLE
8
0
10
-2.009000
20
-1.779000
40
0.025000
0
INSERT
8
0
2
EPAD
10
-2.209000
20
-1.779000
41
0.070000
42
0.070000
0
CIRCLE
8
0
10
-2.209000
20
-1.779000
40
0.025000
0
INSERT
8
0
2
EPAD
10
-1.654000
20
-1.440000
41
0.090000
42
0.090000
0
CIRCLE
8
0
10
-1.654000
20
-1.440000
40
0.025000
0
INSERT
8
0
2
EPAD
10
-2.054000
20
-1.440000
41
0.090000
42
0.090000
0
CIRCLE
8
0
10
-2.054000
20
-1.440000
40
0.025000
0
INSERT
8
0
2
EPAD
10
-1.383000
20
-1.049000
41
0.070000
42
0.070000
0
CIRCLE
8
0
10
-1.383000
20
-1.049000
40
0.025000
0
INSERT
8
0
2
EPAD
10
-1.183000
20
-1.049000
41
0.070000
42
0.070000
0
CIRCLE
8
0
10
-1.183000
20
-1.049000
40
0.025000
0
INSERT
8
0
2
EPAD
10
-2.923000
20
-0.958000
41
0.070000
42
0.070000
0
CIRCLE
8
0
10
-2.923000
20
-0.958000
40
0.025000
0
INSERT
8
0
2
EPAD
10
-2.923000
20
-1.358000
41
0.070000
42
0.070000
0
CIRCLE
8
0
10
-2.923000
20
-1.358000
40
0.025000
0
INSERT
8
0
2
EPAD
10
-1.657000
20
-0.612000
41
0.080000
42
0.080000
0
CIRCLE
8
0
10
-1.657000
20
-0.612000
40
0.025000
0
INSERT
8
0
2
EPAD
10
-1.457000
20
-0.612000
41
0.080000
42
0.080000
0
CIRCLE
8
0
10
-1.457000
20
-0.612000
40
0.025000
0
INSERT
8
0
2
EPAD
10
-1.702000
20
-0.937000
41
0.070000
42
0.070000
0
CIRCLE
8
0
10
-1.702000
20
-0.937000
40
0.025000
0
INSERT
8
0
2
EPAD
10
-1.702000
20
-1.037000
41
0.070000
42
0.070000
0
CIRCLE
8
0
10
-1.702000
20
-1.037000
40
0.025000
0
INSERT
8
0
2
EPAD
10
-1.588000
20
-0.937000
41
0.070000
42
0.070000
0
CIRCLE
8
0
10
-1.588000
20
-0.937000
40
0.025000
0
INSERT
8
0
2
EPAD
10
-1.588000
20
-1.037000
41
0.070000
42
0.070000
0
CIRCLE
8
0
10
-1.588000
20
-1.037000
40
0.025000
0
INSERT
8
0
2
EPAD
10
-3.163000
20
-0.508000
41
0.070000
42
0.070000
0
CIRCLE
8
0
10
-3.163000
20
-0.508000
40
0.025000
0
INSERT
8
0
2
EPAD
10
-3.163000
20
-0.108000
41
0.070000
42
0.070000
0
CIRCLE
8
0
10
-3.163000
20
-0.108000
40
0.025000
0
INSERT
8
0
2
EPAD
10
-3.463000
20
0.037000
41
0.060000
42
0.060000
0
CIRCLE
8
0
10
-3.463000
20
0.037000
40
0.025000
0
INSERT
8
0
2
EPAD
10
-3.383000
20
0.037000
41
0.060000
42
0.060000
0
CIRCLE
8
0
10
-3.383000
20
0.037000
40
0.025000
0
INSERT
8
0
2
EPAD
10
-3.303000
20
0.037000
41
0.060000
42
0.060000
0
CIRCLE
8
0
10
-3.303000
20
0.037000
40
0.025000
0
INSERT
8
0
2
EPAD
10
-1.013000
20
0.351000
41
0.080000
42
0.080000
0
CIRCLE
8
0
10
-1.013000
20
0.351000
40
0.010000
0
INSERT
8
0
2
EPAD
10
-1.113000
20
0.351000
41
0.080000
42
0.080000
0
CIRCLE
8
0
10
-1.113000
20
0.351000
40
0.010000
0
INSERT
8
0
2
EPAD
10
-1.213000
20
0.351000
41
0.080000
42
0.080000
0
CIRCLE
8
0
10
-1.213000
20
0.351000
40
0.010000
0
INSERT
8
0
2
EPAD
10
-1.313000
20
0.351000
41
0.080000
42
0.080000
0
CIRCLE
8
0
10
-1.313000
20
0.351000
40
0.010000
0
INSERT
8
0
2
EPAD
10
-1.413000
20
0.351000
41
0.080000
42
0.080000
0
CIRCLE
8
0
10
-1.413000
20
0.351000
40
0.010000
0
INSERT
8
0
2
EPAD
10
-1.513000
20
0.351000
41
0.080000
42
0.080000
0
CIRCLE
8
0
10
-1.513000
20
0.351000
40
0.010000
0
INSERT
8
0
2
EPAD
10
-1.613000
20
0.351000
41
0.080000
42
0.080000
0
CIRCLE
8
0
10
-1.613000
20
0.351000
40
0.010000
0
INSERT
8
0
2
EPAD
10
-1.713000
20
0.351000
41
0.080000
42
0.080000
0
CIRCLE
8
0
10
-1.713000
20
0.351000
40
0.010000
0
INSERT
8
0
2
EPAD
10
-1.813000
20
0.351000
41
0.080000
42
0.080000
0
CIRCLE
8
0
10
-1.813000
20
0.351000
40
0.010000
0
INSERT
8
0
2
EPAD
10
-1.913000
20
0.351000
41
0.080000
42
0.080000
0
CIRCLE
8
0
10
-1.913000
20
0.351000
40
0.010000
0
INSERT
8
0
2
EPAD
10
-2.013000
20
0.351000
41
0.080000
42
0.080000
0
CIRCLE
8
0
10
-2.013000
20
0.351000
40
0.010000
0
INSERT
8
0
2
EPAD
10
-2.113000
20
0.351000
41
0.080000
42
0.080000
0
CIRCLE
8
0
10
-2.113000
20
0.351000
40
0.010000
0
INSERT
8
0
2
EPAD
10
-2.213000
20
0.351000
41
0.080000
42
0.080000
0
CIRCLE
8
0
10
-2.213000
20
0.351000
40
0.010000
0
INSERT
8
0
2
EPAD
10
-2.313000
20
0.351000
41
0.080000
42
0.080000
0
CIRCLE
8
0
10
-2.313000
20
0.351000
40
0.010000
0
INSERT
8
0
2
EPAD
10
-2.413000
20
0.351000
41
0.080000
42
0.080000
0
CIRCLE
8
0
10
-2.413000
20
0.351000
40
0.010000
0
INSERT
8
0
2
EPAD
10
-2.513000
20
0.351000
41
0.080000
42
0.080000
0
CIRCLE
8
0
10
-2.513000
20
0.351000
40
0.010000
0
INSERT
8
0
2
EPAD
10
-2.613000
20
0.351000
41
0.080000
42
0.080000
0
CIRCLE
8
0
10
-2.613000
20
0.351000
40
0.010000
0
INSERT
8
0
2
EPAD
10
-2.713000
20
0.351000
41
0.080000
42
0.080000
0
CIRCLE
8
0
10
-2.713000
20
0.351000
40
0.010000
0
INSERT
8
0
2
EPAD
10
-2.813000
20
0.351000
41
0.080000
42
0.080000
0
CIRCLE
8
0
10
-2.813000
20
0.351000
40
0.010000
0
INSERT
8
0
2
EPAD
10
-2.913000
20
0.351000
41
0.080000
42
0.080000
0
CIRCLE
8
0
10
-2.913000
20
0.351000
40
0.010000
0
INSERT
8
0
2
EPAD
10
-3.264000
20
0.600000
41
0.080000
42
0.080000
0
CIRCLE
8
0
10
-3.264000
20
0.600000
40
0.025000
0
INSERT
8
0
2
EPAD
10
-3.464000
20
0.600000
41
0.080000
42
0.080000
0
CIRCLE
8
0
10
-3.464000
20
0.600000
40
0.025000
0
INSERT
8
0
2
EPAD
10
-3.364000
20
0.379000
41
0.080000
42
0.080000
0
CIRCLE
8
0
10
-3.364000
20
0.379000
40
0.025000
0
INSERT
8
0
2
EPAD
10
-2.714000
20
-1.155000
41
0.080000
42
0.080000
0
CIRCLE
8
0
10
-2.714000
20
-1.155000
40
0.010000
0
INSERT
8
0
2
EPAD
10
-2.614000
20
-1.155000
41
0.080000
42
0.080000
0
CIRCLE
8
0
10
-2.614000
20
-1.155000
40
0.010000
0
INSERT
8
0
2
EPAD
10
-2.514000
20
-1.155000
41
0.080000
42
0.080000
0
CIRCLE
8
0
10
-2.514000
20
-1.155000
40
0.010000
0
INSERT
8
0
2
EPAD
10
-2.414000
20
-1.155000
41
0.080000
42
0.080000
0
CIRCLE
8
0
10
-2.414000
20
-1.155000
40
0.010000
0
INSERT
8
0
2
EPAD
10
-2.314000
20
-1.155000
41
0.080000
42
0.080000
0
CIRCLE
8
0
10
-2.314000
20
-1.155000
40
0.010000
0
INSERT
8
0
2
EPAD
10
-2.214000
20
-1.155000
41
0.080000
42
0.080000
0
CIRCLE
8
0
10
-2.214000
20
-1.155000
40
0.010000
0
INSERT
8
0
2
EPAD
10
-2.114000
20
-1.155000
41
0.080000
42
0.080000
0
CIRCLE
8
0
10
-2.114000
20
-1.155000
40
0.010000
0
INSERT
8
0
2
EPAD
10
-2.014000
20
-1.155000
41
0.080000
42
0.080000
0
CIRCLE
8
0
10
-2.014000
20
-1.155000
40
0.010000
0
INSERT
8
0
2
EPAD
10
-2.710000
20
-1.320000
41
0.070000
42
0.070000
0
CIRCLE
8
0
10
-2.710000
20
-1.320000
40
0.025000
0
INSERT
8
0
2
EPAD
10
-2.710000
20
-1.720000
41
0.070000
42
0.070000
0
CIRCLE
8
0
10
-2.710000
20
-1.720000
40
0.025000
0
INSERT
8
0
2
EPAD
10
-2.600000
20
-1.320000
41
0.070000
42
0.070000
0
CIRCLE
8
0
10
-2.600000
20
-1.320000
40
0.025000
0
INSERT
8
0
2
EPAD
10
-2.600000
20
-1.720000
41
0.070000
42
0.070000
0
CIRCLE
8
0
10
-2.600000
20
-1.720000
40
0.025000
0
INSERT
8
0
2
EPAD
10
-2.482000
20
-1.320000
41
0.070000
42
0.070000
0
CIRCLE
8
0
10
-2.482000
20
-1.320000
40
0.025000
0
INSERT
8
0
2
EPAD
10
-2.482000
20
-1.720000
41
0.070000
42
0.070000
0
CIRCLE
8
0
10
-2.482000
20
-1.720000
40
0.025000
0
INSERT
8
0
2
EPAD
10
-2.360000
20
-1.320000
41
0.070000
42
0.070000
0
CIRCLE
8
0
10
-2.360000
20
-1.320000
40
0.025000
0
INSERT
8
0
2
EPAD
10
-2.360000
20
-1.720000
41
0.070000
42
0.070000
0
CIRCLE
8
0
10
-2.360000
20
-1.720000
40
0.025000
0
INSERT
8
0
2
EPAD
10
-0.813000
20
-2.197000
41
0.120000
42
0.120000
0
CIRCLE
8
0
10
-0.813000
20
-2.197000
40
0.030000
0
INSERT
8
0
2
EPAD
10
-0.613000
20
-2.197000
41
0.120000
42
0.120000
0
CIRCLE
8
0
10
-0.613000
20
-2.197000
40
0.030000
0
INSERT
8
0
2
EPAD
10
-0.413000
20
-2.197000
41
0.120000
42
0.120000
0
CIRCLE
8
0
10
-0.413000
20
-2.197000
40
0.030000
0
INSERT
8
0
2
EPAD
10
-1.041000
20
-1.527000
41
0.070000
42
0.070000
0
CIRCLE
8
0
10
-1.041000
20
-1.527000
40
0.025000
0
INSERT
8
0
2
EPAD
10
-0.641000
20
-1.527000
41
0.070000
42
0.070000
0
CIRCLE
8
0
10
-0.641000
20
-1.527000
40
0.025000
0
INSERT
8
0
2
RPAD
10
-0.473000
20
-1.176000
41
0.050000
42
0.050000
50
-90.000000
0
CIRCLE
8
0
10
-0.473000
20
-1.176000
40
0.030000
0
INSERT
8
0
2
EPAD
10
-0.473000
20
-1.276000
41
0.050000
42
0.050000
0
CIRCLE
8
0
10
-0.473000
20
-1.276000
40
0.030000
0
INSERT
8
0
2
EPAD
10
-0.473000
20
-1.376000
41
0.050000
42
0.050000
0
CIRCLE
8
0
10
-0.473000
20
-1.376000
40
0.030000
0
INSERT
8
0
2
EPAD
10
-0.473000
20
-1.476000
41
0.050000
42
0.050000
0
CIRCLE
8
0
10
-0.473000
20
-1.476000
40
0.030000
0
INSERT
8
0
2
EPAD
10
-0.473000
20
-1.576000
41
0.050000
42
0.050000
0
CIRCLE
8
0
10
-0.473000
20
-1.576000
40
0.030000
0
INSERT
8
0
2
EPAD
10
-0.473000
20
-1.676000
41
0.050000
42
0.050000
0
CIRCLE
8
0
10
-0.473000
20
-1.676000
40
0.030000
0
INSERT
8
0
2
EPAD
10
-0.473000
20
-1.776000
41
0.050000
42
0.050000
0
CIRCLE
8
0
10
-0.473000
20
-1.776000
40
0.030000
0
INSERT
8
0
2
EPAD
10
-0.173000
20
-1.776000
41
0.050000
42
0.050000
0
CIRCLE
8
0
10
-0.173000
20
-1.776000
40
0.030000
0
INSERT
8
0
2
EPAD
10
-0.173000
20
-1.676000
41
0.050000
42
0.050000
0
CIRCLE
8
0
10
-0.173000
20
-1.676000
40
0.030000
0
INSERT
8
0
2
EPAD
10
-0.173000
20
-1.576000
41
0.050000
42
0.050000
0
CIRCLE
8
0
10
-0.173000
20
-1.576000
40
0.030000
0
INSERT
8
0
2
EPAD
10
-0.173000
20
-1.476000
41
0.050000
42
0.050000
0
CIRCLE
8
0
10
-0.173000
20
-1.476000
40
0.030000
0
INSERT
8
0
2
EPAD
10
-0.173000
20
-1.376000
41
0.050000
42
0.050000
0
CIRCLE
8
0
10
-0.173000
20
-1.376000
40
0.030000
0
INSERT
8
0
2
EPAD
10
-0.173000
20
-1.276000
41
0.050000
42
0.050000
0
CIRCLE
8
0
10
-0.173000
20
-1.276000
40
0.030000
0
INSERT
8
0
2
EPAD
10
-0.173000
20
-1.176000
41
0.050000
42
0.050000
0
CIRCLE
8
0
10
-0.173000
20
-1.176000
40
0.030000
0
INSERT
8
0
2
EPAD
10
-0.890000
20
-1.355000
41
0.070000
42
0.070000
0
CIRCLE
8
0
10
-0.890000
20
-1.355000
40
0.025000
0
INSERT
8
0
2
EPAD
10
-0.690000
20
-1.355000
41
0.070000
42
0.070000
0
CIRCLE
8
0
10
-0.690000
20
-1.355000
40
0.025000
0
INSERT
8
0
2
EPAD
10
-0.882000
20
-1.182000
41
0.070000
42
0.070000
0
CIRCLE
8
0
10
-0.882000
20
-1.182000
40
0.025000
0
INSERT
8
0
2
EPAD
10
-0.682000
20
-1.182000
41
0.070000
42
0.070000
0
CIRCLE
8
0
10
-0.682000
20
-1.182000
40
0.025000
0
INSERT
8
0
2
EPAD
10
-0.553000
20
-0.973000
41
0.070000
42
0.070000
0
CIRCLE
8
0
10
-0.553000
20
-0.973000
40
0.025000
0
INSERT
8
0
2
EPAD
10
-0.953000
20
-0.973000
41
0.070000
42
0.070000
0
CIRCLE
8
0
10
-0.953000
20
-0.973000
40
0.025000
0
INSERT
8
0
2
EPAD
10
-1.169000
20
-1.337000
41
0.080000
42
0.080000
0
CIRCLE
8
0
10
-1.169000
20
-1.337000
40
0.025000
0
INSERT
8
0
2
EPAD
10
-1.369000
20
-1.337000
41
0.080000
42
0.080000
0
CIRCLE
8
0
10
-1.369000
20
-1.337000
40
0.025000
0
INSERT
8
0
2
EPAD
10
-1.269000
20
-1.557000
41
0.080000
42
0.080000
0
CIRCLE
8
0
10
-1.269000
20
-1.557000
40
0.025000
0
INSERT
8
0
2
RPAD
10
0.724000
20
-1.543000
41
0.080000
42
0.080000
50
180.000000
0
CIRCLE
8
0
10
0.724000
20
-1.543000
40
0.025000
0
INSERT
8
0
2
RPAD
10
0.626000
20
-1.543000
41
0.080000
42
0.080000
50
180.000000
0
CIRCLE
8
0
10
0.626000
20
-1.543000
40
0.025000
0
INSERT
8
0
2
RPAD
10
0.527000
20
-1.543000
41
0.080000
42
0.080000
50
180.000000
0
CIRCLE
8
0
10
0.527000
20
-1.543000
40
0.025000
0
INSERT
8
0
2
RPAD
10
0.429000
20
-1.543000
41
0.080000
42
0.080000
50
180.000000
0
CIRCLE
8
0
10
0.429000
20
-1.543000
40
0.025000
0
INSERT
8
0
2
RPAD
10
0.330000
20
-1.543000
41
0.080000
42
0.080000
50
180.000000
0
CIRCLE
8
0
10
0.330000
20
-1.543000
40
0.025000
0
INSERT
8
0
2
RPAD
10
0.232000
20
-1.543000
41
0.080000
42
0.080000
50
180.000000
0
CIRCLE
8
0
10
0.232000
20
-1.543000
40
0.025000
0
INSERT
8
0
2
EPAD
10
0.023000
20
-2.016000
41
0.250000
42
0.250000
0
CIRCLE
8
0
10
0.023000
20
-2.016000
40
0.030000
0
INSERT
8
0
2
EPAD
10
0.929000
20
-2.016000
41
0.250000
42
0.250000
0
CIRCLE
8
0
10
0.929000
20
-2.016000
40
0.030000
0
INSERT
8
0
2
RPAD
10
2.068000
20
-1.529000
41
0.080000
42
0.080000
50
-180.000000
0
CIRCLE
8
0
10
2.068000
20
-1.529000
40
0.025000
0
INSERT
8
0
2
RPAD
10
1.970000
20
-1.529000
41
0.080000
42
0.080000
50
-180.000000
0
CIRCLE
8
0
10
1.970000
20
-1.529000
40
0.025000
0
INSERT
8
0
2
RPAD
10
1.871000
20
-1.529000
41
0.080000
42
0.080000
50
-180.000000
0
CIRCLE
8
0
10
1.871000
20
-1.529000
40
0.025000
0
INSERT
8
0
2
RPAD
10
1.773000
20
-1.529000
41
0.080000
42
0.080000
50
-180.000000
0
CIRCLE
8
0
10
1.773000
20
-1.529000
40
0.025000
0
INSERT
8
0
2
RPAD
10
1.675000
20
-1.529000
41
0.080000
42
0.080000
50
-180.000000
0
CIRCLE
8
0
10
1.675000
20
-1.529000
40
0.025000
0
INSERT
8
0
2
RPAD
10
1.576000
20
-1.529000
41
0.080000
42
0.080000
50
-180.000000
0
CIRCLE
8
0
10
1.576000
20
-1.529000
40
0.025000
0
INSERT
8
0
2
EPAD
10
1.367000
20
-2.001000
41
0.250000
42
0.250000
0
CIRCLE
8
0
10
1.367000
20
-2.001000
40
0.030000
0
INSERT
8
0
2
EPAD
10
2.273000
20
-2.001000
41
0.250000
42
0.250000
0
CIRCLE
8
0
10
2.273000
20
-2.001000
40
0.030000
0
INSERT
8
0
2
EPAD
10
0.634000
20
-0.117000
41
0.070000
42
0.070000
0
CIRCLE
8
0
10
0.634000
20
-0.117000
40
0.025000
0
INSERT
8
0
2
EPAD
10
0.634000
20
0.282000
41
0.070000
42
0.070000
0
CIRCLE
8
0
10
0.634000
20
0.282000
40
0.025000
0
INSERT
8
0
2
EPAD
10
0.543000
20
-0.117000
41
0.070000
42
0.070000
0
CIRCLE
8
0
10
0.543000
20
-0.117000
40
0.025000
0
INSERT
8
0
2
EPAD
10
0.543000
20
0.282000
41
0.070000
42
0.070000
0
CIRCLE
8
0
10
0.543000
20
0.282000
40
0.025000
0
INSERT
8
0
2
RPAD
10
3.307000
20
-1.805000
41
0.080000
42
0.080000
50
90.000000
0
CIRCLE
8
0
10
3.307000
20
-1.805000
40
0.025000
0
INSERT
8
0
2
RPAD
10
3.307000
20
-1.705000
41
0.080000
42
0.080000
50
90.000000
0
CIRCLE
8
0
10
3.307000
20
-1.705000
40
0.025000
0
INSERT
8
0
2
RPAD
10
3.307000
20
-1.605000
41
0.080000
42
0.080000
50
90.000000
0
CIRCLE
8
0
10
3.307000
20
-1.605000
40
0.025000
0
INSERT
8
0
2
EPAD
10
3.079000
20
-1.406000
41
0.070000
42
0.070000
0
CIRCLE
8
0
10
3.079000
20
-1.406000
40
0.025000
0
INSERT
8
0
2
EPAD
10
3.479000
20
-1.406000
41
0.070000
42
0.070000
0
CIRCLE
8
0
10
3.479000
20
-1.406000
40
0.025000
0
INSERT
8
0
2
EPAD
10
3.496000
20
-1.916000
41
0.070000
42
0.070000
0
CIRCLE
8
0
10
3.496000
20
-1.916000
40
0.025000
0
INSERT
8
0
2
EPAD
10
3.496000
20
-1.516000
41
0.070000
42
0.070000
0
CIRCLE
8
0
10
3.496000
20
-1.516000
40
0.025000
0
INSERT
8
0
2
EPAD
10
3.072000
20
-1.296000
41
0.070000
42
0.070000
0
CIRCLE
8
0
10
3.072000
20
-1.296000
40
0.025000
0
INSERT
8
0
2
EPAD
10
3.472000
20
-1.296000
41
0.070000
42
0.070000
0
CIRCLE
8
0
10
3.472000
20
-1.296000
40
0.025000
0
INSERT
8
0
2
EPAD
10
3.027000
20
-1.646000
41
0.080000
42
0.080000
0
CIRCLE
8
0
10
3.027000
20
-1.646000
40
0.025000
0
INSERT
8
0
2
EPAD
10
2.827000
20
-1.646000
41
0.080000
42
0.080000
0
CIRCLE
8
0
10
2.827000
20
-1.646000
40
0.025000
0
INSERT
8
0
2
EPAD
10
2.927000
20
-1.866000
41
0.080000
42
0.080000
0
CIRCLE
8
0
10
2.927000
20
-1.866000
40
0.025000
0
INSERT
8
0
2
RPAD
10
2.296000
20
-1.176000
41
0.050000
42
0.050000
50
90.000000
0
CIRCLE
8
0
10
2.296000
20
-1.176000
40
0.030000
0
INSERT
8
0
2
EPAD
10
2.296000
20
-1.076000
41
0.050000
42
0.050000
0
CIRCLE
8
0
10
2.296000
20
-1.076000
40
0.030000
0
INSERT
8
0
2
EPAD
10
2.296000
20
-0.976000
41
0.050000
42
0.050000
0
CIRCLE
8
0
10
2.296000
20
-0.976000
40
0.030000
0
INSERT
8
0
2
EPAD
10
2.296000
20
-0.876000
41
0.050000
42
0.050000
0
CIRCLE
8
0
10
2.296000
20
-0.876000
40
0.030000
0
INSERT
8
0
2
EPAD
10
2.296000
20
-0.776000
41
0.050000
42
0.050000
0
CIRCLE
8
0
10
2.296000
20
-0.776000
40
0.030000
0
INSERT
8
0
2
EPAD
10
2.296000
20
-0.676000
41
0.050000
42
0.050000
0
CIRCLE
8
0
10
2.296000
20
-0.676000
40
0.030000
0
INSERT
8
0
2
EPAD
10
2.296000
20
-0.576000
41
0.050000
42
0.050000
0
CIRCLE
8
0
10
2.296000
20
-0.576000
40
0.030000
0
INSERT
8
0
2
EPAD
10
1.996000
20
-0.576000
41
0.050000
42
0.050000
0
CIRCLE
8
0
10
1.996000
20
-0.576000
40
0.030000
0
INSERT
8
0
2
EPAD
10
1.996000
20
-0.676000
41
0.050000
42
0.050000
0
CIRCLE
8
0
10
1.996000
20
-0.676000
40
0.030000
0
INSERT
8
0
2
EPAD
10
1.996000
20
-0.776000
41
0.050000
42
0.050000
0
CIRCLE
8
0
10
1.996000
20
-0.776000
40
0.030000
0
INSERT
8
0
2
EPAD
10
1.996000
20
-0.876000
41
0.050000
42
0.050000
0
CIRCLE
8
0
10
1.996000
20
-0.876000
40
0.030000
0
INSERT
8
0
2
EPAD
10
1.996000
20
-0.976000
41
0.050000
42
0.050000
0
CIRCLE
8
0
10
1.996000
20
-0.976000
40
0.030000
0
INSERT
8
0
2
EPAD
10
1.996000
20
-1.076000
41
0.050000
42
0.050000
0
CIRCLE
8
0
10
1.996000
20
-1.076000
40
0.030000
0
INSERT
8
0
2
EPAD
10
1.996000
20
-1.176000
41
0.050000
42
0.050000
0
CIRCLE
8
0
10
1.996000
20
-1.176000
40
0.030000
0
INSERT
8
0
2
RPAD
10
3.311000
20
-1.046000
41
0.080000
42
0.080000
50
90.000000
0
CIRCLE
8
0
10
3.311000
20
-1.046000
40
0.025000
0
INSERT
8
0
2
RPAD
10
3.311000
20
-0.946000
41
0.080000
42
0.080000
50
90.000000
0
CIRCLE
8
0
10
3.311000
20
-0.946000
40
0.025000
0
INSERT
8
0
2
RPAD
10
3.311000
20
-0.846000
41
0.080000
42
0.080000
50
90.000000
0
CIRCLE
8
0
10
3.311000
20
-0.846000
40
0.025000
0
INSERT
8
0
2
EPAD
10
3.500000
20
-1.143000
41
0.070000
42
0.070000
0
CIRCLE
8
0
10
3.500000
20
-1.143000
40
0.025000
0
INSERT
8
0
2
EPAD
10
3.500000
20
-0.743000
41
0.070000
42
0.070000
0
CIRCLE
8
0
10
3.500000
20
-0.743000
40
0.025000
0
INSERT
8
0
2
EPAD
10
2.558000
20
-0.578000
41
0.070000
42
0.070000
0
CIRCLE
8
0
10
2.558000
20
-0.578000
40
0.025000
0
INSERT
8
0
2
EPAD
10
2.958000
20
-0.578000
41
0.070000
42
0.070000
0
CIRCLE
8
0
10
2.958000
20
-0.578000
40
0.025000
0
INSERT
8
0
2
EPAD
10
2.558000
20
-0.464000
41
0.070000
42
0.070000
0
CIRCLE
8
0
10
2.558000
20
-0.464000
40
0.025000
0
INSERT
8
0
2
EPAD
10
2.958000
20
-0.464000
41
0.070000
42
0.070000
0
CIRCLE
8
0
10
2.958000
20
-0.464000
40
0.025000
0
INSERT
8
0
2
EPAD
10
3.031000
20
-0.915000
41
0.080000
42
0.080000
0
CIRCLE
8
0
10
3.031000
20
-0.915000
40
0.025000
0
INSERT
8
0
2
EPAD
10
2.831000
20
-0.915000
41
0.080000
42
0.080000
0
CIRCLE
8
0
10
2.831000
20
-0.915000
40
0.025000
0
INSERT
8
0
2
EPAD
10
2.931000
20
-1.135000
41
0.080000
42
0.080000
0
CIRCLE
8
0
10
2.931000
20
-1.135000
40
0.025000
0
INSERT
8
0
2
RPAD
10
2.762000
20
-0.188000
41
0.080000
42
0.080000
50
90.000000
0
CIRCLE
8
0
10
2.762000
20
-0.188000
40
0.025000
0
INSERT
8
0
2
RPAD
10
2.762000
20
-0.088000
41
0.080000
42
0.080000
50
90.000000
0
CIRCLE
8
0
10
2.762000
20
-0.088000
40
0.025000
0
INSERT
8
0
2
RPAD
10
2.762000
20
0.011000
41
0.080000
42
0.080000
50
90.000000
0
CIRCLE
8
0
10
2.762000
20
0.011000
40
0.025000
0
INSERT
8
0
2
EPAD
10
2.945000
20
-0.356000
41
0.070000
42
0.070000
0
CIRCLE
8
0
10
2.945000
20
-0.356000
40
0.025000
0
INSERT
8
0
2
EPAD
10
2.945000
20
0.043000
41
0.070000
42
0.070000
0
CIRCLE
8
0
10
2.945000
20
0.043000
40
0.025000
0
INSERT
8
0
2
EPAD
10
2.555000
20
0.215000
41
0.070000
42
0.070000
0
CIRCLE
8
0
10
2.555000
20
0.215000
40
0.025000
0
INSERT
8
0
2
EPAD
10
2.955000
20
0.215000
41
0.070000
42
0.070000
0
CIRCLE
8
0
10
2.955000
20
0.215000
40
0.025000
0
INSERT
8
0
2
EPAD
10
2.558000
20
0.369000
41
0.070000
42
0.070000
0
CIRCLE
8
0
10
2.558000
20
0.369000
40
0.025000
0
INSERT
8
0
2
EPAD
10
2.958000
20
0.369000
41
0.070000
42
0.070000
0
CIRCLE
8
0
10
2.958000
20
0.369000
40
0.025000
0
INSERT
8
0
2
EPAD
10
2.482000
20
-0.036000
41
0.080000
42
0.080000
0
CIRCLE
8
0
10
2.482000
20
-0.036000
40
0.025000
0
INSERT
8
0
2
EPAD
10
2.282000
20
-0.036000
41
0.080000
42
0.080000
0
CIRCLE
8
0
10
2.282000
20
-0.036000
40
0.025000
0
INSERT
8
0
2
EPAD
10
2.382000
20
-0.256000
41
0.080000
42
0.080000
0
CIRCLE
8
0
10
2.382000
20
-0.256000
40
0.025000
0
INSERT
8
0
2
EPAD
10
3.344000
20
0.588000
41
0.120000
42
0.120000
0
CIRCLE
8
0
10
3.344000
20
0.588000
40
0.030000
0
INSERT
8
0
2
EPAD
10
3.344000
20
0.788000
41
0.120000
42
0.120000
0
CIRCLE
8
0
10
3.344000
20
0.788000
40
0.030000
0
INSERT
8
0
2
EPAD
10
3.344000
20
0.988000
41
0.120000
42
0.120000
0
CIRCLE
8
0
10
3.344000
20
0.988000
40
0.030000
0
INSERT
8
0
2
EPAD
10
3.344000
20
1.188000
41
0.120000
42
0.120000
0
CIRCLE
8
0
10
3.344000
20
1.188000
40
0.030000
0
INSERT
8
0
2
EPAD
10
3.344000
20
1.388000
41
0.120000
42
0.120000
0
CIRCLE
8
0
10
3.344000
20
1.388000
40
0.030000
0
INSERT
8
0
2
EPAD
10
3.344000
20
1.588000
41
0.120000
42
0.120000
0
CIRCLE
8
0
10
3.344000
20
1.588000
40
0.030000
0
INSERT
8
0
2
EPAD
10
3.344000
20
1.788000
41
0.120000
42
0.120000
0
CIRCLE
8
0
10
3.344000
20
1.788000
40
0.030000
0
INSERT
8
0
2
EPAD
10
3.344000
20
1.988000
41
0.120000
42
0.120000
0
CIRCLE
8
0
10
3.344000
20
1.988000
40
0.030000
0
INSERT
8
0
2
EPAD
10
2.643000
20
-2.207000
41
0.120000
42
0.120000
0
CIRCLE
8
0
10
2.643000
20
-2.207000
40
0.030000
0
INSERT
8
0
2
EPAD
10
2.843000
20
-2.207000
41
0.120000
42
0.120000
0
CIRCLE
8
0
10
2.843000
20
-2.207000
40
0.030000
0
INSERT
8
0
2
EPAD
10
3.043000
20
-2.207000
41
0.120000
42
0.120000
0
CIRCLE
8
0
10
3.043000
20
-2.207000
40
0.030000
0
INSERT
8
0
2
EPAD
10
3.243000
20
-2.207000
41
0.120000
42
0.120000
0
CIRCLE
8
0
10
3.243000
20
-2.207000
40
0.030000
0
INSERT
8
0
2
EPAD
10
1.391000
20
-1.173000
41
0.070000
42
0.070000
0
CIRCLE
8
0
10
1.391000
20
-1.173000
40
0.025000
0
INSERT
8
0
2
EPAD
10
1.791000
20
-1.173000
41
0.070000
42
0.070000
0
CIRCLE
8
0
10
1.791000
20
-1.173000
40
0.025000
0
INSERT
8
0
2
EPAD
10
1.391000
20
-1.053000
41
0.070000
42
0.070000
0
CIRCLE
8
0
10
1.391000
20
-1.053000
40
0.025000
0
INSERT
8
0
2
EPAD
10
1.791000
20
-1.053000
41
0.070000
42
0.070000
0
CIRCLE
8
0
10
1.791000
20
-1.053000
40
0.025000
0
INSERT
8
0
2
RPAD
10
-1.057000
20
-2.243000
41
0.080000
42
0.080000
50
180.000000
0
CIRCLE
8
0
10
-1.057000
20
-2.243000
40
0.025000
0
INSERT
8
0
2
RPAD
10
-1.157000
20
-2.243000
41
0.080000
42
0.080000
50
180.000000
0
CIRCLE
8
0
10
-1.157000
20
-2.243000
40
0.025000
0
INSERT
8
0
2
RPAD
10
-1.257000
20
-2.243000
41
0.080000
42
0.080000
50
180.000000
0
CIRCLE
8
0
10
-1.257000
20
-2.243000
40
0.025000
0
INSERT
8
0
2
EPAD
10
-1.125000
20
-1.817000
41
0.080000
42
0.080000
0
CIRCLE
8
0
10
-1.125000
20
-1.817000
40
0.025000
0
INSERT
8
0
2
EPAD
10
-1.325000
20
-1.817000
41
0.080000
42
0.080000
0
CIRCLE
8
0
10
-1.325000
20
-1.817000
40
0.025000
0
INSERT
8
0
2
EPAD
10
-1.225000
20
-2.037000
41
0.080000
42
0.080000
0
CIRCLE
8
0
10
-1.225000
20
-2.037000
40
0.025000
0
INSERT
8
0
2
EPAD
10
-1.040000
20
-1.667000
41
0.070000
42
0.070000
0
CIRCLE
8
0
10
-1.040000
20
-1.667000
40
0.025000
0
INSERT
8
0
2
EPAD
10
-0.640000
20
-1.667000
41
0.070000
42
0.070000
0
CIRCLE
8
0
10
-0.640000
20
-1.667000
40
0.025000
0
INSERT
8
0
2
EPAD
10
-0.055000
20
-1.537000
41
0.080000
42
0.080000
0
CIRCLE
8
0
10
-0.055000
20
-1.537000
40
0.025000
0
INSERT
8
0
2
EPAD
10
0.044000
20
-1.537000
41
0.080000
42
0.080000
0
CIRCLE
8
0
10
0.044000
20
-1.537000
40
0.025000
0
INSERT
8
0
2
EPAD
10
-3.421000
20
-0.142000
41
0.070000
42
0.070000
0
CIRCLE
8
0
10
-3.421000
20
-0.142000
40
0.025000
0
INSERT
8
0
2
EPAD
10
-3.421000
20
-0.542000
41
0.070000
42
0.070000
0
CIRCLE
8
0
10
-3.421000
20
-0.542000
40
0.025000
0
INSERT
8
0
2
RPAD
10
-3.406000
20
-0.772000
41
0.080000
42
0.080000
50
0.000000
0
CIRCLE
8
0
10
-3.406000
20
-0.772000
40
0.025000
0
INSERT
8
0
2
RPAD
10
-3.306000
20
-0.772000
41
0.080000
42
0.080000
50
0.000000
0
CIRCLE
8
0
10
-3.306000
20
-0.772000
40
0.025000
0
INSERT
8
0
2
EPAD
10
0.434000
20
0.282000
41
0.070000
42
0.070000
0
CIRCLE
8
0
10
0.434000
20
0.282000
40
0.025000
0
INSERT
8
0
2
EPAD
10
0.434000
20
-0.117000
41
0.070000
42
0.070000
0
CIRCLE
8
0
10
0.434000
20
-0.117000
40
0.025000
0
INSERT
8
0
2
RPAD
10
2.223000
20
0.656000
41
0.050000
42
0.050000
50
0.000000
0
CIRCLE
8
0
10
2.223000
20
0.656000
40
0.030000
0
INSERT
8
0
2
EPAD
10
2.323000
20
0.656000
41
0.050000
42
0.050000
0
CIRCLE
8
0
10
2.323000
20
0.656000
40
0.030000
0
INSERT
8
0
2
EPAD
10
2.423000
20
0.656000
41
0.050000
42
0.050000
0
CIRCLE
8
0
10
2.423000
20
0.656000
40
0.030000
0
INSERT
8
0
2
EPAD
10
2.423000
20
0.956000
41
0.050000
42
0.050000
0
CIRCLE
8
0
10
2.423000
20
0.956000
40
0.030000
0
INSERT
8
0
2
EPAD
10
2.323000
20
0.956000
41
0.050000
42
0.050000
0
CIRCLE
8
0
10
2.323000
20
0.956000
40
0.030000
0
INSERT
8
0
2
EPAD
10
2.223000
20
0.956000
41
0.050000
42
0.050000
0
CIRCLE
8
0
10
2.223000
20
0.956000
40
0.030000
0
INSERT
8
0
2
RPAD
10
2.423000
20
1.328000
41
0.080000
42
0.080000
50
180.000000
0
CIRCLE
8
0
10
2.423000
20
1.328000
40
0.025000
0
INSERT
8
0
2
RPAD
10
2.323000
20
1.328000
41
0.080000
42
0.080000
50
180.000000
0
CIRCLE
8
0
10
2.323000
20
1.328000
40
0.025000
0
INSERT
8
0
2
RPAD
10
2.223000
20
1.328000
41
0.080000
42
0.080000
50
180.000000
0
CIRCLE
8
0
10
2.223000
20
1.328000
40
0.025000
0
INSERT
8
0
2
EPAD
10
2.608000
20
1.361000
41
0.070000
42
0.070000
0
CIRCLE
8
0
10
2.608000
20
1.361000
40
0.025000
0
INSERT
8
0
2
EPAD
10
2.608000
20
0.961000
41
0.070000
42
0.070000
0
CIRCLE
8
0
10
2.608000
20
0.961000
40
0.025000
0
INSERT
8
0
2
EPAD
10
2.023000
20
1.751000
41
0.080000
42
0.080000
0
CIRCLE
8
0
10
2.023000
20
1.751000
40
0.025000
0
INSERT
8
0
2
EPAD
10
2.623000
20
1.751000
41
0.080000
42
0.080000
0
CIRCLE
8
0
10
2.623000
20
1.751000
40
0.025000
0
INSERT
8
0
2
EPAD
10
2.576000
20
1.541000
41
0.070000
42
0.070000
0
CIRCLE
8
0
10
2.576000
20
1.541000
40
0.025000
0
INSERT
8
0
2
EPAD
10
2.076000
20
1.541000
41
0.070000
42
0.070000
0
CIRCLE
8
0
10
2.076000
20
1.541000
40
0.025000
0
INSERT
8
0
2
EPAD
10
2.123000
20
2.169000
41
0.120000
42
0.120000
0
CIRCLE
8
0
10
2.123000
20
2.169000
40
0.030000
0
INSERT
8
0
2
EPAD
10
2.323000
20
2.169000
41
0.120000
42
0.120000
0
CIRCLE
8
0
10
2.323000
20
2.169000
40
0.030000
0
INSERT
8
0
2
EPAD
10
2.523000
20
2.169000
41
0.120000
42
0.120000
0
CIRCLE
8
0
10
2.523000
20
2.169000
40
0.030000
0
INSERT
8
0
2
EPAD
10
0.321000
20
0.282000
41
0.070000
42
0.070000
0
CIRCLE
8
0
10
0.321000
20
0.282000
40
0.025000
0
INSERT
8
0
2
EPAD
10
0.321000
20
-0.117000
41
0.070000
42
0.070000
0
CIRCLE
8
0
10
0.321000
20
-0.117000
40
0.025000
0
INSERT
8
0
2
EPAD
10
0.210000
20
0.282000
41
0.070000
42
0.070000
0
CIRCLE
8
0
10
0.210000
20
0.282000
40
0.025000
0
INSERT
8
0
2
EPAD
10
0.210000
20
-0.117000
41
0.070000
42
0.070000
0
CIRCLE
8
0
10
0.210000
20
-0.117000
40
0.025000
0
INSERT
8
0
2
EPAD
10
-0.130000
20
0.282000
41
0.070000
42
0.070000
0
CIRCLE
8
0
10
-0.130000
20
0.282000
40
0.025000
0
INSERT
8
0
2
EPAD
10
-0.130000
20
-0.117000
41
0.070000
42
0.070000
0
CIRCLE
8
0
10
-0.130000
20
-0.117000
40
0.025000
0
INSERT
8
0
2
EPAD
10
0.097000
20
0.282000
41
0.070000
42
0.070000
0
CIRCLE
8
0
10
0.097000
20
0.282000
40
0.025000
0
INSERT
8
0
2
EPAD
10
0.097000
20
-0.117000
41
0.070000
42
0.070000
0
CIRCLE
8
0
10
0.097000
20
-0.117000
40
0.025000
0
INSERT
8
0
2
EPAD
10
-0.017000
20
0.282000
41
0.070000
42
0.070000
0
CIRCLE
8
0
10
-0.017000
20
0.282000
40
0.025000
0
INSERT
8
0
2
EPAD
10
-0.017000
20
-0.117000
41
0.070000
42
0.070000
0
CIRCLE
8
0
10
-0.017000
20
-0.117000
40
0.025000
0
INSERT
8
0
2
RPAD
10
1.455000
20
0.656000
41
0.050000
42
0.050000
50
0.000000
0
CIRCLE
8
0
10
1.455000
20
0.656000
40
0.030000
0
INSERT
8
0
2
EPAD
10
1.555000
20
0.656000
41
0.050000
42
0.050000
0
CIRCLE
8
0
10
1.555000
20
0.656000
40
0.030000
0
INSERT
8
0
2
EPAD
10
1.655000
20
0.656000
41
0.050000
42
0.050000
0
CIRCLE
8
0
10
1.655000
20
0.656000
40
0.030000
0
INSERT
8
0
2
EPAD
10
1.655000
20
0.956000
41
0.050000
42
0.050000
0
CIRCLE
8
0
10
1.655000
20
0.956000
40
0.030000
0
INSERT
8
0
2
EPAD
10
1.555000
20
0.956000
41
0.050000
42
0.050000
0
CIRCLE
8
0
10
1.555000
20
0.956000
40
0.030000
0
INSERT
8
0
2
EPAD
10
1.455000
20
0.956000
41
0.050000
42
0.050000
0
CIRCLE
8
0
10
1.455000
20
0.956000
40
0.030000
0
INSERT
8
0
2
EPAD
10
1.255000
20
1.751000
41
0.080000
42
0.080000
0
CIRCLE
8
0
10
1.255000
20
1.751000
40
0.025000
0
INSERT
8
0
2
EPAD
10
1.855000
20
1.751000
41
0.080000
42
0.080000
0
CIRCLE
8
0
10
1.855000
20
1.751000
40
0.025000
0
INSERT
8
0
2
RPAD
10
1.655000
20
1.328000
41
0.080000
42
0.080000
50
180.000000
0
CIRCLE
8
0
10
1.655000
20
1.328000
40
0.025000
0
INSERT
8
0
2
RPAD
10
1.555000
20
1.328000
41
0.080000
42
0.080000
50
180.000000
0
CIRCLE
8
0
10
1.555000
20
1.328000
40
0.025000
0
INSERT
8
0
2
RPAD
10
1.455000
20
1.328000
41
0.080000
42
0.080000
50
180.000000
0
CIRCLE
8
0
10
1.455000
20
1.328000
40
0.025000
0
INSERT
8
0
2
EPAD
10
1.862000
20
1.367000
41
0.070000
42
0.070000
0
CIRCLE
8
0
10
1.862000
20
1.367000
40
0.025000
0
INSERT
8
0
2
EPAD
10
1.862000
20
0.967000
41
0.070000
42
0.070000
0
CIRCLE
8
0
10
1.862000
20
0.967000
40
0.025000
0
INSERT
8
0
2
EPAD
10
1.802000
20
1.552000
41
0.070000
42
0.070000
0
CIRCLE
8
0
10
1.802000
20
1.552000
40
0.025000
0
INSERT
8
0
2
EPAD
10
1.302000
20
1.552000
41
0.070000
42
0.070000
0
CIRCLE
8
0
10
1.302000
20
1.552000
40
0.025000
0
INSERT
8
0
2
EPAD
10
1.355000
20
2.169000
41
0.120000
42
0.120000
0
CIRCLE
8
0
10
1.355000
20
2.169000
40
0.030000
0
INSERT
8
0
2
EPAD
10
1.555000
20
2.169000
41
0.120000
42
0.120000
0
CIRCLE
8
0
10
1.555000
20
2.169000
40
0.030000
0
INSERT
8
0
2
EPAD
10
1.755000
20
2.169000
41
0.120000
42
0.120000
0
CIRCLE
8
0
10
1.755000
20
2.169000
40
0.030000
0
INSERT
8
0
2
RPAD
10
0.679000
20
0.656000
41
0.050000
42
0.050000
50
0.000000
0
CIRCLE
8
0
10
0.679000
20
0.656000
40
0.030000
0
INSERT
8
0
2
EPAD
10
0.779000
20
0.656000
41
0.050000
42
0.050000
0
CIRCLE
8
0
10
0.779000
20
0.656000
40
0.030000
0
INSERT
8
0
2
EPAD
10
0.879000
20
0.656000
41
0.050000
42
0.050000
0
CIRCLE
8
0
10
0.879000
20
0.656000
40
0.030000
0
INSERT
8
0
2
EPAD
10
0.879000
20
0.956000
41
0.050000
42
0.050000
0
CIRCLE
8
0
10
0.879000
20
0.956000
40
0.030000
0
INSERT
8
0
2
EPAD
10
0.779000
20
0.956000
41
0.050000
42
0.050000
0
CIRCLE
8
0
10
0.779000
20
0.956000
40
0.030000
0
INSERT
8
0
2
EPAD
10
0.679000
20
0.956000
41
0.050000
42
0.050000
0
CIRCLE
8
0
10
0.679000
20
0.956000
40
0.030000
0
INSERT
8
0
2
EPAD
10
0.479000
20
1.751000
41
0.080000
42
0.080000
0
CIRCLE
8
0
10
0.479000
20
1.751000
40
0.025000
0
INSERT
8
0
2
EPAD
10
1.079000
20
1.751000
41
0.080000
42
0.080000
0
CIRCLE
8
0
10
1.079000
20
1.751000
40
0.025000
0
INSERT
8
0
2
RPAD
10
0.879000
20
1.328000
41
0.080000
42
0.080000
50
180.000000
0
CIRCLE
8
0
10
0.879000
20
1.328000
40
0.025000
0
INSERT
8
0
2
RPAD
10
0.779000
20
1.328000
41
0.080000
42
0.080000
50
180.000000
0
CIRCLE
8
0
10
0.779000
20
1.328000
40
0.025000
0
INSERT
8
0
2
RPAD
10
0.679000
20
1.328000
41
0.080000
42
0.080000
50
180.000000
0
CIRCLE
8
0
10
0.679000
20
1.328000
40
0.025000
0
INSERT
8
0
2
EPAD
10
1.033000
20
1.544000
41
0.070000
42
0.070000
0
CIRCLE
8
0
10
1.033000
20
1.544000
40
0.025000
0
INSERT
8
0
2
EPAD
10
0.533000
20
1.544000
41
0.070000
42
0.070000
0
CIRCLE
8
0
10
0.533000
20
1.544000
40
0.025000
0
INSERT
8
0
2
EPAD
10
1.071000
20
1.367000
41
0.070000
42
0.070000
0
CIRCLE
8
0
10
1.071000
20
1.367000
40
0.025000
0
INSERT
8
0
2
EPAD
10
1.071000
20
0.967000
41
0.070000
42
0.070000
0
CIRCLE
8
0
10
1.071000
20
0.967000
40
0.025000
0
INSERT
8
0
2
EPAD
10
3.358000
20
-0.415000
41
0.120000
42
0.120000
0
CIRCLE
8
0
10
3.358000
20
-0.415000
40
0.030000
0
INSERT
8
0
2
EPAD
10
3.358000
20
-0.215000
41
0.120000
42
0.120000
0
CIRCLE
8
0
10
3.358000
20
-0.215000
40
0.030000
0
INSERT
8
0
2
EPAD
10
3.358000
20
-0.015000
41
0.120000
42
0.120000
0
CIRCLE
8
0
10
3.358000
20
-0.015000
40
0.030000
0
INSERT
8
0
2
EPAD
10
3.358000
20
0.184000
41
0.120000
42
0.120000
0
CIRCLE
8
0
10
3.358000
20
0.184000
40
0.030000
0
INSERT
8
0
2
EPAD
10
0.579000
20
2.169000
41
0.120000
42
0.120000
0
CIRCLE
8
0
10
0.579000
20
2.169000
40
0.030000
0
INSERT
8
0
2
EPAD
10
0.779000
20
2.169000
41
0.120000
42
0.120000
0
CIRCLE
8
0
10
0.779000
20
2.169000
40
0.030000
0
INSERT
8
0
2
EPAD
10
0.979000
20
2.169000
41
0.120000
42
0.120000
0
CIRCLE
8
0
10
0.979000
20
2.169000
40
0.030000
0
INSERT
8
0
2
RPAD
10
-0.077000
20
0.656000
41
0.050000
42
0.050000
50
0.000000
0
CIRCLE
8
0
10
-0.077000
20
0.656000
40
0.030000
0
INSERT
8
0
2
EPAD
10
0.022000
20
0.656000
41
0.050000
42
0.050000
0
CIRCLE
8
0
10
0.022000
20
0.656000
40
0.030000
0
INSERT
8
0
2
EPAD
10
0.122000
20
0.656000
41
0.050000
42
0.050000
0
CIRCLE
8
0
10
0.122000
20
0.656000
40
0.030000
0
INSERT
8
0
2
EPAD
10
0.122000
20
0.956000
41
0.050000
42
0.050000
0
CIRCLE
8
0
10
0.122000
20
0.956000
40
0.030000
0
INSERT
8
0
2
EPAD
10
0.022000
20
0.956000
41
0.050000
42
0.050000
0
CIRCLE
8
0
10
0.022000
20
0.956000
40
0.030000
0
INSERT
8
0
2
EPAD
10
-0.077000
20
0.956000
41
0.050000
42
0.050000
0
CIRCLE
8
0
10
-0.077000
20
0.956000
40
0.030000
0
INSERT
8
0
2
EPAD
10
-0.277000
20
1.751000
41
0.080000
42
0.080000
0
CIRCLE
8
0
10
-0.277000
20
1.751000
40
0.025000
0
INSERT
8
0
2
EPAD
10
0.322000
20
1.751000
41
0.080000
42
0.080000
0
CIRCLE
8
0
10
0.322000
20
1.751000
40
0.025000
0
INSERT
8
0
2
EPAD
10
0.322000
20
1.364000
41
0.070000
42
0.070000
0
CIRCLE
8
0
10
0.322000
20
1.364000
40
0.025000
0
INSERT
8
0
2
EPAD
10
0.322000
20
0.964000
41
0.070000
42
0.070000
0
CIRCLE
8
0
10
0.322000
20
0.964000
40
0.025000
0
INSERT
8
0
2
RPAD
10
0.122000
20
1.328000
41
0.080000
42
0.080000
50
180.000000
0
CIRCLE
8
0
10
0.122000
20
1.328000
40
0.025000
0
INSERT
8
0
2
RPAD
10
0.022000
20
1.328000
41
0.080000
42
0.080000
50
180.000000
0
CIRCLE
8
0
10
0.022000
20
1.328000
40
0.025000
0
INSERT
8
0
2
RPAD
10
-0.077000
20
1.328000
41
0.080000
42
0.080000
50
180.000000
0
CIRCLE
8
0
10
-0.077000
20
1.328000
40
0.025000
0
INSERT
8
0
2
EPAD
10
0.272000
20
1.558000
41
0.070000
42
0.070000
0
CIRCLE
8
0
10
0.272000
20
1.558000
40
0.025000
0
INSERT
8
0
2
EPAD
10
-0.227000
20
1.558000
41
0.070000
42
0.070000
0
CIRCLE
8
0
10
-0.227000
20
1.558000
40
0.025000
0
INSERT
8
0
2
EPAD
10
-0.177000
20
2.169000
41
0.120000
42
0.120000
0
CIRCLE
8
0
10
-0.177000
20
2.169000
40
0.030000
0
INSERT
8
0
2
EPAD
10
0.022000
20
2.169000
41
0.120000
42
0.120000
0
CIRCLE
8
0
10
0.022000
20
2.169000
40
0.030000
0
INSERT
8
0
2
EPAD
10
0.222000
20
2.169000
41
0.120000
42
0.120000
0
CIRCLE
8
0
10
0.222000
20
2.169000
40
0.030000
0
INSERT
8
0
2
EPAD
10
-1.049000
20
1.751000
41
0.080000
42
0.080000
0
CIRCLE
8
0
10
-1.049000
20
1.751000
40
0.025000
0
INSERT
8
0
2
EPAD
10
-0.449000
20
1.751000
41
0.080000
42
0.080000
0
CIRCLE
8
0
10
-0.449000
20
1.751000
40
0.025000
0
INSERT
8
0
2
RPAD
10
-0.849000
20
0.656000
41
0.050000
42
0.050000
50
0.000000
0
CIRCLE
8
0
10
-0.849000
20
0.656000
40
0.030000
0
INSERT
8
0
2
EPAD
10
-0.749000
20
0.656000
41
0.050000
42
0.050000
0
CIRCLE
8
0
10
-0.749000
20
0.656000
40
0.030000
0
INSERT
8
0
2
EPAD
10
-0.649000
20
0.656000
41
0.050000
42
0.050000
0
CIRCLE
8
0
10
-0.649000
20
0.656000
40
0.030000
0
INSERT
8
0
2
EPAD
10
-0.649000
20
0.956000
41
0.050000
42
0.050000
0
CIRCLE
8
0
10
-0.649000
20
0.956000
40
0.030000
0
INSERT
8
0
2
EPAD
10
-0.749000
20
0.956000
41
0.050000
42
0.050000
0
CIRCLE
8
0
10
-0.749000
20
0.956000
40
0.030000
0
INSERT
8
0
2
EPAD
10
-0.849000
20
0.956000
41
0.050000
42
0.050000
0
CIRCLE
8
0
10
-0.849000
20
0.956000
40
0.030000
0
INSERT
8
0
2
RPAD
10
-0.649000
20
1.328000
41
0.080000
42
0.080000
50
180.000000
0
CIRCLE
8
0
10
-0.649000
20
1.328000
40
0.025000
0
INSERT
8
0
2
RPAD
10
-0.749000
20
1.328000
41
0.080000
42
0.080000
50
180.000000
0
CIRCLE
8
0
10
-0.749000
20
1.328000
40
0.025000
0
INSERT
8
0
2
RPAD
10
-0.849000
20
1.328000
41
0.080000
42
0.080000
50
180.000000
0
CIRCLE
8
0
10
-0.849000
20
1.328000
40
0.025000
0
INSERT
8
0
2
EPAD
10
-0.451000
20
1.364000
41
0.070000
42
0.070000
0
CIRCLE
8
0
10
-0.451000
20
1.364000
40
0.025000
0
INSERT
8
0
2
EPAD
10
-0.451000
20
0.964000
41
0.070000
42
0.070000
0
CIRCLE
8
0
10
-0.451000
20
0.964000
40
0.025000
0
INSERT
8
0
2
EPAD
10
-0.499000
20
1.554000
41
0.070000
42
0.070000
0
CIRCLE
8
0
10
-0.499000
20
1.554000
40
0.025000
0
INSERT
8
0
2
EPAD
10
-0.999000
20
1.554000
41
0.070000
42
0.070000
0
CIRCLE
8
0
10
-0.999000
20
1.554000
40
0.025000
0
INSERT
8
0
2
EPAD
10
-0.949000
20
2.169000
41
0.120000
42
0.120000
0
CIRCLE
8
0
10
-0.949000
20
2.169000
40
0.030000
0
INSERT
8
0
2
EPAD
10
-0.749000
20
2.169000
41
0.120000
42
0.120000
0
CIRCLE
8
0
10
-0.749000
20
2.169000
40
0.030000
0
INSERT
8
0
2
EPAD
10
-0.549000
20
2.169000
41
0.120000
42
0.120000
0
CIRCLE
8
0
10
-0.549000
20
2.169000
40
0.030000
0
INSERT
8
0
2
RPAD
10
-1.656000
20
0.656000
41
0.050000
42
0.050000
50
0.000000
0
CIRCLE
8
0
10
-1.656000
20
0.656000
40
0.030000
0
INSERT
8
0
2
EPAD
10
-1.556000
20
0.656000
41
0.050000
42
0.050000
0
CIRCLE
8
0
10
-1.556000
20
0.656000
40
0.030000
0
INSERT
8
0
2
EPAD
10
-1.456000
20
0.656000
41
0.050000
42
0.050000
0
CIRCLE
8
0
10
-1.456000
20
0.656000
40
0.030000
0
INSERT
8
0
2
EPAD
10
-1.456000
20
0.956000
41
0.050000
42
0.050000
0
CIRCLE
8
0
10
-1.456000
20
0.956000
40
0.030000
0
INSERT
8
0
2
EPAD
10
-1.556000
20
0.956000
41
0.050000
42
0.050000
0
CIRCLE
8
0
10
-1.556000
20
0.956000
40
0.030000
0
INSERT
8
0
2
EPAD
10
-1.656000
20
0.956000
41
0.050000
42
0.050000
0
CIRCLE
8
0
10
-1.656000
20
0.956000
40
0.030000
0
INSERT
8
0
2
EPAD
10
-1.856000
20
1.751000
41
0.080000
42
0.080000
0
CIRCLE
8
0
10
-1.856000
20
1.751000
40
0.025000
0
INSERT
8
0
2
EPAD
10
-1.256000
20
1.751000
41
0.080000
42
0.080000
0
CIRCLE
8
0
10
-1.256000
20
1.751000
40
0.025000
0
INSERT
8
0
2
RPAD
10
-1.456000
20
1.328000
41
0.080000
42
0.080000
50
180.000000
0
CIRCLE
8
0
10
-1.456000
20
1.328000
40
0.025000
0
INSERT
8
0
2
RPAD
10
-1.556000
20
1.328000
41
0.080000
42
0.080000
50
180.000000
0
CIRCLE
8
0
10
-1.556000
20
1.328000
40
0.025000
0
INSERT
8
0
2
RPAD
10
-1.656000
20
1.328000
41
0.080000
42
0.080000
50
180.000000
0
CIRCLE
8
0
10
-1.656000
20
1.328000
40
0.025000
0
INSERT
8
0
2
EPAD
10
-1.209000
20
1.373000
41
0.070000
42
0.070000
0
CIRCLE
8
0
10
-1.209000
20
1.373000
40
0.025000
0
INSERT
8
0
2
EPAD
10
-1.209000
20
0.973000
41
0.070000
42
0.070000
0
CIRCLE
8
0
10
-1.209000
20
0.973000
40
0.025000
0
INSERT
8
0
2
EPAD
10
-1.306000
20
1.515000
41
0.070000
42
0.070000
0
CIRCLE
8
0
10
-1.306000
20
1.515000
40
0.025000
0
INSERT
8
0
2
EPAD
10
-1.806000
20
1.515000
41
0.070000
42
0.070000
0
CIRCLE
8
0
10
-1.806000
20
1.515000
40
0.025000
0
INSERT
8
0
2
EPAD
10
-1.756000
20
2.169000
41
0.120000
42
0.120000
0
CIRCLE
8
0
10
-1.756000
20
2.169000
40
0.030000
0
INSERT
8
0
2
EPAD
10
-1.556000
20
2.169000
41
0.120000
42
0.120000
0
CIRCLE
8
0
10
-1.556000
20
2.169000
40
0.030000
0
INSERT
8
0
2
EPAD
10
-1.356000
20
2.169000
41
0.120000
42
0.120000
0
CIRCLE
8
0
10
-1.356000
20
2.169000
40
0.030000
0
INSERT
8
0
2
EPAD
10
-2.615000
20
2.169000
41
0.120000
42
0.120000
0
CIRCLE
8
0
10
-2.615000
20
2.169000
40
0.030000
0
INSERT
8
0
2
EPAD
10
-2.415000
20
2.169000
41
0.120000
42
0.120000
0
CIRCLE
8
0
10
-2.415000
20
2.169000
40
0.030000
0
INSERT
8
0
2
EPAD
10
-2.215000
20
2.169000
41
0.120000
42
0.120000
0
CIRCLE
8
0
10
-2.215000
20
2.169000
40
0.030000
0
INSERT
8
0
2
EPAD
10
1.355000
20
-0.605000
41
0.080000
42
0.080000
0
CIRCLE
8
0
10
1.355000
20
-0.605000
40
0.025000
0
INSERT
8
0
2
EPAD
10
1.155000
20
-0.605000
41
0.080000
42
0.080000
0
CIRCLE
8
0
10
1.155000
20
-0.605000
40
0.025000
0
INSERT
8
0
2
EPAD
10
-3.091000
20
-0.700000
41
0.070000
42
0.070000
0
CIRCLE
8
0
10
-3.091000
20
-0.700000
40
0.025000
0
INSERT
8
0
2
EPAD
10
-3.091000
20
-0.900000
41
0.070000
42
0.070000
0
CIRCLE
8
0
10
-3.091000
20
-0.900000
40
0.025000
0
INSERT
8
0
2
EPAD
10
-0.327000
20
-0.687000
41
0.070000
42
0.070000
0
CIRCLE
8
0
10
-0.327000
20
-0.687000
40
0.025000
0
INSERT
8
0
2
EPAD
10
-0.327000
20
-0.887000
41
0.070000
42
0.070000
0
CIRCLE
8
0
10
-0.327000
20
-0.887000
40
0.025000
0
INSERT
8
0
2
EPAD
10
1.797000
20
-0.608000
41
0.070000
42
0.070000
0
CIRCLE
8
0
10
1.797000
20
-0.608000
40
0.025000
0
INSERT
8
0
2
EPAD
10
1.597000
20
-0.608000
41
0.070000
42
0.070000
0
CIRCLE
8
0
10
1.597000
20
-0.608000
40
0.025000
0
INSERT
8
0
2
EPAD
10
1.215000
20
-0.933000
41
0.070000
42
0.070000
0
CIRCLE
8
0
10
1.215000
20
-0.933000
40
0.025000
0
INSERT
8
0
2
EPAD
10
1.215000
20
-1.033000
41
0.070000
42
0.070000
0
CIRCLE
8
0
10
1.215000
20
-1.033000
40
0.025000
0
INSERT
8
0
2
EPAD
10
1.104000
20
-0.930000
41
0.070000
42
0.070000
0
CIRCLE
8
0
10
1.104000
20
-0.930000
40
0.025000
0
INSERT
8
0
2
EPAD
10
1.104000
20
-1.030000
41
0.070000
42
0.070000
0
CIRCLE
8
0
10
1.104000
20
-1.030000
40
0.025000
0
INSERT
8
0
2
EPAD
10
1.561000
20
0.003000
41
0.080000
42
0.080000
0
CIRCLE
8
0
10
1.561000
20
0.003000
40
0.010000
0
INSERT
8
0
2
EPAD
10
1.661000
20
0.003000
41
0.080000
42
0.080000
0
CIRCLE
8
0
10
1.661000
20
0.003000
40
0.010000
0
INSERT
8
0
2
EPAD
10
1.761000
20
0.003000
41
0.080000
42
0.080000
0
CIRCLE
8
0
10
1.761000
20
0.003000
40
0.010000
0
INSERT
8
0
2
EPAD
10
1.861000
20
0.003000
41
0.080000
42
0.080000
0
CIRCLE
8
0
10
1.861000
20
0.003000
40
0.010000
0
INSERT
8
0
2
EPAD
10
-0.050000
20
-0.907000
41
0.070000
42
0.070000
0
CIRCLE
8
0
10
-0.050000
20
-0.907000
40
0.025000
0
INSERT
8
0
2
EPAD
10
-0.050000
20
-1.307000
41
0.070000
42
0.070000
0
CIRCLE
8
0
10
-0.050000
20
-1.307000
40
0.025000
0
INSERT
8
0
2
EPAD
10
0.409000
20
-0.899000
41
0.070000
42
0.070000
0
CIRCLE
8
0
10
0.409000
20
-0.899000
40
0.025000
0
INSERT
8
0
2
EPAD
10
0.409000
20
-1.299000
41
0.070000
42
0.070000
0
CIRCLE
8
0
10
0.409000
20
-1.299000
40
0.025000
0
INSERT
8
0
2
EPAD
10
1.205000
20
-0.108000
41
0.070000
42
0.070000
0
CIRCLE
8
0
10
1.205000
20
-0.108000
40
0.025000
0
INSERT
8
0
2
EPAD
10
1.205000
20
0.291000
41
0.070000
42
0.070000
0
CIRCLE
8
0
10
1.205000
20
0.291000
40
0.025000
0
INSERT
8
0
2
EPAD
10
1.101000
20
-0.106000
41
0.070000
42
0.070000
0
CIRCLE
8
0
10
1.101000
20
-0.106000
40
0.025000
0
INSERT
8
0
2
EPAD
10
1.101000
20
0.293000
41
0.070000
42
0.070000
0
CIRCLE
8
0
10
1.101000
20
0.293000
40
0.025000
0
INSERT
8
0
2
EPAD
10
0.998000
20
-0.105000
41
0.070000
42
0.070000
0
CIRCLE
8
0
10
0.998000
20
-0.105000
40
0.025000
0
INSERT
8
0
2
EPAD
10
0.998000
20
0.294000
41
0.070000
42
0.070000
0
CIRCLE
8
0
10
0.998000
20
0.294000
40
0.025000
0
INSERT
8
0
2
EPAD
10
0.896000
20
-0.106000
41
0.070000
42
0.070000
0
CIRCLE
8
0
10
0.896000
20
-0.106000
40
0.025000
0
INSERT
8
0
2
EPAD
10
0.896000
20
0.293000
41
0.070000
42
0.070000
0
CIRCLE
8
0
10
0.896000
20
0.293000
40
0.025000
0
POLYLINE
8
0
66
1
40
0.008000
41
0.008000
0
VERTEX
8
0
10
-3.651000
20
-2.470000
0
VERTEX
8
0
10
3.651000
20
-2.470000
0
VERTEX
8
0
10
3.651000
20
2.470000
0
VERTEX
8
0
10
-3.651000
20
2.470000
0
VERTEX
8
0
10
-3.651000
20
-2.470000
0
SEQEND
8
0
0
POLYLINE
8
0
66
1
40
0.008000
41
0.008000
0
VERTEX
8
0
10
-2.853000
20
-0.528000
0
VERTEX
8
0
10
-2.855000
20
-0.508000
0
VERTEX
8
0
10
-2.861000
20
-0.489000
0
VERTEX
8
0
10
-2.870000
20
-0.472000
0
VERTEX
8
0
10
-2.882000
20
-0.457000
0
VERTEX
8
0
10
-2.897000
20
-0.445000
0
VERTEX
8
0
10
-2.914000
20
-0.436000
0
VERTEX
8
0
10
-2.933000
20
-0.430000
0
VERTEX
8
0
10
-2.953000
20
-0.428000
0
SEQEND
8
0
0
POLYLINE
8
0
66
1
40
0.008000
41
0.008000
0
VERTEX
8
0
10
-2.853000
20
-0.528000
0
VERTEX
8
0
10
-2.855000
20
-0.549000
0
VERTEX
8
0
10
-2.861000
20
-0.568000
0
VERTEX
8
0
10
-2.870000
20
-0.585000
0
VERTEX
8
0
10
-2.882000
20
-0.599000
0
VERTEX
8
0
10
-2.897000
20
-0.611000
0
VERTEX
8
0
10
-2.914000
20
-0.620000
0
VERTEX
8
0
10
-2.933000
20
-0.626000
0
VERTEX
8
0
10
-2.953000
20
-0.628000
0
SEQEND
8
0
0
POLYLINE
8
0
66
1
40
0.008000
41
0.008000
0
VERTEX
8
0
10
-2.953000
20
-0.428000
0
VERTEX
8
0
10
-2.953000
20
-0.278000
0
SEQEND
8
0
0
POLYLINE
8
0
66
1
40
0.008000
41
0.008000
0
VERTEX
8
0
10
-0.953000
20
-0.278000
0
VERTEX
8
0
10
-0.953000
20
-0.778000
0
SEQEND
8
0
0
POLYLINE
8
0
66
1
40
0.008000
41
0.008000
0
VERTEX
8
0
10
-2.953000
20
-0.778000
0
VERTEX
8
0
10
-2.953000
20
-0.628000
0
SEQEND
8
0
0
POLYLINE
8
0
66
1
40
0.008000
41
0.008000
0
VERTEX
8
0
10
-2.953000
20
-0.278000
0
VERTEX
8
0
10
-0.953000
20
-0.278000
0
SEQEND
8
0
0
POLYLINE
8
0
66
1
40
0.008000
41
0.008000
0
VERTEX
8
0
10
-2.953000
20
-0.778000
0
VERTEX
8
0
10
-0.953000
20
-0.778000
0
SEQEND
8
0
0
TEXT
8
12632256
10
-2.963000
20
-0.578000
40
0.048000
41
1.041667
50
90.000000
1
U1
0
POLYLINE
8
0
66
1
40
0.008000
41
0.008000
0
VERTEX
8
0
10
-0.043000
20
-0.522000
0
VERTEX
8
0
10
-0.045000
20
-0.502000
0
VERTEX
8
0
10
-0.051000
20
-0.483000
0
VERTEX
8
0
10
-0.060000
20
-0.466000
0
VERTEX
8
0
10
-0.072000
20
-0.451000
0
VERTEX
8
0
10
-0.087000
20
-0.439000
0
VERTEX
8
0
10
-0.104000
20
-0.430000
0
VERTEX
8
0
10
-0.123000
20
-0.424000
0
VERTEX
8
0
10
-0.143000
20
-0.422000
0
SEQEND
8
0
0
POLYLINE
8
0
66
1
40
0.008000
41
0.008000
0
VERTEX
8
0
10
-0.043000
20
-0.522000
0
VERTEX
8
0
10
-0.045000
20
-0.543000
0
VERTEX
8
0
10
-0.051000
20
-0.562000
0
VERTEX
8
0
10
-0.060000
20
-0.579000
0
VERTEX
8
0
10
-0.072000
20
-0.593000
0
VERTEX
8
0
10
-0.087000
20
-0.605000
0
VERTEX
8
0
10
-0.104000
20
-0.614000
0
VERTEX
8
0
10
-0.123000
20
-0.620000
0
VERTEX
8
0
10
-0.143000
20
-0.622000
0
SEQEND
8
0
0
POLYLINE
8
0
66
1
40
0.008000
41
0.008000
0
VERTEX
8
0
10
-0.143000
20
-0.422000
0
VERTEX
8
0
10
-0.143000
20
-0.272000
0
SEQEND
8
0
0
POLYLINE
8
0
66
1
40
0.008000
41
0.008000
0
VERTEX
8
0
10
1.856000
20
-0.272000
0
VERTEX
8
0
10
1.856000
20
-0.772000
0
SEQEND
8
0
0
POLYLINE
8
0
66
1
40
0.008000
41
0.008000
0
VERTEX
8
0
10
-0.143000
20
-0.772000
0
VERTEX
8
0
10
-0.143000
20
-0.622000
0
SEQEND
8
0
0
POLYLINE
8
0
66
1
40
0.008000
41
0.008000
0
VERTEX
8
0
10
-0.143000
20
-0.272000
0
VERTEX
8
0
10
1.856000
20
-0.272000
0
SEQEND
8
0
0
POLYLINE
8
0
66
1
40
0.008000
41
0.008000
0
VERTEX
8
0
10
-0.143000
20
-0.772000
0
VERTEX
8
0
10
1.856000
20
-0.772000
0
SEQEND
8
0
0
TEXT
8
12632256
10
-0.153000
20
-0.597000
40
0.048000
41
1.041667
50
90.000000
1
U21
0
POLYLINE
8
0
66
1
40
0.008000
41
0.008000
0
VERTEX
8
0
10
-3.179000
20
-0.987000
0
VERTEX
8
0
10
-3.579000
20
-0.987000
0
SEQEND
8
0
0
POLYLINE
8
0
66
1
40
0.008000
41
0.008000
0
VERTEX
8
0
10
-3.179000
20
-1.387000
0
VERTEX
8
0
10
-3.579000
20
-1.387000
0
SEQEND
8
0
0
POLYLINE
8
0
66
1
40
0.008000
41
0.008000
0
VERTEX
8
0
10
-3.579000
20
-0.987000
0
VERTEX
8
0
10
-3.579000
20
-1.387000
0
SEQEND
8
0
0
POLYLINE
8
0
66
1
40
0.008000
41
0.008000
0
VERTEX
8
0
10
-3.179000
20
-0.987000
0
VERTEX
8
0
10
-3.179000
20
-1.387000
0
SEQEND
8
0
0
TEXT
8
12632256
10
-3.121000
20
-1.262000
40
0.048000
41
1.041667
50
90.000000
1
J16
0
CIRCLE
8
12632256
10
-3.341000
20
-1.678000
40
0.213000
0
POLYLINE
8
0
66
1
40
0.008000
41
0.008000
0
VERTEX
8
0
10
-3.151000
20
-1.598000
0
VERTEX
8
0
10
-3.191000
20
-1.598000
0
SEQEND
8
0
0
POLYLINE
8
0
66
1
40
0.008000
41
0.008000
0
VERTEX
8
0
10
-3.171000
20
-1.578000
0
VERTEX
8
0
10
-3.171000
20
-1.618000
0
SEQEND
8
0
0
TEXT
8
12632256
10
-3.070000
20
-1.753000
40
0.048000
41
1.041667
50
90.000000
1
BR1
0
CIRCLE
8
12632256
10
-3.056000
20
-2.175000
40
0.200000
0
POLYLINE
8
0
66
1
40
0.008000
41
0.008000
0
VERTEX
8
0
10
-3.181000
20
-2.075000
0
VERTEX
8
0
10
-3.131000
20
-2.075000
0
SEQEND
8
0
0
POLYLINE
8
0
66
1
40
0.008000
41
0.008000
0
VERTEX
8
0
10
-3.156000
20
-2.050000
0
VERTEX
8
0
10
-3.156000
20
-2.100000
0
SEQEND
8
0
0
TEXT
8
12632256
10
-3.106000
20
-1.965000
40
0.048000
41
1.041667
1
C4
0
POLYLINE
8
0
66
1
40
0.008000
41
0.008000
0
VERTEX
8
0
10
-2.921000
20
-1.521000
0
VERTEX
8
0
10
-2.921000
20
-1.571000
0
SEQEND
8
0
0
POLYLINE
8
0
66
1
40
0.008000
41
0.008000
0
VERTEX
8
0
10
-2.946000
20
-1.771000
0
VERTEX
8
0
10
-2.896000
20
-1.771000
0
VERTEX
8
0
10
-2.896000
20
-1.571000
0
VERTEX
8
0
10
-2.946000
20
-1.571000
0
VERTEX
8
0
10
-2.946000
20
-1.771000
0
SEQEND
8
0
0
POLYLINE
8
0
66
1
40
0.008000
41
0.008000
0
VERTEX
8
0
10
-2.921000
20
-1.771000
0
VERTEX
8
0
10
-2.921000
20
-1.821000
0
SEQEND
8
0
0
TEXT
8
12632256
10
-2.838000
20
-1.746000
40
0.048000
41
1.041667
50
90.000000
1
R60
0
POLYLINE
8
0
66
1
40
0.008000
41
0.008000
0
VERTEX
8
0
10
-2.231000
20
-2.379000
0
VERTEX
8
0
10
-1.931000
20
-2.379000
0
VERTEX
8
0
10
-1.931000
20
-2.279000
0
VERTEX
8
0
10
-2.231000
20
-2.279000
0
VERTEX
8
0
10
-2.231000
20
-2.379000
0
SEQEND
8
0
0
POLYLINE
8
0
66
1
40
0.008000
41
0.008000
0
VERTEX
8
0
10
-2.231000
20
-2.279000
0
VERTEX
8
0
10
-2.231000
20
-2.229000
0
VERTEX
8
0
10
-1.931000
20
-2.229000
0
VERTEX
8
0
10
-1.931000
20
-2.279000
0
SEQEND
8
0
0
POLYLINE
8
0
66
1
40
0.008000
41
0.008000
0
VERTEX
8
0
10
-2.231000
20
-2.279000
0
VERTEX
8
0
10
-2.181000
20
-2.229000
0
SEQEND
8
0
0
POLYLINE
8
0
66
1
40
0.008000
41
0.008000
0
VERTEX
8
0
10
-2.181000
20
-2.279000
0
VERTEX
8
0
10
-2.131000
20
-2.229000
0
SEQEND
8
0
0
POLYLINE
8
0
66
1
40
0.008000
41
0.008000
0
VERTEX
8
0
10
-2.131000
20
-2.279000
0
VERTEX
8
0
10
-2.081000
20
-2.229000
0
SEQEND
8
0
0
POLYLINE
8
0
66
1
40
0.008000
41
0.008000
0
VERTEX
8
0
10
-2.081000
20
-2.279000
0
VERTEX
8
0
10
-2.031000
20
-2.229000
0
SEQEND
8
0
0
POLYLINE
8
0
66
1
40
0.008000
41
0.008000
0
VERTEX
8
0
10
-2.031000
20
-2.279000
0
VERTEX
8
0
10
-1.981000
20
-2.229000
0
SEQEND
8
0
0
POLYLINE
8
0
66
1
40
0.008000
41
0.008000
0
VERTEX
8
0
10
-1.981000
20
-2.279000
0
VERTEX
8
0
10
-1.931000
20
-2.229000
0
SEQEND
8
0
0
TEXT
8
12632256
10
-2.156000
20
-2.219000
40
0.048000
41
1.041667
1
U30
0
POLYLINE
8
0
66
1
40
0.008000
41
0.008000
0
VERTEX
8
0
10
-2.770000
20
-2.420000
0
VERTEX
8
0
10
-1.392000
20
-2.420000
0
VERTEX
8
0
10
-1.392000
20
-1.931000
0
VERTEX
8
0
10
-2.770000
20
-1.931000
0
VERTEX
8
0
10
-2.770000
20
-2.420000
0
SEQEND
8
0
0
CIRCLE
8
12632256
10
-1.820000
20
-1.763000
40
0.100000
0
POLYLINE
8
0
66
1
40
0.008000
41
0.008000
0
VERTEX
8
0
10
-1.745000
20
-1.813000
0
VERTEX
8
0
10
-1.795000
20
-1.813000
0
SEQEND
8
0
0
POLYLINE
8
0
66
1
40
0.008000
41
0.008000
0
VERTEX
8
0
10
-1.770000
20
-1.838000
0
VERTEX
8
0
10
-1.770000
20
-1.788000
0
SEQEND
8
0
0
TEXT
8
12632256
10
-1.870000
20
-1.921000
40
0.048000
41
1.041667
1
C5
0
POLYLINE
8
0
66
1
40
0.008000
41
0.008000
0
VERTEX
8
0
10
-1.959000
20
-1.779000
0
VERTEX
8
0
10
-1.962000
20
-1.789000
0
VERTEX
8
0
10
-1.970000
20
-1.799000
0
VERTEX
8
0
10
-1.984000
20
-1.807000
0
VERTEX
8
0
10
-2.002000
20
-1.814000
0
VERTEX
8
0
10
-2.024000
20
-1.821000
0
VERTEX
8
0
10
-2.050000
20
-1.825000
0
VERTEX
8
0
10
-2.078000
20
-1.828000
0
VERTEX
8
0
10
-2.109000
20
-1.829000
0
SEQEND
8
0
0
POLYLINE
8
0
66
1
40
0.008000
41
0.008000
0
VERTEX
8
0
10
-2.259000
20
-1.779000
0
VERTEX
8
0
10
-2.256000
20
-1.789000
0
VERTEX
8
0
10
-2.247000
20
-1.799000
0
VERTEX
8
0
10
-2.234000
20
-1.807000
0
VERTEX
8
0
10
-2.216000
20
-1.814000
0
VERTEX
8
0
10
-2.194000
20
-1.821000
0
VERTEX
8
0
10
-2.168000
20
-1.825000
0
VERTEX
8
0
10
-2.140000
20
-1.828000
0
VERTEX
8
0
10
-2.109000
20
-1.829000
0
SEQEND
8
0
0
POLYLINE
8
0
66
1
40
0.008000
41
0.008000
0
VERTEX
8
0
10
-2.259000
20
-1.779000
0
VERTEX
8
0
10
-2.256000
20
-1.769000
0
VERTEX
8
0
10
-2.247000
20
-1.759000
0
VERTEX
8
0
10
-2.234000
20
-1.751000
0
VERTEX
8
0
10
-2.216000
20
-1.744000
0
VERTEX
8
0
10
-2.194000
20
-1.737000
0
VERTEX
8
0
10
-2.168000
20
-1.733000
0
VERTEX
8
0
10
-2.140000
20
-1.730000
0
VERTEX
8
0
10
-2.109000
20
-1.729000
0
SEQEND
8
0
0
POLYLINE
8
0
66
1
40
0.008000
41
0.008000
0
VERTEX
8
0
10
-1.959000
20
-1.779000
0
VERTEX
8
0
10
-1.962000
20
-1.769000
0
VERTEX
8
0
10
-1.970000
20
-1.759000
0
VERTEX
8
0
10
-1.984000
20
-1.751000
0
VERTEX
8
0
10
-2.002000
20
-1.744000
0
VERTEX
8
0
10
-2.024000
20
-1.737000
0
VERTEX
8
0
10
-2.050000
20
-1.733000
0
VERTEX
8
0
10
-2.078000
20
-1.730000
0
VERTEX
8
0
10
-2.109000
20
-1.729000
0
SEQEND
8
0
0
TEXT
8
12632256
10
-2.159000
20
-1.887000
40
0.048000
41
1.041667
1
C6
0
POLYLINE
8
0
66
1
40
0.008000
41
0.008000
0
VERTEX
8
0
10
-1.956000
20
-1.492000
0
VERTEX
8
0
10
-1.752000
20
-1.492000
0
VERTEX
8
0
10
-1.752000
20
-1.387000
0
VERTEX
8
0
10
-1.956000
20
-1.387000
0
VERTEX
8
0
10
-1.956000
20
-1.492000
0
SEQEND
8
0
0
POLYLINE
8
0
66
1
40
0.008000
41
0.008000
0
VERTEX
8
0
10
-1.924000
20
-1.388000
0
VERTEX
8
0
10
-1.924000
20
-1.491000
0
SEQEND
8
0
0
POLYLINE
8
0
66
1
40
0.008000
41
0.008000
0
VERTEX
8
0
10
-1.984000
20
-1.440000
0
VERTEX
8
0
10
-1.956000
20
-1.440000
0
SEQEND
8
0
0
POLYLINE
8
0
66
1
40
0.008000
41
0.008000
0
VERTEX
8
0
10
-1.752000
20
-1.440000
0
VERTEX
8
0
10
-1.724000
20
-1.440000
0
SEQEND
8
0
0
TEXT
8
12632256
10
-1.904000
20
-1.377000
40
0.048000
41
1.041667
1
D1
0
POLYLINE
8
0
66
1
40
0.008000
41
0.008000
0
VERTEX
8
0
10
-1.433000
20
-1.049000
0
VERTEX
8
0
10
-1.430000
20
-1.039000
0
VERTEX
8
0
10
-1.422000
20
-1.029000
0
VERTEX
8
0
10
-1.408000
20
-1.021000
0
VERTEX
8
0
10
-1.390000
20
-1.014000
0
VERTEX
8
0
10
-1.368000
20
-1.007000
0
VERTEX
8
0
10
-1.342000
20
-1.003000
0
VERTEX
8
0
10
-1.314000
20
-1.000000
0
VERTEX
8
0
10
-1.283000
20
-0.999000
0
SEQEND
8
0
0
POLYLINE
8
0
66
1
40
0.008000
41
0.008000
0
VERTEX
8
0
10
-1.133000
20
-1.049000
0
VERTEX
8
0
10
-1.136000
20
-1.039000
0
VERTEX
8
0
10
-1.145000
20
-1.029000
0
VERTEX
8
0
10
-1.158000
20
-1.021000
0
VERTEX
8
0
10
-1.176000
20
-1.014000
0
VERTEX
8
0
10
-1.198000
20
-1.007000
0
VERTEX
8
0
10
-1.224000
20
-1.003000
0
VERTEX
8
0
10
-1.252000
20
-1.000000
0
VERTEX
8
0
10
-1.283000
20
-0.999000
0
SEQEND
8
0
0
POLYLINE
8
0
66
1
40
0.008000
41
0.008000
0
VERTEX
8
0
10
-1.133000
20
-1.049000
0
VERTEX
8
0
10
-1.136000
20
-1.059000
0
VERTEX
8
0
10
-1.145000
20
-1.069000
0
VERTEX
8
0
10
-1.158000
20
-1.077000
0
VERTEX
8
0
10
-1.176000
20
-1.084000
0
VERTEX
8
0
10
-1.198000
20
-1.091000
0
VERTEX
8
0
10
-1.224000
20
-1.095000
0
VERTEX
8
0
10
-1.252000
20
-1.098000
0
VERTEX
8
0
10
-1.283000
20
-1.099000
0
SEQEND
8
0
0
POLYLINE
8
0
66
1
40
0.008000
41
0.008000
0
VERTEX
8
0
10
-1.433000
20
-1.049000
0
VERTEX
8
0
10
-1.430000
20
-1.059000
0
VERTEX
8
0
10
-1.422000
20
-1.069000
0
VERTEX
8
0
10
-1.408000
20
-1.077000
0
VERTEX
8
0
10
-1.390000
20
-1.084000
0
VERTEX
8
0
10
-1.368000
20
-1.091000
0
VERTEX
8
0
10
-1.342000
20
-1.095000
0
VERTEX
8
0
10
-1.314000
20
-1.098000
0
VERTEX
8
0
10
-1.283000
20
-1.099000
0
SEQEND
8
0
0
TEXT
8
12632256
10
-1.333000
20
-0.989000
40
0.048000
41
1.041667
1
C1
0
POLYLINE
8
0
66
1
40
0.008000
41
0.008000
0
VERTEX
8
0
10
-2.923000
20
-1.008000
0
VERTEX
8
0
10
-2.923000
20
-1.058000
0
SEQEND
8
0
0
POLYLINE
8
0
66
1
40
0.008000
41
0.008000
0
VERTEX
8
0
10
-2.948000
20
-1.258000
0
VERTEX
8
0
10
-2.898000
20
-1.258000
0
VERTEX
8
0
10
-2.898000
20
-1.058000
0
VERTEX
8
0
10
-2.948000
20
-1.058000
0
VERTEX
8
0
10
-2.948000
20
-1.258000
0
SEQEND
8
0
0
POLYLINE
8
0
66
1
40
0.008000
41
0.008000
0
VERTEX
8
0
10
-2.923000
20
-1.258000
0
VERTEX
8
0
10
-2.923000
20
-1.308000
0
SEQEND
8
0
0
TEXT
8
12632256
10
-2.840000
20
-1.208000
40
0.048000
41
1.041667
50
90.000000
1
R1
0
POLYLINE
8
0
66
1
40
0.008000
41
0.008000
0
VERTEX
8
0
10
-1.707000
20
-0.512000
0
VERTEX
8
0
10
-1.407000
20
-0.512000
0
VERTEX
8
0
10
-1.357000
20
-0.562000
0
VERTEX
8
0
10
-1.357000
20
-0.662000
0
VERTEX
8
0
10
-1.407000
20
-0.712000
0
VERTEX
8
0
10
-1.707000
20
-0.712000
0
VERTEX
8
0
10
-1.757000
20
-0.662000
0
VERTEX
8
0
10
-1.757000
20
-0.562000
0
VERTEX
8
0
10
-1.707000
20
-0.512000
0
SEQEND
8
0
0
TEXT
8
12632256
10
-1.607000
20
-0.502000
40
0.048000
41
1.041667
1
X1
0
POLYLINE
8
0
66
1
40
0.008000
41
0.008000
0
VERTEX
8
0
10
-1.702000
20
-0.887000
0
VERTEX
8
0
10
-1.692000
20
-0.889000
0
VERTEX
8
0
10
-1.682000
20
-0.895000
0
VERTEX
8
0
10
-1.674000
20
-0.904000
0
VERTEX
8
0
10
-1.666000
20
-0.916000
0
VERTEX
8
0
10
-1.660000
20
-0.931000
0
VERTEX
8
0
10
-1.656000
20
-0.948000
0
VERTEX
8
0
10
-1.653000
20
-0.967000
0
VERTEX
8
0
10
-1.652000
20
-0.987000
0
SEQEND
8
0
0
POLYLINE
8
0
66
1
40
0.008000
41
0.008000
0
VERTEX
8
0
10
-1.702000
20
-1.087000
0
VERTEX
8
0
10
-1.692000
20
-1.085000
0
VERTEX
8
0
10
-1.682000
20
-1.079000
0
VERTEX
8
0
10
-1.674000
20
-1.070000
0
VERTEX
8
0
10
-1.666000
20
-1.058000
0
VERTEX
8
0
10
-1.660000
20
-1.043000
0
VERTEX
8
0
10
-1.656000
20
-1.026000
0
VERTEX
8
0
10
-1.653000
20
-1.007000
0
VERTEX
8
0
10
-1.652000
20
-0.987000
0
SEQEND
8
0
0
POLYLINE
8
0
66
1
40
0.008000
41
0.008000
0
VERTEX
8
0
10
-1.702000
20
-0.887000
0
VERTEX
8
0
10
-1.712000
20
-0.889000
0
VERTEX
8
0
10
-1.722000
20
-0.895000
0
VERTEX
8
0
10
-1.730000
20
-0.904000
0
VERTEX
8
0
10
-1.738000
20
-0.916000
0
VERTEX
8
0
10
-1.744000
20
-0.931000
0
VERTEX
8
0
10
-1.748000
20
-0.948000
0
VERTEX
8
0
10
-1.751000
20
-0.967000
0
VERTEX
8
0
10
-1.752000
20
-0.987000
0
SEQEND
8
0
0
POLYLINE
8
0
66
1
40
0.008000
41
0.008000
0
VERTEX
8
0
10
-1.702000
20
-1.087000
0
VERTEX
8
0
10
-1.712000
20
-1.085000
0
VERTEX
8
0
10
-1.722000
20
-1.079000
0
VERTEX
8
0
10
-1.730000
20
-1.070000
0
VERTEX
8
0
10
-1.738000
20
-1.058000
0
VERTEX
8
0
10
-1.744000
20
-1.043000
0
VERTEX
8
0
10
-1.748000
20
-1.026000
0
VERTEX
8
0
10
-1.751000
20
-1.007000
0
VERTEX
8
0
10
-1.752000
20
-0.987000
0
SEQEND
8
0
0
TEXT
8
12632256
10
-1.787000
20
-1.037000
40
0.048000
41
1.041667
50
90.000000
1
C8
0
POLYLINE
8
0
66
1
40
0.008000
41
0.008000
0
VERTEX
8
0
10
-1.588000
20
-0.887000
0
VERTEX
8
0
10
-1.578000
20
-0.889000
0
VERTEX
8
0
10
-1.568000
20
-0.895000
0
VERTEX
8
0
10
-1.560000
20
-0.904000
0
VERTEX
8
0
10
-1.552000
20
-0.916000
0
VERTEX
8
0
10
-1.546000
20
-0.931000
0
VERTEX
8
0
10
-1.542000
20
-0.948000
0
VERTEX
8
0
10
-1.539000
20
-0.967000
0
VERTEX
8
0
10
-1.538000
20
-0.987000
0
SEQEND
8
0
0
POLYLINE
8
0
66
1
40
0.008000
41
0.008000
0
VERTEX
8
0
10
-1.588000
20
-1.087000
0
VERTEX
8
0
10
-1.578000
20
-1.085000
0
VERTEX
8
0
10
-1.568000
20
-1.079000
0
VERTEX
8
0
10
-1.560000
20
-1.070000
0
VERTEX
8
0
10
-1.552000
20
-1.058000
0
VERTEX
8
0
10
-1.546000
20
-1.043000
0
VERTEX
8
0
10
-1.542000
20
-1.026000
0
VERTEX
8
0
10
-1.539000
20
-1.007000
0
VERTEX
8
0
10
-1.538000
20
-0.987000
0
SEQEND
8
0
0
POLYLINE
8
0
66
1
40
0.008000
41
0.008000
0
VERTEX
8
0
10
-1.588000
20
-0.887000
0
VERTEX
8
0
10
-1.598000
20
-0.889000
0
VERTEX
8
0
10
-1.608000
20
-0.895000
0
VERTEX
8
0
10
-1.616000
20
-0.904000
0
VERTEX
8
0
10
-1.624000
20
-0.916000
0
VERTEX
8
0
10
-1.630000
20
-0.931000
0
VERTEX
8
0
10
-1.634000
20
-0.948000
0
VERTEX
8
0
10
-1.637000
20
-0.967000
0
VERTEX
8
0
10
-1.638000
20
-0.987000
0
SEQEND
8
0
0
POLYLINE
8
0
66
1
40
0.008000
41
0.008000
0
VERTEX
8
0
10
-1.588000
20
-1.087000
0
VERTEX
8
0
10
-1.598000
20
-1.085000
0
VERTEX
8
0
10
-1.608000
20
-1.079000
0
VERTEX
8
0
10
-1.616000
20
-1.070000
0
VERTEX
8
0
10
-1.624000
20
-1.058000
0
VERTEX
8
0
10
-1.630000
20
-1.043000
0
VERTEX
8
0
10
-1.634000
20
-1.026000
0
VERTEX
8
0
10
-1.637000
20
-1.007000
0
VERTEX
8
0
10
-1.638000
20
-0.987000
0
SEQEND
8
0
0
TEXT
8
12632256
10
-1.480000
20
-1.037000
40
0.048000
41
1.041667
50
90.000000
1
C9
0
POLYLINE
8
0
66
1
40
0.008000
41
0.008000
0
VERTEX
8
0
10
-3.163000
20
-0.458000
0
VERTEX
8
0
10
-3.163000
20
-0.408000
0
SEQEND
8
0
0
POLYLINE
8
0
66
1
40
0.008000
41
0.008000
0
VERTEX
8
0
10
-3.188000
20
-0.408000
0
VERTEX
8
0
10
-3.138000
20
-0.408000
0
VERTEX
8
0
10
-3.138000
20
-0.208000
0
VERTEX
8
0
10
-3.188000
20
-0.208000
0
VERTEX
8
0
10
-3.188000
20
-0.408000
0
SEQEND
8
0
0
POLYLINE
8
0
66
1
40
0.008000
41
0.008000
0
VERTEX
8
0
10
-3.163000
20
-0.208000
0
VERTEX
8
0
10
-3.163000
20
-0.158000
0
SEQEND
8
0
0
TEXT
8
12632256
10
-3.198000
20
-0.358000
40
0.048000
41
1.041667
50
90.000000
1
R9
0
POLYLINE
8
0
66
1
40
0.008000
41
0.008000
0
VERTEX
8
0
10
-3.483000
20
-0.027000
0
VERTEX
8
0
10
-3.283000
20
-0.027000
0
SEQEND
8
0
0
POLYLINE
8
0
66
1
40
0.008000
41
0.008000
0
VERTEX
8
0
10
-3.513000
20
0.037000
0
VERTEX
8
0
10
-3.511000
20
0.022000
0
VERTEX
8
0
10
-3.506000
20
0.007000
0
VERTEX
8
0
10
-3.496000
20
-0.009000
0
VERTEX
8
0
10
-3.483000
20
-0.027000
0
SEQEND
8
0
0
POLYLINE
8
0
66
1
40
0.008000
41
0.008000
0
VERTEX
8
0
10
-3.513000
20
0.037000
0
VERTEX
8
0
10
-3.512000
20
0.062000
0
VERTEX
8
0
10
-3.505000
20
0.086000
0
VERTEX
8
0
10
-3.494000
20
0.107000
0
VERTEX
8
0
10
-3.478000
20
0.126000
0
VERTEX
8
0
10
-3.459000
20
0.141000
0
VERTEX
8
0
10
-3.436000
20
0.152000
0
VERTEX
8
0
10
-3.411000
20
0.160000
0
VERTEX
8
0
10
-3.383000
20
0.162000
0
SEQEND
8
0
0
POLYLINE
8
0
66
1
40
0.008000
41
0.008000
0
VERTEX
8
0
10
-3.253000
20
0.037000
0
VERTEX
8
0
10
-3.255000
20
0.022000
0
VERTEX
8
0
10
-3.260000
20
0.007000
0
VERTEX
8
0
10
-3.270000
20
-0.009000
0
VERTEX
8
0
10
-3.283000
20
-0.027000
0
SEQEND
8
0
0
POLYLINE
8
0
66
1
40
0.008000
41
0.008000
0
VERTEX
8
0
10
-3.253000
20
0.037000
0
VERTEX
8
0
10
-3.254000
20
0.062000
0
VERTEX
8
0
10
-3.261000
20
0.086000
0
VERTEX
8
0
10
-3.272000
20
0.107000
0
VERTEX
8
0
10
-3.288000
20
0.126000
0
VERTEX
8
0
10
-3.307000
20
0.141000
0
VERTEX
8
0
10
-3.330000
20
0.152000
0
VERTEX
8
0
10
-3.355000
20
0.160000
0
VERTEX
8
0
10
-3.383000
20
0.162000
0
SEQEND
8
0
0
TEXT
8
12632256
10
-3.433000
20
0.172000
40
0.048000
41
1.041667
1
Q4
0
POLYLINE
8
0
66
1
40
0.008000
41
0.008000
0
VERTEX
8
0
10
-3.013000
20
0.201000
0
VERTEX
8
0
10
-0.913000
20
0.201000
0
VERTEX
8
0
10
-0.913000
20
0.451000
0
VERTEX
8
0
10
-3.013000
20
0.451000
0
VERTEX
8
0
10
-3.013000
20
0.201000
0
SEQEND
8
0
0
POLYLINE
8
0
66
1
40
0.008000
41
0.008000
0
VERTEX
8
0
10
-0.913000
20
0.251000
0
VERTEX
8
0
10
-3.013000
20
0.251000
0
SEQEND
8
0
0
TEXT
8
12632256
10
-2.013000
20
0.143000
40
0.048000
41
1.041667
1
J9
0
POLYLINE
8
0
66
1
40
0.008000
41
0.008000
0
VERTEX
8
0
10
-3.514000
20
0.525000
0
VERTEX
8
0
10
-3.214000
20
0.525000
0
VERTEX
8
0
10
-3.214000
20
0.675000
0
VERTEX
8
0
10
-3.514000
20
0.675000
0
VERTEX
8
0
10
-3.514000
20
0.525000
0
SEQEND
8
0
0
POLYLINE
8
0
66
1
40
0.008000
41
0.008000
0
VERTEX
8
0
10
-3.314000
20
0.375000
0
VERTEX
8
0
10
-3.414000
20
0.375000
0
SEQEND
8
0
0
POLYLINE
8
0
66
1
40
0.008000
41
0.008000
0
VERTEX
8
0
10
-3.458000
20
0.305000
0
VERTEX
8
0
10
-3.265000
20
0.305000
0
VERTEX
8
0
10
-3.265000
20
0.525000
0
VERTEX
8
0
10
-3.458000
20
0.525000
0
VERTEX
8
0
10
-3.458000
20
0.305000
0
SEQEND
8
0
0
TEXT
8
12632256
10
-3.439000
20
0.685000
40
0.048000
41
1.041667
1
RV1
0
POLYLINE
8
0
66
1
40
0.008000
41
0.008000
0
VERTEX
8
0
10
-2.814000
20
-1.255000
0
VERTEX
8
0
10
-1.914000
20
-1.255000
0
VERTEX
8
0
10
-1.914000
20
-1.005000
0
VERTEX
8
0
10
-2.814000
20
-1.005000
0
VERTEX
8
0
10
-2.814000
20
-1.255000
0
SEQEND
8
0
0
POLYLINE
8
0
66
1
40
0.008000
41
0.008000
0
VERTEX
8
0
10
-2.814000
20
-1.055000
0
VERTEX
8
0
10
-1.914000
20
-1.055000
0
SEQEND
8
0
0
TEXT
8
12632256
10
-2.192000
20
-1.333000
40
0.048000
41
1.041667
1
J7
0
POLYLINE
8
0
66
1
40
0.008000
41
0.008000
0
VERTEX
8
0
10
-2.710000
20
-1.370000
0
VERTEX
8
0
10
-2.710000
20
-1.420000
0
SEQEND
8
0
0
POLYLINE
8
0
66
1
40
0.008000
41
0.008000
0
VERTEX
8
0
10
-2.735000
20
-1.620000
0
VERTEX
8
0
10
-2.685000
20
-1.620000
0
VERTEX
8
0
10
-2.685000
20
-1.420000
0
VERTEX
8
0
10
-2.735000
20
-1.420000
0
VERTEX
8
0
10
-2.735000
20
-1.620000
0
SEQEND
8
0
0
POLYLINE
8
0
66
1
40
0.008000
41
0.008000
0
VERTEX
8
0
10
-2.710000
20
-1.620000
0
VERTEX
8
0
10
-2.710000
20
-1.670000
0
SEQEND
8
0
0
TEXT
8
12632256
10
-2.627000
20
-1.595000
40
0.048000
41
1.041667
50
90.000000
1
R33
0
POLYLINE
8
0
66
1
40
0.008000
41
0.008000
0
VERTEX
8
0
10
-2.600000
20
-1.370000
0
VERTEX
8
0
10
-2.600000
20
-1.420000
0
SEQEND
8
0
0
POLYLINE
8
0
66
1
40
0.008000
41
0.008000
0
VERTEX
8
0
10
-2.625000
20
-1.620000
0
VERTEX
8
0
10
-2.575000
20
-1.620000
0
VERTEX
8
0
10
-2.575000
20
-1.420000
0
VERTEX
8
0
10
-2.625000
20
-1.420000
0
VERTEX
8
0
10
-2.625000
20
-1.620000
0
SEQEND
8
0
0
POLYLINE
8
0
66
1
40
0.008000
41
0.008000
0
VERTEX
8
0
10
-2.600000
20
-1.620000
0
VERTEX
8
0
10
-2.600000
20
-1.670000
0
SEQEND
8
0
0
TEXT
8
12632256
10
-2.517000
20
-1.595000
40
0.048000
41
1.041667
50
90.000000
1
R34
0
POLYLINE
8
0
66
1
40
0.008000
41
0.008000
0
VERTEX
8
0
10
-2.482000
20
-1.370000
0
VERTEX
8
0
10
-2.482000
20
-1.420000
0
SEQEND
8
0
0
POLYLINE
8
0
66
1
40
0.008000
41
0.008000
0
VERTEX
8
0
10
-2.507000
20
-1.620000
0
VERTEX
8
0
10
-2.457000
20
-1.620000
0
VERTEX
8
0
10
-2.457000
20
-1.420000
0
VERTEX
8
0
10
-2.507000
20
-1.420000
0
VERTEX
8
0
10
-2.507000
20
-1.620000
0
SEQEND
8
0
0
POLYLINE
8
0
66
1
40
0.008000
41
0.008000
0
VERTEX
8
0
10
-2.482000
20
-1.620000
0
VERTEX
8
0
10
-2.482000
20
-1.670000
0
SEQEND
8
0
0
TEXT
8
12632256
10
-2.399000
20
-1.595000
40
0.048000
41
1.041667
50
90.000000
1
R35
0
POLYLINE
8
0
66
1
40
0.008000
41
0.008000
0
VERTEX
8
0
10
-2.360000
20
-1.370000
0
VERTEX
8
0
10
-2.360000
20
-1.420000
0
SEQEND
8
0
0
POLYLINE
8
0
66
1
40
0.008000
41
0.008000
0
VERTEX
8
0
10
-2.385000
20
-1.620000
0
VERTEX
8
0
10
-2.335000
20
-1.620000
0
VERTEX
8
0
10
-2.335000
20
-1.420000
0
VERTEX
8
0
10
-2.385000
20
-1.420000
0
VERTEX
8
0
10
-2.385000
20
-1.620000
0
SEQEND
8
0
0
POLYLINE
8
0
66
1
40
0.008000
41
0.008000
0
VERTEX
8
0
10
-2.360000
20
-1.620000
0
VERTEX
8
0
10
-2.360000
20
-1.670000
0
SEQEND
8
0
0
TEXT
8
12632256
10
-2.277000
20
-1.595000
40
0.048000
41
1.041667
50
90.000000
1
R36
0
POLYLINE
8
0
66
1
40
0.008000
41
0.008000
0
VERTEX
8
0
10
-0.913000
20
-1.997000
0
VERTEX
8
0
10
-0.913000
20
-2.397000
0
SEQEND
8
0
0
POLYLINE
8
0
66
1
40
0.008000
41
0.008000
0
VERTEX
8
0
10
-0.313000
20
-1.997000
0
VERTEX
8
0
10
-0.313000
20
-2.397000
0
SEQEND
8
0
0
POLYLINE
8
0
66
1
40
0.008000
41
0.008000
0
VERTEX
8
0
10
-0.913000
20
-2.397000
0
VERTEX
8
0
10
-0.313000
20
-2.397000
0
SEQEND
8
0
0
POLYLINE
8
0
66
1
40
0.008000
41
0.008000
0
VERTEX
8
0
10
-0.313000
20
-1.997000
0
VERTEX
8
0
10
-0.913000
20
-1.997000
0
SEQEND
8
0
0
TEXT
8
12632256
10
-0.679000
20
-2.457000
40
0.048000
41
1.041667
1
J20
0
POLYLINE
8
0
66
1
40
0.008000
41
0.008000
0
VERTEX
8
0
10
-0.991000
20
-1.527000
0
VERTEX
8
0
10
-0.941000
20
-1.527000
0
SEQEND
8
0
0
POLYLINE
8
0
66
1
40
0.008000
41
0.008000
0
VERTEX
8
0
10
-0.941000
20
-1.552000
0
VERTEX
8
0
10
-0.741000
20
-1.552000
0
VERTEX
8
0
10
-0.741000
20
-1.502000
0
VERTEX
8
0
10
-0.941000
20
-1.502000
0
VERTEX
8
0
10
-0.941000
20
-1.552000
0
SEQEND
8
0
0
POLYLINE
8
0
66
1
40
0.008000
41
0.008000
0
VERTEX
8
0
10
-0.741000
20
-1.527000
0
VERTEX
8
0
10
-0.691000
20
-1.527000
0
SEQEND
8
0
0
TEXT
8
12632256
10
-0.916000
20
-1.492000
40
0.048000
41
1.041667
1
R51
0
POLYLINE
8
0
66
1
40
0.008000
41
0.008000
0
VERTEX
8
0
10
-0.273000
20
-1.126000
0
VERTEX
8
0
10
-0.223000
20
-1.126000
0
SEQEND
8
0
0
POLYLINE
8
0
66
1
40
0.008000
41
0.008000
0
VERTEX
8
0
10
-0.423000
20
-1.126000
0
VERTEX
8
0
10
-0.373000
20
-1.126000
0
SEQEND
8
0
0
POLYLINE
8
0
66
1
40
0.008000
41
0.008000
0
VERTEX
8
0
10
-0.323000
20
-1.176000
0
VERTEX
8
0
10
-0.313000
20
-1.175000
0
VERTEX
8
0
10
-0.303000
20
-1.172000
0
VERTEX
8
0
10
-0.295000
20
-1.168000
0
VERTEX
8
0
10
-0.288000
20
-1.162000
0
VERTEX
8
0
10
-0.282000
20
-1.155000
0
VERTEX
8
0
10
-0.277000
20
-1.146000
0
VERTEX
8
0
10
-0.274000
20
-1.136000
0
VERTEX
8
0
10
-0.273000
20
-1.126000
0
SEQEND
8
0
0
POLYLINE
8
0
66
1
40
0.008000
41
0.008000
0
VERTEX
8
0
10
-0.323000
20
-1.176000
0
VERTEX
8
0
10
-0.333000
20
-1.175000
0
VERTEX
8
0
10
-0.343000
20
-1.172000
0
VERTEX
8
0
10
-0.352000
20
-1.168000
0
VERTEX
8
0
10
-0.359000
20
-1.162000
0
VERTEX
8
0
10
-0.365000
20
-1.155000
0
VERTEX
8
0
10
-0.369000
20
-1.146000
0
VERTEX
8
0
10
-0.372000
20
-1.136000
0
VERTEX
8
0
10
-0.373000
20
-1.126000
0
SEQEND
8
0
0
POLYLINE
8
0
66
1
40
0.008000
41
0.008000
0
VERTEX
8
0
10
-0.423000
20
-1.126000
0
VERTEX
8
0
10
-0.423000
20
-1.826000
0
VERTEX
8
0
10
-0.223000
20
-1.826000
0
VERTEX
8
0
10
-0.223000
20
-1.126000
0
SEQEND
8
0
0
TEXT
8
12632256
10
-0.373000
20
-1.116000
40
0.048000
41
1.041667
1
U2
0
POLYLINE
8
0
66
1
40
0.008000
41
0.008000
0
VERTEX
8
0
10
-0.940000
20
-1.355000
0
VERTEX
8
0
10
-0.937000
20
-1.345000
0
VERTEX
8
0
10
-0.929000
20
-1.335000
0
VERTEX
8
0
10
-0.915000
20
-1.327000
0
VERTEX
8
0
10
-0.897000
20
-1.320000
0
VERTEX
8
0
10
-0.875000
20
-1.313000
0
VERTEX
8
0
10
-0.849000
20
-1.309000
0
VERTEX
8
0
10
-0.821000
20
-1.306000
0
VERTEX
8
0
10
-0.790000
20
-1.305000
0
SEQEND
8
0
0
POLYLINE
8
0
66
1
40
0.008000
41
0.008000
0
VERTEX
8
0
10
-0.640000
20
-1.355000
0
VERTEX
8
0
10
-0.643000
20
-1.345000
0
VERTEX
8
0
10
-0.652000
20
-1.335000
0
VERTEX
8
0
10
-0.666000
20
-1.327000
0
VERTEX
8
0
10
-0.684000
20
-1.320000
0
VERTEX
8
0
10
-0.706000
20
-1.313000
0
VERTEX
8
0
10
-0.731000
20
-1.309000
0
VERTEX
8
0
10
-0.759000
20
-1.306000
0
VERTEX
8
0
10
-0.790000
20
-1.305000
0
SEQEND
8
0
0
POLYLINE
8
0
66
1
40
0.008000
41
0.008000
0
VERTEX
8
0
10
-0.640000
20
-1.355000
0
VERTEX
8
0
10
-0.643000
20
-1.365000
0
VERTEX
8
0
10
-0.652000
20
-1.375000
0
VERTEX
8
0
10
-0.666000
20
-1.383000
0
VERTEX
8
0
10
-0.684000
20
-1.390000
0
VERTEX
8
0
10
-0.706000
20
-1.397000
0
VERTEX
8
0
10
-0.731000
20
-1.401000
0
VERTEX
8
0
10
-0.759000
20
-1.404000
0
VERTEX
8
0
10
-0.790000
20
-1.405000
0
SEQEND
8
0
0
POLYLINE
8
0
66
1
40
0.008000
41
0.008000
0
VERTEX
8
0
10
-0.940000
20
-1.355000
0
VERTEX
8
0
10
-0.937000
20
-1.365000
0
VERTEX
8
0
10
-0.929000
20
-1.375000
0
VERTEX
8
0
10
-0.915000
20
-1.383000
0
VERTEX
8
0
10
-0.897000
20
-1.390000
0
VERTEX
8
0
10
-0.875000
20
-1.397000
0
VERTEX
8
0
10
-0.849000
20
-1.401000
0
VERTEX
8
0
10
-0.821000
20
-1.404000
0
VERTEX
8
0
10
-0.790000
20
-1.405000
0
SEQEND
8
0
0
TEXT
8
12632256
10
-0.865000
20
-1.295000
40
0.048000
41
1.041667
1
C41
0
POLYLINE
8
0
66
1
40
0.008000
41
0.008000
0
VERTEX
8
0
10
-0.932000
20
-1.182000
0
VERTEX
8
0
10
-0.929000
20
-1.172000
0
VERTEX
8
0
10
-0.921000
20
-1.162000
0
VERTEX
8
0
10
-0.907000
20
-1.154000
0
VERTEX
8
0
10
-0.889000
20
-1.146000
0
VERTEX
8
0
10
-0.867000
20
-1.140000
0
VERTEX
8
0
10
-0.841000
20
-1.136000
0
VERTEX
8
0
10
-0.813000
20
-1.133000
0
VERTEX
8
0
10
-0.782000
20
-1.132000
0
SEQEND
8
0
0
POLYLINE
8
0
66
1
40
0.008000
41
0.008000
0
VERTEX
8
0
10
-0.632000
20
-1.182000
0
VERTEX
8
0
10
-0.635000
20
-1.172000
0
VERTEX
8
0
10
-0.644000
20
-1.162000
0
VERTEX
8
0
10
-0.658000
20
-1.154000
0
VERTEX
8
0
10
-0.676000
20
-1.146000
0
VERTEX
8
0
10
-0.698000
20
-1.140000
0
VERTEX
8
0
10
-0.723000
20
-1.136000
0
VERTEX
8
0
10
-0.751000
20
-1.133000
0
VERTEX
8
0
10
-0.782000
20
-1.132000
0
SEQEND
8
0
0
POLYLINE
8
0
66
1
40
0.008000
41
0.008000
0
VERTEX
8
0
10
-0.632000
20
-1.182000
0
VERTEX
8
0
10
-0.635000
20
-1.192000
0
VERTEX
8
0
10
-0.644000
20
-1.202000
0
VERTEX
8
0
10
-0.658000
20
-1.210000
0
VERTEX
8
0
10
-0.676000
20
-1.218000
0
VERTEX
8
0
10
-0.698000
20
-1.224000
0
VERTEX
8
0
10
-0.723000
20
-1.228000
0
VERTEX
8
0
10
-0.751000
20
-1.231000
0
VERTEX
8
0
10
-0.782000
20
-1.232000
0
SEQEND
8
0
0
POLYLINE
8
0
66
1
40
0.008000
41
0.008000
0
VERTEX
8
0
10
-0.932000
20
-1.182000
0
VERTEX
8
0
10
-0.929000
20
-1.192000
0
VERTEX
8
0
10
-0.921000
20
-1.202000
0
VERTEX
8
0
10
-0.907000
20
-1.210000
0
VERTEX
8
0
10
-0.889000
20
-1.218000
0
VERTEX
8
0
10
-0.867000
20
-1.224000
0
VERTEX
8
0
10
-0.841000
20
-1.228000
0
VERTEX
8
0
10
-0.813000
20
-1.231000
0
VERTEX
8
0
10
-0.782000
20
-1.232000
0
SEQEND
8
0
0
TEXT
8
12632256
10
-0.857000
20
-1.122000
40
0.048000
41
1.041667
1
C42
0
POLYLINE
8
0
66
1
40
0.008000
41
0.008000
0
VERTEX
8
0
10
-0.603000
20
-0.973000
0
VERTEX
8
0
10
-0.653000
20
-0.973000
0
SEQEND
8
0
0
POLYLINE
8
0
66
1
40
0.008000
41
0.008000
0
VERTEX
8
0
10
-0.853000
20
-0.998000
0
VERTEX
8
0
10
-0.653000
20
-0.998000
0
VERTEX
8
0
10
-0.653000
20
-0.948000
0
VERTEX
8
0
10
-0.853000
20
-0.948000
0
VERTEX
8
0
10
-0.853000
20
-0.998000
0
SEQEND
8
0
0
POLYLINE
8
0
66
1
40
0.008000
41
0.008000
0
VERTEX
8
0
10
-0.853000
20
-0.973000
0
VERTEX
8
0
10
-0.903000
20
-0.973000
0
SEQEND
8
0
0
TEXT
8
12632256
10
-0.828000
20
-1.056000
40
0.048000
41
1.041667
1
R29
0
POLYLINE
8
0
66
1
40
0.008000
41
0.008000
0
VERTEX
8
0
10
-1.419000
20
-1.412000
0
VERTEX
8
0
10
-1.119000
20
-1.412000
0
VERTEX
8
0
10
-1.119000
20
-1.262000
0
VERTEX
8
0
10
-1.419000
20
-1.262000
0
VERTEX
8
0
10
-1.419000
20
-1.412000
0
SEQEND
8
0
0
POLYLINE
8
0
66
1
40
0.008000
41
0.008000
0
VERTEX
8
0
10
-1.219000
20
-1.562000
0
VERTEX
8
0
10
-1.319000
20
-1.562000
0
SEQEND
8
0
0
POLYLINE
8
0
66
1
40
0.008000
41
0.008000
0
VERTEX
8
0
10
-1.364000
20
-1.632000
0
VERTEX
8
0
10
-1.171000
20
-1.632000
0
VERTEX
8
0
10
-1.171000
20
-1.412000
0
VERTEX
8
0
10
-1.364000
20
-1.412000
0
VERTEX
8
0
10
-1.364000
20
-1.632000
0
SEQEND
8
0
0
TEXT
8
12632256
10
-1.344000
20
-1.252000
40
0.048000
41
1.041667
1
RV3
0
POLYLINE
8
0
66
1
40
0.008000
41
0.008000
0
VERTEX
8
0
10
0.480000
20
-1.638000
0
VERTEX
8
0
10
0.410000
20
-1.641000
0
VERTEX
8
0
10
0.343000
20
-1.647000
0
VERTEX
8
0
10
0.278000
20
-1.656000
0
VERTEX
8
0
10
0.216000
20
-1.669000
0
VERTEX
8
0
10
0.157000
20
-1.685000
0
VERTEX
8
0
10
0.102000
20
-1.704000
0
VERTEX
8
0
10
0.051000
20
-1.726000
0
VERTEX
8
0
10
0.004000
20
-1.750000
0
VERTEX
8
0
10
-0.039000
20
-1.776000
0
VERTEX
8
0
10
-0.076000
20
-1.805000
0
VERTEX
8
0
10
-0.093000
20
-1.820000
0
VERTEX
8
0
10
-0.109000
20
-1.836000
0
VERTEX
8
0
10
-0.124000
20
-1.852000
0
VERTEX
8
0
10
-0.137000
20
-1.869000
0
VERTEX
8
0
10
-0.159000
20
-1.903000
0
VERTEX
8
0
10
-0.175000
20
-1.940000
0
VERTEX
8
0
10
-0.185000
20
-1.977000
0
VERTEX
8
0
10
-0.187000
20
-1.996000
0
VERTEX
8
0
10
-0.188000
20
-2.016000
0
VERTEX
8
0
10
-0.187000
20
-2.038000
0
VERTEX
8
0
10
-0.185000
20
-2.059000
0
VERTEX
8
0
10
-0.175000
20
-2.101000
0
VERTEX
8
0
10
-0.168000
20
-2.122000
0
VERTEX
8
0
10
-0.159000
20
-2.142000
0
VERTEX
8
0
10
-0.149000
20
-2.161000
0
VERTEX
8
0
10
-0.138000
20
-2.180000
0
VERTEX
8
0
10
-0.111000
20
-2.217000
0
VERTEX
8
0
10
-0.078000
20
-2.251000
0
VERTEX
8
0
10
-0.041000
20
-2.283000
0
VERTEX
8
0
10
0.001000
20
-2.313000
0
VERTEX
8
0
10
0.047000
20
-2.339000
0
VERTEX
8
0
10
0.098000
20
-2.363000
0
VERTEX
8
0
10
0.152000
20
-2.384000
0
VERTEX
8
0
10
0.209000
20
-2.401000
0
VERTEX
8
0
10
0.270000
20
-2.415000
0
VERTEX
8
0
10
0.334000
20
-2.425000
0
VERTEX
8
0
10
0.400000
20
-2.431000
0
VERTEX
8
0
10
0.468000
20
-2.433000
0
VERTEX
8
0
10
0.537000
20
-2.431000
0
VERTEX
8
0
10
0.603000
20
-2.424000
0
VERTEX
8
0
10
0.667000
20
-2.414000
0
VERTEX
8
0
10
0.728000
20
-2.400000
0
VERTEX
8
0
10
0.786000
20
-2.382000
0
VERTEX
8
0
10
0.841000
20
-2.361000
0
VERTEX
8
0
10
0.891000
20
-2.336000
0
VERTEX
8
0
10
0.938000
20
-2.309000
0
VERTEX
8
0
10
0.981000
20
-2.279000
0
VERTEX
8
0
10
1.018000
20
-2.246000
0
VERTEX
8
0
10
1.035000
20
-2.228000
0
VERTEX
8
0
10
1.051000
20
-2.210000
0
VERTEX
8
0
10
1.066000
20
-2.192000
0
VERTEX
8
0
10
1.079000
20
-2.173000
0
VERTEX
8
0
10
1.101000
20
-2.133000
0
VERTEX
8
0
10
1.117000
20
-2.092000
0
VERTEX
8
0
10
1.127000
20
-2.049000
0
VERTEX
8
0
10
1.129000
20
-2.026000
0
VERTEX
8
0
10
1.130000
20
-2.004000
0
VERTEX
8
0
10
1.129000
20
-1.985000
0
VERTEX
8
0
10
1.127000
20
-1.966000
0
VERTEX
8
0
10
1.117000
20
-1.929000
0
VERTEX
8
0
10
1.110000
20
-1.911000
0
VERTEX
8
0
10
1.101000
20
-1.894000
0
VERTEX
8
0
10
1.091000
20
-1.877000
0
VERTEX
8
0
10
1.080000
20
-1.860000
0
VERTEX
8
0
10
1.053000
20
-1.828000
0
VERTEX
8
0
10
1.021000
20
-1.798000
0
VERTEX
8
0
10
0.984000
20
-1.770000
0
VERTEX
8
0
10
0.942000
20
-1.744000
0
VERTEX
8
0
10
0.896000
20
-1.720000
0
VERTEX
8
0
10
0.846000
20
-1.699000
0
VERTEX
8
0
10
0.793000
20
-1.681000
0
VERTEX
8
0
10
0.736000
20
-1.666000
0
VERTEX
8
0
10
0.676000
20
-1.654000
0
VERTEX
8
0
10
0.613000
20
-1.645000
0
VERTEX
8
0
10
0.548000
20
-1.640000
0
VERTEX
8
0
10
0.480000
20
-1.638000
0
SEQEND
8
0
0
TEXT
8
12632256
10
1.114000
20
-1.805000
40
0.048000
41
1.041667
50
90.000000
1
SP1
0
POLYLINE
8
0
66
1
40
0.008000
41
0.008000
0
VERTEX
8
0
10
1.824000
20
-1.623000
0
VERTEX
8
0
10
1.754000
20
-1.626000
0
VERTEX
8
0
10
1.687000
20
-1.632000
0
VERTEX
8
0
10
1.622000
20
-1.641000
0
VERTEX
8
0
10
1.560000
20
-1.654000
0
VERTEX
8
0
10
1.501000
20
-1.670000
0
VERTEX
8
0
10
1.446000
20
-1.689000
0
VERTEX
8
0
10
1.395000
20
-1.711000
0
VERTEX
8
0
10
1.348000
20
-1.735000
0
VERTEX
8
0
10
1.305000
20
-1.761000
0
VERTEX
8
0
10
1.267000
20
-1.790000
0
VERTEX
8
0
10
1.234000
20
-1.821000
0
VERTEX
8
0
10
1.206000
20
-1.854000
0
VERTEX
8
0
10
1.184000
20
-1.888000
0
VERTEX
8
0
10
1.168000
20
-1.925000
0
VERTEX
8
0
10
1.158000
20
-1.962000
0
VERTEX
8
0
10
1.156000
20
-1.981000
0
VERTEX
8
0
10
1.155000
20
-2.001000
0
VERTEX
8
0
10
1.156000
20
-2.023000
0
VERTEX
8
0
10
1.158000
20
-2.044000
0
VERTEX
8
0
10
1.168000
20
-2.086000
0
VERTEX
8
0
10
1.175000
20
-2.107000
0
VERTEX
8
0
10
1.184000
20
-2.127000
0
VERTEX
8
0
10
1.206000
20
-2.165000
0
VERTEX
8
0
10
1.233000
20
-2.202000
0
VERTEX
8
0
10
1.265000
20
-2.236000
0
VERTEX
8
0
10
1.303000
20
-2.268000
0
VERTEX
8
0
10
1.345000
20
-2.298000
0
VERTEX
8
0
10
1.391000
20
-2.324000
0
VERTEX
8
0
10
1.442000
20
-2.348000
0
VERTEX
8
0
10
1.496000
20
-2.369000
0
VERTEX
8
0
10
1.553000
20
-2.386000
0
VERTEX
8
0
10
1.614000
20
-2.400000
0
VERTEX
8
0
10
1.678000
20
-2.410000
0
VERTEX
8
0
10
1.744000
20
-2.416000
0
VERTEX
8
0
10
1.812000
20
-2.418000
0
VERTEX
8
0
10
1.881000
20
-2.416000
0
VERTEX
8
0
10
1.947000
20
-2.409000
0
VERTEX
8
0
10
2.011000
20
-2.399000
0
VERTEX
8
0
10
2.072000
20
-2.385000
0
VERTEX
8
0
10
2.130000
20
-2.367000
0
VERTEX
8
0
10
2.185000
20
-2.346000
0
VERTEX
8
0
10
2.235000
20
-2.322000
0
VERTEX
8
0
10
2.282000
20
-2.294000
0
VERTEX
8
0
10
2.325000
20
-2.264000
0
VERTEX
8
0
10
2.362000
20
-2.231000
0
VERTEX
8
0
10
2.379000
20
-2.214000
0
VERTEX
8
0
10
2.395000
20
-2.196000
0
VERTEX
8
0
10
2.410000
20
-2.177000
0
VERTEX
8
0
10
2.423000
20
-2.158000
0
VERTEX
8
0
10
2.445000
20
-2.118000
0
VERTEX
8
0
10
2.461000
20
-2.077000
0
VERTEX
8
0
10
2.471000
20
-2.034000
0
VERTEX
8
0
10
2.473000
20
-2.012000
0
VERTEX
8
0
10
2.474000
20
-1.989000
0
VERTEX
8
0
10
2.473000
20
-1.970000
0
VERTEX
8
0
10
2.471000
20
-1.951000
0
VERTEX
8
0
10
2.461000
20
-1.914000
0
VERTEX
8
0
10
2.454000
20
-1.896000
0
VERTEX
8
0
10
2.445000
20
-1.879000
0
VERTEX
8
0
10
2.435000
20
-1.862000
0
VERTEX
8
0
10
2.424000
20
-1.845000
0
VERTEX
8
0
10
2.397000
20
-1.813000
0
VERTEX
8
0
10
2.365000
20
-1.783000
0
VERTEX
8
0
10
2.328000
20
-1.755000
0
VERTEX
8
0
10
2.286000
20
-1.729000
0
VERTEX
8
0
10
2.240000
20
-1.705000
0
VERTEX
8
0
10
2.190000
20
-1.684000
0
VERTEX
8
0
10
2.137000
20
-1.666000
0
VERTEX
8
0
10
2.080000
20
-1.651000
0
VERTEX
8
0
10
2.020000
20
-1.639000
0
VERTEX
8
0
10
1.957000
20
-1.630000
0
VERTEX
8
0
10
1.892000
20
-1.625000
0
VERTEX
8
0
10
1.824000
20
-1.623000
0
SEQEND
8
0
0
TEXT
8
12632256
10
2.532000
20
-2.030000
40
0.048000
41
1.041667
50
90.000000
1
SP2
0
POLYLINE
8
0
66
1
40
0.008000
41
0.008000
0
VERTEX
8
0
10
0.634000
20
-0.067000
0
VERTEX
8
0
10
0.634000
20
-0.017000
0
SEQEND
8
0
0
POLYLINE
8
0
66
1
40
0.008000
41
0.008000
0
VERTEX
8
0
10
0.609000
20
-0.017000
0
VERTEX
8
0
10
0.659000
20
-0.017000
0
VERTEX
8
0
10
0.659000
20
0.182000
0
VERTEX
8
0
10
0.609000
20
0.182000
0
VERTEX
8
0
10
0.609000
20
-0.017000
0
SEQEND
8
0
0
POLYLINE
8
0
66
1
40
0.008000
41
0.008000
0
VERTEX
8
0
10
0.634000
20
0.182000
0
VERTEX
8
0
10
0.634000
20
0.232000
0
SEQEND
8
0
0
TEXT
8
12632256
10
0.717000
20
0.036000
40
0.048000
41
1.041667
50
90.000000
1
R7
0
POLYLINE
8
0
66
1
40
0.008000
41
0.008000
0
VERTEX
8
0
10
0.543000
20
-0.067000
0
VERTEX
8
0
10
0.543000
20
-0.017000
0
SEQEND
8
0
0
POLYLINE
8
0
66
1
40
0.008000
41
0.008000
0
VERTEX
8
0
10
0.518000
20
-0.017000
0
VERTEX
8
0
10
0.568000
20
-0.017000
0
VERTEX
8
0
10
0.568000
20
0.182000
0
VERTEX
8
0
10
0.518000
20
0.182000
0
VERTEX
8
0
10
0.518000
20
-0.017000
0
SEQEND
8
0
0
POLYLINE
8
0
66
1
40
0.008000
41
0.008000
0
VERTEX
8
0
10
0.543000
20
0.182000
0
VERTEX
8
0
10
0.543000
20
0.232000
0
SEQEND
8
0
0
TEXT
8
12632256
10
0.616000
20
0.044000
40
0.048000
41
1.041667
50
90.000000
1
R8
0
POLYLINE
8
0
66
1
40
0.008000
41
0.008000
0
VERTEX
8
0
10
3.257000
20
-1.855000
0
VERTEX
8
0
10
3.357000
20
-1.855000
0
VERTEX
8
0
10
3.357000
20
-1.555000
0
VERTEX
8
0
10
3.257000
20
-1.555000
0
VERTEX
8
0
10
3.257000
20
-1.855000
0
VERTEX
8
0
10
3.207000
20
-1.855000
0
VERTEX
8
0
10
3.207000
20
-1.555000
0
VERTEX
8
0
10
3.257000
20
-1.555000
0
SEQEND
8
0
0
POLYLINE
8
0
66
1
40
0.008000
41
0.008000
0
VERTEX
8
0
10
3.257000
20
-1.855000
0
VERTEX
8
0
10
3.207000
20
-1.805000
0
SEQEND
8
0
0
POLYLINE
8
0
66
1
40
0.008000
41
0.008000
0
VERTEX
8
0
10
3.257000
20
-1.805000
0
VERTEX
8
0
10
3.207000
20
-1.755000
0
SEQEND
8
0
0
POLYLINE
8
0
66
1
40
0.008000
41
0.008000
0
VERTEX
8
0
10
3.257000
20
-1.755000
0
VERTEX
8
0
10
3.207000
20
-1.705000
0
SEQEND
8
0
0
POLYLINE
8
0
66
1
40
0.008000
41
0.008000
0
VERTEX
8
0
10
3.257000
20
-1.705000
0
VERTEX
8
0
10
3.207000
20
-1.655000
0
SEQEND
8
0
0
POLYLINE
8
0
66
1
40
0.008000
41
0.008000
0
VERTEX
8
0
10
3.257000
20
-1.655000
0
VERTEX
8
0
10
3.207000
20
-1.605000
0
SEQEND
8
0
0
POLYLINE
8
0
66
1
40
0.008000
41
0.008000
0
VERTEX
8
0
10
3.257000
20
-1.605000
0
VERTEX
8
0
10
3.207000
20
-1.555000
0
SEQEND
8
0
0
TEXT
8
12632256
10
3.197000
20
-1.755000
40
0.048000
41
1.041667
50
90.000000
1
Q1
0
POLYLINE
8
0
66
1
40
0.008000
41
0.008000
0
VERTEX
8
0
10
3.129000
20
-1.406000
0
VERTEX
8
0
10
3.179000
20
-1.406000
0
SEQEND
8
0
0
POLYLINE
8
0
66
1
40
0.008000
41
0.008000
0
VERTEX
8
0
10
3.179000
20
-1.431000
0
VERTEX
8
0
10
3.379000
20
-1.431000
0
VERTEX
8
0
10
3.379000
20
-1.381000
0
VERTEX
8
0
10
3.179000
20
-1.381000
0
VERTEX
8
0
10
3.179000
20
-1.431000
0
SEQEND
8
0
0
POLYLINE
8
0
66
1
40
0.008000
41
0.008000
0
VERTEX
8
0
10
3.379000
20
-1.406000
0
VERTEX
8
0
10
3.429000
20
-1.406000
0
SEQEND
8
0
0
TEXT
8
12632256
10
3.204000
20
-1.371000
40
0.048000
41
1.041667
1
R30
0
POLYLINE
8
0
66
1
40
0.008000
41
0.008000
0
VERTEX
8
0
10
3.496000
20
-1.866000
0
VERTEX
8
0
10
3.496000
20
-1.816000
0
SEQEND
8
0
0
POLYLINE
8
0
66
1
40
0.008000
41
0.008000
0
VERTEX
8
0
10
3.471000
20
-1.816000
0
VERTEX
8
0
10
3.521000
20
-1.816000
0
VERTEX
8
0
10
3.521000
20
-1.616000
0
VERTEX
8
0
10
3.471000
20
-1.616000
0
VERTEX
8
0
10
3.471000
20
-1.816000
0
SEQEND
8
0
0
POLYLINE
8
0
66
1
40
0.008000
41
0.008000
0
VERTEX
8
0
10
3.496000
20
-1.616000
0
VERTEX
8
0
10
3.496000
20
-1.566000
0
SEQEND
8
0
0
TEXT
8
12632256
10
3.461000
20
-1.791000
40
0.048000
41
1.041667
50
90.000000
1
R38
0
POLYLINE
8
0
66
1
40
0.008000
41
0.008000
0
VERTEX
8
0
10
3.122000
20
-1.296000
0
VERTEX
8
0
10
3.172000
20
-1.296000
0
SEQEND
8
0
0
POLYLINE
8
0
66
1
40
0.008000
41
0.008000
0
VERTEX
8
0
10
3.172000
20
-1.321000
0
VERTEX
8
0
10
3.372000
20
-1.321000
0
VERTEX
8
0
10
3.372000
20
-1.271000
0
VERTEX
8
0
10
3.172000
20
-1.271000
0
VERTEX
8
0
10
3.172000
20
-1.321000
0
SEQEND
8
0
0
POLYLINE
8
0
66
1
40
0.008000
41
0.008000
0
VERTEX
8
0
10
3.372000
20
-1.296000
0
VERTEX
8
0
10
3.422000
20
-1.296000
0
SEQEND
8
0
0
TEXT
8
12632256
10
3.197000
20
-1.261000
40
0.048000
41
1.041667
1
R39
0
POLYLINE
8
0
66
1
40
0.008000
41
0.008000
0
VERTEX
8
0
10
2.777000
20
-1.721000
0
VERTEX
8
0
10
3.077000
20
-1.721000
0
VERTEX
8
0
10
3.077000
20
-1.571000
0
VERTEX
8
0
10
2.777000
20
-1.571000
0
VERTEX
8
0
10
2.777000
20
-1.721000
0
SEQEND
8
0
0
POLYLINE
8
0
66
1
40
0.008000
41
0.008000
0
VERTEX
8
0
10
2.977000
20
-1.871000
0
VERTEX
8
0
10
2.877000
20
-1.871000
0
SEQEND
8
0
0
POLYLINE
8
0
66
1
40
0.008000
41
0.008000
0
VERTEX
8
0
10
2.833000
20
-1.941000
0
VERTEX
8
0
10
3.026000
20
-1.941000
0
VERTEX
8
0
10
3.026000
20
-1.720000
0
VERTEX
8
0
10
2.833000
20
-1.720000
0
VERTEX
8
0
10
2.833000
20
-1.941000
0
SEQEND
8
0
0
TEXT
8
12632256
10
2.852000
20
-1.561000
40
0.048000
41
1.041667
1
RV4
0
POLYLINE
8
0
66
1
40
0.008000
41
0.008000
0
VERTEX
8
0
10
2.096000
20
-1.226000
0
VERTEX
8
0
10
2.046000
20
-1.226000
0
SEQEND
8
0
0
POLYLINE
8
0
66
1
40
0.008000
41
0.008000
0
VERTEX
8
0
10
2.246000
20
-1.226000
0
VERTEX
8
0
10
2.196000
20
-1.226000
0
SEQEND
8
0
0
POLYLINE
8
0
66
1
40
0.008000
41
0.008000
0
VERTEX
8
0
10
2.146000
20
-1.176000
0
VERTEX
8
0
10
2.136000
20
-1.177000
0
VERTEX
8
0
10
2.126000
20
-1.180000
0
VERTEX
8
0
10
2.118000
20
-1.184000
0
VERTEX
8
0
10
2.110000
20
-1.190000
0
VERTEX
8
0
10
2.104000
20
-1.197000
0
VERTEX
8
0
10
2.100000
20
-1.206000
0
VERTEX
8
0
10
2.097000
20
-1.216000
0
VERTEX
8
0
10
2.096000
20
-1.226000
0
SEQEND
8
0
0
POLYLINE
8
0
66
1
40
0.008000
41
0.008000
0
VERTEX
8
0
10
2.146000
20
-1.176000
0
VERTEX
8
0
10
2.156000
20
-1.177000
0
VERTEX
8
0
10
2.166000
20
-1.180000
0
VERTEX
8
0
10
2.175000
20
-1.184000
0
VERTEX
8
0
10
2.182000
20
-1.190000
0
VERTEX
8
0
10
2.188000
20
-1.197000
0
VERTEX
8
0
10
2.192000
20
-1.206000
0
VERTEX
8
0
10
2.195000
20
-1.216000
0
VERTEX
8
0
10
2.196000
20
-1.226000
0
SEQEND
8
0
0
POLYLINE
8
0
66
1
40
0.008000
41
0.008000
0
VERTEX
8
0
10
2.246000
20
-1.226000
0
VERTEX
8
0
10
2.246000
20
-0.526000
0
VERTEX
8
0
10
2.046000
20
-0.526000
0
VERTEX
8
0
10
2.046000
20
-1.226000
0
SEQEND
8
0
0
TEXT
8
12632256
10
2.071000
20
-1.284000
40
0.048000
41
1.041667
1
U20
0
POLYLINE
8
0
66
1
40
0.008000
41
0.008000
0
VERTEX
8
0
10
3.261000
20
-1.096000
0
VERTEX
8
0
10
3.361000
20
-1.096000
0
VERTEX
8
0
10
3.361000
20
-0.796000
0
VERTEX
8
0
10
3.261000
20
-0.796000
0
VERTEX
8
0
10
3.261000
20
-1.096000
0
VERTEX
8
0
10
3.211000
20
-1.096000
0
VERTEX
8
0
10
3.211000
20
-0.796000
0
VERTEX
8
0
10
3.261000
20
-0.796000
0
SEQEND
8
0
0
POLYLINE
8
0
66
1
40
0.008000
41
0.008000
0
VERTEX
8
0
10
3.261000
20
-1.096000
0
VERTEX
8
0
10
3.211000
20
-1.046000
0
SEQEND
8
0
0
POLYLINE
8
0
66
1
40
0.008000
41
0.008000
0
VERTEX
8
0
10
3.261000
20
-1.046000
0
VERTEX
8
0
10
3.211000
20
-0.996000
0
SEQEND
8
0
0
POLYLINE
8
0
66
1
40
0.008000
41
0.008000
0
VERTEX
8
0
10
3.261000
20
-0.996000
0
VERTEX
8
0
10
3.211000
20
-0.946000
0
SEQEND
8
0
0
POLYLINE
8
0
66
1
40
0.008000
41
0.008000
0
VERTEX
8
0
10
3.261000
20
-0.946000
0
VERTEX
8
0
10
3.211000
20
-0.896000
0
SEQEND
8
0
0
POLYLINE
8
0
66
1
40
0.008000
41
0.008000
0
VERTEX
8
0
10
3.261000
20
-0.896000
0
VERTEX
8
0
10
3.211000
20
-0.846000
0
SEQEND
8
0
0
POLYLINE
8
0
66
1
40
0.008000
41
0.008000
0
VERTEX
8
0
10
3.261000
20
-0.846000
0
VERTEX
8
0
10
3.211000
20
-0.796000
0
SEQEND
8
0
0
TEXT
8
12632256
10
3.189000
20
-1.093000
40
0.048000
41
1.041667
50
90.000000
1
Q2
0
POLYLINE
8
0
66
1
40
0.008000
41
0.008000
0
VERTEX
8
0
10
3.500000
20
-1.093000
0
VERTEX
8
0
10
3.500000
20
-1.043000
0
SEQEND
8
0
0
POLYLINE
8
0
66
1
40
0.008000
41
0.008000
0
VERTEX
8
0
10
3.475000
20
-1.043000
0
VERTEX
8
0
10
3.525000
20
-1.043000
0
VERTEX
8
0
10
3.525000
20
-0.843000
0
VERTEX
8
0
10
3.475000
20
-0.843000
0
VERTEX
8
0
10
3.475000
20
-1.043000
0
SEQEND
8
0
0
POLYLINE
8
0
66
1
40
0.008000
41
0.008000
0
VERTEX
8
0
10
3.500000
20
-0.843000
0
VERTEX
8
0
10
3.500000
20
-0.793000
0
SEQEND
8
0
0
TEXT
8
12632256
10
3.454000
20
-1.059000
40
0.048000
41
1.041667
50
90.000000
1
R40
0
POLYLINE
8
0
66
1
40
0.008000
41
0.008000
0
VERTEX
8
0
10
2.608000
20
-0.578000
0
VERTEX
8
0
10
2.658000
20
-0.578000
0
SEQEND
8
0
0
POLYLINE
8
0
66
1
40
0.008000
41
0.008000
0
VERTEX
8
0
10
2.658000
20
-0.603000
0
VERTEX
8
0
10
2.858000
20
-0.603000
0
VERTEX
8
0
10
2.858000
20
-0.553000
0
VERTEX
8
0
10
2.658000
20
-0.553000
0
VERTEX
8
0
10
2.658000
20
-0.603000
0
SEQEND
8
0
0
POLYLINE
8
0
66
1
40
0.008000
41
0.008000
0
VERTEX
8
0
10
2.858000
20
-0.578000
0
VERTEX
8
0
10
2.908000
20
-0.578000
0
SEQEND
8
0
0
TEXT
8
12632256
10
2.683000
20
-0.543000
40
0.048000
41
1.041667
1
R41
0
POLYLINE
8
0
66
1
40
0.008000
41
0.008000
0
VERTEX
8
0
10
2.608000
20
-0.464000
0
VERTEX
8
0
10
2.658000
20
-0.464000
0
SEQEND
8
0
0
POLYLINE
8
0
66
1
40
0.008000
41
0.008000
0
VERTEX
8
0
10
2.658000
20
-0.489000
0
VERTEX
8
0
10
2.858000
20
-0.489000
0
VERTEX
8
0
10
2.858000
20
-0.439000
0
VERTEX
8
0
10
2.658000
20
-0.439000
0
VERTEX
8
0
10
2.658000
20
-0.489000
0
SEQEND
8
0
0
POLYLINE
8
0
66
1
40
0.008000
41
0.008000
0
VERTEX
8
0
10
2.858000
20
-0.464000
0
VERTEX
8
0
10
2.908000
20
-0.464000
0
SEQEND
8
0
0
TEXT
8
12632256
10
2.683000
20
-0.429000
40
0.048000
41
1.041667
1
R32
0
POLYLINE
8
0
66
1
40
0.008000
41
0.008000
0
VERTEX
8
0
10
2.781000
20
-0.990000
0
VERTEX
8
0
10
3.081000
20
-0.990000
0
VERTEX
8
0
10
3.081000
20
-0.840000
0
VERTEX
8
0
10
2.781000
20
-0.840000
0
VERTEX
8
0
10
2.781000
20
-0.990000
0
SEQEND
8
0
0
POLYLINE
8
0
66
1
40
0.008000
41
0.008000
0
VERTEX
8
0
10
2.981000
20
-1.140000
0
VERTEX
8
0
10
2.881000
20
-1.140000
0
SEQEND
8
0
0
POLYLINE
8
0
66
1
40
0.008000
41
0.008000
0
VERTEX
8
0
10
2.837000
20
-1.210000
0
VERTEX
8
0
10
3.030000
20
-1.210000
0
VERTEX
8
0
10
3.030000
20
-0.990000
0
VERTEX
8
0
10
2.837000
20
-0.990000
0
VERTEX
8
0
10
2.837000
20
-1.210000
0
SEQEND
8
0
0
TEXT
8
12632256
10
2.856000
20
-0.830000
40
0.048000
41
1.041667
1
RV5
0
POLYLINE
8
0
66
1
40
0.008000
41
0.008000
0
VERTEX
8
0
10
2.712000
20
-0.238000
0
VERTEX
8
0
10
2.812000
20
-0.238000
0
VERTEX
8
0
10
2.812000
20
0.061000
0
VERTEX
8
0
10
2.712000
20
0.061000
0
VERTEX
8
0
10
2.712000
20
-0.238000
0
VERTEX
8
0
10
2.662000
20
-0.238000
0
VERTEX
8
0
10
2.662000
20
0.061000
0
VERTEX
8
0
10
2.712000
20
0.061000
0
SEQEND
8
0
0
POLYLINE
8
0
66
1
40
0.008000
41
0.008000
0
VERTEX
8
0
10
2.712000
20
-0.238000
0
VERTEX
8
0
10
2.662000
20
-0.188000
0
SEQEND
8
0
0
POLYLINE
8
0
66
1
40
0.008000
41
0.008000
0
VERTEX
8
0
10
2.712000
20
-0.188000
0
VERTEX
8
0
10
2.662000
20
-0.138000
0
SEQEND
8
0
0
POLYLINE
8
0
66
1
40
0.008000
41
0.008000
0
VERTEX
8
0
10
2.712000
20
-0.138000
0
VERTEX
8
0
10
2.662000
20
-0.088000
0
SEQEND
8
0
0
POLYLINE
8
0
66
1
40
0.008000
41
0.008000
0
VERTEX
8
0
10
2.712000
20
-0.088000
0
VERTEX
8
0
10
2.662000
20
-0.038000
0
SEQEND
8
0
0
POLYLINE
8
0
66
1
40
0.008000
41
0.008000
0
VERTEX
8
0
10
2.712000
20
-0.038000
0
VERTEX
8
0
10
2.662000
20
0.011000
0
SEQEND
8
0
0
POLYLINE
8
0
66
1
40
0.008000
41
0.008000
0
VERTEX
8
0
10
2.712000
20
0.011000
0
VERTEX
8
0
10
2.662000
20
0.061000
0
SEQEND
8
0
0
TEXT
8
12632256
10
2.652000
20
-0.138000
40
0.048000
41
1.041667
50
90.000000
1
Q3
0
POLYLINE
8
0
66
1
40
0.008000
41
0.008000
0
VERTEX
8
0
10
2.945000
20
-0.306000
0
VERTEX
8
0
10
2.945000
20
-0.256000
0
SEQEND
8
0
0
POLYLINE
8
0
66
1
40
0.008000
41
0.008000
0
VERTEX
8
0
10
2.920000
20
-0.256000
0
VERTEX
8
0
10
2.970000
20
-0.256000
0
VERTEX
8
0
10
2.970000
20
-0.056000
0
VERTEX
8
0
10
2.920000
20
-0.056000
0
VERTEX
8
0
10
2.920000
20
-0.256000
0
SEQEND
8
0
0
POLYLINE
8
0
66
1
40
0.008000
41
0.008000
0
VERTEX
8
0
10
2.945000
20
-0.056000
0
VERTEX
8
0
10
2.945000
20
-0.006000
0
SEQEND
8
0
0
TEXT
8
12632256
10
2.910000
20
-0.231000
40
0.048000
41
1.041667
50
90.000000
1
R28
0
POLYLINE
8
0
66
1
40
0.008000
41
0.008000
0
VERTEX
8
0
10
2.605000
20
0.215000
0
VERTEX
8
0
10
2.655000
20
0.215000
0
SEQEND
8
0
0
POLYLINE
8
0
66
1
40
0.008000
41
0.008000
0
VERTEX
8
0
10
2.655000
20
0.190000
0
VERTEX
8
0
10
2.855000
20
0.190000
0
VERTEX
8
0
10
2.855000
20
0.240000
0
VERTEX
8
0
10
2.655000
20
0.240000
0
VERTEX
8
0
10
2.655000
20
0.190000
0
SEQEND
8
0
0
POLYLINE
8
0
66
1
40
0.008000
41
0.008000
0
VERTEX
8
0
10
2.855000
20
0.215000
0
VERTEX
8
0
10
2.905000
20
0.215000
0
SEQEND
8
0
0
TEXT
8
12632256
10
2.680000
20
0.250000
40
0.048000
41
1.041667
1
R31
0
POLYLINE
8
0
66
1
40
0.008000
41
0.008000
0
VERTEX
8
0
10
2.608000
20
0.369000
0
VERTEX
8
0
10
2.658000
20
0.369000
0
SEQEND
8
0
0
POLYLINE
8
0
66
1
40
0.008000
41
0.008000
0
VERTEX
8
0
10
2.658000
20
0.344000
0
VERTEX
8
0
10
2.858000
20
0.344000
0
VERTEX
8
0
10
2.858000
20
0.394000
0
VERTEX
8
0
10
2.658000
20
0.394000
0
VERTEX
8
0
10
2.658000
20
0.344000
0
SEQEND
8
0
0
POLYLINE
8
0
66
1
40
0.008000
41
0.008000
0
VERTEX
8
0
10
2.858000
20
0.369000
0
VERTEX
8
0
10
2.908000
20
0.369000
0
SEQEND
8
0
0
TEXT
8
12632256
10
2.683000
20
0.404000
40
0.048000
41
1.041667
1
R52
0
POLYLINE
8
0
66
1
40
0.008000
41
0.008000
0
VERTEX
8
0
10
2.232000
20
-0.111000
0
VERTEX
8
0
10
2.532000
20
-0.111000
0
VERTEX
8
0
10
2.532000
20
0.038000
0
VERTEX
8
0
10
2.232000
20
0.038000
0
VERTEX
8
0
10
2.232000
20
-0.111000
0
SEQEND
8
0
0
POLYLINE
8
0
66
1
40
0.008000
41
0.008000
0
VERTEX
8
0
10
2.432000
20
-0.261000
0
VERTEX
8
0
10
2.332000
20
-0.261000
0
SEQEND
8
0
0
POLYLINE
8
0
66
1
40
0.008000
41
0.008000
0
VERTEX
8
0
10
2.288000
20
-0.331000
0
VERTEX
8
0
10
2.481000
20
-0.331000
0
VERTEX
8
0
10
2.481000
20
-0.110000
0
VERTEX
8
0
10
2.288000
20
-0.110000
0
VERTEX
8
0
10
2.288000
20
-0.331000
0
SEQEND
8
0
0
TEXT
8
12632256
10
2.307000
20
0.048000
40
0.048000
41
1.041667
1
RV6
0
POLYLINE
8
0
66
1
40
0.008000
41
0.008000
0
VERTEX
8
0
10
3.144000
20
0.488000
0
VERTEX
8
0
10
3.544000
20
0.488000
0
SEQEND
8
0
0
POLYLINE
8
0
66
1
40
0.008000
41
0.008000
0
VERTEX
8
0
10
3.144000
20
2.088000
0
VERTEX
8
0
10
3.544000
20
2.088000
0
VERTEX
8
0
10
3.544000
20
0.488000
0
SEQEND
8
0
0
POLYLINE
8
0
66
1
40
0.008000
41
0.008000
0
VERTEX
8
0
10
3.144000
20
0.488000
0
VERTEX
8
0
10
3.144000
20
2.088000
0
SEQEND
8
0
0
TEXT
8
12632256
10
3.644000
20
1.196000
40
0.048000
41
1.041667
50
90.000000
1
J18
0
POLYLINE
8
0
66
1
40
0.008000
41
0.008000
0
VERTEX
8
0
10
2.543000
20
-2.007000
0
VERTEX
8
0
10
2.543000
20
-2.407000
0
SEQEND
8
0
0
POLYLINE
8
0
66
1
40
0.008000
41
0.008000
0
VERTEX
8
0
10
2.943000
20
-2.007000
0
VERTEX
8
0
10
2.943000
20
-2.407000
0
SEQEND
8
0
0
POLYLINE
8
0
66
1
40
0.008000
41
0.008000
0
VERTEX
8
0
10
2.543000
20
-2.407000
0
VERTEX
8
0
10
2.943000
20
-2.407000
0
SEQEND
8
0
0
POLYLINE
8
0
66
1
40
0.008000
41
0.008000
0
VERTEX
8
0
10
2.543000
20
-2.007000
0
VERTEX
8
0
10
2.943000
20
-2.007000
0
SEQEND
8
0
0
TEXT
8
12632256
10
2.409000
20
-2.384000
40
0.048000
41
1.041667
1
J4
0
POLYLINE
8
0
66
1
40
0.008000
41
0.008000
0
VERTEX
8
0
10
2.943000
20
-2.007000
0
VERTEX
8
0
10
2.943000
20
-2.407000
0
SEQEND
8
0
0
POLYLINE
8
0
66
1
40
0.008000
41
0.008000
0
VERTEX
8
0
10
3.343000
20
-2.007000
0
VERTEX
8
0
10
3.343000
20
-2.407000
0
SEQEND
8
0
0
POLYLINE
8
0
66
1
40
0.008000
41
0.008000
0
VERTEX
8
0
10
2.943000
20
-2.407000
0
VERTEX
8
0
10
3.343000
20
-2.407000
0
SEQEND
8
0
0
POLYLINE
8
0
66
1
40
0.008000
41
0.008000
0
VERTEX
8
0
10
2.943000
20
-2.007000
0
VERTEX
8
0
10
3.343000
20
-2.007000
0
SEQEND
8
0
0
TEXT
8
12632256
10
3.381000
20
-2.167000
40
0.048000
41
1.041667
1
J5
0
POLYLINE
8
0
66
1
40
0.008000
41
0.008000
0
VERTEX
8
0
10
1.441000
20
-1.173000
0
VERTEX
8
0
10
1.491000
20
-1.173000
0
SEQEND
8
0
0
POLYLINE
8
0
66
1
40
0.008000
41
0.008000
0
VERTEX
8
0
10
1.491000
20
-1.198000
0
VERTEX
8
0
10
1.691000
20
-1.198000
0
VERTEX
8
0
10
1.691000
20
-1.148000
0
VERTEX
8
0
10
1.491000
20
-1.148000
0
VERTEX
8
0
10
1.491000
20
-1.198000
0
SEQEND
8
0
0
POLYLINE
8
0
66
1
40
0.008000
41
0.008000
0
VERTEX
8
0
10
1.691000
20
-1.173000
0
VERTEX
8
0
10
1.741000
20
-1.173000
0
SEQEND
8
0
0
TEXT
8
12632256
10
1.541000
20
-1.138000
40
0.048000
41
1.041667
1
R6
0
POLYLINE
8
0
66
1
40
0.008000
41
0.008000
0
VERTEX
8
0
10
1.441000
20
-1.053000
0
VERTEX
8
0
10
1.491000
20
-1.053000
0
SEQEND
8
0
0
POLYLINE
8
0
66
1
40
0.008000
41
0.008000
0
VERTEX
8
0
10
1.491000
20
-1.078000
0
VERTEX
8
0
10
1.691000
20
-1.078000
0
VERTEX
8
0
10
1.691000
20
-1.028000
0
VERTEX
8
0
10
1.491000
20
-1.028000
0
VERTEX
8
0
10
1.491000
20
-1.078000
0
SEQEND
8
0
0
POLYLINE
8
0
66
1
40
0.008000
41
0.008000
0
VERTEX
8
0
10
1.691000
20
-1.053000
0
VERTEX
8
0
10
1.741000
20
-1.053000
0
SEQEND
8
0
0
TEXT
8
12632256
10
1.516000
20
-1.018000
40
0.048000
41
1.041667
1
R27
0
POLYLINE
8
0
66
1
40
0.008000
41
0.008000
0
VERTEX
8
0
10
-1.307000
20
-2.293000
0
VERTEX
8
0
10
-1.007000
20
-2.293000
0
VERTEX
8
0
10
-1.007000
20
-2.193000
0
VERTEX
8
0
10
-1.307000
20
-2.193000
0
VERTEX
8
0
10
-1.307000
20
-2.293000
0
SEQEND
8
0
0
POLYLINE
8
0
66
1
40
0.008000
41
0.008000
0
VERTEX
8
0
10
-1.007000
20
-2.293000
0
VERTEX
8
0
10
-1.007000
20
-2.343000
0
VERTEX
8
0
10
-1.307000
20
-2.343000
0
VERTEX
8
0
10
-1.307000
20
-2.293000
0
SEQEND
8
0
0
POLYLINE
8
0
66
1
40
0.008000
41
0.008000
0
VERTEX
8
0
10
-1.007000
20
-2.293000
0
VERTEX
8
0
10
-1.057000
20
-2.343000
0
SEQEND
8
0
0
POLYLINE
8
0
66
1
40
0.008000
41
0.008000
0
VERTEX
8
0
10
-1.057000
20
-2.293000
0
VERTEX
8
0
10
-1.107000
20
-2.343000
0
SEQEND
8
0
0
POLYLINE
8
0
66
1
40
0.008000
41
0.008000
0
VERTEX
8
0
10
-1.107000
20
-2.293000
0
VERTEX
8
0
10
-1.157000
20
-2.343000
0
SEQEND
8
0
0
POLYLINE
8
0
66
1
40
0.008000
41
0.008000
0
VERTEX
8
0
10
-1.157000
20
-2.293000
0
VERTEX
8
0
10
-1.207000
20
-2.343000
0
SEQEND
8
0
0
POLYLINE
8
0
66
1
40
0.008000
41
0.008000
0
VERTEX
8
0
10
-1.207000
20
-2.293000
0
VERTEX
8
0
10
-1.257000
20
-2.343000
0
SEQEND
8
0
0
POLYLINE
8
0
66
1
40
0.008000
41
0.008000
0
VERTEX
8
0
10
-1.257000
20
-2.293000
0
VERTEX
8
0
10
-1.307000
20
-2.343000
0
SEQEND
8
0
0
TEXT
8
12632256
10
-1.232000
20
-2.401000
40
0.048000
41
1.041667
1
U19
0
POLYLINE
8
0
66
1
40
0.008000
41
0.008000
0
VERTEX
8
0
10
-1.375000
20
-1.892000
0
VERTEX
8
0
10
-1.075000
20
-1.892000
0
VERTEX
8
0
10
-1.075000
20
-1.742000
0
VERTEX
8
0
10
-1.375000
20
-1.742000
0
VERTEX
8
0
10
-1.375000
20
-1.892000
0
SEQEND
8
0
0
POLYLINE
8
0
66
1
40
0.008000
41
0.008000
0
VERTEX
8
0
10
-1.175000
20
-2.042000
0
VERTEX
8
0
10
-1.275000
20
-2.042000
0
SEQEND
8
0
0
POLYLINE
8
0
66
1
40
0.008000
41
0.008000
0
VERTEX
8
0
10
-1.320000
20
-2.112000
0
VERTEX
8
0
10
-1.127000
20
-2.112000
0
VERTEX
8
0
10
-1.127000
20
-1.891000
0
VERTEX
8
0
10
-1.320000
20
-1.891000
0
VERTEX
8
0
10
-1.320000
20
-2.112000
0
SEQEND
8
0
0
TEXT
8
12632256
10
-1.300000
20
-1.732000
40
0.048000
41
1.041667
1
RV2
0
POLYLINE
8
0
66
1
40
0.008000
41
0.008000
0
VERTEX
8
0
10
-0.990000
20
-1.667000
0
VERTEX
8
0
10
-0.940000
20
-1.667000
0
SEQEND
8
0
0
POLYLINE
8
0
66
1
40
0.008000
41
0.008000
0
VERTEX
8
0
10
-0.940000
20
-1.692000
0
VERTEX
8
0
10
-0.740000
20
-1.692000
0
VERTEX
8
0
10
-0.740000
20
-1.642000
0
VERTEX
8
0
10
-0.940000
20
-1.642000
0
VERTEX
8
0
10
-0.940000
20
-1.692000
0
SEQEND
8
0
0
POLYLINE
8
0
66
1
40
0.008000
41
0.008000
0
VERTEX
8
0
10
-0.740000
20
-1.667000
0
VERTEX
8
0
10
-0.690000
20
-1.667000
0
SEQEND
8
0
0
TEXT
8
12632256
10
-0.915000
20
-1.632000
40
0.048000
41
1.041667
1
R44
0
CIRCLE
8
12632256
10
-0.005000
20
-1.537000
40
0.100000
0
POLYLINE
8
0
66
1
40
0.008000
41
0.008000
0
VERTEX
8
0
10
-0.080000
20
-1.487000
0
VERTEX
8
0
10
-0.030000
20
-1.487000
0
SEQEND
8
0
0
POLYLINE
8
0
66
1
40
0.008000
41
0.008000
0
VERTEX
8
0
10
-0.055000
20
-1.462000
0
VERTEX
8
0
10
-0.055000
20
-1.512000
0
SEQEND
8
0
0
TEXT
8
12632256
10
-0.080000
20
-1.427000
40
0.048000
41
1.041667
1
C35
0
POLYLINE
8
0
66
1
40
0.008000
41
0.008000
0
VERTEX
8
0
10
-3.421000
20
-0.192000
0
VERTEX
8
0
10
-3.421000
20
-0.242000
0
SEQEND
8
0
0
POLYLINE
8
0
66
1
40
0.008000
41
0.008000
0
VERTEX
8
0
10
-3.446000
20
-0.442000
0
VERTEX
8
0
10
-3.396000
20
-0.442000
0
VERTEX
8
0
10
-3.396000
20
-0.242000
0
VERTEX
8
0
10
-3.446000
20
-0.242000
0
VERTEX
8
0
10
-3.446000
20
-0.442000
0
SEQEND
8
0
0
POLYLINE
8
0
66
1
40
0.008000
41
0.008000
0
VERTEX
8
0
10
-3.421000
20
-0.442000
0
VERTEX
8
0
10
-3.421000
20
-0.492000
0
SEQEND
8
0
0
TEXT
8
12632256
10
-3.338000
20
-0.417000
40
0.048000
41
1.041667
50
90.000000
1
R24
0
CIRCLE
8
12632256
10
-3.356000
20
-0.772000
40
0.000000
0
CIRCLE
8
12632256
10
-3.356000
20
-0.772000
40
0.100000
0
POLYLINE
8
0
66
1
40
0.008000
41
0.008000
0
VERTEX
8
0
10
-3.481000
20
-0.672000
0
VERTEX
8
0
10
-3.431000
20
-0.672000
0
SEQEND
8
0
0
POLYLINE
8
0
66
1
40
0.008000
41
0.008000
0
VERTEX
8
0
10
-3.456000
20
-0.647000
0
VERTEX
8
0
10
-3.456000
20
-0.697000
0
SEQEND
8
0
0
TEXT
8
12632256
10
-3.419000
20
-0.637000
40
0.048000
41
1.041667
1
D2
0
POLYLINE
8
0
66
1
40
0.008000
41
0.008000
0
VERTEX
8
0
10
0.434000
20
0.232000
0
VERTEX
8
0
10
0.434000
20
0.182000
0
SEQEND
8
0
0
POLYLINE
8
0
66
1
40
0.008000
41
0.008000
0
VERTEX
8
0
10
0.409000
20
-0.017000
0
VERTEX
8
0
10
0.459000
20
-0.017000
0
VERTEX
8
0
10
0.459000
20
0.182000
0
VERTEX
8
0
10
0.409000
20
0.182000
0
VERTEX
8
0
10
0.409000
20
-0.017000
0
SEQEND
8
0
0
POLYLINE
8
0
66
1
40
0.008000
41
0.008000
0
VERTEX
8
0
10
0.434000
20
-0.017000
0
VERTEX
8
0
10
0.434000
20
-0.067000
0
SEQEND
8
0
0
TEXT
8
12632256
10
0.517000
20
0.007000
40
0.048000
41
1.041667
50
90.000000
1
R16
0
POLYLINE
8
0
66
1
40
0.008000
41
0.008000
0
VERTEX
8
0
10
2.173000
20
0.706000
0
VERTEX
8
0
10
2.173000
20
0.756000
0
SEQEND
8
0
0
POLYLINE
8
0
66
1
40
0.008000
41
0.008000
0
VERTEX
8
0
10
2.223000
20
0.806000
0
VERTEX
8
0
10
2.222000
20
0.816000
0
VERTEX
8
0
10
2.219000
20
0.826000
0
VERTEX
8
0
10
2.215000
20
0.834000
0
VERTEX
8
0
10
2.209000
20
0.842000
0
VERTEX
8
0
10
2.202000
20
0.848000
0
VERTEX
8
0
10
2.193000
20
0.852000
0
VERTEX
8
0
10
2.183000
20
0.855000
0
VERTEX
8
0
10
2.173000
20
0.856000
0
SEQEND
8
0
0
POLYLINE
8
0
66
1
40
0.008000
41
0.008000
0
VERTEX
8
0
10
2.223000
20
0.806000
0
VERTEX
8
0
10
2.222000
20
0.796000
0
VERTEX
8
0
10
2.219000
20
0.786000
0
VERTEX
8
0
10
2.215000
20
0.777000
0
VERTEX
8
0
10
2.209000
20
0.770000
0
VERTEX
8
0
10
2.202000
20
0.764000
0
VERTEX
8
0
10
2.193000
20
0.760000
0
VERTEX
8
0
10
2.183000
20
0.757000
0
VERTEX
8
0
10
2.173000
20
0.756000
0
SEQEND
8
0
0
POLYLINE
8
0
66
1
40
0.008000
41
0.008000
0
VERTEX
8
0
10
2.173000
20
0.856000
0
VERTEX
8
0
10
2.173000
20
0.906000
0
SEQEND
8
0
0
POLYLINE
8
0
66
1
40
0.008000
41
0.008000
0
VERTEX
8
0
10
2.473000
20
0.706000
0
VERTEX
8
0
10
2.473000
20
0.906000
0
SEQEND
8
0
0
POLYLINE
8
0
66
1
40
0.008000
41
0.008000
0
VERTEX
8
0
10
2.173000
20
0.706000
0
VERTEX
8
0
10
2.473000
20
0.706000
0
SEQEND
8
0
0
POLYLINE
8
0
66
1
40
0.008000
41
0.008000
0
VERTEX
8
0
10
2.173000
20
0.906000
0
VERTEX
8
0
10
2.473000
20
0.906000
0
SEQEND
8
0
0
TEXT
8
12632256
10
2.163000
20
0.731000
40
0.048000
41
1.041667
50
90.000000
1
U10
0
POLYLINE
8
0
66
1
40
0.008000
41
0.008000
0
VERTEX
8
0
10
2.173000
20
1.278000
0
VERTEX
8
0
10
2.473000
20
1.278000
0
VERTEX
8
0
10
2.473000
20
1.378000
0
VERTEX
8
0
10
2.173000
20
1.378000
0
VERTEX
8
0
10
2.173000
20
1.278000
0
SEQEND
8
0
0
POLYLINE
8
0
66
1
40
0.008000
41
0.008000
0
VERTEX
8
0
10
2.473000
20
1.278000
0
VERTEX
8
0
10
2.473000
20
1.228000
0
VERTEX
8
0
10
2.173000
20
1.228000
0
VERTEX
8
0
10
2.173000
20
1.278000
0
SEQEND
8
0
0
POLYLINE
8
0
66
1
40
0.008000
41
0.008000
0
VERTEX
8
0
10
2.473000
20
1.278000
0
VERTEX
8
0
10
2.423000
20
1.228000
0
SEQEND
8
0
0
POLYLINE
8
0
66
1
40
0.008000
41
0.008000
0
VERTEX
8
0
10
2.423000
20
1.278000
0
VERTEX
8
0
10
2.373000
20
1.228000
0
SEQEND
8
0
0
POLYLINE
8
0
66
1
40
0.008000
41
0.008000
0
VERTEX
8
0
10
2.373000
20
1.278000
0
VERTEX
8
0
10
2.323000
20
1.228000
0
SEQEND
8
0
0
POLYLINE
8
0
66
1
40
0.008000
41
0.008000
0
VERTEX
8
0
10
2.323000
20
1.278000
0
VERTEX
8
0
10
2.273000
20
1.228000
0
SEQEND
8
0
0
POLYLINE
8
0
66
1
40
0.008000
41
0.008000
0
VERTEX
8
0
10
2.273000
20
1.278000
0
VERTEX
8
0
10
2.223000
20
1.228000
0
SEQEND
8
0
0
POLYLINE
8
0
66
1
40
0.008000
41
0.008000
0
VERTEX
8
0
10
2.223000
20
1.278000
0
VERTEX
8
0
10
2.173000
20
1.228000
0
SEQEND
8
0
0
TEXT
8
12632256
10
2.248000
20
1.170000
40
0.048000
41
1.041667
1
U11
0
POLYLINE
8
0
66
1
40
0.008000
41
0.008000
0
VERTEX
8
0
10
2.608000
20
1.311000
0
VERTEX
8
0
10
2.608000
20
1.261000
0
SEQEND
8
0
0
POLYLINE
8
0
66
1
40
0.008000
41
0.008000
0
VERTEX
8
0
10
2.583000
20
1.061000
0
VERTEX
8
0
10
2.633000
20
1.061000
0
VERTEX
8
0
10
2.633000
20
1.261000
0
VERTEX
8
0
10
2.583000
20
1.261000
0
VERTEX
8
0
10
2.583000
20
1.061000
0
SEQEND
8
0
0
POLYLINE
8
0
66
1
40
0.008000
41
0.008000
0
VERTEX
8
0
10
2.608000
20
1.061000
0
VERTEX
8
0
10
2.608000
20
1.011000
0
SEQEND
8
0
0
TEXT
8
12632256
10
2.691000
20
1.086000
40
0.048000
41
1.041667
50
90.000000
1
R11
0
POLYLINE
8
0
66
1
40
0.008000
41
0.008000
0
VERTEX
8
0
10
1.973000
20
1.651000
0
VERTEX
8
0
10
2.673000
20
1.651000
0
VERTEX
8
0
10
2.673000
20
1.851000
0
VERTEX
8
0
10
1.973000
20
1.851000
0
VERTEX
8
0
10
1.973000
20
1.651000
0
SEQEND
8
0
0
TEXT
8
12632256
10
2.251000
20
1.582000
40
0.048000
41
1.041667
1
C17
0
POLYLINE
8
0
66
1
40
0.008000
41
0.008000
0
VERTEX
8
0
10
2.526000
20
1.541000
0
VERTEX
8
0
10
2.476000
20
1.541000
0
SEQEND
8
0
0
POLYLINE
8
0
66
1
40
0.008000
41
0.008000
0
VERTEX
8
0
10
2.176000
20
1.516000
0
VERTEX
8
0
10
2.476000
20
1.516000
0
VERTEX
8
0
10
2.476000
20
1.566000
0
VERTEX
8
0
10
2.176000
20
1.566000
0
VERTEX
8
0
10
2.176000
20
1.516000
0
SEQEND
8
0
0
POLYLINE
8
0
66
1
40
0.008000
41
0.008000
0
VERTEX
8
0
10
2.176000
20
1.541000
0
VERTEX
8
0
10
2.126000
20
1.541000
0
SEQEND
8
0
0
TEXT
8
12632256
10
2.251000
20
1.458000
40
0.048000
41
1.041667
1
R25
0
POLYLINE
8
0
66
1
40
0.008000
41
0.008000
0
VERTEX
8
0
10
2.023000
20
2.369000
0
VERTEX
8
0
10
2.023000
20
1.969000
0
SEQEND
8
0
0
POLYLINE
8
0
66
1
40
0.008000
41
0.008000
0
VERTEX
8
0
10
2.623000
20
2.369000
0
VERTEX
8
0
10
2.623000
20
1.969000
0
SEQEND
8
0
0
POLYLINE
8
0
66
1
40
0.008000
41
0.008000
0
VERTEX
8
0
10
2.023000
20
1.969000
0
VERTEX
8
0
10
2.623000
20
1.969000
0
SEQEND
8
0
0
POLYLINE
8
0
66
1
40
0.008000
41
0.008000
0
VERTEX
8
0
10
2.623000
20
2.369000
0
VERTEX
8
0
10
2.023000
20
2.369000
0
SEQEND
8
0
0
TEXT
8
12632256
10
2.248000
20
2.379000
40
0.048000
41
1.041667
1
J13
0
POLYLINE
8
0
66
1
40
0.008000
41
0.008000
0
VERTEX
8
0
10
0.321000
20
0.232000
0
VERTEX
8
0
10
0.321000
20
0.182000
0
SEQEND
8
0
0
POLYLINE
8
0
66
1
40
0.008000
41
0.008000
0
VERTEX
8
0
10
0.296000
20
-0.017000
0
VERTEX
8
0
10
0.346000
20
-0.017000
0
VERTEX
8
0
10
0.346000
20
0.182000
0
VERTEX
8
0
10
0.296000
20
0.182000
0
VERTEX
8
0
10
0.296000
20
-0.017000
0
SEQEND
8
0
0
POLYLINE
8
0
66
1
40
0.008000
41
0.008000
0
VERTEX
8
0
10
0.321000
20
-0.017000
0
VERTEX
8
0
10
0.321000
20
-0.067000
0
SEQEND
8
0
0
TEXT
8
12632256
10
0.404000
20
0.007000
40
0.048000
41
1.041667
50
90.000000
1
R12
0
POLYLINE
8
0
66
1
40
0.008000
41
0.008000
0
VERTEX
8
0
10
0.210000
20
0.232000
0
VERTEX
8
0
10
0.210000
20
0.182000
0
SEQEND
8
0
0
POLYLINE
8
0
66
1
40
0.008000
41
0.008000
0
VERTEX
8
0
10
0.185000
20
-0.017000
0
VERTEX
8
0
10
0.235000
20
-0.017000
0
VERTEX
8
0
10
0.235000
20
0.182000
0
VERTEX
8
0
10
0.185000
20
0.182000
0
VERTEX
8
0
10
0.185000
20
-0.017000
0
SEQEND
8
0
0
POLYLINE
8
0
66
1
40
0.008000
41
0.008000
0
VERTEX
8
0
10
0.210000
20
-0.017000
0
VERTEX
8
0
10
0.210000
20
-0.067000
0
SEQEND
8
0
0
TEXT
8
12632256
10
0.293000
20
0.007000
40
0.048000
41
1.041667
50
90.000000
1
R15
0
POLYLINE
8
0
66
1
40
0.008000
41
0.008000
0
VERTEX
8
0
10
-0.130000
20
0.232000
0
VERTEX
8
0
10
-0.130000
20
0.182000
0
SEQEND
8
0
0
POLYLINE
8
0
66
1
40
0.008000
41
0.008000
0
VERTEX
8
0
10
-0.155000
20
-0.017000
0
VERTEX
8
0
10
-0.105000
20
-0.017000
0
VERTEX
8
0
10
-0.105000
20
0.182000
0
VERTEX
8
0
10
-0.155000
20
0.182000
0
VERTEX
8
0
10
-0.155000
20
-0.017000
0
SEQEND
8
0
0
POLYLINE
8
0
66
1
40
0.008000
41
0.008000
0
VERTEX
8
0
10
-0.130000
20
-0.017000
0
VERTEX
8
0
10
-0.130000
20
-0.067000
0
SEQEND
8
0
0
TEXT
8
12632256
10
-0.047000
20
0.032000
40
0.048000
41
1.041667
50
90.000000
1
R3
0
POLYLINE
8
0
66
1
40
0.008000
41
0.008000
0
VERTEX
8
0
10
0.097000
20
0.232000
0
VERTEX
8
0
10
0.097000
20
0.182000
0
SEQEND
8
0
0
POLYLINE
8
0
66
1
40
0.008000
41
0.008000
0
VERTEX
8
0
10
0.072000
20
-0.017000
0
VERTEX
8
0
10
0.122000
20
-0.017000
0
VERTEX
8
0
10
0.122000
20
0.182000
0
VERTEX
8
0
10
0.072000
20
0.182000
0
VERTEX
8
0
10
0.072000
20
-0.017000
0
SEQEND
8
0
0
POLYLINE
8
0
66
1
40
0.008000
41
0.008000
0
VERTEX
8
0
10
0.097000
20
-0.017000
0
VERTEX
8
0
10
0.097000
20
-0.067000
0
SEQEND
8
0
0
TEXT
8
12632256
10
0.180000
20
0.007000
40
0.048000
41
1.041667
50
90.000000
1
R19
0
POLYLINE
8
0
66
1
40
0.008000
41
0.008000
0
VERTEX
8
0
10
-0.017000
20
0.232000
0
VERTEX
8
0
10
-0.017000
20
0.182000
0
SEQEND
8
0
0
POLYLINE
8
0
66
1
40
0.008000
41
0.008000
0
VERTEX
8
0
10
-0.042000
20
-0.017000
0
VERTEX
8
0
10
0.007000
20
-0.017000
0
VERTEX
8
0
10
0.007000
20
0.182000
0
VERTEX
8
0
10
-0.042000
20
0.182000
0
VERTEX
8
0
10
-0.042000
20
-0.017000
0
SEQEND
8
0
0
POLYLINE
8
0
66
1
40
0.008000
41
0.008000
0
VERTEX
8
0
10
-0.017000
20
-0.017000
0
VERTEX
8
0
10
-0.017000
20
-0.067000
0
SEQEND
8
0
0
TEXT
8
12632256
10
0.065000
20
0.007000
40
0.048000
41
1.041667
50
90.000000
1
R22
0
POLYLINE
8
0
66
1
40
0.008000
41
0.008000
0
VERTEX
8
0
10
1.405000
20
0.706000
0
VERTEX
8
0
10
1.405000
20
0.756000
0
SEQEND
8
0
0
POLYLINE
8
0
66
1
40
0.008000
41
0.008000
0
VERTEX
8
0
10
1.455000
20
0.806000
0
VERTEX
8
0
10
1.454000
20
0.816000
0
VERTEX
8
0
10
1.451000
20
0.826000
0
VERTEX
8
0
10
1.447000
20
0.834000
0
VERTEX
8
0
10
1.441000
20
0.842000
0
VERTEX
8
0
10
1.434000
20
0.848000
0
VERTEX
8
0
10
1.425000
20
0.852000
0
VERTEX
8
0
10
1.415000
20
0.855000
0
VERTEX
8
0
10
1.405000
20
0.856000
0
SEQEND
8
0
0
POLYLINE
8
0
66
1
40
0.008000
41
0.008000
0
VERTEX
8
0
10
1.455000
20
0.806000
0
VERTEX
8
0
10
1.454000
20
0.796000
0
VERTEX
8
0
10
1.451000
20
0.786000
0
VERTEX
8
0
10
1.447000
20
0.777000
0
VERTEX
8
0
10
1.441000
20
0.770000
0
VERTEX
8
0
10
1.434000
20
0.764000
0
VERTEX
8
0
10
1.425000
20
0.760000
0
VERTEX
8
0
10
1.415000
20
0.757000
0
VERTEX
8
0
10
1.405000
20
0.756000
0
SEQEND
8
0
0
POLYLINE
8
0
66
1
40
0.008000
41
0.008000
0
VERTEX
8
0
10
1.405000
20
0.856000
0
VERTEX
8
0
10
1.405000
20
0.906000
0
SEQEND
8
0
0
POLYLINE
8
0
66
1
40
0.008000
41
0.008000
0
VERTEX
8
0
10
1.705000
20
0.706000
0
VERTEX
8
0
10
1.705000
20
0.906000
0
SEQEND
8
0
0
POLYLINE
8
0
66
1
40
0.008000
41
0.008000
0
VERTEX
8
0
10
1.405000
20
0.706000
0
VERTEX
8
0
10
1.705000
20
0.706000
0
SEQEND
8
0
0
POLYLINE
8
0
66
1
40
0.008000
41
0.008000
0
VERTEX
8
0
10
1.405000
20
0.906000
0
VERTEX
8
0
10
1.705000
20
0.906000
0
SEQEND
8
0
0
TEXT
8
12632256
10
1.395000
20
0.756000
40
0.048000
41
1.041667
50
90.000000
1
U3
0
POLYLINE
8
0
66
1
40
0.008000
41
0.008000
0
VERTEX
8
0
10
1.205000
20
1.651000
0
VERTEX
8
0
10
1.905000
20
1.651000
0
VERTEX
8
0
10
1.905000
20
1.851000
0
VERTEX
8
0
10
1.205000
20
1.851000
0
VERTEX
8
0
10
1.205000
20
1.651000
0
SEQEND
8
0
0
TEXT
8
12632256
10
1.466000
20
1.598000
40
0.048000
41
1.041667
1
C12
0
POLYLINE
8
0
66
1
40
0.008000
41
0.008000
0
VERTEX
8
0
10
1.405000
20
1.278000
0
VERTEX
8
0
10
1.705000
20
1.278000
0
VERTEX
8
0
10
1.705000
20
1.378000
0
VERTEX
8
0
10
1.405000
20
1.378000
0
VERTEX
8
0
10
1.405000
20
1.278000
0
SEQEND
8
0
0
POLYLINE
8
0
66
1
40
0.008000
41
0.008000
0
VERTEX
8
0
10
1.705000
20
1.278000
0
VERTEX
8
0
10
1.705000
20
1.228000
0
VERTEX
8
0
10
1.405000
20
1.228000
0
VERTEX
8
0
10
1.405000
20
1.278000
0
SEQEND
8
0
0
POLYLINE
8
0
66
1
40
0.008000
41
0.008000
0
VERTEX
8
0
10
1.705000
20
1.278000
0
VERTEX
8
0
10
1.655000
20
1.228000
0
SEQEND
8
0
0
POLYLINE
8
0
66
1
40
0.008000
41
0.008000
0
VERTEX
8
0
10
1.655000
20
1.278000
0
VERTEX
8
0
10
1.605000
20
1.228000
0
SEQEND
8
0
0
POLYLINE
8
0
66
1
40
0.008000
41
0.008000
0
VERTEX
8
0
10
1.605000
20
1.278000
0
VERTEX
8
0
10
1.555000
20
1.228000
0
SEQEND
8
0
0
POLYLINE
8
0
66
1
40
0.008000
41
0.008000
0
VERTEX
8
0
10
1.555000
20
1.278000
0
VERTEX
8
0
10
1.505000
20
1.228000
0
SEQEND
8
0
0
POLYLINE
8
0
66
1
40
0.008000
41
0.008000
0
VERTEX
8
0
10
1.505000
20
1.278000
0
VERTEX
8
0
10
1.455000
20
1.228000
0
SEQEND
8
0
0
POLYLINE
8
0
66
1
40
0.008000
41
0.008000
0
VERTEX
8
0
10
1.455000
20
1.278000
0
VERTEX
8
0
10
1.405000
20
1.228000
0
SEQEND
8
0
0
TEXT
8
12632256
10
1.505000
20
1.170000
40
0.048000
41
1.041667
1
U4
0
POLYLINE
8
0
66
1
40
0.008000
41
0.008000
0
VERTEX
8
0
10
1.862000
20
1.317000
0
VERTEX
8
0
10
1.862000
20
1.267000
0
SEQEND
8
0
0
POLYLINE
8
0
66
1
40
0.008000
41
0.008000
0
VERTEX
8
0
10
1.837000
20
1.067000
0
VERTEX
8
0
10
1.887000
20
1.067000
0
VERTEX
8
0
10
1.887000
20
1.267000
0
VERTEX
8
0
10
1.837000
20
1.267000
0
VERTEX
8
0
10
1.837000
20
1.067000
0
SEQEND
8
0
0
POLYLINE
8
0
66
1
40
0.008000
41
0.008000
0
VERTEX
8
0
10
1.862000
20
1.067000
0
VERTEX
8
0
10
1.862000
20
1.017000
0
SEQEND
8
0
0
TEXT
8
12632256
10
1.945000
20
1.092000
40
0.048000
41
1.041667
50
90.000000
1
R10
0
POLYLINE
8
0
66
1
40
0.008000
41
0.008000
0
VERTEX
8
0
10
1.752000
20
1.552000
0
VERTEX
8
0
10
1.702000
20
1.552000
0
SEQEND
8
0
0
POLYLINE
8
0
66
1
40
0.008000
41
0.008000
0
VERTEX
8
0
10
1.402000
20
1.527000
0
VERTEX
8
0
10
1.702000
20
1.527000
0
VERTEX
8
0
10
1.702000
20
1.577000
0
VERTEX
8
0
10
1.402000
20
1.577000
0
VERTEX
8
0
10
1.402000
20
1.527000
0
SEQEND
8
0
0
POLYLINE
8
0
66
1
40
0.008000
41
0.008000
0
VERTEX
8
0
10
1.402000
20
1.552000
0
VERTEX
8
0
10
1.352000
20
1.552000
0
SEQEND
8
0
0
TEXT
8
12632256
10
1.477000
20
1.469000
40
0.048000
41
1.041667
1
R13
0
POLYLINE
8
0
66
1
40
0.008000
41
0.008000
0
VERTEX
8
0
10
1.255000
20
2.369000
0
VERTEX
8
0
10
1.255000
20
1.969000
0
SEQEND
8
0
0
POLYLINE
8
0
66
1
40
0.008000
41
0.008000
0
VERTEX
8
0
10
1.855000
20
2.369000
0
VERTEX
8
0
10
1.855000
20
1.969000
0
SEQEND
8
0
0
POLYLINE
8
0
66
1
40
0.008000
41
0.008000
0
VERTEX
8
0
10
1.255000
20
1.969000
0
VERTEX
8
0
10
1.855000
20
1.969000
0
SEQEND
8
0
0
POLYLINE
8
0
66
1
40
0.008000
41
0.008000
0
VERTEX
8
0
10
1.855000
20
2.369000
0
VERTEX
8
0
10
1.255000
20
2.369000
0
SEQEND
8
0
0
TEXT
8
12632256
10
1.505000
20
2.379000
40
0.048000
41
1.041667
1
J8
0
POLYLINE
8
0
66
1
40
0.008000
41
0.008000
0
VERTEX
8
0
10
0.629000
20
0.706000
0
VERTEX
8
0
10
0.629000
20
0.756000
0
SEQEND
8
0
0
POLYLINE
8
0
66
1
40
0.008000
41
0.008000
0
VERTEX
8
0
10
0.679000
20
0.806000
0
VERTEX
8
0
10
0.678000
20
0.816000
0
VERTEX
8
0
10
0.675000
20
0.826000
0
VERTEX
8
0
10
0.671000
20
0.834000
0
VERTEX
8
0
10
0.665000
20
0.842000
0
VERTEX
8
0
10
0.658000
20
0.848000
0
VERTEX
8
0
10
0.649000
20
0.852000
0
VERTEX
8
0
10
0.639000
20
0.855000
0
VERTEX
8
0
10
0.629000
20
0.856000
0
SEQEND
8
0
0
POLYLINE
8
0
66
1
40
0.008000
41
0.008000
0
VERTEX
8
0
10
0.679000
20
0.806000
0
VERTEX
8
0
10
0.678000
20
0.796000
0
VERTEX
8
0
10
0.675000
20
0.786000
0
VERTEX
8
0
10
0.671000
20
0.777000
0
VERTEX
8
0
10
0.665000
20
0.770000
0
VERTEX
8
0
10
0.658000
20
0.764000
0
VERTEX
8
0
10
0.649000
20
0.760000
0
VERTEX
8
0
10
0.639000
20
0.757000
0
VERTEX
8
0
10
0.629000
20
0.756000
0
SEQEND
8
0
0
POLYLINE
8
0
66
1
40
0.008000
41
0.008000
0
VERTEX
8
0
10
0.629000
20
0.856000
0
VERTEX
8
0
10
0.629000
20
0.906000
0
SEQEND
8
0
0
POLYLINE
8
0
66
1
40
0.008000
41
0.008000
0
VERTEX
8
0
10
0.929000
20
0.706000
0
VERTEX
8
0
10
0.929000
20
0.906000
0
SEQEND
8
0
0
POLYLINE
8
0
66
1
40
0.008000
41
0.008000
0
VERTEX
8
0
10
0.629000
20
0.706000
0
VERTEX
8
0
10
0.929000
20
0.706000
0
SEQEND
8
0
0
POLYLINE
8
0
66
1
40
0.008000
41
0.008000
0
VERTEX
8
0
10
0.629000
20
0.906000
0
VERTEX
8
0
10
0.929000
20
0.906000
0
SEQEND
8
0
0
TEXT
8
12632256
10
0.619000
20
0.756000
40
0.048000
41
1.041667
50
90.000000
1
U5
0
POLYLINE
8
0
66
1
40
0.008000
41
0.008000
0
VERTEX
8
0
10
0.429000
20
1.651000
0
VERTEX
8
0
10
1.129000
20
1.651000
0
VERTEX
8
0
10
1.129000
20
1.851000
0
VERTEX
8
0
10
0.429000
20
1.851000
0
VERTEX
8
0
10
0.429000
20
1.651000
0
SEQEND
8
0
0
TEXT
8
12632256
10
0.691000
20
1.582000
40
0.048000
41
1.041667
1
C13
0
POLYLINE
8
0
66
1
40
0.008000
41
0.008000
0
VERTEX
8
0
10
0.629000
20
1.278000
0
VERTEX
8
0
10
0.929000
20
1.278000
0
VERTEX
8
0
10
0.929000
20
1.378000
0
VERTEX
8
0
10
0.629000
20
1.378000
0
VERTEX
8
0
10
0.629000
20
1.278000
0
SEQEND
8
0
0
POLYLINE
8
0
66
1
40
0.008000
41
0.008000
0
VERTEX
8
0
10
0.929000
20
1.278000
0
VERTEX
8
0
10
0.929000
20
1.228000
0
VERTEX
8
0
10
0.629000
20
1.228000
0
VERTEX
8
0
10
0.629000
20
1.278000
0
SEQEND
8
0
0
POLYLINE
8
0
66
1
40
0.008000
41
0.008000
0
VERTEX
8
0
10
0.929000
20
1.278000
0
VERTEX
8
0
10
0.879000
20
1.228000
0
SEQEND
8
0
0
POLYLINE
8
0
66
1
40
0.008000
41
0.008000
0
VERTEX
8
0
10
0.879000
20
1.278000
0
VERTEX
8
0
10
0.829000
20
1.228000
0
SEQEND
8
0
0
POLYLINE
8
0
66
1
40
0.008000
41
0.008000
0
VERTEX
8
0
10
0.829000
20
1.278000
0
VERTEX
8
0
10
0.779000
20
1.228000
0
SEQEND
8
0
0
POLYLINE
8
0
66
1
40
0.008000
41
0.008000
0
VERTEX
8
0
10
0.779000
20
1.278000
0
VERTEX
8
0
10
0.729000
20
1.228000
0
SEQEND
8
0
0
POLYLINE
8
0
66
1
40
0.008000
41
0.008000
0
VERTEX
8
0
10
0.729000
20
1.278000
0
VERTEX
8
0
10
0.679000
20
1.228000
0
SEQEND
8
0
0
POLYLINE
8
0
66
1
40
0.008000
41
0.008000
0
VERTEX
8
0
10
0.679000
20
1.278000
0
VERTEX
8
0
10
0.629000
20
1.228000
0
SEQEND
8
0
0
TEXT
8
12632256
10
0.729000
20
1.170000
40
0.048000
41
1.041667
1
U6
0
POLYLINE
8
0
66
1
40
0.008000
41
0.008000
0
VERTEX
8
0
10
0.983000
20
1.544000
0
VERTEX
8
0
10
0.933000
20
1.544000
0
SEQEND
8
0
0
POLYLINE
8
0
66
1
40
0.008000
41
0.008000
0
VERTEX
8
0
10
0.633000
20
1.519000
0
VERTEX
8
0
10
0.933000
20
1.519000
0
VERTEX
8
0
10
0.933000
20
1.569000
0
VERTEX
8
0
10
0.633000
20
1.569000
0
VERTEX
8
0
10
0.633000
20
1.519000
0
SEQEND
8
0
0
POLYLINE
8
0
66
1
40
0.008000
41
0.008000
0
VERTEX
8
0
10
0.633000
20
1.544000
0
VERTEX
8
0
10
0.583000
20
1.544000
0
SEQEND
8
0
0
TEXT
8
12632256
10
0.708000
20
1.461000
40
0.048000
41
1.041667
1
R17
0
POLYLINE
8
0
66
1
40
0.008000
41
0.008000
0
VERTEX
8
0
10
1.071000
20
1.317000
0
VERTEX
8
0
10
1.071000
20
1.267000
0
SEQEND
8
0
0
POLYLINE
8
0
66
1
40
0.008000
41
0.008000
0
VERTEX
8
0
10
1.046000
20
1.067000
0
VERTEX
8
0
10
1.096000
20
1.067000
0
VERTEX
8
0
10
1.096000
20
1.267000
0
VERTEX
8
0
10
1.046000
20
1.267000
0
VERTEX
8
0
10
1.046000
20
1.067000
0
SEQEND
8
0
0
POLYLINE
8
0
66
1
40
0.008000
41
0.008000
0
VERTEX
8
0
10
1.071000
20
1.067000
0
VERTEX
8
0
10
1.071000
20
1.017000
0
SEQEND
8
0
0
TEXT
8
12632256
10
1.154000
20
1.092000
40
0.048000
41
1.041667
50
90.000000
1
R14
0
POLYLINE
8
0
66
1
40
0.008000
41
0.008000
0
VERTEX
8
0
10
3.158000
20
-0.515000
0
VERTEX
8
0
10
3.558000
20
-0.515000
0
SEQEND
8
0
0
POLYLINE
8
0
66
1
40
0.008000
41
0.008000
0
VERTEX
8
0
10
3.158000
20
0.284000
0
VERTEX
8
0
10
3.558000
20
0.284000
0
VERTEX
8
0
10
3.558000
20
-0.515000
0
SEQEND
8
0
0
POLYLINE
8
0
66
1
40
0.008000
41
0.008000
0
VERTEX
8
0
10
3.158000
20
-0.515000
0
VERTEX
8
0
10
3.158000
20
0.284000
0
SEQEND
8
0
0
TEXT
8
12632256
10
3.625000
20
-0.459000
40
0.048000
41
1.041667
50
90.000000
1
J6
0
POLYLINE
8
0
66
1
40
0.008000
41
0.008000
0
VERTEX
8
0
10
0.479000
20
2.369000
0
VERTEX
8
0
10
0.479000
20
1.969000
0
SEQEND
8
0
0
POLYLINE
8
0
66
1
40
0.008000
41
0.008000
0
VERTEX
8
0
10
1.079000
20
2.369000
0
VERTEX
8
0
10
1.079000
20
1.969000
0
SEQEND
8
0
0
POLYLINE
8
0
66
1
40
0.008000
41
0.008000
0
VERTEX
8
0
10
0.479000
20
1.969000
0
VERTEX
8
0
10
1.079000
20
1.969000
0
SEQEND
8
0
0
POLYLINE
8
0
66
1
40
0.008000
41
0.008000
0
VERTEX
8
0
10
1.079000
20
2.369000
0
VERTEX
8
0
10
0.479000
20
2.369000
0
SEQEND
8
0
0
TEXT
8
12632256
10
0.704000
20
2.379000
40
0.048000
41
1.041667
1
J10
0
POLYLINE
8
0
66
1
40
0.008000
41
0.008000
0
VERTEX
8
0
10
-0.127000
20
0.706000
0
VERTEX
8
0
10
-0.127000
20
0.756000
0
SEQEND
8
0
0
POLYLINE
8
0
66
1
40
0.008000
41
0.008000
0
VERTEX
8
0
10
-0.077000
20
0.806000
0
VERTEX
8
0
10
-0.078000
20
0.816000
0
VERTEX
8
0
10
-0.081000
20
0.826000
0
VERTEX
8
0
10
-0.085000
20
0.834000
0
VERTEX
8
0
10
-0.091000
20
0.842000
0
VERTEX
8
0
10
-0.098000
20
0.848000
0
VERTEX
8
0
10
-0.107000
20
0.852000
0
VERTEX
8
0
10
-0.117000
20
0.855000
0
VERTEX
8
0
10
-0.127000
20
0.856000
0
SEQEND
8
0
0
POLYLINE
8
0
66
1
40
0.008000
41
0.008000
0
VERTEX
8
0
10
-0.077000
20
0.806000
0
VERTEX
8
0
10
-0.078000
20
0.796000
0
VERTEX
8
0
10
-0.081000
20
0.786000
0
VERTEX
8
0
10
-0.085000
20
0.777000
0
VERTEX
8
0
10
-0.091000
20
0.770000
0
VERTEX
8
0
10
-0.098000
20
0.764000
0
VERTEX
8
0
10
-0.107000
20
0.760000
0
VERTEX
8
0
10
-0.117000
20
0.757000
0
VERTEX
8
0
10
-0.127000
20
0.756000
0
SEQEND
8
0
0
POLYLINE
8
0
66
1
40
0.008000
41
0.008000
0
VERTEX
8
0
10
-0.127000
20
0.856000
0
VERTEX
8
0
10
-0.127000
20
0.906000
0
SEQEND
8
0
0
POLYLINE
8
0
66
1
40
0.008000
41
0.008000
0
VERTEX
8
0
10
0.172000
20
0.706000
0
VERTEX
8
0
10
0.172000
20
0.906000
0
SEQEND
8
0
0
POLYLINE
8
0
66
1
40
0.008000
41
0.008000
0
VERTEX
8
0
10
-0.127000
20
0.706000
0
VERTEX
8
0
10
0.172000
20
0.706000
0
SEQEND
8
0
0
POLYLINE
8
0
66
1
40
0.008000
41
0.008000
0
VERTEX
8
0
10
-0.127000
20
0.906000
0
VERTEX
8
0
10
0.172000
20
0.906000
0
SEQEND
8
0
0
TEXT
8
12632256
10
-0.137000
20
0.756000
40
0.048000
41
1.041667
50
90.000000
1
U7
0
POLYLINE
8
0
66
1
40
0.008000
41
0.008000
0
VERTEX
8
0
10
-0.327000
20
1.651000
0
VERTEX
8
0
10
0.372000
20
1.651000
0
VERTEX
8
0
10
0.372000
20
1.851000
0
VERTEX
8
0
10
-0.327000
20
1.851000
0
VERTEX
8
0
10
-0.327000
20
1.651000
0
SEQEND
8
0
0
TEXT
8
12632256
10
-0.059000
20
1.589000
40
0.048000
41
1.041667
1
C14
0
POLYLINE
8
0
66
1
40
0.008000
41
0.008000
0
VERTEX
8
0
10
0.322000
20
1.314000
0
VERTEX
8
0
10
0.322000
20
1.264000
0
SEQEND
8
0
0
POLYLINE
8
0
66
1
40
0.008000
41
0.008000
0
VERTEX
8
0
10
0.297000
20
1.064000
0
VERTEX
8
0
10
0.347000
20
1.064000
0
VERTEX
8
0
10
0.347000
20
1.264000
0
VERTEX
8
0
10
0.297000
20
1.264000
0
VERTEX
8
0
10
0.297000
20
1.064000
0
SEQEND
8
0
0
POLYLINE
8
0
66
1
40
0.008000
41
0.008000
0
VERTEX
8
0
10
0.322000
20
1.064000
0
VERTEX
8
0
10
0.322000
20
1.014000
0
SEQEND
8
0
0
TEXT
8
12632256
10
0.405000
20
1.089000
40
0.048000
41
1.041667
50
90.000000
1
R18
0
POLYLINE
8
0
66
1
40
0.008000
41
0.008000
0
VERTEX
8
0
10
-0.127000
20
1.278000
0
VERTEX
8
0
10
0.172000
20
1.278000
0
VERTEX
8
0
10
0.172000
20
1.378000
0
VERTEX
8
0
10
-0.127000
20
1.378000
0
VERTEX
8
0
10
-0.127000
20
1.278000
0
SEQEND
8
0
0
POLYLINE
8
0
66
1
40
0.008000
41
0.008000
0
VERTEX
8
0
10
0.172000
20
1.278000
0
VERTEX
8
0
10
0.172000
20
1.228000
0
VERTEX
8
0
10
-0.127000
20
1.228000
0
VERTEX
8
0
10
-0.127000
20
1.278000
0
SEQEND
8
0
0
POLYLINE
8
0
66
1
40
0.008000
41
0.008000
0
VERTEX
8
0
10
0.172000
20
1.278000
0
VERTEX
8
0
10
0.122000
20
1.228000
0
SEQEND
8
0
0
POLYLINE
8
0
66
1
40
0.008000
41
0.008000
0
VERTEX
8
0
10
0.122000
20
1.278000
0
VERTEX
8
0
10
0.072000
20
1.228000
0
SEQEND
8
0
0
POLYLINE
8
0
66
1
40
0.008000
41
0.008000
0
VERTEX
8
0
10
0.072000
20
1.278000
0
VERTEX
8
0
10
0.022000
20
1.228000
0
SEQEND
8
0
0
POLYLINE
8
0
66
1
40
0.008000
41
0.008000
0
VERTEX
8
0
10
0.022000
20
1.278000
0
VERTEX
8
0
10
-0.027000
20
1.228000
0
SEQEND
8
0
0
POLYLINE
8
0
66
1
40
0.008000
41
0.008000
0
VERTEX
8
0
10
-0.027000
20
1.278000
0
VERTEX
8
0
10
-0.077000
20
1.228000
0
SEQEND
8
0
0
POLYLINE
8
0
66
1
40
0.008000
41
0.008000
0
VERTEX
8
0
10
-0.077000
20
1.278000
0
VERTEX
8
0
10
-0.127000
20
1.228000
0
SEQEND
8
0
0
TEXT
8
12632256
10
-0.027000
20
1.170000
40
0.048000
41
1.041667
1
U8
0
POLYLINE
8
0
66
1
40
0.008000
41
0.008000
0
VERTEX
8
0
10
0.222000
20
1.558000
0
VERTEX
8
0
10
0.172000
20
1.558000
0
SEQEND
8
0
0
POLYLINE
8
0
66
1
40
0.008000
41
0.008000
0
VERTEX
8
0
10
-0.127000
20
1.533000
0
VERTEX
8
0
10
0.172000
20
1.533000
0
VERTEX
8
0
10
0.172000
20
1.583000
0
VERTEX
8
0
10
-0.127000
20
1.583000
0
VERTEX
8
0
10
-0.127000
20
1.533000
0
SEQEND
8
0
0
POLYLINE
8
0
66
1
40
0.008000
41
0.008000
0
VERTEX
8
0
10
-0.127000
20
1.558000
0
VERTEX
8
0
10
-0.177000
20
1.558000
0
SEQEND
8
0
0
TEXT
8
12632256
10
-0.052000
20
1.475000
40
0.048000
41
1.041667
1
R20
0
POLYLINE
8
0
66
1
40
0.008000
41
0.008000
0
VERTEX
8
0
10
-0.277000
20
2.369000
0
VERTEX
8
0
10
-0.277000
20
1.969000
0
SEQEND
8
0
0
POLYLINE
8
0
66
1
40
0.008000
41
0.008000
0
VERTEX
8
0
10
0.322000
20
2.369000
0
VERTEX
8
0
10
0.322000
20
1.969000
0
SEQEND
8
0
0
POLYLINE
8
0
66
1
40
0.008000
41
0.008000
0
VERTEX
8
0
10
-0.277000
20
1.969000
0
VERTEX
8
0
10
0.322000
20
1.969000
0
SEQEND
8
0
0
POLYLINE
8
0
66
1
40
0.008000
41
0.008000
0
VERTEX
8
0
10
0.322000
20
2.369000
0
VERTEX
8
0
10
-0.277000
20
2.369000
0
SEQEND
8
0
0
TEXT
8
12632256
10
-0.052000
20
2.379000
40
0.048000
41
1.041667
1
J11
0
POLYLINE
8
0
66
1
40
0.008000
41
0.008000
0
VERTEX
8
0
10
-1.099000
20
1.651000
0
VERTEX
8
0
10
-0.399000
20
1.651000
0
VERTEX
8
0
10
-0.399000
20
1.851000
0
VERTEX
8
0
10
-1.099000
20
1.851000
0
VERTEX
8
0
10
-1.099000
20
1.651000
0
SEQEND
8
0
0
TEXT
8
12632256
10
-0.845000
20
1.592000
40
0.048000
41
1.041667
1
C15
0
POLYLINE
8
0
66
1
40
0.008000
41
0.008000
0
VERTEX
8
0
10
-0.899000
20
0.706000
0
VERTEX
8
0
10
-0.899000
20
0.756000
0
SEQEND
8
0
0
POLYLINE
8
0
66
1
40
0.008000
41
0.008000
0
VERTEX
8
0
10
-0.849000
20
0.806000
0
VERTEX
8
0
10
-0.850000
20
0.816000
0
VERTEX
8
0
10
-0.853000
20
0.826000
0
VERTEX
8
0
10
-0.857000
20
0.834000
0
VERTEX
8
0
10
-0.863000
20
0.842000
0
VERTEX
8
0
10
-0.870000
20
0.848000
0
VERTEX
8
0
10
-0.879000
20
0.852000
0
VERTEX
8
0
10
-0.889000
20
0.855000
0
VERTEX
8
0
10
-0.899000
20
0.856000
0
SEQEND
8
0
0
POLYLINE
8
0
66
1
40
0.008000
41
0.008000
0
VERTEX
8
0
10
-0.849000
20
0.806000
0
VERTEX
8
0
10
-0.850000
20
0.796000
0
VERTEX
8
0
10
-0.853000
20
0.786000
0
VERTEX
8
0
10
-0.857000
20
0.777000
0
VERTEX
8
0
10
-0.863000
20
0.770000
0
VERTEX
8
0
10
-0.870000
20
0.764000
0
VERTEX
8
0
10
-0.879000
20
0.760000
0
VERTEX
8
0
10
-0.889000
20
0.757000
0
VERTEX
8
0
10
-0.899000
20
0.756000
0
SEQEND
8
0
0
POLYLINE
8
0
66
1
40
0.008000
41
0.008000
0
VERTEX
8
0
10
-0.899000
20
0.856000
0
VERTEX
8
0
10
-0.899000
20
0.906000
0
SEQEND
8
0
0
POLYLINE
8
0
66
1
40
0.008000
41
0.008000
0
VERTEX
8
0
10
-0.599000
20
0.706000
0
VERTEX
8
0
10
-0.599000
20
0.906000
0
SEQEND
8
0
0
POLYLINE
8
0
66
1
40
0.008000
41
0.008000
0
VERTEX
8
0
10
-0.899000
20
0.706000
0
VERTEX
8
0
10
-0.599000
20
0.706000
0
SEQEND
8
0
0
POLYLINE
8
0
66
1
40
0.008000
41
0.008000
0
VERTEX
8
0
10
-0.899000
20
0.906000
0
VERTEX
8
0
10
-0.599000
20
0.906000
0
SEQEND
8
0
0
TEXT
8
12632256
10
-0.909000
20
0.756000
40
0.048000
41
1.041667
50
90.000000
1
U9
0
POLYLINE
8
0
66
1
40
0.008000
41
0.008000
0
VERTEX
8
0
10
-0.899000
20
1.278000
0
VERTEX
8
0
10
-0.599000
20
1.278000
0
VERTEX
8
0
10
-0.599000
20
1.378000
0
VERTEX
8
0
10
-0.899000
20
1.378000
0
VERTEX
8
0
10
-0.899000
20
1.278000
0
SEQEND
8
0
0
POLYLINE
8
0
66
1
40
0.008000
41
0.008000
0
VERTEX
8
0
10
-0.599000
20
1.278000
0
VERTEX
8
0
10
-0.599000
20
1.228000
0
VERTEX
8
0
10
-0.899000
20
1.228000
0
VERTEX
8
0
10
-0.899000
20
1.278000
0
SEQEND
8
0
0
POLYLINE
8
0
66
1
40
0.008000
41
0.008000
0
VERTEX
8
0
10
-0.599000
20
1.278000
0
VERTEX
8
0
10
-0.649000
20
1.228000
0
SEQEND
8
0
0
POLYLINE
8
0
66
1
40
0.008000
41
0.008000
0
VERTEX
8
0
10
-0.649000
20
1.278000
0
VERTEX
8
0
10
-0.699000
20
1.228000
0
SEQEND
8
0
0
POLYLINE
8
0
66
1
40
0.008000
41
0.008000
0
VERTEX
8
0
10
-0.699000
20
1.278000
0
VERTEX
8
0
10
-0.749000
20
1.228000
0
SEQEND
8
0
0
POLYLINE
8
0
66
1
40
0.008000
41
0.008000
0
VERTEX
8
0
10
-0.749000
20
1.278000
0
VERTEX
8
0
10
-0.799000
20
1.228000
0
SEQEND
8
0
0
POLYLINE
8
0
66
1
40
0.008000
41
0.008000
0
VERTEX
8
0
10
-0.799000
20
1.278000
0
VERTEX
8
0
10
-0.849000
20
1.228000
0
SEQEND
8
0
0
POLYLINE
8
0
66
1
40
0.008000
41
0.008000
0
VERTEX
8
0
10
-0.849000
20
1.278000
0
VERTEX
8
0
10
-0.899000
20
1.228000
0
SEQEND
8
0
0
TEXT
8
12632256
10
-0.824000
20
1.170000
40
0.048000
41
1.041667
1
U12
0
POLYLINE
8
0
66
1
40
0.008000
41
0.008000
0
VERTEX
8
0
10
-0.451000
20
1.314000
0
VERTEX
8
0
10
-0.451000
20
1.264000
0
SEQEND
8
0
0
POLYLINE
8
0
66
1
40
0.008000
41
0.008000
0
VERTEX
8
0
10
-0.476000
20
1.064000
0
VERTEX
8
0
10
-0.426000
20
1.064000
0
VERTEX
8
0
10
-0.426000
20
1.264000
0
VERTEX
8
0
10
-0.476000
20
1.264000
0
VERTEX
8
0
10
-0.476000
20
1.064000
0
SEQEND
8
0
0
POLYLINE
8
0
66
1
40
0.008000
41
0.008000
0
VERTEX
8
0
10
-0.451000
20
1.064000
0
VERTEX
8
0
10
-0.451000
20
1.014000
0
SEQEND
8
0
0
TEXT
8
12632256
10
-0.364000
20
1.089000
40
0.048000
41
1.041667
50
90.000000
1
R21
0
POLYLINE
8
0
66
1
40
0.008000
41
0.008000
0
VERTEX
8
0
10
-0.549000
20
1.554000
0
VERTEX
8
0
10
-0.599000
20
1.554000
0
SEQEND
8
0
0
POLYLINE
8
0
66
1
40
0.008000
41
0.008000
0
VERTEX
8
0
10
-0.899000
20
1.529000
0
VERTEX
8
0
10
-0.599000
20
1.529000
0
VERTEX
8
0
10
-0.599000
20
1.579000
0
VERTEX
8
0
10
-0.899000
20
1.579000
0
VERTEX
8
0
10
-0.899000
20
1.529000
0
SEQEND
8
0
0
POLYLINE
8
0
66
1
40
0.008000
41
0.008000
0
VERTEX
8
0
10
-0.899000
20
1.554000
0
VERTEX
8
0
10
-0.949000
20
1.554000
0
SEQEND
8
0
0
TEXT
8
12632256
10
-0.824000
20
1.471000
40
0.048000
41
1.041667
1
R23
0
POLYLINE
8
0
66
1
40
0.008000
41
0.008000
0
VERTEX
8
0
10
-1.049000
20
2.369000
0
VERTEX
8
0
10
-1.049000
20
1.969000
0
SEQEND
8
0
0
POLYLINE
8
0
66
1
40
0.008000
41
0.008000
0
VERTEX
8
0
10
-0.449000
20
2.369000
0
VERTEX
8
0
10
-0.449000
20
1.969000
0
SEQEND
8
0
0
POLYLINE
8
0
66
1
40
0.008000
41
0.008000
0
VERTEX
8
0
10
-1.049000
20
1.969000
0
VERTEX
8
0
10
-0.449000
20
1.969000
0
SEQEND
8
0
0
POLYLINE
8
0
66
1
40
0.008000
41
0.008000
0
VERTEX
8
0
10
-0.449000
20
2.369000
0
VERTEX
8
0
10
-1.049000
20
2.369000
0
SEQEND
8
0
0
TEXT
8
12632256
10
-0.824000
20
2.379000
40
0.048000
41
1.041667
1
J12
0
POLYLINE
8
0
66
1
40
0.008000
41
0.008000
0
VERTEX
8
0
10
-1.706000
20
0.706000
0
VERTEX
8
0
10
-1.706000
20
0.756000
0
SEQEND
8
0
0
POLYLINE
8
0
66
1
40
0.008000
41
0.008000
0
VERTEX
8
0
10
-1.656000
20
0.806000
0
VERTEX
8
0
10
-1.657000
20
0.816000
0
VERTEX
8
0
10
-1.660000
20
0.826000
0
VERTEX
8
0
10
-1.664000
20
0.834000
0
VERTEX
8
0
10
-1.670000
20
0.842000
0
VERTEX
8
0
10
-1.677000
20
0.848000
0
VERTEX
8
0
10
-1.686000
20
0.852000
0
VERTEX
8
0
10
-1.696000
20
0.855000
0
VERTEX
8
0
10
-1.706000
20
0.856000
0
SEQEND
8
0
0
POLYLINE
8
0
66
1
40
0.008000
41
0.008000
0
VERTEX
8
0
10
-1.656000
20
0.806000
0
VERTEX
8
0
10
-1.657000
20
0.796000
0
VERTEX
8
0
10
-1.660000
20
0.786000
0
VERTEX
8
0
10
-1.664000
20
0.777000
0
VERTEX
8
0
10
-1.670000
20
0.770000
0
VERTEX
8
0
10
-1.677000
20
0.764000
0
VERTEX
8
0
10
-1.686000
20
0.760000
0
VERTEX
8
0
10
-1.696000
20
0.757000
0
VERTEX
8
0
10
-1.706000
20
0.756000
0
SEQEND
8
0
0
POLYLINE
8
0
66
1
40
0.008000
41
0.008000
0
VERTEX
8
0
10
-1.706000
20
0.856000
0
VERTEX
8
0
10
-1.706000
20
0.906000
0
SEQEND
8
0
0
POLYLINE
8
0
66
1
40
0.008000
41
0.008000
0
VERTEX
8
0
10
-1.406000
20
0.706000
0
VERTEX
8
0
10
-1.406000
20
0.906000
0
SEQEND
8
0
0
POLYLINE
8
0
66
1
40
0.008000
41
0.008000
0
VERTEX
8
0
10
-1.706000
20
0.706000
0
VERTEX
8
0
10
-1.406000
20
0.706000
0
SEQEND
8
0
0
POLYLINE
8
0
66
1
40
0.008000
41
0.008000
0
VERTEX
8
0
10
-1.706000
20
0.906000
0
VERTEX
8
0
10
-1.406000
20
0.906000
0
SEQEND
8
0
0
TEXT
8
12632256
10
-1.716000
20
0.731000
40
0.048000
41
1.041667
50
90.000000
1
U13
0
POLYLINE
8
0
66
1
40
0.008000
41
0.008000
0
VERTEX
8
0
10
-1.906000
20
1.651000
0
VERTEX
8
0
10
-1.206000
20
1.651000
0
VERTEX
8
0
10
-1.206000
20
1.851000
0
VERTEX
8
0
10
-1.906000
20
1.851000
0
VERTEX
8
0
10
-1.906000
20
1.651000
0
SEQEND
8
0
0
TEXT
8
12632256
10
-1.651000
20
1.562000
40
0.048000
41
1.041667
1
C23
0
POLYLINE
8
0
66
1
40
0.008000
41
0.008000
0
VERTEX
8
0
10
-1.706000
20
1.278000
0
VERTEX
8
0
10
-1.406000
20
1.278000
0
VERTEX
8
0
10
-1.406000
20
1.378000
0
VERTEX
8
0
10
-1.706000
20
1.378000
0
VERTEX
8
0
10
-1.706000
20
1.278000
0
SEQEND
8
0
0
POLYLINE
8
0
66
1
40
0.008000
41
0.008000
0
VERTEX
8
0
10
-1.406000
20
1.278000
0
VERTEX
8
0
10
-1.406000
20
1.228000
0
VERTEX
8
0
10
-1.706000
20
1.228000
0
VERTEX
8
0
10
-1.706000
20
1.278000
0
SEQEND
8
0
0
POLYLINE
8
0
66
1
40
0.008000
41
0.008000
0
VERTEX
8
0
10
-1.406000
20
1.278000
0
VERTEX
8
0
10
-1.456000
20
1.228000
0
SEQEND
8
0
0
POLYLINE
8
0
66
1
40
0.008000
41
0.008000
0
VERTEX
8
0
10
-1.456000
20
1.278000
0
VERTEX
8
0
10
-1.506000
20
1.228000
0
SEQEND
8
0
0
POLYLINE
8
0
66
1
40
0.008000
41
0.008000
0
VERTEX
8
0
10
-1.506000
20
1.278000
0
VERTEX
8
0
10
-1.556000
20
1.228000
0
SEQEND
8
0
0
POLYLINE
8
0
66
1
40
0.008000
41
0.008000
0
VERTEX
8
0
10
-1.556000
20
1.278000
0
VERTEX
8
0
10
-1.606000
20
1.228000
0
SEQEND
8
0
0
POLYLINE
8
0
66
1
40
0.008000
41
0.008000
0
VERTEX
8
0
10
-1.606000
20
1.278000
0
VERTEX
8
0
10
-1.656000
20
1.228000
0
SEQEND
8
0
0
POLYLINE
8
0
66
1
40
0.008000
41
0.008000
0
VERTEX
8
0
10
-1.656000
20
1.278000
0
VERTEX
8
0
10
-1.706000
20
1.228000
0
SEQEND
8
0
0
TEXT
8
12632256
10
-1.631000
20
1.170000
40
0.048000
41
1.041667
1
U14
0
POLYLINE
8
0
66
1
40
0.008000
41
0.008000
0
VERTEX
8
0
10
-1.209000
20
1.323000
0
VERTEX
8
0
10
-1.209000
20
1.273000
0
SEQEND
8
0
0
POLYLINE
8
0
66
1
40
0.008000
41
0.008000
0
VERTEX
8
0
10
-1.234000
20
1.073000
0
VERTEX
8
0
10
-1.184000
20
1.073000
0
VERTEX
8
0
10
-1.184000
20
1.273000
0
VERTEX
8
0
10
-1.234000
20
1.273000
0
VERTEX
8
0
10
-1.234000
20
1.073000
0
SEQEND
8
0
0
POLYLINE
8
0
66
1
40
0.008000
41
0.008000
0
VERTEX
8
0
10
-1.209000
20
1.073000
0
VERTEX
8
0
10
-1.209000
20
1.023000
0
SEQEND
8
0
0
TEXT
8
12632256
10
-1.126000
20
1.123000
40
0.048000
41
1.041667
50
90.000000
1
R2
0
POLYLINE
8
0
66
1
40
0.008000
41
0.008000
0
VERTEX
8
0
10
-1.356000
20
1.515000
0
VERTEX
8
0
10
-1.406000
20
1.515000
0
SEQEND
8
0
0
POLYLINE
8
0
66
1
40
0.008000
41
0.008000
0
VERTEX
8
0
10
-1.706000
20
1.490000
0
VERTEX
8
0
10
-1.406000
20
1.490000
0
VERTEX
8
0
10
-1.406000
20
1.540000
0
VERTEX
8
0
10
-1.706000
20
1.540000
0
VERTEX
8
0
10
-1.706000
20
1.490000
0
SEQEND
8
0
0
POLYLINE
8
0
66
1
40
0.008000
41
0.008000
0
VERTEX
8
0
10
-1.706000
20
1.515000
0
VERTEX
8
0
10
-1.756000
20
1.515000
0
SEQEND
8
0
0
TEXT
8
12632256
10
-1.606000
20
1.432000
40
0.048000
41
1.041667
1
R5
0
POLYLINE
8
0
66
1
40
0.008000
41
0.008000
0
VERTEX
8
0
10
-1.856000
20
2.369000
0
VERTEX
8
0
10
-1.856000
20
1.969000
0
SEQEND
8
0
0
POLYLINE
8
0
66
1
40
0.008000
41
0.008000
0
VERTEX
8
0
10
-1.256000
20
2.369000
0
VERTEX
8
0
10
-1.256000
20
1.969000
0
SEQEND
8
0
0
POLYLINE
8
0
66
1
40
0.008000
41
0.008000
0
VERTEX
8
0
10
-1.856000
20
1.969000
0
VERTEX
8
0
10
-1.256000
20
1.969000
0
SEQEND
8
0
0
POLYLINE
8
0
66
1
40
0.008000
41
0.008000
0
VERTEX
8
0
10
-1.256000
20
2.369000
0
VERTEX
8
0
10
-1.856000
20
2.369000
0
SEQEND
8
0
0
TEXT
8
12632256
10
-1.606000
20
2.379000
40
0.048000
41
1.041667
1
J3
0
POLYLINE
8
0
66
1
40
0.008000
41
0.008000
0
VERTEX
8
0
10
-2.715000
20
2.369000
0
VERTEX
8
0
10
-2.715000
20
1.969000
0
SEQEND
8
0
0
POLYLINE
8
0
66
1
40
0.008000
41
0.008000
0
VERTEX
8
0
10
-2.115000
20
2.369000
0
VERTEX
8
0
10
-2.115000
20
1.969000
0
SEQEND
8
0
0
POLYLINE
8
0
66
1
40
0.008000
41
0.008000
0
VERTEX
8
0
10
-2.715000
20
1.969000
0
VERTEX
8
0
10
-2.115000
20
1.969000
0
SEQEND
8
0
0
POLYLINE
8
0
66
1
40
0.008000
41
0.008000
0
VERTEX
8
0
10
-2.115000
20
2.369000
0
VERTEX
8
0
10
-2.715000
20
2.369000
0
SEQEND
8
0
0
TEXT
8
12632256
10
-2.490000
20
2.379000
40
0.048000
41
1.041667
1
J14
0
POLYLINE
8
0
66
1
40
0.008000
41
0.008000
0
VERTEX
8
0
10
1.405000
20
-0.705000
0
VERTEX
8
0
10
1.105000
20
-0.705000
0
VERTEX
8
0
10
1.055000
20
-0.655000
0
VERTEX
8
0
10
1.055000
20
-0.555000
0
VERTEX
8
0
10
1.105000
20
-0.505000
0
VERTEX
8
0
10
1.405000
20
-0.505000
0
VERTEX
8
0
10
1.455000
20
-0.555000
0
VERTEX
8
0
10
1.455000
20
-0.655000
0
VERTEX
8
0
10
1.405000
20
-0.705000
0
SEQEND
8
0
0
TEXT
8
12632256
10
1.205000
20
-0.763000
40
0.048000
41
1.041667
1
X2
0
POLYLINE
8
0
66
1
40
0.008000
41
0.008000
0
VERTEX
8
0
10
-3.091000
20
-0.650000
0
VERTEX
8
0
10
-3.081000
20
-0.653000
0
VERTEX
8
0
10
-3.071000
20
-0.661000
0
VERTEX
8
0
10
-3.063000
20
-0.675000
0
VERTEX
8
0
10
-3.056000
20
-0.693000
0
VERTEX
8
0
10
-3.050000
20
-0.715000
0
VERTEX
8
0
10
-3.045000
20
-0.741000
0
VERTEX
8
0
10
-3.042000
20
-0.769000
0
VERTEX
8
0
10
-3.041000
20
-0.800000
0
SEQEND
8
0
0
POLYLINE
8
0
66
1
40
0.008000
41
0.008000
0
VERTEX
8
0
10
-3.091000
20
-0.950000
0
VERTEX
8
0
10
-3.086000
20
-0.949000
0
VERTEX
8
0
10
-3.081000
20
-0.947000
0
VERTEX
8
0
10
-3.071000
20
-0.938000
0
VERTEX
8
0
10
-3.063000
20
-0.925000
0
VERTEX
8
0
10
-3.056000
20
-0.906000
0
VERTEX
8
0
10
-3.050000
20
-0.884000
0
VERTEX
8
0
10
-3.045000
20
-0.859000
0
VERTEX
8
0
10
-3.042000
20
-0.831000
0
VERTEX
8
0
10
-3.041000
20
-0.800000
0
SEQEND
8
0
0
POLYLINE
8
0
66
1
40
0.008000
41
0.008000
0
VERTEX
8
0
10
-3.091000
20
-0.950000
0
VERTEX
8
0
10
-3.096000
20
-0.949000
0
VERTEX
8
0
10
-3.101000
20
-0.947000
0
VERTEX
8
0
10
-3.111000
20
-0.938000
0
VERTEX
8
0
10
-3.119000
20
-0.925000
0
VERTEX
8
0
10
-3.126000
20
-0.906000
0
VERTEX
8
0
10
-3.132000
20
-0.884000
0
VERTEX
8
0
10
-3.137000
20
-0.859000
0
VERTEX
8
0
10
-3.140000
20
-0.831000
0
VERTEX
8
0
10
-3.141000
20
-0.800000
0
SEQEND
8
0
0
POLYLINE
8
0
66
1
40
0.008000
41
0.008000
0
VERTEX
8
0
10
-3.091000
20
-0.650000
0
VERTEX
8
0
10
-3.101000
20
-0.653000
0
VERTEX
8
0
10
-3.111000
20
-0.661000
0
VERTEX
8
0
10
-3.119000
20
-0.675000
0
VERTEX
8
0
10
-3.126000
20
-0.693000
0
VERTEX
8
0
10
-3.132000
20
-0.715000
0
VERTEX
8
0
10
-3.137000
20
-0.741000
0
VERTEX
8
0
10
-3.140000
20
-0.769000
0
VERTEX
8
0
10
-3.141000
20
-0.800000
0
SEQEND
8
0
0
TEXT
8
12632256
10
-2.983000
20
-0.850000
40
0.048000
41
1.041667
50
90.000000
1
C2
0
POLYLINE
8
0
66
1
40
0.008000
41
0.008000
0
VERTEX
8
0
10
-0.327000
20
-0.637000
0
VERTEX
8
0
10
-0.317000
20
-0.640000
0
VERTEX
8
0
10
-0.307000
20
-0.648000
0
VERTEX
8
0
10
-0.299000
20
-0.662000
0
VERTEX
8
0
10
-0.292000
20
-0.680000
0
VERTEX
8
0
10
-0.286000
20
-0.702000
0
VERTEX
8
0
10
-0.281000
20
-0.728000
0
VERTEX
8
0
10
-0.278000
20
-0.756000
0
VERTEX
8
0
10
-0.277000
20
-0.787000
0
SEQEND
8
0
0
POLYLINE
8
0
66
1
40
0.008000
41
0.008000
0
VERTEX
8
0
10
-0.327000
20
-0.937000
0
VERTEX
8
0
10
-0.322000
20
-0.936000
0
VERTEX
8
0
10
-0.317000
20
-0.934000
0
VERTEX
8
0
10
-0.307000
20
-0.925000
0
VERTEX
8
0
10
-0.299000
20
-0.912000
0
VERTEX
8
0
10
-0.292000
20
-0.894000
0
VERTEX
8
0
10
-0.286000
20
-0.871000
0
VERTEX
8
0
10
-0.281000
20
-0.846000
0
VERTEX
8
0
10
-0.278000
20
-0.818000
0
VERTEX
8
0
10
-0.277000
20
-0.787000
0
SEQEND
8
0
0
POLYLINE
8
0
66
1
40
0.008000
41
0.008000
0
VERTEX
8
0
10
-0.327000
20
-0.937000
0
VERTEX
8
0
10
-0.332000
20
-0.936000
0
VERTEX
8
0
10
-0.337000
20
-0.934000
0
VERTEX
8
0
10
-0.347000
20
-0.925000
0
VERTEX
8
0
10
-0.355000
20
-0.912000
0
VERTEX
8
0
10
-0.362000
20
-0.894000
0
VERTEX
8
0
10
-0.368000
20
-0.871000
0
VERTEX
8
0
10
-0.373000
20
-0.846000
0
VERTEX
8
0
10
-0.376000
20
-0.818000
0
VERTEX
8
0
10
-0.377000
20
-0.787000
0
SEQEND
8
0
0
POLYLINE
8
0
66
1
40
0.008000
41
0.008000
0
VERTEX
8
0
10
-0.327000
20
-0.637000
0
VERTEX
8
0
10
-0.337000
20
-0.640000
0
VERTEX
8
0
10
-0.347000
20
-0.648000
0
VERTEX
8
0
10
-0.355000
20
-0.662000
0
VERTEX
8
0
10
-0.362000
20
-0.680000
0
VERTEX
8
0
10
-0.368000
20
-0.702000
0
VERTEX
8
0
10
-0.373000
20
-0.728000
0
VERTEX
8
0
10
-0.376000
20
-0.756000
0
VERTEX
8
0
10
-0.377000
20
-0.787000
0
SEQEND
8
0
0
TEXT
8
12632256
10
-0.219000
20
-0.837000
40
0.048000
41
1.041667
50
90.000000
1
C3
0
POLYLINE
8
0
66
1
40
0.008000
41
0.008000
0
VERTEX
8
0
10
1.847000
20
-0.608000
0
VERTEX
8
0
10
1.844000
20
-0.618000
0
VERTEX
8
0
10
1.836000
20
-0.628000
0
VERTEX
8
0
10
1.822000
20
-0.636000
0
VERTEX
8
0
10
1.804000
20
-0.644000
0
VERTEX
8
0
10
1.782000
20
-0.650000
0
VERTEX
8
0
10
1.756000
20
-0.654000
0
VERTEX
8
0
10
1.728000
20
-0.657000
0
VERTEX
8
0
10
1.697000
20
-0.658000
0
SEQEND
8
0
0
POLYLINE
8
0
66
1
40
0.008000
41
0.008000
0
VERTEX
8
0
10
1.547000
20
-0.608000
0
VERTEX
8
0
10
1.550000
20
-0.618000
0
VERTEX
8
0
10
1.559000
20
-0.628000
0
VERTEX
8
0
10
1.572000
20
-0.636000
0
VERTEX
8
0
10
1.590000
20
-0.644000
0
VERTEX
8
0
10
1.612000
20
-0.650000
0
VERTEX
8
0
10
1.638000
20
-0.654000
0
VERTEX
8
0
10
1.666000
20
-0.657000
0
VERTEX
8
0
10
1.697000
20
-0.658000
0
SEQEND
8
0
0
POLYLINE
8
0
66
1
40
0.008000
41
0.008000
0
VERTEX
8
0
10
1.547000
20
-0.608000
0
VERTEX
8
0
10
1.550000
20
-0.598000
0
VERTEX
8
0
10
1.559000
20
-0.588000
0
VERTEX
8
0
10
1.572000
20
-0.580000
0
VERTEX
8
0
10
1.590000
20
-0.572000
0
VERTEX
8
0
10
1.612000
20
-0.566000
0
VERTEX
8
0
10
1.638000
20
-0.562000
0
VERTEX
8
0
10
1.666000
20
-0.559000
0
VERTEX
8
0
10
1.697000
20
-0.558000
0
SEQEND
8
0
0
POLYLINE
8
0
66
1
40
0.008000
41
0.008000
0
VERTEX
8
0
10
1.847000
20
-0.608000
0
VERTEX
8
0
10
1.844000
20
-0.598000
0
VERTEX
8
0
10
1.836000
20
-0.588000
0
VERTEX
8
0
10
1.822000
20
-0.580000
0
VERTEX
8
0
10
1.804000
20
-0.572000
0
VERTEX
8
0
10
1.782000
20
-0.566000
0
VERTEX
8
0
10
1.756000
20
-0.562000
0
VERTEX
8
0
10
1.728000
20
-0.559000
0
VERTEX
8
0
10
1.697000
20
-0.558000
0
SEQEND
8
0
0
TEXT
8
12632256
10
1.647000
20
-0.716000
40
0.048000
41
1.041667
1
C7
0
POLYLINE
8
0
66
1
40
0.008000
41
0.008000
0
VERTEX
8
0
10
1.215000
20
-0.883000
0
VERTEX
8
0
10
1.225000
20
-0.885000
0
VERTEX
8
0
10
1.235000
20
-0.891000
0
VERTEX
8
0
10
1.243000
20
-0.900000
0
VERTEX
8
0
10
1.250000
20
-0.912000
0
VERTEX
8
0
10
1.256000
20
-0.927000
0
VERTEX
8
0
10
1.261000
20
-0.944000
0
VERTEX
8
0
10
1.264000
20
-0.963000
0
VERTEX
8
0
10
1.265000
20
-0.983000
0
SEQEND
8
0
0
POLYLINE
8
0
66
1
40
0.008000
41
0.008000
0
VERTEX
8
0
10
1.215000
20
-1.083000
0
VERTEX
8
0
10
1.225000
20
-1.081000
0
VERTEX
8
0
10
1.235000
20
-1.075000
0
VERTEX
8
0
10
1.243000
20
-1.066000
0
VERTEX
8
0
10
1.250000
20
-1.054000
0
VERTEX
8
0
10
1.256000
20
-1.039000
0
VERTEX
8
0
10
1.261000
20
-1.022000
0
VERTEX
8
0
10
1.264000
20
-1.003000
0
VERTEX
8
0
10
1.265000
20
-0.983000
0
SEQEND
8
0
0
POLYLINE
8
0
66
1
40
0.008000
41
0.008000
0
VERTEX
8
0
10
1.215000
20
-0.883000
0
VERTEX
8
0
10
1.205000
20
-0.885000
0
VERTEX
8
0
10
1.195000
20
-0.891000
0
VERTEX
8
0
10
1.187000
20
-0.900000
0
VERTEX
8
0
10
1.180000
20
-0.912000
0
VERTEX
8
0
10
1.174000
20
-0.927000
0
VERTEX
8
0
10
1.169000
20
-0.944000
0
VERTEX
8
0
10
1.166000
20
-0.963000
0
VERTEX
8
0
10
1.165000
20
-0.983000
0
SEQEND
8
0
0
POLYLINE
8
0
66
1
40
0.008000
41
0.008000
0
VERTEX
8
0
10
1.215000
20
-1.083000
0
VERTEX
8
0
10
1.205000
20
-1.081000
0
VERTEX
8
0
10
1.195000
20
-1.075000
0
VERTEX
8
0
10
1.187000
20
-1.066000
0
VERTEX
8
0
10
1.180000
20
-1.054000
0
VERTEX
8
0
10
1.174000
20
-1.039000
0
VERTEX
8
0
10
1.169000
20
-1.022000
0
VERTEX
8
0
10
1.166000
20
-1.003000
0
VERTEX
8
0
10
1.165000
20
-0.983000
0
SEQEND
8
0
0
TEXT
8
12632256
10
1.323000
20
-1.058000
40
0.048000
41
1.041667
50
90.000000
1
C10
0
POLYLINE
8
0
66
1
40
0.008000
41
0.008000
0
VERTEX
8
0
10
1.104000
20
-0.880000
0
VERTEX
8
0
10
1.114000
20
-0.882000
0
VERTEX
8
0
10
1.124000
20
-0.888000
0
VERTEX
8
0
10
1.132000
20
-0.897000
0
VERTEX
8
0
10
1.140000
20
-0.909000
0
VERTEX
8
0
10
1.146000
20
-0.924000
0
VERTEX
8
0
10
1.150000
20
-0.941000
0
VERTEX
8
0
10
1.153000
20
-0.960000
0
VERTEX
8
0
10
1.154000
20
-0.980000
0
SEQEND
8
0
0
POLYLINE
8
0
66
1
40
0.008000
41
0.008000
0
VERTEX
8
0
10
1.104000
20
-1.080000
0
VERTEX
8
0
10
1.114000
20
-1.078000
0
VERTEX
8
0
10
1.124000
20
-1.072000
0
VERTEX
8
0
10
1.132000
20
-1.063000
0
VERTEX
8
0
10
1.140000
20
-1.051000
0
VERTEX
8
0
10
1.146000
20
-1.036000
0
VERTEX
8
0
10
1.150000
20
-1.019000
0
VERTEX
8
0
10
1.153000
20
-1.000000
0
VERTEX
8
0
10
1.154000
20
-0.980000
0
SEQEND
8
0
0
POLYLINE
8
0
66
1
40
0.008000
41
0.008000
0
VERTEX
8
0
10
1.104000
20
-0.880000
0
VERTEX
8
0
10
1.094000
20
-0.882000
0
VERTEX
8
0
10
1.084000
20
-0.888000
0
VERTEX
8
0
10
1.076000
20
-0.897000
0
VERTEX
8
0
10
1.068000
20
-0.909000
0
VERTEX
8
0
10
1.062000
20
-0.924000
0
VERTEX
8
0
10
1.058000
20
-0.941000
0
VERTEX
8
0
10
1.055000
20
-0.960000
0
VERTEX
8
0
10
1.054000
20
-0.980000
0
SEQEND
8
0
0
POLYLINE
8
0
66
1
40
0.008000
41
0.008000
0
VERTEX
8
0
10
1.104000
20
-1.080000
0
VERTEX
8
0
10
1.094000
20
-1.078000
0
VERTEX
8
0
10
1.084000
20
-1.072000
0
VERTEX
8
0
10
1.076000
20
-1.063000
0
VERTEX
8
0
10
1.068000
20
-1.051000
0
VERTEX
8
0
10
1.062000
20
-1.036000
0
VERTEX
8
0
10
1.058000
20
-1.019000
0
VERTEX
8
0
10
1.055000
20
-1.000000
0
VERTEX
8
0
10
1.054000
20
-0.980000
0
SEQEND
8
0
0
TEXT
8
12632256
10
1.037000
20
-1.057000
40
0.048000
41
1.041667
50
90.000000
1
C11
0
POLYLINE
8
0
66
1
40
0.008000
41
0.008000
0
VERTEX
8
0
10
0.938000
20
-0.624000
0
VERTEX
8
0
10
0.900000
20
-0.624000
0
SEQEND
8
0
0
POLYLINE
8
0
66
1
40
0.008000
41
0.008000
0
VERTEX
8
0
10
0.938000
20
-0.735000
0
VERTEX
8
0
10
0.899000
20
-0.735000
0
SEQEND
8
0
0
POLYLINE
8
0
66
1
40
0.008000
41
0.008000
0
VERTEX
8
0
10
0.858000
20
-0.609000
0
VERTEX
8
0
10
0.858000
20
-0.589000
0
SEQEND
8
0
0
POLYLINE
8
0
66
1
40
0.008000
41
0.008000
0
VERTEX
8
0
10
0.868000
20
-0.599000
0
VERTEX
8
0
10
0.848000
20
-0.599000
0
SEQEND
8
0
0
TEXT
8
12632256
10
0.994000
20
-0.579000
40
0.048000
41
1.041667
71
2
1
C16
0
POLYLINE
8
0
66
1
40
0.008000
41
0.008000
0
VERTEX
8
0
10
0.793000
20
-0.308000
0
VERTEX
8
0
10
0.755000
20
-0.308000
0
SEQEND
8
0
0
POLYLINE
8
0
66
1
40
0.008000
41
0.008000
0
VERTEX
8
0
10
0.793000
20
-0.419000
0
VERTEX
8
0
10
0.754000
20
-0.419000
0
SEQEND
8
0
0
POLYLINE
8
0
66
1
40
0.008000
41
0.008000
0
VERTEX
8
0
10
0.713000
20
-0.293000
0
VERTEX
8
0
10
0.713000
20
-0.273000
0
SEQEND
8
0
0
POLYLINE
8
0
66
1
40
0.008000
41
0.008000
0
VERTEX
8
0
10
0.723000
20
-0.283000
0
VERTEX
8
0
10
0.703000
20
-0.283000
0
SEQEND
8
0
0
TEXT
8
12632256
10
0.849000
20
-0.263000
40
0.048000
41
1.041667
71
2
1
C18
0
POLYLINE
8
0
66
1
40
0.008000
41
0.008000
0
VERTEX
8
0
10
-1.856000
20
-0.635000
0
VERTEX
8
0
10
-1.894000
20
-0.635000
0
SEQEND
8
0
0
POLYLINE
8
0
66
1
40
0.008000
41
0.008000
0
VERTEX
8
0
10
-1.856000
20
-0.746000
0
VERTEX
8
0
10
-1.895000
20
-0.746000
0
SEQEND
8
0
0
POLYLINE
8
0
66
1
40
0.008000
41
0.008000
0
VERTEX
8
0
10
-1.936000
20
-0.620000
0
VERTEX
8
0
10
-1.936000
20
-0.600000
0
SEQEND
8
0
0
POLYLINE
8
0
66
1
40
0.008000
41
0.008000
0
VERTEX
8
0
10
-1.926000
20
-0.610000
0
VERTEX
8
0
10
-1.946000
20
-0.610000
0
SEQEND
8
0
0
TEXT
8
12632256
10
-1.800000
20
-0.590000
40
0.048000
41
1.041667
71
2
1
C19
0
POLYLINE
8
0
66
1
40
0.008000
41
0.008000
0
VERTEX
8
0
10
-2.032000
20
-0.307000
0
VERTEX
8
0
10
-2.070000
20
-0.307000
0
SEQEND
8
0
0
POLYLINE
8
0
66
1
40
0.008000
41
0.008000
0
VERTEX
8
0
10
-2.032000
20
-0.418000
0
VERTEX
8
0
10
-2.071000
20
-0.418000
0
SEQEND
8
0
0
POLYLINE
8
0
66
1
40
0.008000
41
0.008000
0
VERTEX
8
0
10
-2.112000
20
-0.292000
0
VERTEX
8
0
10
-2.112000
20
-0.272000
0
SEQEND
8
0
0
POLYLINE
8
0
66
1
40
0.008000
41
0.008000
0
VERTEX
8
0
10
-2.102000
20
-0.282000
0
VERTEX
8
0
10
-2.122000
20
-0.282000
0
SEQEND
8
0
0
TEXT
8
12632256
10
-2.151000
20
-0.399000
40
0.048000
41
1.041667
71
2
1
C20
0
POLYLINE
8
0
66
1
40
0.008000
41
0.008000
0
VERTEX
8
0
10
-2.045000
20
-2.165000
0
VERTEX
8
0
10
-2.007000
20
-2.165000
0
SEQEND
8
0
0
POLYLINE
8
0
66
1
40
0.008000
41
0.008000
0
VERTEX
8
0
10
-2.045000
20
-2.054000
0
VERTEX
8
0
10
-2.006000
20
-2.054000
0
SEQEND
8
0
0
POLYLINE
8
0
66
1
40
0.008000
41
0.008000
0
VERTEX
8
0
10
-1.965000
20
-2.180000
0
VERTEX
8
0
10
-1.965000
20
-2.200000
0
SEQEND
8
0
0
POLYLINE
8
0
66
1
40
0.008000
41
0.008000
0
VERTEX
8
0
10
-1.975000
20
-2.190000
0
VERTEX
8
0
10
-1.955000
20
-2.190000
0
SEQEND
8
0
0
TEXT
8
12632256
10
-1.951000
20
-2.258000
40
0.048000
41
1.041667
71
2
1
C21
0
POLYLINE
8
0
66
1
40
0.008000
41
0.008000
0
VERTEX
8
0
10
1.461000
20
-0.096000
0
VERTEX
8
0
10
1.961000
20
-0.096000
0
VERTEX
8
0
10
1.961000
20
0.153000
0
VERTEX
8
0
10
1.461000
20
0.153000
0
VERTEX
8
0
10
1.461000
20
-0.096000
0
SEQEND
8
0
0
POLYLINE
8
0
66
1
40
0.008000
41
0.008000
0
VERTEX
8
0
10
1.461000
20
0.103000
0
VERTEX
8
0
10
1.961000
20
0.103000
0
SEQEND
8
0
0
TEXT
8
12632256
10
1.636000
20
0.163000
40
0.048000
41
1.041667
1
J17
0
POLYLINE
8
0
66
1
40
0.029000
41
0.029000
0
VERTEX
8
0
10
-3.444000
20
0.994000
0
VERTEX
8
0
10
-2.558000
20
0.994000
0
VERTEX
8
0
10
-2.558000
20
1.624000
0
VERTEX
8
0
10
-3.444000
20
1.624000
0
VERTEX
8
0
10
-3.444000
20
0.994000
0
SEQEND
8
0
0
TEXT
8
12632256
10
-3.286000
20
1.456000
40
0.072000
41
1.250000
1
Control
0
TEXT
8
12632256
10
-3.286000
20
1.318000
40
0.072000
41
1.250000
1
Digital
0
TEXT
8
12632256
10
-3.385000
20
1.180000
40
0.072000
41
1.250000
1
Autoclave
0
TEXT
8
12632256
10
-3.208000
20
1.082000
40
0.072000
41
1.250000
1
2016
0
TEXT
8
12632256
10
-3.092000
20
-1.102000
40
0.064000
41
1.093750
50
-90.000000
1
VIN
0
TEXT
8
12632256
10
-0.443000
20
-1.993000
40
0.064000
41
1.093750
1
A
0
TEXT
8
12632256
10
-0.651000
20
-1.985000
40
0.064000
41
1.093750
1
B
0
TEXT
8
12632256
10
-0.858000
20
-1.995000
40
0.064000
41
1.093750
1
B'
0
TEXT
8
12632256
10
-1.706000
20
-1.818000
40
0.064000
41
1.093750
1
LM317
0
TEXT
8
12632256
10
-1.671000
20
-1.899000
40
0.064000
41
1.093750
1
POT
0
TEXT
8
12632256
10
0.270000
20
-1.460000
40
0.064000
41
1.093750
1
CAMARA
0
TEXT
8
12632256
10
2.265000
20
-1.589000
40
0.064000
41
1.093750
1
PRE
0
TEXT
8
12632256
10
2.261000
20
-1.679000
40
0.064000
41
1.093750
1
CAMARA
0
TEXT
8
12632256
10
2.579000
20
-1.998000
40
0.064000
41
1.093750
1
+ GND
0
TEXT
8
12632256
10
2.997000
20
-2.004000
40
0.064000
41
1.093750
1
+ GND
0
TEXT
8
12632256
10
2.727000
20
-1.795000
40
0.064000
41
1.093750
1
L
0
TEXT
8
12632256
10
2.695000
20
-0.886000
40
0.064000
41
1.093750
1
M
0
TEXT
8
12632256
10
2.143000
20
-0.152000
40
0.064000
41
1.093750
1
H
0
TEXT
8
12632256
10
2.279000
20
-2.455000
40
0.064000
41
1.093750
1
SSR1
0
TEXT
8
12632256
10
3.363000
20
-2.105000
40
0.064000
41
1.093750
1
SSR2
0
TEXT
8
12632256
10
3.129000
20
-0.408000
40
0.064000
41
1.093750
50
90.000000
1
L M H GND
0
TEXT
8
12632256
10
3.096000
20
0.452000
40
0.048000
41
1.041667
50
90.000000
1
DOOR
0
TEXT
8
12632256
10
3.106000
20
0.719000
40
0.048000
41
1.041667
50
90.000000
1
STOP
0
TEXT
8
12632256
10
3.096000
20
0.962000
40
0.048000
41
1.041667
50
90.000000
1
TERM
0
TEXT
8
12632256
10
3.086000
20
1.190000
40
0.048000
41
1.041667
50
90.000000
1
PRES
0
TEXT
8
12632256
10
2.982000
20
1.413000
40
0.048000
41
1.041667
1
VCC
0
TEXT
8
12632256
10
2.962000
20
1.577000
40
0.048000
41
1.041667
1
VCC
0
TEXT
8
12632256
10
2.967000
20
1.765000
40
0.048000
41
1.041667
1
VCC
0
TEXT
8
12632256
10
2.962000
20
1.963000
40
0.048000
41
1.041667
1
VCC
0
TEXT
8
12632256
10
-2.765000
20
-0.973000
40
0.056000
41
1.071429
1
U D R L + + + +
0
TEXT
8
12632256
10
-3.544000
20
0.786000
40
0.048000
41
1.041667
1
CONTRAST
0
TEXT
8
12632256
10
-2.636000
20
1.859000
40
0.064000
41
1.093750
1
L1 L2 N
0
TEXT
8
12632256
10
2.114000
20
1.880000
40
0.048000
41
1.041667
1
DES N L2
0
TEXT
8
12632256
10
1.300000
20
1.883000
40
0.048000
41
1.041667
1
PASO N L2
0
TEXT
8
12632256
10
0.532000
20
1.880000
40
0.048000
41
1.041667
1
AGUA N L2
0
TEXT
8
12632256
10
-0.238000
20
1.894000
40
0.048000
41
1.041667
1
VACIO N L2
0
TEXT
8
12632256
10
-1.022000
20
1.886000
40
0.048000
41
1.041667
1
PUERTA N L2
0
TEXT
8
12632256
10
-1.881000
20
1.877000
40
0.048000
41
1.041667
1
BOMBA N L2
0
TEXT
8
12632256
10
-1.035000
20
0.615000
40
0.048000
41
1.041667
1
1
0
TEXT
8
12632256
10
-2.956000
20
0.611000
40
0.048000
41
1.041667
1
20
0
TEXT
8
12632256
10
-2.162000
20
0.598000
40
0.048000
41
1.041667
1
GLCD
0
TEXT
8
12632256
10
0.148000
20
-0.364000
40
0.048000
41
1.041667
1
HARDWARE
0
TEXT
8
12632256
10
-2.703000
20
-0.424000
40
0.048000
41
1.041667
1
GLCD
0
TEXT
8
12632256
10
-2.741000
20
-0.524000
40
0.048000
41
1.041667
1
CONTROLLER
0
TEXT
8
12632256
10
-2.707000
20
-0.650000
40
0.048000
41
1.041667
1
MASTER
0
TEXT
8
12632256
10
0.148000
20
-0.440000
40
0.048000
41
1.041667
1
CONTROLLER
0
TEXT
8
12632256
10
0.148000
20
-0.512000
40
0.048000
41
1.041667
1
SLAVE
0
TEXT
8
12632256
10
3.234000
20
-0.593000
40
0.048000
41
1.041667
1
LEVEL
0
TEXT
8
12632256
10
3.083000
20
2.127000
40
0.048000
41
1.041667
1
INPUTS
0
POLYLINE
8
0
66
1
40
0.000000
41
0.000000
0
VERTEX
8
0
10
-0.820000
20
0.349000
0
VERTEX
8
0
10
0.735000
20
0.349000
0
VERTEX
8
0
10
0.735000
20
0.627000
0
VERTEX
8
0
10
-0.820000
20
0.627000
0
VERTEX
8
0
10
-0.820000
20
0.349000
0
SEQEND
8
0
0
POLYLINE
8
0
66
1
40
0.008000
41
0.008000
0
VERTEX
8
0
10
-0.050000
20
-0.957000
0
VERTEX
8
0
10
-0.050000
20
-1.007000
0
SEQEND
8
0
0
POLYLINE
8
0
66
1
40
0.008000
41
0.008000
0
VERTEX
8
0
10
-0.075000
20
-1.207000
0
VERTEX
8
0
10
-0.025000
20
-1.207000
0
VERTEX
8
0
10
-0.025000
20
-1.007000
0
VERTEX
8
0
10
-0.075000
20
-1.007000
0
VERTEX
8
0
10
-0.075000
20
-1.207000
0
SEQEND
8
0
0
POLYLINE
8
0
66
1
40
0.008000
41
0.008000
0
VERTEX
8
0
10
-0.050000
20
-1.207000
0
VERTEX
8
0
10
-0.050000
20
-1.257000
0
SEQEND
8
0
0
TEXT
8
12632256
10
0.032000
20
-1.157000
40
0.048000
41
1.041667
50
90.000000
1
R4
0
POLYLINE
8
0
66
1
40
0.008000
41
0.008000
0
VERTEX
8
0
10
0.409000
20
-0.949000
0
VERTEX
8
0
10
0.409000
20
-0.999000
0
SEQEND
8
0
0
POLYLINE
8
0
66
1
40
0.008000
41
0.008000
0
VERTEX
8
0
10
0.384000
20
-1.199000
0
VERTEX
8
0
10
0.434000
20
-1.199000
0
VERTEX
8
0
10
0.434000
20
-0.999000
0
VERTEX
8
0
10
0.384000
20
-0.999000
0
VERTEX
8
0
10
0.384000
20
-1.199000
0
SEQEND
8
0
0
POLYLINE
8
0
66
1
40
0.008000
41
0.008000
0
VERTEX
8
0
10
0.409000
20
-1.199000
0
VERTEX
8
0
10
0.409000
20
-1.249000
0
SEQEND
8
0
0
TEXT
8
12632256
10
0.492000
20
-1.174000
40
0.048000
41
1.041667
50
90.000000
1
R26
0
POLYLINE
8
0
66
1
40
0.008000
41
0.008000
0
VERTEX
8
0
10
1.205000
20
-0.058000
0
VERTEX
8
0
10
1.205000
20
-0.008000
0
SEQEND
8
0
0
POLYLINE
8
0
66
1
40
0.008000
41
0.008000
0
VERTEX
8
0
10
1.180000
20
-0.008000
0
VERTEX
8
0
10
1.230000
20
-0.008000
0
VERTEX
8
0
10
1.230000
20
0.191000
0
VERTEX
8
0
10
1.180000
20
0.191000
0
VERTEX
8
0
10
1.180000
20
-0.008000
0
SEQEND
8
0
0
POLYLINE
8
0
66
1
40
0.008000
41
0.008000
0
VERTEX
8
0
10
1.205000
20
0.191000
0
VERTEX
8
0
10
1.205000
20
0.241000
0
SEQEND
8
0
0
TEXT
8
12632256
10
1.170000
20
0.016000
40
0.048000
41
1.041667
50
90.000000
1
R37
0
POLYLINE
8
0
66
1
40
0.008000
41
0.008000
0
VERTEX
8
0
10
1.101000
20
-0.056000
0
VERTEX
8
0
10
1.101000
20
-0.006000
0
SEQEND
8
0
0
POLYLINE
8
0
66
1
40
0.008000
41
0.008000
0
VERTEX
8
0
10
1.076000
20
-0.006000
0
VERTEX
8
0
10
1.126000
20
-0.006000
0
VERTEX
8
0
10
1.126000
20
0.193000
0
VERTEX
8
0
10
1.076000
20
0.193000
0
VERTEX
8
0
10
1.076000
20
-0.006000
0
SEQEND
8
0
0
POLYLINE
8
0
66
1
40
0.008000
41
0.008000
0
VERTEX
8
0
10
1.101000
20
0.193000
0
VERTEX
8
0
10
1.101000
20
0.243000
0
SEQEND
8
0
0
TEXT
8
12632256
10
1.066000
20
0.018000
40
0.048000
41
1.041667
50
90.000000
1
R42
0
POLYLINE
8
0
66
1
40
0.008000
41
0.008000
0
VERTEX
8
0
10
0.998000
20
-0.055000
0
VERTEX
8
0
10
0.998000
20
-0.005000
0
SEQEND
8
0
0
POLYLINE
8
0
66
1
40
0.008000
41
0.008000
0
VERTEX
8
0
10
0.973000
20
-0.005000
0
VERTEX
8
0
10
1.023000
20
-0.005000
0
VERTEX
8
0
10
1.023000
20
0.194000
0
VERTEX
8
0
10
0.973000
20
0.194000
0
VERTEX
8
0
10
0.973000
20
-0.005000
0
SEQEND
8
0
0
POLYLINE
8
0
66
1
40
0.008000
41
0.008000
0
VERTEX
8
0
10
0.998000
20
0.194000
0
VERTEX
8
0
10
0.998000
20
0.244000
0
SEQEND
8
0
0
TEXT
8
12632256
10
0.963000
20
0.019000
40
0.048000
41
1.041667
50
90.000000
1
R43
0
POLYLINE
8
0
66
1
40
0.008000
41
0.008000
0
VERTEX
8
0
10
0.896000
20
-0.056000
0
VERTEX
8
0
10
0.896000
20
-0.006000
0
SEQEND
8
0
0
POLYLINE
8
0
66
1
40
0.008000
41
0.008000
0
VERTEX
8
0
10
0.871000
20
-0.006000
0
VERTEX
8
0
10
0.921000
20
-0.006000
0
VERTEX
8
0
10
0.921000
20
0.193000
0
VERTEX
8
0
10
0.871000
20
0.193000
0
VERTEX
8
0
10
0.871000
20
-0.006000
0
SEQEND
8
0
0
POLYLINE
8
0
66
1
40
0.008000
41
0.008000
0
VERTEX
8
0
10
0.896000
20
0.193000
0
VERTEX
8
0
10
0.896000
20
0.243000
0
SEQEND
8
0
0
TEXT
8
12632256
10
0.855000
20
-0.120000
40
0.048000
41
1.041667
50
90.000000
1
R45
0
POLYLINE
8
0
66
1
40
0.008000
41
0.008000
0
VERTEX
8
0
10
-0.043000
20
-0.620000
0
VERTEX
8
0
10
-0.043000
20
-0.658000
0
SEQEND
8
0
0
POLYLINE
8
0
66
1
40
0.008000
41
0.008000
0
VERTEX
8
0
10
0.067000
20
-0.620000
0
VERTEX
8
0
10
0.067000
20
-0.659000
0
SEQEND
8
0
0
POLYLINE
8
0
66
1
40
0.008000
41
0.008000
0
VERTEX
8
0
10
-0.058000
20
-0.700000
0
VERTEX
8
0
10
-0.078000
20
-0.700000
0
SEQEND
8
0
0
POLYLINE
8
0
66
1
40
0.008000
41
0.008000
0
VERTEX
8
0
10
-0.068000
20
-0.690000
0
VERTEX
8
0
10
-0.068000
20
-0.710000
0
SEQEND
8
0
0
TEXT
8
12632256
10
-0.088000
20
-0.564000
40
0.048000
41
1.041667
50
90.000000
71
2
1
C22
0
POLYLINE
8
0
66
1
40
0.008000
41
0.008000
0
VERTEX
8
0
10
0.138000
20
-0.622000
0
VERTEX
8
0
10
0.138000
20
-0.660000
0
SEQEND
8
0
0
POLYLINE
8
0
66
1
40
0.008000
41
0.008000
0
VERTEX
8
0
10
0.249000
20
-0.622000
0
VERTEX
8
0
10
0.249000
20
-0.661000
0
SEQEND
8
0
0
POLYLINE
8
0
66
1
40
0.008000
41
0.008000
0
VERTEX
8
0
10
0.123000
20
-0.702000
0
VERTEX
8
0
10
0.103000
20
-0.702000
0
SEQEND
8
0
0
POLYLINE
8
0
66
1
40
0.008000
41
0.008000
0
VERTEX
8
0
10
0.113000
20
-0.692000
0
VERTEX
8
0
10
0.113000
20
-0.712000
0
SEQEND
8
0
0
TEXT
8
12632256
10
0.132000
20
-0.535000
40
0.048000
41
1.041667
50
90.000000
71
2
1
C24
0
POLYLINE
8
0
66
1
40
0.008000
41
0.008000
0
VERTEX
8
0
10
0.324000
20
-0.622000
0
VERTEX
8
0
10
0.324000
20
-0.660000
0
SEQEND
8
0
0
POLYLINE
8
0
66
1
40
0.008000
41
0.008000
0
VERTEX
8
0
10
0.435000
20
-0.622000
0
VERTEX
8
0
10
0.435000
20
-0.661000
0
SEQEND
8
0
0
POLYLINE
8
0
66
1
40
0.008000
41
0.008000
0
VERTEX
8
0
10
0.309000
20
-0.702000
0
VERTEX
8
0
10
0.289000
20
-0.702000
0
SEQEND
8
0
0
POLYLINE
8
0
66
1
40
0.008000
41
0.008000
0
VERTEX
8
0
10
0.299000
20
-0.692000
0
VERTEX
8
0
10
0.299000
20
-0.712000
0
SEQEND
8
0
0
TEXT
8
12632256
10
0.313000
20
-0.542000
40
0.048000
41
1.041667
50
90.000000
71
2
1
C25
0
ENDSEC
0
EOF

