  0
SECTION
  2
HEADER
  9
$ACADVER
  1
AC1009
  9
$INSUNITS
 70
     1
  0
ENDSEC
  0
SECTION
  2
TABLES
  0
TABLE
  2
LAYER
 70
     8
  0
LAYER
  2
0
 62
     7
 70
0
  6
CONTINUOUS
  0
LAYER
  2
1
 62
     1
 70
0
  6
CONTINUOUS
  0
LAYER
  2
2
 62
     2
 70
0
  6
CONTINUOUS
  0
LAYER
  2
3
 62
     3
 70
0
  6
CONTINUOUS
  0
LAYER
  2
4
 62
     4
 70
0
  6
CONTINUOUS
  0
LAYER
  2
5
 62
     5
 70
0
  6
CONTINUOUS
  0
LAYER
  2
6
 62
     6
 70
0
  6
CONTINUOUS
  0
LAYER
  2
7
 62
     7
 70
0
  6
CONTINUOUS
  0
ENDTAB
  0
TABLE
  2
STYLE
 70
     1
  0
STYLE
 70
     0
  2
STANDARD
  3
TXT
 40
0.00
 41
1.00
 42
1.00
 50
0.00
 71
     0
  0
ENDTAB
  0
ENDSEC
  0
SECTION
  2
BLOCKS
  0
BLOCK
  8
0
  2
EPAD
 70
0
 10
0.0
 20
0.0
  0
POLYLINE
  8
0
 66
1
 70
1
 40
0.5
 41
0.5
  0
VERTEX
  8
0
 10
-0.25
 20
0.0
 42
1.0
  0
VERTEX
  8
0
 10
0.25
 20
0.0
 42
1.0
  0
SEQEND
  8
0
  0
ENDBLK
  8
0
  0
BLOCK
  8
0
  2
RPAD
 70
0
 10
0.0
 20
0.0
  0
TRACE
  8
0
 10
-0.5
 20
-0.5
 11
-0.5
 21
0.5
 12
0.5
 22
-0.5
 13
0.5
 23
0.5
  0
ENDBLK
  8
0
  0
ENDSEC
0
SECTION
2
ENTITIES
0
INSERT
8
0
2
RPAD
10
-0.145858
20
0.390594
41
0.045000
42
0.057000
50
90.000000
0
INSERT
8
0
2
RPAD
10
-0.145858
20
0.319728
41
0.045000
42
0.057000
50
90.000000
0
INSERT
8
0
2
RPAD
10
-0.248220
20
0.390594
41
0.045000
42
0.057000
50
90.000000
0
INSERT
8
0
2
RPAD
10
-0.248220
20
0.319728
41
0.045000
42
0.057000
50
90.000000
0
INSERT
8
0
2
RPAD
10
0.649417
20
0.603193
41
0.043000
42
0.067000
50
0.000000
0
INSERT
8
0
2
RPAD
10
0.535244
20
0.603193
41
0.043000
42
0.067000
50
0.000000
0
INSERT
8
0
2
RPAD
10
-0.043496
20
0.032327
41
0.043000
42
0.067000
50
180.000000
0
INSERT
8
0
2
RPAD
10
0.070677
20
0.032327
41
0.043000
42
0.067000
50
180.000000
0
POLYLINE
8
0
66
1
40
0.008000
41
0.008000
0
VERTEX
8
0
10
-1.059244
20
-0.509698
0
VERTEX
8
0
10
1.059244
20
-0.509698
0
VERTEX
8
0
10
1.059244
20
0.828885
0
VERTEX
8
0
10
-1.059244
20
0.828885
0
VERTEX
8
0
10
-1.059244
20
-0.509698
0
SEQEND
8
0
0
POLYLINE
8
0
66
1
40
0.006000
41
0.006000
0
VERTEX
8
0
10
0.112606
20
-0.781122
0
VERTEX
8
0
10
0.137606
20
-0.831122
0
SEQEND
8
0
0
POLYLINE
8
0
66
1
40
0.006000
41
0.006000
0
VERTEX
8
0
10
0.162606
20
-0.781122
0
VERTEX
8
0
10
0.137606
20
-0.831122
0
SEQEND
8
0
0
POLYLINE
8
0
66
1
40
0.006000
41
0.006000
0
VERTEX
8
0
10
-0.161394
20
-0.781122
0
VERTEX
8
0
10
0.310606
20
-0.781122
0
VERTEX
8
0
10
0.310606
20
-0.131122
0
VERTEX
8
0
10
-0.161394
20
-0.131122
0
VERTEX
8
0
10
-0.161394
20
-0.781122
0
SEQEND
8
0
0
TEXT
8
0
10
-0.000394
20
-0.122122
40
0.048000
41
1.041667
1
J13
0
POLYLINE
8
0
66
1
40
0.008000
41
0.008000
0
VERTEX
8
0
10
0.674417
20
0.436264
0
VERTEX
8
0
10
-0.675583
20
0.436264
0
VERTEX
8
0
10
-0.675583
20
0.236264
0
VERTEX
8
0
10
0.674417
20
0.236264
0
SEQEND
8
0
0
POLYLINE
8
0
66
1
40
0.008000
41
0.008000
0
VERTEX
8
0
10
0.674417
20
0.436264
0
VERTEX
8
0
10
0.674417
20
0.386264
0
SEQEND
8
0
0
POLYLINE
8
0
66
1
40
0.008000
41
0.008000
0
VERTEX
8
0
10
0.674417
20
0.236264
0
VERTEX
8
0
10
0.674417
20
0.286264
0
SEQEND
8
0
0
POLYLINE
8
0
66
1
40
0.008000
41
0.008000
0
VERTEX
8
0
10
0.674417
20
0.386264
0
VERTEX
8
0
10
0.664194
20
0.385269
0
VERTEX
8
0
10
0.654739
20
0.382406
0
VERTEX
8
0
10
0.646237
20
0.377859
0
VERTEX
8
0
10
0.638870
20
0.371811
0
VERTEX
8
0
10
0.632822
20
0.364444
0
VERTEX
8
0
10
0.628275
20
0.355941
0
VERTEX
8
0
10
0.625412
20
0.346487
0
VERTEX
8
0
10
0.624417
20
0.336264
0
SEQEND
8
0
0
POLYLINE
8
0
66
1
40
0.008000
41
0.008000
0
VERTEX
8
0
10
0.674417
20
0.286264
0
VERTEX
8
0
10
0.664194
20
0.287259
0
VERTEX
8
0
10
0.654739
20
0.290121
0
VERTEX
8
0
10
0.646237
20
0.294668
0
VERTEX
8
0
10
0.638870
20
0.300717
0
VERTEX
8
0
10
0.632822
20
0.308084
0
VERTEX
8
0
10
0.628275
20
0.316586
0
VERTEX
8
0
10
0.625412
20
0.326040
0
VERTEX
8
0
10
0.624417
20
0.336264
0
SEQEND
8
0
0
CIRCLE
8
0
10
0.654417
20
0.420264
40
0.002828
0
TEXT
8
0
10
0.505717
20
0.341122
40
0.048000
41
1.041667
1
U1
0
CIRCLE
8
0
10
-0.595858
20
0.670122
40
0.100000
0
POLYLINE
8
0
66
1
40
0.008000
41
0.008000
0
VERTEX
8
0
10
-0.670858
20
0.720122
0
VERTEX
8
0
10
-0.620858
20
0.720122
0
SEQEND
8
0
0
POLYLINE
8
0
66
1
40
0.008000
41
0.008000
0
VERTEX
8
0
10
-0.645858
20
0.745122
0
VERTEX
8
0
10
-0.645858
20
0.695122
0
SEQEND
8
0
0
TEXT
8
0
10
-0.646220
20
0.780122
40
0.048000
41
1.041667
1
C1
0
POLYLINE
8
0
66
1
40
0.008000
41
0.008000
0
VERTEX
8
0
10
-0.029717
20
0.574059
0
VERTEX
8
0
10
-0.329717
20
0.574059
0
VERTEX
8
0
10
-0.379717
20
0.624059
0
VERTEX
8
0
10
-0.379717
20
0.724059
0
VERTEX
8
0
10
-0.329717
20
0.774059
0
VERTEX
8
0
10
-0.029717
20
0.774059
0
VERTEX
8
0
10
0.020283
20
0.724059
0
VERTEX
8
0
10
0.020283
20
0.624059
0
VERTEX
8
0
10
-0.029717
20
0.574059
0
SEQEND
8
0
0
TEXT
8
0
10
-0.229717
20
0.516059
40
0.048000
41
1.041667
1
X1
0
POLYLINE
8
0
66
1
40
0.007874
41
0.007874
0
VERTEX
8
0
10
-0.171449
20
0.355161
0
VERTEX
8
0
10
-0.120268
20
0.355161
0
SEQEND
8
0
0
TEXT
8
0
10
-0.043591
20
0.401224
40
0.048000
41
1.041667
50
90.000000
71
2
1
C8
0
POLYLINE
8
0
66
1
40
0.007874
41
0.007874
0
VERTEX
8
0
10
-0.273811
20
0.355161
0
VERTEX
8
0
10
-0.222630
20
0.355161
0
SEQEND
8
0
0
TEXT
8
0
10
-0.283748
20
0.405161
40
0.048000
41
1.041667
50
90.000000
71
2
1
C9
0
CIRCLE
8
0
10
0.247843
20
-0.005862
40
0.000000
0
CIRCLE
8
0
10
0.247843
20
-0.005862
40
0.100000
0
POLYLINE
8
0
66
1
40
0.008000
41
0.008000
0
VERTEX
8
0
10
0.347843
20
0.119138
0
VERTEX
8
0
10
0.347843
20
0.069138
0
SEQEND
8
0
0
POLYLINE
8
0
66
1
40
0.008000
41
0.008000
0
VERTEX
8
0
10
0.372843
20
0.094138
0
VERTEX
8
0
10
0.322843
20
0.094138
0
SEQEND
8
0
0
TEXT
8
0
10
0.430843
20
-0.043362
40
0.048000
41
1.041667
50
90.000000
1
D1
0
POLYLINE
8
0
66
1
40
0.007874
41
0.007874
0
VERTEX
8
0
10
0.612016
20
0.569728
0
VERTEX
8
0
10
0.572646
20
0.569728
0
SEQEND
8
0
0
POLYLINE
8
0
66
1
40
0.007874
41
0.007874
0
VERTEX
8
0
10
0.612016
20
0.636657
0
VERTEX
8
0
10
0.572646
20
0.636657
0
SEQEND
8
0
0
TEXT
8
0
10
0.642331
20
0.646594
40
0.048000
41
1.041667
71
2
1
R1
0
POLYLINE
8
0
66
1
40
0.007874
41
0.007874
0
VERTEX
8
0
10
-0.006094
20
0.065791
0
VERTEX
8
0
10
0.033276
20
0.065791
0
SEQEND
8
0
0
POLYLINE
8
0
66
1
40
0.007874
41
0.007874
0
VERTEX
8
0
10
-0.006094
20
-0.001138
0
VERTEX
8
0
10
0.033276
20
-0.001138
0
SEQEND
8
0
0
TEXT
8
0
10
0.088591
20
-0.059075
40
0.048000
41
1.041667
71
2
1
R24
0
TEXT
8
0
10
0.743913
20
-0.016807
40
0.056000
41
0.714286
50
90.000000
1
GND VCC SCL SDA
0
TEXT
8
0
10
-0.891474
20
-0.409991
40
0.064000
41
0.937500
50
90.000000
1
JUDAPIES
0
POLYLINE
8
0
66
1
40
0.008000
41
0.008000
0
VERTEX
8
0
10
0.754362
20
0.065083
0
VERTEX
8
0
10
1.004362
20
0.065083
0
VERTEX
8
0
10
1.004362
20
0.565083
0
VERTEX
8
0
10
0.754362
20
0.565083
0
VERTEX
8
0
10
0.754362
20
0.065083
0
SEQEND
8
0
0
POLYLINE
8
0
66
1
40
0.008000
41
0.008000
0
VERTEX
8
0
10
0.804362
20
0.065083
0
VERTEX
8
0
10
0.804362
20
0.565083
0
SEQEND
8
0
0
TEXT
8
0
10
0.872362
20
-0.068917
40
0.048000
41
1.041667
50
90.000000
1
J2
0
POLYLINE
8
0
66
1
40
0.008000
41
0.008000
0
VERTEX
8
0
10
-0.949402
20
0.242169
0
VERTEX
8
0
10
-0.849402
20
0.242169
0
VERTEX
8
0
10
-0.849402
20
0.742169
0
VERTEX
8
0
10
-0.949402
20
0.742169
0
VERTEX
8
0
10
-0.949402
20
0.242169
0
SEQEND
8
0
0
TEXT
8
0
10
-0.881055
20
0.100437
40
0.048000
41
1.041667
50
90.000000
1
J1
0
POLYLINE
8
0
66
1
40
0.008000
41
0.008000
0
VERTEX
8
0
10
-0.434835
20
-0.121509
0
VERTEX
8
0
10
-0.034835
20
-0.121509
0
VERTEX
8
0
10
-0.034835
20
0.128491
0
VERTEX
8
0
10
-0.434835
20
0.128491
0
VERTEX
8
0
10
-0.434835
20
-0.121509
0
SEQEND
8
0
0
POLYLINE
8
0
66
1
40
0.008000
41
0.008000
0
VERTEX
8
0
10
-0.434835
20
0.078491
0
VERTEX
8
0
10
-0.034835
20
0.078491
0
SEQEND
8
0
0
TEXT
8
0
10
-0.540740
20
0.071562
40
0.048000
41
1.041667
1
J3
0
TEXT
8
0
10
-0.980496
20
0.218648
40
0.056000
41
0.535714
50
90.000000
1
VCC GND CLK DAT RST
0
TEXT
8
0
10
-0.417512
20
-0.202619
40
0.056000
41
0.892857
1
TX RX
0
TEXT
8
0
10
-0.000189
20
-0.037265
40
0.056000
41
0.892857
1
GND
0
INSERT
8
0
2
EPAD
10
0.137606
20
-0.191122
41
0.065000
42
0.065000
0
INSERT
8
0
2
EPAD
10
0.137606
20
-0.191122
41
0.065000
42
0.065000
0
INSERT
8
0
2
EPAD
10
0.011606
20
-0.191122
41
0.065000
42
0.065000
0
INSERT
8
0
2
EPAD
10
0.011606
20
-0.191122
41
0.065000
42
0.065000
0
INSERT
8
0
2
EPAD
10
0.011606
20
-0.289122
41
0.065000
42
0.065000
0
INSERT
8
0
2
EPAD
10
0.011606
20
-0.289122
41
0.065000
42
0.065000
0
INSERT
8
0
2
EPAD
10
0.137606
20
-0.289122
41
0.065000
42
0.065000
0
INSERT
8
0
2
EPAD
10
0.137606
20
-0.289122
41
0.065000
42
0.065000
0
INSERT
8
0
2
EPAD
10
-0.162394
20
-0.377122
41
0.150000
42
0.150000
0
INSERT
8
0
2
EPAD
10
-0.162394
20
-0.377122
41
0.150000
42
0.150000
0
INSERT
8
0
2
EPAD
10
0.311606
20
-0.377122
41
0.150000
42
0.150000
0
INSERT
8
0
2
EPAD
10
0.311606
20
-0.377122
41
0.150000
42
0.150000
0
POLYLINE
8
0
66
1
70
1
40
0
41
0
0
VERTEX
8
0
10
0.695205
20
0.526264
0
VERTEX
8
0
10
0.695205
20
0.446264
0
VERTEX
8
0
10
0.695105
20
0.445241
0
VERTEX
8
0
10
0.694819
20
0.444296
0
VERTEX
8
0
10
0.694364
20
0.443446
0
VERTEX
8
0
10
0.693759
20
0.442709
0
VERTEX
8
0
10
0.693022
20
0.442104
0
VERTEX
8
0
10
0.692172
20
0.441650
0
VERTEX
8
0
10
0.691227
20
0.441363
0
VERTEX
8
0
10
0.690205
20
0.441264
0
VERTEX
8
0
10
0.610205
20
0.441264
0
VERTEX
8
0
10
0.609182
20
0.441363
0
VERTEX
8
0
10
0.608237
20
0.441650
0
VERTEX
8
0
10
0.607387
20
0.442104
0
VERTEX
8
0
10
0.606650
20
0.442709
0
VERTEX
8
0
10
0.606045
20
0.443446
0
VERTEX
8
0
10
0.605591
20
0.444296
0
VERTEX
8
0
10
0.605304
20
0.445241
0
VERTEX
8
0
10
0.605205
20
0.446264
0
VERTEX
8
0
10
0.605205
20
0.526264
0
VERTEX
8
0
10
0.605304
20
0.527286
0
VERTEX
8
0
10
0.605591
20
0.528231
0
VERTEX
8
0
10
0.606045
20
0.529082
0
VERTEX
8
0
10
0.606650
20
0.529819
0
VERTEX
8
0
10
0.607387
20
0.530423
0
VERTEX
8
0
10
0.608237
20
0.530878
0
VERTEX
8
0
10
0.609182
20
0.531164
0
VERTEX
8
0
10
0.610205
20
0.531264
0
VERTEX
8
0
10
0.690205
20
0.531264
0
VERTEX
8
0
10
0.691227
20
0.531164
0
VERTEX
8
0
10
0.692172
20
0.530878
0
VERTEX
8
0
10
0.693022
20
0.530423
0
VERTEX
8
0
10
0.693759
20
0.529819
0
VERTEX
8
0
10
0.694364
20
0.529082
0
VERTEX
8
0
10
0.694819
20
0.528231
0
VERTEX
8
0
10
0.695105
20
0.527286
0
VERTEX
8
0
10
0.695205
20
0.526264
0
SEQEND
8
0
0
INSERT
8
0
2
EPAD
10
0.550205
20
0.486264
41
0.100000
42
0.100000
0
INSERT
8
0
2
EPAD
10
0.450205
20
0.486264
41
0.100000
42
0.100000
0
INSERT
8
0
2
EPAD
10
0.350205
20
0.486264
41
0.100000
42
0.100000
0
INSERT
8
0
2
EPAD
10
0.250205
20
0.486264
41
0.100000
42
0.100000
0
INSERT
8
0
2
EPAD
10
0.150205
20
0.486264
41
0.100000
42
0.100000
0
INSERT
8
0
2
EPAD
10
0.050205
20
0.486264
41
0.100000
42
0.100000
0
INSERT
8
0
2
EPAD
10
-0.049795
20
0.486264
41
0.100000
42
0.100000
0
INSERT
8
0
2
EPAD
10
-0.149795
20
0.486264
41
0.100000
42
0.100000
0
INSERT
8
0
2
EPAD
10
-0.249795
20
0.486264
41
0.100000
42
0.100000
0
INSERT
8
0
2
EPAD
10
-0.349795
20
0.486264
41
0.100000
42
0.100000
0
INSERT
8
0
2
EPAD
10
-0.449795
20
0.486264
41
0.100000
42
0.100000
0
INSERT
8
0
2
EPAD
10
-0.549795
20
0.486264
41
0.100000
42
0.100000
0
INSERT
8
0
2
EPAD
10
-0.649795
20
0.486264
41
0.100000
42
0.100000
0
INSERT
8
0
2
EPAD
10
-0.649795
20
0.186264
41
0.100000
42
0.100000
0
INSERT
8
0
2
EPAD
10
-0.549795
20
0.186264
41
0.100000
42
0.100000
0
INSERT
8
0
2
EPAD
10
-0.449795
20
0.186264
41
0.100000
42
0.100000
0
INSERT
8
0
2
EPAD
10
-0.349795
20
0.186264
41
0.100000
42
0.100000
0
INSERT
8
0
2
EPAD
10
-0.249795
20
0.186264
41
0.100000
42
0.100000
0
INSERT
8
0
2
EPAD
10
-0.149795
20
0.186264
41
0.100000
42
0.100000
0
INSERT
8
0
2
EPAD
10
-0.049795
20
0.186264
41
0.100000
42
0.100000
0
INSERT
8
0
2
EPAD
10
0.050205
20
0.186264
41
0.100000
42
0.100000
0
INSERT
8
0
2
EPAD
10
0.150205
20
0.186264
41
0.100000
42
0.100000
0
INSERT
8
0
2
EPAD
10
0.250205
20
0.186264
41
0.100000
42
0.100000
0
INSERT
8
0
2
EPAD
10
0.350205
20
0.186264
41
0.100000
42
0.100000
0
INSERT
8
0
2
EPAD
10
0.450205
20
0.186264
41
0.100000
42
0.100000
0
INSERT
8
0
2
EPAD
10
0.550205
20
0.186264
41
0.100000
42
0.100000
0
INSERT
8
0
2
EPAD
10
0.649417
20
0.186264
41
0.100000
42
0.100000
0
INSERT
8
0
2
EPAD
10
-0.645858
20
0.670122
41
0.100000
42
0.100000
0
INSERT
8
0
2
EPAD
10
-0.545858
20
0.670122
41
0.100000
42
0.100000
0
INSERT
8
0
2
EPAD
10
-0.079717
20
0.674059
41
0.100000
42
0.100000
0
INSERT
8
0
2
EPAD
10
-0.279717
20
0.674059
41
0.100000
42
0.100000
0
POLYLINE
8
0
66
1
70
1
40
0
41
0
0
VERTEX
8
0
10
-0.174358
20
0.413094
0
VERTEX
8
0
10
-0.174358
20
0.368094
0
VERTEX
8
0
10
-0.117358
20
0.368094
0
VERTEX
8
0
10
-0.117358
20
0.413094
0
VERTEX
8
0
10
-0.174358
20
0.413094
0
SEQEND
8
0
0
POLYLINE
8
0
66
1
70
1
40
0
41
0
0
VERTEX
8
0
10
-0.174358
20
0.342228
0
VERTEX
8
0
10
-0.174358
20
0.297228
0
VERTEX
8
0
10
-0.117358
20
0.297228
0
VERTEX
8
0
10
-0.117358
20
0.342228
0
VERTEX
8
0
10
-0.174358
20
0.342228
0
SEQEND
8
0
0
POLYLINE
8
0
66
1
70
1
40
0
41
0
0
VERTEX
8
0
10
-0.276720
20
0.413094
0
VERTEX
8
0
10
-0.276720
20
0.368094
0
VERTEX
8
0
10
-0.219720
20
0.368094
0
VERTEX
8
0
10
-0.219720
20
0.413094
0
VERTEX
8
0
10
-0.276720
20
0.413094
0
SEQEND
8
0
0
POLYLINE
8
0
66
1
70
1
40
0
41
0
0
VERTEX
8
0
10
-0.276720
20
0.342228
0
VERTEX
8
0
10
-0.276720
20
0.297228
0
VERTEX
8
0
10
-0.219720
20
0.297228
0
VERTEX
8
0
10
-0.219720
20
0.342228
0
VERTEX
8
0
10
-0.276720
20
0.342228
0
SEQEND
8
0
0
POLYLINE
8
0
66
1
70
1
40
0
41
0
0
VERTEX
8
0
10
0.297843
20
0.084138
0
VERTEX
8
0
10
0.297843
20
0.004138
0
VERTEX
8
0
10
0.297792
20
0.003098
0
VERTEX
8
0
10
0.297644
20
0.002093
0
VERTEX
8
0
10
0.297402
20
0.001126
0
VERTEX
8
0
10
0.297071
20
0.000202
0
VERTEX
8
0
10
0.296656
20
-0.000674
0
VERTEX
8
0
10
0.296161
20
-0.001498
0
VERTEX
8
0
10
0.295592
20
-0.002266
0
VERTEX
8
0
10
0.294952
20
-0.002972
0
VERTEX
8
0
10
0.294246
20
-0.003612
0
VERTEX
8
0
10
0.293478
20
-0.004181
0
VERTEX
8
0
10
0.292654
20
-0.004676
0
VERTEX
8
0
10
0.291778
20
-0.005091
0
VERTEX
8
0
10
0.290854
20
-0.005421
0
VERTEX
8
0
10
0.289887
20
-0.005663
0
VERTEX
8
0
10
0.288882
20
-0.005812
0
VERTEX
8
0
10
0.287843
20
-0.005862
0
VERTEX
8
0
10
0.207843
20
-0.005862
0
VERTEX
8
0
10
0.206803
20
-0.005812
0
VERTEX
8
0
10
0.205798
20
-0.005663
0
VERTEX
8
0
10
0.204831
20
-0.005421
0
VERTEX
8
0
10
0.203907
20
-0.005091
0
VERTEX
8
0
10
0.203031
20
-0.004676
0
VERTEX
8
0
10
0.202207
20
-0.004181
0
VERTEX
8
0
10
0.201439
20
-0.003612
0
VERTEX
8
0
10
0.200733
20
-0.002972
0
VERTEX
8
0
10
0.200093
20
-0.002266
0
VERTEX
8
0
10
0.199524
20
-0.001498
0
VERTEX
8
0
10
0.199029
20
-0.000674
0
VERTEX
8
0
10
0.198614
20
0.000202
0
VERTEX
8
0
10
0.198283
20
0.001126
0
VERTEX
8
0
10
0.198041
20
0.002093
0
VERTEX
8
0
10
0.197893
20
0.003098
0
VERTEX
8
0
10
0.197843
20
0.004138
0
VERTEX
8
0
10
0.197843
20
0.084138
0
VERTEX
8
0
10
0.197893
20
0.085177
0
VERTEX
8
0
10
0.198041
20
0.086182
0
VERTEX
8
0
10
0.198283
20
0.087149
0
VERTEX
8
0
10
0.198614
20
0.088073
0
VERTEX
8
0
10
0.199029
20
0.088950
0
VERTEX
8
0
10
0.199524
20
0.089774
0
VERTEX
8
0
10
0.200093
20
0.090541
0
VERTEX
8
0
10
0.200733
20
0.091247
0
VERTEX
8
0
10
0.201439
20
0.091887
0
VERTEX
8
0
10
0.202207
20
0.092457
0
VERTEX
8
0
10
0.203031
20
0.092951
0
VERTEX
8
0
10
0.203907
20
0.093366
0
VERTEX
8
0
10
0.204831
20
0.093697
0
VERTEX
8
0
10
0.205798
20
0.093939
0
VERTEX
8
0
10
0.206803
20
0.094087
0
VERTEX
8
0
10
0.207843
20
0.094138
0
VERTEX
8
0
10
0.287843
20
0.094138
0
VERTEX
8
0
10
0.288882
20
0.094087
0
VERTEX
8
0
10
0.289887
20
0.093939
0
VERTEX
8
0
10
0.290854
20
0.093697
0
VERTEX
8
0
10
0.291778
20
0.093366
0
VERTEX
8
0
10
0.292654
20
0.092951
0
VERTEX
8
0
10
0.293478
20
0.092457
0
VERTEX
8
0
10
0.294246
20
0.091887
0
VERTEX
8
0
10
0.294952
20
0.091247
0
VERTEX
8
0
10
0.295592
20
0.090541
0
VERTEX
8
0
10
0.296161
20
0.089774
0
VERTEX
8
0
10
0.296656
20
0.088950
0
VERTEX
8
0
10
0.297071
20
0.088073
0
VERTEX
8
0
10
0.297402
20
0.087149
0
VERTEX
8
0
10
0.297644
20
0.086182
0
VERTEX
8
0
10
0.297792
20
0.085177
0
VERTEX
8
0
10
0.297843
20
0.084138
0
SEQEND
8
0
0
POLYLINE
8
0
66
1
70
1
40
0
41
0
0
VERTEX
8
0
10
0.297843
20
-0.015862
0
VERTEX
8
0
10
0.297843
20
-0.095862
0
VERTEX
8
0
10
0.297792
20
-0.096902
0
VERTEX
8
0
10
0.297644
20
-0.097907
0
VERTEX
8
0
10
0.297402
20
-0.098874
0
VERTEX
8
0
10
0.297071
20
-0.099798
0
VERTEX
8
0
10
0.296656
20
-0.100674
0
VERTEX
8
0
10
0.296161
20
-0.101498
0
VERTEX
8
0
10
0.295592
20
-0.102266
0
VERTEX
8
0
10
0.294952
20
-0.102972
0
VERTEX
8
0
10
0.294246
20
-0.103612
0
VERTEX
8
0
10
0.293478
20
-0.104181
0
VERTEX
8
0
10
0.292654
20
-0.104676
0
VERTEX
8
0
10
0.291778
20
-0.105091
0
VERTEX
8
0
10
0.290854
20
-0.105421
0
VERTEX
8
0
10
0.289887
20
-0.105663
0
VERTEX
8
0
10
0.288882
20
-0.105812
0
VERTEX
8
0
10
0.287843
20
-0.105862
0
VERTEX
8
0
10
0.207843
20
-0.105862
0
VERTEX
8
0
10
0.206803
20
-0.105812
0
VERTEX
8
0
10
0.205798
20
-0.105663
0
VERTEX
8
0
10
0.204831
20
-0.105421
0
VERTEX
8
0
10
0.203907
20
-0.105091
0
VERTEX
8
0
10
0.203031
20
-0.104676
0
VERTEX
8
0
10
0.202207
20
-0.104181
0
VERTEX
8
0
10
0.201439
20
-0.103612
0
VERTEX
8
0
10
0.200733
20
-0.102972
0
VERTEX
8
0
10
0.200093
20
-0.102266
0
VERTEX
8
0
10
0.199524
20
-0.101498
0
VERTEX
8
0
10
0.199029
20
-0.100674
0
VERTEX
8
0
10
0.198614
20
-0.099798
0
VERTEX
8
0
10
0.198283
20
-0.098874
0
VERTEX
8
0
10
0.198041
20
-0.097907
0
VERTEX
8
0
10
0.197893
20
-0.096902
0
VERTEX
8
0
10
0.197843
20
-0.095862
0
VERTEX
8
0
10
0.197843
20
-0.015862
0
VERTEX
8
0
10
0.197893
20
-0.014823
0
VERTEX
8
0
10
0.198041
20
-0.013818
0
VERTEX
8
0
10
0.198283
20
-0.012851
0
VERTEX
8
0
10
0.198614
20
-0.011927
0
VERTEX
8
0
10
0.199029
20
-0.011050
0
VERTEX
8
0
10
0.199524
20
-0.010226
0
VERTEX
8
0
10
0.200093
20
-0.009459
0
VERTEX
8
0
10
0.200733
20
-0.008753
0
VERTEX
8
0
10
0.201439
20
-0.008113
0
VERTEX
8
0
10
0.202207
20
-0.007543
0
VERTEX
8
0
10
0.203031
20
-0.007049
0
VERTEX
8
0
10
0.203907
20
-0.006634
0
VERTEX
8
0
10
0.204831
20
-0.006303
0
VERTEX
8
0
10
0.205798
20
-0.006061
0
VERTEX
8
0
10
0.206803
20
-0.005913
0
VERTEX
8
0
10
0.207843
20
-0.005862
0
VERTEX
8
0
10
0.287843
20
-0.005862
0
VERTEX
8
0
10
0.288882
20
-0.005913
0
VERTEX
8
0
10
0.289887
20
-0.006061
0
VERTEX
8
0
10
0.290854
20
-0.006303
0
VERTEX
8
0
10
0.291778
20
-0.006634
0
VERTEX
8
0
10
0.292654
20
-0.007049
0
VERTEX
8
0
10
0.293478
20
-0.007543
0
VERTEX
8
0
10
0.294246
20
-0.008113
0
VERTEX
8
0
10
0.294952
20
-0.008753
0
VERTEX
8
0
10
0.295592
20
-0.009459
0
VERTEX
8
0
10
0.296161
20
-0.010226
0
VERTEX
8
0
10
0.296656
20
-0.011050
0
VERTEX
8
0
10
0.297071
20
-0.011927
0
VERTEX
8
0
10
0.297402
20
-0.012851
0
VERTEX
8
0
10
0.297644
20
-0.013818
0
VERTEX
8
0
10
0.297792
20
-0.014823
0
VERTEX
8
0
10
0.297843
20
-0.015862
0
SEQEND
8
0
0
POLYLINE
8
0
66
1
70
1
40
0
41
0
0
VERTEX
8
0
10
0.670917
20
0.636693
0
VERTEX
8
0
10
0.627917
20
0.636693
0
VERTEX
8
0
10
0.627917
20
0.569693
0
VERTEX
8
0
10
0.670917
20
0.569693
0
VERTEX
8
0
10
0.670917
20
0.636693
0
SEQEND
8
0
0
POLYLINE
8
0
66
1
70
1
40
0
41
0
0
VERTEX
8
0
10
0.556744
20
0.636693
0
VERTEX
8
0
10
0.513744
20
0.636693
0
VERTEX
8
0
10
0.513744
20
0.569693
0
VERTEX
8
0
10
0.556744
20
0.569693
0
VERTEX
8
0
10
0.556744
20
0.636693
0
SEQEND
8
0
0
POLYLINE
8
0
66
1
70
1
40
0
41
0
0
VERTEX
8
0
10
-0.064996
20
-0.001173
0
VERTEX
8
0
10
-0.021996
20
-0.001173
0
VERTEX
8
0
10
-0.021996
20
0.065827
0
VERTEX
8
0
10
-0.064996
20
0.065827
0
VERTEX
8
0
10
-0.064996
20
-0.001173
0
SEQEND
8
0
0
POLYLINE
8
0
66
1
70
1
40
0
41
0
0
VERTEX
8
0
10
0.049177
20
-0.001173
0
VERTEX
8
0
10
0.092177
20
-0.001173
0
VERTEX
8
0
10
0.092177
20
0.065827
0
VERTEX
8
0
10
0.049177
20
0.065827
0
VERTEX
8
0
10
0.049177
20
-0.001173
0
SEQEND
8
0
0
INSERT
8
0
2
EPAD
10
0.755717
20
-0.229484
41
0.256220
42
0.256220
0
INSERT
8
0
2
EPAD
10
-0.622236
20
-0.229484
41
0.256220
42
0.256220
0
INSERT
8
0
2
EPAD
10
0.904362
20
0.165083
41
0.090000
42
0.090000
0
INSERT
8
0
2
EPAD
10
0.904362
20
0.265083
41
0.090000
42
0.090000
0
INSERT
8
0
2
EPAD
10
0.904362
20
0.365083
41
0.090000
42
0.090000
0
INSERT
8
0
2
EPAD
10
0.904362
20
0.465083
41
0.090000
42
0.090000
0
POLYLINE
8
0
66
1
70
1
40
0
41
0
0
VERTEX
8
0
10
-0.949402
20
0.252169
0
VERTEX
8
0
10
-0.949402
20
0.332169
0
VERTEX
8
0
10
-0.949351
20
0.333209
0
VERTEX
8
0
10
-0.949203
20
0.334214
0
VERTEX
8
0
10
-0.948961
20
0.335181
0
VERTEX
8
0
10
-0.948630
20
0.336105
0
VERTEX
8
0
10
-0.948215
20
0.336981
0
VERTEX
8
0
10
-0.947720
20
0.337805
0
VERTEX
8
0
10
-0.947151
20
0.338573
0
VERTEX
8
0
10
-0.946511
20
0.339279
0
VERTEX
8
0
10
-0.945805
20
0.339919
0
VERTEX
8
0
10
-0.945037
20
0.340488
0
VERTEX
8
0
10
-0.944213
20
0.340983
0
VERTEX
8
0
10
-0.943337
20
0.341398
0
VERTEX
8
0
10
-0.942413
20
0.341728
0
VERTEX
8
0
10
-0.941446
20
0.341970
0
VERTEX
8
0
10
-0.940441
20
0.342119
0
VERTEX
8
0
10
-0.939402
20
0.342169
0
VERTEX
8
0
10
-0.859402
20
0.342169
0
VERTEX
8
0
10
-0.858362
20
0.342119
0
VERTEX
8
0
10
-0.857357
20
0.341970
0
VERTEX
8
0
10
-0.856390
20
0.341728
0
VERTEX
8
0
10
-0.855466
20
0.341398
0
VERTEX
8
0
10
-0.854590
20
0.340983
0
VERTEX
8
0
10
-0.853766
20
0.340488
0
VERTEX
8
0
10
-0.852998
20
0.339919
0
VERTEX
8
0
10
-0.852292
20
0.339279
0
VERTEX
8
0
10
-0.851652
20
0.338573
0
VERTEX
8
0
10
-0.851083
20
0.337805
0
VERTEX
8
0
10
-0.850588
20
0.336981
0
VERTEX
8
0
10
-0.850173
20
0.336105
0
VERTEX
8
0
10
-0.849843
20
0.335181
0
VERTEX
8
0
10
-0.849600
20
0.334214
0
VERTEX
8
0
10
-0.849452
20
0.333209
0
VERTEX
8
0
10
-0.849402
20
0.332169
0
VERTEX
8
0
10
-0.849402
20
0.252169
0
VERTEX
8
0
10
-0.849452
20
0.251130
0
VERTEX
8
0
10
-0.849600
20
0.250125
0
VERTEX
8
0
10
-0.849843
20
0.249158
0
VERTEX
8
0
10
-0.850173
20
0.248234
0
VERTEX
8
0
10
-0.850588
20
0.247357
0
VERTEX
8
0
10
-0.851083
20
0.246533
0
VERTEX
8
0
10
-0.851652
20
0.245766
0
VERTEX
8
0
10
-0.852292
20
0.245060
0
VERTEX
8
0
10
-0.852998
20
0.244420
0
VERTEX
8
0
10
-0.853766
20
0.243850
0
VERTEX
8
0
10
-0.854590
20
0.243356
0
VERTEX
8
0
10
-0.855466
20
0.242941
0
VERTEX
8
0
10
-0.856390
20
0.242610
0
VERTEX
8
0
10
-0.857357
20
0.242368
0
VERTEX
8
0
10
-0.858362
20
0.242220
0
VERTEX
8
0
10
-0.859402
20
0.242169
0
VERTEX
8
0
10
-0.939402
20
0.242169
0
VERTEX
8
0
10
-0.940441
20
0.242220
0
VERTEX
8
0
10
-0.941446
20
0.242368
0
VERTEX
8
0
10
-0.942413
20
0.242610
0
VERTEX
8
0
10
-0.943337
20
0.242941
0
VERTEX
8
0
10
-0.944213
20
0.243356
0
VERTEX
8
0
10
-0.945037
20
0.243850
0
VERTEX
8
0
10
-0.945805
20
0.244420
0
VERTEX
8
0
10
-0.946511
20
0.245060
0
VERTEX
8
0
10
-0.947151
20
0.245766
0
VERTEX
8
0
10
-0.947720
20
0.246533
0
VERTEX
8
0
10
-0.948215
20
0.247357
0
VERTEX
8
0
10
-0.948630
20
0.248234
0
VERTEX
8
0
10
-0.948961
20
0.249158
0
VERTEX
8
0
10
-0.949203
20
0.250125
0
VERTEX
8
0
10
-0.949351
20
0.251130
0
VERTEX
8
0
10
-0.949402
20
0.252169
0
SEQEND
8
0
0
POLYLINE
8
0
66
1
70
1
40
0
41
0
0
VERTEX
8
0
10
-0.949402
20
0.352169
0
VERTEX
8
0
10
-0.949402
20
0.432169
0
VERTEX
8
0
10
-0.949351
20
0.433209
0
VERTEX
8
0
10
-0.949203
20
0.434214
0
VERTEX
8
0
10
-0.948961
20
0.435181
0
VERTEX
8
0
10
-0.948630
20
0.436105
0
VERTEX
8
0
10
-0.948215
20
0.436981
0
VERTEX
8
0
10
-0.947720
20
0.437805
0
VERTEX
8
0
10
-0.947151
20
0.438573
0
VERTEX
8
0
10
-0.946511
20
0.439279
0
VERTEX
8
0
10
-0.945805
20
0.439919
0
VERTEX
8
0
10
-0.945037
20
0.440488
0
VERTEX
8
0
10
-0.944213
20
0.440983
0
VERTEX
8
0
10
-0.943337
20
0.441398
0
VERTEX
8
0
10
-0.942413
20
0.441728
0
VERTEX
8
0
10
-0.941446
20
0.441970
0
VERTEX
8
0
10
-0.940441
20
0.442119
0
VERTEX
8
0
10
-0.939402
20
0.442169
0
VERTEX
8
0
10
-0.859402
20
0.442169
0
VERTEX
8
0
10
-0.858362
20
0.442119
0
VERTEX
8
0
10
-0.857357
20
0.441970
0
VERTEX
8
0
10
-0.856390
20
0.441728
0
VERTEX
8
0
10
-0.855466
20
0.441398
0
VERTEX
8
0
10
-0.854590
20
0.440983
0
VERTEX
8
0
10
-0.853766
20
0.440488
0
VERTEX
8
0
10
-0.852998
20
0.439919
0
VERTEX
8
0
10
-0.852292
20
0.439279
0
VERTEX
8
0
10
-0.851652
20
0.438573
0
VERTEX
8
0
10
-0.851083
20
0.437805
0
VERTEX
8
0
10
-0.850588
20
0.436981
0
VERTEX
8
0
10
-0.850173
20
0.436105
0
VERTEX
8
0
10
-0.849843
20
0.435181
0
VERTEX
8
0
10
-0.849600
20
0.434214
0
VERTEX
8
0
10
-0.849452
20
0.433209
0
VERTEX
8
0
10
-0.849402
20
0.432169
0
VERTEX
8
0
10
-0.849402
20
0.352169
0
VERTEX
8
0
10
-0.849452
20
0.351130
0
VERTEX
8
0
10
-0.849600
20
0.350125
0
VERTEX
8
0
10
-0.849843
20
0.349158
0
VERTEX
8
0
10
-0.850173
20
0.348234
0
VERTEX
8
0
10
-0.850588
20
0.347357
0
VERTEX
8
0
10
-0.851083
20
0.346533
0
VERTEX
8
0
10
-0.851652
20
0.345766
0
VERTEX
8
0
10
-0.852292
20
0.345060
0
VERTEX
8
0
10
-0.852998
20
0.344420
0
VERTEX
8
0
10
-0.853766
20
0.343850
0
VERTEX
8
0
10
-0.854590
20
0.343356
0
VERTEX
8
0
10
-0.855466
20
0.342941
0
VERTEX
8
0
10
-0.856390
20
0.342610
0
VERTEX
8
0
10
-0.857357
20
0.342368
0
VERTEX
8
0
10
-0.858362
20
0.342220
0
VERTEX
8
0
10
-0.859402
20
0.342169
0
VERTEX
8
0
10
-0.939402
20
0.342169
0
VERTEX
8
0
10
-0.940441
20
0.342220
0
VERTEX
8
0
10
-0.941446
20
0.342368
0
VERTEX
8
0
10
-0.942413
20
0.342610
0
VERTEX
8
0
10
-0.943337
20
0.342941
0
VERTEX
8
0
10
-0.944213
20
0.343356
0
VERTEX
8
0
10
-0.945037
20
0.343850
0
VERTEX
8
0
10
-0.945805
20
0.344420
0
VERTEX
8
0
10
-0.946511
20
0.345060
0
VERTEX
8
0
10
-0.947151
20
0.345766
0
VERTEX
8
0
10
-0.947720
20
0.346533
0
VERTEX
8
0
10
-0.948215
20
0.347357
0
VERTEX
8
0
10
-0.948630
20
0.348234
0
VERTEX
8
0
10
-0.948961
20
0.349158
0
VERTEX
8
0
10
-0.949203
20
0.350125
0
VERTEX
8
0
10
-0.949351
20
0.351130
0
VERTEX
8
0
10
-0.949402
20
0.352169
0
SEQEND
8
0
0
POLYLINE
8
0
66
1
70
1
40
0
41
0
0
VERTEX
8
0
10
-0.949402
20
0.452169
0
VERTEX
8
0
10
-0.949402
20
0.532169
0
VERTEX
8
0
10
-0.949351
20
0.533209
0
VERTEX
8
0
10
-0.949203
20
0.534214
0
VERTEX
8
0
10
-0.948961
20
0.535181
0
VERTEX
8
0
10
-0.948630
20
0.536105
0
VERTEX
8
0
10
-0.948215
20
0.536981
0
VERTEX
8
0
10
-0.947720
20
0.537805
0
VERTEX
8
0
10
-0.947151
20
0.538573
0
VERTEX
8
0
10
-0.946511
20
0.539279
0
VERTEX
8
0
10
-0.945805
20
0.539919
0
VERTEX
8
0
10
-0.945037
20
0.540488
0
VERTEX
8
0
10
-0.944213
20
0.540983
0
VERTEX
8
0
10
-0.943337
20
0.541398
0
VERTEX
8
0
10
-0.942413
20
0.541728
0
VERTEX
8
0
10
-0.941446
20
0.541970
0
VERTEX
8
0
10
-0.940441
20
0.542119
0
VERTEX
8
0
10
-0.939402
20
0.542169
0
VERTEX
8
0
10
-0.859402
20
0.542169
0
VERTEX
8
0
10
-0.858362
20
0.542119
0
VERTEX
8
0
10
-0.857357
20
0.541970
0
VERTEX
8
0
10
-0.856390
20
0.541728
0
VERTEX
8
0
10
-0.855466
20
0.541398
0
VERTEX
8
0
10
-0.854590
20
0.540983
0
VERTEX
8
0
10
-0.853766
20
0.540488
0
VERTEX
8
0
10
-0.852998
20
0.539919
0
VERTEX
8
0
10
-0.852292
20
0.539279
0
VERTEX
8
0
10
-0.851652
20
0.538573
0
VERTEX
8
0
10
-0.851083
20
0.537805
0
VERTEX
8
0
10
-0.850588
20
0.536981
0
VERTEX
8
0
10
-0.850173
20
0.536105
0
VERTEX
8
0
10
-0.849843
20
0.535181
0
VERTEX
8
0
10
-0.849600
20
0.534214
0
VERTEX
8
0
10
-0.849452
20
0.533209
0
VERTEX
8
0
10
-0.849402
20
0.532169
0
VERTEX
8
0
10
-0.849402
20
0.452169
0
VERTEX
8
0
10
-0.849452
20
0.451130
0
VERTEX
8
0
10
-0.849600
20
0.450125
0
VERTEX
8
0
10
-0.849843
20
0.449158
0
VERTEX
8
0
10
-0.850173
20
0.448234
0
VERTEX
8
0
10
-0.850588
20
0.447357
0
VERTEX
8
0
10
-0.851083
20
0.446533
0
VERTEX
8
0
10
-0.851652
20
0.445766
0
VERTEX
8
0
10
-0.852292
20
0.445060
0
VERTEX
8
0
10
-0.852998
20
0.444420
0
VERTEX
8
0
10
-0.853766
20
0.443850
0
VERTEX
8
0
10
-0.854590
20
0.443356
0
VERTEX
8
0
10
-0.855466
20
0.442941
0
VERTEX
8
0
10
-0.856390
20
0.442610
0
VERTEX
8
0
10
-0.857357
20
0.442368
0
VERTEX
8
0
10
-0.858362
20
0.442220
0
VERTEX
8
0
10
-0.859402
20
0.442169
0
VERTEX
8
0
10
-0.939402
20
0.442169
0
VERTEX
8
0
10
-0.940441
20
0.442220
0
VERTEX
8
0
10
-0.941446
20
0.442368
0
VERTEX
8
0
10
-0.942413
20
0.442610
0
VERTEX
8
0
10
-0.943337
20
0.442941
0
VERTEX
8
0
10
-0.944213
20
0.443356
0
VERTEX
8
0
10
-0.945037
20
0.443850
0
VERTEX
8
0
10
-0.945805
20
0.444420
0
VERTEX
8
0
10
-0.946511
20
0.445060
0
VERTEX
8
0
10
-0.947151
20
0.445766
0
VERTEX
8
0
10
-0.947720
20
0.446533
0
VERTEX
8
0
10
-0.948215
20
0.447357
0
VERTEX
8
0
10
-0.948630
20
0.448234
0
VERTEX
8
0
10
-0.948961
20
0.449158
0
VERTEX
8
0
10
-0.949203
20
0.450125
0
VERTEX
8
0
10
-0.949351
20
0.451130
0
VERTEX
8
0
10
-0.949402
20
0.452169
0
SEQEND
8
0
0
POLYLINE
8
0
66
1
70
1
40
0
41
0
0
VERTEX
8
0
10
-0.949402
20
0.552169
0
VERTEX
8
0
10
-0.949402
20
0.632169
0
VERTEX
8
0
10
-0.949351
20
0.633209
0
VERTEX
8
0
10
-0.949203
20
0.634214
0
VERTEX
8
0
10
-0.948961
20
0.635181
0
VERTEX
8
0
10
-0.948630
20
0.636105
0
VERTEX
8
0
10
-0.948215
20
0.636981
0
VERTEX
8
0
10
-0.947720
20
0.637805
0
VERTEX
8
0
10
-0.947151
20
0.638573
0
VERTEX
8
0
10
-0.946511
20
0.639279
0
VERTEX
8
0
10
-0.945805
20
0.639919
0
VERTEX
8
0
10
-0.945037
20
0.640488
0
VERTEX
8
0
10
-0.944213
20
0.640983
0
VERTEX
8
0
10
-0.943337
20
0.641398
0
VERTEX
8
0
10
-0.942413
20
0.641728
0
VERTEX
8
0
10
-0.941446
20
0.641970
0
VERTEX
8
0
10
-0.940441
20
0.642119
0
VERTEX
8
0
10
-0.939402
20
0.642169
0
VERTEX
8
0
10
-0.859402
20
0.642169
0
VERTEX
8
0
10
-0.858362
20
0.642119
0
VERTEX
8
0
10
-0.857357
20
0.641970
0
VERTEX
8
0
10
-0.856390
20
0.641728
0
VERTEX
8
0
10
-0.855466
20
0.641398
0
VERTEX
8
0
10
-0.854590
20
0.640983
0
VERTEX
8
0
10
-0.853766
20
0.640488
0
VERTEX
8
0
10
-0.852998
20
0.639919
0
VERTEX
8
0
10
-0.852292
20
0.639279
0
VERTEX
8
0
10
-0.851652
20
0.638573
0
VERTEX
8
0
10
-0.851083
20
0.637805
0
VERTEX
8
0
10
-0.850588
20
0.636981
0
VERTEX
8
0
10
-0.850173
20
0.636105
0
VERTEX
8
0
10
-0.849843
20
0.635181
0
VERTEX
8
0
10
-0.849600
20
0.634214
0
VERTEX
8
0
10
-0.849452
20
0.633209
0
VERTEX
8
0
10
-0.849402
20
0.632169
0
VERTEX
8
0
10
-0.849402
20
0.552169
0
VERTEX
8
0
10
-0.849452
20
0.551130
0
VERTEX
8
0
10
-0.849600
20
0.550125
0
VERTEX
8
0
10
-0.849843
20
0.549158
0
VERTEX
8
0
10
-0.850173
20
0.548234
0
VERTEX
8
0
10
-0.850588
20
0.547357
0
VERTEX
8
0
10
-0.851083
20
0.546533
0
VERTEX
8
0
10
-0.851652
20
0.545766
0
VERTEX
8
0
10
-0.852292
20
0.545060
0
VERTEX
8
0
10
-0.852998
20
0.544420
0
VERTEX
8
0
10
-0.853766
20
0.543850
0
VERTEX
8
0
10
-0.854590
20
0.543356
0
VERTEX
8
0
10
-0.855466
20
0.542941
0
VERTEX
8
0
10
-0.856390
20
0.542610
0
VERTEX
8
0
10
-0.857357
20
0.542368
0
VERTEX
8
0
10
-0.858362
20
0.542220
0
VERTEX
8
0
10
-0.859402
20
0.542169
0
VERTEX
8
0
10
-0.939402
20
0.542169
0
VERTEX
8
0
10
-0.940441
20
0.542220
0
VERTEX
8
0
10
-0.941446
20
0.542368
0
VERTEX
8
0
10
-0.942413
20
0.542610
0
VERTEX
8
0
10
-0.943337
20
0.542941
0
VERTEX
8
0
10
-0.944213
20
0.543356
0
VERTEX
8
0
10
-0.945037
20
0.543850
0
VERTEX
8
0
10
-0.945805
20
0.544420
0
VERTEX
8
0
10
-0.946511
20
0.545060
0
VERTEX
8
0
10
-0.947151
20
0.545766
0
VERTEX
8
0
10
-0.947720
20
0.546533
0
VERTEX
8
0
10
-0.948215
20
0.547357
0
VERTEX
8
0
10
-0.948630
20
0.548234
0
VERTEX
8
0
10
-0.948961
20
0.549158
0
VERTEX
8
0
10
-0.949203
20
0.550125
0
VERTEX
8
0
10
-0.949351
20
0.551130
0
VERTEX
8
0
10
-0.949402
20
0.552169
0
SEQEND
8
0
0
POLYLINE
8
0
66
1
70
1
40
0
41
0
0
VERTEX
8
0
10
-0.949402
20
0.652169
0
VERTEX
8
0
10
-0.949402
20
0.732169
0
VERTEX
8
0
10
-0.949351
20
0.733209
0
VERTEX
8
0
10
-0.949203
20
0.734214
0
VERTEX
8
0
10
-0.948961
20
0.735181
0
VERTEX
8
0
10
-0.948630
20
0.736105
0
VERTEX
8
0
10
-0.948215
20
0.736981
0
VERTEX
8
0
10
-0.947720
20
0.737805
0
VERTEX
8
0
10
-0.947151
20
0.738573
0
VERTEX
8
0
10
-0.946511
20
0.739279
0
VERTEX
8
0
10
-0.945805
20
0.739919
0
VERTEX
8
0
10
-0.945037
20
0.740488
0
VERTEX
8
0
10
-0.944213
20
0.740983
0
VERTEX
8
0
10
-0.943337
20
0.741398
0
VERTEX
8
0
10
-0.942413
20
0.741728
0
VERTEX
8
0
10
-0.941446
20
0.741970
0
VERTEX
8
0
10
-0.940441
20
0.742119
0
VERTEX
8
0
10
-0.939402
20
0.742169
0
VERTEX
8
0
10
-0.859402
20
0.742169
0
VERTEX
8
0
10
-0.858362
20
0.742119
0
VERTEX
8
0
10
-0.857357
20
0.741970
0
VERTEX
8
0
10
-0.856390
20
0.741728
0
VERTEX
8
0
10
-0.855466
20
0.741398
0
VERTEX
8
0
10
-0.854590
20
0.740983
0
VERTEX
8
0
10
-0.853766
20
0.740488
0
VERTEX
8
0
10
-0.852998
20
0.739919
0
VERTEX
8
0
10
-0.852292
20
0.739279
0
VERTEX
8
0
10
-0.851652
20
0.738573
0
VERTEX
8
0
10
-0.851083
20
0.737805
0
VERTEX
8
0
10
-0.850588
20
0.736981
0
VERTEX
8
0
10
-0.850173
20
0.736105
0
VERTEX
8
0
10
-0.849843
20
0.735181
0
VERTEX
8
0
10
-0.849600
20
0.734214
0
VERTEX
8
0
10
-0.849452
20
0.733209
0
VERTEX
8
0
10
-0.849402
20
0.732169
0
VERTEX
8
0
10
-0.849402
20
0.652169
0
VERTEX
8
0
10
-0.849452
20
0.651130
0
VERTEX
8
0
10
-0.849600
20
0.650125
0
VERTEX
8
0
10
-0.849843
20
0.649158
0
VERTEX
8
0
10
-0.850173
20
0.648234
0
VERTEX
8
0
10
-0.850588
20
0.647357
0
VERTEX
8
0
10
-0.851083
20
0.646533
0
VERTEX
8
0
10
-0.851652
20
0.645766
0
VERTEX
8
0
10
-0.852292
20
0.645060
0
VERTEX
8
0
10
-0.852998
20
0.644420
0
VERTEX
8
0
10
-0.853766
20
0.643850
0
VERTEX
8
0
10
-0.854590
20
0.643356
0
VERTEX
8
0
10
-0.855466
20
0.642941
0
VERTEX
8
0
10
-0.856390
20
0.642610
0
VERTEX
8
0
10
-0.857357
20
0.642368
0
VERTEX
8
0
10
-0.858362
20
0.642220
0
VERTEX
8
0
10
-0.859402
20
0.642169
0
VERTEX
8
0
10
-0.939402
20
0.642169
0
VERTEX
8
0
10
-0.940441
20
0.642220
0
VERTEX
8
0
10
-0.941446
20
0.642368
0
VERTEX
8
0
10
-0.942413
20
0.642610
0
VERTEX
8
0
10
-0.943337
20
0.642941
0
VERTEX
8
0
10
-0.944213
20
0.643356
0
VERTEX
8
0
10
-0.945037
20
0.643850
0
VERTEX
8
0
10
-0.945805
20
0.644420
0
VERTEX
8
0
10
-0.946511
20
0.645060
0
VERTEX
8
0
10
-0.947151
20
0.645766
0
VERTEX
8
0
10
-0.947720
20
0.646533
0
VERTEX
8
0
10
-0.948215
20
0.647357
0
VERTEX
8
0
10
-0.948630
20
0.648234
0
VERTEX
8
0
10
-0.948961
20
0.649158
0
VERTEX
8
0
10
-0.949203
20
0.650125
0
VERTEX
8
0
10
-0.949351
20
0.651130
0
VERTEX
8
0
10
-0.949402
20
0.652169
0
SEQEND
8
0
0
INSERT
8
0
2
EPAD
10
-0.334835
20
-0.021509
41
0.090000
42
0.090000
0
INSERT
8
0
2
EPAD
10
-0.234835
20
-0.021509
41
0.090000
42
0.090000
0
INSERT
8
0
2
EPAD
10
-0.134835
20
-0.021509
41
0.090000
42
0.090000
0
POLYLINE
8
0
66
1
40
0.008000
41
0.008000
0
VERTEX
8
0
10
-1.059244
20
-0.509698
0
VERTEX
8
0
10
1.059244
20
-0.509698
0
VERTEX
8
0
10
1.059244
20
0.828885
0
VERTEX
8
0
10
-1.059244
20
0.828885
0
VERTEX
8
0
10
-1.059244
20
-0.509698
0
SEQEND
8
0
0
POLYLINE
8
0
66
1
40
0.006000
41
0.006000
0
VERTEX
8
0
10
0.112606
20
-0.781122
0
VERTEX
8
0
10
0.137606
20
-0.831122
0
SEQEND
8
0
0
POLYLINE
8
0
66
1
40
0.006000
41
0.006000
0
VERTEX
8
0
10
0.162606
20
-0.781122
0
VERTEX
8
0
10
0.137606
20
-0.831122
0
SEQEND
8
0
0
POLYLINE
8
0
66
1
40
0.006000
41
0.006000
0
VERTEX
8
0
10
-0.161394
20
-0.781122
0
VERTEX
8
0
10
0.310606
20
-0.781122
0
VERTEX
8
0
10
0.310606
20
-0.131122
0
VERTEX
8
0
10
-0.161394
20
-0.131122
0
VERTEX
8
0
10
-0.161394
20
-0.781122
0
SEQEND
8
0
0
TEXT
8
0
10
-0.000394
20
-0.122122
40
0.048000
41
1.041667
1
J13
0
POLYLINE
8
0
66
1
40
0.008000
41
0.008000
0
VERTEX
8
0
10
0.674417
20
0.436264
0
VERTEX
8
0
10
-0.675583
20
0.436264
0
VERTEX
8
0
10
-0.675583
20
0.236264
0
VERTEX
8
0
10
0.674417
20
0.236264
0
SEQEND
8
0
0
POLYLINE
8
0
66
1
40
0.008000
41
0.008000
0
VERTEX
8
0
10
0.674417
20
0.436264
0
VERTEX
8
0
10
0.674417
20
0.386264
0
SEQEND
8
0
0
POLYLINE
8
0
66
1
40
0.008000
41
0.008000
0
VERTEX
8
0
10
0.674417
20
0.236264
0
VERTEX
8
0
10
0.674417
20
0.286264
0
SEQEND
8
0
0
POLYLINE
8
0
66
1
40
0.008000
41
0.008000
0
VERTEX
8
0
10
0.674417
20
0.386264
0
VERTEX
8
0
10
0.664194
20
0.385269
0
VERTEX
8
0
10
0.654739
20
0.382406
0
VERTEX
8
0
10
0.646237
20
0.377859
0
VERTEX
8
0
10
0.638870
20
0.371811
0
VERTEX
8
0
10
0.632822
20
0.364444
0
VERTEX
8
0
10
0.628275
20
0.355941
0
VERTEX
8
0
10
0.625412
20
0.346487
0
VERTEX
8
0
10
0.624417
20
0.336264
0
SEQEND
8
0
0
POLYLINE
8
0
66
1
40
0.008000
41
0.008000
0
VERTEX
8
0
10
0.674417
20
0.286264
0
VERTEX
8
0
10
0.664194
20
0.287259
0
VERTEX
8
0
10
0.654739
20
0.290121
0
VERTEX
8
0
10
0.646237
20
0.294668
0
VERTEX
8
0
10
0.638870
20
0.300717
0
VERTEX
8
0
10
0.632822
20
0.308084
0
VERTEX
8
0
10
0.628275
20
0.316586
0
VERTEX
8
0
10
0.625412
20
0.326040
0
VERTEX
8
0
10
0.624417
20
0.336264
0
SEQEND
8
0
0
CIRCLE
8
0
10
0.654417
20
0.420264
40
0.002828
0
TEXT
8
0
10
0.505717
20
0.341122
40
0.048000
41
1.041667
1
U1
0
CIRCLE
8
0
10
-0.595858
20
0.670122
40
0.100000
0
POLYLINE
8
0
66
1
40
0.008000
41
0.008000
0
VERTEX
8
0
10
-0.670858
20
0.720122
0
VERTEX
8
0
10
-0.620858
20
0.720122
0
SEQEND
8
0
0
POLYLINE
8
0
66
1
40
0.008000
41
0.008000
0
VERTEX
8
0
10
-0.645858
20
0.745122
0
VERTEX
8
0
10
-0.645858
20
0.695122
0
SEQEND
8
0
0
TEXT
8
0
10
-0.646220
20
0.780122
40
0.048000
41
1.041667
1
C1
0
POLYLINE
8
0
66
1
40
0.008000
41
0.008000
0
VERTEX
8
0
10
-0.029717
20
0.574059
0
VERTEX
8
0
10
-0.329717
20
0.574059
0
VERTEX
8
0
10
-0.379717
20
0.624059
0
VERTEX
8
0
10
-0.379717
20
0.724059
0
VERTEX
8
0
10
-0.329717
20
0.774059
0
VERTEX
8
0
10
-0.029717
20
0.774059
0
VERTEX
8
0
10
0.020283
20
0.724059
0
VERTEX
8
0
10
0.020283
20
0.624059
0
VERTEX
8
0
10
-0.029717
20
0.574059
0
SEQEND
8
0
0
TEXT
8
0
10
-0.229717
20
0.516059
40
0.048000
41
1.041667
1
X1
0
POLYLINE
8
0
66
1
40
0.007874
41
0.007874
0
VERTEX
8
0
10
-0.171449
20
0.355161
0
VERTEX
8
0
10
-0.120268
20
0.355161
0
SEQEND
8
0
0
TEXT
8
0
10
-0.043591
20
0.401224
40
0.048000
41
1.041667
50
90.000000
71
2
1
C8
0
POLYLINE
8
0
66
1
40
0.007874
41
0.007874
0
VERTEX
8
0
10
-0.273811
20
0.355161
0
VERTEX
8
0
10
-0.222630
20
0.355161
0
SEQEND
8
0
0
TEXT
8
0
10
-0.283748
20
0.405161
40
0.048000
41
1.041667
50
90.000000
71
2
1
C9
0
CIRCLE
8
0
10
0.247843
20
-0.005862
40
0.000000
0
CIRCLE
8
0
10
0.247843
20
-0.005862
40
0.100000
0
POLYLINE
8
0
66
1
40
0.008000
41
0.008000
0
VERTEX
8
0
10
0.347843
20
0.119138
0
VERTEX
8
0
10
0.347843
20
0.069138
0
SEQEND
8
0
0
POLYLINE
8
0
66
1
40
0.008000
41
0.008000
0
VERTEX
8
0
10
0.372843
20
0.094138
0
VERTEX
8
0
10
0.322843
20
0.094138
0
SEQEND
8
0
0
TEXT
8
0
10
0.430843
20
-0.043362
40
0.048000
41
1.041667
50
90.000000
1
D1
0
POLYLINE
8
0
66
1
40
0.007874
41
0.007874
0
VERTEX
8
0
10
0.612016
20
0.569728
0
VERTEX
8
0
10
0.572646
20
0.569728
0
SEQEND
8
0
0
POLYLINE
8
0
66
1
40
0.007874
41
0.007874
0
VERTEX
8
0
10
0.612016
20
0.636657
0
VERTEX
8
0
10
0.572646
20
0.636657
0
SEQEND
8
0
0
TEXT
8
0
10
0.642331
20
0.646594
40
0.048000
41
1.041667
71
2
1
R1
0
POLYLINE
8
0
66
1
40
0.007874
41
0.007874
0
VERTEX
8
0
10
-0.006094
20
0.065791
0
VERTEX
8
0
10
0.033276
20
0.065791
0
SEQEND
8
0
0
POLYLINE
8
0
66
1
40
0.007874
41
0.007874
0
VERTEX
8
0
10
-0.006094
20
-0.001138
0
VERTEX
8
0
10
0.033276
20
-0.001138
0
SEQEND
8
0
0
TEXT
8
0
10
0.088591
20
-0.059075
40
0.048000
41
1.041667
71
2
1
R24
0
TEXT
8
0
10
0.743913
20
-0.016807
40
0.056000
41
0.714286
50
90.000000
1
GND VCC SCL SDA
0
TEXT
8
0
10
-0.891474
20
-0.409991
40
0.064000
41
0.937500
50
90.000000
1
JUDAPIES
0
POLYLINE
8
0
66
1
40
0.008000
41
0.008000
0
VERTEX
8
0
10
0.754362
20
0.065083
0
VERTEX
8
0
10
1.004362
20
0.065083
0
VERTEX
8
0
10
1.004362
20
0.565083
0
VERTEX
8
0
10
0.754362
20
0.565083
0
VERTEX
8
0
10
0.754362
20
0.065083
0
SEQEND
8
0
0
POLYLINE
8
0
66
1
40
0.008000
41
0.008000
0
VERTEX
8
0
10
0.804362
20
0.065083
0
VERTEX
8
0
10
0.804362
20
0.565083
0
SEQEND
8
0
0
TEXT
8
0
10
0.872362
20
-0.068917
40
0.048000
41
1.041667
50
90.000000
1
J2
0
POLYLINE
8
0
66
1
40
0.008000
41
0.008000
0
VERTEX
8
0
10
-0.949402
20
0.242169
0
VERTEX
8
0
10
-0.849402
20
0.242169
0
VERTEX
8
0
10
-0.849402
20
0.742169
0
VERTEX
8
0
10
-0.949402
20
0.742169
0
VERTEX
8
0
10
-0.949402
20
0.242169
0
SEQEND
8
0
0
TEXT
8
0
10
-0.881055
20
0.100437
40
0.048000
41
1.041667
50
90.000000
1
J1
0
POLYLINE
8
0
66
1
40
0.008000
41
0.008000
0
VERTEX
8
0
10
-0.434835
20
-0.121509
0
VERTEX
8
0
10
-0.034835
20
-0.121509
0
VERTEX
8
0
10
-0.034835
20
0.128491
0
VERTEX
8
0
10
-0.434835
20
0.128491
0
VERTEX
8
0
10
-0.434835
20
-0.121509
0
SEQEND
8
0
0
POLYLINE
8
0
66
1
40
0.008000
41
0.008000
0
VERTEX
8
0
10
-0.434835
20
0.078491
0
VERTEX
8
0
10
-0.034835
20
0.078491
0
SEQEND
8
0
0
TEXT
8
0
10
-0.540740
20
0.071562
40
0.048000
41
1.041667
1
J3
0
TEXT
8
0
10
-0.980496
20
0.218648
40
0.056000
41
0.535714
50
90.000000
1
VCC GND CLK DAT RST
0
TEXT
8
0
10
-0.417512
20
-0.202619
40
0.056000
41
0.892857
1
TX RX
0
TEXT
8
0
10
-0.000189
20
-0.037265
40
0.056000
41
0.892857
1
GND
0
INSERT
8
0
2
EPAD
10
0.137606
20
-0.191122
41
0.065000
42
0.065000
0
INSERT
8
0
2
EPAD
10
0.011606
20
-0.191122
41
0.065000
42
0.065000
0
INSERT
8
0
2
EPAD
10
0.011606
20
-0.289122
41
0.065000
42
0.065000
0
INSERT
8
0
2
EPAD
10
0.137606
20
-0.289122
41
0.065000
42
0.065000
0
INSERT
8
0
2
EPAD
10
-0.162394
20
-0.377122
41
0.150000
42
0.150000
0
INSERT
8
0
2
EPAD
10
0.311606
20
-0.377122
41
0.150000
42
0.150000
0
INSERT
8
0
2
RPAD
10
0.650205
20
0.486264
41
0.080000
42
0.080000
50
270.000000
0
CIRCLE
8
0
10
0.650205
20
0.486264
40
0.010000
0
INSERT
8
0
2
EPAD
10
0.550205
20
0.486264
41
0.080000
42
0.080000
0
CIRCLE
8
0
10
0.550205
20
0.486264
40
0.010000
0
INSERT
8
0
2
EPAD
10
0.450205
20
0.486264
41
0.080000
42
0.080000
0
CIRCLE
8
0
10
0.450205
20
0.486264
40
0.010000
0
INSERT
8
0
2
EPAD
10
0.350205
20
0.486264
41
0.080000
42
0.080000
0
CIRCLE
8
0
10
0.350205
20
0.486264
40
0.010000
0
INSERT
8
0
2
EPAD
10
0.250205
20
0.486264
41
0.080000
42
0.080000
0
CIRCLE
8
0
10
0.250205
20
0.486264
40
0.010000
0
INSERT
8
0
2
EPAD
10
0.150205
20
0.486264
41
0.080000
42
0.080000
0
CIRCLE
8
0
10
0.150205
20
0.486264
40
0.010000
0
INSERT
8
0
2
EPAD
10
0.050205
20
0.486264
41
0.080000
42
0.080000
0
CIRCLE
8
0
10
0.050205
20
0.486264
40
0.010000
0
INSERT
8
0
2
EPAD
10
-0.049795
20
0.486264
41
0.080000
42
0.080000
0
CIRCLE
8
0
10
-0.049795
20
0.486264
40
0.010000
0
INSERT
8
0
2
EPAD
10
-0.149795
20
0.486264
41
0.080000
42
0.080000
0
CIRCLE
8
0
10
-0.149795
20
0.486264
40
0.010000
0
INSERT
8
0
2
EPAD
10
-0.249795
20
0.486264
41
0.080000
42
0.080000
0
CIRCLE
8
0
10
-0.249795
20
0.486264
40
0.010000
0
INSERT
8
0
2
EPAD
10
-0.349795
20
0.486264
41
0.080000
42
0.080000
0
CIRCLE
8
0
10
-0.349795
20
0.486264
40
0.010000
0
INSERT
8
0
2
EPAD
10
-0.449795
20
0.486264
41
0.080000
42
0.080000
0
CIRCLE
8
0
10
-0.449795
20
0.486264
40
0.010000
0
INSERT
8
0
2
EPAD
10
-0.549795
20
0.486264
41
0.080000
42
0.080000
0
CIRCLE
8
0
10
-0.549795
20
0.486264
40
0.010000
0
INSERT
8
0
2
EPAD
10
-0.649795
20
0.486264
41
0.080000
42
0.080000
0
CIRCLE
8
0
10
-0.649795
20
0.486264
40
0.010000
0
INSERT
8
0
2
EPAD
10
-0.649795
20
0.186264
41
0.080000
42
0.080000
0
CIRCLE
8
0
10
-0.649795
20
0.186264
40
0.010000
0
INSERT
8
0
2
EPAD
10
-0.549795
20
0.186264
41
0.080000
42
0.080000
0
CIRCLE
8
0
10
-0.549795
20
0.186264
40
0.010000
0
INSERT
8
0
2
EPAD
10
-0.449795
20
0.186264
41
0.080000
42
0.080000
0
CIRCLE
8
0
10
-0.449795
20
0.186264
40
0.010000
0
INSERT
8
0
2
EPAD
10
-0.349795
20
0.186264
41
0.080000
42
0.080000
0
CIRCLE
8
0
10
-0.349795
20
0.186264
40
0.010000
0
INSERT
8
0
2
EPAD
10
-0.249795
20
0.186264
41
0.080000
42
0.080000
0
CIRCLE
8
0
10
-0.249795
20
0.186264
40
0.010000
0
INSERT
8
0
2
EPAD
10
-0.149795
20
0.186264
41
0.080000
42
0.080000
0
CIRCLE
8
0
10
-0.149795
20
0.186264
40
0.010000
0
INSERT
8
0
2
EPAD
10
-0.049795
20
0.186264
41
0.080000
42
0.080000
0
CIRCLE
8
0
10
-0.049795
20
0.186264
40
0.010000
0
INSERT
8
0
2
EPAD
10
0.050205
20
0.186264
41
0.080000
42
0.080000
0
CIRCLE
8
0
10
0.050205
20
0.186264
40
0.010000
0
INSERT
8
0
2
EPAD
10
0.150205
20
0.186264
41
0.080000
42
0.080000
0
CIRCLE
8
0
10
0.150205
20
0.186264
40
0.010000
0
INSERT
8
0
2
EPAD
10
0.250205
20
0.186264
41
0.080000
42
0.080000
0
CIRCLE
8
0
10
0.250205
20
0.186264
40
0.010000
0
INSERT
8
0
2
EPAD
10
0.350205
20
0.186264
41
0.080000
42
0.080000
0
CIRCLE
8
0
10
0.350205
20
0.186264
40
0.010000
0
INSERT
8
0
2
EPAD
10
0.450205
20
0.186264
41
0.080000
42
0.080000
0
CIRCLE
8
0
10
0.450205
20
0.186264
40
0.010000
0
INSERT
8
0
2
EPAD
10
0.550205
20
0.186264
41
0.080000
42
0.080000
0
CIRCLE
8
0
10
0.550205
20
0.186264
40
0.010000
0
INSERT
8
0
2
EPAD
10
0.649417
20
0.186264
41
0.080000
42
0.080000
0
CIRCLE
8
0
10
0.649417
20
0.186264
40
0.010000
0
INSERT
8
0
2
EPAD
10
-0.645858
20
0.670122
41
0.080000
42
0.080000
0
CIRCLE
8
0
10
-0.645858
20
0.670122
40
0.025000
0
INSERT
8
0
2
EPAD
10
-0.545858
20
0.670122
41
0.080000
42
0.080000
0
CIRCLE
8
0
10
-0.545858
20
0.670122
40
0.025000
0
INSERT
8
0
2
EPAD
10
-0.079717
20
0.674059
41
0.080000
42
0.080000
0
CIRCLE
8
0
10
-0.079717
20
0.674059
40
0.025000
0
INSERT
8
0
2
EPAD
10
-0.279717
20
0.674059
41
0.080000
42
0.080000
0
CIRCLE
8
0
10
-0.279717
20
0.674059
40
0.025000
0
INSERT
8
0
2
RPAD
10
0.247843
20
0.044138
41
0.080000
42
0.080000
50
-90.000000
0
CIRCLE
8
0
10
0.247843
20
0.044138
40
0.025000
0
INSERT
8
0
2
RPAD
10
0.247843
20
-0.055862
41
0.080000
42
0.080000
50
-90.000000
0
CIRCLE
8
0
10
0.247843
20
-0.055862
40
0.025000
0
INSERT
8
0
2
EPAD
10
0.755717
20
-0.229484
41
0.236220
42
0.236220
0
CIRCLE
8
0
10
0.755717
20
-0.229484
40
0.010000
0
INSERT
8
0
2
EPAD
10
-0.622236
20
-0.229484
41
0.236220
42
0.236220
0
CIRCLE
8
0
10
-0.622236
20
-0.229484
40
0.010000
0
INSERT
8
0
2
EPAD
10
0.904362
20
0.165083
41
0.080000
42
0.080000
0
CIRCLE
8
0
10
0.904362
20
0.165083
40
0.010000
0
INSERT
8
0
2
EPAD
10
0.904362
20
0.265083
41
0.080000
42
0.080000
0
CIRCLE
8
0
10
0.904362
20
0.265083
40
0.010000
0
INSERT
8
0
2
EPAD
10
0.904362
20
0.365083
41
0.080000
42
0.080000
0
CIRCLE
8
0
10
0.904362
20
0.365083
40
0.010000
0
INSERT
8
0
2
EPAD
10
0.904362
20
0.465083
41
0.080000
42
0.080000
0
CIRCLE
8
0
10
0.904362
20
0.465083
40
0.010000
0
INSERT
8
0
2
RPAD
10
-0.899402
20
0.292169
41
0.080000
42
0.080000
50
90.000000
0
CIRCLE
8
0
10
-0.899402
20
0.292169
40
0.025000
0
INSERT
8
0
2
RPAD
10
-0.899402
20
0.392169
41
0.080000
42
0.080000
50
90.000000
0
CIRCLE
8
0
10
-0.899402
20
0.392169
40
0.025000
0
INSERT
8
0
2
RPAD
10
-0.899402
20
0.492169
41
0.080000
42
0.080000
50
90.000000
0
CIRCLE
8
0
10
-0.899402
20
0.492169
40
0.025000
0
INSERT
8
0
2
RPAD
10
-0.899402
20
0.592169
41
0.080000
42
0.080000
50
90.000000
0
CIRCLE
8
0
10
-0.899402
20
0.592169
40
0.025000
0
INSERT
8
0
2
RPAD
10
-0.899402
20
0.692169
41
0.080000
42
0.080000
50
90.000000
0
CIRCLE
8
0
10
-0.899402
20
0.692169
40
0.025000
0
INSERT
8
0
2
EPAD
10
-0.334835
20
-0.021509
41
0.080000
42
0.080000
0
CIRCLE
8
0
10
-0.334835
20
-0.021509
40
0.010000
0
INSERT
8
0
2
EPAD
10
-0.234835
20
-0.021509
41
0.080000
42
0.080000
0
CIRCLE
8
0
10
-0.234835
20
-0.021509
40
0.010000
0
INSERT
8
0
2
EPAD
10
-0.134835
20
-0.021509
41
0.080000
42
0.080000
0
CIRCLE
8
0
10
-0.134835
20
-0.021509
40
0.010000
0
POLYLINE
8
0
66
1
40
0.008000
41
0.008000
0
VERTEX
8
0
10
-1.059244
20
-0.509698
0
VERTEX
8
0
10
1.059244
20
-0.509698
0
VERTEX
8
0
10
1.059244
20
0.828885
0
VERTEX
8
0
10
-1.059244
20
0.828885
0
VERTEX
8
0
10
-1.059244
20
-0.509698
0
SEQEND
8
0
0
POLYLINE
8
0
66
1
40
0.006000
41
0.006000
0
VERTEX
8
0
10
0.112606
20
-0.781122
0
VERTEX
8
0
10
0.137606
20
-0.831122
0
SEQEND
8
0
0
POLYLINE
8
0
66
1
40
0.006000
41
0.006000
0
VERTEX
8
0
10
0.162606
20
-0.781122
0
VERTEX
8
0
10
0.137606
20
-0.831122
0
SEQEND
8
0
0
POLYLINE
8
0
66
1
40
0.006000
41
0.006000
0
VERTEX
8
0
10
-0.161394
20
-0.781122
0
VERTEX
8
0
10
0.310606
20
-0.781122
0
VERTEX
8
0
10
0.310606
20
-0.131122
0
VERTEX
8
0
10
-0.161394
20
-0.131122
0
VERTEX
8
0
10
-0.161394
20
-0.781122
0
SEQEND
8
0
0
TEXT
8
0
10
-0.000394
20
-0.122122
40
0.048000
41
1.041667
1
J13
0
POLYLINE
8
0
66
1
40
0.008000
41
0.008000
0
VERTEX
8
0
10
0.674417
20
0.436264
0
VERTEX
8
0
10
-0.675583
20
0.436264
0
VERTEX
8
0
10
-0.675583
20
0.236264
0
VERTEX
8
0
10
0.674417
20
0.236264
0
SEQEND
8
0
0
POLYLINE
8
0
66
1
40
0.008000
41
0.008000
0
VERTEX
8
0
10
0.674417
20
0.436264
0
VERTEX
8
0
10
0.674417
20
0.386264
0
SEQEND
8
0
0
POLYLINE
8
0
66
1
40
0.008000
41
0.008000
0
VERTEX
8
0
10
0.674417
20
0.236264
0
VERTEX
8
0
10
0.674417
20
0.286264
0
SEQEND
8
0
0
POLYLINE
8
0
66
1
40
0.008000
41
0.008000
0
VERTEX
8
0
10
0.674417
20
0.386264
0
VERTEX
8
0
10
0.664194
20
0.385269
0
VERTEX
8
0
10
0.654739
20
0.382406
0
VERTEX
8
0
10
0.646237
20
0.377859
0
VERTEX
8
0
10
0.638870
20
0.371811
0
VERTEX
8
0
10
0.632822
20
0.364444
0
VERTEX
8
0
10
0.628275
20
0.355941
0
VERTEX
8
0
10
0.625412
20
0.346487
0
VERTEX
8
0
10
0.624417
20
0.336264
0
SEQEND
8
0
0
POLYLINE
8
0
66
1
40
0.008000
41
0.008000
0
VERTEX
8
0
10
0.674417
20
0.286264
0
VERTEX
8
0
10
0.664194
20
0.287259
0
VERTEX
8
0
10
0.654739
20
0.290121
0
VERTEX
8
0
10
0.646237
20
0.294668
0
VERTEX
8
0
10
0.638870
20
0.300717
0
VERTEX
8
0
10
0.632822
20
0.308084
0
VERTEX
8
0
10
0.628275
20
0.316586
0
VERTEX
8
0
10
0.625412
20
0.326040
0
VERTEX
8
0
10
0.624417
20
0.336264
0
SEQEND
8
0
0
CIRCLE
8
0
10
0.654417
20
0.420264
40
0.002828
0
TEXT
8
0
10
0.505717
20
0.341122
40
0.048000
41
1.041667
1
U1
0
CIRCLE
8
0
10
-0.595858
20
0.670122
40
0.100000
0
POLYLINE
8
0
66
1
40
0.008000
41
0.008000
0
VERTEX
8
0
10
-0.670858
20
0.720122
0
VERTEX
8
0
10
-0.620858
20
0.720122
0
SEQEND
8
0
0
POLYLINE
8
0
66
1
40
0.008000
41
0.008000
0
VERTEX
8
0
10
-0.645858
20
0.745122
0
VERTEX
8
0
10
-0.645858
20
0.695122
0
SEQEND
8
0
0
TEXT
8
0
10
-0.646220
20
0.780122
40
0.048000
41
1.041667
1
C1
0
POLYLINE
8
0
66
1
40
0.008000
41
0.008000
0
VERTEX
8
0
10
-0.029717
20
0.574059
0
VERTEX
8
0
10
-0.329717
20
0.574059
0
VERTEX
8
0
10
-0.379717
20
0.624059
0
VERTEX
8
0
10
-0.379717
20
0.724059
0
VERTEX
8
0
10
-0.329717
20
0.774059
0
VERTEX
8
0
10
-0.029717
20
0.774059
0
VERTEX
8
0
10
0.020283
20
0.724059
0
VERTEX
8
0
10
0.020283
20
0.624059
0
VERTEX
8
0
10
-0.029717
20
0.574059
0
SEQEND
8
0
0
TEXT
8
0
10
-0.229717
20
0.516059
40
0.048000
41
1.041667
1
X1
0
POLYLINE
8
0
66
1
40
0.007874
41
0.007874
0
VERTEX
8
0
10
-0.171449
20
0.355161
0
VERTEX
8
0
10
-0.120268
20
0.355161
0
SEQEND
8
0
0
TEXT
8
0
10
-0.043591
20
0.401224
40
0.048000
41
1.041667
50
90.000000
71
2
1
C8
0
POLYLINE
8
0
66
1
40
0.007874
41
0.007874
0
VERTEX
8
0
10
-0.273811
20
0.355161
0
VERTEX
8
0
10
-0.222630
20
0.355161
0
SEQEND
8
0
0
TEXT
8
0
10
-0.283748
20
0.405161
40
0.048000
41
1.041667
50
90.000000
71
2
1
C9
0
CIRCLE
8
0
10
0.247843
20
-0.005862
40
0.000000
0
CIRCLE
8
0
10
0.247843
20
-0.005862
40
0.100000
0
POLYLINE
8
0
66
1
40
0.008000
41
0.008000
0
VERTEX
8
0
10
0.347843
20
0.119138
0
VERTEX
8
0
10
0.347843
20
0.069138
0
SEQEND
8
0
0
POLYLINE
8
0
66
1
40
0.008000
41
0.008000
0
VERTEX
8
0
10
0.372843
20
0.094138
0
VERTEX
8
0
10
0.322843
20
0.094138
0
SEQEND
8
0
0
TEXT
8
0
10
0.430843
20
-0.043362
40
0.048000
41
1.041667
50
90.000000
1
D1
0
POLYLINE
8
0
66
1
40
0.007874
41
0.007874
0
VERTEX
8
0
10
0.612016
20
0.569728
0
VERTEX
8
0
10
0.572646
20
0.569728
0
SEQEND
8
0
0
POLYLINE
8
0
66
1
40
0.007874
41
0.007874
0
VERTEX
8
0
10
0.612016
20
0.636657
0
VERTEX
8
0
10
0.572646
20
0.636657
0
SEQEND
8
0
0
TEXT
8
0
10
0.642331
20
0.646594
40
0.048000
41
1.041667
71
2
1
R1
0
POLYLINE
8
0
66
1
40
0.007874
41
0.007874
0
VERTEX
8
0
10
-0.006094
20
0.065791
0
VERTEX
8
0
10
0.033276
20
0.065791
0
SEQEND
8
0
0
POLYLINE
8
0
66
1
40
0.007874
41
0.007874
0
VERTEX
8
0
10
-0.006094
20
-0.001138
0
VERTEX
8
0
10
0.033276
20
-0.001138
0
SEQEND
8
0
0
TEXT
8
0
10
0.088591
20
-0.059075
40
0.048000
41
1.041667
71
2
1
R24
0
TEXT
8
0
10
0.743913
20
-0.016807
40
0.056000
41
0.714286
50
90.000000
1
GND VCC SCL SDA
0
POLYLINE
8
0
66
1
40
0.000000
41
0.000000
0
VERTEX
8
0
10
0.057685
20
0.550437
0
VERTEX
8
0
10
0.973433
20
0.550437
0
VERTEX
8
0
10
0.973433
20
0.777996
0
VERTEX
8
0
10
0.057685
20
0.777996
0
VERTEX
8
0
10
0.057685
20
0.550437
0
SEQEND
8
0
0
TEXT
8
0
10
-0.891474
20
-0.409991
40
0.064000
41
0.937500
50
90.000000
1
JUDAPIES
0
POLYLINE
8
0
66
1
40
0.008000
41
0.008000
0
VERTEX
8
0
10
0.754362
20
0.065083
0
VERTEX
8
0
10
1.004362
20
0.065083
0
VERTEX
8
0
10
1.004362
20
0.565083
0
VERTEX
8
0
10
0.754362
20
0.565083
0
VERTEX
8
0
10
0.754362
20
0.065083
0
SEQEND
8
0
0
POLYLINE
8
0
66
1
40
0.008000
41
0.008000
0
VERTEX
8
0
10
0.804362
20
0.065083
0
VERTEX
8
0
10
0.804362
20
0.565083
0
SEQEND
8
0
0
TEXT
8
0
10
0.872362
20
-0.068917
40
0.048000
41
1.041667
50
90.000000
1
J2
0
POLYLINE
8
0
66
1
40
0.008000
41
0.008000
0
VERTEX
8
0
10
-0.949402
20
0.242169
0
VERTEX
8
0
10
-0.849402
20
0.242169
0
VERTEX
8
0
10
-0.849402
20
0.742169
0
VERTEX
8
0
10
-0.949402
20
0.742169
0
VERTEX
8
0
10
-0.949402
20
0.242169
0
SEQEND
8
0
0
TEXT
8
0
10
-0.881055
20
0.100437
40
0.048000
41
1.041667
50
90.000000
1
J1
0
POLYLINE
8
0
66
1
40
0.008000
41
0.008000
0
VERTEX
8
0
10
-0.434835
20
-0.121509
0
VERTEX
8
0
10
-0.034835
20
-0.121509
0
VERTEX
8
0
10
-0.034835
20
0.128491
0
VERTEX
8
0
10
-0.434835
20
0.128491
0
VERTEX
8
0
10
-0.434835
20
-0.121509
0
SEQEND
8
0
0
POLYLINE
8
0
66
1
40
0.008000
41
0.008000
0
VERTEX
8
0
10
-0.434835
20
0.078491
0
VERTEX
8
0
10
-0.034835
20
0.078491
0
SEQEND
8
0
0
TEXT
8
0
10
-0.540740
20
0.071562
40
0.048000
41
1.041667
1
J3
0
TEXT
8
0
10
-0.980496
20
0.218648
40
0.056000
41
0.535714
50
90.000000
1
VCC GND CLK DAT RST
0
TEXT
8
0
10
-0.417512
20
-0.202619
40
0.056000
41
0.892857
1
TX RX
0
TEXT
8
0
10
-0.000189
20
-0.037265
40
0.056000
41
0.892857
1
GND
0
ENDSEC
0
EOF

