G04 PROTEUS RS274X GERBER FILE*
%FSLAX45Y45*%
%MOMM*%
G01*
%ADD10C,0.635000*%
%ADD11C,1.778000*%
%ADD12C,6.350000*%
%ADD13R,2.032000X2.032000*%
%ADD14C,3.810000*%
%ADD15C,2.032000*%
%ADD16C,3.302000*%
%ADD17C,3.048000*%
%ADD18C,1.524000*%
%ADD19C,0.203200*%
D10*
X+5333400Y+8340389D02*
X+4433789Y+9240000D01*
X+4420000Y+9240000D01*
X+4659284Y+6281320D02*
X+5585348Y+7271777D01*
X+5585348Y+8434451D01*
X+5389799Y+8630000D01*
X+5340000Y+8630000D01*
X+2070000Y+9884000D02*
X+1867961Y+9884000D01*
X+1790935Y+9961026D01*
X+1790935Y+10263408D01*
X+2407527Y+10880000D01*
X+2506000Y+10880000D01*
X+2511000Y+10880000D01*
X+1634000Y+3878000D02*
X+1135683Y+4376317D01*
X+1135683Y+4932265D01*
X+1488460Y+5285042D01*
X+2319448Y+5285042D01*
X+2590000Y+5590000D01*
X+1450000Y+7580000D02*
X+1814424Y+7580000D01*
X+2106700Y+7872276D01*
X+2543724Y+7872276D01*
X+2546000Y+7870000D01*
X+1820000Y+11183076D02*
X+1820000Y+10600000D01*
X+1114074Y+9894074D01*
X+1114074Y+6576605D01*
X+1660000Y+6030679D01*
X+1660000Y+5766729D01*
X+3246571Y+6387185D02*
X+3246571Y+7786570D01*
X+4066628Y+8606627D01*
X+4066628Y+10249372D01*
X+3846000Y+10470000D01*
X+4710000Y+4650000D02*
X+5727149Y+3632851D01*
X+6275062Y+3632851D01*
X+6510000Y+3867789D01*
X+6510000Y+5430000D01*
X+7190000Y+6110000D01*
X+1538000Y+8348000D02*
X+1263660Y+8622340D01*
X+1263660Y+9493660D01*
X+1460000Y+9690000D01*
X+2580000Y+9690000D01*
X+2830000Y+9940000D01*
X+2830000Y+10470000D01*
X+4420000Y+9748000D02*
X+4463628Y+9791628D01*
X+7002927Y+9791628D01*
X+5870000Y+4274000D02*
X+5572169Y+4274000D01*
X+4710993Y+5135176D01*
X+4710993Y+6229611D01*
X+4659284Y+6281320D01*
X+7313728Y+2807736D02*
X+4092264Y+2807736D01*
X+3890000Y+3010000D01*
X+3890000Y+7027269D01*
X+3615919Y+7301350D01*
X+10885882Y+2741917D02*
X+8713869Y+2741917D01*
X+7933021Y+1961069D01*
X+4698931Y+1961069D01*
X+3730000Y+2930000D01*
X+3730000Y+6735513D01*
X+3454363Y+7011150D01*
X+1634000Y+3878000D02*
X+1634000Y+3325975D01*
X+1242284Y+2934259D01*
X+1242284Y+2367716D01*
X+1540000Y+2070000D01*
X+1976000Y+2070000D01*
X+2006000Y+2040000D01*
X+3557778Y+2941782D02*
X+3557778Y+4245751D01*
X+3557778Y+4315436D01*
X+3314754Y+1883449D02*
X+3314754Y+2440054D01*
X+3197162Y+2557646D01*
X+3197162Y+2839868D01*
X+3322594Y+2965300D01*
X+3322594Y+4556719D01*
X+3314754Y+4564559D01*
X+2269135Y+1854041D02*
X+2269135Y+2619135D01*
X+2450000Y+2800000D01*
X+2450000Y+3992986D01*
X+2481457Y+4024443D01*
X+990000Y+1730000D02*
X+1490000Y+1730000D01*
X+1830000Y+1390000D01*
X+2119645Y+1390000D01*
X+2355637Y+1625992D01*
X+2835327Y+2105682D01*
X+2835327Y+2616827D01*
X+2835327Y+2805557D01*
X+3086968Y+3057198D01*
X+3086968Y+3772802D01*
X+3126287Y+3812121D01*
X+4070862Y+7627356D02*
X+4070862Y+7394655D01*
X+4070000Y+7393793D01*
X+4070000Y+5585777D02*
X+4070000Y+7393793D01*
X+4070000Y+8271709D01*
X+4210000Y+8411709D01*
X+4210000Y+9538000D01*
X+4420000Y+9748000D01*
X+3524000Y+1470000D02*
X+3524000Y+1265638D01*
X+3792388Y+997250D01*
X+4513518Y+997250D01*
X+4654328Y+1138060D01*
X+4654328Y+1453672D01*
X+4628000Y+1480000D01*
X+5870000Y+4274000D02*
X+6330000Y+4274000D01*
X+6233887Y+8828339D02*
X+6233887Y+6933253D01*
X+6590000Y+6577140D01*
X+7566140Y+6577140D01*
X+7569340Y+6573940D01*
X+4640000Y+4340000D02*
X+5504327Y+3475673D01*
X+6415602Y+3475673D01*
X+6667800Y+3727871D01*
X+6667800Y+5250069D01*
X+7217233Y+5799502D01*
X+7709502Y+5799502D01*
X+7900000Y+5990000D01*
X+4662170Y+3899006D02*
X+5318336Y+3242840D01*
X+6334336Y+3242840D01*
X+6504200Y+3242840D01*
X+7414260Y+4152900D01*
X+8282940Y+4152900D01*
D11*
X+6233887Y+8828339D03*
X+5333400Y+8340389D03*
X+4659284Y+6281320D03*
X+5340000Y+8630000D03*
X+2590000Y+5590000D03*
X+1450000Y+7580000D03*
X+1820000Y+11183076D03*
X+1660000Y+5766729D03*
X+3246571Y+6387185D03*
X+4710000Y+4650000D03*
X+7002927Y+9791628D03*
X+4070000Y+5585777D03*
X+7313728Y+2807736D03*
X+3615919Y+7301350D03*
X+10885882Y+2741917D03*
X+3454363Y+7011150D03*
X+3557778Y+2941782D03*
X+3557778Y+4315436D03*
X+3314754Y+1883449D03*
X+3314754Y+4564559D03*
X+2269135Y+1854041D03*
X+2481457Y+4024443D03*
X+3126287Y+3812121D03*
X+4070862Y+7627356D03*
X+6330000Y+4274000D03*
X+4640000Y+4340000D03*
X+7900000Y+5990000D03*
X+4662170Y+3899006D03*
D12*
X+12330000Y+10920000D03*
X+390000Y+10920000D03*
X+470000Y+370000D03*
X+12410000Y+440000D03*
D13*
X+421920Y+4644360D03*
X+421920Y+4390360D03*
X+421920Y+4136360D03*
D14*
X+811920Y+3130360D03*
X+811920Y+5630360D03*
D13*
X+2820000Y+8130000D03*
D15*
X+2820000Y+7876000D03*
X+2820000Y+7622000D03*
X+2820000Y+7368000D03*
X+2820000Y+7114000D03*
X+2820000Y+6860000D03*
X+2820000Y+6606000D03*
X+2820000Y+6352000D03*
X+2820000Y+6098000D03*
X+2820000Y+5844000D03*
X+2820000Y+5590000D03*
X+2820000Y+5336000D03*
X+2820000Y+5082000D03*
X+2820000Y+4828000D03*
X+2820000Y+4574000D03*
X+2820000Y+4320000D03*
X+2820000Y+4066000D03*
X+2820000Y+3812000D03*
X+2820000Y+3558000D03*
X+2820000Y+3304000D03*
X+4344000Y+3304000D03*
X+4344000Y+3558000D03*
X+4344000Y+3812000D03*
X+4344000Y+4066000D03*
X+4344000Y+4320000D03*
X+4344000Y+4574000D03*
X+4344000Y+4828000D03*
X+4344000Y+5082000D03*
X+4344000Y+5336000D03*
X+4344000Y+5590000D03*
X+4344000Y+5844000D03*
X+4344000Y+6098000D03*
X+4344000Y+6352000D03*
X+4344000Y+6606000D03*
X+4344000Y+6860000D03*
X+4344000Y+7114000D03*
X+4344000Y+7368000D03*
X+4344000Y+7622000D03*
X+4344000Y+7876000D03*
X+4344000Y+8130000D03*
D16*
X+12304000Y+9588000D03*
X+12304000Y+7508000D03*
X+7794000Y+9588000D03*
X+7794000Y+8788000D03*
D15*
X+2554000Y+8348000D03*
X+1538000Y+8348000D03*
D13*
X+10928000Y+2366000D03*
X+10678000Y+2366000D03*
X+10428000Y+2366000D03*
X+10178000Y+2366000D03*
X+9928000Y+2366000D03*
X+9678000Y+2366000D03*
D12*
X+9148000Y+1166000D03*
X+11448000Y+1166000D03*
D13*
X+7374000Y+2418000D03*
X+7124000Y+2418000D03*
X+6874000Y+2418000D03*
X+6624000Y+2418000D03*
X+6374000Y+2418000D03*
X+6124000Y+2418000D03*
D12*
X+5594000Y+1218000D03*
X+7894000Y+1218000D03*
D13*
X+3340000Y+9496000D03*
D15*
X+3086000Y+9496000D03*
X+2832000Y+9496000D03*
X+2578000Y+9496000D03*
X+2324000Y+9496000D03*
X+2070000Y+9496000D03*
X+1816000Y+9496000D03*
X+1816000Y+8734000D03*
X+2070000Y+8734000D03*
X+2324000Y+8734000D03*
X+2578000Y+8734000D03*
X+2832000Y+8734000D03*
X+3086000Y+8734000D03*
X+3340000Y+8734000D03*
X+2330000Y+4474000D03*
X+2330000Y+4982000D03*
X+1873000Y+4472000D03*
X+1619000Y+4472000D03*
X+1873000Y+4972000D03*
X+1619000Y+4972000D03*
D13*
X+8290560Y+6468490D03*
D15*
X+8290560Y+6214490D03*
X+8290560Y+5960490D03*
X+9052560Y+5960490D03*
X+9052560Y+6214490D03*
X+9052560Y+6468490D03*
D17*
X+11882820Y+3031980D03*
X+11882820Y+3539980D03*
X+11887820Y+4156480D03*
X+11887820Y+4664480D03*
X+11897980Y+5766040D03*
X+11897980Y+5258040D03*
D15*
X+2090000Y+7342000D03*
X+2090000Y+7088000D03*
X+2090000Y+6834000D03*
X+2090000Y+6580000D03*
X+2090000Y+6326000D03*
X+2090000Y+6072000D03*
X+2090000Y+5818000D03*
X+2090000Y+5564000D03*
X+1644000Y+7348000D03*
X+628000Y+7348000D03*
X+1644000Y+7048000D03*
X+628000Y+7048000D03*
X+1654000Y+6748000D03*
X+638000Y+6748000D03*
X+1644000Y+6438000D03*
X+628000Y+6438000D03*
D13*
X+2004000Y+2998000D03*
X+2258000Y+2998000D03*
D15*
X+1634000Y+3878000D03*
X+1634000Y+2862000D03*
X+3086000Y+9884000D03*
X+2070000Y+9884000D03*
X+3090000Y+10174000D03*
X+2074000Y+10174000D03*
X+3820000Y+9722000D03*
X+3820000Y+8706000D03*
D17*
X+744000Y+8838000D03*
X+744000Y+9346000D03*
X+744000Y+9854000D03*
X+744000Y+7808000D03*
X+744000Y+8316000D03*
X+4344000Y+10509000D03*
X+4852000Y+10509000D03*
X+5360000Y+10509000D03*
D15*
X+5870000Y+4020000D03*
X+5870000Y+4274000D03*
X+5870000Y+4528000D03*
X+5870000Y+4782000D03*
X+5870000Y+5036000D03*
X+5870000Y+5290000D03*
X+5870000Y+5544000D03*
X+5870000Y+5798000D03*
X+5870000Y+6052000D03*
X+5870000Y+6306000D03*
X+5870000Y+6560000D03*
X+5870000Y+6814000D03*
X+5870000Y+7068000D03*
X+5870000Y+7322000D03*
X+5870000Y+7576000D03*
X+5870000Y+7830000D03*
X+5870000Y+8084000D03*
X+5870000Y+8338000D03*
X+5870000Y+8592000D03*
X+5870000Y+8846000D03*
D13*
X+3016000Y+1470000D03*
X+3270000Y+1470000D03*
X+3524000Y+1470000D03*
X+4120000Y+1480000D03*
X+4374000Y+1480000D03*
X+4628000Y+1480000D03*
D17*
X+5880000Y+10509000D03*
X+6388000Y+10509000D03*
X+6896000Y+10509000D03*
X+2020000Y+575000D03*
X+2528000Y+575000D03*
D13*
X+1150000Y+10566000D03*
X+1150000Y+10820000D03*
X+1150000Y+11074000D03*
D15*
X+1495000Y+10610000D03*
X+2511000Y+10610000D03*
X+1495000Y+10880000D03*
X+2511000Y+10880000D03*
X+4420000Y+9748000D03*
X+4420000Y+9240000D03*
X+4980000Y+9494000D03*
X+1530000Y+7870000D03*
X+2546000Y+7870000D03*
X+3846000Y+10470000D03*
X+2830000Y+10470000D03*
X+3846000Y+10770000D03*
X+2830000Y+10770000D03*
X+3846000Y+11050000D03*
X+2830000Y+11050000D03*
X+550000Y+1224000D03*
X+550000Y+1478000D03*
X+550000Y+1732000D03*
X+550000Y+1986000D03*
X+990000Y+1730000D03*
X+2006000Y+1730000D03*
X+990000Y+2040000D03*
X+2006000Y+2040000D03*
D18*
X+7569340Y+6980340D03*
X+7569340Y+6777140D03*
X+7569340Y+6573940D03*
D15*
X+7190000Y+6110000D03*
X+7190000Y+7126000D03*
X+710000Y+10380000D03*
X+456000Y+10380000D03*
D17*
X+4076000Y+575000D03*
X+3568000Y+575000D03*
X+3060000Y+575000D03*
D15*
X+1400000Y+1440000D03*
X+1400000Y+424000D03*
X+3050000Y+2070000D03*
X+4066000Y+2070000D03*
X+3050000Y+2340000D03*
X+4066000Y+2340000D03*
X+3430000Y+2640000D03*
X+4446000Y+2640000D03*
X+2490000Y+2410000D03*
X+2490000Y+1394000D03*
X+8770000Y+10650000D03*
X+8770000Y+10396000D03*
X+1970000Y+3790000D03*
X+2224000Y+3790000D03*
X+6940000Y+3090000D03*
X+7448000Y+3090000D03*
D17*
X+9850000Y+10500000D03*
X+10358000Y+10500000D03*
X+11892280Y+6342380D03*
X+11892280Y+6850380D03*
D13*
X+8282940Y+4406900D03*
D15*
X+8282940Y+4152900D03*
X+8282940Y+3898900D03*
X+9044940Y+3898900D03*
X+9044940Y+4152900D03*
X+9044940Y+4406900D03*
X+7520940Y+4640580D03*
X+7520940Y+3624580D03*
X+7520940Y+6149340D03*
X+7520940Y+5133340D03*
X+9298940Y+6972300D03*
X+8028940Y+6972300D03*
X+9298940Y+4978400D03*
X+8028940Y+4978400D03*
X+10339070Y+3180080D03*
X+10339070Y+4704080D03*
X+10339070Y+5356860D03*
X+10339070Y+6880860D03*
X+8155940Y+3408680D03*
X+9171940Y+3408680D03*
X+8168640Y+5494020D03*
X+9184640Y+5494020D03*
X+10854690Y+6959600D03*
X+10854690Y+5435600D03*
X+10854690Y+4691380D03*
X+10854690Y+3167380D03*
D13*
X+9843770Y+5930900D03*
X+9843770Y+6184900D03*
X+9843770Y+6438900D03*
X+9843770Y+3830320D03*
X+9843770Y+4084320D03*
X+9843770Y+4338320D03*
D19*
X+10160Y+160D02*
X+12780160Y+160D01*
X+12780160Y+11320160D01*
X+10160Y+11320160D01*
X+10160Y+160D01*
M02*
