G04 PROTEUS RS274X GERBER FILE*
%FSLAX45Y45*%
%MOMM*%
G01*
%ADD19C,0.203200*%
D19*
X+10160Y+160D02*
X+12780160Y+160D01*
X+12780160Y+11320160D01*
X+10160Y+11320160D01*
X+10160Y+160D01*
X+3279700Y+5401880D02*
X+3279700Y+5498400D01*
X+2997760Y+5401880D02*
X+2997760Y+5500940D01*
X+3317800Y+5605080D02*
X+3368600Y+5605080D01*
X+3343200Y+5579680D02*
X+3343200Y+5630480D01*
X+3485440Y+5545390D02*
X+3500680Y+5561265D01*
X+3500680Y+5608890D01*
X+3470200Y+5640640D01*
X+3439720Y+5640640D01*
X+3409240Y+5608890D01*
X+3409240Y+5561265D01*
X+3424480Y+5545390D01*
X+3439720Y+5481890D02*
X+3409240Y+5450140D01*
X+3500680Y+5450140D01*
X+3439720Y+5291390D02*
X+3454960Y+5307265D01*
X+3454960Y+5354890D01*
X+3439720Y+5370765D01*
X+3424480Y+5370765D01*
X+3409240Y+5354890D01*
X+3409240Y+5307265D01*
X+3424480Y+5291390D01*
X+3485440Y+5291390D01*
X+3500680Y+5307265D01*
X+3500680Y+5354890D01*
X+4069700Y+5981600D02*
X+4069700Y+6078120D01*
X+3787760Y+5981600D02*
X+3787760Y+6080660D01*
X+4107800Y+6184800D02*
X+4158600Y+6184800D01*
X+4133200Y+6159400D02*
X+4133200Y+6210200D01*
X+3695440Y+6085110D02*
X+3710680Y+6100985D01*
X+3710680Y+6148610D01*
X+3680200Y+6180360D01*
X+3649720Y+6180360D01*
X+3619240Y+6148610D01*
X+3619240Y+6100985D01*
X+3634480Y+6085110D01*
X+3634480Y+6037485D02*
X+3619240Y+6021610D01*
X+3619240Y+5973985D01*
X+3634480Y+5958110D01*
X+3649720Y+5958110D01*
X+3664960Y+5973985D01*
X+3664960Y+6021610D01*
X+3680200Y+6037485D01*
X+3710680Y+6037485D01*
X+3710680Y+5958110D01*
X+3695440Y+5926360D02*
X+3634480Y+5926360D01*
X+3619240Y+5910485D01*
X+3619240Y+5846985D01*
X+3634480Y+5831110D01*
X+3695440Y+5831110D01*
X+3710680Y+5846985D01*
X+3710680Y+5910485D01*
X+3695440Y+5926360D01*
X+3710680Y+5926360D02*
X+3619240Y+5831110D01*
X+940300Y+4288400D02*
X+940300Y+4191880D01*
X+1222240Y+4288400D02*
X+1222240Y+4189340D01*
X+902200Y+4085200D02*
X+851400Y+4085200D01*
X+876800Y+4110600D02*
X+876800Y+4059800D01*
X+1075520Y+3895390D02*
X+1090760Y+3911265D01*
X+1090760Y+3958890D01*
X+1060280Y+3990640D01*
X+1029800Y+3990640D01*
X+999320Y+3958890D01*
X+999320Y+3911265D01*
X+1014560Y+3895390D01*
X+1014560Y+3847765D02*
X+999320Y+3831890D01*
X+999320Y+3784265D01*
X+1014560Y+3768390D01*
X+1029800Y+3768390D01*
X+1045040Y+3784265D01*
X+1045040Y+3831890D01*
X+1060280Y+3847765D01*
X+1090760Y+3847765D01*
X+1090760Y+3768390D01*
X+1029800Y+3704890D02*
X+999320Y+3673140D01*
X+1090760Y+3673140D01*
X+6429700Y+3901880D02*
X+6429700Y+3998400D01*
X+6147760Y+3901880D02*
X+6147760Y+4000940D01*
X+6467800Y+4105080D02*
X+6518600Y+4105080D01*
X+6493200Y+4079680D02*
X+6493200Y+4130480D01*
X+6635440Y+4045390D02*
X+6650680Y+4061265D01*
X+6650680Y+4108890D01*
X+6620200Y+4140640D01*
X+6589720Y+4140640D01*
X+6559240Y+4108890D01*
X+6559240Y+4061265D01*
X+6574480Y+4045390D01*
X+6589720Y+3981890D02*
X+6559240Y+3950140D01*
X+6650680Y+3950140D01*
X+6574480Y+3791390D02*
X+6559240Y+3807265D01*
X+6559240Y+3854890D01*
X+6574480Y+3870765D01*
X+6635440Y+3870765D01*
X+6650680Y+3854890D01*
X+6650680Y+3807265D01*
X+6635440Y+3791390D01*
X+6620200Y+3791390D01*
X+6604960Y+3807265D01*
X+6604960Y+3870765D01*
X+3348400Y+8149700D02*
X+3251880Y+8149700D01*
X+3348400Y+7867760D02*
X+3249340Y+7867760D01*
X+3145200Y+8187800D02*
X+3145200Y+8238600D01*
X+3170600Y+8213200D02*
X+3119800Y+8213200D01*
X+3845390Y+7944480D02*
X+3861265Y+7929240D01*
X+3908890Y+7929240D01*
X+3940640Y+7959720D01*
X+3940640Y+7990200D01*
X+3908890Y+8020680D01*
X+3861265Y+8020680D01*
X+3845390Y+8005440D01*
X+3797765Y+8005440D02*
X+3781890Y+8020680D01*
X+3734265Y+8020680D01*
X+3718390Y+8005440D01*
X+3718390Y+7990200D01*
X+3734265Y+7974960D01*
X+3781890Y+7974960D01*
X+3797765Y+7959720D01*
X+3797765Y+7929240D01*
X+3718390Y+7929240D01*
X+3670765Y+8005440D02*
X+3654890Y+8020680D01*
X+3607265Y+8020680D01*
X+3591390Y+8005440D01*
X+3591390Y+7990200D01*
X+3607265Y+7974960D01*
X+3654890Y+7974960D01*
X+3670765Y+7959720D01*
X+3670765Y+7929240D01*
X+3591390Y+7929240D01*
X+3348400Y+7739700D02*
X+3251880Y+7739700D01*
X+3348400Y+7457760D02*
X+3249340Y+7457760D01*
X+3145200Y+7777800D02*
X+3145200Y+7828600D01*
X+3170600Y+7803200D02*
X+3119800Y+7803200D01*
X+3855390Y+7584480D02*
X+3871265Y+7569240D01*
X+3918890Y+7569240D01*
X+3950640Y+7599720D01*
X+3950640Y+7630200D01*
X+3918890Y+7660680D01*
X+3871265Y+7660680D01*
X+3855390Y+7645440D01*
X+3807765Y+7645440D02*
X+3791890Y+7660680D01*
X+3744265Y+7660680D01*
X+3728390Y+7645440D01*
X+3728390Y+7630200D01*
X+3744265Y+7614960D01*
X+3791890Y+7614960D01*
X+3807765Y+7599720D01*
X+3807765Y+7569240D01*
X+3728390Y+7569240D01*
X+3601390Y+7599720D02*
X+3696640Y+7599720D01*
X+3633140Y+7660680D01*
X+3633140Y+7569240D01*
X+7241880Y+1940300D02*
X+7338400Y+1940300D01*
X+7241880Y+2222240D02*
X+7340940Y+2222240D01*
X+7445080Y+1902200D02*
X+7445080Y+1851400D01*
X+7419680Y+1876800D02*
X+7470480Y+1876800D01*
X+7385390Y+1734560D02*
X+7401265Y+1719320D01*
X+7448890Y+1719320D01*
X+7480640Y+1749800D01*
X+7480640Y+1780280D01*
X+7448890Y+1810760D01*
X+7401265Y+1810760D01*
X+7385390Y+1795520D01*
X+7337765Y+1795520D02*
X+7321890Y+1810760D01*
X+7274265Y+1810760D01*
X+7258390Y+1795520D01*
X+7258390Y+1780280D01*
X+7274265Y+1765040D01*
X+7321890Y+1765040D01*
X+7337765Y+1749800D01*
X+7337765Y+1719320D01*
X+7258390Y+1719320D01*
X+7131390Y+1810760D02*
X+7210765Y+1810760D01*
X+7210765Y+1780280D01*
X+7147265Y+1780280D01*
X+7131390Y+1765040D01*
X+7131390Y+1734560D01*
X+7147265Y+1719320D01*
X+7194890Y+1719320D01*
X+7210765Y+1734560D01*
X+11076940Y+254000D02*
X+11076940Y+177800D01*
X+11051540Y+152400D01*
X+11000740Y+203200D01*
X+10949940Y+152400D01*
X+10924540Y+177800D01*
X+10924540Y+254000D01*
X+10873740Y+254000D02*
X+10873740Y+177800D01*
X+10848340Y+152400D01*
X+10797540Y+203200D01*
X+10746740Y+152400D01*
X+10721340Y+177800D01*
X+10721340Y+254000D01*
X+10670540Y+254000D02*
X+10670540Y+177800D01*
X+10645140Y+152400D01*
X+10594340Y+203200D01*
X+10543540Y+152400D01*
X+10518140Y+177800D01*
X+10518140Y+254000D01*
X+10391140Y+177800D02*
X+10365740Y+177800D01*
X+10365740Y+152400D01*
X+10391140Y+152400D01*
X+10391140Y+177800D01*
X+10111740Y+228600D02*
X+10137140Y+254000D01*
X+10238740Y+254000D01*
X+10264140Y+228600D01*
X+10264140Y+177800D01*
X+10238740Y+152400D01*
X+10137140Y+152400D01*
X+10111740Y+177800D01*
X+10111740Y+152400D02*
X+10111740Y+304800D01*
X+9984740Y+254000D02*
X+9984740Y+152400D01*
X+9984740Y+304800D02*
X+9984740Y+304800D01*
X+9857740Y+203200D02*
X+9705340Y+203200D01*
X+9705340Y+228600D01*
X+9730740Y+254000D01*
X+9832340Y+254000D01*
X+9857740Y+228600D01*
X+9857740Y+177800D01*
X+9832340Y+152400D01*
X+9730740Y+152400D01*
X+9578340Y+304800D02*
X+9578340Y+152400D01*
X+9451340Y+203200D02*
X+9298940Y+203200D01*
X+9298940Y+228600D01*
X+9324340Y+254000D01*
X+9425940Y+254000D01*
X+9451340Y+228600D01*
X+9451340Y+177800D01*
X+9425940Y+152400D01*
X+9324340Y+152400D01*
X+9095740Y+228600D02*
X+9121140Y+254000D01*
X+9222740Y+254000D01*
X+9248140Y+228600D01*
X+9248140Y+177800D01*
X+9222740Y+152400D01*
X+9121140Y+152400D01*
X+9095740Y+177800D01*
X+8968740Y+254000D02*
X+8968740Y+152400D01*
X+8968740Y+304800D02*
X+8968740Y+304800D01*
X+8841740Y+152400D02*
X+8841740Y+254000D01*
X+8841740Y+228600D02*
X+8816340Y+254000D01*
X+8714740Y+254000D01*
X+8689340Y+228600D01*
X+8689340Y+152400D01*
X+8486140Y+228600D02*
X+8511540Y+254000D01*
X+8613140Y+254000D01*
X+8638540Y+228600D01*
X+8638540Y+203200D01*
X+8613140Y+177800D01*
X+8511540Y+177800D01*
X+8486140Y+203200D01*
X+8486140Y+254000D02*
X+8486140Y+152400D01*
X+8511540Y+127000D01*
X+8638540Y+127000D01*
X+8435340Y+203200D02*
X+8282940Y+203200D01*
X+8282940Y+228600D01*
X+8308340Y+254000D01*
X+8409940Y+254000D01*
X+8435340Y+228600D01*
X+8435340Y+177800D01*
X+8409940Y+152400D01*
X+8308340Y+152400D01*
X+8232140Y+152400D02*
X+8232140Y+254000D01*
X+8232140Y+228600D02*
X+8206740Y+254000D01*
X+8105140Y+254000D01*
X+8079740Y+228600D01*
X+8079740Y+152400D01*
X+7952740Y+254000D02*
X+7952740Y+152400D01*
X+7952740Y+304800D02*
X+7952740Y+304800D01*
X+7825740Y+203200D02*
X+7673340Y+203200D01*
X+7673340Y+228600D01*
X+7698740Y+254000D01*
X+7800340Y+254000D01*
X+7825740Y+228600D01*
X+7825740Y+177800D01*
X+7800340Y+152400D01*
X+7698740Y+152400D01*
X+7622540Y+152400D02*
X+7622540Y+254000D01*
X+7622540Y+228600D02*
X+7597140Y+254000D01*
X+7495540Y+254000D01*
X+7470140Y+228600D01*
X+7343140Y+254000D02*
X+7343140Y+152400D01*
X+7343140Y+304800D02*
X+7343140Y+304800D01*
X+7190740Y+254000D02*
X+7089140Y+254000D01*
X+7063740Y+228600D01*
X+7063740Y+152400D01*
X+7190740Y+152400D01*
X+7216140Y+177800D01*
X+7190740Y+203200D01*
X+7063740Y+203200D01*
X+6936740Y+177800D02*
X+6911340Y+177800D01*
X+6911340Y+152400D01*
X+6936740Y+152400D01*
X+6936740Y+177800D01*
X+6657340Y+228600D02*
X+6682740Y+254000D01*
X+6784340Y+254000D01*
X+6809740Y+228600D01*
X+6809740Y+177800D01*
X+6784340Y+152400D01*
X+6682740Y+152400D01*
X+6657340Y+177800D01*
X+6606540Y+228600D02*
X+6581140Y+254000D01*
X+6479540Y+254000D01*
X+6454140Y+228600D01*
X+6454140Y+177800D01*
X+6479540Y+152400D01*
X+6581140Y+152400D01*
X+6606540Y+177800D01*
X+6606540Y+228600D01*
X+6403340Y+152400D02*
X+6403340Y+254000D01*
X+6403340Y+228600D02*
X+6377940Y+254000D01*
X+6327140Y+203200D01*
X+6276340Y+254000D01*
X+6250940Y+228600D01*
X+6250940Y+152400D01*
X+9339580Y+414020D02*
X+9339580Y+388620D01*
X+9314180Y+363220D01*
X+9212580Y+363220D01*
X+9187180Y+388620D01*
X+9187180Y+515620D01*
X+9136380Y+515620D02*
X+9136380Y+388620D01*
X+9110980Y+363220D01*
X+9009380Y+363220D01*
X+8983980Y+388620D01*
X+8983980Y+515620D01*
X+8933180Y+363220D02*
X+8933180Y+515620D01*
X+8831580Y+515620D01*
X+8780780Y+464820D01*
X+8780780Y+414020D01*
X+8831580Y+363220D01*
X+8933180Y+363220D01*
X+8729980Y+363220D02*
X+8729980Y+464820D01*
X+8679180Y+515620D01*
X+8628380Y+515620D01*
X+8577580Y+464820D01*
X+8577580Y+363220D01*
X+8729980Y+414020D02*
X+8577580Y+414020D01*
X+8526780Y+363220D02*
X+8526780Y+515620D01*
X+8399780Y+515620D01*
X+8374380Y+490220D01*
X+8374380Y+464820D01*
X+8399780Y+439420D01*
X+8526780Y+439420D01*
X+8298180Y+515620D02*
X+8196580Y+515620D01*
X+8247380Y+515620D02*
X+8247380Y+363220D01*
X+8298180Y+363220D02*
X+8196580Y+363220D01*
X+7967980Y+363220D02*
X+8120380Y+363220D01*
X+8120380Y+515620D01*
X+7967980Y+515620D01*
X+8120380Y+439420D02*
X+8018780Y+439420D01*
X+7917180Y+388620D02*
X+7891780Y+363220D01*
X+7790180Y+363220D01*
X+7764780Y+388620D01*
X+7764780Y+414020D01*
X+7790180Y+439420D01*
X+7891780Y+439420D01*
X+7917180Y+464820D01*
X+7917180Y+490220D01*
X+7891780Y+515620D01*
X+7790180Y+515620D01*
X+7764780Y+490220D01*
M02*
